<svg width="64" height="64" viewBox="0 0 64 64" fill="none" xmlns="http://www.w3.org/2000/svg">
<path fill-rule="evenodd" clip-rule="evenodd" d="M33.76 6.07197C32.329 6.25343 30.9828 6.85138 29.8887 7.79151C28.7946 8.73164 28.0008 9.97252 27.6061 11.36L27.3601 12.213V29.92L27.6081 30.318C28.4371 31.653 30.4211 31.597 31.1051 30.219C31.2961 29.834 31.3091 29.371 31.3601 21.067C31.4131 12.347 31.4141 12.319 31.6451 11.888C31.9411 11.334 32.6681 10.608 33.2211 10.311C33.6351 10.09 33.799 10.079 37.128 10.048C40.43 10.018 40.6331 10.027 41.1961 10.238C41.9851 10.533 42.7981 11.342 43.0901 12.123C43.3051 12.696 43.3071 12.869 43.3071 32C43.3071 51.09 43.3041 51.305 43.0921 51.874C42.833 52.566 42.0701 53.381 41.3871 53.695C40.9701 53.887 40.6311 53.924 38.8181 53.972C36.7761 54.026 36.7211 54.033 36.2981 54.313C35.6581 54.737 35.378 55.256 35.378 56.018C35.378 56.541 35.43 56.721 35.6891 57.087C36.2631 57.9 36.5421 57.974 38.9871 57.967C40.8641 57.962 41.2231 57.932 41.9731 57.721C44.4081 57.036 46.3531 55.094 47.0611 52.64L47.3071 51.787V12.213L47.0611 11.36C46.361 8.93297 44.4321 6.98797 42.0271 6.28597C41.2891 6.06997 40.9591 6.04997 37.8131 6.02197C35.9361 6.00497 34.112 6.02697 33.76 6.07197ZM20.8391 35.406C20.3691 35.521 19.8971 35.882 19.6081 36.349C19.3651 36.739 19.3591 36.81 19.3261 40.02L19.2931 43.293L16.0121 43.326L12.7311 43.36L12.2981 43.646C11.6581 44.07 11.3781 44.589 11.3781 45.351C11.3781 45.874 11.4301 46.054 11.6891 46.421C12.2931 47.276 12.4171 47.302 16.0731 47.34L19.2931 47.374L19.3261 50.647C19.3591 53.857 19.3651 53.928 19.6081 54.318C20.5591 55.849 22.8711 55.498 23.2421 53.766C23.3121 53.44 23.3601 52.024 23.3601 50.288V47.36H26.2881C28.0241 47.36 29.4401 47.312 29.7661 47.242C31.4981 46.871 31.8491 44.559 30.3181 43.608C29.9281 43.365 29.8571 43.359 26.6471 43.326L23.3741 43.293L23.3401 40.073C23.3091 37.051 23.2931 36.827 23.0841 36.427C22.6761 35.645 21.6901 35.197 20.8391 35.406Z" fill="#222222"/>
</svg>
