<svg width="64" height="64" viewBox="0 0 64 64" fill="none" xmlns="http://www.w3.org/2000/svg">
<path fill-rule="evenodd" clip-rule="evenodd" d="M16 8.74997C14.535 8.83597 13.581 9.04497 12.754 9.46197C10.643 10.528 9.31398 12.3 8.84298 14.679C8.67298 15.537 8.57898 44.786 8.73798 47.52C8.85498 49.539 9.01398 50.359 9.46298 51.248C10.528 53.357 12.301 54.686 14.679 55.157C15.132 55.247 19.512 55.294 30.453 55.327C45.948 55.375 48.793 55.324 50.08 54.979C52.357 54.369 54.369 52.357 54.979 50.08C55.324 48.793 55.375 45.948 55.327 30.453C55.294 19.512 55.247 15.132 55.157 14.679C54.686 12.3 53.357 10.528 51.246 9.46197C50.396 9.03297 49.461 8.84097 47.733 8.73997C45.832 8.62897 17.925 8.63797 16 8.74997ZM49.403 12.976C50.036 13.269 50.731 13.964 51.024 14.597L51.253 15.093V48.907L51.024 49.403C50.731 50.036 50.036 50.731 49.403 51.024L48.907 51.253H15.093L14.597 51.024C13.964 50.731 13.269 50.036 12.976 49.403L12.747 48.907V15.093L12.976 14.597C13.392 13.697 14.265 12.987 15.181 12.804C15.426 12.755 23.115 12.722 32.267 12.731L48.907 12.747L49.403 12.976ZM20.839 30.075C19.549 30.383 18.928 32.01 19.689 33.087C19.86 33.329 20.192 33.628 20.427 33.751C20.85 33.972 20.935 33.974 31.678 34.002C39.317 34.023 42.671 33.997 43.074 33.913C45.073 33.498 45.146 30.595 43.17 30.097C42.611 29.956 21.424 29.935 20.839 30.075Z" fill="#222222"/>
</svg>
