<svg width="64" height="64" viewBox="0 0 64 64" fill="none" xmlns="http://www.w3.org/2000/svg">
<path fill-rule="evenodd" clip-rule="evenodd" d="M16.0001 8.74997C14.5351 8.83597 13.5811 9.04497 12.7541 9.46197C10.6431 10.528 9.31411 12.3 8.84311 14.679C8.67311 15.537 8.57911 44.786 8.73811 47.52C8.85511 49.539 9.01411 50.359 9.46311 51.248C10.5281 53.357 12.3011 54.686 14.6791 55.157C15.1321 55.247 19.5121 55.294 30.4531 55.327C45.9481 55.375 48.7931 55.324 50.0801 54.979C52.3571 54.369 54.3691 52.357 54.9791 50.08C55.3241 48.793 55.3751 45.948 55.3271 30.453C55.2941 19.512 55.2471 15.132 55.1571 14.679C54.6861 12.3 53.3571 10.528 51.2461 9.46197C50.3961 9.03297 49.4611 8.84097 47.7331 8.73997C45.8321 8.62897 17.9251 8.63797 16.0001 8.74997ZM49.4031 12.976C50.0361 13.269 50.7311 13.964 51.0241 14.597L51.2531 15.093V48.907L51.0241 49.403C50.7311 50.036 50.0361 50.731 49.4031 51.024L48.9071 51.253H15.0931L14.5971 51.024C13.9641 50.731 13.2691 50.036 12.9761 49.403L12.7471 48.907V15.093L12.9761 14.597C13.3921 13.697 14.2651 12.987 15.1811 12.804C15.4261 12.755 23.1151 12.722 32.2671 12.731L48.9071 12.747L49.4031 12.976ZM31.5061 19.405C31.0351 19.522 30.5641 19.883 30.2741 20.349L30.0271 20.747L29.9951 25.355L29.9631 29.963L25.3471 29.995L20.7311 30.027L20.2991 30.313C19.6581 30.737 19.3781 31.256 19.3781 32.018C19.3781 32.541 19.4301 32.721 19.6891 33.087C19.8601 33.329 20.1921 33.628 20.4271 33.751C20.8371 33.965 21.0291 33.975 25.4081 34.005L29.9631 34.037L29.9951 38.645L30.0271 43.253L30.2741 43.651C31.2261 45.182 33.5371 44.831 33.9091 43.099C33.9841 42.75 34.0271 40.997 34.0271 38.288V34.027H38.2881C40.9971 34.027 42.7501 33.984 43.0991 33.909C45.0761 33.485 45.1301 30.59 43.1701 30.097C42.8381 30.013 41.2781 29.973 38.3531 29.973H34.0271L34.0241 25.68C34.0231 23.118 33.9771 21.194 33.9111 20.909C33.6601 19.818 32.5741 19.14 31.5061 19.405Z" fill="#222222"/>
</svg>
