<svg width="64" height="64" viewBox="0 0 64 64" fill="none" xmlns="http://www.w3.org/2000/svg">
<path fill-rule="evenodd" clip-rule="evenodd" d="M31.4015 10.0707C30.8242 10.2139 30.2469 10.6559 29.8915 11.2251L29.5888 11.7123L29.5508 20.6209L29.514 29.5282L20.5867 29.565L11.6595 29.6029L11.1288 29.953C10.3444 30.4721 10 31.1075 10 32.0403C10 32.6806 10.065 32.9009 10.3824 33.349C10.592 33.6452 10.9989 34.0113 11.2857 34.1619C11.7992 34.4287 11.9744 34.4349 20.6615 34.4716L29.514 34.5083L29.5508 43.4156L29.5888 52.3242L29.8915 52.8114C31.0583 54.6857 33.8907 54.256 34.3466 52.1357C34.4434 51.6827 34.4912 48.6822 34.4912 42.981V34.4997H42.9822C48.6898 34.4997 51.6937 34.452 52.1472 34.3553C54.5702 33.8362 54.6352 30.2921 52.233 29.6886C51.8077 29.5809 49.1237 29.5368 43.0606 29.5368H34.4912L34.4875 21.0163C34.4851 15.6359 34.4348 12.2804 34.349 11.9107C34.0414 10.5763 32.7104 9.74505 31.4015 10.0707Z" fill="#222222"/>
</svg>
