<svg width="64" height="64" viewBox="0 0 64 64" fill="none" xmlns="http://www.w3.org/2000/svg">
<path fill-rule="evenodd" clip-rule="evenodd" d="M18.1721 11.406C17.7021 11.521 17.2311 11.882 16.9411 12.349C16.6981 12.739 16.6931 12.81 16.6601 16.02L16.6261 19.293L13.3451 19.326L10.0641 19.36L9.6321 19.646C8.9921 20.07 8.7111 20.589 8.7111 21.351C8.7111 21.874 8.7641 22.054 9.0221 22.421C9.6271 23.276 9.7501 23.302 13.4061 23.34L16.6261 23.374L16.6601 26.647C16.6931 29.857 16.6981 29.928 16.9411 30.318C17.8931 31.849 20.2041 31.498 20.5751 29.766C20.6451 29.44 20.6931 28.024 20.6931 26.288V23.36H23.6211C25.3571 23.36 26.7731 23.312 27.0991 23.242C28.8311 22.871 29.1821 20.559 27.6511 19.608C27.2611 19.365 27.1901 19.359 23.9801 19.326L20.7071 19.293L20.6741 16.073C20.6421 13.051 20.6261 12.827 20.4171 12.427C20.0091 11.645 19.0241 11.197 18.1721 11.406ZM34.1721 27.405C32.8791 27.725 32.2611 29.344 33.0221 30.421C33.1931 30.663 33.5251 30.961 33.7601 31.084C34.1801 31.303 34.3231 31.308 42.8801 31.36C51.4141 31.412 51.5821 31.417 52.0531 31.636C52.7381 31.954 53.5001 32.769 53.7581 33.46C53.9571 33.991 53.9731 34.287 53.9731 37.333C53.9731 40.387 53.9571 40.675 53.7571 41.211C53.4671 41.985 52.6511 42.801 51.8771 43.09C51.3041 43.305 51.1311 43.307 32.0001 43.307C12.9101 43.307 12.6951 43.304 12.1261 43.092C11.4341 42.833 10.6191 42.069 10.3051 41.387C10.1141 40.973 10.0761 40.627 10.0271 38.88C9.9621 36.561 9.8681 36.24 9.0871 35.689C8.7211 35.43 8.5411 35.378 8.0181 35.378C7.2561 35.378 6.7361 35.658 6.3131 36.299L6.0271 36.732L6.0321 38.926C6.0381 40.867 6.0661 41.218 6.2781 41.973C6.9641 44.409 8.9061 46.353 11.3601 47.061L12.2131 47.307H51.7871L52.6401 47.061C53.8484 46.7108 54.9484 46.0607 55.8378 45.1711C56.7272 44.2815 57.3772 43.1813 57.7271 41.973C57.9641 41.154 57.9731 40.97 57.9731 37.333C57.9731 33.697 57.9641 33.513 57.7271 32.693C57.377 31.494 56.7332 30.4013 55.8542 29.5139C54.9752 28.6266 53.8887 27.9725 52.6931 27.611C51.8931 27.37 51.8921 27.37 43.2001 27.346C38.4191 27.333 34.3561 27.36 34.1721 27.405Z" fill="#222222"/>
</svg>
