<svg width="64" height="64" viewBox="0 0 64 64" fill="none" xmlns="http://www.w3.org/2000/svg">
<path fill-rule="evenodd" clip-rule="evenodd" d="M24.0001 6.08402C22.5531 6.16802 21.5691 6.38002 20.7691 6.78002C18.6711 7.82902 17.3081 9.64602 16.8441 12.012C16.6741 12.881 16.5801 36.814 16.7371 39.505C16.8551 41.539 17.0141 42.357 17.4631 43.248C18.5281 45.357 20.3081 46.691 22.6791 47.156C23.5471 47.326 47.4801 47.42 50.1721 47.263C52.3121 47.139 53.0501 46.984 54.0801 46.445C55.3773 45.7706 56.4353 44.713 57.1101 43.416C57.6511 42.383 57.8061 41.647 57.9301 39.505C58.0861 36.814 57.9921 12.881 57.8221 12.012C57.3571 9.64102 56.0241 7.86202 53.9121 6.79602C53.0631 6.36602 52.1281 6.17402 50.4001 6.07402C48.5021 5.96302 25.9261 5.97202 24.0001 6.08402ZM52.0691 10.309C52.7031 10.602 53.3981 11.297 53.6911 11.931L53.9201 12.427V40.907L53.6911 41.403C53.3981 42.036 52.7031 42.731 52.0691 43.024L51.5731 43.253H23.0931L22.5971 43.024C21.9641 42.731 21.2691 42.036 20.9761 41.403L20.7471 40.907V12.427L20.9761 11.931C21.3921 11.03 22.2651 10.321 23.1811 10.137C23.4261 10.088 29.9151 10.055 37.6001 10.064L51.5731 10.08L52.0691 10.309ZM36.8391 16.742C36.3711 16.853 35.8981 17.214 35.6081 17.682C35.3651 18.072 35.3591 18.143 35.3261 21.353L35.2931 24.626L32.0121 24.66L28.7311 24.693L28.2981 24.979C27.6581 25.403 27.3781 25.923 27.3781 26.685C27.3781 27.208 27.4301 27.388 27.6891 27.754C28.2931 28.61 28.4171 28.635 32.0731 28.674L35.2931 28.707L35.3261 31.98C35.3591 35.19 35.3651 35.261 35.6081 35.651C36.5591 37.182 38.8711 36.831 39.2421 35.099C39.3121 34.773 39.3601 33.357 39.3601 31.621V28.693H42.2881C44.0241 28.693 45.4401 28.645 45.7661 28.575C47.7871 28.142 47.7871 25.191 45.7661 24.758C45.4401 24.688 44.0241 24.64 42.2881 24.64H39.3601L39.3571 21.68C39.3551 18.545 39.2901 17.968 38.8801 17.43C38.4611 16.882 37.5481 16.573 36.8391 16.742ZM7.5061 22.072C7.0351 22.189 6.5641 22.55 6.2741 23.015L6.0271 23.413V38.72C6.0271 53.197 6.0371 54.061 6.2201 54.653C6.44312 55.381 6.83804 56.0446 7.3715 56.5878C7.90496 57.131 8.5613 57.5378 9.2851 57.774C9.8351 57.958 10.6731 57.97 24.8431 58.002C35.6691 58.026 39.9801 58.002 40.3991 57.915C42.4061 57.498 42.4851 54.596 40.5031 54.097C40.1431 54.006 36.0731 53.973 25.1961 53.973C10.9781 53.973 10.3731 53.965 10.2031 53.778C10.0411 53.599 10.0261 52.405 10.0241 38.818C10.0221 29.056 9.9841 23.891 9.9111 23.575C9.6601 22.485 8.5741 21.806 7.5061 22.072Z" fill="#222222"/>
</svg>
