<svg width="64" height="64" viewBox="0 0 64 64" fill="none" xmlns="http://www.w3.org/2000/svg">
<path fill-rule="evenodd" clip-rule="evenodd" d="M13.333 11.417C11.887 11.501 10.902 11.713 10.103 12.113C8.00297 13.163 6.63398 14.989 6.17998 17.345C6.09798 17.772 6.04198 21.105 6.00698 27.743C5.95298 37.856 6.02498 40.857 6.35298 42.074C6.79298 43.707 7.88397 45.167 9.39297 46.144C10.761 47.03 11.863 47.252 15.043 47.285C16.903 47.303 17.274 47.281 17.547 47.13C18.192 46.774 18.667 46.013 18.667 45.333C18.667 44.921 18.407 44.292 18.102 43.965C17.59 43.416 17.383 43.375 14.827 43.305C12.709 43.248 12.368 43.214 11.931 43.018C11.301 42.735 10.604 42.041 10.309 41.403L10.08 40.907V17.76L10.309 17.264C10.602 16.63 11.297 15.936 11.931 15.643L12.427 15.413H51.573L52.069 15.643C52.703 15.936 53.398 16.63 53.691 17.264L53.92 17.76V40.907L53.691 41.403C53.396 42.041 52.699 42.735 52.069 43.018C51.632 43.214 51.291 43.248 49.173 43.305C46.548 43.377 46.364 43.418 45.83 44.053C45.347 44.626 45.221 45.391 45.498 46.055C45.851 46.899 46.4 47.247 47.506 47.326C48.601 47.405 51.995 47.18 52.747 46.979C54.549 46.497 56.204 45.145 57.111 43.413C57.653 42.38 57.806 41.647 57.932 39.476C58.085 36.84 57.991 18.231 57.82 17.345C57.365 14.985 56.025 13.196 53.912 12.129C53.063 11.7 52.128 11.508 50.4 11.407C48.496 11.296 15.257 11.305 13.333 11.417ZM31.52 38.07C31.3196 38.1236 31.1265 38.2015 30.945 38.302C30.804 38.385 28.182 41.585 25.118 45.412C19.113 52.911 19.187 52.804 19.402 53.76C19.4701 54.0458 19.5986 54.3137 19.7789 54.5456C19.9591 54.7776 20.1869 54.9684 20.447 55.105C20.836 55.298 21.313 55.308 31.68 55.34C39.576 55.364 42.661 55.34 43.077 55.25C43.4337 55.1763 43.7627 55.0042 44.0267 54.7533C44.2907 54.5023 44.4792 54.1825 44.571 53.83C44.829 52.807 44.965 53.01 38.884 45.412C35.801 41.56 33.175 38.375 33.004 38.279C32.616 38.061 31.94 37.966 31.52 38.07ZM35.242 47.252C36.979 49.422 38.4 51.222 38.4 51.252C38.4 51.282 35.52 51.307 32 51.307C28.48 51.307 25.6 51.282 25.6 51.252C25.6 51.148 31.916 43.307 32 43.307C32.047 43.307 33.506 45.082 35.242 47.252Z" fill="#222222"/>
</svg>
