<svg width="64" height="64" viewBox="0 0 64 64" fill="none" xmlns="http://www.w3.org/2000/svg">
<path fill-rule="evenodd" clip-rule="evenodd" d="M15.694 3.40999C15.4463 3.48271 15.2122 3.59554 15.001 3.74399C14.294 4.26299 6.65503 10.701 6.43203 10.965C6.30303 11.118 6.14403 11.468 6.07803 11.742C5.70203 13.308 7.32203 14.664 8.77403 13.997C9.28803 13.761 17.49 6.88799 17.817 6.41999C18.18 5.89899 18.225 5.05699 17.922 4.43199C17.544 3.65099 16.558 3.19799 15.694 3.40999ZM47.215 3.45999C45.852 3.95399 45.414 5.62899 46.38 6.64899C46.992 7.29399 54.855 13.823 55.23 13.997C56.674 14.666 58.297 13.307 57.922 11.742C57.856 11.468 57.697 11.116 57.568 10.961C57.263 10.593 49.095 3.75599 48.747 3.57599C48.303 3.34699 47.661 3.29899 47.215 3.45999ZM30.293 8.74999C23.985 9.17499 17.971 12.306 13.909 17.282C11.288 20.492 9.54003 24.497 8.90303 28.747C8.66503 30.335 8.66503 33.665 8.90303 35.253C9.5475 39.64 11.4046 43.7598 14.265 47.148C17.91 51.482 23.362 54.409 29.173 55.152C30.409 55.31 33.591 55.31 34.827 55.152C39.366 54.572 43.58 52.718 47.148 49.731C51.467 46.115 54.41 40.635 55.152 34.827C55.31 33.591 55.31 30.409 55.152 29.173C54.41 23.366 51.479 17.908 47.148 14.265C42.398 10.271 36.476 8.33299 30.293 8.74999ZM35.68 13.007C39.4614 13.7547 42.9327 15.6161 45.648 18.352C48.422 21.125 50.218 24.49 51.008 28.391C51.221 29.439 51.253 29.919 51.253 32C51.253 34.081 51.221 34.561 51.008 35.609C50.218 39.51 48.422 42.875 45.648 45.648C42.875 48.422 39.51 50.218 35.609 51.008C34.561 51.221 34.081 51.253 32 51.253C29.91 51.253 29.442 51.221 28.373 51.005C24.488 50.218 21.124 48.421 18.352 45.648C15.579 42.876 13.782 39.512 12.995 35.627C12.779 34.558 12.747 34.09 12.747 32C12.747 29.91 12.779 29.442 12.995 28.373C13.782 24.488 15.579 21.124 18.352 18.352C21.474 15.23 25.138 13.442 29.813 12.76C29.989 12.735 31.117 12.726 32.32 12.742C34.073 12.765 34.739 12.817 35.68 13.007ZM31.506 16.739C31.036 16.855 30.564 17.216 30.274 17.682L30.027 18.08V32.622L30.347 33.075C30.523 33.324 30.859 33.628 31.093 33.751C31.511 33.969 31.661 33.974 38.338 34.004C43.086 34.025 45.332 33.998 45.734 33.914C47.784 33.489 47.808 30.529 45.766 30.091C45.404 30.014 43.306 29.973 39.626 29.973H34.035L34.004 24.08C33.974 18.341 33.967 18.175 33.751 17.76C33.342 16.978 32.357 16.53 31.506 16.739Z" fill="#222222"/>
</svg>
