<svg width="64" height="64" viewBox="0 0 64 64" fill="none" xmlns="http://www.w3.org/2000/svg">
<path fill-rule="evenodd" clip-rule="evenodd" d="M11.973 14.0781C11.042 14.1841 9.85997 14.7851 9.25097 15.4621C8.63197 16.1501 7.05397 18.3421 6.61797 19.1181C6.01297 20.1971 5.85197 21.1761 6.09297 22.3151C6.55597 24.4981 8.38997 25.9201 10.741 25.9201H11.36V35.8131C11.36 46.2341 11.371 46.501 11.851 47.925C12.459 49.729 14.269 51.541 16.072 52.148C17.437 52.608 17.494 52.6101 30.439 52.66C46.182 52.722 47.023 52.681 48.747 51.778C50.718 50.745 52.023 48.972 52.441 46.758C52.626 45.78 52.64 45.0141 52.64 35.8131V25.9201H53.259C54.796 25.9201 56.243 25.2681 56.995 24.2351C58.226 22.5441 58.346 20.8651 57.364 19.0931C56.95 18.3481 55.368 16.1501 54.749 15.4621C54.108 14.7501 52.983 14.1951 51.93 14.0731C50.992 13.9651 12.931 13.9691 11.973 14.0781ZM52.089 18.4801C52.727 19.2621 54.08 21.2461 54.08 21.4001C54.08 21.4811 53.984 21.6431 53.867 21.7601C53.655 21.9721 53.511 21.9731 32 21.9731C10.489 21.9731 10.345 21.9721 10.133 21.7601C10.016 21.6431 9.91997 21.4811 9.91997 21.4001C9.91997 21.2461 11.273 19.2621 11.911 18.4801L12.281 18.0271H51.719L52.089 18.4801ZM48.467 26.2251C48.633 26.4091 48.644 27.1661 48.617 36.3321C48.587 46.2131 48.586 46.2411 48.357 46.736C48.064 47.37 47.37 48.064 46.736 48.357L46.24 48.5871H17.76L17.264 48.357C16.63 48.064 15.936 47.37 15.643 46.736C15.414 46.2411 15.413 46.2131 15.383 36.3321C15.356 27.1661 15.367 26.4091 15.533 26.2251C15.707 26.0331 16.252 26.0271 32 26.0271C47.748 26.0271 48.293 26.0331 48.467 26.2251ZM26.172 35.4081C24.883 35.7161 24.261 37.3441 25.022 38.4211C25.193 38.6631 25.525 38.9611 25.76 39.0841C26.174 39.3001 26.348 39.3081 31.668 39.3381C37.889 39.3731 38.084 39.3561 38.719 38.7211C39.781 37.6591 39.282 35.7941 37.836 35.4301C37.281 35.2901 26.75 35.2711 26.172 35.4081Z" fill="#222222"/>
</svg>
