<svg width="64" height="64" viewBox="0 0 64 64" fill="none" xmlns="http://www.w3.org/2000/svg">
<path fill-rule="evenodd" clip-rule="evenodd" d="M12.839 6.075C12.371 6.186 11.898 6.547 11.608 7.015L11.36 7.413V21.955L11.68 22.408C11.856 22.657 12.192 22.961 12.427 23.084C12.845 23.302 12.994 23.307 19.672 23.337C24.42 23.358 26.665 23.331 27.068 23.248C28.828 22.882 29.199 20.57 27.651 19.608L27.253 19.36L22.373 19.328C19.689 19.311 17.493 19.262 17.493 19.219C17.493 19.106 18.918 17.731 19.777 17.015C21.887 15.256 24.906 13.787 27.776 13.125C29.306 12.771 30.623 12.662 32.621 12.721C35.717 12.814 37.947 13.376 40.67 14.753C43.774 16.322 46.357 18.609 48.179 21.402C48.491 21.88 49.086 22.973 49.503 23.83C50.209 25.283 50.294 25.409 50.752 25.678C51.687 26.226 52.843 25.972 53.44 25.088C53.658 24.766 53.706 24.566 53.704 24C53.702 23.357 53.646 23.194 52.937 21.76C50.906 17.655 48.062 14.529 44.153 12.107C38.741 8.754 31.807 7.799 25.664 9.56C23.294 10.24 21.274 11.17 19.147 12.559C17.918 13.362 17.458 13.718 16.24 14.807L15.36 15.593L15.357 11.823C15.355 7.85 15.305 7.321 14.88 6.764C14.461 6.215 13.548 5.907 12.839 6.075ZM11.717 38.073C11.22 38.231 10.825 38.516 10.555 38.909C10.34 39.224 10.295 39.417 10.3 39.993C10.306 40.615 10.372 40.83 10.894 41.92C12.913 46.135 15.869 49.428 19.844 51.891C24.977 55.072 31.398 56.09 37.445 54.682C41.019 53.85 44.732 51.893 47.639 49.307L48.628 48.428L48.661 52.507C48.693 56.562 48.695 56.589 48.941 56.985C49.893 58.516 52.204 58.165 52.575 56.433C52.739 55.672 52.739 42.995 52.575 42.234C52.412 41.47 51.854 40.918 51.077 40.749C50.667 40.66 48.566 40.635 43.627 40.659L36.747 40.693L36.339 40.946C35.693 41.348 35.378 41.916 35.378 42.676C35.378 43.209 35.429 43.386 35.689 43.754C35.86 43.996 36.192 44.295 36.427 44.417C36.838 44.632 37.025 44.641 41.68 44.672C44.335 44.689 46.507 44.743 46.507 44.79C46.507 44.919 44.86 46.474 43.988 47.168C41.831 48.886 39.012 50.232 36.224 50.875C34.67 51.234 33.373 51.34 31.321 51.275C28.177 51.175 25.911 50.589 23.156 49.163C19.272 47.154 16.467 44.259 14.558 40.291C14.185 39.515 13.779 38.773 13.657 38.641C13.196 38.148 12.303 37.886 11.717 38.073Z" fill="#222222"/>
</svg>
