<svg width="64" height="64" viewBox="0 0 64 64" fill="none" xmlns="http://www.w3.org/2000/svg">
<path fill-rule="evenodd" clip-rule="evenodd" d="M31.733 16.69C31.675 16.711 31.483 16.759 31.307 16.798C31.069 16.85 29.557 18.294 25.408 22.434C22.339 25.495 19.727 28.163 19.603 28.361C19.286 28.87 19.292 29.806 19.616 30.33C20.086 31.09 20.907 31.423 21.836 31.23C22.322 31.129 22.53 30.941 26.158 27.328L29.969 23.531L29.998 34.726L30.027 45.92L30.274 46.318C31.226 47.849 33.537 47.498 33.909 45.766C33.99 45.385 34.027 41.888 34.027 34.371V23.527L37.84 27.325C41.46 30.931 41.679 31.129 42.16 31.229C43.706 31.55 44.882 30.374 44.563 28.827C44.462 28.341 44.232 28.093 38.896 22.741C35.836 19.673 33.189 17.074 33.013 16.966C32.703 16.775 31.95 16.613 31.733 16.69Z" fill="#222222"/>
</svg>
