<svg width="64" height="64" viewBox="0 0 64 64" fill="none" xmlns="http://www.w3.org/2000/svg">
<path fill-rule="evenodd" clip-rule="evenodd" d="M18.1721 16.742C17.7041 16.853 17.2321 17.214 16.9411 17.682L16.6931 18.08V40.587L16.9411 40.985C17.8931 42.516 20.2041 42.165 20.5751 40.433C20.6561 40.058 20.6931 37.274 20.6931 31.703V23.522L32.5071 35.324C43.9761 46.783 44.3351 47.129 44.8271 47.23C46.3741 47.548 47.5481 46.374 47.2301 44.827C47.1291 44.335 46.7831 43.976 35.3241 32.507L23.5221 20.693H31.7031C37.2741 20.693 40.0581 20.656 40.4331 20.575C42.4101 20.151 42.4631 17.257 40.5031 16.764C39.9441 16.623 18.7581 16.602 18.1721 16.742Z" fill="#222222"/>
</svg>
