<svg width="64" height="64" viewBox="0 0 64 64" fill="none" xmlns="http://www.w3.org/2000/svg">
<path fill-rule="evenodd" clip-rule="evenodd" d="M29.067 19.356C29.008 19.377 28.816 19.426 28.64 19.465C28.402 19.517 26.891 20.96 22.741 25.101C19.673 28.162 17.061 30.829 16.937 31.028C16.775 31.286 16.711 31.563 16.711 32C16.711 32.437 16.775 32.714 16.937 32.972C17.061 33.171 19.673 35.836 22.741 38.896C28.093 44.232 28.341 44.462 28.827 44.563C30.374 44.882 31.55 43.706 31.229 42.16C31.129 41.679 30.931 41.46 27.325 37.84L23.527 34.027H34.371C41.888 34.027 45.385 33.99 45.766 33.909C47.743 33.485 47.796 30.59 45.836 30.097C45.48 30.007 42.352 29.973 34.436 29.973H23.527L27.325 26.16C30.941 22.53 31.129 22.322 31.23 21.836C31.426 20.892 31.024 19.951 30.273 19.597C29.899 19.421 29.245 19.29 29.067 19.356Z" fill="#222222"/>
</svg>
