<svg width="64" height="64" viewBox="0 0 64 64" fill="none" xmlns="http://www.w3.org/2000/svg">
<path fill-rule="evenodd" clip-rule="evenodd" d="M34.172 6.07301C33.705 6.18701 33.231 6.54901 32.95 7.00301C32.675 7.44801 32.622 8.41301 32.848 8.85401C32.923 9.00001 35.266 11.408 38.054 14.204L43.125 19.288L33.216 19.34C22.979 19.394 22.733 19.404 21.405 19.852C19.603 20.459 17.792 22.271 17.184 24.075C16.69 25.54 16.693 25.437 16.693 41.44V56.587L16.941 56.985C17.782 58.338 19.745 58.282 20.438 56.886C20.633 56.495 20.642 55.911 20.693 41.12L20.747 25.76L20.976 25.264C21.269 24.63 21.964 23.936 22.597 23.643C23.092 23.414 23.117 23.413 33.12 23.384L43.147 23.355L38.065 28.451C35.271 31.253 32.923 33.666 32.848 33.813C32.773 33.959 32.711 34.357 32.711 34.696C32.711 35.206 32.765 35.39 33.022 35.754C33.193 35.996 33.515 36.288 33.737 36.403C34.232 36.659 35.036 36.674 35.534 36.438C35.74 36.341 38.924 33.234 42.845 29.306C49.541 22.599 49.796 22.328 49.896 21.84C49.964 21.5058 49.964 21.1612 49.896 20.827C49.796 20.338 49.541 20.068 42.896 13.408C39.103 9.60601 35.856 6.40701 35.68 6.29901C35.293 6.06101 34.627 5.96101 34.172 6.07301Z" fill="#222222"/>
</svg>
