<svg width="64" height="64" viewBox="0 0 64 64" fill="none" xmlns="http://www.w3.org/2000/svg">
<path fill-rule="evenodd" clip-rule="evenodd" d="M31.7331 11.356C31.6751 11.377 31.4831 11.426 31.3071 11.464C31.0661 11.516 28.9401 13.577 22.7411 19.767C18.2071 24.295 14.3951 28.163 14.2701 28.361C13.9531 28.87 13.9591 29.805 14.2831 30.33C14.7521 31.089 15.5731 31.422 16.5031 31.23C16.9951 31.129 17.2401 30.899 23.4921 24.66L29.9701 18.194L29.9981 34.724L30.0271 51.253L30.2741 51.651C31.2261 53.182 33.5371 52.831 33.9091 51.099C33.9921 50.711 34.0271 45.783 34.0271 34.37V18.191L40.5071 24.658C46.7441 30.883 47.0061 31.129 47.4931 31.23C49.0401 31.549 50.2151 30.374 49.8971 28.827C49.7961 28.337 49.5161 28.043 41.5121 20.027C36.9571 15.466 33.0861 11.666 32.9091 11.583C32.5611 11.419 31.9061 11.293 31.7331 11.356Z" fill="#222222"/>
</svg>
