<svg width="64" height="64" viewBox="0 0 64 64" fill="none" xmlns="http://www.w3.org/2000/svg">
<path fill-rule="evenodd" clip-rule="evenodd" d="M20.8391 19.407C20.3701 19.521 19.8981 19.882 19.6081 20.349L19.3601 20.747V37.92L19.6081 38.318C20.5591 39.849 22.8711 39.498 23.2421 37.766C23.3201 37.405 23.3601 35.326 23.3601 31.703V26.19L32.5071 35.324C41.3601 44.166 41.6701 44.463 42.1601 44.563C43.7071 44.881 44.8811 43.707 44.5631 42.16C44.4631 41.67 44.1661 41.36 35.3241 32.507L26.1901 23.36H31.7031C35.3261 23.36 37.4051 23.32 37.7661 23.242C39.4981 22.871 39.8491 20.559 38.3181 19.608L37.9201 19.36L29.5471 19.343C24.9411 19.333 21.0231 19.362 20.8391 19.407Z" fill="#222222"/>
</svg>
