<svg width="64" height="64" viewBox="0 0 64 64" fill="none" xmlns="http://www.w3.org/2000/svg">
<path fill-rule="evenodd" clip-rule="evenodd" d="M14.347 13.172C13.804 13.366 13.2729 13.94 13.1239 14.493C13.0429 14.791 13.0169 17.923 13.0369 24.724L13.067 34.525L13.3719 34.965C14.0649 35.965 15.498 36.139 16.356 35.327C17.048 34.672 17.01 35.12 17.044 27.151L17.075 19.903L32.458 35.273C40.9179 43.727 47.936 50.691 48.053 50.748C49.755 51.577 51.577 49.755 50.748 48.053C50.691 47.936 43.7269 40.918 35.2729 32.458L19.9029 17.075L27.1509 17.044C35.1199 17.01 34.6719 17.048 35.327 16.356C36.139 15.498 35.965 14.065 34.965 13.372L34.525 13.067L24.649 13.043C16.321 13.024 14.706 13.044 14.347 13.172Z" fill="#222222"/>
</svg>
