<svg width="64" height="64" viewBox="0 0 64 64" fill="none" xmlns="http://www.w3.org/2000/svg">
<path fill-rule="evenodd" clip-rule="evenodd" d="M7.50605 16.742C6.21605 17.049 5.59505 18.677 6.35605 19.754C6.52705 19.996 6.85905 20.295 7.09305 20.417C7.51905 20.639 7.56005 20.64 22.88 20.693L38.24 20.747L38.736 20.976C39.37 21.269 40.064 21.964 40.357 22.597C40.586 23.092 40.587 23.117 40.616 33.12L40.646 43.147L35.496 38.011C30.465 32.994 30.334 32.873 29.81 32.764C28.878 32.57 28.097 32.892 27.616 33.67C27.292 34.195 27.286 35.13 27.604 35.639C27.728 35.837 30.94 39.103 34.741 42.896C41.401 49.541 41.672 49.796 42.16 49.896C42.4943 49.9638 42.8387 49.9642 43.173 49.897C43.662 49.797 43.926 49.547 50.737 42.737C57.547 35.926 57.797 35.662 57.897 35.173C58.135 34.009 57.521 32.991 56.442 32.76C56.144 32.696 55.839 32.663 55.764 32.686C55.613 32.7284 55.4606 32.7658 55.307 32.798C55.069 32.85 53.664 34.188 49.84 38.005L44.693 43.142L44.69 34.504C44.686 25.459 44.617 23.122 44.321 21.973C43.718 19.638 41.696 17.615 39.36 17.013C38.979 16.914 37.947 16.792 37.067 16.74C35.131 16.627 7.97905 16.629 7.50605 16.742Z" fill="#222222"/>
</svg>
