<svg width="64" height="64" viewBox="0 0 64 64" fill="none" xmlns="http://www.w3.org/2000/svg">
<path fill-rule="evenodd" clip-rule="evenodd" d="M31.5061 11.405C31.0351 11.522 30.5641 11.883 30.2741 12.349L30.0271 12.747L29.9981 29.276L29.9701 45.806L23.4921 39.341C17.1311 32.992 17.0041 32.873 16.4761 32.764C15.5441 32.57 14.7631 32.893 14.2831 33.67C13.9591 34.195 13.9531 35.13 14.2701 35.639C14.3951 35.837 18.2071 39.703 22.7411 44.23C30.7091 52.182 31.0041 52.463 31.4931 52.563C31.8221 52.631 32.1781 52.631 32.5071 52.564C32.9971 52.464 33.2851 52.189 41.4031 44.07C49.5221 35.952 49.7971 35.664 49.8971 35.173C50.1351 34.009 49.5211 32.991 48.4421 32.76C48.1441 32.696 47.8391 32.663 47.7641 32.686C47.613 32.7284 47.4606 32.7658 47.3071 32.798C47.0671 32.85 45.3571 34.495 40.5071 39.338L34.0271 45.809L34.0241 29.598C34.0221 18.842 33.9841 13.226 33.9111 12.909C33.6601 11.818 32.5741 11.14 31.5061 11.405Z" fill="#222222"/>
</svg>
