<svg width="64" height="64" viewBox="0 0 64 64" fill="none" xmlns="http://www.w3.org/2000/svg">
<path fill-rule="evenodd" clip-rule="evenodd" d="M21.0671 16.69C20.9263 16.7317 20.7838 16.7677 20.6401 16.798C20.4001 16.85 18.5821 18.602 13.4081 23.767C9.60612 27.562 6.39412 30.829 6.27012 31.028C5.95912 31.526 5.95912 32.474 6.27012 32.972C6.39412 33.171 9.60612 36.437 13.4081 40.229C20.0681 46.874 20.3381 47.129 20.8271 47.23C22.3741 47.548 23.5491 46.373 23.2291 44.827C23.1291 44.341 22.9071 44.102 17.9921 39.173L12.8581 34.027H34.3711C49.6781 34.027 56.0411 33.993 56.4331 33.909C58.4101 33.485 58.4631 30.59 56.5031 30.097C56.1391 30.005 50.4361 29.973 34.4351 29.973H12.8581L17.9921 24.827C22.9201 19.885 23.1291 19.66 23.2301 19.17C23.4181 18.259 23.0871 17.414 22.3711 16.979C22.0401 16.777 21.2891 16.611 21.0671 16.69Z" fill="#222222"/>
</svg>
