<svg width="64" height="64" viewBox="0 0 64 64" fill="none" xmlns="http://www.w3.org/2000/svg">
<path fill-rule="evenodd" clip-rule="evenodd" d="M20.839 11.406C20.369 11.521 19.897 11.882 19.608 12.349L19.36 12.747L19.307 29.254L19.253 45.762L16.96 43.463C15.699 42.198 14.504 41.062 14.305 40.937C14.045 40.774 13.771 40.711 13.324 40.711C12.587 40.711 12.01 41.033 11.622 41.661C11.292 42.194 11.283 43.126 11.603 43.639C11.727 43.837 13.739 45.903 16.074 48.229C20.118 52.256 20.344 52.462 20.827 52.562C21.159 52.631 21.507 52.631 21.84 52.562C22.323 52.462 22.549 52.256 26.638 48.18C29.01 45.817 31.008 43.739 31.104 43.536C31.341 43.036 31.326 42.233 31.069 41.737C30.955 41.515 30.663 41.193 30.421 41.022C29.852 40.621 28.928 40.582 28.361 40.937C28.163 41.062 26.968 42.198 25.707 43.463L23.413 45.762L23.36 29.308C23.307 12.878 23.306 12.853 23.084 12.427C22.676 11.645 21.69 11.197 20.839 11.406ZM42.4 11.357C42.2592 11.3987 42.1167 11.4347 41.973 11.465C41.738 11.517 40.532 12.653 37.407 15.768C35.072 18.095 33.06 20.163 32.936 20.361C32.619 20.87 32.626 21.806 32.95 22.33C33.42 23.091 34.242 23.423 35.17 23.229C35.646 23.128 35.843 22.96 38.158 20.661L40.637 18.2L40.665 34.727L40.693 51.253L40.941 51.651C41.893 53.182 44.204 52.831 44.575 51.099C44.659 50.711 44.693 45.784 44.693 34.373V18.197L47.173 20.659C49.484 22.953 49.688 23.129 50.16 23.228C51.704 23.552 52.883 22.373 52.562 20.827C52.462 20.344 52.256 20.118 48.229 16.074C45.903 13.739 43.856 11.74 43.68 11.632C43.37 11.442 42.616 11.28 42.4 11.357Z" fill="#222222"/>
</svg>
