<svg width="64" height="64" viewBox="0 0 64 64" fill="none" xmlns="http://www.w3.org/2000/svg">
<path fill-rule="evenodd" clip-rule="evenodd" d="M18.4 11.356C18.341 11.377 18.149 11.426 17.973 11.465C17.735 11.517 16.224 12.96 12.074 17.101C9.00599 20.162 6.39399 22.829 6.26999 23.028C5.95899 23.526 5.95899 24.474 6.26999 24.972C6.39399 25.171 9.00599 27.836 12.074 30.896C17.426 36.232 17.674 36.462 18.16 36.563C19.707 36.882 20.883 35.706 20.562 34.16C20.462 33.679 20.265 33.46 16.656 29.838L12.855 26.022L28.748 26.054C44.427 26.086 44.65 26.09 45.387 26.306C49.702 27.575 52.561 30.478 53.726 34.773C53.872 35.312 53.914 35.884 53.914 37.333C53.914 38.783 53.872 39.355 53.726 39.893C52.675 43.769 50.153 46.611 46.56 47.968C44.899 48.595 45.323 48.567 36.685 48.633L28.731 48.693L28.299 48.979C27.658 49.403 27.378 49.923 27.378 50.685C27.378 51.208 27.43 51.388 27.689 51.754C27.86 51.996 28.192 52.295 28.427 52.417C28.844 52.635 28.998 52.641 35.52 52.672C44.05 52.713 45.28 52.623 47.719 51.781C52.068 50.279 55.613 46.735 57.115 42.385C58.1166 39.5056 58.2377 36.3931 57.4629 33.4446C56.6882 30.496 55.0527 27.8451 52.765 25.83C50.855 24.141 48.291 22.854 45.838 22.353C44.17 22.013 42.45 21.977 27.683 21.975L12.86 21.973L16.658 18.16C20.274 14.53 20.462 14.322 20.563 13.836C20.759 12.892 20.357 11.951 19.606 11.597C19.233 11.421 18.579 11.29 18.4 11.356Z" fill="#222222"/>
</svg>
