<svg width="64" height="64" viewBox="0 0 64 64" fill="none" xmlns="http://www.w3.org/2000/svg">
<path fill-rule="evenodd" clip-rule="evenodd" d="M30.24 6.084C16.067 6.987 5.16802 19.388 6.07902 33.573C6.77102 44.345 13.855 53.47 24.071 56.748C28.391 58.134 33.289 58.34 37.803 57.327C46.572 55.358 53.762 48.826 56.651 40.203C58.12 35.819 58.366 30.816 57.336 26.24C55.154 16.54 47.46 8.846 37.76 6.664C35.436 6.141 32.678 5.928 30.24 6.084ZM34.563 10.138C37.7193 10.5221 40.7562 11.5802 43.4679 13.2405C46.1796 14.9007 48.5028 17.1245 50.28 19.761C51.727 21.9 53.037 25.007 53.539 27.491C53.869 29.121 53.973 30.208 53.973 32C53.973 35.551 53.272 38.574 51.719 41.713C49.531 46.135 46.135 49.531 41.713 51.719C38.574 53.272 35.551 53.973 32 53.973C28.467 53.973 25.485 53.286 22.33 51.743C15.622 48.464 11.062 42.038 10.138 34.563C9.99502 33.4 9.99502 30.6 10.138 29.437C10.66 25.219 12.424 21.11 15.062 17.973C16.0104 16.8558 17.0525 15.8217 18.177 14.882C21.068 12.471 25.327 10.657 29.29 10.148C30.345 10.013 33.5 10.007 34.563 10.138ZM31.733 19.357C31.675 19.378 31.483 19.426 31.307 19.465C31.071 19.517 29.866 20.653 26.741 23.768C24.406 26.095 22.394 28.163 22.27 28.361C21.953 28.87 21.959 29.806 22.283 30.33C22.753 31.091 23.575 31.423 24.503 31.229C24.98 31.128 25.176 30.96 27.49 28.662L29.967 26.203L29.997 34.728L30.027 43.253L30.274 43.651C31.226 45.182 33.537 44.831 33.909 43.099C33.989 42.725 34.027 39.941 34.027 34.373V26.197L36.507 28.659C38.818 30.953 39.021 31.129 39.493 31.228C41.037 31.552 42.217 30.373 41.896 28.827C41.796 28.344 41.59 28.118 37.562 24.074C35.236 21.739 33.189 19.74 33.013 19.632C32.703 19.442 31.95 19.28 31.733 19.357Z" fill="#222222"/>
</svg>
