<svg width="64" height="64" viewBox="0 0 64 64" fill="none" xmlns="http://www.w3.org/2000/svg">
<path fill-rule="evenodd" clip-rule="evenodd" d="M21.0669 11.357C20.926 11.3987 20.7836 11.4347 20.6399 11.465C20.4039 11.517 19.1989 12.653 16.0739 15.768C13.7389 18.095 11.7269 20.163 11.6029 20.361C11.2919 20.86 11.2919 21.807 11.6029 22.305C11.7269 22.504 13.7389 24.57 16.0739 26.895C20.1179 30.923 20.3439 31.129 20.8269 31.229C22.3729 31.55 23.5519 30.371 23.2279 28.827C23.1289 28.355 22.9529 28.151 20.6589 25.84L18.1969 23.36H34.3729C45.7839 23.36 50.7109 23.325 51.0989 23.242C52.8309 22.871 53.1819 20.559 51.6509 19.608L51.2529 19.36L34.7269 19.332L18.1999 19.303L20.6609 16.825C22.9599 14.51 23.1279 14.313 23.2289 13.836C23.4189 12.928 23.0879 12.081 22.3709 11.645C22.0399 11.444 21.2889 11.278 21.0669 11.357ZM42.1719 32.739C41.7049 32.854 41.2309 33.215 40.9499 33.67C40.6249 34.195 40.6189 35.131 40.9369 35.639C41.0619 35.837 42.1979 37.032 43.4629 38.293L45.7619 40.587L29.2539 40.64L12.7469 40.693L12.3389 40.946C11.6929 41.348 11.3779 41.916 11.3779 42.676C11.3779 43.209 11.4289 43.386 11.6889 43.754C11.8599 43.996 12.1919 44.295 12.4269 44.417C12.8529 44.64 12.8779 44.64 29.3079 44.693L45.7619 44.747L43.4629 47.04C42.1979 48.301 41.0619 49.496 40.9369 49.695C40.5819 50.262 40.6209 51.185 41.0219 51.754C41.1929 51.996 41.5149 52.288 41.7369 52.403C42.2329 52.659 43.0359 52.674 43.5359 52.437C43.7389 52.341 45.8169 50.343 48.1799 47.972C52.2559 43.882 52.4619 43.656 52.5619 43.173C52.6309 42.841 52.6309 42.493 52.5619 42.16C52.4619 41.677 52.2559 41.451 48.2289 37.407C45.9029 35.072 43.8559 33.073 43.6799 32.965C43.2919 32.728 42.6259 32.628 42.1719 32.739Z" fill="#222222"/>
</svg>
