<svg width="64" height="64" viewBox="0 0 64 64" fill="none" xmlns="http://www.w3.org/2000/svg">
<path fill-rule="evenodd" clip-rule="evenodd" d="M50.172 6.075C49.705 6.186 49.232 6.547 48.941 7.015C48.695 7.411 48.693 7.438 48.661 11.498L48.628 15.583L47.754 14.801C46.542 13.718 46.08 13.361 44.853 12.559C39.532 9.083 33.519 7.928 27.281 9.184C20.54 10.542 14.679 14.916 11.432 21.013C10.582 22.609 10.208 23.631 10.264 24.207C10.402 25.645 11.978 26.422 13.248 25.678C13.706 25.409 13.791 25.283 14.497 23.83C14.914 22.973 15.509 21.88 15.821 21.402C17.643 18.609 20.226 16.322 23.33 14.753C26.053 13.376 28.283 12.814 31.379 12.721C33.377 12.662 34.694 12.771 36.224 13.125C39.094 13.787 42.113 15.256 44.223 17.015C45.082 17.731 46.507 19.106 46.507 19.219C46.507 19.262 44.307 19.311 41.619 19.328L36.731 19.36L36.299 19.646C35.658 20.07 35.378 20.589 35.378 21.351C35.378 21.874 35.43 22.054 35.689 22.421C35.86 22.663 36.192 22.961 36.427 23.084C36.845 23.302 36.994 23.307 43.672 23.337C48.42 23.358 50.665 23.331 51.068 23.248C51.853 23.085 52.41 22.537 52.575 21.766C52.732 21.036 52.734 8.254 52.578 7.575C52.505 7.2853 52.3814 7.01076 52.213 6.764C51.795 6.215 50.881 5.907 50.172 6.075ZM51.281 38.075C50.483 38.328 50.283 38.563 49.5 40.175C49.085 41.03 48.491 42.12 48.179 42.598C46.357 45.391 43.774 47.678 40.67 49.247C37.947 50.624 35.717 51.186 32.621 51.279C30.623 51.338 29.306 51.229 27.776 50.875C24.906 50.213 21.887 48.744 19.777 46.985C18.901 46.254 17.493 44.893 17.493 44.776C17.493 44.731 19.531 44.693 22.021 44.693C24.925 44.693 26.747 44.651 27.099 44.575C29.141 44.137 29.117 41.178 27.068 40.752C26.665 40.669 24.405 40.642 19.618 40.663L12.747 40.693L12.339 40.946C12.116 41.086 11.804 41.394 11.646 41.632L11.36 42.064V56.587L11.608 56.985C12.559 58.516 14.871 58.165 15.242 56.433C15.315 56.09 15.36 54.472 15.36 52.145V48.407L16.24 49.193C17.826 50.611 19.289 51.638 21.12 52.622C27.446 56.02 35.463 56.195 41.973 53.078C46.819 50.758 50.546 47.073 52.937 42.24C53.646 40.806 53.702 40.643 53.704 40C53.706 39.434 53.658 39.234 53.44 38.912C52.984 38.236 51.99 37.85 51.281 38.075Z" fill="#222222"/>
</svg>
