<svg width="64" height="64" viewBox="0 0 64 64" fill="none" xmlns="http://www.w3.org/2000/svg">
<path fill-rule="evenodd" clip-rule="evenodd" d="M45.067 16.69C44.9262 16.7317 44.7838 16.7674 44.64 16.797C44.398 16.849 41.448 19.736 32.507 28.672L20.693 40.478V32.297C20.693 26.726 20.656 23.942 20.575 23.567C20.2 21.819 17.902 21.47 16.941 23.015L16.693 23.413V45.955L17.013 46.408C17.189 46.657 17.525 46.961 17.76 47.084C18.183 47.305 18.268 47.307 29.011 47.336C36.65 47.356 40.004 47.33 40.407 47.246C42.162 46.882 42.529 44.568 40.985 43.608L40.587 43.36L32.058 43.33L23.528 43.3L35.327 31.49C46.812 19.995 47.129 19.666 47.231 19.17C47.418 18.258 47.086 17.413 46.371 16.979C46.04 16.777 45.289 16.611 45.067 16.69Z" fill="#222222"/>
</svg>
