<svg width="64" height="64" viewBox="0 0 64 64" fill="none" xmlns="http://www.w3.org/2000/svg">
<path fill-rule="evenodd" clip-rule="evenodd" d="M20.839 19.406C20.372 19.521 19.897 19.882 19.616 20.337C19.342 20.781 19.288 21.746 19.514 22.187C19.589 22.334 23.734 26.543 28.726 31.542L37.803 40.631L31.934 40.662L26.064 40.693L25.632 40.979C24.992 41.403 24.711 41.923 24.711 42.685C24.711 43.208 24.764 43.388 25.022 43.754C25.193 43.996 25.525 44.295 25.76 44.417C26.18 44.637 26.308 44.64 34.341 44.67C40.053 44.691 42.668 44.664 43.07 44.58C43.867 44.415 44.415 43.867 44.58 43.07C44.664 42.668 44.691 40.053 44.67 34.341C44.64 26.308 44.637 26.18 44.417 25.76C44.295 25.525 43.996 25.193 43.754 25.022C43.388 24.764 43.208 24.711 42.685 24.711C41.923 24.711 41.403 24.992 40.979 25.632L40.693 26.064L40.662 31.934L40.631 37.803L31.542 28.726C26.543 23.734 22.357 19.602 22.24 19.544C21.916 19.383 21.213 19.314 20.839 19.406Z" fill="#222222"/>
</svg>
