<svg width="64" height="64" viewBox="0 0 64 64" fill="none" xmlns="http://www.w3.org/2000/svg">
<path fill-rule="evenodd" clip-rule="evenodd" d="M27.093 15.474C25.963 15.616 25.131 15.884 24.289 16.377C22.845 17.222 21.579 18.765 21.121 20.237C20.73 21.493 20.694 22.523 20.694 32.32L20.693 41.866L15.6 36.777C12.095 33.274 10.383 31.636 10.11 31.524C9.37698 31.221 8.34998 31.422 7.87098 31.962C7.37998 32.514 7.23498 33.412 7.52398 34.11C7.74998 34.659 21.21 48.152 21.813 48.435C22.0666 48.5556 22.3428 48.6216 22.6236 48.6287C22.9044 48.6357 23.1836 48.5837 23.443 48.476C23.993 48.25 37.485 34.79 37.768 34.187C38.104 33.472 37.975 32.54 37.463 31.962C36.983 31.422 35.956 31.221 35.223 31.524C34.95 31.636 33.235 33.277 29.73 36.777L24.633 41.867L24.668 31.947C24.696 24.122 24.733 21.937 24.844 21.602C25.156 20.654 25.984 19.825 26.935 19.509C27.277 19.395 30.364 19.356 42.667 19.31C56.614 19.258 58.002 19.238 58.294 19.078C59.195 18.583 59.55 17.447 59.106 16.48C58.873 15.972 58.635 15.745 58.106 15.524C57.759 15.379 55.995 15.362 42.75 15.374C34.52 15.381 27.475 15.426 27.093 15.474Z" fill="#222222"/>
</svg>
