<svg width="64" height="64" viewBox="0 0 64 64" fill="none" xmlns="http://www.w3.org/2000/svg">
<path fill-rule="evenodd" clip-rule="evenodd" d="M30.24 6.084C16.067 6.987 5.16802 19.388 6.07902 33.573C6.77102 44.345 13.855 53.47 24.071 56.748C28.391 58.134 33.289 58.34 37.803 57.327C46.572 55.358 53.762 48.826 56.651 40.203C58.12 35.819 58.366 30.816 57.336 26.24C55.154 16.54 47.46 8.846 37.76 6.664C35.436 6.141 32.678 5.928 30.24 6.084ZM34.563 10.138C37.7193 10.5221 40.7562 11.5802 43.4679 13.2405C46.1796 14.9007 48.5028 17.1245 50.28 19.761C51.727 21.9 53.037 25.007 53.539 27.491C53.869 29.121 53.973 30.208 53.973 32C53.973 35.551 53.272 38.574 51.719 41.713C49.531 46.135 46.135 49.531 41.713 51.719C38.574 53.272 35.551 53.973 32 53.973C28.467 53.973 25.485 53.286 22.33 51.743C15.622 48.464 11.062 42.038 10.138 34.563C9.99502 33.4 9.99502 30.6 10.138 29.437C10.66 25.219 12.424 21.11 15.062 17.973C16.0104 16.8558 17.0525 15.8217 18.177 14.882C21.068 12.471 25.327 10.657 29.29 10.148C30.345 10.013 33.5 10.007 34.563 10.138ZM23.506 22.075C23.038 22.187 22.565 22.547 22.274 23.015L22.027 23.413V35.253L22.274 35.651C23.226 37.182 25.537 36.831 25.909 35.099C25.978 34.776 26.027 33.379 26.027 31.703V28.857L32.507 35.325C38.744 41.55 39.006 41.796 39.493 41.896C41.04 42.215 42.215 41.04 41.896 39.493C41.796 39.006 41.55 38.744 35.325 32.507L28.857 26.027H31.703C35.044 26.027 35.477 25.963 36.054 25.386C37.115 24.325 36.614 22.461 35.17 22.097C34.614 21.957 24.083 21.937 23.506 22.075Z" fill="#222222"/>
</svg>
