<svg width="64" height="64" viewBox="0 0 64 64" fill="none" xmlns="http://www.w3.org/2000/svg">
<path fill-rule="evenodd" clip-rule="evenodd" d="M31.5059 6.075C31.0379 6.186 30.5649 6.547 30.2739 7.015L30.0269 7.413L29.9989 29.276L29.9709 51.139L24.8249 46.007C19.7979 40.993 19.6679 40.873 19.1429 40.764C18.2109 40.57 17.4299 40.892 16.9499 41.67C16.6249 42.195 16.6189 43.13 16.9369 43.639C17.0609 43.837 20.2729 47.103 24.0749 50.896C30.7349 57.541 31.0049 57.796 31.4929 57.896C31.8219 57.964 32.1779 57.964 32.5069 57.897C32.9959 57.797 33.2599 57.547 40.0699 50.737C46.8799 43.926 47.1299 43.662 47.2299 43.173C47.4689 42.009 46.8549 40.991 45.775 40.76C45.4769 40.696 45.1719 40.663 45.0969 40.686C44.9459 40.7285 44.7935 40.7659 44.6399 40.798C44.4019 40.85 42.9979 42.188 39.1729 46.005L34.0269 51.142L34.0239 29.597C34.0219 15.175 33.9849 7.895 33.9109 7.575C33.8387 7.28522 33.7154 7.01061 33.5469 6.764C33.1279 6.215 32.2139 5.907 31.5059 6.075Z" fill="#222222"/>
</svg>
