<svg width="64" height="64" viewBox="0 0 64 64" fill="none" xmlns="http://www.w3.org/2000/svg">
<path fill-rule="evenodd" clip-rule="evenodd" d="M30.24 6.084C16.067 6.987 5.16799 19.388 6.07899 33.573C6.77099 44.345 13.855 53.47 24.071 56.748C28.391 58.134 33.289 58.34 37.803 57.327C46.572 55.358 53.762 48.826 56.651 40.203C58.12 35.819 58.366 30.816 57.336 26.24C55.154 16.54 47.46 8.846 37.76 6.664C35.436 6.141 32.678 5.928 30.24 6.084ZM34.563 10.138C37.7193 10.5221 40.7562 11.5802 43.4679 13.2405C46.1796 14.9007 48.5027 17.1245 50.28 19.761C51.727 21.9 53.037 25.007 53.539 27.491C53.869 29.121 53.973 30.208 53.973 32C53.973 35.551 53.272 38.574 51.719 41.713C49.531 46.135 46.135 49.531 41.713 51.719C38.574 53.272 35.551 53.973 32 53.973C28.467 53.973 25.485 53.286 22.33 51.743C15.622 48.464 11.062 42.038 10.138 34.563C9.99499 33.4 9.99499 30.6 10.138 29.437C10.66 25.219 12.424 21.11 15.062 17.973C16.0103 16.8558 17.0525 15.8217 18.177 14.882C21.068 12.471 25.327 10.657 29.29 10.148C30.345 10.013 33.5 10.007 34.563 10.138ZM23.506 22.075C23.041 22.186 22.565 22.547 22.283 23.003C22.008 23.448 21.955 24.413 22.181 24.854C22.256 25 25.2 28.009 28.723 31.539L35.13 37.959L31.938 37.993C28.793 38.026 28.741 38.03 28.339 38.28C27.693 38.681 27.378 39.249 27.378 40.009C27.378 40.542 27.429 40.719 27.689 41.087C27.86 41.329 28.192 41.628 28.427 41.751C28.841 41.967 29.014 41.974 34.334 42.005C40.558 42.04 40.75 42.023 41.387 41.387C42.023 40.75 42.04 40.558 42.005 34.334C41.974 29.014 41.967 28.841 41.751 28.427C41.628 28.192 41.329 27.86 41.087 27.689C40.719 27.429 40.542 27.378 40.009 27.378C39.249 27.378 38.681 27.693 38.28 28.339C38.03 28.741 38.026 28.793 37.993 31.937L37.959 35.128L31.486 28.668C25.024 22.219 25.012 22.208 24.448 22.091C24.2541 22.046 24.0583 22.0103 23.861 21.984C23.7436 22.0178 23.6252 22.0481 23.506 22.075Z" fill="#222222"/>
</svg>
