<svg width="64" height="64" viewBox="0 0 64 64" fill="none" xmlns="http://www.w3.org/2000/svg">
<path fill-rule="evenodd" clip-rule="evenodd" d="M42.4 19.359C42.341 19.379 42.149 19.426 41.973 19.464C41.732 19.516 39.399 21.785 32.507 28.672L23.36 37.81V32.297C23.36 28.674 23.32 26.595 23.242 26.234C22.868 24.491 20.565 24.141 19.608 25.682L19.36 26.08V43.288L19.68 43.741C19.856 43.99 20.192 44.295 20.427 44.417C20.847 44.637 20.974 44.64 29.008 44.67C34.72 44.691 37.334 44.664 37.737 44.58C39.784 44.155 39.806 41.195 37.766 40.758C37.405 40.68 35.326 40.64 31.703 40.64H26.19L35.324 31.493C44.189 22.617 44.462 22.332 44.564 21.836C44.759 20.889 44.354 19.945 43.606 19.601C43.235 19.43 42.581 19.299 42.4 19.359Z" fill="#222222"/>
</svg>
