<svg width="64" height="64" viewBox="0 0 64 64" fill="none" xmlns="http://www.w3.org/2000/svg">
<path fill-rule="evenodd" clip-rule="evenodd" d="M31.7331 6.023C31.6751 6.044 31.4831 6.093 31.3071 6.131C31.0671 6.183 29.2491 7.935 24.0751 13.1C20.2731 16.895 17.0611 20.163 16.9371 20.361C16.6191 20.87 16.6251 21.805 16.9501 22.33C17.4191 23.09 18.2401 23.422 19.1701 23.23C19.6601 23.129 19.8851 22.92 24.8251 17.993L29.9711 12.861L29.9991 34.724L30.0271 56.587L30.2741 56.985C31.2261 58.516 33.5371 58.165 33.9091 56.433C33.9931 56.041 34.0271 49.678 34.0271 34.371V12.858L39.1731 17.992C44.1021 22.907 44.3411 23.129 44.8271 23.229C46.3731 23.549 47.5481 22.374 47.2301 20.827C47.1291 20.338 46.8741 20.068 40.2291 13.408C36.4371 9.606 33.1891 6.407 33.0131 6.299C32.7031 6.109 31.9501 5.946 31.7331 6.023Z" fill="#222222"/>
</svg>
