<svg width="64" height="64" viewBox="0 0 64 64" fill="none" xmlns="http://www.w3.org/2000/svg">
<path fill-rule="evenodd" clip-rule="evenodd" d="M29.56 13.136C29.1565 13.2578 28.8027 13.5059 28.5507 13.8438C28.2986 14.1817 28.1617 14.5915 28.16 15.013C28.16 15.575 28.313 15.975 28.673 16.356C29.328 17.048 28.88 17.01 36.849 17.044L44.097 17.075L28.727 32.458C20.273 40.918 13.309 47.936 13.252 48.053C12.493 49.61 13.903 51.321 15.583 50.881C16.014 50.768 17.358 49.453 31.489 35.331L46.925 19.904L46.956 27.152C46.99 35.12 46.952 34.672 47.644 35.327C48.519 36.155 49.926 35.978 50.639 34.95L50.933 34.525L50.963 24.724C50.984 17.733 50.958 14.795 50.872 14.479C50.721 13.915 50.101 13.287 49.544 13.132C48.995 12.98 30.091 12.983 29.56 13.136Z" fill="#222222"/>
</svg>
