<svg width="64" height="64" viewBox="0 0 64 64" fill="none" xmlns="http://www.w3.org/2000/svg">
<path fill-rule="evenodd" clip-rule="evenodd" d="M30.24 6.084C16.067 6.987 5.16802 19.388 6.07902 33.573C6.77102 44.345 13.855 53.47 24.071 56.748C28.391 58.134 33.289 58.34 37.803 57.327C46.572 55.358 53.762 48.826 56.651 40.203C58.12 35.819 58.366 30.816 57.336 26.24C55.154 16.54 47.46 8.846 37.76 6.664C35.436 6.141 32.678 5.928 30.24 6.084ZM34.563 10.138C37.7193 10.5221 40.7562 11.5802 43.4679 13.2405C46.1796 14.9007 48.5028 17.1245 50.28 19.761C51.727 21.9 53.037 25.007 53.539 27.491C53.869 29.121 53.973 30.208 53.973 32C53.973 35.551 53.272 38.574 51.719 41.713C49.531 46.135 46.135 49.531 41.713 51.719C38.574 53.272 35.551 53.973 32 53.973C28.467 53.973 25.485 53.286 22.33 51.743C15.622 48.464 11.062 42.038 10.138 34.563C9.99502 33.4 9.99502 30.6 10.138 29.437C10.66 25.219 12.424 21.11 15.062 17.973C16.0104 16.8558 17.0525 15.8217 18.177 14.882C21.068 12.471 25.327 10.657 29.29 10.148C30.345 10.013 33.5 10.007 34.563 10.138ZM29.067 22.026C28.9258 22.0658 28.7834 22.1011 28.64 22.132C28.404 22.183 27.199 23.319 24.074 26.434C21.739 28.762 19.727 30.829 19.603 31.028C19.442 31.286 19.378 31.564 19.378 32C19.378 32.436 19.442 32.714 19.603 32.972C19.727 33.171 21.739 35.236 24.074 37.562C28.118 41.59 28.344 41.796 28.827 41.896C30.373 42.217 31.552 41.037 31.228 39.493C31.129 39.021 30.953 38.818 28.659 36.507L26.197 34.027H34.373C39.941 34.027 42.725 33.989 43.099 33.909C45.076 33.485 45.13 30.59 43.17 30.097C42.819 30.009 40.331 29.973 34.438 29.973H26.197L28.659 27.493C30.96 25.176 31.128 24.98 31.229 24.503C31.427 23.559 31.022 22.613 30.273 22.268C29.902 22.097 29.248 21.966 29.067 22.026Z" fill="#222222"/>
</svg>
