<svg width="64" height="64" viewBox="0 0 64 64" fill="none" xmlns="http://www.w3.org/2000/svg">
<path fill-rule="evenodd" clip-rule="evenodd" d="M44.839 6.075C44.371 6.186 43.898 6.547 43.608 7.015L43.36 7.413L43.307 22.827L43.253 38.24L43.024 38.736C42.731 39.37 42.036 40.064 41.403 40.357C40.908 40.586 40.883 40.587 30.88 40.616L20.853 40.646L25.989 35.496C30.92 30.552 31.129 30.326 31.23 29.836C31.51 28.483 30.662 27.378 29.345 27.378C29.015 27.378 28.626 27.439 28.48 27.514C28.123 27.696 14.559 41.234 14.27 41.695C13.959 42.193 13.959 43.14 14.27 43.639C14.394 43.837 17.606 47.103 21.408 50.896C28.068 57.541 28.338 57.796 28.827 57.896C30.374 58.215 31.549 57.04 31.229 55.493C31.129 55.008 30.907 54.769 25.992 49.84L20.858 44.693L29.496 44.69C38.541 44.686 40.878 44.617 42.027 44.321C44.362 43.718 46.385 41.696 46.987 39.36C47.086 38.979 47.208 37.947 47.26 37.067C47.396 34.734 47.382 8.172 47.245 7.575C47.172 7.2853 47.0484 7.01076 46.88 6.764C46.461 6.215 45.548 5.907 44.839 6.075Z" fill="#222222"/>
</svg>
