<svg width="64" height="64" viewBox="0 0 64 64" fill="none" xmlns="http://www.w3.org/2000/svg">
<path fill-rule="evenodd" clip-rule="evenodd" d="M34.172 19.405C33.705 19.521 33.23 19.882 32.95 20.337C32.625 20.862 32.619 21.797 32.937 22.305C33.062 22.504 34.798 24.299 36.796 26.293L40.428 29.92L29.246 29.973L18.064 30.027L17.632 30.313C16.992 30.737 16.711 31.256 16.711 32.018C16.711 32.541 16.764 32.721 17.022 33.087C17.193 33.329 17.525 33.628 17.76 33.751C18.183 33.971 18.288 33.974 29.307 34.027L40.428 34.08L36.796 37.707C34.798 39.701 33.062 41.496 32.937 41.695C32.582 42.262 32.62 43.185 33.022 43.754C33.193 43.996 33.515 44.288 33.737 44.403C34.232 44.659 35.036 44.674 35.535 44.438C35.739 44.341 38.37 41.788 41.513 38.639C46.899 33.24 47.129 32.993 47.23 32.507C47.298 32.1724 47.298 31.8276 47.23 31.493C47.129 31.007 46.899 30.76 41.513 25.361C38.426 22.267 35.755 19.667 35.577 19.583C35.137 19.376 34.575 19.305 34.172 19.405Z" fill="#222222"/>
</svg>
