<svg width="64" height="64" viewBox="0 0 64 64" fill="none" xmlns="http://www.w3.org/2000/svg">
<path fill-rule="evenodd" clip-rule="evenodd" d="M48.32 13.137C48.023 13.22 44.8081 16.378 32.5111 28.669L17.0751 44.096L17.0441 36.848C17.0101 28.88 17.0481 29.328 16.3561 28.673C15.4741 27.839 13.9661 28.046 13.3161 29.092L13.0671 29.493L13.037 39.285C13.016 46.27 13.0421 49.205 13.1281 49.521C13.2791 50.085 13.8991 50.713 14.4561 50.868C15.0461 51.032 33.801 51.033 34.391 50.869C34.975 50.707 35.378 50.38 35.627 49.866C35.999 49.097 35.882 48.231 35.327 47.644C34.672 46.952 35.12 46.99 27.151 46.956L19.903 46.925L35.273 31.542C43.727 23.082 50.6911 16.064 50.7481 15.947C50.9281 15.5696 50.9875 15.1458 50.9182 14.7334C50.849 14.321 50.6545 13.94 50.361 13.642C49.801 13.082 49.12 12.914 48.32 13.137Z" fill="#222222"/>
</svg>
