<svg width="64" height="64" viewBox="0 0 64 64" fill="none" xmlns="http://www.w3.org/2000/svg">
<path fill-rule="evenodd" clip-rule="evenodd" d="M42.3999 14.022C42.2594 14.0651 42.1169 14.1015 41.9729 14.131C41.7339 14.183 39.9149 15.935 34.7409 21.1C30.9399 24.895 27.7279 28.163 27.6039 28.361C27.2859 28.87 27.2919 29.805 27.6159 30.33C28.0859 31.09 28.9069 31.422 29.8359 31.23C30.3259 31.129 30.5519 30.92 35.4959 25.989L40.6459 20.853L40.6159 30.88C40.5869 40.883 40.5859 40.908 40.3569 41.403C40.0639 42.036 39.3699 42.731 38.7359 43.024L38.2399 43.253L22.8189 43.307L7.39794 43.36L6.96495 43.646C6.32495 44.07 6.04395 44.589 6.04395 45.351C6.04395 45.874 6.09695 46.054 6.35595 46.421C6.52695 46.663 6.85895 46.961 7.09295 47.084C7.51895 47.306 7.56194 47.307 21.2269 47.338C35.2069 47.37 38.1759 47.311 39.4129 46.979C41.7169 46.362 43.7249 44.336 44.3209 42.027C44.6169 40.878 44.6859 38.541 44.6899 29.496L44.6929 20.858L49.8399 25.992C54.7689 30.907 55.0079 31.129 55.4929 31.229C57.0399 31.549 58.2149 30.374 57.8959 28.827C57.7959 28.338 57.5409 28.068 50.8449 21.361C47.0249 17.533 43.7529 14.333 43.5759 14.25C43.2279 14.086 42.5729 13.959 42.3999 14.022Z" fill="#222222"/>
</svg>
