<svg width="64" height="64" viewBox="0 0 64 64" fill="none" xmlns="http://www.w3.org/2000/svg">
<path fill-rule="evenodd" clip-rule="evenodd" d="M29.0671 14.022C28.9266 14.0651 28.7841 14.1015 28.6401 14.131C28.3991 14.183 26.2731 16.244 20.0751 22.433C15.5401 26.962 11.7281 30.829 11.6041 31.028C11.2921 31.526 11.2921 32.474 11.6041 32.972C11.7281 33.171 15.5401 37.037 20.0751 41.563C28.0431 49.516 28.3371 49.796 28.8271 49.897C30.3741 50.215 31.5491 49.04 31.2301 47.493C31.1291 47.006 30.8831 46.744 24.6581 40.507L18.1911 34.027H34.3701C45.7831 34.027 50.7111 33.992 51.0991 33.909C53.1211 33.475 53.1211 30.525 51.0991 30.091C50.7111 30.008 45.7831 29.973 34.3701 29.973H18.1911L24.6581 23.493C30.8991 17.24 31.1291 16.995 31.2301 16.503C31.4251 15.558 31.0231 14.617 30.2731 14.264C29.8991 14.088 29.2451 13.957 29.0671 14.022Z" fill="#222222"/>
</svg>
