<svg width="64" height="64" viewBox="0 0 64 64" fill="none" xmlns="http://www.w3.org/2000/svg">
<path fill-rule="evenodd" clip-rule="evenodd" d="M44.839 11.409C44.374 11.519 43.899 11.88 43.616 12.337C43.341 12.781 43.2879 13.747 43.5149 14.187C43.59 14.334 45.3369 16.145 47.3969 18.213L51.143 21.973L36.318 21.975C21.55 21.977 19.83 22.013 18.162 22.353C12.986 23.411 8.57395 27.319 6.84995 32.373C5.77495 35.525 5.77495 39.142 6.84995 42.293C8.36495 46.735 11.931 50.301 16.373 51.817C17.628 52.245 18.705 52.459 20.242 52.586C22.027 52.734 34.4009 52.725 35.0989 52.575C36.8739 52.195 37.181 49.704 35.553 48.895C35.169 48.704 34.712 48.69 27.253 48.633C18.431 48.565 19.032 48.616 16.931 47.759C14.316 46.691 11.963 44.326 10.889 41.683C10.206 40.005 10.08 39.326 10.08 37.333C10.08 35.34 10.206 34.662 10.889 32.984C11.963 30.341 14.316 27.975 16.931 26.908C17.4832 26.6846 18.0443 26.4837 18.613 26.306C19.35 26.09 19.5729 26.086 35.2529 26.055L51.1469 26.022L47.3989 29.784C45.3379 31.854 43.59 33.666 43.5149 33.813C43.4389 33.959 43.3779 34.357 43.3779 34.696C43.3779 35.206 43.4319 35.39 43.6889 35.754C43.86 35.996 44.1819 36.288 44.4039 36.403C44.8989 36.659 45.7029 36.674 46.201 36.438C46.406 36.341 49.037 33.788 52.179 30.639C57.565 25.24 57.796 24.993 57.896 24.507C57.9649 24.1725 57.9649 23.8275 57.896 23.493C57.796 23.007 57.565 22.76 52.179 17.361C49.0919 14.267 46.421 11.669 46.243 11.587C45.8019 11.385 45.24 11.313 44.839 11.409Z" fill="#222222"/>
</svg>
