<svg width="64" height="64" viewBox="0 0 64 64" fill="none" xmlns="http://www.w3.org/2000/svg">
<path fill-rule="evenodd" clip-rule="evenodd" d="M14.363 13.165C13.368 13.53 12.847 14.543 13.119 15.583C13.232 16.014 14.547 17.358 28.669 31.489L44.096 46.925L36.848 46.956C28.88 46.99 29.328 46.952 28.673 47.644C27.845 48.519 28.022 49.926 29.05 50.639L29.475 50.933L39.276 50.963C46.267 50.984 49.205 50.958 49.521 50.872C50.085 50.721 50.713 50.101 50.868 49.544C51.032 48.954 51.033 30.199 50.869 29.609C50.707 29.025 50.38 28.622 49.866 28.373C49.097 28.001 48.231 28.118 47.644 28.673C46.952 29.328 46.99 28.88 46.956 36.849L46.925 44.097L31.542 28.727C23.082 20.273 16.064 13.308 15.947 13.249C15.549 13.048 14.79 13.008 14.363 13.165Z" fill="#222222"/>
</svg>
