<svg width="64" height="64" viewBox="0 0 64 64" fill="none" xmlns="http://www.w3.org/2000/svg">
<path fill-rule="evenodd" clip-rule="evenodd" d="M30.24 6.084C16.067 6.987 5.16802 19.388 6.07902 33.573C6.77102 44.345 13.855 53.47 24.071 56.748C28.391 58.134 33.289 58.34 37.803 57.327C46.572 55.358 53.762 48.826 56.651 40.203C58.12 35.819 58.366 30.816 57.336 26.24C55.154 16.54 47.46 8.846 37.76 6.664C35.436 6.141 32.678 5.928 30.24 6.084ZM34.563 10.138C37.7193 10.5221 40.7562 11.5802 43.4679 13.2405C46.1796 14.9007 48.5028 17.1245 50.28 19.761C51.727 21.9 53.037 25.007 53.539 27.491C53.869 29.121 53.973 30.208 53.973 32C53.973 35.551 53.272 38.574 51.719 41.713C49.531 46.135 46.135 49.531 41.713 51.719C38.574 53.272 35.551 53.973 32 53.973C28.467 53.973 25.485 53.286 22.33 51.743C15.622 48.464 11.062 42.038 10.138 34.563C9.99502 33.4 9.99502 30.6 10.138 29.437C10.66 25.219 12.424 21.11 15.062 17.973C16.0104 16.8558 17.0525 15.8217 18.177 14.882C21.068 12.471 25.327 10.657 29.29 10.148C30.345 10.013 33.5 10.007 34.563 10.138ZM34.172 22.072C33.705 22.188 33.23 22.549 32.95 23.003C32.674 23.449 32.622 24.414 32.849 24.854C32.924 25 34.069 26.211 35.394 27.544L37.801 29.967L29.266 29.997L20.731 30.027L20.299 30.313C19.658 30.737 19.378 31.256 19.378 32.018C19.378 32.541 19.43 32.721 19.689 33.087C19.86 33.329 20.192 33.628 20.427 33.751C20.847 33.97 20.969 33.974 29.327 34.003L37.801 34.033L35.394 36.456C34.069 37.789 32.924 39 32.849 39.146C32.773 39.293 32.711 39.69 32.711 40.03C32.711 40.54 32.765 40.723 33.022 41.087C33.193 41.329 33.515 41.621 33.737 41.736C34.233 41.992 35.036 42.008 35.536 41.771C35.739 41.674 37.817 39.676 40.18 37.305C44.256 33.215 44.462 32.989 44.562 32.507C44.631 32.1725 44.631 31.8275 44.562 31.493C44.462 31.011 44.256 30.785 40.18 26.695C37.828 24.335 35.757 22.335 35.578 22.251C35.137 22.043 34.576 21.972 34.172 22.072Z" fill="#222222"/>
</svg>
