<svg width="64" height="64" viewBox="0 0 64 64" fill="none" xmlns="http://www.w3.org/2000/svg">
<path fill-rule="evenodd" clip-rule="evenodd" d="M42.172 16.739C41.705 16.854 41.231 17.215 40.95 17.67C40.625 18.195 40.619 19.131 40.937 19.639C41.062 19.837 43.398 22.232 46.129 24.96L51.094 29.92L29.254 29.973L7.41301 30.027L7.00601 30.28C6.36001 30.681 6.04401 31.249 6.04401 32.009C6.04401 32.542 6.09601 32.719 6.35601 33.087C6.52701 33.329 6.85901 33.628 7.09301 33.751L7.52001 33.973L29.307 34.027L51.094 34.08L46.129 39.04C43.398 41.768 41.062 44.163 40.937 44.361C40.582 44.928 40.62 45.852 41.022 46.421C41.193 46.663 41.515 46.955 41.737 47.069C42.232 47.325 43.036 47.341 43.534 47.105C43.74 47.007 46.924 43.901 50.845 39.973C57.541 33.265 57.796 32.995 57.896 32.507C57.964 32.1724 57.964 31.8276 57.896 31.493C57.796 31.005 57.541 30.735 50.896 24.075C47.103 20.273 43.856 17.074 43.68 16.966C43.293 16.728 42.627 16.628 42.172 16.739Z" fill="#222222"/>
</svg>
