<svg width="64" height="64" viewBox="0 0 64 64" fill="none" xmlns="http://www.w3.org/2000/svg">
<path fill-rule="evenodd" clip-rule="evenodd" d="M19.147 15.565C18.543 15.848 5.08401 29.341 4.85701 29.89C4.55401 30.623 4.75501 31.65 5.29601 32.129C5.84801 32.62 6.74501 32.765 7.44301 32.476C7.71601 32.364 9.42701 30.727 12.929 27.228L18.017 22.143L18.057 32.272C18.1 43.538 18.075 43.139 18.831 44.645C19.5183 46.0283 20.6384 47.1494 22.021 47.838C23.571 48.62 22.524 48.573 39.573 48.615C50.099 48.64 55 48.617 55.266 48.539C56.895 48.064 57.126 45.745 55.627 44.922C55.335 44.762 53.947 44.742 40 44.689C27.692 44.643 24.61 44.604 24.267 44.49C23.353 44.187 22.581 43.417 22.203 42.432C22.045 42.02 22.024 40.972 21.996 32.053L21.966 22.133L27.063 27.223C30.569 30.723 32.284 32.364 32.557 32.476C33.29 32.779 34.316 32.578 34.796 32.038C35.286 31.486 35.431 30.588 35.143 29.89C34.916 29.341 21.457 15.848 20.853 15.565C20.619 15.455 20.235 15.365 20 15.365C19.765 15.365 19.381 15.455 19.147 15.565Z" fill="#222222"/>
</svg>
