<svg width="64" height="64" viewBox="0 0 64 64" fill="none" xmlns="http://www.w3.org/2000/svg">
<path fill-rule="evenodd" clip-rule="evenodd" d="M28.839 11.408C27.549 11.716 26.928 13.344 27.689 14.421C27.86 14.663 28.192 14.961 28.427 15.084C28.845 15.302 29.009 15.308 36.747 15.367C44.25 15.425 44.677 15.439 45.387 15.644C49.674 16.881 52.561 19.812 53.726 24.107C53.995 25.097 53.995 28.237 53.726 29.227C53.13 31.425 52.139 33.182 50.66 34.66C49.192 36.129 47.683 36.995 45.387 37.688C44.643 37.912 44.567 37.913 28.748 37.946L12.855 37.978L16.656 34.162C20.265 30.54 20.462 30.321 20.562 29.84C20.797 28.711 20.205 27.691 19.163 27.428C18.709 27.314 18.505 27.324 17.867 27.488C17.606 27.555 6.58599 38.521 6.26999 39.028C5.95899 39.526 5.95899 40.474 6.26999 40.972C6.39399 41.171 9.00599 43.836 12.074 46.896C17.426 52.232 17.674 52.462 18.16 52.563C19.707 52.882 20.883 51.706 20.562 50.16C20.462 49.679 20.265 49.46 16.658 45.84L12.86 42.027L27.683 42.025C42.448 42.023 44.169 41.987 45.838 41.647C48.274 41.15 50.86 39.852 52.765 38.169C55.0525 36.1539 56.6879 33.5032 57.4626 30.5549C58.2374 27.6065 58.1163 24.4943 57.115 21.615C55.601 17.232 52.035 13.687 47.627 12.183C46.372 11.755 45.295 11.541 43.758 11.414C42.311 11.294 29.339 11.289 28.839 11.408Z" fill="#222222"/>
</svg>
