<svg width="64" height="64" viewBox="0 0 64 64" fill="none" xmlns="http://www.w3.org/2000/svg">
<path fill-rule="evenodd" clip-rule="evenodd" d="M34.172 14.072C33.705 14.188 33.23 14.549 32.95 15.003C32.625 15.529 32.619 16.464 32.937 16.972C33.062 17.171 35.998 20.165 39.462 23.627L45.761 29.92L29.254 29.973L12.747 30.027L12.339 30.28C11.693 30.681 11.378 31.249 11.378 32.009C11.378 32.542 11.429 32.719 11.689 33.087C11.86 33.329 12.192 33.628 12.427 33.751C12.853 33.973 12.878 33.973 29.307 34.027L45.761 34.08L39.462 40.373C35.998 43.835 33.062 46.829 32.937 47.028C32.582 47.595 32.62 48.519 33.022 49.087C33.193 49.329 33.515 49.621 33.737 49.736C34.232 49.992 35.036 50.008 35.533 49.772C35.74 49.674 39.479 46.012 44.178 41.306C52.182 33.291 52.463 32.996 52.563 32.507C52.631 32.177 52.631 31.823 52.563 31.493C52.463 31.004 52.182 30.709 44.178 22.694C39.624 18.133 35.753 14.333 35.575 14.249C35.137 14.043 34.575 13.972 34.172 14.072Z" fill="#222222"/>
</svg>
