<svg width="64" height="64" viewBox="0 0 64 64" fill="none" xmlns="http://www.w3.org/2000/svg">
<path fill-rule="evenodd" clip-rule="evenodd" d="M29.067 6.023C29.008 6.044 28.816 6.093 28.64 6.131C28.4 6.183 26.582 7.935 21.408 13.1C17.606 16.895 14.394 20.163 14.27 20.361C13.959 20.86 13.959 21.807 14.27 22.305C14.394 22.504 17.606 25.77 21.408 29.563C28.068 36.207 28.338 36.463 28.827 36.563C30.374 36.882 31.549 35.706 31.229 34.16C31.129 33.675 30.907 33.435 25.989 28.504L20.853 23.354L30.88 23.384C40.883 23.413 40.908 23.414 41.403 23.643C42.036 23.936 42.731 24.63 43.024 25.264L43.253 25.76L43.307 41.173L43.36 56.587L43.608 56.985C44.583 58.554 46.879 58.177 47.25 56.387C47.424 55.55 47.336 26.249 47.157 25.345C46.686 22.968 45.357 21.195 43.246 20.129C41.765 19.381 40.647 19.315 29.496 19.31L20.858 19.307L25.992 14.16C30.92 9.218 31.129 8.993 31.23 8.503C31.418 7.593 31.087 6.747 30.371 6.312C30.04 6.111 29.289 5.944 29.067 6.023Z" fill="#222222"/>
</svg>
