<svg width="64" height="64" viewBox="0 0 64 64" fill="none" xmlns="http://www.w3.org/2000/svg">
<path fill-rule="evenodd" clip-rule="evenodd" d="M31.506 16.739C31.036 16.855 30.564 17.216 30.274 17.682L30.027 18.08L29.973 29.254L29.92 40.428L26.293 36.796C24.299 34.798 22.504 33.062 22.305 32.937C22.046 32.775 21.771 32.711 21.333 32.711C20.595 32.711 20.066 32.997 19.655 33.619C19.29 34.17 19.266 35.098 19.603 35.639C19.727 35.837 22.339 38.503 25.408 41.562C30.76 46.899 31.007 47.129 31.493 47.23C31.825 47.298 32.175 47.298 32.507 47.23C32.993 47.129 33.24 46.899 38.639 41.513C41.788 38.37 44.341 35.739 44.438 35.535C44.674 35.036 44.659 34.232 44.403 33.737C44.288 33.515 43.996 33.193 43.754 33.022C43.185 32.62 42.262 32.582 41.695 32.937C41.496 33.062 39.701 34.798 37.707 36.796L34.08 40.428L34.027 29.307C33.974 18.288 33.971 18.183 33.751 17.76C33.342 16.978 32.357 16.53 31.506 16.739Z" fill="#222222"/>
</svg>
