<svg width="64" height="64" viewBox="0 0 64 64" fill="none" xmlns="http://www.w3.org/2000/svg">
<path fill-rule="evenodd" clip-rule="evenodd" d="M20.087 11.418C11.682 12.107 5.41496 19.457 6.08896 27.835C6.30896 30.577 7.09696 32.88 8.59096 35.147C10.75 38.424 14.347 40.867 18.162 41.647C19.83 41.987 21.55 42.023 36.318 42.025L51.143 42.027L47.397 45.787C45.337 47.855 43.59 49.666 43.515 49.813C43.439 49.959 43.378 50.357 43.378 50.696C43.378 51.206 43.432 51.39 43.689 51.754C43.86 51.996 44.182 52.288 44.404 52.403C44.899 52.659 45.703 52.674 46.201 52.438C46.406 52.341 49.037 49.788 52.179 46.639C57.565 41.24 57.796 40.993 57.896 40.507C57.9649 40.1725 57.9649 39.8275 57.896 39.493C57.796 39.007 57.565 38.76 52.179 33.361C48.968 30.143 46.408 27.66 46.195 27.559C45.649 27.3 44.801 27.33 44.323 27.625C43.704 28.007 43.378 28.59 43.378 29.313C43.378 29.647 43.439 30.041 43.515 30.187C43.59 30.334 45.338 32.146 47.399 34.216L51.147 37.978L35.253 37.945C19.573 37.914 19.35 37.91 18.613 37.694C18.0443 37.5163 17.4832 37.3154 16.931 37.092C14.316 36.025 11.963 33.659 10.889 31.016C10.206 29.338 10.08 28.66 10.08 26.667C10.08 24.674 10.206 23.995 10.889 22.317C11.963 19.674 14.316 17.309 16.931 16.241C19.029 15.385 18.432 15.435 27.253 15.367C34.711 15.31 35.169 15.296 35.553 15.105C37.142 14.316 36.886 11.863 35.17 11.43C34.611 11.29 21.776 11.279 20.087 11.418Z" fill="#222222"/>
</svg>
