<svg width="64" height="64" viewBox="0 0 64 64" fill="none" xmlns="http://www.w3.org/2000/svg">
<path fill-rule="evenodd" clip-rule="evenodd" d="M23.506 16.742C22.216 17.049 21.595 18.677 22.356 19.754C22.527 19.996 22.859 20.295 23.093 20.417C23.514 20.637 23.636 20.64 31.996 20.67L40.472 20.7L28.669 32.51C20.155 41.029 16.843 44.409 16.783 44.64C16.359 46.265 17.554 47.562 19.17 47.231C19.666 47.129 19.995 46.812 31.49 35.327L43.3 23.528L43.33 32.058L43.36 40.587L43.608 40.985C44.559 42.516 46.871 42.165 47.242 40.433C47.407 39.662 47.407 19.005 47.242 18.234C47.166 17.8831 46.9945 17.5601 46.7464 17.3007C46.4982 17.0412 46.1831 16.8555 45.836 16.764C45.277 16.623 24.091 16.602 23.506 16.742Z" fill="#222222"/>
</svg>
