<svg width="64" height="64" viewBox="0 0 64 64" fill="none" xmlns="http://www.w3.org/2000/svg">
<path fill-rule="evenodd" clip-rule="evenodd" d="M26.172 19.407C24.881 19.721 24.261 21.344 25.022 22.421C25.193 22.663 25.525 22.961 25.76 23.084C26.175 23.301 26.343 23.308 31.995 23.338L37.803 23.369L28.726 32.458C23.734 37.457 19.589 41.666 19.514 41.813C19.439 41.959 19.378 42.349 19.378 42.678C19.378 43.995 20.482 44.842 21.836 44.564C22.332 44.462 22.617 44.189 31.489 35.329L40.631 26.198L40.662 32.059L40.693 37.92L40.941 38.318C41.902 39.864 44.215 39.495 44.58 37.737C44.664 37.334 44.691 34.72 44.67 29.008C44.64 20.974 44.637 20.847 44.417 20.427C44.295 20.192 43.991 19.856 43.741 19.68L43.288 19.36L34.898 19.343C30.283 19.333 26.356 19.362 26.172 19.407Z" fill="#222222"/>
</svg>
