<svg width="64" height="64" viewBox="0 0 64 64" fill="none" xmlns="http://www.w3.org/2000/svg">
<path fill-rule="evenodd" clip-rule="evenodd" d="M18.172 6.075C17.704 6.187 17.232 6.547 16.941 7.015L16.693 7.413L16.662 21.173C16.63 35.208 16.689 38.175 17.021 39.413C17.638 41.717 19.664 43.725 21.973 44.321C23.122 44.617 25.459 44.686 34.505 44.69L43.144 44.693L38.064 49.787C35.27 52.588 32.923 55 32.848 55.146C32.773 55.293 32.711 55.69 32.711 56.03C32.711 56.54 32.765 56.723 33.022 57.087C33.193 57.329 33.515 57.621 33.737 57.736C34.232 57.992 35.036 58.008 35.534 57.772C35.74 57.674 38.924 54.567 42.845 50.639C49.541 43.932 49.796 43.662 49.896 43.173C49.964 42.8388 49.964 42.4942 49.896 42.16C49.796 41.672 49.541 41.401 42.896 34.741C39.103 30.94 35.837 27.728 35.639 27.604C35.098 27.266 34.171 27.29 33.619 27.655C33.001 28.064 32.711 28.596 32.711 29.322C32.711 29.651 32.773 30.041 32.848 30.187C32.923 30.334 35.271 32.747 38.065 35.549L43.147 40.645L33.12 40.616C23.117 40.587 23.092 40.586 22.597 40.357C21.964 40.064 21.269 39.37 20.976 38.736L20.747 38.24L20.693 22.88C20.642 8.08899 20.633 7.505 20.438 7.114C20.194 6.623 19.721 6.248 19.147 6.091C18.674 5.962 18.648 5.961 18.172 6.075Z" fill="#222222"/>
</svg>
