<svg width="64" height="64" viewBox="0 0 64 64" fill="none" xmlns="http://www.w3.org/2000/svg">
<path fill-rule="evenodd" clip-rule="evenodd" d="M30.24 6.084C16.067 6.987 5.16799 19.388 6.07899 33.573C6.77099 44.345 13.855 53.47 24.071 56.748C28.391 58.134 33.289 58.34 37.803 57.327C46.572 55.358 53.762 48.826 56.651 40.203C58.12 35.819 58.366 30.816 57.336 26.24C55.154 16.54 47.46 8.846 37.76 6.664C35.436 6.141 32.678 5.928 30.24 6.084ZM34.563 10.138C37.7193 10.5221 40.7562 11.5802 43.4679 13.2405C46.1796 14.9007 48.5027 17.1245 50.28 19.761C51.727 21.9 53.037 25.007 53.539 27.491C53.869 29.121 53.973 30.208 53.973 32C53.973 35.551 53.272 38.574 51.719 41.713C49.531 46.135 46.135 49.531 41.713 51.719C38.574 53.272 35.551 53.973 32 53.973C28.467 53.973 25.485 53.286 22.33 51.743C15.622 48.464 11.062 42.038 10.138 34.563C9.99499 33.4 9.99499 30.6 10.138 29.437C10.66 25.219 12.424 21.11 15.062 17.973C16.0103 16.8558 17.0525 15.8217 18.177 14.882C21.068 12.471 25.327 10.657 29.29 10.148C30.345 10.013 33.5 10.007 34.563 10.138ZM39.733 22.026C39.675 22.045 39.483 22.093 39.307 22.131C39.067 22.183 37.352 23.833 32.514 28.664L26.041 35.128L26.007 31.991C25.969 28.427 25.94 28.291 25.087 27.689C24.719 27.429 24.542 27.378 24.009 27.378C23.249 27.378 22.681 27.693 22.28 28.339L22.027 28.747V40.622L22.347 41.075C22.523 41.324 22.859 41.628 23.093 41.751C23.507 41.967 23.681 41.974 29.001 42.005C35.222 42.04 35.417 42.023 36.052 41.388C37.115 40.325 36.615 38.461 35.17 38.097C34.857 38.018 33.621 37.973 31.768 37.973H28.857L35.325 31.493C41.566 25.24 41.796 24.995 41.897 24.503C42.092 23.557 41.688 22.612 40.939 22.268C40.569 22.097 39.915 21.966 39.733 22.026Z" fill="#222222"/>
</svg>
