<svg width="64" height="64" viewBox="0 0 64 64" fill="none" xmlns="http://www.w3.org/2000/svg">
<path fill-rule="evenodd" clip-rule="evenodd" d="M30.24 6.084C16.067 6.987 5.16796 19.388 6.07896 33.573C6.77096 44.345 13.855 53.47 24.071 56.748C28.391 58.134 33.289 58.34 37.803 57.327C46.572 55.358 53.762 48.826 56.651 40.203C58.12 35.819 58.366 30.816 57.336 26.24C55.154 16.54 47.46 8.846 37.76 6.664C35.436 6.141 32.678 5.928 30.24 6.084ZM34.563 10.138C37.7193 10.5221 40.7561 11.5802 43.4678 13.2405C46.1795 14.9007 48.5027 17.1245 50.28 19.761C51.727 21.9 53.037 25.007 53.539 27.491C53.869 29.121 53.973 30.208 53.973 32C53.973 35.551 53.272 38.574 51.719 41.713C49.531 46.135 46.135 49.531 41.713 51.719C38.574 53.272 35.551 53.973 32 53.973C28.467 53.973 25.485 53.286 22.33 51.743C15.622 48.464 11.062 42.038 10.138 34.563C9.99496 33.4 9.99496 30.6 10.138 29.437C10.66 25.219 12.424 21.11 15.062 17.973C16.0103 16.8558 17.0524 15.8217 18.177 14.882C21.068 12.471 25.327 10.657 29.29 10.148C30.345 10.013 33.5 10.007 34.563 10.138ZM28.839 22.075C27.549 22.383 26.928 24.01 27.689 25.087C28.291 25.94 28.427 25.969 31.991 26.007L35.13 26.041L28.723 32.461C25.2 35.991 22.256 39 22.181 39.146C22.106 39.293 22.044 39.682 22.044 40.012C22.044 41.329 23.15 42.176 24.503 41.897C24.995 41.796 25.24 41.566 31.486 35.332L37.959 28.872L37.993 32.063C38.026 35.186 38.032 35.262 38.274 35.651C39.226 37.182 41.537 36.831 41.909 35.099C42.071 34.345 42.071 24.322 41.909 23.567C41.8328 23.2162 41.6612 22.8933 41.4131 22.6339C41.165 22.3745 40.85 22.1887 40.503 22.097C39.948 21.957 29.416 21.937 28.839 22.075Z" fill="#222222"/>
</svg>
