<svg width="64" height="64" viewBox="0 0 64 64" fill="none" xmlns="http://www.w3.org/2000/svg">
<path fill-rule="evenodd" clip-rule="evenodd" d="M30.24 6.084C16.067 6.987 5.16799 19.388 6.07899 33.573C6.77099 44.345 13.855 53.47 24.071 56.748C28.391 58.134 33.289 58.34 37.803 57.327C46.572 55.358 53.762 48.826 56.651 40.203C58.12 35.819 58.366 30.816 57.336 26.24C55.154 16.54 47.46 8.846 37.76 6.664C35.436 6.141 32.678 5.928 30.24 6.084ZM34.563 10.138C37.7193 10.5221 40.7562 11.5802 43.4679 13.2405C46.1796 14.9007 48.5027 17.1245 50.28 19.761C51.727 21.9 53.037 25.007 53.539 27.491C53.869 29.121 53.973 30.208 53.973 32C53.973 35.551 53.272 38.574 51.719 41.713C49.531 46.135 46.135 49.531 41.713 51.719C38.574 53.272 35.551 53.973 32 53.973C28.467 53.973 25.485 53.286 22.33 51.743C15.622 48.464 11.062 42.038 10.138 34.563C9.99499 33.4 9.99499 30.6 10.138 29.437C10.66 25.219 12.424 21.11 15.062 17.973C16.0103 16.8558 17.0525 15.8217 18.177 14.882C21.068 12.471 25.327 10.657 29.29 10.148C30.345 10.013 33.5 10.007 34.563 10.138ZM31.506 19.406C31.036 19.521 30.564 19.882 30.274 20.349L30.027 20.747L29.997 29.272L29.967 37.797L27.49 35.338C25.134 32.999 24.987 32.873 24.476 32.765C23.546 32.569 22.764 32.891 22.283 33.67C21.959 34.194 21.953 35.13 22.27 35.639C22.394 35.837 24.406 37.903 26.741 40.229C30.785 44.256 31.011 44.462 31.493 44.562C31.824 44.631 32.176 44.631 32.507 44.563C32.991 44.464 33.209 44.264 37.403 40.07C41.597 35.875 41.797 35.657 41.897 35.173C42.136 34.01 41.522 32.991 40.442 32.76C40.144 32.696 39.839 32.663 39.764 32.686C39.6132 32.7287 39.4611 32.7667 39.308 32.8C39.08 32.85 38.277 33.578 36.511 35.334L34.033 37.797L34.003 29.325C33.974 20.969 33.97 20.847 33.751 20.427C33.342 19.645 32.357 19.197 31.506 19.406Z" fill="#222222"/>
</svg>
