<svg width="64" height="64" viewBox="0 0 64 64" fill="none" xmlns="http://www.w3.org/2000/svg">
<path fill-rule="evenodd" clip-rule="evenodd" d="M18.172 16.742C17.088 17 16.471 18.164 16.783 19.36C16.843 19.591 20.155 22.971 28.669 31.49L40.472 43.3L31.9349 43.33L23.398 43.36L22.965 43.646C22.325 44.07 22.044 44.589 22.044 45.351C22.044 45.874 22.097 46.054 22.356 46.421C22.527 46.663 22.859 46.961 23.093 47.084C23.517 47.305 23.602 47.307 34.345 47.336C41.983 47.356 45.337 47.33 45.741 47.246C46.519 47.085 47.077 46.534 47.242 45.766C47.407 44.995 47.407 24.338 47.242 23.567C46.867 21.819 44.568 21.47 43.608 23.015L43.36 23.413L43.33 31.942L43.2999 40.472L31.49 28.676C20.278 17.477 19.655 16.874 19.179 16.76C18.629 16.628 18.647 16.628 18.172 16.742Z" fill="#222222"/>
</svg>
