<svg width="64" height="64" viewBox="0 0 64 64" fill="none" xmlns="http://www.w3.org/2000/svg">
<path fill-rule="evenodd" clip-rule="evenodd" d="M16.0001 8.74991C14.5531 8.83491 13.5691 9.04691 12.7691 9.44591C10.6711 10.4959 9.31409 12.3049 8.84309 14.6789C8.67309 15.5379 8.57909 45.0149 8.73909 47.6159C8.85709 49.5489 9.02109 50.3729 9.46309 51.2479C10.5281 53.3569 12.3011 54.6859 14.6791 55.1569C15.1321 55.2469 19.5121 55.2939 30.4531 55.3269C45.9481 55.3749 48.7931 55.3239 50.0801 54.9789C52.3571 54.3689 54.3691 52.3569 54.9791 50.0799C55.3241 48.7929 55.3751 45.9479 55.3271 30.4529C55.2941 19.5119 55.2471 15.1319 55.1571 14.6789C54.6861 12.2999 53.3571 10.5279 51.2461 9.46191C50.3961 9.03291 49.4611 8.84091 47.7331 8.73991C45.8321 8.62891 17.9251 8.63791 16.0001 8.74991ZM49.4031 12.9759C50.0361 13.2689 50.7311 13.9639 51.0241 14.5969L51.2531 15.0929L51.2831 26.5329L51.3121 37.9729H12.6881L12.7171 26.5329L12.7471 15.0929L12.9761 14.5969C13.3921 13.6969 14.2651 12.9869 15.1811 12.8039C15.4261 12.7549 23.1151 12.7219 32.2671 12.7309L48.9071 12.7469L49.4031 12.9759ZM51.2881 45.4669C51.2551 48.7219 51.2411 48.9329 51.0241 49.4029C50.7311 50.0359 50.0361 50.7309 49.4031 51.0239L48.9071 51.2529H15.0931L14.5971 51.0239C13.9641 50.7309 13.2691 50.0359 12.9761 49.4029C12.7591 48.9329 12.7451 48.7219 12.7121 45.4669L12.6781 42.0269H51.3221L51.2881 45.4669Z" fill="#222222"/>
</svg>
