<svg width="64" height="64" viewBox="0 0 64 64" fill="none" xmlns="http://www.w3.org/2000/svg">
<path fill-rule="evenodd" clip-rule="evenodd" d="M16.0001 8.74991C14.5531 8.83491 13.5691 9.04691 12.7691 9.44591C10.6711 10.4959 9.31409 12.3049 8.84309 14.6789C8.67309 15.5379 8.57909 45.0149 8.73909 47.6159C8.85709 49.5489 9.02109 50.3729 9.46309 51.2479C10.5281 53.3569 12.3011 54.6859 14.6791 55.1569C15.1321 55.2469 19.5121 55.2939 30.4531 55.3269C45.9481 55.3749 48.7931 55.3239 50.0801 54.9789C52.3841 54.3619 54.3911 52.3359 54.9871 50.0269C55.3041 48.7999 55.3531 46.3959 55.3531 31.9999C55.3531 17.6039 55.3041 15.1999 54.9871 13.9729C54.3851 11.6379 52.3621 9.61491 50.0271 9.01291C49.6451 8.91391 48.6131 8.79191 47.7331 8.73991C45.8321 8.62891 17.9251 8.63791 16.0001 8.74991ZM37.9731 32.0029V51.3119L26.5331 51.2829L15.0931 51.2529L14.5971 51.0239C13.9641 50.7309 13.2691 50.0359 12.9761 49.4029L12.7471 48.9069V15.0929L12.9761 14.5969C13.3931 13.6959 14.2671 12.9859 15.1811 12.8049C15.4261 12.7559 20.6551 12.7109 26.8001 12.7049L37.9731 12.6929V32.0029ZM49.4031 12.9759C50.0361 13.2689 50.7311 13.9639 51.0241 14.5969L51.2531 15.0929V48.9069L51.0241 49.4029C50.7311 50.0359 50.0361 50.7309 49.4031 51.0239C48.9331 51.2409 48.7221 51.2549 45.4671 51.2879L42.0271 51.3219V12.6779L45.4671 12.7119C48.7221 12.7449 48.9331 12.7589 49.4031 12.9759Z" fill="#222222"/>
</svg>
