<svg width="64" height="64" viewBox="0 0 64 64" fill="none" xmlns="http://www.w3.org/2000/svg">
<path fill-rule="evenodd" clip-rule="evenodd" d="M16.0001 8.74991C14.5531 8.83491 13.5691 9.04691 12.7691 9.44591C10.6711 10.4959 9.31409 12.3049 8.84309 14.6789C8.67309 15.5379 8.57909 45.0149 8.73909 47.6159C8.85709 49.5489 9.02109 50.3729 9.46309 51.2479C10.5281 53.3569 12.3011 54.6859 14.6791 55.1569C15.1321 55.2469 19.5121 55.2939 30.4531 55.3269C45.9481 55.3749 48.7931 55.3239 50.0801 54.9789C52.3841 54.3619 54.3911 52.3359 54.9871 50.0269C55.3041 48.7999 55.3531 46.3959 55.3531 31.9999C55.3531 17.6039 55.3041 15.1999 54.9871 13.9729C54.3851 11.6379 52.3621 9.61491 50.0271 9.01291C49.6451 8.91391 48.6131 8.79191 47.7331 8.73991C45.8321 8.62891 17.9251 8.63791 16.0001 8.74991ZM49.4031 12.9759C50.0361 13.2689 50.7311 13.9639 51.0241 14.5969C51.2411 15.0669 51.2551 15.2779 51.2881 18.5329L51.3221 21.9729H12.6781L12.7121 18.5329C12.7451 15.2779 12.7591 15.0669 12.9761 14.5969C13.3921 13.6969 14.2651 12.9869 15.1811 12.8039C15.4261 12.7549 23.1151 12.7219 32.2671 12.7309L48.9071 12.7469L49.4031 12.9759ZM51.2831 37.4669L51.2531 48.9069L51.0241 49.4029C50.7311 50.0359 50.0361 50.7309 49.4031 51.0239L48.9071 51.2529H15.0931L14.5971 51.0239C13.9641 50.7309 13.2691 50.0359 12.9761 49.4029L12.7471 48.9069L12.7171 37.4669L12.6881 26.0269H51.3121L51.2831 37.4669Z" fill="#222222"/>
</svg>
