<svg width="64" height="64" viewBox="0 0 64 64" fill="none" xmlns="http://www.w3.org/2000/svg">
<path fill-rule="evenodd" clip-rule="evenodd" d="M30.365 6.08402C26.44 6.37502 22.151 8.05802 19.147 10.486C18.324 11.15 16.689 12.771 16.006 13.6C13.973 16.066 12.443 19.285 11.783 22.487C11.399 24.346 11.307 26.1 11.307 31.562V36.512L10.417 37.434C8.96 38.945 8.554 40.102 8.691 42.347C8.799 44.114 9.076 44.88 9.952 45.834C10.4985 46.4189 11.1851 46.8546 11.947 47.1C12.456 47.261 13.154 47.292 17.243 47.334L21.952 47.382L22.025 48.357C22.199 50.688 22.871 52.522 24.159 54.179C25.589 56.02 27.85 57.385 30.187 57.817C31.077 57.981 32.923 57.981 33.813 57.817C36.15 57.385 38.411 56.02 39.841 54.179C41.129 52.522 41.801 50.688 41.975 48.357L42.048 47.382L46.757 47.334C50.846 47.292 51.544 47.261 52.053 47.1C53.501 46.642 54.691 45.438 55.078 44.039C55.301 43.234 55.391 41.48 55.257 40.533C55.092 39.361 54.647 38.539 53.583 37.434L52.693 36.512L52.692 31.616C52.692 28.923 52.643 26.049 52.584 25.229C52.388 22.506 51.725 20.017 50.567 17.653C49.516 15.507 48.463 14.013 46.78 12.282C42.469 7.84702 36.579 5.62302 30.365 6.08402ZM34.4 10.178C38.123 10.749 41.29 12.375 43.904 15.057C45.673 16.872 46.87 18.77 47.679 21.045C48.57 23.55 48.636 24.221 48.639 30.88C48.64 33.989 48.687 36.815 48.744 37.159C48.901 38.121 49.237 38.684 50.315 39.797L51.307 40.82V41.868C51.307 42.694 51.269 42.958 51.13 43.112C50.96 43.299 50.227 43.307 32.019 43.307C14.549 43.307 13.068 43.293 12.888 43.13C12.724 42.982 12.693 42.785 12.693 41.89V40.826L13.69 39.788C14.778 38.654 15.1 38.114 15.256 37.159C15.313 36.815 15.36 33.989 15.361 30.88C15.364 24.221 15.43 23.55 16.321 21.045C17.558 17.569 20.222 14.295 23.307 12.458C25.306 11.267 27.298 10.536 29.493 10.187C30.651 10.003 33.227 9.99802 34.4 10.178ZM23.506 24.742C22.216 25.049 21.595 26.677 22.356 27.754C22.527 27.996 22.859 28.295 23.093 28.417C23.514 28.637 23.641 28.64 31.674 28.67C37.386 28.691 40.001 28.664 40.404 28.58C42.406 28.165 42.482 25.262 40.503 24.764C39.945 24.623 24.088 24.603 23.506 24.742ZM37.973 48.138C37.973 49.712 37.408 51.025 36.217 52.217C34.99 53.443 33.718 53.973 32 53.973C30.282 53.973 29.01 53.443 27.783 52.217C26.592 51.025 26.027 49.712 26.027 48.138V47.36H37.973V48.138Z" fill="#222222"/>
</svg>
