<svg width="64" height="64" viewBox="0 0 64 64" fill="none" xmlns="http://www.w3.org/2000/svg">
<path fill-rule="evenodd" clip-rule="evenodd" d="M15.1101 3.57299C14.6931 3.78999 13.5491 4.70499 12.5871 5.58899C10.0241 7.94599 7.86306 10.847 6.26106 14.08C5.66806 15.278 5.60106 15.48 5.60206 16.065C5.60306 16.606 5.65506 16.791 5.90706 17.155C6.26406 17.669 6.93106 18.028 7.52706 18.024C8.00506 18.022 8.71806 17.727 8.97006 17.428C9.06406 17.317 9.53106 16.469 10.0081 15.543C11.7121 12.233 13.7321 9.72999 16.5001 7.49699C17.6861 6.54099 17.9721 6.06499 17.8971 5.16599C17.8421 4.49799 17.4671 3.94099 16.8521 3.61099C16.4041 3.37099 15.5341 3.35199 15.1101 3.57299ZM47.1491 3.60499C46.5291 3.94699 46.1581 4.49999 46.1031 5.16599C46.0281 6.06499 46.3141 6.54099 47.5001 7.49699C50.2681 9.72999 52.2881 12.233 53.9921 15.543C54.4691 16.469 54.9361 17.317 55.0301 17.428C55.2821 17.727 55.9951 18.022 56.4731 18.024C57.0771 18.028 57.7761 17.652 58.1121 17.144C58.3411 16.797 58.3971 16.589 58.3981 16.064C58.3991 15.48 58.3321 15.277 57.7391 14.08C55.7851 10.137 52.9331 6.61499 49.6631 4.11099C48.8871 3.51599 48.7921 3.47299 48.1771 3.43799C47.6781 3.40999 47.4311 3.44999 47.1491 3.60499ZM30.3651 6.08399C26.4831 6.37199 22.6071 7.86699 19.3601 10.328C18.5091 10.973 16.7661 12.672 16.0041 13.6C13.9661 16.08 12.4431 19.288 11.7831 22.487C11.3991 24.346 11.3071 26.1 11.3071 31.562V36.512L10.4171 37.434C8.96006 38.945 8.55406 40.102 8.69106 42.347C8.79906 44.114 9.07606 44.88 9.95206 45.834C10.4985 46.4189 11.1852 46.8546 11.9471 47.1C12.4561 47.261 13.1541 47.292 17.2431 47.334L21.9521 47.382L22.0251 48.357C22.1991 50.688 22.8711 52.522 24.1591 54.179C25.5891 56.02 27.8501 57.385 30.1871 57.817C31.0771 57.981 32.9231 57.981 33.8131 57.817C36.1501 57.385 38.4111 56.02 39.8411 54.179C41.1291 52.522 41.8011 50.688 41.9751 48.357L42.0481 47.382L46.7571 47.334C50.8461 47.292 51.5441 47.261 52.0531 47.1C53.5011 46.642 54.6911 45.438 55.0781 44.039C55.3011 43.234 55.3911 41.48 55.2571 40.533C55.0921 39.361 54.6471 38.539 53.5831 37.434L52.6931 36.512L52.6921 31.616C52.6921 28.923 52.6431 26.049 52.5841 25.229C52.3881 22.506 51.7251 20.017 50.5671 17.653C49.5161 15.507 48.4631 14.013 46.7801 12.282C42.4691 7.84699 36.5791 5.62299 30.3651 6.08399ZM34.4001 10.178C38.1231 10.749 41.2901 12.375 43.9041 15.057C45.6731 16.872 46.8701 18.77 47.6791 21.045C48.5701 23.55 48.6361 24.221 48.6391 30.88C48.6401 33.989 48.6871 36.815 48.7441 37.159C48.9011 38.121 49.2371 38.684 50.3151 39.797L51.3071 40.82V41.868C51.3071 42.694 51.2691 42.958 51.1301 43.112C50.9601 43.299 50.2271 43.307 32.0191 43.307C14.5491 43.307 13.0681 43.293 12.8881 43.13C12.7241 42.982 12.6931 42.785 12.6931 41.89V40.826L13.6901 39.788C14.7781 38.654 15.1001 38.114 15.2561 37.159C15.3131 36.815 15.3601 33.989 15.3611 30.88C15.3641 24.221 15.4301 23.55 16.3211 21.045C17.5581 17.569 20.2221 14.295 23.3071 12.458C25.3061 11.267 27.2981 10.536 29.4931 10.187C30.6511 10.003 33.2271 9.99799 34.4001 10.178ZM37.9731 48.138C37.9731 49.712 37.4081 51.025 36.2171 52.217C34.9901 53.443 33.7181 53.973 32.0001 53.973C30.2821 53.973 29.0101 53.443 27.7831 52.217C26.5921 51.025 26.0271 49.712 26.0271 48.138V47.36H37.9731V48.138Z" fill="#222222"/>
</svg>
