<svg width="64" height="64" viewBox="0 0 64 64" fill="none" xmlns="http://www.w3.org/2000/svg">
<path fill-rule="evenodd" clip-rule="evenodd" d="M30.365 6.08402C26.44 6.37502 22.151 8.05802 19.147 10.486C18.324 11.15 16.689 12.771 16.006 13.6C13.973 16.066 12.443 19.285 11.783 22.487C11.399 24.346 11.307 26.1 11.307 31.562V36.512L10.417 37.434C8.96 38.945 8.554 40.102 8.691 42.347C8.799 44.114 9.076 44.88 9.952 45.834C10.4985 46.4189 11.1851 46.8546 11.947 47.1C12.456 47.261 13.154 47.292 17.243 47.334L21.952 47.382L22.025 48.357C22.199 50.688 22.871 52.522 24.159 54.179C25.589 56.02 27.85 57.385 30.187 57.817C31.077 57.981 32.923 57.981 33.813 57.817C36.15 57.385 38.411 56.02 39.841 54.179C41.129 52.522 41.801 50.688 41.975 48.357L42.048 47.382L46.757 47.334C50.846 47.292 51.544 47.261 52.053 47.1C52.8149 46.8546 53.5015 46.4189 54.048 45.834C54.924 44.88 55.201 44.114 55.309 42.347C55.446 40.102 55.04 38.945 53.583 37.434L52.693 36.512L52.692 31.616C52.692 28.923 52.643 26.049 52.584 25.229C52.388 22.506 51.725 20.017 50.567 17.653C49.516 15.507 48.463 14.013 46.78 12.282C42.469 7.84702 36.579 5.62302 30.365 6.08402ZM34.4 10.178C38.123 10.749 41.29 12.375 43.904 15.057C45.673 16.872 46.87 18.77 47.679 21.045C48.57 23.55 48.636 24.221 48.639 30.88C48.64 33.989 48.687 36.815 48.744 37.159C48.901 38.121 49.237 38.684 50.315 39.797L51.307 40.82V41.868C51.307 42.694 51.269 42.958 51.13 43.112C50.96 43.299 50.227 43.307 32.019 43.307C14.549 43.307 13.068 43.293 12.888 43.13C12.724 42.982 12.693 42.785 12.693 41.89V40.826L13.69 39.788C14.778 38.654 15.1 38.114 15.256 37.159C15.313 36.815 15.36 33.989 15.361 30.88C15.364 24.221 15.43 23.55 16.321 21.045C17.558 17.569 20.222 14.295 23.307 12.458C25.306 11.267 27.298 10.536 29.493 10.187C30.651 10.003 33.227 9.99802 34.4 10.178ZM26.172 19.406C25.705 19.521 25.231 19.882 24.95 20.337C24.674 20.782 24.622 21.748 24.849 22.187C24.925 22.334 25.927 23.401 27.076 24.56L29.166 26.667L27.076 28.773C25.927 29.932 24.925 31 24.849 31.146C24.773 31.293 24.711 31.682 24.711 32.012C24.711 33.33 25.82 34.179 27.17 33.895C27.643 33.795 27.838 33.63 29.84 31.646L32 29.505L34.16 31.646C36.156 33.625 36.358 33.795 36.827 33.894C38.371 34.219 39.553 33.037 39.227 31.493C39.129 31.025 38.958 30.823 36.979 28.827L34.838 26.667L36.979 24.507C38.964 22.505 39.128 22.309 39.228 21.836C39.513 20.487 38.663 19.378 37.345 19.378C37.015 19.378 36.626 19.44 36.48 19.516C36.333 19.591 35.265 20.594 34.107 21.743L32 23.833L29.893 21.743C28.735 20.594 27.691 19.605 27.573 19.546C27.252 19.384 26.549 19.314 26.172 19.406ZM37.973 48.138C37.973 49.712 37.408 51.025 36.217 52.217C34.99 53.443 33.718 53.973 32 53.973C30.282 53.973 29.01 53.443 27.783 52.217C26.592 51.025 26.027 49.712 26.027 48.138V47.36H37.973V48.138Z" fill="#222222"/>
</svg>
