<svg width="64" height="64" viewBox="0 0 64 64" fill="none" xmlns="http://www.w3.org/2000/svg">
<path fill-rule="evenodd" clip-rule="evenodd" d="M44.213 3.414C41.71 3.639 39.529 4.507 37.493 6.089L36.853 6.587L35.872 6.39C32.609 5.738 28.706 5.999 25.42 7.089C23.378 7.767 20.752 9.189 19.147 10.486C18.324 11.15 16.689 12.771 16.006 13.6C13.973 16.066 12.443 19.285 11.783 22.487C11.399 24.346 11.307 26.1 11.307 31.559V36.505L10.384 37.475C9.28505 38.63 8.88405 39.39 8.72605 40.614C8.60005 41.595 8.69005 43.372 8.90205 44.075C9.19905 45.058 10.001 46.062 10.971 46.663C11.963 47.277 12.026 47.283 17.189 47.332L21.952 47.377L22.025 48.355C22.163 50.202 22.511 51.428 23.312 52.884C24.237 54.567 25.502 55.816 27.221 56.743C28.808 57.599 30.183 57.945 32 57.945C33.817 57.945 35.192 57.599 36.779 56.743C38.498 55.816 39.763 54.567 40.688 52.884C41.489 51.428 41.837 50.202 41.975 48.355L42.048 47.377L46.811 47.332C51.974 47.283 52.037 47.277 53.029 46.663C53.999 46.062 54.801 45.058 55.098 44.075C55.31 43.372 55.4 41.595 55.274 40.614C55.116 39.39 54.715 38.63 53.616 37.475L52.693 36.505V26.276L53.147 25.949C53.798 25.479 54.95 24.28 55.583 23.413C56.328 22.392 57.219 20.528 57.545 19.307C58.196 16.863 58.066 13.921 57.204 11.628C55.187 6.264 49.876 2.905 44.213 3.414ZM47.947 7.719C49.355 8.181 50.278 8.762 51.425 9.909C52.573 11.057 53.155 11.983 53.612 13.387C53.951 14.428 54.076 16.364 53.876 17.484C53.38 20.257 51.406 22.784 48.873 23.887C47.457 24.504 46.544 24.674 44.965 24.613C42.546 24.521 40.982 23.831 39.242 22.091C37.501 20.35 36.81 18.783 36.723 16.373C36.629 13.755 37.281 11.982 39.024 10.119C40.868 8.148 42.867 7.329 45.653 7.402C46.853 7.433 47.236 7.486 47.947 7.719ZM33.796 10.092L34.125 10.158L33.913 10.573C32.51 13.323 32.3221 17.34 33.455 20.35C35.0201 24.506 38.5 27.493 42.816 28.385C44.177 28.666 46.486 28.691 47.68 28.437C48.12 28.343 48.516 28.267 48.56 28.267C48.604 28.267 48.64 30.127 48.641 32.4C48.641 34.673 48.687 36.815 48.744 37.159C48.901 38.121 49.237 38.684 50.315 39.797L51.307 40.82V41.868C51.307 42.694 51.269 42.958 51.13 43.112C50.96 43.299 50.2271 43.307 32.019 43.307C14.549 43.307 13.068 43.293 12.888 43.13C12.724 42.982 12.693 42.785 12.693 41.89V40.826L13.69 39.788C14.778 38.654 15.1 38.114 15.256 37.159C15.313 36.815 15.36 33.989 15.361 30.88C15.364 24.221 15.43 23.55 16.321 21.045C17.558 17.569 20.222 14.295 23.307 12.458C25.306 11.267 27.298 10.536 29.493 10.187C30.395 10.043 33.239 9.981 33.796 10.092ZM37.973 48.138C37.973 49.712 37.408 51.025 36.217 52.217C34.99 53.443 33.718 53.973 32 53.973C30.282 53.973 29.01 53.443 27.783 52.217C26.592 51.025 26.027 49.712 26.027 48.138V47.36H37.973V48.138Z" fill="#222222"/>
</svg>
