<svg width="64" height="64" viewBox="0 0 64 64" fill="none" xmlns="http://www.w3.org/2000/svg">
<path fill-rule="evenodd" clip-rule="evenodd" d="M12.839 6.07302C12.372 6.18702 11.897 6.54902 11.616 7.00302C11.341 7.44902 11.288 8.41502 11.515 8.85402C11.591 9.00002 12.637 10.111 13.839 11.323L16.025 13.525L15.281 14.576C13.276 17.406 12.129 20.203 11.566 23.631C11.425 24.489 11.381 25.833 11.337 30.612L11.282 36.531L10.372 37.488C9.752 38.139 9.361 38.659 9.147 39.117C8.475 40.552 8.472 43.236 9.14 44.666C9.754 45.981 11.211 47.041 12.697 47.256C13.076 47.311 15.314 47.357 17.669 47.358L21.951 47.36L22.024 48.347C22.163 50.202 22.51 51.426 23.312 52.884C24.237 54.567 25.502 55.816 27.221 56.743C28.808 57.599 30.183 57.945 32 57.945C33.817 57.945 35.192 57.599 36.779 56.743C38.498 55.816 39.763 54.567 40.688 52.884C41.49 51.426 41.837 50.202 41.976 48.347L42.049 47.36H49.857L52.422 49.907C54.816 52.286 55.02 52.462 55.493 52.561C57.037 52.885 58.214 51.709 57.897 50.16C57.796 49.666 57.263 49.122 36.23 28.075C24.37 16.207 14.523 6.40802 14.347 6.30002C13.96 6.06102 13.294 5.96102 12.839 6.07302ZM30.773 6.04702C27.937 6.23502 24.477 7.17602 23.804 7.94302C22.949 8.91602 23.168 10.333 24.27 10.957C24.808 11.262 25.512 11.271 26.323 10.984C28.157 10.333 29.996 10.026 32.034 10.029C36.603 10.035 40.702 11.772 43.904 15.057C46.316 17.532 47.712 20.23 48.449 23.84C48.509 24.133 48.589 26.821 48.626 29.813L48.693 35.253L48.941 35.651C49.893 37.182 52.204 36.831 52.575 35.099C52.727 34.393 52.733 27.14 52.584 25.173C52.273 21.076 50.85 17.339 48.339 14.027C47.693 13.175 45.995 11.433 45.067 10.671C42.587 8.63302 39.383 7.11102 36.178 6.44802C35.037 6.21202 32.403 5.94902 31.627 5.99302L30.773 6.04702ZM32.373 29.867L45.813 43.307H29.448C14.37 43.307 13.068 43.293 12.888 43.13C12.724 42.982 12.693 42.785 12.693 41.89V40.826L13.69 39.788C14.778 38.654 15.1 38.114 15.256 37.159C15.313 36.815 15.36 33.989 15.361 30.88C15.364 25.054 15.407 24.307 15.833 22.613C16.17 21.272 16.91 19.434 17.528 18.4C18.017 17.581 18.804 16.427 18.872 16.427C18.906 16.427 24.982 22.475 32.373 29.867ZM37.973 48.138C37.973 49.712 37.408 51.025 36.217 52.217C34.99 53.443 33.718 53.973 32 53.973C30.282 53.973 29.01 53.443 27.783 52.217C26.592 51.025 26.027 49.712 26.027 48.138V47.36H37.973V48.138Z" fill="#222222"/>
</svg>
