<svg width="64" height="64" viewBox="0 0 64 64" fill="none" xmlns="http://www.w3.org/2000/svg">
<path fill-rule="evenodd" clip-rule="evenodd" d="M20.8391 11.408C20.3711 11.52 19.8981 11.881 19.6081 12.349L19.3601 12.747V51.288L19.6801 51.741C19.8561 51.99 20.1921 52.295 20.4271 52.417C20.8451 52.636 20.9901 52.641 28.1601 52.673C36.1031 52.709 37.5891 52.646 39.0991 52.209C40.9488 51.68 42.6327 50.6873 43.9911 49.325C45.8495 47.4833 46.9983 45.0447 47.2351 42.439C47.5521 38.994 46.3931 35.744 43.9911 33.342C43.2561 32.606 41.8361 31.557 41.1651 31.254L40.8911 31.129L41.5211 30.471C43.7711 28.124 44.8751 24.894 44.5681 21.561C44.3313 18.9555 43.1829 16.5171 41.3251 14.675C39.4241 12.775 37.0661 11.677 34.3331 11.421C32.9651 11.293 21.3691 11.282 20.8391 11.408ZM35.6271 15.661C36.705 16.0538 37.6839 16.6777 38.4951 17.489C39.3431 18.337 39.8941 19.194 40.2941 20.289C40.5561 21.003 40.5791 21.198 40.5791 22.667C40.5791 24.135 40.5561 24.331 40.2941 25.045C39.8951 26.136 39.3431 26.996 38.5031 27.836C37.7205 28.6384 36.7658 29.2525 35.7111 29.632L34.9331 29.92L29.1471 29.952L23.3601 29.984V15.35L29.1471 15.382C34.8881 15.413 34.9391 15.415 35.6271 15.661ZM38.2931 34.327C39.3712 34.7204 40.3504 35.3446 41.1621 36.156C42.0101 37.004 42.5611 37.861 42.9611 38.955C43.2231 39.669 43.2461 39.865 43.2461 41.333C43.2461 42.802 43.2231 42.997 42.9611 43.711C42.5621 44.803 42.0101 45.663 41.1701 46.503C40.3873 47.3049 39.4326 47.9186 38.3781 48.298L37.6001 48.587L30.4801 48.618L23.3601 48.649V34.018L30.4801 34.049L37.6001 34.08L38.2931 34.327Z" fill="#222222"/>
</svg>
