<svg width="64" height="64" viewBox="0 0 64 64" fill="none" xmlns="http://www.w3.org/2000/svg">
<path fill-rule="evenodd" clip-rule="evenodd" d="M18.667 6.08195C17.218 6.16795 16.233 6.38095 15.436 6.77995C13.339 7.82795 11.994 9.61895 11.506 12.012C11.336 12.845 11.249 53.438 11.415 54.541C11.686 56.346 12.979 57.641 14.792 57.922C15.287 57.999 20.423 58.0239 30.827 58.0019C45.32 57.971 46.164 57.9579 46.715 57.7739C47.962 57.3559 48.962 56.475 49.504 55.318C49.876 54.523 50.022 53.332 50.025 51.077L50.027 49.514L50.486 49.2439C51.664 48.554 52.413 47.271 52.583 45.652C52.727 44.282 52.727 11.718 52.583 10.348C52.367 8.29395 51.236 6.83595 49.387 6.22495C48.833 6.04195 48.001 6.03095 34.4 6.01695C26.48 6.00895 19.4 6.03795 18.667 6.08195ZM48.445 10.203C48.632 10.373 48.64 11.065 48.64 28C48.64 44.804 48.631 45.6279 48.449 45.7929C48.275 45.951 46.908 45.969 33.169 45.998L18.08 46.0299L17.264 46.261C16.815 46.389 16.202 46.617 15.902 46.769L15.356 47.0449L15.385 29.736L15.413 12.427L15.643 11.931C16.059 11.029 16.933 10.319 17.848 10.138C18.093 10.09 25.034 10.045 33.272 10.038C47.069 10.028 48.265 10.041 48.445 10.203ZM45.973 51.805C45.973 53.31 45.946 53.6129 45.797 53.778C45.627 53.965 45.012 53.9729 30.49 53.9729H15.36L15.363 53.573C15.366 53.083 15.751 52.1189 16.155 51.589C16.58 51.033 17.196 50.5709 17.901 50.2809L18.507 50.032L32.24 50.0289L45.973 50.027V51.805Z" fill="#222222"/>
</svg>
