<svg width="64" height="64" viewBox="0 0 64 64" fill="none" xmlns="http://www.w3.org/2000/svg">
<path fill-rule="evenodd" clip-rule="evenodd" d="M10.293 11.409C9.41998 11.493 8.85798 11.665 8.26698 12.029C7.28714 12.6303 6.5601 13.5682 6.22198 14.6669C6.03698 15.2729 6.02698 16.041 6.02698 29.333C6.02698 42.575 6.03698 43.395 6.21998 43.986C6.53484 45.0522 7.22596 45.9678 8.16498 46.563C9.29698 47.298 9.12098 47.2809 16.8 47.354L23.733 47.4199L24.428 47.688C25.436 48.076 26.292 48.686 26.918 49.464C27.22 49.839 28.187 51.208 29.067 52.506C30.827 55.103 31.029 55.2939 32 55.2939C32.971 55.2939 33.173 55.103 34.933 52.506C35.813 51.208 36.78 49.839 37.082 49.464C37.708 48.686 38.564 48.076 39.572 47.688L40.267 47.4199L47.2 47.354C54.873 47.2809 54.696 47.298 55.835 46.567C57.073 45.772 57.745 44.617 57.916 42.985C58.06 41.626 58.06 17.0409 57.916 15.6809C57.7 13.6239 56.562 12.162 54.715 11.567C53.487 11.171 39.805 11.2589 37.813 11.6759C35.684 12.1209 34.065 13.0309 32.644 14.5819L32 15.284L31.356 14.5819C29.909 13.0019 28.143 12.033 25.973 11.628C25.621 11.563 24.325 11.4649 23.093 11.4119C20.565 11.3019 11.434 11.3 10.293 11.409ZM24.677 15.4759C25.196 15.5399 25.88 15.6809 26.197 15.7899C27.677 16.2989 29.036 17.6629 29.548 19.1509C29.946 20.3079 29.973 21.257 29.969 34.24L29.966 46.88L29.623 46.4599C28.873 45.54 26.958 44.334 25.493 43.858C24.168 43.427 23.687 43.3979 16.96 43.3419C11.218 43.2929 10.377 43.2659 10.213 43.1199C10.037 42.9629 10.027 42.1709 10.027 29.3519C10.027 16.8449 10.041 15.734 10.203 15.555C10.371 15.37 10.723 15.3599 17.057 15.3599C21.205 15.3599 24.091 15.4039 24.677 15.4759ZM53.778 15.5369C53.965 15.7059 53.973 16.274 53.973 29.333C53.973 42.17 53.963 42.9629 53.787 43.1199C53.623 43.2659 52.782 43.2929 47.04 43.3419C40.313 43.3979 39.832 43.427 38.507 43.858C37.042 44.334 35.127 45.54 34.377 46.4599L34.034 46.88L34.031 34.24C34.027 21.225 34.053 20.3099 34.457 19.1359C34.977 17.6239 36.384 16.2479 37.92 15.7489C38.903 15.4299 39.914 15.387 46.765 15.373C52.971 15.3609 53.601 15.3759 53.778 15.5369Z" fill="#222222"/>
</svg>
