<svg width="64" height="64" viewBox="0 0 64 64" fill="none" xmlns="http://www.w3.org/2000/svg">
<path fill-rule="evenodd" clip-rule="evenodd" d="M21.3331 8.75001C19.8871 8.83501 18.9021 9.04701 18.1031 9.44601C16.0051 10.496 14.6471 12.305 14.1761 14.679C14.0861 15.133 14.0391 19.518 14.0061 30.492C13.9571 46.622 14.0091 49.335 14.3901 50.803C15.1711 53.805 18.0851 55.993 21.3111 55.998C23.1201 56.002 24.2671 55.501 27.8621 53.138C30.7881 51.215 31.1361 51.051 32.1451 51.117C33.1031 51.179 33.2891 51.273 36.1531 53.152C39.7391 55.503 40.8841 56.002 42.6891 55.998C45.9151 55.993 48.8281 53.806 49.6101 50.803C49.9901 49.345 50.0431 46.516 49.9941 30.418C49.9611 19.502 49.9131 15.132 49.8241 14.679C49.3521 12.3 48.0231 10.528 45.9121 9.46201C45.0631 9.03301 44.1281 8.84101 42.4001 8.74001C40.5071 8.63001 23.2601 8.63801 21.3331 8.75001ZM44.0691 12.976C44.7031 13.269 45.3981 13.964 45.6911 14.597L45.9201 15.093V49.547L45.6681 50.104C45.1871 51.167 44.0661 51.928 42.8331 52.026C42.2221 52.075 42.1311 52.049 41.1731 51.555C40.6161 51.267 39.1521 50.371 37.9201 49.564C34.6411 47.416 33.9101 47.113 32.0001 47.113C30.0911 47.113 29.3621 47.414 26.0801 49.562C24.8481 50.369 23.3841 51.265 22.8271 51.553C21.8681 52.049 21.7781 52.075 21.1671 52.026C19.9341 51.928 18.8131 51.167 18.3321 50.104L18.0801 49.547V15.093L18.3091 14.597C18.7251 13.697 19.5981 12.988 20.5151 12.803C20.7601 12.754 26.0481 12.721 32.2671 12.73L43.5731 12.747L44.0691 12.976Z" fill="#222222"/>
</svg>
