<svg width="64" height="64" viewBox="0 0 64 64" fill="none" xmlns="http://www.w3.org/2000/svg">
<path fill-rule="evenodd" clip-rule="evenodd" d="M55.485 6.07701C55.289 6.12401 54.963 6.30101 54.76 6.46801C54.328 6.82501 33.067 29.032 33.067 29.126C33.067 29.161 33.707 29.795 34.489 30.534L35.912 31.878L46.718 20.587C52.662 14.378 57.625 9.13901 57.747 8.94601C58.049 8.47001 58.051 7.55101 57.753 7.04101C57.316 6.29301 56.326 5.87201 55.485 6.07701ZM23.52 28.947C23.051 29.084 21.683 29.514 20.48 29.901C16.41 31.212 14.641 31.538 12.213 31.427C10.676 31.357 9.55796 31.131 6.93796 30.361C6.03096 30.094 5.27296 29.892 5.25296 29.911C5.20796 29.957 5.98996 33.061 6.32996 34.187C6.79496 35.724 7.37196 37.148 8.17396 38.735C10.824 43.983 15.257 48.772 21.067 52.663C23.717 54.438 27.939 56.664 29.333 57.022C30.431 57.304 31.626 57.009 32.648 56.205C33.582 55.47 33.937 54.59 34.242 52.256C34.681 48.9 35.469 45.844 36.591 43.148C36.827 42.582 37.09 41.848 37.177 41.517C37.619 39.819 37.071 37.952 35.755 36.672C34.319 35.275 27.326 29.292 26.832 29.038C26.052 28.637 24.704 28.6 23.52 28.947ZM29.12 36.148C31.295 38.048 33.121 39.689 33.177 39.794C33.374 40.162 33.276 40.619 32.647 42.251C31.471 45.305 30.74 48.144 30.343 51.2C30.124 52.891 30.099 53.013 29.97 53.013C29.83 53.013 27.057 51.624 25.973 51.011C24.575 50.219 21.577 48.191 20.32 47.186C18.848 46.008 15.966 43.149 14.904 41.813C13.713 40.313 12.584 38.574 11.794 37.02C11.409 36.262 11.093 35.596 11.093 35.539C11.093 35.478 11.792 35.436 12.827 35.434C15.638 35.429 17.57 35.052 21.834 33.673C24.7 32.746 24.989 32.658 25.089 32.678C25.131 32.687 26.945 34.248 29.12 36.148Z" fill="#222222"/>
</svg>
