<svg width="64" height="64" viewBox="0 0 64 64" fill="none" xmlns="http://www.w3.org/2000/svg">
<path fill-rule="evenodd" clip-rule="evenodd" d="M31.119 8.99896C30.898 9.08196 30.658 9.19496 30.586 9.25196L21.493 16.205C16.565 19.973 12.313 23.287 12.044 23.57C11.481 24.161 11.254 24.798 11.328 25.573C11.421 26.532 12.001 27.361 12.851 27.747C13.261 27.933 14.098 27.942 32 27.942C49.902 27.942 50.739 27.933 51.147 27.747C51.987 27.363 52.58 26.517 52.672 25.573C52.746 24.798 52.519 24.161 51.956 23.57C51.481 23.071 33.963 9.59296 33.218 9.15396C32.741 8.87296 31.669 8.79396 31.119 8.99896ZM39.101 18.621L46.048 23.947L39.024 23.974C35.161 23.989 28.839 23.989 24.976 23.974L17.953 23.947L24.946 18.585C28.792 15.637 31.987 13.24 32.047 13.26C32.106 13.28 35.281 15.692 39.101 18.621ZM21.23 32.162C20.738 32.384 20.499 32.612 20.255 33.089C20.067 33.459 20.053 33.779 20.053 37.962C20.053 40.866 20.093 42.545 20.167 42.74C20.803 44.425 23.39 44.308 23.9 42.572C23.974 42.319 24.002 40.667 23.98 37.76L23.947 33.333L23.699 32.986C23.091 32.133 22.058 31.789 21.23 32.162ZM31.196 32.2C30.711 32.421 30.227 32.94 30.107 33.368C30.063 33.525 30.027 35.645 30.027 38.08V42.507L30.292 42.97C30.652 43.599 31.261 43.947 32 43.947C32.739 43.947 33.348 43.599 33.708 42.97L33.973 42.507V38.08C33.973 35.645 33.937 33.525 33.893 33.368C33.697 32.669 32.774 32.005 32 32.005C31.795 32.005 31.433 32.093 31.196 32.2ZM41.399 32.077C41.018 32.149 40.155 33.063 40.071 33.484C40.032 33.68 40 35.756 40 38.097C40 42.594 40.02 42.798 40.511 43.341C41.01 43.893 42.083 44.108 42.803 43.8C43.219 43.622 43.679 43.148 43.833 42.74C43.907 42.545 43.947 40.866 43.947 37.962C43.947 33.779 43.933 33.459 43.745 33.089C43.303 32.224 42.487 31.871 41.399 32.077ZM15.897 48.169C15.5434 48.315 15.242 48.5641 15.0321 48.884C14.8221 49.2038 14.7134 49.5794 14.72 49.962C14.72 50.807 15.147 51.493 15.863 51.8C16.375 52.019 47.625 52.019 48.137 51.8C48.552 51.622 49.012 51.148 49.167 50.74C49.434 50.033 49.203 48.989 48.674 48.511C48.083 47.976 48.853 48 31.977 48.004C18.229 48.008 16.22 48.028 15.897 48.169Z" fill="#222222"/>
</svg>
