<svg width="64" height="64" viewBox="0 0 64 64" fill="none" xmlns="http://www.w3.org/2000/svg">
<path fill-rule="evenodd" clip-rule="evenodd" d="M31.254 8.16989C30.8073 8.35943 30.4377 8.69416 30.205 9.11989C30.067 9.37389 30.023 9.84189 29.992 11.3869L29.953 13.3329H28.146C26.221 13.3329 25.817 13.4129 25.298 13.8979C24.379 14.7569 24.568 16.3829 25.662 17.0239C26.079 17.2689 26.184 17.2799 28.026 17.2799H29.953L29.99 19.2269C30.025 21.1089 30.036 21.1889 30.31 21.6539C30.482 21.9496 30.7286 22.1951 31.0251 22.3657C31.3217 22.5363 31.6578 22.6261 32 22.6261C32.3421 22.6261 32.6783 22.5363 32.9748 22.3657C33.2714 22.1951 33.518 21.9496 33.69 21.6539C33.964 21.1889 33.975 21.1089 34.01 19.2269L34.047 17.2799H35.974C37.816 17.2799 37.921 17.2689 38.338 17.0239C39.432 16.3829 39.621 14.7569 38.702 13.8979C38.183 13.4129 37.779 13.3329 35.854 13.3329H34.047L34.008 11.3869C33.977 9.84189 33.933 9.37389 33.795 9.11989C33.285 8.18389 32.177 7.76989 31.254 8.16989ZM13.23 13.5019C12.742 13.7139 12.5 13.9419 12.255 14.4219C12.06 14.8059 12.053 15.3619 12.053 32.6389C12.053 47.5339 12.077 50.5169 12.2 50.8029C12.378 51.2189 12.852 51.6789 13.26 51.8329C13.468 51.9119 19.234 51.9469 32.01 51.9469C47.439 51.9469 50.516 51.9229 50.803 51.7999C51.219 51.6219 51.679 51.1479 51.833 50.7399C51.912 50.5319 51.947 44.9529 51.947 32.6289C51.947 15.3619 51.94 14.8059 51.745 14.4219C51.23 13.4139 50.928 13.3329 47.68 13.3329C44.822 13.3329 44.521 13.3789 43.965 13.8979C43.04 14.7619 43.243 16.4189 44.351 17.0409C44.739 17.2589 44.916 17.2799 46.388 17.2799H48V47.9999H34.037L34.005 43.3869C33.971 38.3859 33.98 38.4689 33.369 37.8979C33.042 37.5929 32.412 37.3329 32 37.3329C31.588 37.3329 30.958 37.5929 30.631 37.8979C30.02 38.4689 30.029 38.3859 29.995 43.3869L29.963 47.9999H16V17.2799H17.612C19.084 17.2799 19.261 17.2589 19.649 17.0409C20.757 16.4189 20.96 14.7619 20.035 13.8979C19.477 13.3769 19.181 13.3329 16.297 13.3379C14.138 13.3409 13.526 13.3739 13.23 13.5019ZM23.254 21.5029C22.461 21.8469 22.05 22.4689 22.05 23.3219C22.05 24.4409 22.882 25.2799 23.992 25.2799C25.296 25.2799 26.171 24.2679 25.978 22.9839C25.917 22.5749 25.807 22.3839 25.401 21.9779C24.743 21.3189 24.038 21.1629 23.254 21.5029ZM39.254 21.5029C38.461 21.8469 38.05 22.4689 38.05 23.3219C38.05 24.4409 38.882 25.2799 39.992 25.2799C41.296 25.2799 42.171 24.2679 41.978 22.9839C41.917 22.5749 41.807 22.3839 41.401 21.9779C40.743 21.3189 40.038 21.1629 39.254 21.5029ZM23.254 29.5029C22.461 29.8469 22.05 30.4689 22.05 31.3219C22.05 32.4409 22.882 33.2799 23.992 33.2799C25.296 33.2799 26.171 32.2679 25.978 30.9839C25.917 30.5749 25.807 30.3839 25.401 29.9779C24.743 29.3189 24.038 29.1629 23.254 29.5029ZM31.254 29.5029C30.461 29.8469 30.05 30.4689 30.05 31.3219C30.05 32.4409 30.882 33.2799 31.992 33.2799C33.296 33.2799 34.171 32.2679 33.978 30.9839C33.917 30.5749 33.807 30.3839 33.401 29.9779C32.743 29.3189 32.038 29.1629 31.254 29.5029ZM39.254 29.5029C38.461 29.8469 38.05 30.4689 38.05 31.3219C38.05 32.4409 38.882 33.2799 39.992 33.2799C41.296 33.2799 42.171 32.2679 41.978 30.9839C41.917 30.5749 41.807 30.3839 41.401 29.9779C40.743 29.3189 40.038 29.1629 39.254 29.5029ZM23.254 37.5029C22.461 37.8469 22.05 38.4689 22.05 39.3219C22.05 40.4409 22.882 41.2799 23.992 41.2799C25.296 41.2799 26.171 40.2679 25.978 38.9839C25.917 38.5749 25.807 38.3839 25.401 37.9779C24.743 37.3189 24.038 37.1629 23.254 37.5029ZM39.254 37.5029C38.461 37.8469 38.05 38.4689 38.05 39.3219C38.05 40.4409 38.882 41.2799 39.992 41.2799C41.296 41.2799 42.171 40.2679 41.978 38.9839C41.917 38.5749 41.807 38.3839 41.401 37.9779C40.743 37.3189 40.038 37.1629 39.254 37.5029Z" fill="#222222"/>
</svg>
