<svg width="64" height="64" viewBox="0 0 64 64" fill="none" xmlns="http://www.w3.org/2000/svg">
<path fill-rule="evenodd" clip-rule="evenodd" d="M16 8.75011C14.553 8.83511 13.569 9.04711 12.769 9.44611C10.672 10.4951 9.31799 12.3001 8.84199 14.6791C8.74999 15.1401 8.70499 20.0871 8.67299 33.2971L8.62899 51.2871L6.67999 51.3231C4.77299 51.3591 4.72099 51.3661 4.29799 51.6461C3.65799 52.0701 3.37799 52.5891 3.37799 53.3511C3.37799 53.8741 3.42999 54.0541 3.68899 54.4211C3.85999 54.6631 4.19199 54.9611 4.42699 55.0841L4.85299 55.3071L31.68 55.3351C50.931 55.3551 58.668 55.3301 59.076 55.2451C61.118 54.8231 61.136 51.8611 59.099 51.4251C58.797 51.3601 57.836 51.3071 56.964 51.3071H55.378L55.331 43.6001C55.279 35.0191 55.288 35.1331 54.544 33.6271C53.996 32.5181 53.152 31.6601 48.536 27.5171C43.905 23.3601 43.164 22.7331 42.201 22.1581C39.854 20.7571 36.682 20.9281 34.487 22.5721C34.3 22.7121 34.12 22.8271 34.087 22.8271C34.054 22.8271 34.025 21.7111 34.023 20.3471C34.019 17.2021 33.883 14.8601 33.654 13.9731C33.051 11.6381 31.029 9.61511 28.693 9.01311C28.312 8.91411 27.28 8.79211 26.4 8.74011C24.532 8.63111 17.934 8.63811 16 8.75011ZM28.069 12.9761C28.703 13.2691 29.398 13.9641 29.691 14.5971L29.92 15.0931L29.948 33.2001L29.977 51.3071H12.69L12.718 33.2001L12.747 15.0931L12.976 14.5971C13.392 13.6981 14.262 12.9891 15.181 12.8021C15.426 12.7521 18.315 12.7201 21.6 12.7291C27.468 12.7461 27.582 12.7511 28.069 12.9761ZM39.903 25.4261C40.109 25.5241 40.592 25.8551 40.977 26.1621C41.94 26.9301 48.564 32.8781 49.84 34.1201C51.437 35.6761 51.307 34.8151 51.307 43.7911V51.3071H34.027V28.1781L35.147 27.1901C36.495 26.0011 37.262 25.4451 37.761 25.2931C38.273 25.1381 39.448 25.2111 39.903 25.4261Z" fill="#222222"/>
</svg>
