<svg width="64" height="64" viewBox="0 0 64 64" fill="none" xmlns="http://www.w3.org/2000/svg">
<path fill-rule="evenodd" clip-rule="evenodd" d="M15.874 12.3081C15.078 12.6351 14.502 13.1031 14.052 13.7881C13.335 14.8821 13.389 13.4901 13.358 31.5471L13.329 48.0001H12.155C10.562 48.0001 10.029 48.2261 9.58896 49.0891C9.21996 49.8121 9.34996 50.7591 9.89996 51.3461C10.513 52.0021 8.94996 51.9591 32.012 51.9531C55.003 51.9481 53.499 51.9891 54.1 51.3461C54.65 50.7591 54.78 49.8121 54.411 49.0891C53.971 48.2261 53.438 48.0001 51.843 48.0001H50.667V38.1511C50.667 31.0221 50.632 28.1301 50.541 27.6771C50.309 26.5221 49.185 25.2661 48.008 24.8491C47.738 24.7531 46.517 24.7001 43.819 24.6681L40.012 24.6221L39.976 19.8571C39.937 14.6611 39.954 14.8141 39.281 13.7881C38.832 13.1031 38.256 12.6351 37.459 12.3081L36.853 12.0581H16.48L15.874 12.3081ZM36.053 32.0001V48.0001H28.705L28.673 44.0801L28.64 40.1601L28.357 39.6791C28.1848 39.3834 27.9381 39.138 27.6415 38.9674C27.3448 38.7968 27.0086 38.7071 26.6665 38.7071C26.3243 38.7071 25.9881 38.7968 25.6914 38.9674C25.3948 39.138 25.1481 39.3834 24.976 39.6791L24.693 40.1601L24.661 44.0801L24.628 48.0001H17.28V16.0001H36.053V32.0001ZM22.383 20.2691C21.627 20.6691 21.248 21.4561 21.382 22.3501C21.443 22.7581 21.553 22.9491 21.959 23.3561C22.271 23.6681 22.595 23.8841 22.817 23.9291C23.281 24.0221 30.052 24.0221 30.516 23.9291C30.738 23.8841 31.062 23.6681 31.374 23.3561C31.781 22.9491 31.891 22.7581 31.952 22.3501C32.088 21.4441 31.702 20.6591 30.927 20.2641C30.539 20.0651 30.292 20.0541 26.644 20.0581C23.029 20.0621 22.748 20.0761 22.383 20.2691ZM22.383 28.2691C21.627 28.6691 21.248 29.4561 21.382 30.3501C21.443 30.7581 21.553 30.9491 21.959 31.3561C22.271 31.6681 22.595 31.8841 22.817 31.9291C23.281 32.0221 30.052 32.0221 30.516 31.9291C30.738 31.8841 31.062 31.6681 31.374 31.3561C31.781 30.9491 31.891 30.7581 31.952 30.3501C32.088 29.4441 31.702 28.6591 30.927 28.2641C30.539 28.0651 30.292 28.0541 26.644 28.0581C23.029 28.0621 22.748 28.0761 22.383 28.2691ZM46.72 38.3471V48.0001H40V28.6931H46.72V38.3471Z" fill="#222222"/>
</svg>
