<svg width="64" height="64" viewBox="0 0 64 64" fill="none" xmlns="http://www.w3.org/2000/svg">
<path fill-rule="evenodd" clip-rule="evenodd" d="M16 6.08411C14.553 6.16811 13.569 6.38011 12.769 6.78011C10.672 7.82911 9.31899 9.63111 8.84199 12.0121C8.74899 12.4761 8.70399 17.6921 8.67299 31.9631L8.62899 51.2861L6.67999 51.3231C4.77299 51.3591 4.72099 51.3661 4.29799 51.6461C3.65799 52.0701 3.37799 52.5891 3.37799 53.3511C3.37799 53.8741 3.42999 54.0541 3.68899 54.4211C3.85999 54.6631 4.19199 54.9611 4.42699 55.0841L4.85299 55.3071L31.68 55.3351C50.931 55.3551 58.668 55.3301 59.076 55.2451C60.828 54.8831 61.194 52.5671 59.651 51.6081C59.28 51.3771 59.123 51.3581 57.307 51.3231L55.36 51.2861L55.358 41.0301C55.355 30.5551 55.292 28.2341 54.98 27.2001C54.258 24.8081 52.541 23.0901 50.133 22.3501C49.2 22.0631 45.761 21.9131 43.227 22.0481C41.424 22.1451 41.001 22.2011 40.291 22.4401C39.835 22.5941 39.439 22.7201 39.411 22.7201C39.383 22.7201 39.358 21.0281 39.357 18.9601C39.352 14.6111 39.24 12.2861 38.987 11.3071C38.385 8.97111 36.362 6.94911 34.027 6.34611C33.645 6.24711 32.613 6.12511 31.733 6.07411C29.848 5.96411 17.929 5.97111 16 6.08411ZM33.403 10.3091C34.036 10.6021 34.731 11.2971 35.024 11.9311L35.253 12.4271L35.282 31.8671L35.31 51.3071H12.69L12.718 31.8671L12.747 12.4271L12.976 11.9311C13.392 11.0311 14.264 10.3211 15.181 10.1361C15.426 10.0871 19.515 10.0541 24.267 10.0631C32.864 10.0801 32.909 10.0811 33.403 10.3091ZM18.172 16.7421C16.883 17.0491 16.261 18.6771 17.022 19.7541C17.193 19.9961 17.525 20.2951 17.76 20.4171C18.174 20.6331 18.348 20.6411 23.668 20.6711C27.45 20.6931 29.329 20.6651 29.731 20.5821C31.783 20.1561 31.811 17.1961 29.766 16.7581C29.14 16.6241 18.728 16.6091 18.172 16.7421ZM18.172 24.7421C16.883 25.0491 16.261 26.6771 17.022 27.7541C17.193 27.9961 17.525 28.2951 17.76 28.4171C18.174 28.6331 18.348 28.6411 23.668 28.6711C27.45 28.6931 29.329 28.6651 29.731 28.5821C31.783 28.1561 31.811 25.1961 29.766 24.7581C29.14 24.6241 18.728 24.6091 18.172 24.7421ZM49.403 26.3091C50.036 26.6021 50.731 27.2971 51.024 27.9311L51.253 28.4271L51.282 39.8671L51.311 51.3071H39.36V40.1651C39.36 32.5501 39.397 28.8531 39.476 28.4841C39.7 27.4401 40.631 26.4631 41.675 26.1751C42.058 26.0701 43.029 26.0401 45.547 26.0571C48.733 26.0791 48.932 26.0921 49.403 26.3091Z" fill="#222222"/>
</svg>
