<svg width="64" height="64" viewBox="0 0 64 64" fill="none" xmlns="http://www.w3.org/2000/svg">
<path fill-rule="evenodd" clip-rule="evenodd" d="M24 8.75001C22.068 8.86301 21.016 9.18101 19.793 10.022C18.681 10.787 17.591 12.2 17.187 13.4C16.773 14.627 16.728 15.286 16.67 20.941L16.613 26.468L13.986 28.843C10.739 31.778 9.96699 32.594 9.45299 33.634C8.71099 35.136 8.71999 35.024 8.66899 43.59L8.62299 51.287L6.67699 51.323C4.77299 51.359 4.72099 51.366 4.29799 51.646C3.65799 52.07 3.37799 52.589 3.37799 53.351C3.37799 53.874 3.42999 54.054 3.68899 54.421C3.85999 54.663 4.19199 54.961 4.42699 55.084L4.85299 55.307L31.68 55.335C50.931 55.355 58.668 55.33 59.076 55.245C61.118 54.823 61.136 51.861 59.099 51.425C58.797 51.36 57.832 51.307 56.955 51.307H55.36L55.357 34.587C55.355 25.391 55.311 17.147 55.26 16.267C55.153 14.436 54.961 13.572 54.444 12.584C53.7685 11.2872 52.7103 10.2296 51.413 9.55501C50.428 9.03901 49.562 8.84701 47.733 8.74001C45.837 8.63001 25.926 8.63801 24 8.75001ZM49.403 12.976C50.036 13.269 50.731 13.964 51.024 14.597L51.253 15.093L51.282 33.2L51.31 51.307H42.045L41.998 43.6C41.945 35.019 41.954 35.133 41.21 33.627C40.662 32.518 39.819 31.66 35.203 27.517C30.572 23.36 29.831 22.733 28.867 22.158C26.521 20.757 23.348 20.928 21.154 22.572C20.967 22.712 20.784 22.827 20.747 22.827C20.709 22.827 20.694 21.087 20.713 18.96C20.745 15.267 20.757 15.071 20.976 14.597C21.392 13.697 22.265 12.987 23.181 12.803C23.426 12.754 29.315 12.721 36.267 12.73L48.907 12.747L49.403 12.976ZM26.569 25.426C26.775 25.524 27.259 25.855 27.644 26.162C28.607 26.93 35.23 32.878 36.506 34.12C38.104 35.676 37.973 34.815 37.973 43.791V51.307H12.693V43.791C12.693 34.867 12.581 35.658 14.055 34.215C14.926 33.362 20.844 28.014 22.411 26.665C23.335 25.869 23.984 25.428 24.434 25.291C24.94 25.137 26.117 25.212 26.569 25.426Z" fill="#222222"/>
</svg>
