<svg width="64" height="64" viewBox="0 0 64 64" fill="none" xmlns="http://www.w3.org/2000/svg">
<path fill-rule="evenodd" clip-rule="evenodd" d="M15.544 12.3121C15.0224 12.5217 14.5492 12.8359 14.1535 13.2352C13.7578 13.6345 13.4479 14.1106 13.243 14.6341C13.082 15.0531 13.064 16.5481 13.039 31.5471L13.011 48L11.812 48.002C10.873 48.004 10.518 48.048 10.174 48.204C9.54002 48.492 9.14702 49.056 9.08902 49.7631C9.02602 50.514 9.10602 50.7961 9.51102 51.257C10.179 52.0181 8.22602 51.9541 31.55 51.9781C48.674 51.9961 52.714 51.974 53.033 51.861C53.544 51.68 54.155 50.9981 54.247 50.5061C54.428 49.542 54.002 48.6141 53.2 48.2261C52.81 48.0371 52.537 48 51.546 48H50.359L50.325 42.6931C50.291 37.4761 50.286 37.3771 50.05 36.7891C49.537 35.5141 49.243 35.227 45.278 32.135C43.226 30.535 41.271 29.046 40.934 28.826L40.322 28.427L40.321 21.7811C40.32 17.1281 40.283 14.9841 40.197 14.6341C40.043 14.0061 39.47 13.1231 38.97 12.7411C38.76 12.5811 38.353 12.3611 38.066 12.2521C37.57 12.0631 37.019 12.0531 26.852 12.0561L16.16 12.058L15.544 12.3121ZM36.373 22.182V28.3631L35.867 28.709C34.692 29.51 27.815 34.9291 27.487 35.3111C27.058 35.8131 26.607 36.705 26.46 37.3461C26.395 37.625 26.351 39.8641 26.349 42.9071L26.347 48H16.96V16.0001H36.373V22.182ZM22.133 20.2211C21.069 20.7751 20.691 22.133 21.337 23.0771C22.398 24.626 24.786 24.0681 24.938 22.2371C24.964 21.9221 24.955 21.542 24.918 21.394C24.832 21.051 24.272 20.4091 23.883 20.2081C23.49 20.0051 22.536 20.0121 22.133 20.2211ZM29.493 20.2051C28.129 20.8131 27.977 22.8121 29.231 23.6421C30.754 24.6501 32.619 23.3361 32.275 21.498C32.187 21.034 31.648 20.3941 31.178 20.1971C30.742 20.0151 29.91 20.0191 29.493 20.2051ZM22.133 28.2211C21.069 28.7751 20.691 30.133 21.337 31.077C22.398 32.626 24.786 32.068 24.938 30.237C24.964 29.922 24.955 29.542 24.918 29.394C24.832 29.051 24.272 28.409 23.883 28.208C23.49 28.005 22.536 28.0121 22.133 28.2211ZM42.261 34.836C44.273 36.395 46.004 37.7681 46.107 37.8871C46.279 38.0871 46.293 38.493 46.293 43.052V48H40.32L40.318 44.133C40.316 40.588 40.299 40.23 40.116 39.828C39.594 38.678 38.002 38.34 37.048 39.177C36.377 39.767 36.373 39.792 36.373 44.1031V48H30.293V43.2071C30.293 40.4641 30.336 38.301 30.394 38.149C30.456 37.987 31.86 36.8241 34.047 35.1231C38.176 31.9131 38.057 32 38.365 32C38.512 32 39.986 33.073 42.261 34.836Z" fill="#222222"/>
</svg>
