<svg width="64" height="64" viewBox="0 0 64 64" fill="none" xmlns="http://www.w3.org/2000/svg">
<path fill-rule="evenodd" clip-rule="evenodd" d="M31.307 11.7319C31.072 11.7819 30.742 11.8749 30.573 11.9399C30.162 12.0989 15.199 21.0719 14.704 21.4579C14.49 21.6239 14.17 21.9879 13.994 22.2669C13.302 23.3569 13.333 22.6929 13.333 36.1109C13.333 43.7949 13.373 48.4989 13.44 48.8539C13.665 50.0379 14.491 51.1089 15.573 51.6169L16.16 51.8929H47.84L48.427 51.6169C49.509 51.1089 50.335 50.0379 50.56 48.8539C50.627 48.4989 50.667 43.7949 50.667 36.1109C50.667 22.6929 50.698 23.3569 50.006 22.2669C49.8093 21.9646 49.5702 21.6921 49.296 21.4579C48.674 20.9739 33.757 12.0619 33.296 11.8989C32.728 11.6979 31.822 11.6219 31.307 11.7319ZM39.29 20.0159C43.171 22.3419 46.431 24.3169 46.533 24.4049C46.709 24.5569 46.72 25.2569 46.72 36.2829V47.9999H17.28V36.2799C17.28 25.5689 17.295 24.5469 17.454 24.4149C17.955 23.9989 31.968 15.6869 32.09 15.7339C32.17 15.7629 35.41 17.6909 39.29 20.0159ZM25.506 30.0779C25.053 30.1879 24.654 30.4809 24.349 30.9279C23.514 32.1549 24.317 33.7879 25.845 33.9729C26.15 34.0099 29.136 34.0249 32.48 34.0069C39.093 33.9699 38.853 33.9919 39.435 33.3689C39.74 33.0419 40 32.4119 40 31.9999C40 31.3199 39.526 30.5589 38.88 30.2029C38.593 30.0449 37.898 30.0249 32.213 30.0089C28.723 29.9989 25.705 30.0299 25.506 30.0779ZM25.506 38.0779C25.053 38.1879 24.654 38.4809 24.349 38.9279C23.514 40.1549 24.317 41.7879 25.845 41.9729C26.15 42.0099 29.136 42.0249 32.48 42.0069C39.093 41.9699 38.853 41.9919 39.435 41.3689C39.74 41.0419 40 40.4119 40 39.9999C40 39.3199 39.526 38.5589 38.88 38.2029C38.593 38.0449 37.898 38.0249 32.213 38.0089C28.723 37.9989 25.705 38.0299 25.506 38.0779Z" fill="#222222"/>
</svg>
