<svg width="64" height="64" viewBox="0 0 64 64" fill="none" xmlns="http://www.w3.org/2000/svg">
<path fill-rule="evenodd" clip-rule="evenodd" d="M30.6131 6.08703C22.6941 6.66303 15.9771 12.578 14.4011 20.362C13.6291 24.177 14.0871 28.149 15.6951 31.568C16.2881 32.831 16.2071 32.698 18.8801 36.8C19.9701 38.472 21.0931 40.238 21.3771 40.724L21.8921 41.609L21.9831 43.924C22.0411 45.409 22.1291 46.418 22.2281 46.735C22.5501 47.763 23.3361 48.737 24.3201 49.325C25.4091 49.975 25.3831 49.973 32.0001 49.973C38.6171 49.973 38.5911 49.975 39.6801 49.325C40.6641 48.737 41.4501 47.763 41.7721 46.735C41.8711 46.418 41.9591 45.409 42.0171 43.924L42.1081 41.609L42.6221 40.724C42.9051 40.238 44.0291 38.472 45.1191 36.8C47.7861 32.709 47.7091 32.835 48.3121 31.558C48.8821 30.349 49.4981 28.446 49.6971 27.28C50.1961 24.348 49.9541 20.979 49.0501 18.293C46.4231 10.484 38.8751 5.48603 30.6131 6.08703ZM34.8801 10.291C36.5061 10.654 38.4271 11.457 39.7151 12.312C41.1101 13.238 42.7621 14.89 43.6881 16.285C44.5441 17.576 45.3491 19.501 45.7081 21.12C45.9761 22.328 46.0361 24.897 45.8281 26.215C45.6101 27.59 45.1481 29.029 44.5481 30.205C44.2881 30.714 43.0931 32.634 41.8911 34.472C39.4861 38.15 38.5861 39.673 38.3391 40.48C38.2381 40.812 38.1321 41.881 38.0581 43.307C37.9681 45.059 37.9021 45.644 37.7801 45.787C37.6321 45.96 37.2211 45.973 32.0001 45.973C26.7791 45.973 26.3681 45.96 26.2201 45.787C26.0981 45.644 26.0321 45.059 25.9421 43.307C25.8681 41.881 25.7621 40.812 25.6611 40.48C25.4151 39.674 24.5151 38.153 22.1121 34.478C20.9121 32.643 19.7161 30.723 19.4551 30.211C18.8268 28.952 18.3942 27.6045 18.1721 26.215C17.9641 24.897 18.0241 22.328 18.2921 21.12C18.6511 19.501 19.4561 17.576 20.3121 16.285C21.2381 14.89 22.8901 13.238 24.2851 12.312C25.6361 11.416 27.6161 10.603 29.1731 10.305C29.6431 10.215 30.1231 10.119 30.2401 10.091C30.7351 9.97203 34.1051 10.117 34.8801 10.291ZM23.5061 54.075C22.2161 54.383 21.5951 56.01 22.3561 57.087C22.5271 57.329 22.8591 57.628 23.0931 57.751C23.5141 57.97 23.6411 57.974 31.6741 58.003C37.3861 58.024 40.0011 57.997 40.4041 57.914C42.4061 57.498 42.4821 54.595 40.5031 54.097C39.9451 53.956 24.0881 53.936 23.5061 54.075Z" fill="#222222"/>
</svg>
