<svg width="64" height="64" viewBox="0 0 64 64" fill="none" xmlns="http://www.w3.org/2000/svg">
<path fill-rule="evenodd" clip-rule="evenodd" d="M15.874 12.308C15.078 12.635 14.502 13.103 14.052 13.788C13.335 14.882 13.389 13.49 13.358 31.547L13.329 48H12.155C10.562 48 10.029 48.226 9.58896 49.089C9.21996 49.812 9.34996 50.759 9.89996 51.346C10.507 51.995 8.97196 51.953 32.005 51.951C55.007 51.949 53.498 51.99 54.1 51.346C54.65 50.759 54.78 49.812 54.411 49.089C53.971 48.226 53.438 48 51.845 48H50.671L50.642 37.467C50.614 26.999 50.612 26.93 50.388 26.446C50.103 25.831 49.474 25.207 48.853 24.926C48.447 24.742 48.091 24.701 46.54 24.661L44.707 24.613L44.669 19.693C44.634 15.276 44.611 14.722 44.439 14.267C44.161 13.535 43.384 12.721 42.616 12.357L41.973 12.054L29.227 12.056L16.48 12.058L15.874 12.308ZM40.64 20.311V24.621L37.467 24.659C34.508 24.693 34.26 24.711 33.804 24.921C33.18 25.208 32.569 25.818 32.28 26.444C32.054 26.931 32.053 26.985 32.025 37.467L31.996 48H17.28V16H40.64V20.311ZM22.383 20.269C21.627 20.669 21.248 21.456 21.382 22.35C21.443 22.76 21.553 22.949 21.968 23.365C22.384 23.781 22.573 23.89 22.984 23.952C24.258 24.143 25.31 23.268 25.31 22.017C25.31 20.881 24.478 20.049 23.351 20.058C22.994 20.061 22.624 20.141 22.383 20.269ZM22.383 28.269C21.627 28.669 21.248 29.456 21.382 30.35C21.443 30.76 21.553 30.949 21.968 31.365C22.384 31.781 22.573 31.89 22.984 31.952C24.258 32.143 25.31 31.268 25.31 30.017C25.31 28.881 24.478 28.049 23.351 28.058C22.994 28.061 22.624 28.141 22.383 28.269ZM46.72 38.347V48H43.314L43.284 43.956L43.253 39.913L42.926 39.503C42.498 38.968 41.994 38.72 41.333 38.72C40.673 38.72 40.169 38.968 39.741 39.503L39.413 39.913L39.383 43.956L39.353 48H35.947V28.693H46.72V38.347ZM22.383 36.269C21.627 36.669 21.248 37.456 21.382 38.35C21.443 38.76 21.553 38.949 21.968 39.365C22.384 39.781 22.573 39.89 22.984 39.952C24.258 40.143 25.31 39.268 25.31 38.017C25.31 36.881 24.478 36.049 23.351 36.058C22.994 36.061 22.624 36.141 22.383 36.269Z" fill="#222222"/>
</svg>
