<svg width="64" height="64" viewBox="0 0 64 64" fill="none" xmlns="http://www.w3.org/2000/svg">
<path fill-rule="evenodd" clip-rule="evenodd" d="M20.8391 3.405C20.3681 3.522 19.8971 3.883 19.6081 4.349C19.3771 4.72 19.3581 4.877 19.3231 6.675L19.2871 8.603L16.9231 8.723C14.4331 8.85 13.7141 8.978 12.7521 9.463C10.6431 10.528 9.31411 12.301 8.84311 14.679C8.67311 15.537 8.57911 44.786 8.73811 47.52C8.85511 49.539 9.01411 50.359 9.46311 51.248C10.5281 53.357 12.3011 54.686 14.6791 55.157C15.1321 55.247 19.5121 55.294 30.4531 55.327C45.9481 55.375 48.7931 55.324 50.0801 54.979C52.3571 54.369 54.3691 52.357 54.9791 50.08C55.3241 48.793 55.3751 45.948 55.3271 30.453C55.2941 19.512 55.2471 15.132 55.1571 14.679C54.6861 12.301 53.3571 10.528 51.2481 9.463C50.2851 8.977 49.5671 8.85 47.0671 8.723L44.6931 8.602V7.026C44.6931 5.017 44.5821 4.475 44.0591 3.952C43.1271 3.02 41.6501 3.208 40.9411 4.349C40.7101 4.72 40.6911 4.877 40.6561 6.693L40.6201 8.64H23.3601L23.3571 7.013C23.3541 5.2 23.2541 4.588 22.8801 4.097C22.4551 3.54 21.5431 3.23 20.8391 3.405ZM49.4031 12.976C50.0391 13.27 50.7331 13.966 51.0201 14.597C51.2201 15.036 51.2511 15.337 51.2871 17.2L51.3291 19.307H12.6711L12.7131 17.2C12.7601 14.802 12.8501 14.456 13.6371 13.67C14.1421 13.164 14.5661 12.927 15.1811 12.804C15.4261 12.755 23.1151 12.722 32.2671 12.731L48.9071 12.747L49.4031 12.976ZM51.2831 36.133L51.2531 48.907L51.0241 49.403C50.7311 50.036 50.0361 50.731 49.4031 51.024L48.9071 51.253H15.0931L14.5971 51.024C13.9641 50.731 13.2691 50.036 12.9761 49.403L12.7471 48.907L12.7171 36.133L12.6881 23.36H51.3121L51.2831 36.133ZM25.1201 35.357C24.989 35.3968 24.8562 35.4308 24.7221 35.459C24.3311 35.545 23.6821 36.129 23.5041 36.555C23.3443 36.9377 23.31 37.3612 23.4061 37.7646C23.5023 38.168 23.7239 38.5305 24.0391 38.8C24.2551 38.989 24.5621 39.18 24.7221 39.225C25.1021 39.332 38.8981 39.332 39.2781 39.225C39.6821 39.112 40.3231 38.526 40.4961 38.112C40.7911 37.405 40.6431 36.563 40.1271 36.017C39.4721 35.326 39.8951 35.362 32.2131 35.34C28.3711 35.329 25.1791 35.337 25.1201 35.357Z" fill="#222222"/>
</svg>
