<svg width="64" height="64" viewBox="0 0 64 64" fill="none" xmlns="http://www.w3.org/2000/svg">
<path fill-rule="evenodd" clip-rule="evenodd" d="M20.8391 3.405C20.3681 3.522 19.8971 3.883 19.6081 4.349C19.3771 4.72 19.3581 4.877 19.3231 6.675L19.2871 8.603L16.9231 8.723C14.4331 8.85 13.7141 8.978 12.7521 9.463C10.6431 10.528 9.31411 12.301 8.84311 14.679C8.67311 15.537 8.57911 44.786 8.73811 47.52C8.85511 49.539 9.01411 50.359 9.46311 51.248C10.5281 53.357 12.3011 54.686 14.6791 55.157C15.1321 55.247 19.5121 55.294 30.4531 55.327C45.9481 55.375 48.7931 55.324 50.0801 54.979C52.3571 54.369 54.3691 52.357 54.9791 50.08C55.3241 48.793 55.3751 45.948 55.3271 30.453C55.2941 19.512 55.2471 15.132 55.1571 14.679C54.6861 12.301 53.3571 10.528 51.2481 9.463C50.2851 8.977 49.5671 8.85 47.0671 8.723L44.6931 8.602V7.026C44.6931 5.017 44.5821 4.475 44.0591 3.952C43.1271 3.02 41.6501 3.208 40.9411 4.349C40.7101 4.72 40.6911 4.877 40.6561 6.693L40.6201 8.64H23.3601L23.3571 7.013C23.3541 5.2 23.2541 4.588 22.8801 4.097C22.4551 3.54 21.5431 3.23 20.8391 3.405ZM49.4031 12.976C50.0391 13.27 50.7331 13.966 51.0201 14.597C51.2201 15.036 51.2511 15.337 51.2871 17.2L51.3291 19.307H12.6711L12.7131 17.2C12.7601 14.802 12.8501 14.456 13.6371 13.67C14.1421 13.164 14.5661 12.927 15.1811 12.804C15.4261 12.755 23.1151 12.722 32.2671 12.731L48.9071 12.747L49.4031 12.976ZM51.2831 36.133L51.2531 48.907L51.0241 49.403C50.7311 50.036 50.0361 50.731 49.4031 51.024L48.9071 51.253H15.0931L14.5971 51.024C13.9641 50.731 13.2691 50.036 12.9761 49.403L12.7471 48.907L12.7171 36.133L12.6881 23.36H51.3121L51.2831 36.133ZM28.4321 26.196C25.4261 26.869 22.9271 29.326 22.2271 32.295C21.9791 33.349 22.0061 35.243 22.2841 36.32C22.8691 38.579 24.4681 40.528 26.6131 41.595C27.8051 42.188 28.6961 42.382 30.2401 42.384C31.6661 42.386 32.7391 42.153 33.8131 41.608L34.4001 41.31L36.6031 43.483C37.9241 44.786 38.9581 45.719 39.1861 45.814C40.1811 46.23 41.2791 45.825 41.7851 44.856C42.0081 44.429 41.9961 43.55 41.7611 43.091C41.6571 42.887 40.6141 41.754 39.4441 40.573L37.3171 38.426L37.5801 37.906C38.6231 35.844 38.6731 32.949 37.7011 30.845C36.6751 28.626 34.9211 27.084 32.5871 26.349C31.5851 26.034 29.4971 25.957 28.4321 26.196ZM30.9891 30.09C33.7441 30.599 35.2351 33.635 33.9701 36.16C33.6481 36.804 32.7771 37.656 32.0811 38.008C30.7361 38.688 28.8831 38.509 27.6621 37.58C27.0781 37.136 26.3851 36.132 26.1821 35.438C25.9241 34.554 26.0061 33.31 26.3741 32.506C26.9121 31.332 28.1501 30.323 29.3391 30.09C30.0121 29.958 30.2771 29.958 30.9891 30.09Z" fill="#222222"/>
</svg>
