<svg width="64" height="64" viewBox="0 0 64 64" fill="none" xmlns="http://www.w3.org/2000/svg">
<path fill-rule="evenodd" clip-rule="evenodd" d="M20.839 3.405C20.368 3.522 19.897 3.883 19.608 4.349C19.377 4.72 19.358 4.877 19.323 6.675L19.287 8.603L16.923 8.723C14.433 8.85 13.714 8.978 12.752 9.463C10.643 10.528 9.31398 12.301 8.84298 14.679C8.67298 15.537 8.57898 44.786 8.73798 47.52C8.85498 49.539 9.01398 50.359 9.46298 51.248C10.528 53.357 12.301 54.686 14.679 55.157C15.132 55.247 19.512 55.294 30.453 55.327C45.948 55.375 48.793 55.324 50.08 54.979C52.357 54.369 54.369 52.357 54.979 50.08C55.324 48.793 55.375 45.948 55.327 30.453C55.294 19.512 55.247 15.132 55.157 14.679C54.686 12.301 53.357 10.528 51.248 9.463C50.285 8.977 49.567 8.85 47.067 8.723L44.693 8.602V7.026C44.693 5.017 44.582 4.475 44.059 3.952C43.127 3.02 41.65 3.208 40.941 4.349C40.71 4.72 40.691 4.877 40.656 6.693L40.62 8.64H23.36L23.357 7.013C23.354 5.2 23.254 4.588 22.88 4.097C22.455 3.54 21.543 3.23 20.839 3.405ZM49.403 12.976C50.039 13.27 50.733 13.966 51.02 14.597C51.22 15.036 51.251 15.337 51.287 17.2L51.329 19.307H12.671L12.713 17.2C12.76 14.802 12.85 14.456 13.637 13.67C14.142 13.164 14.566 12.927 15.181 12.804C15.426 12.755 23.115 12.722 32.267 12.731L48.907 12.747L49.403 12.976ZM51.283 36.133L51.253 48.907L51.024 49.403C50.731 50.036 50.036 50.731 49.403 51.024L48.907 51.253H15.093L14.597 51.024C13.964 50.731 13.269 50.036 12.976 49.403L12.747 48.907L12.717 36.133L12.688 23.36H51.312L51.283 36.133ZM29.328 28.365C28.82 28.698 22.714 34.428 22.375 34.888C21.932 35.49 21.932 36.51 22.375 37.112C22.714 37.572 28.82 43.302 29.328 43.635C30.642 44.499 32.35 43.567 32.35 41.986C32.35 41.68 32.293 41.312 32.222 41.168C32.152 41.024 31.413 40.248 30.58 39.443L29.067 37.98L34.74 37.977C38.481 37.974 40.515 37.935 40.713 37.86C41.439 37.585 41.95 36.817 41.95 36C41.95 35.183 41.439 34.415 40.713 34.14C40.515 34.065 38.481 34.026 34.74 34.023L29.067 34.02L30.58 32.557C31.413 31.752 32.152 30.976 32.222 30.832C32.293 30.688 32.35 30.32 32.35 30.014C32.35 28.433 30.642 27.501 29.328 28.365Z" fill="#222222"/>
</svg>
