<svg width="64" height="64" viewBox="0 0 64 64" fill="none" xmlns="http://www.w3.org/2000/svg">
<path fill-rule="evenodd" clip-rule="evenodd" d="M20.839 3.40601C20.369 3.52101 19.897 3.88201 19.608 4.34901C19.377 4.72001 19.358 4.87701 19.323 6.67501L19.287 8.60301L16.923 8.72301C14.433 8.85001 13.714 8.97801 12.752 9.46301C10.643 10.528 9.31398 12.301 8.84298 14.679C8.67298 15.537 8.57898 44.786 8.73798 47.52C8.85498 49.539 9.01398 50.359 9.46298 51.248C10.528 53.357 12.301 54.686 14.679 55.157C15.132 55.247 19.512 55.294 30.453 55.327C45.948 55.375 48.793 55.324 50.08 54.979C52.357 54.369 54.369 52.357 54.979 50.08C55.324 48.793 55.375 45.948 55.327 30.453C55.294 19.512 55.247 15.132 55.157 14.679C54.686 12.301 53.357 10.528 51.248 9.46301C50.286 8.97801 49.567 8.85001 47.077 8.72301L44.713 8.60301L44.677 6.72801C44.635 4.57601 44.532 4.23901 43.754 3.68901C43.388 3.43001 43.208 3.37801 42.685 3.37801C41.923 3.37801 41.403 3.65801 40.979 4.29801C40.699 4.72101 40.693 4.77201 40.656 6.68501L40.62 8.64001H23.381L23.344 6.74701C23.311 5.07801 23.28 4.80301 23.084 4.42701C22.676 3.64501 21.69 3.19701 20.839 3.40601ZM49.403 12.976C50.039 13.27 50.733 13.966 51.02 14.597C51.22 15.036 51.251 15.337 51.287 17.2L51.329 19.307H12.671L12.713 17.2C12.76 14.802 12.85 14.456 13.637 13.67C14.142 13.164 14.566 12.927 15.181 12.804C15.426 12.755 23.115 12.722 32.267 12.731L48.907 12.747L49.403 12.976ZM51.283 36.133L51.253 48.907L51.024 49.403C50.731 50.036 50.036 50.731 49.403 51.024L48.907 51.253H15.093L14.597 51.024C13.964 50.731 13.269 50.036 12.976 49.403L12.747 48.907L12.717 36.133L12.688 23.36H51.312L51.283 36.133ZM31.253 28.813C30.908 28.95 30.428 29.408 30.204 29.813C30.056 30.081 30.021 30.554 29.992 32.712L29.957 35.29L27.378 35.325C24.573 35.363 24.474 35.383 23.873 36.017C23.5368 36.3729 23.3494 36.8439 23.3494 37.3335C23.3494 37.8231 23.5368 38.2941 23.873 38.65C24.474 39.284 24.573 39.304 27.378 39.342L29.957 39.376L29.992 41.955C30.03 44.76 30.049 44.86 30.684 45.46C31.06 45.815 31.464 45.973 32 45.973C32.536 45.973 32.94 45.815 33.316 45.46C33.951 44.86 33.97 44.76 34.008 41.955L34.043 39.376L36.622 39.342C39.427 39.304 39.526 39.284 40.127 38.65C40.482 38.274 40.64 37.869 40.64 37.333C40.64 36.798 40.482 36.393 40.127 36.017C39.526 35.383 39.427 35.363 36.622 35.325L34.043 35.29L34.008 32.712C33.979 30.554 33.944 30.081 33.796 29.813C33.562 29.39 33.085 28.947 32.713 28.807C32.344 28.667 31.612 28.67 31.253 28.813Z" fill="#222222"/>
</svg>
