<svg width="64" height="64" viewBox="0 0 64 64" fill="none" xmlns="http://www.w3.org/2000/svg">
<path fill-rule="evenodd" clip-rule="evenodd" d="M20.8391 3.40601C20.3691 3.52101 19.8971 3.88201 19.6081 4.34901C19.3771 4.72001 19.3581 4.87701 19.3231 6.68001L19.2871 8.61401L17.3501 8.68701C14.3311 8.80201 13.3541 9.01801 12.0601 9.85601C10.3311 10.975 9.25811 12.583 8.84311 14.679C8.67311 15.537 8.57911 44.786 8.73811 47.52C8.85511 49.539 9.01411 50.359 9.46311 51.248C10.5281 53.357 12.3011 54.686 14.6791 55.157C15.1321 55.247 19.5121 55.294 30.4531 55.327C45.9481 55.375 48.7931 55.324 50.0801 54.979C52.3571 54.369 54.3691 52.357 54.9791 50.08C55.3241 48.793 55.3751 45.948 55.3271 30.453C55.2941 19.512 55.2471 15.132 55.1571 14.679C54.6861 12.301 53.3571 10.528 51.2481 9.46301C50.2861 8.97801 49.5671 8.85001 47.0771 8.72301L44.7131 8.60301L44.6771 6.72801C44.6351 4.57601 44.5321 4.23901 43.7541 3.68901C43.3881 3.43001 43.2081 3.37801 42.6851 3.37801C41.9231 3.37801 41.4031 3.65801 40.9791 4.29801C40.6991 4.72101 40.6931 4.77201 40.6561 6.68501L40.6201 8.64001H23.3811L23.3441 6.74701C23.3111 5.07801 23.2801 4.80301 23.0841 4.42701C22.6761 3.64501 21.6901 3.19701 20.8391 3.40601ZM49.4031 12.976C50.0391 13.27 50.7331 13.966 51.0201 14.597C51.2201 15.036 51.2511 15.337 51.2871 17.2L51.3291 19.307H12.6711L12.7131 17.2C12.7601 14.802 12.8501 14.456 13.6371 13.67C14.1421 13.164 14.5661 12.927 15.1811 12.804C15.4261 12.755 23.1151 12.722 32.2671 12.731L48.9071 12.747L49.4031 12.976ZM51.2831 36.133L51.2531 48.907L51.0241 49.403C50.7311 50.036 50.0361 50.731 49.4031 51.024L48.9071 51.253H15.0931L14.5971 51.024C13.9641 50.731 13.2691 50.036 12.9761 49.403L12.7471 48.907L12.7171 36.133L12.6881 23.36H51.3121L51.2831 36.133ZM21.4751 30.082C20.8481 30.21 20.4691 30.428 20.0321 30.912C19.3561 31.66 19.3601 31.621 19.3601 37.333C19.3601 43.207 19.3521 43.141 20.2011 43.924C20.9881 44.65 20.9011 44.64 26.7201 44.64C32.5381 44.64 32.3031 44.667 33.1551 43.897C33.9771 43.154 33.9731 43.187 33.9731 37.333C33.9731 33.224 33.9431 32.075 33.8271 31.746C33.6281 31.183 33.0071 30.519 32.4271 30.25C31.9631 30.034 31.7741 30.026 26.9331 30.009C24.1761 29.999 21.7201 30.032 21.4751 30.082ZM29.9731 37.333V40.64H23.3601V34.027H29.9731V37.333Z" fill="#222222"/>
</svg>
