<svg width="64" height="64" viewBox="0 0 64 64" fill="none" xmlns="http://www.w3.org/2000/svg">
<path fill-rule="evenodd" clip-rule="evenodd" d="M20.839 3.405C20.368 3.522 19.897 3.883 19.608 4.349C19.377 4.72 19.358 4.877 19.323 6.675L19.287 8.603L16.923 8.723C14.433 8.85 13.714 8.978 12.752 9.463C10.643 10.528 9.31398 12.301 8.84298 14.679C8.67298 15.537 8.57898 44.786 8.73798 47.52C8.85498 49.539 9.01398 50.359 9.46298 51.248C10.528 53.357 12.301 54.686 14.679 55.157C15.132 55.247 19.512 55.294 30.453 55.327C45.948 55.375 48.793 55.324 50.08 54.979C52.357 54.369 54.369 52.357 54.979 50.08C55.324 48.793 55.375 45.948 55.327 30.453C55.294 19.512 55.247 15.132 55.157 14.679C54.686 12.301 53.357 10.528 51.248 9.463C50.285 8.977 49.567 8.85 47.067 8.723L44.693 8.602V7.026C44.693 5.017 44.582 4.475 44.059 3.952C43.127 3.02 41.65 3.208 40.941 4.349C40.71 4.72 40.691 4.877 40.656 6.693L40.62 8.64H23.36L23.357 7.013C23.354 5.2 23.254 4.588 22.88 4.097C22.455 3.54 21.543 3.23 20.839 3.405ZM49.403 12.976C50.039 13.27 50.733 13.966 51.02 14.597C51.22 15.036 51.251 15.337 51.287 17.2L51.329 19.307H12.671L12.713 17.2C12.76 14.802 12.85 14.456 13.637 13.67C14.142 13.164 14.566 12.927 15.181 12.804C15.426 12.755 23.115 12.722 32.267 12.731L48.907 12.747L49.403 12.976ZM51.283 36.133L51.253 48.907L51.024 49.403C50.731 50.036 50.036 50.731 49.403 51.024L48.907 51.253H15.093L14.597 51.024C13.964 50.731 13.269 50.036 12.976 49.403L12.747 48.907L12.717 36.133L12.688 23.36H51.312L51.283 36.133ZM26.172 30.073C25.705 30.187 25.231 30.549 24.95 31.003C24.674 31.449 24.622 32.415 24.849 32.854C24.925 33 25.927 34.068 27.076 35.227L29.166 37.333L27.076 39.44C25.927 40.599 24.925 41.666 24.849 41.813C24.773 41.959 24.711 42.349 24.711 42.678C24.711 43.996 25.82 44.846 27.17 44.561C27.643 44.462 27.838 44.297 29.84 42.313L32 40.171L34.16 42.313C36.156 44.292 36.358 44.462 36.827 44.561C38.371 44.886 39.553 43.704 39.227 42.16C39.129 41.692 38.958 41.49 36.979 39.493L34.838 37.333L36.979 35.173C38.964 33.172 39.128 32.976 39.228 32.503C39.513 31.153 38.663 30.044 37.345 30.044C37.015 30.044 36.626 30.106 36.48 30.182C36.333 30.258 35.265 31.26 34.107 32.41L32 34.5L29.893 32.41C28.735 31.26 27.691 30.272 27.573 30.212C27.252 30.05 26.549 29.98 26.172 30.073Z" fill="#222222"/>
</svg>
