<svg width="64" height="64" viewBox="0 0 64 64" fill="none" xmlns="http://www.w3.org/2000/svg">
<path fill-rule="evenodd" clip-rule="evenodd" d="M20.839 3.405C20.368 3.522 19.897 3.883 19.608 4.349C19.377 4.72 19.358 4.877 19.323 6.675L19.287 8.603L16.923 8.723C14.433 8.85 13.714 8.978 12.752 9.463C10.643 10.528 9.31398 12.301 8.84298 14.679C8.67298 15.537 8.57898 44.786 8.73798 47.52C8.85498 49.539 9.01398 50.359 9.46298 51.248C10.528 53.357 12.301 54.686 14.679 55.157C15.132 55.247 19.512 55.294 30.453 55.327C45.948 55.375 48.793 55.324 50.08 54.979C52.357 54.369 54.369 52.357 54.979 50.08C55.324 48.793 55.375 45.948 55.327 30.453C55.294 19.512 55.247 15.132 55.157 14.679C54.686 12.301 53.357 10.528 51.248 9.463C50.285 8.977 49.567 8.85 47.067 8.723L44.693 8.602V7.026C44.693 5.017 44.582 4.475 44.059 3.952C43.127 3.02 41.65 3.208 40.941 4.349C40.71 4.72 40.691 4.877 40.656 6.693L40.62 8.64H23.36L23.357 7.013C23.354 5.2 23.254 4.588 22.88 4.097C22.455 3.54 21.543 3.23 20.839 3.405ZM49.403 12.976C50.039 13.27 50.733 13.966 51.02 14.597C51.22 15.036 51.251 15.337 51.287 17.2L51.329 19.307H12.671L12.713 17.2C12.76 14.802 12.85 14.456 13.637 13.67C14.142 13.164 14.566 12.927 15.181 12.804C15.426 12.755 23.115 12.722 32.267 12.731L48.907 12.747L49.403 12.976ZM51.283 36.133L51.253 48.907L51.024 49.403C50.731 50.036 50.036 50.731 49.403 51.024L48.907 51.253H15.093L14.597 51.024C13.964 50.731 13.269 50.036 12.976 49.403L12.747 48.907L12.717 36.133L12.688 23.36H51.312L51.283 36.133ZM32.584 28.312C32.006 28.659 31.65 29.31 31.65 30.02C31.65 30.323 31.707 30.688 31.778 30.832C31.848 30.976 32.587 31.752 33.42 32.557L34.933 34.02L29.26 34.023C25.519 34.026 23.485 34.065 23.287 34.14C22.561 34.415 22.05 35.183 22.05 36C22.05 36.817 22.561 37.585 23.287 37.86C23.485 37.935 25.519 37.974 29.26 37.977L34.933 37.98L33.42 39.443C32.587 40.248 31.848 41.024 31.778 41.168C31.707 41.312 31.65 41.68 31.65 41.986C31.65 43.567 33.358 44.499 34.672 43.635C35.18 43.302 41.286 37.572 41.625 37.112C42.068 36.51 42.068 35.49 41.625 34.888C41.286 34.428 35.18 28.698 34.672 28.365C34.3635 28.1624 34.0045 28.0501 33.6355 28.0408C33.2666 28.0314 32.9024 28.1254 32.584 28.312Z" fill="#222222"/>
</svg>
