<svg width="64" height="64" viewBox="0 0 64 64" fill="none" xmlns="http://www.w3.org/2000/svg">
<path fill-rule="evenodd" clip-rule="evenodd" d="M5.40596 8.10806C4.94296 8.24706 4.42296 8.69406 4.21696 9.12806C3.97096 9.64606 4.03196 10.6551 4.33396 11.0681C4.45096 11.2291 6.13296 12.7521 8.07096 14.4531L11.595 17.5471L9.61096 17.6141C8.19996 17.6631 7.45696 17.7351 7.03996 17.8651C4.90996 18.5281 3.12396 20.2471 2.37996 22.3511L2.07996 23.2001V50.4001L2.37996 51.2491C3.12196 53.3471 4.84696 55.0131 7.03996 55.7501C7.60196 55.9391 8.61596 55.9481 31.585 55.9751L55.543 56.0031L58.286 58.3991C61.361 61.0841 61.526 61.1811 62.536 60.9001C63.426 60.6531 64.099 59.6501 63.96 58.7781C63.9188 58.5326 63.8514 58.2922 63.759 58.0611C63.587 57.6811 7.46296 8.56106 6.83496 8.24006C6.34796 7.99206 5.92496 7.95306 5.40596 8.10806ZM22.842 8.11206C21.797 8.53906 21.271 9.70906 21.66 10.7401C21.785 11.0701 22.227 11.5751 22.56 11.7691C22.716 11.8601 25.364 11.9081 32.427 11.9471L42.08 12.0001L42.691 12.3001C43.026 12.4651 43.465 12.7911 43.666 13.0261C43.877 13.2721 44.46 14.3941 45.049 15.6851C45.609 16.9121 46.241 18.1801 46.454 18.5001C47.147 19.5451 48.588 20.7011 49.707 21.1111C50.554 21.4221 50.932 21.4681 53.227 21.5391C55.995 21.6251 56.398 21.7311 57.179 22.5791C58.034 23.5061 57.967 22.5371 58.027 34.7821L58.08 45.7231L58.386 46.1241C58.847 46.7291 59.253 46.9331 60 46.9331C60.747 46.9331 61.153 46.7291 61.614 46.1241L61.92 45.7231V23.2001L61.62 22.3511C60.876 20.2471 59.094 18.5311 56.96 17.8641C56.513 17.7241 55.788 17.6641 53.92 17.6121C51.733 17.5511 51.415 17.5191 50.987 17.3181C50.152 16.9271 49.775 16.4121 48.846 14.3931C47.646 11.7871 47.377 11.2751 46.856 10.6121C46.032 9.56206 44.668 8.66906 43.24 8.24506C42.666 8.07406 41.787 8.05606 32.853 8.03406C26.793 8.01906 22.998 8.04806 22.842 8.11206ZM18.563 23.6411C19.881 24.7931 20.974 25.7721 20.992 25.8161C21.009 25.8611 20.756 26.2901 20.429 26.7701C19.373 28.3211 18.687 29.9501 18.273 31.8931C18.002 33.1651 18.003 36.0661 18.274 37.3331C18.854 40.0401 20.058 42.3181 21.945 44.2751C24.074 46.4841 26.697 47.8731 29.696 48.3811C31.118 48.6221 33.901 48.5451 35.147 48.2311C37.653 47.5991 39.869 46.4041 41.562 44.7721L42.111 44.2431L46.469 48.0571C48.866 50.1541 50.843 51.9121 50.863 51.9641C50.883 52.0161 41.684 52.0441 29.636 52.0281L8.37296 52.0001L7.80996 51.7461C7.16096 51.4521 6.37696 50.6431 6.16696 50.0501C6.05396 49.7301 6.02696 47.1461 6.02696 36.7471C6.02696 22.3441 5.96396 23.5241 6.78196 22.6171C7.22239 22.1222 7.81286 21.7854 8.46296 21.6581C8.70696 21.6101 10.54 21.5651 12.537 21.5581L16.166 21.5471L18.563 23.6411ZM31.52 34.9711C33.9919 37.1287 36.4613 39.2894 38.928 41.4531C39.062 41.5781 39.04 41.6421 38.768 41.9291C37.921 42.8231 36.048 43.8601 34.507 44.2881C33.784 44.4881 33.392 44.5241 31.947 44.5201C30.41 44.5161 30.147 44.4871 29.303 44.2301C27.495 43.6811 26.076 42.8151 24.793 41.4781C23.946 40.5961 23.535 40.0271 23.069 39.0931C21.703 36.3561 21.649 33.1691 22.922 30.4531C23.443 29.3401 24.008 28.4731 24.154 28.5621C24.216 28.6001 27.531 31.4841 31.52 34.9711Z" fill="#222222"/>
</svg>
