<svg width="64" height="64" viewBox="0 0 64 64" fill="none" xmlns="http://www.w3.org/2000/svg">
<path fill-rule="evenodd" clip-rule="evenodd" d="M22.077 8.11104C20.569 8.33804 18.991 9.18604 18.015 10.293C17.277 11.131 16.957 11.703 16.275 13.406C15.896 14.356 15.49 15.316 15.375 15.54C15.049 16.172 14.307 16.851 13.547 17.215L12.853 17.546L10.24 17.613C8.21496 17.665 7.49496 17.722 7.03996 17.864C4.90596 18.531 3.12396 20.247 2.37996 22.351L2.07996 23.2V50.4L2.37996 51.249C3.12196 53.348 4.85196 55.018 7.03996 55.749C7.59296 55.933 8.32596 55.946 19.893 55.978C28.466 56.002 32.279 55.977 32.555 55.896C33.409 55.647 33.95 54.918 33.95 54.017C33.95 53.337 33.601 52.671 33.071 52.341L32.693 52.107L20.533 52.053L8.37296 52L7.80996 51.746C7.16096 51.452 6.37696 50.643 6.16696 50.05C5.95996 49.466 5.95996 24.134 6.16696 23.55C6.37996 22.95 7.16096 22.147 7.80996 21.861C8.32996 21.633 8.56996 21.609 10.933 21.546C13.352 21.483 13.54 21.463 14.347 21.187C16.034 20.609 17.642 19.382 18.56 17.973C18.806 17.595 19.339 16.46 19.743 15.45C20.55 13.435 20.835 12.944 21.422 12.562C22.329 11.972 21.783 12 32.32 12H42.08L42.691 12.3C43.026 12.465 43.465 12.791 43.666 13.026C43.877 13.272 44.46 14.394 45.049 15.685C45.609 16.912 46.241 18.18 46.454 18.5C47.147 19.545 48.588 20.701 49.707 21.111C50.554 21.422 50.932 21.468 53.227 21.539C55.995 21.625 56.398 21.731 57.179 22.579C58.015 23.485 57.967 23.031 58.027 30.667C58.074 36.741 58.099 37.529 58.256 37.814C59.084 39.324 61.392 39.093 61.873 37.452C61.95 37.192 61.976 34.804 61.953 30.133L61.92 23.2L61.62 22.351C60.876 20.247 59.094 18.531 56.96 17.864C56.513 17.724 55.788 17.664 53.92 17.612C51.733 17.551 51.415 17.519 50.987 17.318C50.152 16.927 49.775 16.412 48.846 14.393C47.646 11.787 47.377 11.275 46.856 10.612C46.032 9.56204 44.669 8.66904 43.24 8.24504C42.665 8.07404 41.79 8.05704 32.64 8.04004C27.155 8.03004 22.401 8.06204 22.077 8.11104ZM29.994 22.784C25.716 23.501 22.067 26.604 20.661 30.72C20.169 32.161 20.022 33.26 20.084 35.04C20.143 36.764 20.303 37.565 20.894 39.098C21.891 41.682 24.094 44.039 26.72 45.332C33.169 48.507 40.974 45.298 43.324 38.507C43.889 36.872 44.104 34.457 43.836 32.747C43.443 30.233 42.077 27.64 40.229 25.896C37.522 23.343 33.661 22.169 29.994 22.784ZM34.135 26.888C35.855 27.364 37.497 28.531 38.577 30.045C40.102 32.182 40.424 35.173 39.397 37.653C38.978 38.666 38.456 39.417 37.543 40.32C36.048 41.799 34.545 42.446 32.397 42.535C30.43 42.616 29.048 42.252 27.573 41.266C25.146 39.643 23.851 37.003 24.032 34.044C24.148 32.132 24.81 30.618 26.168 29.161C27.509 27.72 29.043 26.931 31.093 26.626C31.726 26.532 33.357 26.672 34.135 26.888ZM52.295 37.651C51.841 37.758 51.246 38.22 51.013 38.646C50.851 38.942 50.822 39.367 50.794 41.887L50.761 44.788L47.843 44.82L44.926 44.853L44.516 45.185C43.94 45.651 43.705 46.101 43.696 46.755C43.6889 47.0836 43.7641 47.4088 43.9146 47.7009C44.0652 47.9931 44.2863 48.243 44.558 48.428C44.943 48.692 44.954 48.693 47.859 48.725L50.773 48.756L50.774 51.445C50.774 52.965 50.822 54.306 50.885 54.53C51.032 55.061 51.47 55.561 51.996 55.8C53.146 56.322 54.42 55.664 54.711 54.398C54.772 54.135 54.823 52.756 54.824 51.333L54.827 48.747H57.593C59.288 48.747 60.476 48.703 60.66 48.633C61.028 48.494 61.514 48.045 61.716 47.659C61.894 47.318 61.914 46.431 61.753 46.007C61.591 45.58 61.24 45.229 60.747 45.002C60.367 44.827 60.015 44.804 57.573 44.802L54.827 44.8V42.308C54.827 39.566 54.741 38.855 54.352 38.344C53.926 37.785 53.019 37.479 52.295 37.651Z" fill="#222222"/>
</svg>
