<svg width="64" height="64" viewBox="0 0 64 64" fill="none" xmlns="http://www.w3.org/2000/svg">
<path fill-rule="evenodd" clip-rule="evenodd" d="M22.077 8.11104C20.569 8.33804 18.991 9.18604 18.015 10.293C17.277 11.131 16.957 11.703 16.275 13.406C15.896 14.356 15.49 15.316 15.375 15.54C15.049 16.172 14.307 16.851 13.547 17.215L12.853 17.546L10.24 17.613C8.21496 17.665 7.49496 17.722 7.03996 17.864C4.90596 18.531 3.12396 20.247 2.37996 22.351L2.07996 23.2V50.4L2.37996 51.249C3.13196 53.376 4.92096 55.084 7.09296 55.75C7.70696 55.939 8.74096 55.947 32 55.947C55.259 55.947 56.293 55.939 56.907 55.75C58.743 55.187 60.399 53.806 61.211 52.159C62.018 50.523 61.982 51.29 61.949 36.449L61.92 23.2L61.62 22.351C60.876 20.247 59.094 18.531 56.96 17.864C56.513 17.724 55.788 17.664 53.92 17.612C51.733 17.551 51.415 17.519 50.987 17.318C50.152 16.927 49.775 16.412 48.846 14.393C47.646 11.787 47.377 11.275 46.856 10.612C46.032 9.56204 44.669 8.66904 43.24 8.24504C42.665 8.07404 41.79 8.05704 32.64 8.04004C27.155 8.03004 22.401 8.06204 22.077 8.11104ZM42.691 12.3C43.026 12.465 43.465 12.791 43.666 13.026C43.877 13.272 44.46 14.394 45.049 15.685C45.609 16.912 46.241 18.18 46.454 18.5C47.147 19.545 48.588 20.701 49.707 21.111C50.554 21.422 50.932 21.468 53.227 21.539C55.411 21.607 55.677 21.636 56.19 21.861C56.839 22.147 57.62 22.95 57.833 23.55C57.946 23.87 57.973 26.454 57.973 36.853V49.76L57.724 50.24C57.375 50.913 56.809 51.465 56.171 51.753L55.627 52H8.37296L7.80996 51.746C7.16096 51.452 6.37696 50.643 6.16696 50.05C5.95996 49.466 5.95996 24.134 6.16696 23.55C6.37996 22.95 7.16096 22.147 7.80996 21.861C8.32996 21.633 8.56996 21.609 10.933 21.546C13.352 21.483 13.54 21.463 14.347 21.187C16.034 20.609 17.642 19.382 18.56 17.973C18.806 17.595 19.339 16.46 19.743 15.45C20.147 14.44 20.602 13.435 20.754 13.216C21.15 12.645 21.969 12.146 22.72 12.018C22.867 11.993 27.283 11.979 32.533 11.986L42.08 12L42.691 12.3ZM29.994 22.784C25.716 23.501 22.067 26.604 20.661 30.72C20.169 32.161 20.022 33.26 20.084 35.04C20.143 36.764 20.303 37.565 20.894 39.098C21.891 41.682 24.094 44.039 26.72 45.332C33.169 48.507 40.974 45.298 43.324 38.507C43.889 36.872 44.104 34.457 43.836 32.747C43.443 30.233 42.077 27.64 40.229 25.896C37.522 23.343 33.661 22.169 29.994 22.784ZM34.135 26.888C35.855 27.364 37.497 28.531 38.577 30.045C40.102 32.182 40.424 35.173 39.397 37.653C38.978 38.666 38.456 39.417 37.543 40.32C36.048 41.799 34.545 42.446 32.397 42.535C30.43 42.616 29.048 42.252 27.573 41.266C25.146 39.643 23.851 37.003 24.032 34.044C24.148 32.132 24.81 30.618 26.168 29.161C27.509 27.72 29.043 26.931 31.093 26.626C31.726 26.532 33.357 26.672 34.135 26.888Z" fill="#222222"/>
</svg>
