<svg width="64" height="64" viewBox="0 0 64 64" fill="none" xmlns="http://www.w3.org/2000/svg">
<path fill-rule="evenodd" clip-rule="evenodd" d="M20.7469 11.409C18.3219 11.602 16.4319 12.703 15.1619 14.662C14.8959 15.073 13.5069 18.044 12.0459 21.328L9.40895 27.253L8.38094 27.321C7.52794 27.378 7.28295 27.436 6.94295 27.661C6.32995 28.067 6.04395 28.598 6.04395 29.333C6.04395 30.443 6.66294 31.096 7.89794 31.29L8.62894 31.405L8.66595 40.316C8.70295 49.216 8.70294 49.228 8.94494 50.027C9.51594 51.917 10.7919 53.479 12.5869 54.486C14.4899 55.553 17.5099 55.553 19.4129 54.486C21.7909 53.152 23.0969 51.079 23.3129 48.293L23.3849 47.36H40.6149L40.6869 48.293C40.9029 51.079 42.209 53.152 44.5869 54.486C46.4899 55.553 49.5099 55.553 51.4129 54.486C53.2079 53.479 54.4839 51.917 55.0549 50.027C55.2969 49.228 55.2969 49.216 55.3339 40.316L55.3709 31.405L56.1119 31.289C57.3209 31.098 57.9449 30.429 57.9449 29.322C57.9449 28.657 57.6449 28.083 57.0959 27.695C56.7179 27.428 56.5369 27.382 55.6269 27.322L54.5879 27.253L52.6229 22.827C49.5859 15.985 49.3949 15.572 48.8919 14.754C47.9769 13.267 46.3879 12.095 44.6189 11.602C43.7909 11.372 43.7229 11.37 32.7469 11.351C26.6749 11.341 21.2749 11.367 20.7469 11.409ZM44.2129 15.704C44.9329 16.097 45.1479 16.296 45.5449 16.941C45.7309 17.243 46.8609 19.687 48.0569 22.372L50.2309 27.253L41.1149 27.281C36.1019 27.296 27.8979 27.296 22.8849 27.281L13.7689 27.253L15.9459 22.365C18.2239 17.25 18.4919 16.708 18.9639 16.26C19.3029 15.938 19.9729 15.572 20.4269 15.459C20.6029 15.415 25.9069 15.387 32.2129 15.396L43.6799 15.413L44.2129 15.704ZM51.3069 37.333V43.307H12.6929V31.36H51.3069V37.333ZM19.3069 47.996C19.3069 48.912 18.9879 49.675 18.3309 50.331C16.2469 52.416 12.6929 50.944 12.6929 47.996V47.36H19.3069V47.996ZM51.3069 47.996C51.3069 48.912 50.9879 49.675 50.3309 50.331C48.2469 52.416 44.6929 50.944 44.6929 47.996V47.36H51.3069V47.996Z" fill="#222222"/>
</svg>
