<svg width="64" height="64" viewBox="0 0 64 64" fill="none" xmlns="http://www.w3.org/2000/svg">
<path fill-rule="evenodd" clip-rule="evenodd" d="M20.8389 24.742C20.3739 24.853 19.8979 25.214 19.6159 25.67C19.2919 26.194 19.2859 27.13 19.6029 27.639C19.7269 27.837 22.3389 30.503 25.4079 33.562C30.7599 38.899 31.0069 39.129 31.4929 39.23C31.8229 39.298 32.1769 39.298 32.5069 39.23C32.9939 39.13 33.2339 38.906 38.7369 33.403C44.2389 27.901 44.4639 27.66 44.5639 27.173C44.7949 26.042 44.2039 25.024 43.1629 24.762C42.7089 24.648 42.5019 24.657 41.8669 24.822C41.7489 24.852 39.4809 27.043 36.8269 29.689L31.9999 34.501L27.1729 29.692C22.6689 25.203 22.3129 24.874 21.8459 24.761C21.2949 24.628 21.3139 24.628 20.8389 24.742Z" fill="#222222"/>
</svg>
