<svg width="64" height="64" viewBox="0 0 64 64" fill="none" xmlns="http://www.w3.org/2000/svg">
<path fill-rule="evenodd" clip-rule="evenodd" d="M34.4001 22.026C34.2589 22.0658 34.1165 22.1011 33.9731 22.132C33.7381 22.183 32.5321 23.319 29.4071 26.434C27.0721 28.762 25.0601 30.829 24.9361 31.028C24.7751 31.286 24.7111 31.564 24.7111 32C24.7111 32.436 24.7751 32.714 24.9361 32.972C25.0601 33.171 27.0721 35.236 29.4071 37.562C33.4511 41.59 33.6771 41.796 34.1601 41.896C35.7061 42.216 36.8841 41.039 36.5621 39.493C36.4621 39.014 36.2701 38.799 32.9791 35.493L29.5011 32L32.9791 28.507C36.2791 25.192 36.4621 24.987 36.5631 24.503C36.7601 23.558 36.3551 22.612 35.6061 22.268C35.2351 22.097 34.5811 21.966 34.4001 22.026Z" fill="#222222"/>
</svg>
