<svg width="64" height="64" viewBox="0 0 64 64" fill="none" xmlns="http://www.w3.org/2000/svg">
<path fill-rule="evenodd" clip-rule="evenodd" d="M23.5061 27.408C23.0411 27.519 22.5651 27.88 22.2831 28.337C21.9591 28.861 21.9531 29.797 22.2701 30.305C22.3941 30.504 24.4061 32.57 26.7411 34.895C30.7851 38.923 31.0111 39.129 31.4931 39.229C31.8241 39.298 32.1761 39.298 32.5071 39.23C32.9911 39.131 33.2091 38.931 37.4031 34.736C41.5971 30.542 41.7971 30.324 41.8971 29.84C42.1361 28.677 41.5221 27.658 40.4421 27.427C40.1441 27.363 39.8391 27.33 39.7641 27.353C39.6128 27.3949 39.4604 27.4326 39.3071 27.466C39.0731 27.517 38.0451 28.475 35.4931 31.018L32.0001 34.499L28.5071 31.022C25.0741 27.605 25.0031 27.542 24.4481 27.425C24.2542 27.38 24.0583 27.3443 23.8611 27.318C23.7436 27.3512 23.6252 27.3812 23.5061 27.408Z" fill="#222222"/>
</svg>
