<svg width="64" height="64" viewBox="0 0 64 64" fill="none" xmlns="http://www.w3.org/2000/svg">
<path fill-rule="evenodd" clip-rule="evenodd" d="M28.839 22.072C28.371 22.188 27.897 22.549 27.616 23.003C27.341 23.448 27.288 24.414 27.515 24.854C27.59 25 29.193 26.668 31.077 28.56L34.502 32L31.077 35.44C29.193 37.332 27.59 39 27.515 39.146C27.439 39.293 27.378 39.69 27.378 40.03C27.378 40.54 27.432 40.723 27.689 41.087C27.86 41.329 28.182 41.621 28.404 41.736C28.899 41.992 29.703 42.008 30.203 41.771C30.405 41.674 32.483 39.676 34.847 37.305C38.923 33.215 39.129 32.989 39.229 32.507C39.2979 32.1725 39.2979 31.8275 39.229 31.493C39.129 31.011 38.923 30.785 34.847 26.695C32.494 24.335 30.423 22.335 30.245 22.251C29.804 22.043 29.242 21.972 28.839 22.072Z" fill="#222222"/>
</svg>
