<svg width="64" height="64" viewBox="0 0 64 64" fill="none" xmlns="http://www.w3.org/2000/svg">
<path fill-rule="evenodd" clip-rule="evenodd" d="M30.24 6.084C16.067 6.987 5.16802 19.388 6.07902 33.573C6.77102 44.345 13.855 53.47 24.071 56.748C28.391 58.134 33.289 58.34 37.803 57.327C46.572 55.358 53.762 48.826 56.651 40.203C58.12 35.819 58.366 30.816 57.336 26.24C55.154 16.54 47.46 8.846 37.76 6.664C35.436 6.141 32.678 5.928 30.24 6.084ZM34.563 10.138C37.7193 10.5221 40.7562 11.5802 43.4679 13.2405C46.1796 14.9007 48.5028 17.1245 50.28 19.761C51.727 21.9 53.037 25.007 53.539 27.491C53.869 29.121 53.973 30.208 53.973 32C53.973 35.551 53.272 38.574 51.719 41.713C49.531 46.135 46.135 49.531 41.713 51.719C38.574 53.272 35.551 53.973 32 53.973C28.467 53.973 25.485 53.286 22.33 51.743C15.622 48.464 11.062 42.038 10.138 34.563C9.99502 33.4 9.99502 30.6 10.138 29.437C10.66 25.219 12.424 21.11 15.062 17.973C16.0104 16.8558 17.0525 15.8217 18.177 14.882C21.068 12.471 25.327 10.657 29.29 10.148C30.345 10.013 33.5 10.007 34.563 10.138ZM23.506 27.406C23.039 27.521 22.564 27.882 22.283 28.337C21.959 28.861 21.953 29.797 22.27 30.305C22.394 30.504 24.406 32.57 26.741 34.895C30.785 38.923 31.011 39.129 31.493 39.229C31.8275 39.298 32.1725 39.298 32.507 39.229C32.989 39.129 33.215 38.923 37.305 34.847C39.676 32.483 41.674 30.405 41.771 30.203C42.008 29.703 41.992 28.899 41.736 28.404C41.621 28.182 41.329 27.86 41.087 27.689C40.723 27.432 40.54 27.378 40.03 27.378C39.69 27.378 39.293 27.439 39.146 27.515C39 27.59 37.332 29.193 35.44 31.077L32 34.502L28.56 31.077C26.668 29.193 25.024 27.604 24.907 27.545C24.584 27.383 23.881 27.314 23.506 27.406Z" fill="#222222"/>
</svg>
