<svg width="64" height="64" viewBox="0 0 64 64" fill="none" xmlns="http://www.w3.org/2000/svg">
<path fill-rule="evenodd" clip-rule="evenodd" d="M30.24 6.084C16.067 6.987 5.16796 19.388 6.07896 33.573C6.77096 44.345 13.855 53.47 24.071 56.748C28.391 58.134 33.289 58.34 37.803 57.327C46.572 55.358 53.762 48.826 56.651 40.203C58.12 35.819 58.366 30.816 57.336 26.24C55.154 16.54 47.46 8.846 37.76 6.664C35.436 6.141 32.678 5.928 30.24 6.084ZM34.563 10.138C37.7193 10.5221 40.7561 11.5802 43.4678 13.2405C46.1795 14.9007 48.5027 17.1245 50.28 19.761C51.727 21.9 53.037 25.007 53.539 27.491C53.869 29.121 53.973 30.208 53.973 32C53.973 35.551 53.272 38.574 51.719 41.713C49.531 46.135 46.135 49.531 41.713 51.719C38.574 53.272 35.551 53.973 32 53.973C28.467 53.973 25.485 53.286 22.33 51.743C15.622 48.464 11.062 42.038 10.138 34.563C9.99496 33.4 9.99496 30.6 10.138 29.437C10.66 25.219 12.424 21.11 15.062 17.973C16.0103 16.8558 17.0524 15.8217 18.177 14.882C21.068 12.471 25.327 10.657 29.29 10.148C30.345 10.013 33.5 10.007 34.563 10.138ZM31.733 24.693C31.675 24.712 31.483 24.76 31.307 24.798C31.071 24.85 29.866 25.986 26.741 29.101C24.406 31.429 22.394 33.496 22.27 33.695C21.953 34.203 21.959 35.139 22.283 35.663C22.753 36.423 23.574 36.756 24.503 36.563C24.987 36.462 25.192 36.279 28.507 32.979L32 29.501L35.493 32.979C38.799 36.27 39.014 36.462 39.493 36.562C41.039 36.884 42.216 35.706 41.896 34.16C41.796 33.677 41.589 33.451 37.513 29.362C35.161 27.001 33.09 25.003 32.911 24.921C32.564 24.762 31.909 24.635 31.733 24.693Z" fill="#222222"/>
</svg>
