<svg width="64" height="64" viewBox="0 0 64 64" fill="none" xmlns="http://www.w3.org/2000/svg">
<path fill-rule="evenodd" clip-rule="evenodd" d="M31.7331 24.69C31.6751 24.711 31.4831 24.76 31.3071 24.798C31.0711 24.85 29.8661 25.986 26.7411 29.101C24.4061 31.429 22.3941 33.496 22.2701 33.695C21.9531 34.203 21.9591 35.139 22.2831 35.663C22.7531 36.423 23.5741 36.756 24.5031 36.563C24.9871 36.462 25.1921 36.279 28.5071 32.979L32.0001 29.501L35.4931 32.979C38.7991 36.27 39.0141 36.462 39.4931 36.562C41.0391 36.884 42.2161 35.706 41.8961 34.16C41.7961 33.677 41.5901 33.451 37.5621 29.407C35.2361 27.072 33.1891 25.073 33.0131 24.965C32.7031 24.775 31.9501 24.613 31.7331 24.69Z" fill="#222222"/>
</svg>
