<svg width="64" height="64" viewBox="0 0 64 64" fill="none" xmlns="http://www.w3.org/2000/svg">
<path fill-rule="evenodd" clip-rule="evenodd" d="M31.7329 24.689C31.6749 24.71 31.4829 24.759 31.3069 24.798C31.0689 24.85 29.5569 26.294 25.4079 30.434C22.3389 33.495 19.7269 36.163 19.6029 36.361C19.2859 36.87 19.2919 37.806 19.6159 38.33C20.0859 39.09 20.9069 39.422 21.8359 39.23C22.3259 39.129 22.5459 38.925 27.1729 34.312L31.9999 29.499L36.8269 34.312C41.4409 38.913 41.6759 39.129 42.1599 39.229C43.7059 39.549 44.8819 38.374 44.5629 36.827C44.4619 36.34 44.2319 36.093 38.8459 30.694C35.7589 27.6 33.0879 25 32.9099 24.917C32.5609 24.752 31.9059 24.626 31.7329 24.689Z" fill="#222222"/>
</svg>
