<svg width="64" height="64" viewBox="0 0 64 64" fill="none" xmlns="http://www.w3.org/2000/svg">
<path fill-rule="evenodd" clip-rule="evenodd" d="M26.2931 8.738C25.4151 8.828 24.8541 9.001 24.2671 9.362C23.3055 9.95781 22.584 10.8729 22.2291 11.947C22.0571 12.48 22.0361 13.201 21.9991 19.911L21.9581 27.289L15.9121 27.332C10.5101 27.372 9.8051 27.396 9.2901 27.564C8.56614 27.795 7.90891 28.1979 7.37462 28.7383C6.84033 29.2787 6.44488 29.9405 6.2221 30.667C6.0381 31.27 6.0271 31.958 6.0271 42.631V53.955L6.3471 54.408C6.5231 54.657 6.8591 54.961 7.0931 55.084L7.5201 55.307L31.6801 55.335C48.9941 55.355 56.0011 55.33 56.4101 55.245C57.1861 55.085 57.7441 54.534 57.9091 53.766C58.0641 53.043 58.0711 25.15 57.9161 23.681C57.7451 22.054 57.0451 20.855 55.8051 20.069C54.7171 19.378 54.7471 19.381 48.0801 19.332L42.0271 19.289L42.0251 16.658C42.0221 13.345 41.9121 12.222 41.5041 11.348C41.2316 10.7706 40.8435 10.2553 40.3638 9.83405C39.884 9.41279 39.3229 9.09453 38.7151 8.899C38.1941 8.731 37.5541 8.709 32.5871 8.686C29.5361 8.673 26.7041 8.696 26.2931 8.738ZM37.7781 12.87C37.9661 13.04 37.9731 13.779 37.9731 32.177V51.307H26.0271V32.195C26.0271 14.561 26.0401 13.068 26.2031 12.888C26.3701 12.704 26.6901 12.693 31.9811 12.693C37.0441 12.693 37.6021 12.71 37.7781 12.87ZM53.7781 23.537C53.9651 23.706 53.9731 24.279 53.9731 37.51V51.307H42.0271V23.36H47.8051C53.0321 23.36 53.6021 23.377 53.7781 23.537ZM21.9731 41.333V51.307H10.0271V41.528C10.0271 32.579 10.0421 31.734 10.2031 31.555C10.3701 31.371 10.6961 31.36 16.1771 31.36H21.9731V41.333Z" fill="#222222"/>
</svg>
