<svg width="64" height="64" viewBox="0 0 64 64" fill="none" xmlns="http://www.w3.org/2000/svg">
<path fill-rule="evenodd" clip-rule="evenodd" d="M10.172 6.07201C9.70199 6.18801 9.23099 6.54901 8.94099 7.01501L8.69299 7.41301V56.622L9.01299 57.075C9.18899 57.324 9.52499 57.628 9.75999 57.751L10.187 57.973H25.44C39.91 57.973 40.726 57.963 41.325 57.778C41.9454 57.5907 42.5193 57.2749 43.0095 56.851C43.4997 56.4272 43.8951 55.9048 44.17 55.318C44.623 54.351 44.689 53.333 44.691 47.347L44.693 42.054L48.08 41.999C51.819 41.938 52.146 41.889 53.168 41.233C54.407 40.439 55.078 39.284 55.25 37.652C55.388 36.338 55.388 27.662 55.25 26.348C55.078 24.721 54.378 23.522 53.139 22.735C52.022 22.027 52.233 22.044 44.08 21.999L36.693 21.958L36.691 16.659C36.689 10.657 36.623 9.65001 36.167 8.67601C35.8951 8.09966 35.5083 7.585 35.0302 7.16368C34.5521 6.74235 33.9929 6.42325 33.387 6.22601C32.838 6.04701 32.071 6.03301 21.653 6.01201C15.523 6.00001 10.356 6.02701 10.172 6.07201ZM32.445 10.203C32.629 10.37 32.64 10.696 32.64 16.177V21.973H12.693V10.027H22.472C31.421 10.027 32.266 10.042 32.445 10.203ZM51.112 26.203C51.296 26.37 51.307 26.69 51.307 31.981C51.307 37.044 51.29 37.602 51.13 37.778C50.96 37.966 50.221 37.973 31.823 37.973H12.693V26.027H31.805C49.439 26.027 50.932 26.04 51.112 26.203ZM40.64 47.805C40.64 53.032 40.623 53.602 40.463 53.778C40.294 53.965 39.721 53.973 26.49 53.973H12.693V42.027H40.64V47.805Z" fill="#222222"/>
</svg>
