<svg width="64" height="64" viewBox="0 0 64 64" fill="none" xmlns="http://www.w3.org/2000/svg">
<path fill-rule="evenodd" clip-rule="evenodd" d="M30.2401 6.08397C16.0671 6.98697 5.16808 19.388 6.07908 33.573C6.77108 44.345 13.8551 53.47 24.0711 56.748C28.3911 58.134 33.2891 58.34 37.8031 57.327C46.5721 55.358 53.7621 48.826 56.6511 40.203C58.1201 35.819 58.3661 30.816 57.3361 26.24C55.1541 16.54 47.4601 8.84597 37.7601 6.66397C35.4361 6.14097 32.6781 5.92797 30.2401 6.08397ZM29.9981 21.361C30.0261 32.446 30.0291 32.593 30.2441 32.932C30.3631 33.121 33.8071 36.899 37.8971 41.33C41.9871 45.76 45.3331 49.421 45.3331 49.466C45.3321 49.643 43.0931 51.036 41.7031 51.724C38.5751 53.272 35.5481 53.973 32.0001 53.973C28.4671 53.973 25.4851 53.286 22.3301 51.743C15.6221 48.464 11.0621 42.038 10.1381 34.563C9.99508 33.4 9.99508 30.6 10.1381 29.437C10.6601 25.219 12.4241 21.11 15.0621 17.973C18.4621 13.93 22.9391 11.3 28.0531 10.343C28.6111 10.239 29.2701 10.149 29.5181 10.143L29.9691 10.133L29.9981 21.361ZM36.4651 10.45C41.9871 11.576 47.0531 14.99 50.2801 19.761C52.0951 22.444 53.5621 26.38 53.8341 29.298L53.8981 29.973H34.0271V10.102L34.7021 10.166C35.0731 10.2 35.8671 10.328 36.4651 10.45ZM53.8341 34.702C53.5621 37.62 52.0951 41.557 50.2801 44.239C49.5821 45.271 48.4591 46.667 48.3271 46.667C48.2891 46.667 45.6311 43.823 42.4201 40.347L36.5821 34.027H53.8981L53.8341 34.702Z" fill="#222222"/>
</svg>
