<svg width="64" height="64" viewBox="0 0 64 64" fill="none" xmlns="http://www.w3.org/2000/svg">
<path fill-rule="evenodd" clip-rule="evenodd" d="M7.50601 11.405C7.03501 11.522 6.56401 11.883 6.27401 12.349L6.02701 12.747L5.99601 29.173C5.96401 45.8829 6.01401 48.816 6.35301 50.074C7.05201 52.668 9.19201 54.591 12.012 55.159C12.901 55.338 55.55 55.424 56.396 55.249C58.208 54.872 58.539 52.3829 56.886 51.562C56.493 51.366 55.783 51.3579 34.453 51.3069L12.427 51.2529L11.931 51.0239C11.297 50.7309 10.602 50.0359 10.309 49.403C10.09 48.928 10.079 48.738 10.048 44.907L10.016 40.907L15.701 36.179C18.828 33.579 21.6 31.31 21.86 31.136C22.517 30.699 23.365 30.468 23.984 30.557C25.047 30.711 25.451 31.002 27.869 33.363C30.732 36.158 31.5 36.706 33.146 37.127C35.307 37.679 37.476 37.192 39.441 35.713C39.855 35.402 44.106 31.725 48.886 27.544C55.252 21.976 57.63 19.835 57.77 19.544C58.07 18.92 58.017 18.107 57.641 17.575C57.021 16.697 55.789 16.428 54.961 16.989C54.74 17.138 50.768 20.582 46.133 24.643C41.499 28.703 37.398 32.261 37.021 32.549C35.865 33.43 34.66 33.606 33.528 33.058C33.209 32.903 32.26 32.06 30.787 30.622C27.794 27.7 26.986 27.137 25.206 26.734C23.154 26.269 21.074 26.759 19.188 28.15C18.8 28.437 16.604 30.236 14.308 32.149C12.013 34.062 10.11 35.627 10.081 35.627C10.051 35.627 10.025 30.623 10.024 24.507C10.022 17.251 9.98301 13.221 9.91101 12.909C9.66001 11.818 8.57401 11.14 7.50601 11.405Z" fill="#222222"/>
</svg>
