<svg width="64" height="64" viewBox="0 0 64 64" fill="none" xmlns="http://www.w3.org/2000/svg">
<path fill-rule="evenodd" clip-rule="evenodd" d="M30.24 6.08201C23.248 6.51901 16.511 9.96201 12.019 15.394C8.84799 19.229 6.92899 23.623 6.23499 28.64C6.02799 30.135 5.99999 33.434 6.18199 34.987C6.53739 37.9414 7.39116 40.8141 8.70699 43.483L9.50899 45.1L8.20299 49.03C6.93399 52.849 6.89699 52.987 6.88899 53.92C6.88099 54.723 6.91899 54.954 7.12099 55.33C7.47899 56.002 7.91899 56.455 8.55299 56.806C9.06799 57.091 9.20799 57.119 10.08 57.111C11.013 57.103 11.151 57.066 14.97 55.797L18.9 54.491L20.517 55.293C23.1859 56.6088 26.0586 57.4626 29.013 57.818C30.566 58 33.865 57.972 35.36 57.765C45.368 56.38 53.47 49.696 56.651 40.203C58.12 35.819 58.366 30.816 57.336 26.24C55.154 16.54 47.46 8.84601 37.76 6.66401C35.44 6.14201 32.688 5.92901 30.24 6.08201ZM34.563 10.138C37.7193 10.5221 40.7562 11.5802 43.4679 13.2405C46.1796 14.9008 48.5027 17.1245 50.28 19.761C51.727 21.9 53.037 25.007 53.539 27.491C53.869 29.121 53.973 30.208 53.973 32C53.973 35.551 53.272 38.574 51.719 41.713C49.531 46.135 46.135 49.531 41.713 51.719C38.592 53.263 35.544 53.974 32.056 53.972C28.233 53.97 25.413 53.283 21.813 51.475C19.079 50.103 19.406 50.096 14.827 51.612C12.867 52.261 11.251 52.78 11.236 52.764C11.22 52.749 11.739 51.133 12.388 49.173C13.904 44.594 13.897 44.921 12.525 42.187C10.717 38.587 10.03 35.767 10.028 31.944C10.026 28.47 10.726 25.455 12.26 22.33C13.702 19.392 15.535 17.085 18.177 14.882C21.068 12.471 25.327 10.657 29.29 10.148C30.345 10.013 33.5 10.007 34.563 10.138ZM39.733 24.689C39.5927 24.7318 39.4506 24.7682 39.307 24.798C39.07 24.85 37.733 26.119 34.16 29.684L29.334 34.5L27.227 32.41C26.068 31.261 25 30.258 24.854 30.182C24.707 30.106 24.314 30.044 23.979 30.044C23.255 30.044 22.674 30.371 22.289 30.994C21.959 31.527 21.95 32.459 22.269 32.972C22.393 33.171 23.805 34.636 25.407 36.228C28.143 38.946 28.351 39.129 28.827 39.228C29.158 39.297 29.509 39.298 29.84 39.23C30.327 39.13 30.567 38.906 36.07 33.403C41.587 27.887 41.797 27.662 41.898 27.17C42.092 26.224 41.69 25.284 40.939 24.931C40.566 24.755 39.912 24.624 39.733 24.689Z" fill="#222222"/>
</svg>
