<svg width="64" height="64" viewBox="0 0 64 64" fill="none" xmlns="http://www.w3.org/2000/svg">
<path fill-rule="evenodd" clip-rule="evenodd" d="M13.3329 8.74997C11.8869 8.83497 10.9019 9.04697 10.1029 9.44597C7.93894 10.528 6.58994 12.376 6.16294 14.842C5.96194 15.997 5.96394 52.736 6.16494 53.795C6.39094 54.991 6.68394 55.629 7.32494 56.322C7.964 57.0207 8.81299 57.4926 9.74379 57.6665C10.6746 57.8404 11.6367 57.7069 12.4849 57.286C13.4519 56.806 14.1029 56.328 17.8499 53.344C19.7769 51.81 21.5529 50.448 21.7969 50.317L22.2399 50.08L36.7999 50.013C46.1229 49.97 51.5539 49.907 51.8989 49.836C54.3499 49.336 56.0459 48.114 57.1099 46.083C57.6509 45.05 57.8059 44.313 57.9299 42.172C58.0859 39.48 57.9919 15.547 57.8219 14.679C57.3569 12.308 56.0239 10.528 53.9119 9.46197C53.0629 9.03297 52.1279 8.84097 50.3999 8.73997C48.4959 8.62897 15.2569 8.63797 13.3329 8.74997ZM52.0689 12.976C52.7029 13.269 53.3979 13.964 53.6909 14.597L53.9199 15.093V43.573L53.6909 44.069C53.3979 44.703 52.7029 45.398 52.0689 45.691L51.5729 45.92L36.7999 45.98C20.6009 46.046 21.7089 46.001 20.2049 46.666C19.3929 47.025 19.0849 47.252 15.2149 50.336C10.5459 54.058 10.5469 54.058 10.1869 53.509C10.0409 53.286 10.0259 51.206 10.0519 34.176L10.0799 15.093L10.3089 14.597C10.7259 13.697 11.5989 12.987 12.5149 12.804C12.7599 12.755 21.6479 12.722 32.2669 12.731L51.5729 12.747L52.0689 12.976ZM23.3819 21.208C20.9699 22.071 20.2419 25.153 22.0269 26.939C22.7549 27.668 23.3489 27.894 24.5329 27.892C25.3819 27.891 25.6209 27.851 26.0049 27.647C27.1979 27.014 27.8509 26.025 27.9249 24.737C27.9829 23.741 27.7959 23.103 27.2259 22.355C26.3739 21.235 24.7009 20.736 23.3819 21.208ZM39.5199 21.163C38.8549 21.373 38.4899 21.598 38.0049 22.098C36.2469 23.909 36.9989 27.003 39.3899 27.797C40.1149 28.038 41.3789 27.962 42.0049 27.64C42.6679 27.2984 43.2141 26.7672 43.5739 26.114C43.9889 25.351 44.0709 24.108 43.7599 23.294C43.1109 21.597 41.1939 20.633 39.5199 21.163ZM22.3429 32.107C21.9359 32.233 21.3459 32.802 21.1579 33.25C20.9459 33.753 20.9809 34.344 21.2529 34.884C21.8009 35.97 25.6939 38.07 28.5709 38.832C33.0899 40.029 37.7779 39.11 42.3659 36.127C43.6919 35.266 43.9479 34.91 43.9449 33.94C43.9432 33.6468 43.8743 33.3579 43.7435 33.0955C43.6128 32.8331 43.4237 32.6041 43.1908 32.426C42.9578 32.248 42.6872 32.1257 42.3997 32.0685C42.1121 32.0113 41.8153 32.0207 41.5319 32.096C41.3049 32.157 40.7359 32.452 40.2669 32.752C38.4469 33.912 36.4289 34.783 34.7019 35.154C33.5549 35.4 31.4729 35.401 30.2929 35.155C28.5579 34.793 26.7309 34.007 24.7749 32.781C23.6179 32.056 23.0339 31.894 22.3429 32.107Z" fill="#222222"/>
</svg>
