<svg width="64" height="64" viewBox="0 0 64 64" fill="none" xmlns="http://www.w3.org/2000/svg">
<path fill-rule="evenodd" clip-rule="evenodd" d="M13.3329 8.74997C11.8869 8.83497 10.9019 9.04697 10.1029 9.44597C7.93894 10.528 6.58994 12.376 6.16294 14.842C5.96194 15.997 5.96394 52.736 6.16494 53.795C6.39094 54.991 6.68394 55.629 7.32494 56.322C7.964 57.0207 8.81299 57.4926 9.74379 57.6665C10.6746 57.8404 11.6367 57.7069 12.4849 57.286C13.4519 56.806 14.1029 56.328 17.8499 53.344C19.7769 51.81 21.5529 50.448 21.7969 50.317L22.2399 50.08L36.7999 50.013C46.1229 49.97 51.5539 49.907 51.8989 49.836C54.3499 49.336 56.0459 48.114 57.1099 46.083C57.6509 45.05 57.8059 44.313 57.9299 42.172C58.0859 39.48 57.9919 15.547 57.8219 14.679C57.3569 12.308 56.0239 10.528 53.9119 9.46197C53.0629 9.03297 52.1279 8.84097 50.3999 8.73997C48.4959 8.62897 15.2569 8.63797 13.3329 8.74997ZM52.0689 12.976C52.7029 13.269 53.3979 13.964 53.6909 14.597L53.9199 15.093V43.573L53.6909 44.069C53.3979 44.703 52.7029 45.398 52.0689 45.691L51.5729 45.92L36.7999 45.98C20.6009 46.046 21.7089 46.001 20.2049 46.666C19.3929 47.025 19.0849 47.252 15.2149 50.336C10.5459 54.058 10.5469 54.058 10.1869 53.509C10.0409 53.286 10.0259 51.206 10.0519 34.176L10.0799 15.093L10.3089 14.597C10.7259 13.697 11.5989 12.987 12.5149 12.804C12.7599 12.755 21.6479 12.722 32.2669 12.731L51.5729 12.747L52.0689 12.976ZM39.7329 22.022C39.5928 22.0652 39.4506 22.1016 39.3069 22.131C39.0699 22.183 37.7329 23.453 34.1599 27.018L29.3339 31.834L27.2269 29.744C26.0679 28.594 24.9999 27.591 24.8539 27.516C24.7069 27.44 24.3139 27.378 23.9789 27.378C23.2549 27.378 22.6739 27.704 22.2889 28.328C21.9589 28.86 21.9499 29.792 22.2689 30.305C22.3929 30.504 23.8049 31.969 25.4069 33.561C28.1429 36.279 28.3509 36.462 28.8269 36.562C29.1579 36.631 29.5089 36.632 29.8399 36.564C30.3269 36.464 30.5669 36.239 36.0699 30.737C41.5869 25.22 41.7969 24.995 41.8979 24.503C42.0919 23.557 41.6899 22.617 40.9389 22.264C40.5659 22.088 39.9119 21.957 39.7329 22.022Z" fill="#222222"/>
</svg>
