<svg width="64" height="64" viewBox="0 0 64 64" fill="none" xmlns="http://www.w3.org/2000/svg">
<path fill-rule="evenodd" clip-rule="evenodd" d="M13.3329 8.74997C11.8869 8.83497 10.9019 9.04697 10.1029 9.44597C7.93894 10.528 6.58994 12.376 6.16294 14.842C5.96194 15.997 5.96394 52.736 6.16494 53.795C6.39094 54.991 6.68394 55.629 7.32494 56.322C7.964 57.0207 8.81299 57.4926 9.74379 57.6665C10.6746 57.8404 11.6367 57.7069 12.4849 57.286C13.4519 56.806 14.1029 56.328 17.8499 53.344C19.7769 51.81 21.5529 50.448 21.7969 50.317L22.2399 50.08L36.7999 50.013C46.1229 49.97 51.5539 49.907 51.8989 49.836C54.3499 49.336 56.0459 48.114 57.1099 46.083C57.6509 45.05 57.8059 44.313 57.9299 42.172C58.0859 39.48 57.9919 15.547 57.8219 14.679C57.3569 12.308 56.0239 10.528 53.9119 9.46197C53.0629 9.03297 52.1279 8.84097 50.3999 8.73997C48.4959 8.62897 15.2569 8.63797 13.3329 8.74997ZM52.0689 12.976C52.7029 13.269 53.3979 13.964 53.6909 14.597L53.9199 15.093V43.573L53.6909 44.069C53.3979 44.703 52.7029 45.398 52.0689 45.691L51.5729 45.92L36.7999 45.98C20.6009 46.046 21.7089 46.001 20.2049 46.666C19.3929 47.025 19.0849 47.252 15.2149 50.336C10.5459 54.058 10.5469 54.058 10.1869 53.509C10.0409 53.286 10.0259 51.206 10.0519 34.176L10.0799 15.093L10.3089 14.597C10.7259 13.697 11.5989 12.987 12.5149 12.804C12.7599 12.755 21.6479 12.722 32.2669 12.731L51.5729 12.747L52.0689 12.976ZM31.5059 19.405C31.0349 19.522 30.5639 19.883 30.2739 20.349C30.0309 20.739 30.0259 20.81 29.9929 24.02L29.9599 27.293L26.6779 27.326L23.3969 27.36L22.9649 27.646C22.3249 28.07 22.0439 28.589 22.0439 29.351C22.0439 29.874 22.0969 30.054 22.3559 30.421C22.9599 31.276 23.0829 31.302 26.7399 31.34L29.9599 31.374L29.9929 34.647C30.0259 37.857 30.0309 37.928 30.2739 38.318C31.2259 39.849 33.5369 39.498 33.9089 37.766C33.9789 37.44 34.0269 36.024 34.0269 34.288V31.36H36.9549C40.3829 31.36 40.8079 31.299 41.3869 30.72C42.4479 29.659 41.9469 27.794 40.5029 27.43C40.1889 27.351 38.9339 27.307 37.0189 27.307H34.0269L34.0239 24.347C34.0209 21.211 33.9559 20.634 33.5469 20.097C33.1209 19.54 32.2089 19.23 31.5059 19.405Z" fill="#222222"/>
</svg>
