<svg width="64" height="64" viewBox="0 0 64 64" fill="none" xmlns="http://www.w3.org/2000/svg">
<path fill-rule="evenodd" clip-rule="evenodd" d="M13.3331 8.74997C11.8871 8.83497 10.9021 9.04697 10.1031 9.44597C7.93906 10.528 6.59006 12.376 6.16306 14.842C5.96206 15.997 5.96406 52.736 6.16506 53.795C6.39106 54.991 6.68406 55.629 7.32506 56.322C7.96412 57.0207 8.81311 57.4926 9.74391 57.6665C10.6747 57.8404 11.6368 57.7069 12.4851 57.286C13.4521 56.806 14.1031 56.328 17.8501 53.344C19.7771 51.81 21.5531 50.448 21.7971 50.317L22.2401 50.08L36.8001 50.013C46.1231 49.97 51.5541 49.907 51.8991 49.836C54.3501 49.336 56.0461 48.114 57.1101 46.083C57.6511 45.05 57.8061 44.313 57.9301 42.172C58.0861 39.48 57.9921 15.547 57.8221 14.679C57.3571 12.308 56.0241 10.528 53.9121 9.46197C53.0631 9.03297 52.1281 8.84097 50.4001 8.73997C48.4961 8.62897 15.2571 8.63797 13.3331 8.74997ZM52.0691 12.976C52.7031 13.269 53.3981 13.964 53.6911 14.597L53.9201 15.093V43.573L53.6911 44.069C53.3981 44.703 52.7031 45.398 52.0691 45.691L51.5731 45.92L36.8001 45.98C20.6011 46.046 21.7091 46.001 20.2051 46.666C19.3931 47.025 19.0851 47.252 15.2151 50.336C10.5461 54.058 10.5471 54.058 10.1871 53.509C10.0411 53.286 10.0261 51.206 10.0521 34.176L10.0801 15.093L10.3091 14.597C10.7261 13.697 11.5991 12.987 12.5151 12.804C12.7601 12.755 21.6481 12.722 32.2671 12.731L51.5731 12.747L52.0691 12.976ZM23.5061 27.408C22.2161 27.716 21.5951 29.344 22.3561 30.421C22.5271 30.663 22.8591 30.961 23.0931 31.084C23.5141 31.303 23.6411 31.307 31.6741 31.337C37.3861 31.357 40.0011 31.331 40.4041 31.247C42.4061 30.831 42.4821 27.928 40.5031 27.43C39.9451 27.29 24.0881 27.269 23.5061 27.408Z" fill="#222222"/>
</svg>
