<svg width="64" height="64" viewBox="0 0 64 64" fill="none" xmlns="http://www.w3.org/2000/svg">
<path fill-rule="evenodd" clip-rule="evenodd" d="M30.24 6.08202C23.248 6.51902 16.511 9.96202 12.019 15.394C8.84799 19.229 6.92899 23.623 6.23499 28.64C6.02799 30.135 5.99999 33.434 6.18199 34.987C6.53739 37.9414 7.39116 40.8141 8.70699 43.483L9.50899 45.1L8.20299 49.03C6.93399 52.849 6.89699 52.987 6.88899 53.92C6.88099 54.723 6.91899 54.954 7.12099 55.33C7.47899 56.002 7.91899 56.455 8.55299 56.806C9.06799 57.091 9.20799 57.119 10.08 57.111C11.013 57.103 11.151 57.066 14.97 55.797L18.9 54.491L20.517 55.293C23.1859 56.6088 26.0586 57.4626 29.013 57.818C30.568 58 33.865 57.972 35.36 57.765C41.234 56.949 46.22 54.484 50.352 50.352C55.335 45.369 57.943 39.063 57.943 32C57.943 26.692 56.511 21.921 53.62 17.595C48.423 9.82202 39.636 5.49502 30.24 6.08202ZM34.563 10.138C37.7193 10.5222 40.7562 11.5802 43.4679 13.2405C46.1796 14.9008 48.5027 17.1245 50.28 19.761C51.727 21.9 53.037 25.007 53.539 27.491C53.869 29.121 53.973 30.208 53.973 32C53.973 35.551 53.272 38.574 51.719 41.713C49.531 46.135 46.135 49.531 41.713 51.719C38.592 53.263 35.544 53.974 32.056 53.972C28.233 53.97 25.413 53.283 21.813 51.475C19.079 50.103 19.406 50.096 14.827 51.612C12.867 52.261 11.25 52.779 11.235 52.764C11.219 52.748 11.719 51.202 12.346 49.328C13.434 46.077 13.487 45.878 13.49 45.013L13.493 44.107L12.527 42.187C10.718 38.594 10.03 35.771 10.028 31.944C10.026 28.47 10.726 25.455 12.26 22.33C13.702 19.392 15.535 17.085 18.177 14.882C21.068 12.471 25.327 10.657 29.29 10.148C30.345 10.013 33.5 10.007 34.563 10.138ZM26.172 24.742C25.707 24.853 25.232 25.214 24.95 25.67C24.674 26.116 24.622 27.081 24.849 27.52C24.925 27.667 25.927 28.735 27.076 29.893L29.166 32L27.076 34.107C25.927 35.265 24.925 36.333 24.849 36.48C24.773 36.626 24.711 37.015 24.711 37.345C24.711 38.663 25.82 39.513 27.17 39.228C27.643 39.128 27.838 38.964 29.84 36.979L32 34.838L34.16 36.979C36.156 38.958 36.358 39.129 36.827 39.227C38.371 39.553 39.553 38.371 39.227 36.827C39.129 36.358 38.958 36.156 36.979 34.16L34.838 32L36.979 29.84C38.958 27.844 39.129 27.642 39.227 27.173C39.472 26.014 38.857 24.992 37.775 24.76C37.477 24.696 37.172 24.663 37.097 24.686C37.022 24.71 36.817 24.76 36.643 24.799C36.42 24.849 35.681 25.509 34.163 27.016L32 29.162L29.84 27.024C27.9 25.103 27.629 24.874 27.179 24.763C26.629 24.628 26.648 24.628 26.172 24.742Z" fill="#222222"/>
</svg>
