<svg width="64" height="64" viewBox="0 0 64 64" fill="none" xmlns="http://www.w3.org/2000/svg">
<path fill-rule="evenodd" clip-rule="evenodd" d="M13.333 8.74997C11.887 8.83497 10.902 9.04697 10.103 9.44597C7.939 10.528 6.59 12.376 6.163 14.842C5.962 15.997 5.964 52.736 6.165 53.795C6.391 54.991 6.684 55.629 7.325 56.322C7.96406 57.0207 8.81305 57.4926 9.74385 57.6665C10.6747 57.8404 11.6368 57.7069 12.485 57.286C13.452 56.806 14.103 56.328 17.85 53.344C19.777 51.81 21.553 50.448 21.797 50.317L22.24 50.08L36.8 50.013C46.123 49.97 51.554 49.907 51.899 49.836C54.35 49.336 56.046 48.114 57.11 46.083C57.651 45.05 57.806 44.313 57.93 42.172C58.086 39.48 57.992 15.547 57.822 14.679C57.357 12.308 56.024 10.528 53.912 9.46197C53.063 9.03297 52.128 8.84097 50.4 8.73997C48.496 8.62897 15.257 8.63797 13.333 8.74997ZM52.069 12.976C52.703 13.269 53.398 13.964 53.691 14.597L53.92 15.093V43.573L53.691 44.069C53.398 44.703 52.703 45.398 52.069 45.691L51.573 45.92L36.8 45.98C20.601 46.046 21.709 46.001 20.205 46.666C19.393 47.025 19.085 47.252 15.215 50.336C10.546 54.058 10.547 54.058 10.187 53.509C10.041 53.286 10.026 51.206 10.052 34.176L10.08 15.093L10.309 14.597C10.726 13.697 11.599 12.987 12.515 12.804C12.76 12.755 21.648 12.722 32.267 12.731L51.573 12.747L52.069 12.976ZM26.172 22.075C25.707 22.186 25.232 22.547 24.95 23.003C24.674 23.449 24.622 24.415 24.849 24.854C24.925 25 25.927 26.068 27.076 27.227L29.166 29.333L27.076 31.44C25.927 32.599 24.925 33.666 24.849 33.813C24.773 33.959 24.711 34.349 24.711 34.678C24.711 35.996 25.82 36.846 27.17 36.561C27.643 36.462 27.838 36.297 29.84 34.313L32 32.171L34.16 34.313C36.156 36.292 36.358 36.462 36.827 36.561C38.371 36.886 39.553 35.704 39.227 34.16C39.129 33.692 38.958 33.49 36.979 31.493L34.838 29.333L36.979 27.173C38.958 25.177 39.129 24.975 39.227 24.507C39.472 23.347 38.857 22.325 37.775 22.093C37.477 22.029 37.172 21.996 37.097 22.02C37.022 22.043 36.817 22.094 36.643 22.132C36.42 22.182 35.681 22.842 34.163 24.349L32 26.495L29.84 24.357C27.9 22.437 27.629 22.207 27.179 22.096C26.629 21.961 26.648 21.961 26.172 22.075Z" fill="#222222"/>
</svg>
