<svg width="64" height="64" viewBox="0 0 64 64" fill="none" xmlns="http://www.w3.org/2000/svg">
<path fill-rule="evenodd" clip-rule="evenodd" d="M30.24 6.08398C20.329 6.71498 11.523 13.134 7.85497 22.4C6.44897 25.953 5.85997 29.666 6.08697 33.547C6.30197 37.2 7.09897 40.222 8.71097 43.483L9.50897 45.1L8.20297 49.03C6.93397 52.849 6.89697 52.987 6.88897 53.92C6.88097 54.723 6.91897 54.954 7.12097 55.33C7.47897 56.002 7.91897 56.455 8.55297 56.806C9.06797 57.091 9.20797 57.119 10.08 57.111C11.013 57.103 11.151 57.066 14.97 55.797L18.9 54.491L20.517 55.293C23.1859 56.6088 26.0586 57.4626 29.013 57.818C30.568 58 33.865 57.972 35.36 57.765C41.234 56.949 46.22 54.484 50.352 50.352C55.335 45.369 57.943 39.063 57.943 32C57.943 26.692 56.511 21.921 53.62 17.595C48.423 9.82298 39.616 5.48598 30.24 6.08398ZM34.563 10.138C37.7193 10.5221 40.7562 11.5802 43.4679 13.2404C46.1796 14.9007 48.5027 17.1245 50.28 19.761C51.727 21.9 53.037 25.007 53.539 27.491C53.869 29.121 53.973 30.208 53.973 32C53.973 35.551 53.272 38.574 51.719 41.713C49.531 46.135 46.135 49.531 41.713 51.719C38.592 53.263 35.544 53.974 32.056 53.972C28.233 53.97 25.413 53.283 21.813 51.475C19.079 50.103 19.406 50.096 14.827 51.612C12.867 52.261 11.25 52.779 11.235 52.764C11.219 52.748 11.719 51.202 12.346 49.328C13.434 46.077 13.487 45.878 13.49 45.013L13.493 44.107L12.527 42.187C10.718 38.594 10.03 35.771 10.028 31.944C10.026 28.47 10.726 25.455 12.26 22.33C13.702 19.392 15.535 17.085 18.177 14.882C21.068 12.471 25.327 10.657 29.29 10.148C30.345 10.013 33.5 10.007 34.563 10.138Z" fill="#222222"/>
</svg>
