<svg width="64" height="64" viewBox="0 0 64 64" fill="none" xmlns="http://www.w3.org/2000/svg">
<path fill-rule="evenodd" clip-rule="evenodd" d="M51.307 15.096C51.072 15.201 45.906 20.288 37.386 28.804L23.838 42.346L17.919 36.421C14.664 33.163 11.837 30.395 11.639 30.271C11.126 29.95 10.195 29.958 9.661 30.289C9.037 30.674 8.711 31.255 8.711 31.979C8.711 32.314 8.772 32.707 8.847 32.854C9.066 33.281 22.519 46.713 22.956 46.941C23.434 47.189 24.182 47.207 24.72 46.982C25.199 46.782 53.645 18.382 53.918 17.831C54.158 17.348 54.149 16.404 53.901 15.981C53.7399 15.7385 53.5437 15.5211 53.319 15.336C52.833 14.943 51.896 14.832 51.307 15.096Z" fill="#222222"/>
</svg>
