<svg width="64" height="64" viewBox="0 0 64 64" fill="none" xmlns="http://www.w3.org/2000/svg">
<path fill-rule="evenodd" clip-rule="evenodd" d="M59.307 15.096C59.072 15.201 53.906 20.288 45.386 28.804L31.838 42.346L25.919 36.421C22.664 33.163 19.837 30.395 19.639 30.271C19.126 29.95 18.195 29.958 17.661 30.289C17.037 30.674 16.711 31.255 16.711 31.979C16.711 32.314 16.772 32.707 16.847 32.854C17.066 33.281 30.519 46.713 30.956 46.941C31.434 47.189 32.182 47.207 32.72 46.982C33.199 46.782 61.645 18.382 61.918 17.831C62.158 17.348 62.149 16.404 61.901 15.981C61.7399 15.7385 61.5438 15.5211 61.319 15.336C60.833 14.943 59.896 14.832 59.307 15.096ZM46.246 15.199C45.914 15.317 44.272 16.9 38.528 22.635C33.568 27.587 31.168 30.057 31.032 30.347C30.277 31.954 31.863 33.662 33.522 33.028C33.886 32.889 35.418 31.411 41.352 25.468C48.035 18.776 48.741 18.036 48.854 17.61C49.137 16.533 48.531 15.44 47.49 15.151C46.976 15.009 46.758 15.017 46.246 15.199ZM4.64002 30.338C4.24202 30.515 3.78302 30.997 3.63302 31.394C3.45702 31.86 3.49902 32.608 3.72602 33.044C3.84002 33.264 6.98202 36.484 10.792 40.286C15.933 45.416 17.734 47.15 17.973 47.202C18.149 47.24 18.355 47.29 18.43 47.314C18.506 47.337 18.811 47.304 19.108 47.24C20.188 47.008 20.803 45.99 20.563 44.827C20.463 44.339 20.208 44.068 13.616 37.459C9.81202 33.644 6.59802 30.507 6.37802 30.392C5.91702 30.153 5.11102 30.128 4.64002 30.338Z" fill="#222222"/>
</svg>
