<svg width="64" height="64" viewBox="0 0 64 64" fill="none" xmlns="http://www.w3.org/2000/svg">
<path fill-rule="evenodd" clip-rule="evenodd" d="M16 8.75003C14.553 8.83503 13.569 9.04703 12.769 9.44603C10.671 10.496 9.31402 12.305 8.84302 14.679C8.75302 15.132 8.70602 19.512 8.67302 30.453C8.62502 45.948 8.67602 48.793 9.02102 50.08C9.63802 52.384 11.664 54.391 13.973 54.987C15.2 55.304 17.604 55.353 32 55.353C46.396 55.353 48.8 55.304 50.027 54.987C52.336 54.391 54.362 52.384 54.979 50.08C55.324 48.793 55.375 45.948 55.327 30.453C55.294 19.512 55.247 15.132 55.157 14.679C54.686 12.3 53.357 10.528 51.246 9.46203C50.396 9.03303 49.461 8.84103 47.733 8.74003C45.832 8.62903 17.925 8.63803 16 8.75003ZM49.403 12.976C50.036 13.269 50.731 13.964 51.024 14.597L51.253 15.093V48.907L51.024 49.403C50.731 50.036 50.036 50.731 49.403 51.024L48.907 51.253H15.093L14.597 51.024C13.964 50.731 13.269 50.036 12.976 49.403L12.747 48.907V15.093L12.976 14.597C13.392 13.697 14.265 12.987 15.181 12.804C15.426 12.755 23.115 12.722 32.267 12.731L48.907 12.747L49.403 12.976Z" fill="#222222"/>
</svg>
