<svg width="64" height="64" viewBox="0 0 64 64" fill="none" xmlns="http://www.w3.org/2000/svg">
<path fill-rule="evenodd" clip-rule="evenodd" d="M41.5321 20.053C41.2877 20.1196 41.0541 20.2206 40.8381 20.353C40.2381 20.728 31.6921 29.492 31.5171 29.911C31.2351 30.586 31.3861 31.491 31.8711 32.038C32.3701 32.6 33.4311 32.785 34.1891 32.441C34.7541 32.184 43.4901 23.336 43.7571 22.75C44.4071 21.324 43.0721 19.705 41.5321 20.053ZM54.8801 20.047C54.7041 20.089 54.4401 20.184 54.2931 20.26C54.1471 20.335 49.2151 25.203 43.3331 31.078L32.6401 41.759L27.6001 36.73C24.8281 33.964 22.4061 31.624 22.2191 31.53C21.4501 31.147 20.2191 31.424 19.7461 32.088C19.5171 32.41 19.2781 33.275 19.3521 33.514C19.3761 33.591 19.4271 33.797 19.4651 33.973C19.5591 34.407 31.2081 46.114 31.8401 46.409C32.0882 46.534 32.3622 46.5991 32.6401 46.5991C32.9179 46.5991 33.1919 46.534 33.4401 46.409C33.7351 46.271 37.4571 42.613 45.4591 34.598C56.0391 24.001 57.0621 22.946 57.1741 22.516C57.4541 21.449 56.8331 20.327 55.8401 20.105C55.2521 19.974 55.2011 19.97 54.8801 20.047ZM7.02208 31.576C6.80708 31.69 6.53208 31.921 6.41308 32.089C6.18408 32.41 5.94508 33.276 6.01908 33.514C6.04308 33.591 6.09308 33.797 6.13208 33.973C6.22608 34.407 17.8751 46.114 18.5071 46.409C20.0251 47.119 21.6151 45.744 21.2121 44.071C21.1001 43.605 20.7131 43.193 15.2131 37.672C11.9651 34.412 9.15608 31.679 8.93808 31.565C8.41808 31.296 7.54308 31.301 7.02208 31.576Z" fill="#222222"/>
</svg>
