<svg width="64" height="64" viewBox="0 0 64 64" fill="none" xmlns="http://www.w3.org/2000/svg">
<path fill-rule="evenodd" clip-rule="evenodd" d="M16 8.75003C14.553 8.83503 13.569 9.04703 12.769 9.44603C10.671 10.496 9.31402 12.305 8.84302 14.679C8.75302 15.132 8.70602 19.512 8.67302 30.453C8.62502 45.948 8.67602 48.793 9.02102 50.08C9.63802 52.384 11.664 54.391 13.973 54.987C15.2 55.304 17.604 55.353 32 55.353C46.396 55.353 48.8 55.304 50.027 54.987C52.336 54.391 54.362 52.384 54.979 50.08C55.324 48.793 55.375 45.948 55.327 30.453C55.294 19.512 55.247 15.132 55.157 14.679C54.686 12.3 53.357 10.528 51.246 9.46203C50.396 9.03303 49.461 8.84103 47.733 8.74003C45.832 8.62903 17.925 8.63803 16 8.75003ZM49.403 12.976C50.036 13.269 50.731 13.964 51.024 14.597L51.253 15.093V48.907L51.024 49.403C50.731 50.036 50.036 50.731 49.403 51.024L48.907 51.253H15.093L14.597 51.024C13.964 50.731 13.269 50.036 12.976 49.403L12.747 48.907V15.093L12.976 14.597C13.392 13.697 14.265 12.987 15.181 12.804C15.426 12.755 23.115 12.722 32.267 12.731L48.907 12.747L49.403 12.976ZM26.293 22.071C25.415 22.161 24.854 22.334 24.267 22.695C23.2876 23.2968 22.5607 24.2345 22.222 25.333C22.043 25.921 22.027 26.462 22.027 32C22.027 37.517 22.043 38.08 22.22 38.653C22.4431 39.3906 22.8447 40.0617 23.3893 40.6069C23.9339 41.152 24.6047 41.5543 25.342 41.778C25.922 41.957 26.465 41.973 32 41.973C38.707 41.973 38.677 41.976 39.831 41.236C41.074 40.439 41.744 39.286 41.916 37.652C42.055 36.338 42.055 27.662 41.916 26.348C41.745 24.716 41.073 23.561 39.835 22.767C38.71 22.045 38.733 22.047 32.587 22.02C29.536 22.006 26.704 22.029 26.293 22.071ZM37.778 26.203C37.963 26.37 37.973 26.69 37.973 31.981C37.973 37.044 37.956 37.602 37.797 37.778C37.63 37.963 37.31 37.973 32.019 37.973C26.956 37.973 26.398 37.956 26.222 37.797C26.037 37.63 26.027 37.31 26.027 32.019C26.027 26.956 26.044 26.398 26.203 26.222C26.37 26.037 26.69 26.027 31.981 26.027C37.044 26.027 37.602 26.044 37.778 26.203Z" fill="#222222"/>
</svg>
