<svg width="64" height="64" viewBox="0 0 64 64" fill="none" xmlns="http://www.w3.org/2000/svg">
<path fill-rule="evenodd" clip-rule="evenodd" d="M49.653 18.717C49.595 18.738 49.403 18.786 49.227 18.824C48.985 18.876 46.27 21.528 38.107 29.685L27.307 40.477L22.213 35.397C19.412 32.603 17 30.256 16.854 30.181C16.707 30.106 16.314 30.044 15.979 30.044C15.255 30.044 14.674 30.371 14.289 30.994C13.959 31.528 13.95 32.46 14.27 32.972C14.558 33.432 26.096 44.943 26.453 45.126C26.824 45.316 27.827 45.296 28.213 45.091C28.389 44.997 33.75 39.698 40.125 33.314C52.172 21.251 51.945 21.492 51.945 20.693C51.945 20.06 51.443 19.223 50.894 18.942C50.598 18.791 49.835 18.652 49.653 18.717Z" fill="#222222"/>
</svg>
