<svg width="64" height="64" viewBox="0 0 64 64" fill="none" xmlns="http://www.w3.org/2000/svg">
<path fill-rule="evenodd" clip-rule="evenodd" d="M16 8.75003C14.553 8.83503 13.569 9.04703 12.769 9.44603C10.671 10.496 9.31401 12.305 8.84301 14.679C8.67301 15.537 8.57901 44.786 8.73801 47.52C8.85501 49.539 9.01401 50.359 9.46301 51.248C10.528 53.357 12.301 54.686 14.679 55.157C15.132 55.247 19.512 55.294 30.453 55.327C45.948 55.375 48.793 55.324 50.08 54.979C52.357 54.369 54.369 52.357 54.979 50.08C55.324 48.793 55.375 45.948 55.327 30.453C55.294 19.512 55.247 15.132 55.157 14.679C54.686 12.3 53.357 10.528 51.246 9.46203C50.396 9.03303 49.461 8.84103 47.733 8.74003C45.832 8.62903 17.925 8.63803 16 8.75003ZM49.403 12.976C50.036 13.269 50.731 13.964 51.024 14.597L51.253 15.093V48.907L51.024 49.403C50.731 50.036 50.036 50.731 49.403 51.024L48.907 51.253H15.093L14.597 51.024C13.964 50.731 13.269 50.036 12.976 49.403L12.747 48.907V15.093L12.976 14.597C13.392 13.697 14.265 12.987 15.181 12.804C15.426 12.755 23.115 12.722 32.267 12.731L48.907 12.747L49.403 12.976ZM42.293 22.047C41.575 22.228 41.261 22.572 35.294 29.733L29.204 37.039L25.829 33.679C23.972 31.83 22.334 30.257 22.187 30.181C22.041 30.106 21.647 30.044 21.313 30.044C20.588 30.044 20.007 30.371 19.622 30.994C19.292 31.528 19.283 32.459 19.603 32.972C19.727 33.171 21.739 35.236 24.074 37.562C28.118 41.59 28.344 41.796 28.827 41.896C29.487 42.033 30.164 41.887 30.593 41.515C30.776 41.356 33.969 37.569 37.689 33.098C45.067 24.231 44.846 24.537 44.578 23.543C44.426 22.976 44.144 22.579 43.705 22.312C43.337 22.089 42.645 21.959 42.293 22.047Z" fill="#222222"/>
</svg>
