<svg width="64" height="64" viewBox="0 0 64 64" fill="none" xmlns="http://www.w3.org/2000/svg">
<path fill-rule="evenodd" clip-rule="evenodd" d="M31.733 22.022C31.5929 22.0653 31.4507 22.1016 31.307 22.131C31.065 22.183 28.631 24.553 21.408 31.767C16.14 37.028 11.728 41.496 11.604 41.695C11.286 42.203 11.292 43.139 11.616 43.663C12.086 44.423 12.906 44.755 13.836 44.564C14.331 44.462 14.612 44.194 23.173 35.644L32 26.83L40.827 35.644C49.366 44.172 49.67 44.463 50.16 44.563C51.707 44.881 52.881 43.707 52.563 42.16C52.463 41.669 52.157 41.351 42.845 32.027C37.557 26.732 33.085 22.332 32.908 22.249C32.561 22.086 31.906 21.959 31.733 22.022Z" fill="#222222"/>
</svg>
