<svg width="64" height="64" viewBox="0 0 64 64" fill="none" xmlns="http://www.w3.org/2000/svg">
<path fill-rule="evenodd" clip-rule="evenodd" d="M37.0669 19.357C36.9261 19.3987 36.7836 19.4347 36.6399 19.465C36.4019 19.517 34.8909 20.96 30.7409 25.101C27.6729 28.162 25.0609 30.829 24.9369 31.028C24.7749 31.286 24.7109 31.563 24.7109 32C24.7109 32.437 24.7749 32.714 24.9369 32.972C25.0609 33.171 27.6729 35.836 30.7409 38.896C36.0929 44.232 36.3409 44.462 36.8269 44.563C38.3729 44.882 39.5489 43.706 39.2289 42.16C39.1289 41.676 38.9129 41.441 34.3119 36.827L29.4989 32L34.3119 27.173C38.9249 22.546 39.1289 22.326 39.2299 21.836C39.4179 20.926 39.0869 20.081 38.3709 19.645C38.0399 19.444 37.2889 19.278 37.0669 19.357Z" fill="#222222"/>
</svg>
