<svg width="64" height="64" viewBox="0 0 64 64" fill="none" xmlns="http://www.w3.org/2000/svg">
<path fill-rule="evenodd" clip-rule="evenodd" d="M20.8389 16.742C20.3739 16.853 19.8979 17.214 19.6159 17.67C19.2919 18.194 19.2859 19.13 19.6029 19.639C19.7269 19.837 22.3389 22.503 25.4079 25.562C30.7599 30.899 31.0069 31.129 31.4929 31.23C31.8229 31.298 32.1769 31.298 32.5069 31.23C32.9939 31.13 33.2339 30.906 38.7369 25.403C44.2389 19.901 44.4639 19.66 44.5639 19.173C44.8019 18.01 44.1879 16.991 43.1079 16.76C42.8109 16.696 42.5059 16.663 42.4299 16.686C42.2788 16.7285 42.1264 16.7662 41.9729 16.799C41.7359 16.85 40.4049 18.114 36.8269 21.685L31.9999 26.501L27.1729 21.689C22.3849 16.914 22.3419 16.875 21.7809 16.758C21.5874 16.7129 21.3919 16.6772 21.1949 16.651C21.0771 16.6845 20.9584 16.7149 20.8389 16.742ZM20.8389 32.742C20.3739 32.853 19.8979 33.214 19.6159 33.67C19.2919 34.194 19.2859 35.13 19.6029 35.639C19.7269 35.837 22.3389 38.503 25.4079 41.562C30.7599 46.899 31.0069 47.129 31.4929 47.23C31.8229 47.298 32.1769 47.298 32.5069 47.23C32.9939 47.13 33.2339 46.906 38.7369 41.403C44.2389 35.901 44.4639 35.66 44.5639 35.173C44.8019 34.01 44.1879 32.991 43.1079 32.76C42.8109 32.696 42.5059 32.663 42.4299 32.686C42.2788 32.7285 42.1264 32.7662 41.9729 32.799C41.7359 32.85 40.4049 34.114 36.8269 37.685L31.9999 42.501L27.1729 37.689C22.3849 32.914 22.3419 32.875 21.7809 32.758C21.5874 32.7129 21.3919 32.6772 21.1949 32.651C21.0771 32.6845 20.9584 32.7149 20.8389 32.742Z" fill="#222222"/>
</svg>
