<svg width="64" height="64" viewBox="0 0 64 64" fill="none" xmlns="http://www.w3.org/2000/svg">
<path fill-rule="evenodd" clip-rule="evenodd" d="M12.8391 22.075C12.3741 22.186 11.8981 22.547 11.6161 23.003C11.2921 23.528 11.2861 24.464 11.6041 24.972C11.7281 25.171 16.1401 29.637 21.4081 34.896C30.6841 44.157 31.0031 44.463 31.4931 44.563C31.8221 44.631 32.1781 44.631 32.5071 44.564C32.9981 44.464 33.3101 44.163 42.7371 34.737C52.1631 25.31 52.4641 24.998 52.5641 24.507C52.7961 23.371 52.2041 22.357 51.1541 22.093C50.8751 22.023 50.5671 21.987 50.4701 22.013C50.3731 22.039 50.1491 22.092 49.9731 22.13C49.7331 22.183 47.4611 24.39 40.8271 31.018L32.0001 39.837L23.1731 31.025C14.8261 22.693 14.3191 22.207 13.8461 22.094C13.2951 21.961 13.3141 21.962 12.8391 22.075Z" fill="#222222"/>
</svg>
