<svg width="64" height="64" viewBox="0 0 64 64" fill="none" xmlns="http://www.w3.org/2000/svg">
<path fill-rule="evenodd" clip-rule="evenodd" d="M31.733 16.693C31.675 16.712 31.483 16.759 31.307 16.798C31.069 16.85 29.557 18.294 25.408 22.434C22.339 25.495 19.727 28.163 19.603 28.361C19.286 28.87 19.292 29.806 19.616 30.33C20.086 31.09 20.907 31.422 21.836 31.23C22.326 31.129 22.546 30.925 27.173 26.312L32 21.499L36.827 26.312C41.441 30.913 41.676 31.129 42.16 31.229C43.706 31.549 44.882 30.374 44.563 28.827C44.462 28.34 44.232 28.093 38.846 22.694C35.759 19.6 33.088 17.002 32.91 16.92C32.564 16.761 31.909 16.635 31.733 16.693ZM31.733 32.693C31.675 32.712 31.483 32.759 31.307 32.798C31.069 32.85 29.557 34.294 25.408 38.434C22.339 41.495 19.727 44.163 19.603 44.361C19.286 44.87 19.292 45.806 19.616 46.33C20.086 47.09 20.907 47.422 21.836 47.23C22.326 47.129 22.546 46.925 27.173 42.312L32 37.499L36.827 42.312C41.441 46.913 41.676 47.129 42.16 47.229C43.706 47.549 44.882 46.374 44.563 44.827C44.462 44.34 44.232 44.093 38.846 38.694C35.759 35.6 33.088 33.002 32.91 32.92C32.564 32.761 31.909 32.635 31.733 32.693Z" fill="#222222"/>
</svg>
