<svg width="64" height="64" viewBox="0 0 64 64" fill="none" xmlns="http://www.w3.org/2000/svg">
<path fill-rule="evenodd" clip-rule="evenodd" d="M39.7331 11.357C39.6751 11.378 39.4831 11.426 39.3071 11.464C39.0651 11.516 36.6311 13.886 29.4081 21.1C24.1401 26.362 19.7281 30.829 19.6041 31.028C19.2921 31.526 19.2921 32.474 19.6041 32.972C19.7281 33.171 24.1401 37.637 29.4081 42.896C38.6841 52.157 39.0031 52.463 39.4931 52.563C41.0411 52.881 42.2151 51.707 41.8971 50.16C41.7961 49.67 41.5061 49.366 32.9781 40.827L24.1631 32L32.9781 23.173C41.5281 14.612 41.7961 14.331 41.8971 13.836C42.0851 12.925 41.7531 12.08 41.0381 11.645C40.7071 11.444 39.9551 11.278 39.7331 11.357Z" fill="#222222"/>
</svg>
