<svg width="64" height="64" viewBox="0 0 64 64" fill="none" xmlns="http://www.w3.org/2000/svg">
<path fill-rule="evenodd" clip-rule="evenodd" d="M29.0669 19.357C28.9261 19.3987 28.7836 19.4347 28.6399 19.465C28.4019 19.517 26.8909 20.96 22.7409 25.101C19.6729 28.162 17.0609 30.829 16.9369 31.028C16.7749 31.286 16.7109 31.563 16.7109 32C16.7109 32.437 16.7749 32.714 16.9369 32.972C17.0609 33.171 19.6729 35.836 22.7409 38.896C28.0929 44.232 28.3409 44.462 28.8269 44.563C30.3729 44.882 31.5489 43.706 31.2289 42.16C31.1289 41.676 30.9129 41.441 26.3119 36.827L21.4989 32L26.3119 27.173C30.9249 22.546 31.1289 22.326 31.2299 21.836C31.4179 20.926 31.0869 20.081 30.3709 19.645C30.0399 19.444 29.2889 19.278 29.0669 19.357ZM45.0669 19.357C44.9261 19.3987 44.7836 19.4347 44.6399 19.465C44.4019 19.517 42.8909 20.96 38.7409 25.101C35.6729 28.162 33.0609 30.829 32.9369 31.028C32.7749 31.286 32.7109 31.563 32.7109 32C32.7109 32.437 32.7749 32.714 32.9369 32.972C33.0609 33.171 35.6729 35.836 38.7409 38.896C44.0929 44.232 44.3409 44.462 44.8269 44.563C46.3729 44.882 47.5489 43.706 47.2289 42.16C47.1289 41.676 46.9129 41.441 42.3119 36.827L37.4989 32L42.3119 27.173C46.9249 22.546 47.1289 22.326 47.2299 21.836C47.4179 20.926 47.0869 20.081 46.3709 19.645C46.0399 19.444 45.2889 19.278 45.0669 19.357Z" fill="#222222"/>
</svg>
