<svg width="64" height="64" viewBox="0 0 64 64" fill="none" xmlns="http://www.w3.org/2000/svg">
<path fill-rule="evenodd" clip-rule="evenodd" d="M18.1719 19.406C17.7049 19.521 17.2309 19.882 16.9499 20.337C16.6749 20.781 16.6219 21.746 16.8479 22.187C16.9229 22.334 19.1259 24.601 21.7439 27.227L26.5029 32L21.7439 36.773C19.1259 39.399 16.9229 41.666 16.8479 41.813C16.7729 41.959 16.7109 42.357 16.7109 42.696C16.7109 43.206 16.7649 43.39 17.0219 43.754C17.1929 43.996 17.5149 44.288 17.7369 44.403C18.2319 44.659 19.0359 44.674 19.5349 44.438C19.7389 44.341 22.3699 41.788 25.5129 38.639C30.8989 33.24 31.1289 32.993 31.2299 32.507C31.2979 32.1724 31.2979 31.8276 31.2299 31.493C31.1289 31.007 30.8989 30.76 25.5619 25.408C22.5029 22.339 19.8559 19.74 19.6799 19.632C19.2929 19.395 18.6269 19.295 18.1719 19.406ZM34.1719 19.406C33.7049 19.521 33.2309 19.882 32.9499 20.337C32.6749 20.781 32.6219 21.746 32.8479 22.187C32.9229 22.334 35.1259 24.601 37.7439 27.227L42.5029 32L37.7439 36.773C35.1259 39.399 32.9229 41.666 32.8479 41.813C32.7729 41.959 32.7109 42.357 32.7109 42.696C32.7109 43.206 32.7649 43.39 33.0219 43.754C33.1929 43.996 33.5149 44.288 33.7369 44.403C34.2319 44.659 35.0359 44.674 35.5349 44.438C35.7389 44.341 38.3699 41.788 41.5129 38.639C46.8989 33.24 47.1289 32.993 47.2299 32.507C47.2979 32.1724 47.2979 31.8276 47.2299 31.493C47.1289 31.007 46.8989 30.76 41.5619 25.408C38.5029 22.339 35.8559 19.74 35.6799 19.632C35.2929 19.395 34.6269 19.295 34.1719 19.406Z" fill="#222222"/>
</svg>
