<svg width="64" height="64" viewBox="0 0 64 64" fill="none" xmlns="http://www.w3.org/2000/svg">
<path fill-rule="evenodd" clip-rule="evenodd" d="M23.5061 11.406C23.0391 11.521 22.5641 11.882 22.2831 12.337C22.0081 12.781 21.9551 13.746 22.1801 14.187C22.2551 14.334 26.2591 18.401 31.0771 23.227L39.8381 32L31.0771 40.773C26.2591 45.599 22.2551 49.666 22.1801 49.813C22.1061 49.959 22.0441 50.357 22.0441 50.696C22.0441 51.206 22.0981 51.39 22.3561 51.754C22.5271 51.996 22.8481 52.288 23.0701 52.403C23.5651 52.658 24.3691 52.674 24.8661 52.439C25.0741 52.34 29.3671 48.124 34.8451 42.64C44.1571 33.316 44.4631 32.997 44.5631 32.507C44.6311 32.177 44.6311 31.823 44.5631 31.493C44.4631 31.003 44.1571 30.684 34.8961 21.408C29.6371 16.14 25.1891 11.741 25.0131 11.633C24.6261 11.395 23.9601 11.294 23.5061 11.406Z" fill="#222222"/>
</svg>
