<svg width="64" height="64" viewBox="0 0 64 64" fill="none" xmlns="http://www.w3.org/2000/svg">
<path fill-rule="evenodd" clip-rule="evenodd" d="M26.172 19.406C25.705 19.521 25.231 19.882 24.95 20.337C24.675 20.781 24.622 21.746 24.848 22.187C24.923 22.334 27.126 24.601 29.744 27.227L34.503 32L29.744 36.773C27.126 39.399 24.923 41.666 24.848 41.813C24.773 41.959 24.711 42.357 24.711 42.696C24.711 43.206 24.765 43.39 25.022 43.754C25.193 43.996 25.515 44.288 25.737 44.403C26.232 44.659 27.036 44.674 27.535 44.438C27.739 44.341 30.37 41.788 33.513 38.639C38.899 33.24 39.129 32.993 39.23 32.507C39.298 32.1724 39.298 31.8276 39.23 31.493C39.129 31.007 38.899 30.76 33.562 25.408C30.503 22.339 27.856 19.74 27.68 19.632C27.293 19.395 26.627 19.295 26.172 19.406Z" fill="#222222"/>
</svg>
