<svg width="64" height="64" viewBox="0 0 64 64" fill="none" xmlns="http://www.w3.org/2000/svg">
<path fill-rule="evenodd" clip-rule="evenodd" d="M13.333 11.417C11.401 11.53 10.349 11.848 9.12699 12.689C8.01199 13.456 6.92399 14.867 6.51699 16.075C6.17399 17.093 6.07299 18.027 6.04899 20.377C6.02999 22.236 6.05299 22.607 6.20299 22.88C6.55899 23.526 7.31999 24 7.99999 24C8.41199 24 9.04199 23.74 9.36899 23.435C9.91699 22.923 9.95799 22.717 10.028 20.16C10.085 18.042 10.119 17.702 10.316 17.264C10.599 16.634 11.293 15.938 11.931 15.643L12.427 15.413H51.573L52.069 15.643C52.703 15.936 53.398 16.63 53.691 17.264L53.92 17.76V46.24L53.691 46.736C53.398 47.37 52.703 48.064 52.069 48.357C51.581 48.583 51.463 48.587 44.16 48.64L36.747 48.693L36.339 48.946C35.693 49.348 35.378 49.916 35.378 50.676C35.378 51.209 35.429 51.386 35.689 51.754C35.86 51.996 36.192 52.295 36.427 52.417C36.841 52.634 37.012 52.641 42.56 52.672C48.577 52.707 51.687 52.597 52.747 52.313C55.024 51.703 57.036 49.691 57.646 47.413C57.984 46.152 58.044 43.246 57.994 30.439C57.96 21.638 57.909 17.789 57.822 17.345C57.357 14.974 56.024 13.195 53.912 12.129C53.063 11.7 52.128 11.508 50.4 11.407C48.496 11.296 15.257 11.305 13.333 11.417ZM7.50599 27.409C6.21699 27.714 5.59499 29.344 6.35599 30.421C6.85199 31.123 7.23899 31.262 8.98799 31.366C13.92 31.66 18.201 33.571 21.648 37.019C25.108 40.478 27.02 44.778 27.3 49.727C27.375 51.056 27.424 51.352 27.622 51.672C28.545 53.166 30.874 52.818 31.235 51.131C31.367 50.515 31.232 48.132 30.983 46.702C30.061 41.383 27.182 36.324 23.148 32.932C19.639 29.981 15.242 28.046 10.88 27.532C9.57599 27.378 7.89499 27.317 7.50599 27.409ZM7.50599 35.407C6.21499 35.719 5.59499 37.344 6.35599 38.421C6.81799 39.075 7.24199 39.246 8.69199 39.364C9.37899 39.42 10.236 39.54 10.597 39.631C14.789 40.681 17.986 43.88 19.038 48.078C19.13 48.444 19.249 49.322 19.303 50.028C19.379 51.037 19.449 51.393 19.628 51.681C20.539 53.156 22.877 52.812 23.231 51.15C23.357 50.559 23.232 48.727 22.981 47.498C21.796 41.694 16.972 36.859 11.2 35.694C9.91499 35.435 8.00399 35.287 7.50599 35.407ZM7.50599 43.408C6.21599 43.716 5.59499 45.344 6.35599 46.421C6.74299 46.968 7.22799 47.225 8.05299 47.318C9.03199 47.428 9.71699 47.726 10.295 48.295C10.928 48.918 11.195 49.502 11.325 50.547C11.475 51.758 11.938 52.357 12.887 52.57C13.958 52.811 15.015 52.163 15.234 51.131C15.445 50.14 15.101 48.366 14.483 47.253C13.477 45.444 11.841 44.118 10.027 43.642C9.09499 43.398 7.98199 43.294 7.50599 43.408Z" fill="#222222"/>
</svg>
