<svg width="64" height="64" viewBox="0 0 64 64" fill="none" xmlns="http://www.w3.org/2000/svg">
<path fill-rule="evenodd" clip-rule="evenodd" d="M30.24 6.08195C25.83 6.35795 21.325 7.88495 17.629 10.357C9.00404 16.127 4.66204 26.2319 6.40704 36.4799C8.14804 46.7029 16.087 55.0519 26.24 57.3359C29.955 58.1719 34.054 58.1689 37.803 57.327C46.572 55.3579 53.762 48.826 56.651 40.2029C58.12 35.819 58.366 30.816 57.336 26.24C55.154 16.54 47.46 8.84595 37.76 6.66395C35.44 6.14195 32.688 5.92895 30.24 6.08195ZM34.563 10.1379C37.7194 10.5221 40.7562 11.5801 43.4679 13.2404C46.1796 14.9007 48.5028 17.1244 50.28 19.761C51.727 21.9 53.037 25.007 53.539 27.4909C53.869 29.1209 53.973 30.208 53.973 32C53.973 35.551 53.272 38.574 51.719 41.713C49.531 46.135 46.135 49.531 41.713 51.719C38.574 53.272 35.551 53.9729 32 53.9729C28.467 53.9729 25.485 53.2859 22.33 51.743C15.622 48.464 11.062 42.0379 10.138 34.563C9.99504 33.4 9.99504 30.6 10.138 29.437C10.66 25.219 12.424 21.11 15.062 17.9729C16.0104 16.8557 17.0525 15.8216 18.177 14.882C21.068 12.471 25.327 10.6569 29.29 10.148C30.345 10.013 33.5 10.0069 34.563 10.1379ZM30.984 20.846C30.744 20.99 30.44 21.306 30.291 21.565L30.027 22.027V27.787C30.027 30.955 30.063 33.675 30.107 33.832C30.303 34.531 31.226 35.195 32 35.195C32.774 35.195 33.697 34.531 33.893 33.832C33.937 33.675 33.973 30.955 33.973 27.787V22.027L33.69 21.5459C33.139 20.608 31.911 20.29 30.984 20.846ZM30.987 39.431C30.251 39.82 29.873 40.455 29.869 41.31C29.863 42.611 30.676 43.4129 32 43.4129C33.313 43.4129 34.133 42.6129 34.133 41.333C34.133 40.041 33.311 39.249 31.978 39.2579C31.579 39.2599 31.177 39.3299 30.987 39.431Z" fill="#222222"/>
</svg>
