<svg width="64" height="64" viewBox="0 0 64 64" fill="none" xmlns="http://www.w3.org/2000/svg">
<path fill-rule="evenodd" clip-rule="evenodd" d="M30.24 6.08195C25.83 6.35795 21.325 7.88495 17.629 10.357C9.00404 16.127 4.66204 26.2319 6.40704 36.4799C8.14804 46.7029 16.087 55.0519 26.24 57.3359C29.955 58.1719 34.054 58.1689 37.803 57.327C46.572 55.3579 53.762 48.826 56.651 40.2029C58.12 35.819 58.366 30.816 57.336 26.24C55.154 16.54 47.46 8.84595 37.76 6.66395C35.44 6.14195 32.688 5.92895 30.24 6.08195ZM34.563 10.1379C37.7194 10.5221 40.7562 11.5801 43.4679 13.2404C46.1796 14.9007 48.5028 17.1244 50.28 19.761C51.727 21.9 53.037 25.007 53.539 27.4909C53.869 29.1209 53.973 30.208 53.973 32C53.973 35.551 53.272 38.574 51.719 41.713C49.531 46.135 46.135 49.531 41.713 51.719C38.574 53.272 35.551 53.9729 32 53.9729C28.467 53.9729 25.485 53.2859 22.33 51.743C15.622 48.464 11.062 42.0379 10.138 34.563C9.99504 33.4 9.99504 30.6 10.138 29.437C10.66 25.219 12.424 21.11 15.062 17.9729C16.0104 16.8557 17.0525 15.8216 18.177 14.882C21.068 12.471 25.327 10.6569 29.29 10.148C30.345 10.013 33.5 10.0069 34.563 10.1379ZM30.88 16.745C27.539 17.127 24.596 19.17 23.11 22.135C22.373 23.606 22.258 24.264 22.604 25.0259C22.995 25.886 23.939 26.321 24.891 26.079C25.556 25.91 26.057 25.415 26.346 24.641C27.048 22.764 28.831 21.1939 30.699 20.8099C32.76 20.3849 34.77 20.981 36.213 22.443C37.382 23.628 37.973 25.0339 37.973 26.6299C37.973 27.6619 37.81 28.379 37.367 29.2929C36.427 31.2349 34.68 32.401 32.348 32.643C31.173 32.764 30.751 32.969 30.313 33.632C30.029 34.061 30.027 34.079 30.027 35.992C30.027 37.823 30.039 37.94 30.274 38.318C30.93 39.372 32.253 39.6209 33.238 38.8759C33.68 38.542 33.901 38.0439 33.999 37.166L34.08 36.4399L34.667 36.292C36.119 35.926 38.214 34.662 39.26 33.521C40.296 32.391 41.17 30.842 41.622 29.333C41.771 28.836 41.846 28.179 41.888 27.013C41.939 25.587 41.917 25.261 41.713 24.379C40.951 21.0789 38.427 18.319 35.147 17.198C33.927 16.781 32.182 16.595 30.88 16.745ZM31.627 43.354C31.568 43.3759 31.389 43.424 31.229 43.459C30.41 43.639 29.792 44.689 29.899 45.719C30.016 46.855 30.83 47.573 32 47.573C33.163 47.573 33.984 46.854 34.1 45.734C34.196 44.7999 33.79 43.947 33.071 43.575C32.778 43.424 31.825 43.278 31.627 43.354Z" fill="#222222"/>
</svg>
