<svg width="64" height="64" viewBox="0 0 64 64" fill="none" xmlns="http://www.w3.org/2000/svg">
<path fill-rule="evenodd" clip-rule="evenodd" d="M30.24 6.08397C22.224 6.59497 14.889 10.854 10.357 17.629C6.35 23.619 5.045 31.173 6.787 38.285C9.1 47.722 16.733 55.197 26.24 57.336C29.955 58.172 34.054 58.169 37.803 57.327C46.572 55.358 53.762 48.826 56.651 40.203C58.12 35.819 58.366 30.816 57.336 26.24C55.154 16.54 47.46 8.84597 37.76 6.66397C35.436 6.14097 32.678 5.92797 30.24 6.08397ZM34.563 10.138C37.7193 10.5221 40.7562 11.5802 43.4679 13.2404C46.1796 14.9007 48.5028 17.1244 50.28 19.761C51.727 21.9 53.037 25.007 53.539 27.491C53.869 29.121 53.973 30.208 53.973 32C53.973 35.551 53.272 38.574 51.719 41.713C49.531 46.135 46.135 49.531 41.713 51.719C38.574 53.272 35.551 53.973 32 53.973C28.467 53.973 25.485 53.286 22.33 51.743C15.622 48.464 11.062 42.038 10.138 34.563C9.995 33.4 9.995 30.6 10.138 29.437C10.66 25.219 12.424 21.11 15.062 17.973C16.0103 16.8557 17.0525 15.8216 18.177 14.882C21.068 12.471 25.327 10.657 29.29 10.148C30.345 10.013 33.5 10.007 34.563 10.138Z" fill="#222222"/>
</svg>
