<svg width="64" height="64" viewBox="0 0 64 64" fill="none" xmlns="http://www.w3.org/2000/svg">
<path fill-rule="evenodd" clip-rule="evenodd" d="M30.933 6.04598C26.422 6.21198 21.664 7.72299 17.907 10.185L16.853 10.876L17.936 12.398C18.532 13.235 19.056 13.961 19.1 14.011C19.144 14.061 19.46 13.914 19.803 13.684C22.344 11.981 25.161 10.857 28.32 10.285C29.595 10.054 33.044 9.96298 34.413 10.124C40.906 10.887 46.63 14.364 50.28 19.761C51.727 21.9 53.037 25.007 53.539 27.491C53.869 29.121 53.973 30.208 53.973 32.001C53.973 35.405 53.256 38.547 51.793 41.547C49.638 45.966 46.264 49.418 41.973 51.594C38.746 53.23 35.618 53.973 31.961 53.973C28.469 53.973 25.472 53.279 22.33 51.743C15.622 48.464 11.062 42.038 10.138 34.563C9.99501 33.4 9.99501 30.6 10.138 29.437C10.318 27.987 10.641 26.543 11.099 25.144C11.334 24.427 11.566 23.776 11.614 23.699C11.682 23.591 12.139 23.801 13.543 24.585C14.555 25.15 15.398 25.597 15.416 25.579C15.448 25.547 14.187 15.328 14.146 15.284C14.134 15.272 11.808 16.131 8.97701 17.194C6.14501 18.256 3.86701 19.161 3.91401 19.206C3.96101 19.25 4.92401 19.799 6.05301 20.426C7.18301 21.053 8.10701 21.589 8.10701 21.617C8.10701 21.645 7.89501 22.253 7.63701 22.967C4.77301 30.881 5.77801 39.525 10.357 46.371C16.128 54.998 26.199 59.324 36.48 57.591C44.311 56.271 51.331 51.137 55.039 44.018C59.424 35.601 58.862 25.408 53.579 17.531C48.542 10.02 40.047 5.71198 30.933 6.04598ZM31.196 16.2C30.711 16.421 30.227 16.94 30.107 17.368C30.063 17.525 30.027 21.021 30.027 25.138V32.622L30.347 33.075C30.523 33.324 30.859 33.628 31.093 33.751C31.514 33.97 31.622 33.973 38.933 33.973C43.011 33.973 46.475 33.937 46.632 33.893C47.32 33.7 47.993 32.779 47.998 32.023C48.002 31.325 47.536 30.565 46.88 30.203C46.594 30.046 45.888 30.023 40.297 29.996L34.035 29.965L34.004 23.703C33.977 18.112 33.954 17.406 33.797 17.12C33.263 16.152 32.16 15.762 31.196 16.2Z" fill="#222222"/>
</svg>
