<svg width="64" height="64" viewBox="0 0 64 64" fill="none" xmlns="http://www.w3.org/2000/svg">
<path fill-rule="evenodd" clip-rule="evenodd" d="M30.933 6.04598C26.422 6.21198 21.664 7.72299 17.907 10.185L16.853 10.876L17.936 12.398C18.532 13.235 19.056 13.961 19.1 14.011C19.144 14.061 19.46 13.914 19.803 13.684C22.344 11.981 25.161 10.857 28.32 10.285C29.595 10.054 33.044 9.96298 34.413 10.124C40.906 10.887 46.63 14.364 50.28 19.761C51.727 21.9 53.037 25.007 53.539 27.491C53.869 29.121 53.973 30.208 53.973 32.001C53.973 35.405 53.256 38.547 51.793 41.547C49.638 45.966 46.264 49.418 41.973 51.594C38.746 53.23 35.618 53.973 31.961 53.973C28.469 53.973 25.472 53.279 22.33 51.743C15.622 48.464 11.062 42.038 10.138 34.563C9.99501 33.4 9.99501 30.6 10.138 29.437C10.318 27.987 10.641 26.543 11.099 25.144C11.334 24.427 11.566 23.776 11.614 23.699C11.682 23.591 12.139 23.801 13.543 24.585C14.555 25.15 15.398 25.597 15.416 25.579C15.448 25.547 14.187 15.328 14.146 15.284C14.134 15.272 11.808 16.131 8.97701 17.194C6.14501 18.256 3.86701 19.161 3.91401 19.206C3.96101 19.25 4.92401 19.799 6.05301 20.426C7.18301 21.053 8.10701 21.589 8.10701 21.617C8.10701 21.645 7.89501 22.253 7.63701 22.967C4.77301 30.881 5.77801 39.525 10.357 46.371C16.128 54.998 26.199 59.324 36.48 57.591C44.311 56.271 51.331 51.137 55.039 44.018C59.424 35.601 58.862 25.408 53.579 17.531C48.542 10.02 40.047 5.71198 30.933 6.04598ZM37.904 22.078C36.003 22.577 34.569 23.737 33.707 25.476C33.367 26.162 33.072 27.29 33.069 27.92L33.067 28.267H36.983L37.043 27.688C37.249 25.695 38.891 24.485 40.683 25.006C41.833 25.34 42.453 26.301 42.453 27.748C42.453 28.612 42.205 29.343 41.583 30.309C40.956 31.284 40.084 32.278 36.598 36L33.5 39.307L33.496 40.667L33.493 42.027H47.04V38.933H42.827C40.509 38.933 38.613 38.905 38.613 38.871C38.613 38.799 40.657 36.507 42.533 34.476C44.392 32.463 45.042 31.606 45.71 30.287C46.104 29.51 46.4 28.253 46.398 27.37C46.393 24.619 44.781 22.638 42.059 22.036C40.975 21.797 38.898 21.818 37.904 22.078ZM24.053 22.939L20.027 24.384L18.347 24.985V26.519C18.347 27.363 18.359 28.053 18.373 28.053C18.388 28.053 19.432 27.726 20.693 27.327L22.987 26.6L23.014 34.316L23.041 42.031L24.987 42.002L26.933 41.973L26.961 32.027L26.988 22.08L26.694 22.087C26.532 22.091 25.344 22.475 24.053 22.939Z" fill="#222222"/>
</svg>
