<svg width="64" height="64" viewBox="0 0 64 64" fill="none" xmlns="http://www.w3.org/2000/svg">
<path fill-rule="evenodd" clip-rule="evenodd" d="M30.24 6.08201C25.83 6.35801 21.325 7.88501 17.629 10.357C9.00404 16.127 4.66204 26.232 6.40704 36.48C8.14804 46.703 16.087 55.052 26.24 57.336C29.955 58.172 34.054 58.169 37.803 57.327C46.572 55.358 53.762 48.826 56.651 40.203C58.12 35.819 58.366 30.816 57.336 26.24C55.154 16.54 47.46 8.84601 37.76 6.66401C35.44 6.14201 32.688 5.92901 30.24 6.08201ZM34.563 10.138C37.7194 10.5221 40.7562 11.5802 43.4679 13.2405C46.1796 14.9008 48.5028 17.1245 50.28 19.761C51.727 21.9 53.037 25.007 53.539 27.491C53.869 29.121 53.973 30.208 53.973 32C53.973 35.551 53.272 38.574 51.719 41.713C49.531 46.135 46.135 49.531 41.713 51.719C38.574 53.272 35.551 53.973 32 53.973C28.467 53.973 25.485 53.286 22.33 51.743C15.622 48.464 11.062 42.038 10.138 34.563C9.99504 33.4 9.99504 30.6 10.138 29.437C10.66 25.219 12.424 21.11 15.062 17.973C16.0104 16.8558 17.0525 15.8217 18.177 14.882C21.068 12.471 25.327 10.657 29.29 10.148C30.345 10.013 33.5 10.007 34.563 10.138ZM31.506 16.738C31.035 16.855 30.564 17.216 30.274 17.682L30.027 18.08V32.622L30.347 33.075C30.523 33.324 30.859 33.628 31.093 33.751C31.511 33.969 31.661 33.974 38.338 34.004C43.086 34.025 45.332 33.998 45.734 33.914C47.784 33.489 47.808 30.529 45.766 30.091C45.404 30.014 43.304 29.973 39.621 29.973H34.027L34.024 24.347C34.022 20.868 33.979 18.538 33.911 18.242C33.66 17.152 32.574 16.473 31.506 16.738Z" fill="#222222"/>
</svg>
