<svg width="64" height="64" viewBox="0 0 64 64" fill="none" xmlns="http://www.w3.org/2000/svg">
<path fill-rule="evenodd" clip-rule="evenodd" d="M30.933 6.04598C26.422 6.21198 21.664 7.72299 17.907 10.185L16.853 10.876L17.936 12.398C18.532 13.235 19.056 13.961 19.1 14.011C19.144 14.061 19.46 13.914 19.803 13.684C22.344 11.981 25.161 10.857 28.32 10.285C29.595 10.054 33.044 9.96298 34.413 10.124C40.906 10.887 46.63 14.364 50.28 19.761C51.727 21.9 53.037 25.007 53.539 27.491C53.869 29.121 53.973 30.208 53.973 32.001C53.973 35.405 53.256 38.547 51.793 41.547C49.638 45.966 46.264 49.418 41.973 51.594C38.746 53.23 35.618 53.973 31.961 53.973C28.469 53.973 25.472 53.279 22.33 51.743C15.622 48.464 11.062 42.038 10.138 34.563C9.99504 33.4 9.99504 30.6 10.138 29.437C10.318 27.987 10.641 26.543 11.099 25.144C11.334 24.427 11.566 23.776 11.614 23.699C11.682 23.591 12.139 23.801 13.543 24.585C14.555 25.15 15.398 25.597 15.416 25.579C15.448 25.547 14.187 15.328 14.146 15.284C14.134 15.272 11.808 16.131 8.97704 17.194C6.14504 18.256 3.86704 19.161 3.91404 19.206C3.96104 19.25 4.92404 19.799 6.05304 20.426C7.18304 21.053 8.10704 21.589 8.10704 21.617C8.10704 21.645 7.89504 22.253 7.63704 22.967C4.77304 30.881 5.77804 39.525 10.357 46.371C16.128 54.998 26.199 59.324 36.48 57.591C44.311 56.271 51.331 51.137 55.039 44.018C59.424 35.601 58.862 25.408 53.579 17.531C48.542 10.02 40.047 5.71198 30.933 6.04598ZM21.782 22.082C20.619 22.387 19.788 22.873 18.87 23.783C17.906 24.74 17.36 25.75 17.119 27.023C16.857 28.401 16.663 28.267 18.919 28.267H20.878L20.946 27.76C21.234 25.64 22.765 24.479 24.576 25.006C25.759 25.35 26.373 26.277 26.389 27.745C26.398 28.507 26.368 28.617 25.897 29.558C25.232 30.885 24.793 31.413 20.791 35.701L17.387 39.349V42.027H30.933V38.936L26.708 38.908L22.484 38.88L24.388 36.767C25.436 35.604 26.716 34.188 27.232 33.62C28.412 32.322 29.475 30.748 29.894 29.679C30.511 28.106 30.4 25.872 29.638 24.54C28.934 23.31 27.545 22.357 25.973 22.027C24.883 21.798 22.759 21.826 21.782 22.082ZM40.824 22.64C40.628 22.948 38.755 25.918 36.662 29.239L32.856 35.278L32.959 36.332C33.015 36.912 33.062 37.447 33.064 37.52C33.066 37.624 33.949 37.653 37.118 37.653H41.169L41.198 39.813L41.227 41.973L43.173 42.002L45.12 42.031V37.653H47.36V34.56H45.12V22.08H41.18L40.824 22.64ZM41.137 34.525C41.115 34.547 40.129 34.551 38.945 34.536L36.792 34.507L38.956 30.943L41.12 27.379L41.148 30.933C41.164 32.887 41.159 34.504 41.137 34.525Z" fill="#222222"/>
</svg>
