<svg width="64" height="64" viewBox="0 0 64 64" fill="none" xmlns="http://www.w3.org/2000/svg">
<path fill-rule="evenodd" clip-rule="evenodd" d="M20.839 19.4081C20.374 19.5191 19.898 19.8801 19.616 20.3371C19.342 20.7811 19.288 21.7461 19.514 22.1871C19.589 22.3341 21.793 24.6011 24.41 27.2271L29.17 32.0001L24.41 36.7731C21.793 39.3991 19.589 41.6661 19.514 41.8131C19.439 41.9591 19.378 42.3491 19.378 42.6781C19.378 43.9951 20.484 44.8431 21.836 44.5631C22.326 44.4621 22.546 44.2591 27.173 39.6451L32 34.8321L36.827 39.6451C41.441 44.2471 41.676 44.4621 42.16 44.5631C43.706 44.8831 44.883 43.7061 44.563 42.1601C44.462 41.6761 44.247 41.4411 39.645 36.8271L34.832 32.0001L39.645 27.1731C44.247 22.5591 44.462 22.3241 44.563 21.8401C44.796 20.7101 44.204 19.6911 43.163 19.4281C42.709 19.3141 42.502 19.3241 41.867 19.4881C41.749 19.5191 39.481 21.7091 36.827 24.3561L32 29.1681L27.173 24.3551C22.385 19.5811 22.342 19.5421 21.781 19.4251C21.5875 19.38 21.3919 19.3443 21.195 19.3181C21.0771 19.3511 20.9584 19.3811 20.839 19.4081Z" fill="#222222"/>
</svg>
