<svg width="64" height="64" viewBox="0 0 64 64" fill="none" xmlns="http://www.w3.org/2000/svg">
<path fill-rule="evenodd" clip-rule="evenodd" d="M16 8.74997C14.553 8.83497 13.569 9.04697 12.769 9.44597C10.671 10.496 9.31399 12.305 8.84299 14.679C8.75299 15.133 8.70599 19.53 8.67299 30.549C8.62599 46.124 8.67299 48.777 9.02099 50.08C9.63599 52.381 11.664 54.391 13.973 54.987C15.2 55.304 17.604 55.353 32 55.353C46.396 55.353 48.8 55.304 50.027 54.987C52.362 54.385 54.385 52.362 54.987 50.027C55.304 48.8 55.353 46.396 55.353 32C55.353 17.604 55.304 15.2 54.987 13.973C54.385 11.638 52.362 9.61497 50.027 9.01297C49.645 8.91397 48.613 8.79197 47.733 8.73997C45.832 8.62897 17.925 8.63797 16 8.74997ZM49.403 12.976C50.036 13.269 50.731 13.964 51.024 14.597L51.253 15.093V48.907L51.024 49.403C50.731 50.036 50.036 50.731 49.403 51.024L48.907 51.253H15.093L14.597 51.024C13.964 50.731 13.269 50.036 12.976 49.403L12.747 48.907V15.093L12.976 14.597C13.392 13.697 14.265 12.987 15.181 12.804C15.426 12.755 23.115 12.722 32.267 12.731L48.907 12.747L49.403 12.976ZM23.506 22.075C23.041 22.186 22.565 22.547 22.283 23.003C22.008 23.448 21.955 24.414 22.181 24.854C22.257 25 23.86 26.668 25.744 28.56L29.169 32L25.744 35.44C23.86 37.332 22.257 39 22.181 39.146C22.106 39.293 22.044 39.682 22.044 40.012C22.044 41.329 23.151 42.178 24.503 41.896C24.987 41.795 25.192 41.612 28.507 38.312L32 34.834L35.493 38.312C38.799 41.603 39.014 41.796 39.493 41.895C41.039 42.217 42.217 41.039 41.895 39.493C41.796 39.014 41.603 38.799 38.312 35.493L34.834 32L38.312 28.507C41.603 25.201 41.796 24.986 41.895 24.507C42.137 23.345 41.523 22.325 40.442 22.093C40.144 22.029 39.839 21.996 39.764 22.02C39.6128 22.0619 39.4604 22.0992 39.307 22.132C39.073 22.184 38.045 23.142 35.493 25.684L32 29.166L28.507 25.691C25.284 22.485 24.975 22.207 24.513 22.095C23.962 21.961 23.981 21.962 23.506 22.075Z" fill="#222222"/>
</svg>
