<svg width="64" height="64" viewBox="0 0 64 64" fill="none" xmlns="http://www.w3.org/2000/svg">
<path fill-rule="evenodd" clip-rule="evenodd" d="M30.24 6.08201C25.83 6.35801 21.325 7.88501 17.629 10.357C9.00401 16.127 4.66201 26.232 6.40701 36.48C8.14801 46.703 16.087 55.052 26.24 57.336C29.955 58.172 34.054 58.169 37.803 57.327C46.572 55.358 53.762 48.826 56.651 40.203C58.12 35.819 58.366 30.816 57.336 26.24C55.154 16.54 47.46 8.84601 37.76 6.66401C35.44 6.14201 32.688 5.92901 30.24 6.08201ZM34.563 10.138C37.7193 10.5221 40.7562 11.5802 43.4679 13.2405C46.1796 14.9008 48.5028 17.1245 50.28 19.761C51.727 21.9 53.037 25.007 53.539 27.491C53.869 29.121 53.973 30.208 53.973 32C53.973 35.551 53.272 38.574 51.719 41.713C49.531 46.135 46.135 49.531 41.713 51.719C38.574 53.272 35.551 53.973 32 53.973C28.467 53.973 25.485 53.286 22.33 51.743C15.622 48.464 11.062 42.038 10.138 34.563C9.99501 33.4 9.99501 30.6 10.138 29.437C10.66 25.219 12.424 21.11 15.062 17.973C16.0104 16.8558 17.0525 15.8217 18.177 14.882C21.068 12.471 25.327 10.657 29.29 10.148C30.345 10.013 33.5 10.007 34.563 10.138ZM23.506 22.075C23.041 22.186 22.565 22.547 22.283 23.003C22.008 23.448 21.955 24.414 22.181 24.854C22.257 25 23.86 26.668 25.744 28.56L29.169 32L25.744 35.44C23.86 37.332 22.257 39 22.181 39.146C22.106 39.293 22.044 39.682 22.044 40.012C22.044 41.329 23.151 42.178 24.503 41.896C24.987 41.795 25.192 41.612 28.507 38.312L32 34.834L35.493 38.312C38.799 41.603 39.014 41.796 39.493 41.895C41.039 42.217 42.217 41.039 41.895 39.493C41.796 39.014 41.603 38.799 38.312 35.493L34.834 32L38.312 28.507C41.603 25.201 41.796 24.986 41.895 24.507C42.13 23.378 41.538 22.358 40.496 22.095C40.042 21.981 39.83 21.991 39.2 22.156C39.083 22.187 37.415 23.776 35.493 25.689L32 29.166L28.507 25.688C25.074 22.271 25.003 22.208 24.448 22.092C24.2541 22.0469 24.0582 22.0109 23.861 21.984C23.7436 22.0178 23.6252 22.0481 23.506 22.075Z" fill="#222222"/>
</svg>
