<svg width="64" height="64" viewBox="0 0 64 64" fill="none" xmlns="http://www.w3.org/2000/svg">
<path fill-rule="evenodd" clip-rule="evenodd" d="M7.50597 6.07297C6.41797 6.33997 5.80397 7.49697 6.11597 8.69297C6.17597 8.92397 9.40397 12.22 17.685 20.507L29.171 32L17.685 43.493C9.40397 51.78 6.17597 55.076 6.11597 55.307C5.69197 56.932 6.88697 58.229 8.50297 57.898C8.99997 57.796 9.32297 57.484 20.507 46.311L32 34.829L43.493 46.311C54.649 57.455 55.002 57.796 55.493 57.897C57.041 58.214 58.214 57.041 57.897 55.493C57.796 55.002 57.455 54.649 46.311 43.493L34.829 32L46.311 20.507C57.484 9.32297 57.796 8.99997 57.898 8.50297C58.229 6.88697 56.932 5.69197 55.307 6.11597C55.076 6.17597 51.78 9.40397 43.493 17.686L32 29.172L20.56 17.744C14.268 11.459 9.02397 6.26897 8.90697 6.20997C8.58297 6.04997 7.87997 5.98097 7.50597 6.07297Z" fill="#222222"/>
</svg>
