<svg width="64" height="64" viewBox="0 0 64 64" fill="none" xmlns="http://www.w3.org/2000/svg">
<path fill-rule="evenodd" clip-rule="evenodd" d="M15.506 14.0751C15.041 14.1861 14.565 14.5471 14.283 15.0031C14.008 15.4481 13.955 16.4131 14.181 16.8541C14.255 17.0001 17.659 20.4681 21.744 24.5601L29.171 32.0001L21.744 39.4401C17.659 43.5321 14.255 47.0001 14.181 47.1461C14.106 47.2931 14.044 47.6821 14.044 48.0121C14.044 49.3281 15.149 50.1761 16.503 49.8971C16.997 49.7961 17.257 49.5491 24.507 42.3111L32 34.8301L39.493 42.3111C46.725 49.5311 47.004 49.7961 47.493 49.8971C49.04 50.2151 50.215 49.0401 49.897 47.4931C49.796 47.0041 49.531 46.7251 42.311 39.4931L34.83 32.0001L42.311 24.5071C49.531 17.2751 49.796 16.9961 49.897 16.5071C50.129 15.3761 49.537 14.3571 48.496 14.0951C48.042 13.9811 47.842 13.9901 47.2 14.1541C47.083 14.1851 43.615 17.5751 39.493 21.6891L32 29.1701L24.507 21.6921C17.44 14.6401 16.985 14.2071 16.513 14.0941C15.962 13.9611 15.981 13.9621 15.506 14.0751Z" fill="#222222"/>
</svg>
