<svg width="64" height="64" viewBox="0 0 64 64" fill="none" xmlns="http://www.w3.org/2000/svg">
<path fill-rule="evenodd" clip-rule="evenodd" d="M30.3651 11.4269C26.3781 11.7129 22.5451 13.2099 19.2371 15.7709C17.3911 17.2009 15.8461 18.9179 14.5461 20.9869L13.8131 22.1519L13.1731 22.2809C10.4591 22.8269 8.10106 23.9709 5.95206 25.7839C3.56306 27.8009 1.66006 31.0339 1.01906 34.1649C0.478063 36.8119 0.660063 39.7819 1.51706 42.2929C3.24206 47.3519 7.65206 51.2559 12.8381 52.3149C14.6111 52.6779 16.2701 52.7049 34.3471 52.6669L52.2131 52.6299L53.2381 52.3959C57.6221 51.3939 60.9941 48.4739 62.5521 44.3309C63.5151 41.7699 63.5191 38.2369 62.5601 35.6909C61.2271 32.1489 58.5341 29.4439 55.0301 28.1259C54.4301 27.9009 53.9031 27.7669 52.4041 27.4599C52.2151 27.4209 52.1251 27.2599 51.9481 26.6389C50.9401 23.1019 49.2821 20.1939 46.8331 17.6689C42.5071 13.2079 36.6241 10.9779 30.3651 11.4269ZM34.4121 15.5119C37.8811 16.0399 40.9421 17.5419 43.4521 19.9469C46.0041 22.3919 47.5471 25.1309 48.2691 28.4949C48.6171 30.1189 48.6971 30.3339 49.1001 30.7369C49.5511 31.1879 49.8071 31.2639 51.2011 31.3649C53.5321 31.5339 55.1011 32.2509 56.7581 33.9089C57.8981 35.0489 58.4751 35.9609 58.9561 37.3869C59.2231 38.1769 59.2441 38.3689 59.2441 39.9999C59.2441 41.6309 59.2231 41.8229 58.9561 42.6129C58.4751 44.0389 57.8981 44.9509 56.7581 46.0909C55.6211 47.2279 54.7161 47.8009 53.2801 48.2939L52.4271 48.5869H33.2801C15.2121 48.5869 14.0941 48.5759 13.4401 48.3959C11.2211 47.7849 9.48306 46.8029 8.00606 45.3269C6.53506 43.8549 5.47906 41.9779 4.95006 39.8929C4.66006 38.7529 4.66006 35.9129 4.95006 34.7729C5.61806 32.1409 7.10106 29.8619 9.14406 28.3289C10.7201 27.1459 12.2941 26.4779 14.2401 26.1659C16.2981 25.8349 16.4901 25.7159 17.2171 24.3139C19.7331 19.4619 24.5121 16.1489 30.0271 15.4329C30.8291 15.3289 33.5311 15.3779 34.4121 15.5119ZM26.1721 27.4059C25.7051 27.5209 25.2311 27.8819 24.9501 28.3369C24.6741 28.7819 24.6221 29.7479 24.8491 30.1869C24.9251 30.3339 25.9271 31.4009 27.0761 32.5599L29.1661 34.6669L27.0761 36.7729C25.9271 37.9319 24.9251 38.9999 24.8491 39.1459C24.7731 39.2929 24.7111 39.6819 24.7111 40.0119C24.7111 41.3299 25.8201 42.1789 27.1701 41.8949C27.6431 41.7949 27.8381 41.6299 29.8401 39.6459L32.0001 37.5049L34.1601 39.6459C36.1561 41.6249 36.3581 41.7949 36.8271 41.8939C38.3711 42.2189 39.5531 41.0369 39.2271 39.4929C39.1291 39.0249 38.9581 38.8229 36.9791 36.8269L34.8381 34.6669L36.9791 32.5069C38.9641 30.5049 39.1281 30.3089 39.2281 29.8359C39.5131 28.4869 38.6631 27.3779 37.3451 27.3779C37.0151 27.3779 36.6261 27.4399 36.4801 27.5159C36.3331 27.5909 35.2651 28.5939 34.1071 29.7429L32.0001 31.8329L29.8931 29.7429C28.7351 28.5939 27.6911 27.6049 27.5731 27.5459C27.2521 27.3839 26.5491 27.3139 26.1721 27.4059Z" fill="#222222"/>
</svg>
