<svg width="64" height="64" viewBox="0 0 64 64" fill="none" xmlns="http://www.w3.org/2000/svg">
<path fill-rule="evenodd" clip-rule="evenodd" d="M12.8389 11.409C12.3739 11.519 11.8989 11.88 11.6159 12.337C11.3409 12.782 11.2879 13.748 11.5149 14.187C11.5909 14.334 12.6369 15.445 13.8389 16.656C15.2779 18.105 15.9979 18.904 15.9439 18.991C15.8989 19.063 15.6349 19.423 15.3569 19.791C15.0779 20.159 14.6219 20.841 14.3429 21.307L13.8349 22.154L13.1309 22.292C10.4589 22.818 8.16488 23.929 6.01888 25.736C4.55688 26.967 3.43888 28.37 2.46388 30.197C0.196878 34.448 0.121878 39.8 2.26988 44.107C4.36588 48.312 8.33388 51.395 12.8279 52.313C14.5169 52.658 16.2109 52.69 33.0089 52.692L49.8569 52.693L52.4219 55.241C54.8159 57.619 55.0199 57.795 55.4929 57.895C57.0369 58.218 58.2139 57.043 57.8969 55.493C57.7959 54.999 57.2629 54.455 36.1769 33.36C24.2879 21.465 14.4159 11.666 14.2399 11.586C13.8019 11.384 13.2389 11.313 12.8389 11.409ZM30.4089 11.425C29.7399 11.473 28.9239 11.564 28.5959 11.627C27.1959 11.896 26.0519 12.203 25.6699 12.413C25.2359 12.651 24.8149 13.263 24.6969 13.831C24.5369 14.603 25.0649 15.544 25.8619 15.906C26.3879 16.145 26.7549 16.153 27.5199 15.943C29.5579 15.384 32.3489 15.205 34.3469 15.504C37.8589 16.031 40.9289 17.529 43.4519 19.947C46.0359 22.423 47.6059 25.25 48.3219 28.716C48.6049 30.09 48.7009 30.338 49.0999 30.737C49.5509 31.188 49.8069 31.264 51.2009 31.365C53.5319 31.534 55.1009 32.251 56.7579 33.909C58.4559 35.607 59.1769 37.207 59.2799 39.504C59.3769 41.656 58.9519 43.195 57.7869 44.92C57.0949 45.945 56.9669 46.317 57.0699 47.004C57.2469 48.18 58.5009 48.922 59.6639 48.539C60.7319 48.186 62.4299 45.318 62.9829 42.933C63.3749 41.243 63.3739 38.842 62.9809 37.121C61.8989 32.388 58.0199 28.606 53.2489 27.631C52.6909 27.517 52.2009 27.385 52.1609 27.339C52.1199 27.292 52.0009 26.917 51.8949 26.507C50.7019 21.863 47.4199 17.4 43.1559 14.624C41.3639 13.458 38.7279 12.364 36.4799 11.853C34.6879 11.445 32.3819 11.283 30.4089 11.425ZM32.3729 35.202L45.8129 48.643L29.9199 48.612C14.2389 48.58 14.0169 48.577 13.2799 48.36C9.03288 47.112 6.10388 44.183 4.98988 40.07C4.66488 38.867 4.64288 35.983 4.94988 34.773C5.58388 32.274 6.97188 30.057 8.83088 28.572C10.6239 27.14 12.2869 26.435 14.7159 26.076C16.0949 25.873 16.4459 25.667 16.9599 24.759C17.9509 23.007 18.7449 21.768 18.8799 21.762C18.9099 21.761 24.9819 27.809 32.3729 35.202Z" fill="#222222"/>
</svg>
