<svg width="64" height="64" viewBox="0 0 64 64" fill="none" xmlns="http://www.w3.org/2000/svg">
<path fill-rule="evenodd" clip-rule="evenodd" d="M30.3651 11.4269C26.3781 11.7129 22.5451 13.2099 19.2371 15.7709C17.3911 17.2009 15.8461 18.9179 14.5461 20.9869L13.8131 22.1519L13.1731 22.2809C10.4591 22.8269 8.10106 23.9709 5.95206 25.7839C3.56306 27.8009 1.66006 31.0339 1.01906 34.1649C0.478063 36.8119 0.660063 39.7819 1.51706 42.2929C3.24206 47.3519 7.65206 51.2559 12.8381 52.3149C14.6111 52.6779 16.2701 52.7049 34.3471 52.6669L52.2131 52.6299L53.2381 52.3959C57.6221 51.3939 60.9941 48.4739 62.5521 44.3309C63.5151 41.7699 63.5191 38.2369 62.5601 35.6909C61.2271 32.1489 58.5341 29.4439 55.0301 28.1259C54.4301 27.9009 53.9031 27.7669 52.4041 27.4599C52.2151 27.4209 52.1251 27.2599 51.9481 26.6389C50.9401 23.1019 49.2821 20.1939 46.8331 17.6689C42.5071 13.2079 36.6241 10.9779 30.3651 11.4269ZM34.4121 15.5119C37.8811 16.0399 40.9421 17.5419 43.4521 19.9469C46.0041 22.3919 47.5471 25.1309 48.2691 28.4949C48.6171 30.1189 48.6971 30.3339 49.1001 30.7369C49.5511 31.1879 49.8071 31.2639 51.2011 31.3649C53.5321 31.5339 55.1011 32.2509 56.7581 33.9089C57.8981 35.0489 58.4751 35.9609 58.9561 37.3869C59.2231 38.1769 59.2441 38.3689 59.2441 39.9999C59.2441 41.6309 59.2231 41.8229 58.9561 42.6129C58.4751 44.0389 57.8981 44.9509 56.7581 46.0909C55.6211 47.2279 54.7161 47.8009 53.2801 48.2939L52.4271 48.5869H33.2801C15.2121 48.5869 14.0941 48.5759 13.4401 48.3959C11.2211 47.7849 9.48306 46.8029 8.00606 45.3269C6.53506 43.8549 5.47906 41.9779 4.95006 39.8929C4.66006 38.7529 4.66006 35.9129 4.95006 34.7729C5.61806 32.1409 7.10106 29.8619 9.14406 28.3289C10.7201 27.1459 12.2941 26.4779 14.2401 26.1659C16.2981 25.8349 16.4901 25.7159 17.2171 24.3139C19.7331 19.4619 24.5121 16.1489 30.0271 15.4329C30.8291 15.3289 33.5311 15.3779 34.4121 15.5119ZM31.5061 22.0719C31.0351 22.1889 30.5641 22.5499 30.2741 23.0149L30.0271 23.4129L29.9961 29.8389L29.9651 36.2639L27.5961 34.6829C26.2931 33.8129 25.1081 33.0379 24.9631 32.9609C24.1521 32.5289 23.2401 32.6529 22.6131 33.2799C21.9381 33.9549 21.8411 34.9989 22.3761 35.8169C22.6231 36.1939 31.0221 41.7719 31.5611 41.9169C31.8821 42.0029 32.1181 42.0029 32.4391 41.9169C32.9781 41.7719 41.3771 36.1939 41.6241 35.8169C42.7751 34.0589 40.8881 31.9749 39.0371 32.9609C38.8921 33.0379 37.7051 33.8139 36.4001 34.6849L34.0271 36.2689L34.0241 30.1609C34.0221 26.3509 33.9801 23.8739 33.9111 23.5749C33.6601 22.4849 32.5741 21.8059 31.5061 22.0719Z" fill="#222222"/>
</svg>
