<svg width="64" height="64" viewBox="0 0 64 64" fill="none" xmlns="http://www.w3.org/2000/svg">
<path fill-rule="evenodd" clip-rule="evenodd" d="M30.3651 11.4269C26.3781 11.7129 22.5451 13.2099 19.2371 15.7709C17.3911 17.2009 15.8461 18.9179 14.5461 20.9869L13.8131 22.1519L13.1731 22.2809C10.4591 22.8269 8.10106 23.9709 5.95206 25.7839C3.56306 27.8009 1.66006 31.0339 1.01906 34.1649C0.478063 36.8119 0.660063 39.7819 1.51706 42.2929C3.24206 47.3519 7.65206 51.2559 12.8381 52.3149C14.6111 52.6779 16.2701 52.7049 34.3471 52.6669L52.2131 52.6299L53.2381 52.3959C57.6221 51.3939 60.9941 48.4739 62.5521 44.3309C63.5151 41.7699 63.5191 38.2369 62.5601 35.6909C61.2271 32.1489 58.5341 29.4439 55.0301 28.1259C54.4301 27.9009 53.9031 27.7669 52.4041 27.4599C52.2151 27.4209 52.1251 27.2599 51.9481 26.6389C50.9401 23.1019 49.2821 20.1939 46.8331 17.6689C42.5071 13.2079 36.6241 10.9779 30.3651 11.4269ZM34.4121 15.5119C37.8811 16.0399 40.9421 17.5419 43.4521 19.9469C46.0041 22.3919 47.5471 25.1309 48.2691 28.4949C48.6171 30.1189 48.6971 30.3339 49.1001 30.7369C49.5511 31.1879 49.8071 31.2639 51.2011 31.3649C53.5321 31.5339 55.1011 32.2509 56.7581 33.9089C57.8981 35.0489 58.4751 35.9609 58.9561 37.3869C59.2231 38.1769 59.2441 38.3689 59.2441 39.9999C59.2441 41.6309 59.2231 41.8229 58.9561 42.6129C58.4751 44.0389 57.8981 44.9509 56.7581 46.0909C55.6211 47.2279 54.7161 47.8009 53.2801 48.2939L52.4271 48.5869H33.2801C15.2121 48.5869 14.0941 48.5759 13.4401 48.3959C11.2211 47.7849 9.48306 46.8029 8.00606 45.3269C6.53506 43.8549 5.47906 41.9779 4.95006 39.8929C4.66006 38.7529 4.66006 35.9129 4.95006 34.7729C5.61806 32.1409 7.10106 29.8619 9.14406 28.3289C10.7201 27.1459 12.2941 26.4779 14.2401 26.1659C16.2981 25.8349 16.4901 25.7159 17.2171 24.3139C19.7331 19.4619 24.5121 16.1489 30.0271 15.4329C30.8291 15.3289 33.5311 15.3779 34.4121 15.5119ZM31.5201 24.7389C31.0861 24.8429 22.5931 30.5189 22.3761 30.8499C21.2251 32.6069 23.1121 34.6919 24.9631 33.7059C25.1081 33.6289 26.2931 32.8539 27.5961 31.9839L29.9651 30.4029L29.9961 36.8279L30.0271 43.2529L30.2741 43.6509C31.2261 45.1819 33.5371 44.8309 33.9091 43.0989C33.9871 42.7339 34.0271 40.5079 34.0271 36.4739V30.3979L36.4001 31.9809C37.7051 32.8529 38.8921 33.6289 39.0371 33.7059C39.8481 34.1379 40.7601 34.0139 41.3871 33.3869C42.0621 32.7109 42.1591 31.6669 41.6241 30.8499C41.3891 30.4919 32.9881 24.9009 32.4681 24.7559C32.0101 24.6289 31.9791 24.6279 31.5201 24.7389Z" fill="#222222"/>
</svg>
