<svg width="64" height="64" viewBox="0 0 64 64" fill="none" xmlns="http://www.w3.org/2000/svg">
<path fill-rule="evenodd" clip-rule="evenodd" d="M30.3649 11.4269C26.3779 11.7129 22.5449 13.2099 19.2369 15.7709C17.3909 17.2009 15.8459 18.9179 14.5459 20.9869L13.8129 22.1519L13.1729 22.2809C10.4589 22.8269 8.10094 23.9709 5.95194 25.7839C3.56294 27.8009 1.65994 31.0339 1.01894 34.1649C0.477941 36.8119 0.659941 39.7819 1.51694 42.2929C3.24194 47.3519 7.65194 51.2559 12.8379 52.3149C14.6109 52.6779 16.2699 52.7049 34.3469 52.6669L52.2129 52.6299L53.2379 52.3959C57.6219 51.3939 60.9939 48.4739 62.5519 44.3309C63.5149 41.7699 63.5189 38.2369 62.5599 35.6909C61.2269 32.1489 58.5339 29.4439 55.0299 28.1259C54.4299 27.9009 53.9029 27.7669 52.4039 27.4599C52.2149 27.4209 52.1249 27.2599 51.9479 26.6389C50.9399 23.1019 49.2819 20.1939 46.8329 17.6689C42.5069 13.2079 36.6239 10.9779 30.3649 11.4269ZM34.4119 15.5119C37.8809 16.0399 40.9419 17.5419 43.4519 19.9469C46.0039 22.3919 47.5469 25.1309 48.2689 28.4949C48.6169 30.1189 48.6969 30.3339 49.0999 30.7369C49.5509 31.1879 49.8069 31.2639 51.2009 31.3649C53.5319 31.5339 55.1009 32.2509 56.7579 33.9089C57.8979 35.0489 58.4749 35.9609 58.9559 37.3869C59.2229 38.1769 59.2439 38.3689 59.2439 39.9999C59.2439 41.6309 59.2229 41.8229 58.9559 42.6129C58.4749 44.0389 57.8979 44.9509 56.7579 46.0909C55.6209 47.2279 54.7159 47.8009 53.2799 48.2939L52.4269 48.5869H33.2799C15.2119 48.5869 14.0939 48.5759 13.4399 48.3959C11.2209 47.7849 9.48294 46.8029 8.00594 45.3269C6.53494 43.8549 5.47894 41.9779 4.94994 39.8929C4.65994 38.7529 4.65994 35.9129 4.94994 34.7729C5.61794 32.1409 7.10094 29.8619 9.14394 28.3289C10.7199 27.1459 12.2939 26.4779 14.2399 26.1659C16.2979 25.8349 16.4899 25.7159 17.2169 24.3139C19.7329 19.4619 24.5119 16.1489 30.0269 15.4329C30.8289 15.3289 33.5309 15.3779 34.4119 15.5119ZM31.5059 24.7379C31.0349 24.8549 30.5639 25.2159 30.2739 25.6819C30.0309 26.0719 30.0259 26.1429 29.9929 29.3529L29.9599 32.6259L26.6779 32.6599L23.3969 32.6929L22.9649 32.9789C22.3249 33.4029 22.0439 33.9229 22.0439 34.6849C22.0439 35.2079 22.0969 35.3879 22.3559 35.7539C22.9599 36.6099 23.0829 36.6349 26.7399 36.6739L29.9599 36.7069L29.9929 39.9799C30.0259 43.1899 30.0309 43.2609 30.2739 43.6509C31.2259 45.1819 33.5369 44.8309 33.9089 43.0989C33.9789 42.7729 34.0269 41.3569 34.0269 39.6209V36.6929H36.9549C40.3829 36.6929 40.8079 36.6319 41.3869 36.0529C42.4479 34.9919 41.9469 33.1269 40.5029 32.7639C40.1889 32.6849 38.9339 32.6399 37.0189 32.6399H34.0269L34.0239 29.6799C34.0209 26.5449 33.9559 25.9679 33.5469 25.4299C33.1209 24.8729 32.2089 24.5639 31.5059 24.7379Z" fill="#222222"/>
</svg>
