<svg width="64" height="64" viewBox="0 0 64 64" fill="none" xmlns="http://www.w3.org/2000/svg">
<path fill-rule="evenodd" clip-rule="evenodd" d="M30.3649 11.427C24.9749 11.814 19.8039 14.459 16.2139 18.667C15.6069 19.378 13.8669 21.907 13.8669 22.078C13.8669 22.114 13.5669 22.204 13.1999 22.277C10.4629 22.823 8.16388 23.93 6.01888 25.736C4.55688 26.967 3.43888 28.37 2.46388 30.197C0.196878 34.448 0.121878 39.8 2.26988 44.107C4.36788 48.316 8.33288 51.395 12.8379 52.315C14.6109 52.678 16.2699 52.705 34.3469 52.667L52.2129 52.63L53.2379 52.396C57.6219 51.394 60.9939 48.474 62.5519 44.331C63.5099 41.783 63.5139 38.224 62.5599 35.691C61.2269 32.149 58.5339 29.444 55.0299 28.126C54.4299 27.901 53.9029 27.767 52.4039 27.46C52.2149 27.421 52.1249 27.26 51.9479 26.639C50.9399 23.102 49.2819 20.194 46.8329 17.669C45.0589 15.84 43.2649 14.537 41.0219 13.45C37.7039 11.842 34.1069 11.159 30.3649 11.427ZM34.4269 15.516C37.8238 16.0154 40.9794 17.5647 43.4519 19.947C46.0359 22.423 47.6059 25.25 48.3219 28.716C48.6049 30.09 48.7009 30.338 49.0999 30.737C49.5509 31.188 49.8069 31.264 51.2009 31.365C53.5319 31.534 55.1009 32.251 56.7579 33.909C57.8979 35.049 58.4749 35.961 58.9559 37.387C59.2229 38.177 59.2439 38.369 59.2439 40C59.2439 41.631 59.2229 41.823 58.9559 42.613C58.4749 44.039 57.8979 44.951 56.7579 46.091C55.6209 47.228 54.7159 47.801 53.2799 48.294L52.4269 48.587H33.3329C14.9129 48.587 14.2119 48.58 13.4399 48.384C9.25688 47.322 6.11788 44.234 4.98988 40.07C4.66488 38.867 4.64288 35.983 4.94988 34.773C5.61788 32.141 7.10088 29.862 9.14388 28.329C10.7199 27.146 12.2939 26.478 14.2399 26.166C16.2979 25.835 16.4899 25.716 17.2169 24.314C19.6359 19.648 24.2349 16.331 29.3969 15.528C30.6749 15.33 33.1469 15.324 34.4269 15.516ZM39.7329 27.359C39.6749 27.379 39.4829 27.426 39.3069 27.465C39.0699 27.517 37.7329 28.786 34.1619 32.35L29.3359 37.165L27.1749 35.022C25.1349 33 24.9829 32.873 24.4759 32.766C23.5459 32.569 22.7639 32.891 22.2829 33.67C21.9589 34.194 21.9529 35.13 22.2689 35.639C22.3929 35.837 23.8049 37.303 25.4069 38.894C28.1429 41.613 28.3509 41.795 28.8269 41.895C29.1579 41.964 29.5089 41.965 29.8399 41.897C30.3269 41.797 30.5669 41.572 36.0699 36.07C41.5869 30.553 41.7969 30.328 41.8979 29.836C42.0919 28.889 41.6869 27.945 40.9389 27.601C40.5689 27.43 39.9149 27.299 39.7329 27.359Z" fill="#222222"/>
</svg>
