<svg width="64" height="64" viewBox="0 0 64 64" fill="none" xmlns="http://www.w3.org/2000/svg">
<path fill-rule="evenodd" clip-rule="evenodd" d="M30.365 11.427C24.975 11.814 19.804 14.459 16.214 18.667C15.607 19.378 13.867 21.907 13.867 22.078C13.867 22.114 13.567 22.204 13.2 22.277C10.463 22.823 8.164 23.93 6.019 25.736C4.557 26.967 3.439 28.37 2.464 30.197C0.197 34.448 0.122 39.8 2.27 44.107C4.368 48.316 8.333 51.395 12.838 52.315C14.611 52.678 16.27 52.705 34.347 52.667L52.213 52.63L53.238 52.396C57.622 51.394 60.994 48.474 62.552 44.331C63.51 41.783 63.514 38.224 62.56 35.691C61.227 32.149 58.534 29.444 55.03 28.126C54.43 27.901 53.903 27.767 52.404 27.46C52.215 27.421 52.125 27.26 51.948 26.639C50.94 23.102 49.282 20.194 46.833 17.669C45.059 15.84 43.265 14.537 41.022 13.45C37.704 11.842 34.107 11.159 30.365 11.427ZM34.427 15.516C37.8239 16.0154 40.9795 17.5647 43.452 19.947C46.036 22.423 47.606 25.25 48.322 28.716C48.605 30.09 48.701 30.338 49.1 30.737C49.551 31.188 49.807 31.264 51.201 31.365C53.532 31.534 55.101 32.251 56.758 33.909C57.898 35.049 58.475 35.961 58.956 37.387C59.223 38.177 59.244 38.369 59.244 40C59.244 41.631 59.223 41.823 58.956 42.613C58.475 44.039 57.898 44.951 56.758 46.091C55.621 47.228 54.716 47.801 53.28 48.294L52.427 48.587H33.333C14.913 48.587 14.212 48.58 13.44 48.384C9.257 47.322 6.118 44.234 4.99 40.07C4.665 38.867 4.643 35.983 4.95 34.773C5.618 32.141 7.101 29.862 9.144 28.329C10.72 27.146 12.294 26.478 14.24 26.166C16.298 25.835 16.49 25.716 17.217 24.314C19.636 19.648 24.235 16.331 29.397 15.528C30.675 15.33 33.147 15.324 34.427 15.516Z" fill="#222222"/>
</svg>
