<svg width="64" height="64" viewBox="0 0 64 64" fill="none" xmlns="http://www.w3.org/2000/svg">
<path fill-rule="evenodd" clip-rule="evenodd" d="M23.7331 16.693C23.6751 16.712 23.4831 16.759 23.3071 16.798C23.0671 16.85 21.2491 18.602 16.0751 23.767C12.2731 27.562 9.06111 30.829 8.93711 31.028C8.62611 31.526 8.62611 32.474 8.93711 32.972C9.06111 33.171 12.2731 36.437 16.0751 40.229C22.7351 46.874 23.0051 47.129 23.4931 47.23C25.0401 47.548 26.2151 46.373 25.8961 44.827C25.7961 44.339 25.5551 44.083 19.6451 38.16L13.4981 32L19.6451 25.84C25.5711 19.901 25.7961 19.662 25.8971 19.17C26.0921 18.223 25.6881 17.279 24.9391 16.934C24.5691 16.764 23.9151 16.633 23.7331 16.693ZM39.5061 16.738C39.0381 16.854 38.5641 17.216 38.2831 17.67C38.0081 18.114 37.9551 19.079 38.1811 19.52C38.2561 19.667 41.0591 22.535 44.4111 25.893L50.5041 32L44.4111 38.107C41.0591 41.465 38.2561 44.333 38.1811 44.48C38.1061 44.626 38.0441 45.024 38.0441 45.363C38.0441 45.873 38.0981 46.057 38.3561 46.421C38.5271 46.663 38.8481 46.955 39.0701 47.069C39.5651 47.325 40.3701 47.341 40.8671 47.105C41.0731 47.007 44.2581 43.901 48.1791 39.973C54.8741 33.265 55.1291 32.995 55.2301 32.507C55.2981 32.1724 55.2981 31.8276 55.2301 31.493C55.1291 31.005 54.8741 30.735 48.1791 24.027C44.3581 20.2 41.0871 17 40.9091 16.916C40.4711 16.71 39.9081 16.638 39.5061 16.738Z" fill="#222222"/>
</svg>
