<svg width="64" height="64" viewBox="0 0 64 64" fill="none" xmlns="http://www.w3.org/2000/svg">
<path fill-rule="evenodd" clip-rule="evenodd" d="M19.3071 6.07598C17.0431 6.26898 15.2011 7.30798 13.9261 9.11198C13.6741 9.46898 13.0841 10.432 12.6141 11.253C10.8631 14.318 10.6161 14.979 10.6881 16.416C10.7251 17.168 10.7941 17.46 11.0701 18.035C11.6061 19.151 12.6781 20.053 13.8411 20.366L14.2931 20.488V21.262C14.2931 21.971 16.4881 48.041 16.7551 50.507C16.9041 51.887 17.2101 53.2 17.5441 53.898C18.3981 55.68 20.1571 57.153 22.0311 57.655C23.0621 57.931 25.4941 58.02 32.0001 58.02C38.5061 58.02 40.9381 57.931 41.9691 57.655C43.8431 57.153 45.6021 55.68 46.4561 53.898C46.7901 53.2 47.0961 51.887 47.2451 50.507C47.5121 48.041 49.7071 21.971 49.7071 21.262V20.488L50.1591 20.366C51.3191 20.054 52.3551 19.183 52.9141 18.05C53.2121 17.449 53.2761 17.186 53.3131 16.416C53.3831 14.978 53.1361 14.317 51.3861 11.253C50.9161 10.432 50.3261 9.46898 50.0741 9.11198C49.0901 7.71998 47.6851 6.73798 46.0051 6.26798C45.1731 6.03498 45.1721 6.03498 32.6931 6.01698C25.8291 6.00698 19.8051 6.03398 19.3071 6.07598ZM45.2141 10.203C45.8411 10.405 46.4791 10.913 46.9301 11.569C47.5491 12.468 49.3871 15.835 49.3871 16.069C49.3871 16.2 49.2801 16.383 49.1501 16.474C48.9371 16.623 47.1351 16.64 32.0001 16.64C16.8651 16.64 15.0631 16.623 14.8501 16.474C14.7201 16.383 14.6131 16.2 14.6131 16.069C14.6131 15.835 16.4511 12.468 17.0701 11.569C17.2421 11.318 17.5771 10.947 17.8141 10.745C18.6841 9.99898 17.8661 10.041 31.9611 10.033C43.4921 10.027 44.7191 10.043 45.2141 10.203ZM45.5991 20.906C45.7851 21.111 45.7761 21.303 45.3451 26.426C45.1001 29.345 44.8711 31.937 44.8371 32.187L44.7761 32.64H19.2241L19.1631 32.187C19.1291 31.937 18.9001 29.345 18.6551 26.426C18.2241 21.303 18.2151 21.111 18.4011 20.906C18.5911 20.696 18.7471 20.693 32.0001 20.693C45.2531 20.693 45.4091 20.696 45.5991 20.906ZM44.4401 37.027C44.4002 37.2381 44.3778 37.4522 44.3731 37.667V37.973H19.6271V37.667C19.6271 37.498 19.5971 37.21 19.5601 37.027L19.4931 36.693H44.5071L44.4401 37.027ZM43.9471 42.384C43.9471 43.389 43.2481 50.76 43.0801 51.52C42.8671 52.49 42.2361 53.252 41.2801 53.697C40.8051 53.918 40.7051 53.92 32.0001 53.92C22.2441 53.92 22.9071 53.966 21.9631 53.218C21.1671 52.588 20.9081 51.923 20.7001 49.973C20.5281 48.365 20.0531 42.791 20.0531 42.384V42.027H43.9471V42.384Z" fill="#222222"/>
</svg>
