<svg width="64" height="64" viewBox="0 0 64 64" fill="none" xmlns="http://www.w3.org/2000/svg">
<path fill-rule="evenodd" clip-rule="evenodd" d="M23.467 6.09503C22.654 6.33303 22.48 6.57603 20.973 9.57703C20.186 11.144 19.488 12.628 19.422 12.875C19.049 14.261 20.403 15.616 21.792 15.246C22.68 15.01 22.826 14.811 24.36 11.756C25.147 10.189 25.846 8.70303 25.913 8.45303C26.293 7.04303 24.88 5.68103 23.467 6.09503ZM31.467 6.09503C30.654 6.33303 30.48 6.57603 28.973 9.57703C28.186 11.144 27.488 12.628 27.422 12.875C27.049 14.261 28.403 15.616 29.792 15.246C30.68 15.01 30.826 14.811 32.36 11.756C33.147 10.189 33.846 8.70303 33.913 8.45303C34.293 7.04303 32.88 5.68103 31.467 6.09503ZM39.467 6.09503C38.654 6.33303 38.48 6.57603 36.973 9.57703C36.186 11.144 35.488 12.628 35.422 12.875C35.049 14.261 36.403 15.616 37.792 15.246C38.68 15.01 38.826 14.811 40.36 11.756C41.147 10.189 41.846 8.70303 41.913 8.45303C42.293 7.04303 40.88 5.68103 39.467 6.09503ZM12.452 19.413C10.589 19.652 8.98899 21.299 8.73899 23.234C8.61099 24.229 8.61899 34.293 8.74899 36.105C9.05799 40.391 10.686 44.515 13.339 47.733C14.076 48.627 15.728 50.256 16.508 50.86L17.069 51.293L13.567 51.327L10.064 51.36L9.63199 51.646C8.99199 52.07 8.71099 52.589 8.71099 53.351C8.71099 53.874 8.76399 54.054 9.02199 54.421C9.19299 54.663 9.52499 54.961 9.75999 55.084L10.187 55.307L29.013 55.335C42.452 55.355 48.003 55.33 48.41 55.246C50.162 54.883 50.528 52.567 48.985 51.608C48.593 51.364 48.534 51.359 45.092 51.327L41.598 51.293L42.159 50.859C42.935 50.259 44.47 48.745 45.274 47.787C46.798 45.969 48.192 43.435 48.959 41.09C49.194 40.37 49.387 39.693 49.387 39.586C49.387 39.408 49.543 39.387 51.28 39.33C53.455 39.259 54.396 39.09 55.537 38.562C58 37.424 59.894 35.126 60.435 32.62C60.653 31.611 60.653 29.723 60.435 28.713C59.894 26.207 58 23.909 55.537 22.771C54.419 22.254 53.457 22.077 51.387 22.004L49.601 21.941L49.343 21.5C48.975 20.872 48.092 20.083 47.402 19.768C46.9846 19.5932 46.5468 19.4716 46.099 19.406C45.237 19.294 13.324 19.302 12.452 19.413ZM45.845 23.488C46.042 23.685 46.022 35.765 45.822 37.067C45.472 39.35 44.761 41.313 43.542 43.36C42.329 45.398 40.07 47.656 38.027 48.875C36.3622 49.8795 34.5415 50.5993 32.64 51.005C31.675 51.216 31.217 51.25 29.333 51.25C27.449 51.25 26.992 51.216 26.027 51.005C24.1254 50.5995 22.3047 49.8796 20.64 48.875C18.597 47.656 16.338 45.398 15.125 43.36C13.906 41.313 13.194 39.35 12.844 37.067C12.645 35.765 12.624 23.685 12.821 23.488C13.007 23.302 45.659 23.302 45.845 23.488ZM53.987 26.477C54.9774 26.9649 55.7733 27.7739 56.245 28.772C56.565 29.448 56.587 29.568 56.587 30.667C56.587 31.766 56.565 31.886 56.245 32.561C55.7736 33.5597 54.9776 34.369 53.987 34.857C53.187 35.253 53.182 35.253 51.606 35.29L50.027 35.326V26.007L51.606 26.044C53.182 26.08 53.187 26.081 53.987 26.477Z" fill="#222222"/>
</svg>
