<svg width="64" height="64" viewBox="0 0 64 64" fill="none" xmlns="http://www.w3.org/2000/svg">
<path fill-rule="evenodd" clip-rule="evenodd" d="M18.08 8.737C16.667 8.87 15.714 9.198 14.601 9.938C13.114 10.925 12.049 12.433 11.561 14.24C11.368 14.957 11.36 15.656 11.36 31.947C11.36 48.259 11.368 48.937 11.563 49.707C12.25 52.421 14.227 54.399 16.96 55.108C17.508 55.25 18.144 55.288 20 55.288C21.856 55.288 22.492 55.25 23.04 55.108C25.773 54.399 27.75 52.421 28.437 49.707C28.632 48.937 28.64 48.26 28.64 32C28.64 15.74 28.632 15.063 28.437 14.293C27.754 11.598 25.737 9.568 23.09 8.912C22.334 8.725 19.333 8.62 18.08 8.737ZM42.08 8.737C40.667 8.87 39.714 9.198 38.601 9.938C37.114 10.925 36.049 12.433 35.561 14.24C35.368 14.957 35.36 15.656 35.36 31.947C35.36 48.259 35.368 48.937 35.563 49.707C36.25 52.421 38.227 54.399 40.96 55.108C41.508 55.25 42.144 55.288 44 55.288C45.856 55.288 46.492 55.25 47.04 55.108C49.773 54.399 51.75 52.421 52.437 49.707C52.632 48.937 52.64 48.26 52.64 32C52.64 15.74 52.632 15.063 52.437 14.293C51.754 11.598 49.737 9.568 47.09 8.912C46.334 8.725 43.333 8.62 42.08 8.737ZM22.804 12.991C23.389 13.303 24.03 13.944 24.342 14.529L24.587 14.987V49.013L24.342 49.471C24.03 50.056 23.389 50.697 22.804 51.009C22.367 51.242 22.242 51.253 20 51.253C17.758 51.253 17.633 51.242 17.196 51.009C16.611 50.697 15.97 50.056 15.658 49.471L15.413 49.013L15.385 32.23C15.367 20.992 15.394 15.311 15.467 15.039C15.708 14.145 16.749 13.074 17.638 12.806C17.823 12.75 18.957 12.714 20.16 12.726C22.214 12.745 22.375 12.762 22.804 12.991ZM46.804 12.991C47.389 13.303 48.03 13.944 48.342 14.529L48.587 14.987V49.013L48.342 49.471C48.03 50.056 47.389 50.697 46.804 51.009C46.367 51.242 46.242 51.253 44 51.253C41.758 51.253 41.633 51.242 41.196 51.009C40.611 50.697 39.97 50.056 39.658 49.471L39.413 49.013L39.385 32.23C39.367 20.992 39.394 15.311 39.467 15.039C39.708 14.145 40.749 13.074 41.638 12.806C41.823 12.75 42.957 12.714 44.16 12.726C46.214 12.745 46.375 12.762 46.804 12.991Z" fill="#222222"/>
</svg>
