<svg width="64" height="64" viewBox="0 0 64 64" fill="none" xmlns="http://www.w3.org/2000/svg">
<path fill-rule="evenodd" clip-rule="evenodd" d="M16 8.74997C14.553 8.83497 13.569 9.04697 12.769 9.44597C10.671 10.496 9.31398 12.305 8.84298 14.679C8.67298 15.537 8.57898 44.786 8.73798 47.52C8.85498 49.539 9.01398 50.359 9.46298 51.248C10.528 53.357 12.301 54.686 14.679 55.157C15.132 55.247 19.512 55.294 30.453 55.327C45.948 55.375 48.793 55.324 50.08 54.979C52.357 54.369 54.369 52.357 54.979 50.08C55.324 48.793 55.375 45.948 55.327 30.453C55.294 19.512 55.247 15.132 55.157 14.679C54.686 12.3 53.357 10.528 51.246 9.46197C50.396 9.03297 49.461 8.84097 47.733 8.73997C45.832 8.62897 17.925 8.63797 16 8.74997ZM49.403 12.976C50.036 13.269 50.731 13.964 51.024 14.597L51.253 15.093V48.907L51.024 49.403C50.731 50.036 50.036 50.731 49.403 51.024L48.907 51.253H15.093L14.597 51.024C13.964 50.731 13.269 50.036 12.976 49.403L12.747 48.907V15.093L12.976 14.597C13.392 13.697 14.265 12.987 15.181 12.804C15.426 12.755 23.115 12.722 32.267 12.731L48.907 12.747L49.403 12.976ZM31.506 16.739C31.036 16.855 30.564 17.216 30.274 17.682C30.039 18.06 30.027 18.177 30.027 20C30.027 21.823 30.039 21.94 30.274 22.318C30.968 23.434 32.478 23.629 33.388 22.719C33.932 22.175 34.062 21.528 34.01 19.634C33.976 18.43 33.932 18.115 33.749 17.76C33.344 16.979 32.357 16.53 31.506 16.739ZM31.506 27.406C31.036 27.521 30.564 27.882 30.274 28.349C30.029 28.742 30.027 28.782 30.027 32C30.027 35.218 30.029 35.258 30.274 35.651C30.968 36.768 32.478 36.962 33.388 36.052C33.983 35.457 34.049 34.991 34.008 31.652C33.976 29.059 33.957 28.822 33.751 28.427C33.342 27.645 32.357 27.197 31.506 27.406ZM31.506 40.739C31.036 40.855 30.564 41.216 30.274 41.682C30.039 42.06 30.027 42.177 30.027 44C30.027 45.823 30.039 45.94 30.274 46.318C30.968 47.434 32.478 47.629 33.388 46.719C33.932 46.175 34.062 45.528 34.01 43.634C33.976 42.43 33.932 42.115 33.749 41.76C33.344 40.979 32.357 40.53 31.506 40.739Z" fill="#222222"/>
</svg>
