<svg width="64" height="64" viewBox="0 0 64 64" fill="none" xmlns="http://www.w3.org/2000/svg">
<path fill-rule="evenodd" clip-rule="evenodd" d="M15.307 6.04397C11.772 6.35997 8.87199 8.22797 7.25199 11.231C6.40099 12.808 6.05499 14.186 6.05499 16C6.05499 17.817 6.40099 19.192 7.25699 20.779C8.20499 22.537 9.46799 23.8 11.219 24.74C13.223 25.817 13.866 25.93 18.32 25.997L21.973 26.051V37.949L18.32 38.003C13.866 38.07 13.223 38.183 11.219 39.26C9.46799 40.2 8.20499 41.463 7.25699 43.221C6.40099 44.808 6.05499 46.183 6.05499 48C6.05499 49.814 6.40099 51.192 7.25199 52.769C8.20499 54.537 9.45999 55.793 11.221 56.743C12.808 57.599 14.183 57.945 16 57.945C17.817 57.945 19.192 57.599 20.779 56.743C22.537 55.795 23.8 54.532 24.74 52.781C25.817 50.777 25.93 50.134 25.997 45.68L26.051 42.027H37.949L38.003 45.68C38.07 50.134 38.183 50.777 39.26 52.781C40.668 55.403 43.239 57.272 46.187 57.817C47.077 57.981 48.923 57.981 49.813 57.817C51.767 57.456 53.902 56.308 55.208 54.917C56.524 53.516 57.477 51.65 57.817 49.813C57.981 48.923 57.981 47.077 57.817 46.187C57.272 43.239 55.403 40.668 52.781 39.26C50.777 38.183 50.134 38.07 45.68 38.003L42.027 37.949V26.051L45.68 25.997C50.134 25.93 50.777 25.817 52.781 24.74C55.403 23.332 57.272 20.761 57.817 17.813C57.981 16.923 57.981 15.077 57.817 14.187C57.477 12.35 56.524 10.484 55.208 9.08297C53.902 7.69197 51.767 6.54397 49.813 6.18297C48.923 6.01897 47.077 6.01897 46.187 6.18297C43.244 6.72697 40.668 8.59697 39.266 11.209C38.183 13.224 38.07 13.861 38.003 18.32L37.949 21.973H26.051L25.997 18.32C25.955 15.533 25.902 14.493 25.774 13.934C24.97 10.43 22.576 7.73097 19.241 6.56797C18.116 6.17497 16.396 5.94597 15.307 6.04397ZM17.542 10.19C17.887 10.28 18.461 10.506 18.818 10.693C19.657 11.133 20.867 12.343 21.307 13.182C21.929 14.369 21.973 14.725 21.973 18.529V21.973H18.529C14.725 21.973 14.369 21.929 13.182 21.307C12.813 21.113 12.21 20.643 11.783 20.217C10.557 18.99 10.027 17.718 10.027 16C10.027 14.282 10.557 13.01 11.783 11.783C12.585 10.982 13.466 10.45 14.412 10.195C15.179 9.98897 16.761 9.98597 17.542 10.19ZM49.542 10.19C50.529 10.447 51.398 10.964 52.217 11.783C53.443 13.01 53.973 14.282 53.973 16C53.973 17.718 53.443 18.99 52.217 20.217C51.79 20.643 51.187 21.113 50.818 21.307C49.631 21.929 49.275 21.973 45.471 21.973H42.027V18.529C42.027 15.78 42.06 14.958 42.19 14.458C42.697 12.511 44.475 10.716 46.412 10.195C47.179 9.98897 48.761 9.98597 49.542 10.19ZM37.973 32V37.973H26.027V26.027H37.973V32ZM21.973 45.471C21.973 49.275 21.929 49.631 21.307 50.818C21.113 51.187 20.643 51.79 20.217 52.217C18.99 53.443 17.718 53.973 16 53.973C14.282 53.973 13.01 53.443 11.783 52.217C10.557 50.99 10.027 49.718 10.027 48C10.027 46.282 10.557 45.01 11.783 43.783C12.212 43.355 12.813 42.887 13.185 42.692C14.358 42.077 14.641 42.041 18.48 42.034L21.973 42.027V45.471ZM49.542 42.19C50.529 42.447 51.398 42.964 52.217 43.783C53.443 45.01 53.973 46.282 53.973 48C53.973 49.718 53.443 50.99 52.217 52.217C50.99 53.443 49.718 53.973 48 53.973C46.282 53.973 45.01 53.443 43.783 52.217C43.357 51.79 42.887 51.187 42.693 50.818C42.071 49.631 42.027 49.275 42.027 45.471V42.027H45.471C48.22 42.027 49.042 42.06 49.542 42.19Z" fill="#222222"/>
</svg>
