<svg width="64" height="64" viewBox="0 0 64 64" fill="none" xmlns="http://www.w3.org/2000/svg">
<path fill-rule="evenodd" clip-rule="evenodd" d="M30.2401 6.08397C22.2241 6.59497 14.8891 10.854 10.3571 17.629C6.35006 23.619 5.04506 31.173 6.78706 38.285C9.10006 47.722 16.7331 55.197 26.2401 57.336C29.9551 58.172 34.0541 58.169 37.8031 57.327C46.5721 55.358 53.7621 48.826 56.6511 40.203C58.1201 35.819 58.3661 30.816 57.3361 26.24C55.1541 16.54 47.4601 8.84597 37.7601 6.66397C35.4361 6.14097 32.6781 5.92797 30.2401 6.08397ZM34.5631 10.138C37.7194 10.5221 40.7562 11.5802 43.4679 13.2404C46.1796 14.9007 48.5028 17.1244 50.2801 19.761C51.7271 21.9 53.0371 25.007 53.5391 27.491C53.8691 29.121 53.9731 30.208 53.9731 32C53.9731 35.551 53.2721 38.574 51.7191 41.713C49.5311 46.135 46.1351 49.531 41.7131 51.719C38.5741 53.272 35.5511 53.973 32.0001 53.973C28.4671 53.973 25.4851 53.286 22.3301 51.743C15.6221 48.464 11.0621 42.038 10.1381 34.563C9.99506 33.4 9.99506 30.6 10.1381 29.437C10.6601 25.219 12.4241 21.11 15.0621 17.973C16.0104 16.8557 17.0525 15.8216 18.1771 14.882C21.0681 12.471 25.3271 10.657 29.2901 10.148C30.3451 10.013 33.5001 10.007 34.5631 10.138ZM41.9731 19.5C40.7011 19.961 26.7761 26.383 26.5671 26.605C26.3011 26.889 19.5531 41.671 19.4201 42.263C19.1121 43.632 20.4291 44.945 21.7511 44.589C22.4731 44.395 37.1591 37.663 37.4111 37.411C37.6821 37.14 44.4391 22.366 44.5811 21.733C44.9211 20.221 43.4531 18.964 41.9731 19.5ZM38.6131 25.416C38.6131 25.432 37.6871 27.482 36.5551 29.971L34.4961 34.496L29.9751 36.553C27.4881 37.684 25.4401 38.595 25.4221 38.578C25.4051 38.56 26.3161 36.512 27.4471 34.025L29.5041 29.504L33.9791 27.456C38.1881 25.529 38.6131 25.342 38.6131 25.416Z" fill="#222222"/>
</svg>
