<svg width="64" height="64" viewBox="0 0 64 64" fill="none" xmlns="http://www.w3.org/2000/svg">
<path fill-rule="evenodd" clip-rule="evenodd" d="M9.86701 6.17497C8.22301 6.93297 8.27101 9.16197 9.94501 9.86197C10.446 10.071 10.888 10.071 11.389 9.86197C11.7658 9.71761 12.0899 9.46234 12.3185 9.12989C12.5472 8.79744 12.6696 8.40345 12.6696 7.99997C12.6696 7.59649 12.5472 7.2025 12.3185 6.87005C12.0899 6.5376 11.7658 6.28233 11.389 6.13797C10.87 5.92197 10.391 5.93297 9.86701 6.17497ZM20.533 6.17497C18.89 6.93297 18.937 9.16197 20.611 9.86197C21.112 10.071 21.554 10.071 22.055 9.86197C22.4318 9.71761 22.7559 9.46234 22.9845 9.12989C23.2132 8.79744 23.3356 8.40345 23.3356 7.99997C23.3356 7.59649 23.2132 7.2025 22.9845 6.87005C22.7559 6.5376 22.4318 6.28233 22.055 6.13797C21.536 5.92197 21.057 5.93297 20.533 6.17497ZM31.426 6.10497C30.891 6.24697 30.271 6.87097 30.1 7.43997C29.984 7.82797 29.997 8.05197 30.197 9.09097C30.696 11.697 30.181 13.958 28.639 15.919C27.727 17.08 26.202 18.061 24.776 18.403C23.737 18.652 21.98 18.577 21.067 18.245C19.793 17.782 18.743 18.107 18.223 19.126C18.006 19.552 18.001 19.636 18.109 20.854C18.367 23.773 17.664 25.941 15.848 27.822C14.109 29.624 11.811 30.446 9.31301 30.161C7.48301 29.951 6.93501 30.093 6.34701 30.926C6.02901 31.375 6.02701 31.389 6.05101 32.676C6.17201 39.102 8.76401 45.283 13.349 50.08C17.092 53.995 22.316 56.741 27.738 57.646C30.003 58.024 33.382 58.054 35.68 57.716C41.0357 56.9299 46.0172 54.5068 49.942 50.779C53.444 47.46 56.049 42.993 57.222 38.296C58.214 34.327 58.212 29.722 57.219 25.76C54.681 15.643 46.362 7.98197 36.137 6.34797C35.318 6.21697 32.138 5.94597 31.893 5.98697C31.864 5.99097 31.654 6.04497 31.426 6.10497ZM36.533 10.473C41.155 11.402 45.74 14.163 48.851 17.89C55.673 26.063 55.704 37.967 48.926 46.044C41.712 54.639 29.263 56.517 19.953 50.414C14.876 47.087 11.343 41.661 10.297 35.586C10.055 34.184 10.013 34.279 10.907 34.196C11.332 34.156 11.968 34.075 12.32 34.015C17.359 33.161 21.334 28.974 22.032 23.787C22.115 23.171 22.183 22.631 22.185 22.588C22.186 22.545 22.463 22.539 22.8 22.574C23.525 22.65 25.454 22.387 26.439 22.078C27.466 21.756 28.762 21.085 29.653 20.413C30.717 19.612 30.963 19.38 31.629 18.552C33.425 16.318 34.347 13.817 34.347 11.181V10.113L34.907 10.186C35.215 10.225 35.947 10.355 36.533 10.473ZM7.20001 16.842C5.55701 17.6 5.60401 19.829 7.27801 20.528C7.77901 20.738 8.22101 20.738 8.72201 20.528C10.43 19.815 10.43 17.519 8.72201 16.805C8.20301 16.588 7.72401 16.6 7.20001 16.842ZM42.172 24.739C40.908 25.05 40.276 26.638 40.988 27.715C41.4 28.337 41.928 28.622 42.668 28.622C43.415 28.622 43.871 28.382 44.31 27.758C44.722 27.171 44.752 26.265 44.378 25.661C43.927 24.931 42.988 24.539 42.172 24.739ZM28.839 30.073C27.575 30.383 26.943 31.971 27.655 33.048C28.067 33.67 28.595 33.956 29.334 33.956C30.081 33.956 30.538 33.715 30.976 33.092C31.389 32.505 31.418 31.599 31.045 30.994C30.594 30.265 29.655 29.872 28.839 30.073ZM39.506 38.073C38.241 38.383 37.609 39.971 38.322 41.048C38.733 41.67 39.262 41.956 40.001 41.956C40.748 41.956 41.205 41.715 41.643 41.092C42.055 40.505 42.085 39.599 41.711 38.994C41.26 38.265 40.322 37.872 39.506 38.073ZM26.172 43.406C24.908 43.716 24.276 45.305 24.988 46.381C25.404 47.009 25.927 47.289 26.685 47.289C27.208 47.289 27.388 47.236 27.758 46.976C28.382 46.538 28.622 46.081 28.622 45.334C28.622 44.883 28.558 44.619 28.378 44.328C27.927 43.598 26.988 43.206 26.172 43.406Z" fill="#222222"/>
</svg>
