<svg width="64" height="64" viewBox="0 0 64 64" fill="none" xmlns="http://www.w3.org/2000/svg">
<path fill-rule="evenodd" clip-rule="evenodd" d="M29.333 6.08402C27.887 6.16802 26.902 6.38002 26.103 6.78002C23.978 7.84202 22.595 9.70702 22.185 12.06C22.117 12.45 22.039 14.732 22.004 17.345L21.944 21.944L17.345 22.004C11.671 22.079 10.938 22.189 9.39301 23.189C7.66201 24.31 6.58001 25.934 6.18001 28.012C6.00901 28.898 5.91501 47.506 6.06801 50.143C6.18801 52.207 6.34501 53.021 6.79601 53.914C7.86201 56.025 9.65201 57.365 12.012 57.82C12.898 57.991 31.506 58.085 34.143 57.932C36.314 57.806 37.046 57.653 38.08 57.111C39.836 56.191 41.18 54.53 41.654 52.693C41.901 51.737 42.019 49.409 42.023 45.413L42.027 42.027L45.413 42.023C49.409 42.019 51.737 41.901 52.693 41.654C54.53 41.18 56.191 39.836 57.111 38.08C57.653 37.046 57.806 36.314 57.932 34.143C58.085 31.506 57.991 12.898 57.82 12.012C57.365 9.65102 56.025 7.86202 53.912 6.79602C53.063 6.36602 52.128 6.17402 50.4 6.07402C48.507 5.96302 31.26 5.97202 29.333 6.08402ZM52.069 10.309C52.703 10.602 53.398 11.297 53.691 11.931L53.92 12.427V35.573L53.691 36.069C53.398 36.703 52.703 37.398 52.069 37.691C51.589 37.913 51.423 37.921 46.815 37.953L42.057 37.985L41.996 33.366C41.961 30.739 41.883 28.451 41.815 28.06C41.405 25.702 40.05 23.875 37.912 22.796C36.616 22.141 34.971 21.983 29.407 21.977L26.015 21.973L26.047 17.2C26.079 12.577 26.087 12.411 26.309 11.931C26.725 11.03 27.598 10.321 28.515 10.137C28.76 10.087 34.048 10.055 40.267 10.064L51.573 10.08L52.069 10.309ZM36.069 26.309C36.703 26.602 37.398 27.297 37.691 27.931L37.92 28.427V51.573L37.691 52.069C37.398 52.703 36.703 53.398 36.069 53.691L35.573 53.92H12.427L11.931 53.691C11.297 53.398 10.602 52.703 10.309 52.069L10.08 51.573V28.427L10.309 27.931C10.725 27.03 11.598 26.321 12.515 26.137C12.76 26.087 18.048 26.055 24.267 26.064L35.573 26.08L36.069 26.309Z" fill="#222222"/>
</svg>
