<svg width="64" height="64" viewBox="0 0 64 64" fill="none" xmlns="http://www.w3.org/2000/svg">
<path fill-rule="evenodd" clip-rule="evenodd" d="M19.8196 8.17466C17.1244 8.33954 16.818 8.39977 16.5462 8.81535C16.3166 9.16542 15.5795 11.3419 15.5795 11.6687C15.5795 12.2499 16.0132 12.7611 16.5838 12.8522L16.9023 12.9026V15.5459H16.6418C16.2601 15.5459 15.7331 15.8546 15.5713 16.1715C15.438 16.4343 14.6038 20.898 14.6754 20.9687C14.6949 20.9891 14.8538 21.0245 15.0284 21.0478C15.4553 21.105 15.4327 21.2255 14.9961 21.2255C14.704 21.2255 14.646 21.2496 14.646 21.3738C14.646 21.4686 14.5135 21.5981 14.2763 21.7344C13.3699 22.2569 12.1879 23.2973 11.4501 24.2203C10.427 25.5009 9.51827 27.3605 9.15916 28.9114C8.85952 30.2018 8.82941 29.8886 10.4721 42.4696C11.5932 51.0567 12.0328 54.2142 12.148 54.5184C12.3558 55.0657 12.6562 55.4866 13.0394 55.7689L13.3541 56H50.1275L50.5122 55.6401C50.7508 55.4059 50.9528 55.1372 51.1114 54.8429L51.326 54.4047L51.3734 51.9933L51.4201 49.5819L52.9876 38.146C53.8496 31.8558 54.5543 26.6543 54.555 26.5866C54.555 26.497 54.4316 26.4405 54.1078 26.3833L53.6606 26.3042L54.153 26.293L54.6461 26.2817L54.6198 24.59C54.5949 22.9856 54.5844 22.8833 54.4157 22.6115C54.2863 22.4216 54.1106 22.2677 53.9053 22.1643C53.5748 22.0047 53.5063 22.0032 45.4447 22.0032H37.3176L36.972 22.1778C36.3584 22.4895 36.3155 22.6386 36.2869 24.59L36.2621 26.2817L36.7537 26.2922L37.2453 26.302L36.7981 26.3788C36.3848 26.4496 36.3509 26.4706 36.3539 26.6604C36.3554 26.7733 36.6671 29.141 37.0465 31.9221C37.426 34.7031 37.7204 36.9948 37.7008 37.0152C37.6345 37.0837 36.4465 36.7991 36.2432 36.6658C36.0746 36.5559 36.04 36.4739 36.04 36.1885C36.04 35.7346 35.8021 35.2866 35.4437 35.0653C34.8896 34.7227 33.3779 34.792 31.9918 35.2234L31.5273 35.3679V35.1857C31.5273 35.0863 31.6538 34.1009 31.8074 32.9964C32.1996 30.1822 32.1356 29.391 31.3625 27.4486C30.5373 25.3767 28.7019 23.0481 27.0712 22.0032C26.566 21.6794 26.4019 21.5326 26.3981 21.4001C26.3936 21.2458 26.3522 21.2255 26.0473 21.2255C25.5843 21.2255 25.5301 21.0997 25.966 21.035C26.2212 20.9966 26.3153 20.9469 26.3153 20.8513C26.3153 20.4779 25.4201 16.3003 25.2959 16.0962C25.1288 15.8214 24.6289 15.5459 24.2954 15.5459H24.059V12.9086L26.8016 12.8853C29.4638 12.8627 29.5518 12.8574 29.8161 12.6926C30.3687 12.3478 30.3996 12.2205 30.3996 10.2563C30.3996 8.65348 30.3868 8.48409 30.2467 8.25296L30.0939 8L26.2016 8.01129C23.3453 8.01882 21.6461 8.06249 19.8196 8.17466ZM28.1824 10.2947V10.6448H23.1879C20.3451 10.6448 18.2251 10.6162 18.2672 10.577C18.3297 10.5206 26.5103 9.98453 27.7736 9.95442L28.1824 9.94463V10.2947ZM21.8034 14.2239V15.5459H19.1579V12.9011H21.8034V14.2239ZM23.4657 17.9385C23.4868 18.013 23.5794 18.4595 23.6705 18.93C23.7616 19.4013 23.8534 19.847 23.8753 19.9223C23.9122 20.0503 23.7134 20.0585 20.4776 20.0585C17.7606 20.0585 17.0484 20.0382 17.0777 19.9607C17.0981 19.9072 17.1952 19.3998 17.2938 18.8329L17.4737 17.8022H20.4498C23.218 17.8022 23.4288 17.812 23.4657 17.9385ZM22.6948 22.8622C24.4384 23.0617 25.2018 23.3485 26.2852 24.2083C28.1327 25.6756 29.8161 28.6614 29.8161 30.4728C29.8161 30.92 29.0843 36.6244 29.0218 36.6613C29.0098 36.6689 28.5264 37.0618 27.949 37.5339C26.1745 38.9846 25.4917 39.3611 24.2577 39.5711L23.5523 39.6908L23.5809 40.2607L23.6095 40.8299H22.5081L22.4863 41.8116L22.4644 42.7934L21.9668 42.9462C21.0942 43.2135 20.5461 43.6945 20.3105 44.3992C20.242 44.6032 20.2089 45.9847 20.1893 49.4065L20.1614 54.1329H17.3984C15.779 54.1329 14.5782 54.102 14.4962 54.0576C14.4194 54.017 14.3162 53.8852 14.2673 53.7663C14.1574 53.4983 11.2227 31.0149 11.2227 30.4397C11.2227 29.3119 11.7987 27.7294 12.7352 26.2817C13.4271 25.2111 14.8018 23.9508 15.8521 23.4223C16.2451 23.2251 17.1154 23.0308 18.198 22.8998C19.2317 22.7748 21.7492 22.7538 22.6948 22.8622ZM52.377 24.7263V25.193H38.5289V24.2595H52.377V24.7263ZM52.1692 27.624C52.1082 27.9718 49.2647 48.9525 49.2647 49.0519C49.2647 49.1332 48.8386 49.1535 47.1258 49.1535H44.9862L44.9847 47.306C44.9832 44.8298 44.8492 44.2351 44.1407 43.5688C43.8817 43.3249 43.1153 42.956 42.7321 42.8912L42.4393 42.8423L42.4001 41.3885C42.3565 39.7405 42.2375 39.2225 41.7496 38.5502C41.502 38.2092 40.5368 37.4865 40.1769 37.372C40.0617 37.3359 39.9526 36.6553 39.397 32.5251C39.0416 29.8833 38.7337 27.6601 38.7126 27.5849C38.6765 27.4561 39.0333 27.4486 45.4371 27.4486H52.1993L52.1692 27.624ZM18.0692 27.6007C15.4162 27.6428 15.3823 27.6451 15.1308 27.8243C14.6482 28.1691 14.646 28.1841 14.646 31.0834C14.646 34.0858 14.6482 34.0971 15.2769 34.4366L15.6187 34.6218L20.5582 34.5684C25.3787 34.5157 25.5052 34.5104 25.7898 34.3516C25.975 34.2484 26.1399 34.0685 26.2408 33.8607C26.3921 33.5483 26.3981 33.4158 26.3763 30.9245C26.3552 28.4296 26.3469 28.3061 26.1941 28.1013C26.084 27.9618 25.9579 27.8358 25.8184 27.7256C25.6129 27.5721 25.5037 27.5653 23.1781 27.5615C21.8441 27.5593 19.5448 27.5766 18.0692 27.6007ZM24.1373 31.0661V32.3497H16.824V29.8705L17.0386 29.8382C17.156 29.8209 18.801 29.8005 20.6945 29.7945L24.1373 29.7825V31.0661ZM44.7084 29.9496C43.1319 30.0859 41.6744 30.8824 41.1715 31.8829C40.7559 32.7103 41.0344 33.8411 41.8039 34.4494C43.1455 35.5095 45.5802 35.8911 47.2771 35.3077C48.3876 34.9252 49.273 34.262 49.6215 33.5498C49.8037 33.1763 49.8256 33.0566 49.7917 32.5869C49.7638 32.2006 49.6968 31.9545 49.5523 31.7075C48.8386 30.4894 46.842 29.7651 44.7084 29.9496ZM46.5996 32.3188C46.8292 32.3791 47.1258 32.4845 47.2598 32.5537L47.5022 32.6787L47.314 32.8248C46.6508 33.3382 45.2376 33.4835 44.1693 33.15C43.8697 33.0559 43.555 32.9249 43.4692 32.8594L43.3133 32.7389L43.4692 32.6418C43.741 32.4717 44.3131 32.2586 44.6753 32.1924C45.1082 32.1126 46.0424 32.1743 46.5996 32.3188ZM34.0494 37.5166C34.5794 38.5999 35.8164 39.157 37.9319 39.2647C38.6863 39.3031 39.1056 39.3588 39.2599 39.4416C39.4655 39.5515 39.0401 39.5666 34.2549 39.6193C31.379 39.6509 29.009 39.66 28.9887 39.6396C28.9684 39.6193 29.3011 39.3219 29.728 38.9786C30.5509 38.3161 31.3911 37.7884 31.9361 37.5911C32.2922 37.4616 33.6105 37.1055 33.755 37.0995C33.8032 37.0972 33.9357 37.2847 34.0494 37.5166ZM40.1476 42.2882L40.1242 42.7354L32.4413 42.7557L24.7591 42.7753V41.9208L27.6185 41.899C29.1905 41.8877 32.6581 41.8696 35.324 41.8598L40.1709 41.841L40.1476 42.2882ZM41.9409 45.0271C42.8029 45.1521 42.7299 44.7214 42.7299 49.7008V54.0358L35.8646 54.0892C32.089 54.1186 27.5289 54.1322 25.7318 54.1186L22.4644 54.0938L22.4441 49.6045L22.4245 45.1159L22.7166 45.0677C22.8777 45.0414 23.0614 45.009 23.1254 44.9955C23.4213 44.933 41.4997 44.9638 41.9409 45.0271ZM31.8962 46.0495C30.913 46.1594 29.8281 46.9634 29.3478 47.9384C28.4911 49.6798 29.2243 52.0294 30.8573 52.777C31.6621 53.1459 32.6672 53.2016 33.6783 52.9344C36.1401 52.2839 36.9976 49.2333 35.2698 47.2751C34.4462 46.3408 33.2333 45.9004 31.8962 46.0495ZM32.9088 48.3382C33.865 48.6227 34.2414 49.7264 33.6225 50.4319C33.3515 50.7405 32.8004 50.9062 32.2508 50.8444C31.6094 50.7722 31.2857 50.3814 31.2375 49.6203C31.2013 49.0526 31.4287 48.6401 31.9136 48.3954C32.3246 48.1876 32.3894 48.1846 32.9088 48.3382ZM49.1096 52.6392C49.1096 53.4915 49.081 53.8965 49.0162 53.9613C48.9485 54.029 48.3816 54.0546 46.9542 54.0546H44.9862V51.4098H49.1096V52.6392Z" fill="#222222"/>
</svg>
