<svg width="64" height="64" viewBox="0 0 64 64" fill="none" xmlns="http://www.w3.org/2000/svg">
<path fill-rule="evenodd" clip-rule="evenodd" d="M13.333 11.417C11.887 11.501 10.902 11.713 10.103 12.113C8.00401 13.163 6.64201 14.979 6.17801 17.345C6.00801 18.214 5.91401 42.147 6.07001 44.839C6.18801 46.873 6.34701 47.691 6.79601 48.581C7.86101 50.69 9.62901 52.015 12.012 52.491C12.473 52.583 17.388 52.629 30.453 52.661C48.635 52.707 51.439 52.663 52.747 52.313C55.024 51.703 57.036 49.691 57.646 47.413C57.984 46.152 58.044 43.246 57.994 30.439C57.96 21.638 57.909 17.789 57.822 17.345C57.357 14.974 56.024 13.195 53.912 12.129C53.063 11.7 52.128 11.508 50.4 11.407C48.496 11.296 15.257 11.305 13.333 11.417ZM52.069 15.643C52.703 15.936 53.398 16.63 53.691 17.264L53.92 17.76V46.24L53.691 46.736C53.398 47.37 52.703 48.064 52.069 48.357L51.573 48.587H12.427L11.931 48.357C11.297 48.064 10.602 47.37 10.309 46.736L10.08 46.24V17.76L10.309 17.264C10.726 16.363 11.599 15.653 12.515 15.471C12.76 15.422 21.648 15.389 32.267 15.398L51.573 15.413L52.069 15.643ZM29.755 30.083C27.512 30.428 25.659 32.031 24.948 34.24C24.658 35.141 24.636 36.688 24.9 37.6C25.477 39.591 27.067 41.189 29.038 41.757C29.859 41.994 31.104 42.01 31.52 41.789C32.23 41.412 32.64 40.757 32.64 40C32.64 39.464 32.482 39.06 32.127 38.684C31.724 38.258 31.415 38.12 30.569 37.989C29.374 37.805 28.693 37.082 28.693 36C28.693 34.918 29.374 34.195 30.569 34.011C31.415 33.88 31.724 33.742 32.127 33.316C32.482 32.94 32.64 32.536 32.64 32C32.64 31.464 32.482 31.06 32.127 30.684C31.571 30.097 30.851 29.914 29.755 30.083ZM40.421 30.082C37.508 30.534 35.406 32.981 35.384 35.947C35.372 37.667 35.919 39.012 37.12 40.213C38.301 41.394 39.647 41.949 41.333 41.949C43.019 41.949 44.366 41.394 45.547 40.213C46.728 39.032 47.282 37.686 47.282 36C47.282 34.314 46.728 32.968 45.547 31.787C44.195 30.435 42.27 29.795 40.421 30.082ZM42.518 34.407C43.129 34.902 43.326 35.347 43.282 36.129C43.251 36.673 43.187 36.862 42.926 37.185C42.432 37.795 41.986 37.993 41.204 37.948C40.66 37.917 40.471 37.853 40.149 37.593C39.538 37.098 39.34 36.653 39.385 35.871C39.416 35.327 39.48 35.138 39.741 34.815C40.235 34.205 40.681 34.007 41.463 34.052C42.007 34.083 42.196 34.147 42.518 34.407Z" fill="#222222"/>
</svg>
