<svg width="64" height="64" viewBox="0 0 64 64" fill="none" xmlns="http://www.w3.org/2000/svg">
<path fill-rule="evenodd" clip-rule="evenodd" d="M13.333 11.417C11.887 11.501 10.902 11.713 10.103 12.113C8.00401 13.163 6.64201 14.979 6.17801 17.345C6.00801 18.214 5.91401 42.147 6.07001 44.839C6.19401 46.98 6.34901 47.716 6.89001 48.749C7.56454 50.0462 8.62259 51.1039 9.92001 51.778C10.905 52.295 11.771 52.486 13.6 52.593C15.685 52.715 48.315 52.715 50.4 52.593C52.229 52.486 53.095 52.295 54.08 51.778C55.3774 51.1039 56.4355 50.0462 57.11 48.749C57.651 47.716 57.806 46.98 57.93 44.839C58.086 42.147 57.992 18.214 57.822 17.345C57.357 14.974 56.024 13.195 53.912 12.129C53.063 11.7 52.128 11.508 50.4 11.407C48.496 11.296 15.257 11.305 13.333 11.417ZM52.069 15.643C52.706 15.937 53.4 16.633 53.687 17.264C53.886 17.703 53.917 18.004 53.954 19.867L53.996 21.973H10.004L10.046 19.867C10.093 17.468 10.184 17.123 10.97 16.336C11.476 15.831 11.899 15.593 12.515 15.471C12.76 15.422 21.648 15.389 32.267 15.398L51.573 15.413L52.069 15.643ZM53.973 26.667V27.307H10.027V26.027H53.973V26.667ZM53.951 38.8C53.92 46.155 53.917 46.246 53.691 46.736C53.398 47.37 52.703 48.064 52.069 48.357L51.573 48.587H12.427L11.931 48.357C11.297 48.064 10.602 47.37 10.309 46.736C10.083 46.246 10.08 46.155 10.049 38.8L10.018 31.36H53.982L53.951 38.8ZM18.172 38.073C16.88 38.39 16.261 40.01 17.022 41.087C17.193 41.329 17.525 41.628 17.76 41.751C18.174 41.967 18.348 41.974 23.668 42.005C27.45 42.026 29.329 41.998 29.731 41.915C31.495 41.549 31.868 39.238 30.318 38.274L29.92 38.027L24.213 38.009C21.075 37.999 18.356 38.028 18.172 38.073Z" fill="#222222"/>
</svg>
