<svg width="64" height="64" viewBox="0 0 64 64" fill="none" xmlns="http://www.w3.org/2000/svg">
<path fill-rule="evenodd" clip-rule="evenodd" d="M15.506 6.075C15.038 6.187 14.565 6.547 14.274 7.015C14.031 7.406 14.026 7.477 13.993 10.686L13.96 13.96L10.678 13.993L7.39701 14.027L6.96501 14.313C6.32501 14.737 6.04401 15.256 6.04401 16.018C6.04401 16.541 6.09701 16.721 6.35601 17.087C6.96001 17.943 7.08201 17.969 10.747 18.007L13.973 18.041L13.977 29.42C13.98 41.124 14.038 43.502 14.345 44.686C15.026 47.312 17.182 49.267 20.012 49.822C20.456 49.91 24.343 49.96 33.3 49.994L45.96 50.042L45.993 53.314C46.026 56.523 46.031 56.594 46.274 56.985C47.226 58.516 49.537 58.165 49.909 56.433C49.979 56.107 50.027 54.69 50.027 52.955V50.027H52.955C54.69 50.027 56.107 49.979 56.433 49.909C58.212 49.527 58.518 47.039 56.886 46.228C56.494 46.034 55.86 46.025 38.453 45.973L20.427 45.92L19.931 45.691C19.297 45.398 18.602 44.703 18.309 44.069L18.08 43.573L18.027 25.547C17.975 8.14 17.966 7.506 17.772 7.114C17.528 6.623 17.054 6.248 16.48 6.091C16.007 5.962 15.981 5.961 15.506 6.075ZM26.172 14.075C24.883 14.383 24.261 16.01 25.022 17.087C25.193 17.329 25.525 17.628 25.76 17.751C26.18 17.97 26.323 17.974 34.88 18.027C43.493 18.08 43.578 18.082 44.069 18.309C44.703 18.602 45.398 19.297 45.691 19.931C45.918 20.422 45.92 20.505 45.973 29.173L46.027 37.92L46.274 38.318C47.256 39.898 49.546 39.51 49.921 37.701C50.09 36.89 49.997 20.952 49.818 20.012C49.372 17.66 48.026 15.863 45.912 14.796C45.063 14.366 44.128 14.174 42.4 14.074C40.469 13.961 26.645 13.962 26.172 14.075Z" fill="#222222"/>
</svg>
