<svg width="64" height="64" viewBox="0 0 64 64" fill="none" xmlns="http://www.w3.org/2000/svg">
<path fill-rule="evenodd" clip-rule="evenodd" d="M27.147 6.04594C21.652 6.33694 16.766 9.00894 13.84 13.3239C12.495 15.3059 11.447 18.3809 11.401 20.4799C11.377 21.5719 11.338 21.6399 10.312 22.3539C8.168 23.8469 6.881 25.6179 6.287 27.8929C5.86 29.5269 6.007 31.8659 6.645 33.6259C7.426 35.7759 9.329 37.9139 11.134 38.6679C11.37 38.7669 11.537 38.9189 11.569 39.0669C11.599 39.1989 12.101 42.6669 12.687 46.7729C13.301 51.0829 13.838 54.5029 13.958 54.8629C14.416 56.2439 15.491 57.2929 16.903 57.7369L17.653 57.9729H46.347L47.097 57.7369C48.509 57.2929 49.584 56.2439 50.042 54.8629C50.161 54.5039 50.722 50.9419 51.365 46.4619C51.7385 43.8625 52.1102 41.2629 52.48 38.6629C52.48 38.6519 52.81 38.3969 53.214 38.0969C56.357 35.7599 58.331 30.8929 57.915 26.5049C57.535 22.4949 55.022 19.0029 51.176 17.1409C50.145 16.6409 50.028 16.5549 49.986 16.2669C49.763 14.7289 49.673 14.3179 49.429 13.7069C48.452 11.2669 46.158 9.33894 43.458 8.68894C42.459 8.44794 40.542 8.44694 39.307 8.68494C38.769 8.78994 38.169 8.84294 37.942 8.80694C37.72 8.77194 37 8.45894 36.342 8.11194C34.928 7.36494 34.322 7.11594 32.953 6.71694C31.283 6.22994 28.891 5.95294 27.147 6.04594ZM31.093 10.3299C32.424 10.6639 33.438 11.0619 34.827 11.7939C35.531 12.1659 36.393 12.5439 36.742 12.6349C37.53 12.8389 38.869 12.8419 39.787 12.6399C41.127 12.3449 42.677 12.4729 43.627 12.9569C44.188 13.2429 45.102 14.0559 45.408 14.5399C45.761 15.0989 45.849 15.4069 46.026 16.7109C46.305 18.7559 46.883 19.4829 49.105 20.5799C50.301 21.1699 50.774 21.4709 51.389 22.0329C52.7 23.2299 53.418 24.4099 53.809 26.0099C54.059 27.0289 53.991 29.0029 53.664 30.2039C53.09 32.3149 51.976 34.1219 50.714 34.9909L50.255 35.3069H13.375L12.794 35.0189C12.046 34.6499 11.008 33.6019 10.648 32.8529C9.841 31.1739 9.817 29.1939 10.585 27.6849C10.912 27.0419 11.904 26.0609 12.853 25.4399C14.651 24.2629 15.164 23.3389 15.359 20.9159C15.594 18.0049 16.616 15.7889 18.66 13.7589C20.528 11.9029 22.888 10.6979 25.653 10.1889C26.89 9.96094 29.938 10.0409 31.093 10.3299ZM24.64 46.6669V53.9729H21.38C19.458 53.9729 18.039 53.9299 17.924 53.8689C17.79 53.7969 17.692 53.5479 17.608 53.0699C17.431 52.0499 15.68 39.7769 15.68 39.5519C15.68 39.3699 15.92 39.3599 20.16 39.3599H24.64V46.6669ZM35.307 46.6669V53.9729H28.693V39.3599H35.307V46.6669ZM48.32 39.5519C48.32 39.7769 46.569 52.0499 46.392 53.0699C46.308 53.5479 46.21 53.7969 46.076 53.8689C45.961 53.9299 44.542 53.9729 42.62 53.9729H39.36V39.3599H43.84C48.08 39.3599 48.32 39.3699 48.32 39.5519Z" fill="#222222"/>
</svg>
