<svg width="64" height="64" viewBox="0 0 64 64" fill="none" xmlns="http://www.w3.org/2000/svg">
<path fill-rule="evenodd" clip-rule="evenodd" d="M30.613 8.70891C22.995 9.02591 16.718 11.8289 14.708 15.8099C13.985 17.2439 14.027 16.2429 14.027 31.9999C14.027 47.7569 13.985 46.7559 14.708 48.1899C16.297 51.3379 20.925 53.9689 26.453 54.8669C29.061 55.2909 33.002 55.4169 35.413 55.1539C39.644 54.6929 43.16 53.5719 45.79 51.8459C47.882 50.4729 49.28 48.7499 49.785 46.9199C49.961 46.2859 49.973 45.2689 49.973 31.9999C49.973 16.1029 50.024 17.2099 49.225 15.6929C48.819 14.9209 47.796 13.6879 47.04 13.0589C44.855 11.2399 41.196 9.72691 37.547 9.13191C35.578 8.81091 32.565 8.62691 30.613 8.70891ZM35.048 12.8069C38.292 13.1219 41.522 14.1369 43.689 15.5219C45.036 16.3819 45.971 17.6709 45.971 18.6669C45.971 21.2639 40.962 23.9509 35.048 24.5269C33.552 24.6719 30.448 24.6719 28.952 24.5269C24.876 24.1299 21.027 22.6939 19.163 20.8739C17.046 18.8069 17.949 16.6339 21.712 14.7439C23.49 13.8509 26.396 13.0549 28.747 12.8189C30.12 12.6799 33.681 12.6739 35.048 12.8069ZM20.16 26.2629C23.486 27.8609 27.264 28.6099 32 28.6099C34.293 28.6099 35.641 28.5099 37.547 28.2009C40.323 27.7499 43.309 26.6999 45.36 25.4549L45.973 25.0819L45.972 35.4479L45.971 45.8129L45.707 46.3809C44.662 48.6259 40.055 50.7059 35.048 51.1929C33.552 51.3389 30.448 51.3389 28.952 51.1929C25.708 50.8779 22.478 49.8629 20.311 48.4779C19.488 47.9529 18.59 47.0199 18.293 46.3809L18.029 45.8129L18.028 35.4479L18.027 25.0819L18.64 25.4549C18.977 25.6599 19.661 26.0229 20.16 26.2629Z" fill="#222222"/>
</svg>
