<svg width="64" height="64" viewBox="0 0 64 64" fill="none" xmlns="http://www.w3.org/2000/svg">
<path fill-rule="evenodd" clip-rule="evenodd" d="M30.2389 8.05552C24.3189 8.55852 19.0659 10.9815 14.9749 15.0965C9.85489 20.2465 7.32089 27.5225 8.15689 34.6715C9.11789 42.8815 14.0839 49.9075 21.4919 53.5395C29.8209 57.6215 39.7419 56.5115 47.0149 50.6855C50.5669 47.8385 53.3569 43.8305 54.7589 39.5565C55.5249 37.2235 55.9989 34.5225 55.9989 32.4965C55.9989 31.4645 55.7789 31.1365 55.0349 31.0605C54.3659 30.9925 54.0259 31.2415 53.2849 32.3435C52.1859 33.9785 50.3129 35.7795 48.5849 36.8645C47.7929 37.3615 46.1419 38.1165 45.1719 38.4265C41.7099 39.5315 38.0589 39.4055 34.6269 38.0645C29.4859 36.0545 25.7389 31.2695 24.9509 25.7085C24.7709 24.4355 24.8819 21.5295 25.1569 20.3035C25.6089 18.2985 26.3259 16.6265 27.4879 14.8685C28.3789 13.5195 30.2779 11.6055 31.6529 10.6695C32.7719 9.90852 33.0139 9.57052 32.9239 8.89952C32.8289 8.19252 32.4889 7.97952 31.4859 8.00152C31.0349 8.01152 30.4739 8.03552 30.2389 8.05552Z" fill="#222222"/>
</svg>
