<svg width="64" height="64" viewBox="0 0 64 64" fill="none" xmlns="http://www.w3.org/2000/svg">
<path fill-rule="evenodd" clip-rule="evenodd" d="M11.04 8.14804C10.265 8.34304 9.71904 8.66104 9.15804 9.24504C8.58004 9.84604 8.28704 10.392 8.12004 11.179C7.95104 11.976 7.95104 36.024 8.12004 36.821C8.28704 37.608 8.58004 38.154 9.15804 38.755C9.75304 39.375 10.4 39.724 11.257 39.89C11.711 39.977 14.051 40.003 19.413 39.98L26.933 39.947L27.627 39.615C28.736 39.084 29.538 38.157 29.828 37.071C30.039 36.278 30.039 11.722 29.828 10.929C29.538 9.84304 28.736 8.91604 27.627 8.38504L26.933 8.05304L19.253 8.03404C13.383 8.01904 11.448 8.04604 11.04 8.14804ZM36.174 8.11504C35.063 8.33304 34.06 9.09304 33.486 10.152L33.12 10.827V19.147L33.432 19.763C33.818 20.524 34.584 21.257 35.39 21.634L36 21.92H52L52.61 21.634C53.893 21.033 54.729 19.905 54.929 18.507C55.067 17.541 55.068 12.433 54.93 11.478C54.679 9.74604 53.433 8.42904 51.742 8.10804C51.041 7.97504 36.853 7.98204 36.174 8.11504ZM25.973 24V36H12L11.973 24.107C11.957 17.565 11.968 12.153 11.996 12.079C12.037 11.973 13.496 11.951 19.01 11.973L25.973 12V24ZM50.987 14.987V18.027H37.013V11.947H50.987V14.987ZM35.84 23.187C34.712 23.562 33.671 24.527 33.288 25.551C33.069 26.136 33.067 26.257 33.067 38.987C33.067 51.647 33.07 51.84 33.284 52.413C33.675 53.457 34.517 54.301 35.609 54.743L36.213 54.987H51.787L52.391 54.743C52.9228 54.532 53.4058 54.2143 53.8103 53.8097C54.2148 53.405 54.5322 52.9219 54.743 52.39L54.987 51.787V26.187L54.739 25.574C54.3 24.485 53.264 23.543 52.107 23.178C51.518 22.992 36.399 23 35.84 23.187ZM50.987 38.987V50.987H37.013V26.987H50.987V38.987ZM10.757 41.214C9.34004 41.725 8.37904 42.83 8.10804 44.258C7.96804 45 7.96804 51 8.10804 51.742C8.42904 53.433 9.74604 54.679 11.478 54.93C12.454 55.071 25.52 55.07 26.507 54.929C27.905 54.729 29.033 53.893 29.634 52.61L29.92 52V44L29.634 43.39C29.257 42.584 28.524 41.818 27.763 41.432L27.147 41.12L19.147 41.097C12.746 41.078 11.069 41.101 10.757 41.214ZM26.027 48V50.987H11.947V45.013H26.027V48Z" fill="#222222"/>
</svg>
