<svg width="64" height="64" viewBox="0 0 64 64" fill="none" xmlns="http://www.w3.org/2000/svg">
<path fill-rule="evenodd" clip-rule="evenodd" d="M30.613 8.70891C22.995 9.02591 16.718 11.8289 14.708 15.8099C13.985 17.2439 14.027 16.2429 14.027 31.9999C14.027 47.7569 13.985 46.7559 14.708 48.1899C16.297 51.3379 20.925 53.9689 26.453 54.8669C29.061 55.2909 33.002 55.4169 35.413 55.1539C39.644 54.6929 43.16 53.5719 45.79 51.8459C47.882 50.4729 49.28 48.7499 49.785 46.9199C49.961 46.2859 49.973 45.2689 49.973 31.9999C49.973 16.1029 50.024 17.2099 49.225 15.6929C48.819 14.9209 47.796 13.6879 47.04 13.0589C44.855 11.2399 41.196 9.72691 37.547 9.13191C35.578 8.81091 32.565 8.62691 30.613 8.70891ZM35.048 12.8069C38.292 13.1219 41.522 14.1369 43.689 15.5219C45.036 16.3819 45.971 17.6709 45.971 18.6669C45.971 21.2639 40.962 23.9509 35.048 24.5269C33.552 24.6719 30.448 24.6719 28.952 24.5269C24.876 24.1299 21.027 22.6939 19.163 20.8739C17.046 18.8069 17.949 16.6339 21.712 14.7439C23.49 13.8509 26.396 13.0549 28.747 12.8189C30.12 12.6799 33.681 12.6739 35.048 12.8069ZM20.16 26.2629C23.486 27.8609 27.264 28.6099 32 28.6099C34.293 28.6099 35.641 28.5099 37.547 28.2009C40.323 27.7499 43.309 26.6999 45.36 25.4549L45.973 25.0819L45.972 28.7809L45.971 32.4799L45.707 33.0479C44.662 35.2929 40.055 37.3729 35.048 37.8599C33.552 38.0059 30.448 38.0059 28.952 37.8599C25.708 37.5439 22.478 36.5289 20.311 35.1449C19.488 34.6189 18.59 33.6859 18.293 33.0479L18.029 32.4799L18.028 28.7809L18.027 25.0819L18.64 25.4549C18.977 25.6599 19.661 26.0229 20.16 26.2629ZM20.16 39.5959C23.486 41.1939 27.264 41.9429 32 41.9429C34.293 41.9429 35.641 41.8439 37.547 41.5339C40.323 41.0829 43.309 40.0339 45.36 38.7879L45.973 38.4159L45.972 42.1139L45.971 45.8129L45.707 46.3809C44.662 48.6259 40.055 50.7059 35.048 51.1929C33.552 51.3389 30.448 51.3389 28.952 51.1929C25.708 50.8779 22.478 49.8629 20.311 48.4779C19.488 47.9529 18.59 47.0199 18.293 46.3809L18.029 45.8129L18.028 42.1139L18.027 38.4159L18.64 38.7879C18.977 38.9929 19.661 39.3559 20.16 39.5959Z" fill="#222222"/>
</svg>
