<svg width="64" height="64" viewBox="0 0 64 64" fill="none" xmlns="http://www.w3.org/2000/svg">
<path fill-rule="evenodd" clip-rule="evenodd" d="M12.427 16.743C9.52598 17.089 7.09398 19.177 6.27298 22.027C6.03598 22.846 6.02698 23.03 6.02698 26.667C6.02698 30.303 6.03598 30.487 6.27298 31.307C6.62301 32.5059 7.26673 33.5985 8.14577 34.4857C9.0248 35.373 10.1114 36.0268 11.307 36.388C12.104 36.629 12.137 36.63 20.622 36.667C26.734 36.694 29.302 36.671 29.724 36.583C31.783 36.156 31.815 33.197 29.766 32.758C29.391 32.678 26.586 32.64 20.959 32.64C12.923 32.64 12.686 32.634 12.123 32.424C11.342 32.131 10.533 31.318 10.238 30.53C10.027 29.967 10.018 29.763 10.048 26.462C10.079 23.133 10.09 22.969 10.311 22.555C10.608 22.001 11.334 21.274 11.888 20.978L12.32 20.747L31.806 20.719C51.152 20.691 51.297 20.693 51.871 20.907C52.566 21.167 53.38 21.929 53.695 22.613C53.887 23.03 53.924 23.369 53.972 25.173C54.024 27.109 54.045 27.281 54.275 27.651C54.478 27.9989 54.7824 28.2765 55.1474 28.4466C55.5125 28.6168 55.9209 28.6714 56.3178 28.6031C56.7148 28.5348 57.0814 28.3469 57.3686 28.0645C57.6558 27.7821 57.8499 27.4187 57.925 27.023C58.126 26.059 57.994 22.996 57.706 21.973C57.043 19.621 55.111 17.681 52.693 16.941L51.893 16.697L32.48 16.682C21.803 16.673 12.779 16.701 12.427 16.743ZM36.839 40.742C35.549 41.049 34.928 42.677 35.689 43.754C35.86 43.996 36.192 44.295 36.427 44.417C36.847 44.637 36.974 44.64 45.008 44.67C50.72 44.691 53.334 44.664 53.737 44.58C55.784 44.155 55.806 41.195 53.766 40.758C53.136 40.623 37.4 40.608 36.839 40.742Z" fill="#222222"/>
</svg>
