<svg width="64" height="64" viewBox="0 0 64 64" fill="none" xmlns="http://www.w3.org/2000/svg">
<path fill-rule="evenodd" clip-rule="evenodd" d="M23.093 6.07197C21.6621 6.25381 20.316 6.85188 19.222 7.79196C18.128 8.73203 17.3341 9.97271 16.939 11.36L16.693 12.213V51.787L16.939 52.64C17.64 55.071 19.592 57.035 21.973 57.706C22.996 57.994 26.059 58.126 27.023 57.925C28.592 57.596 29.175 55.735 28.059 54.619C27.52 54.08 27.017 53.973 25.023 53.973C23.621 53.973 23.28 53.94 22.789 53.757C22.014 53.467 21.199 52.651 20.909 51.874C20.692 51.296 20.691 51.193 20.719 31.806L20.747 12.32L20.978 11.888C21.274 11.334 22.001 10.608 22.555 10.311C22.969 10.09 23.133 10.079 26.462 10.048C29.756 10.018 29.968 10.027 30.526 10.236C31.232 10.501 32.043 11.256 32.364 11.947C32.583 12.418 32.588 12.585 32.64 21.173L32.693 29.92L32.941 30.318C33.906 31.871 36.215 31.495 36.583 29.724C36.671 29.302 36.694 26.734 36.667 20.622C36.63 12.137 36.629 12.104 36.388 11.307C35.663 8.90397 33.737 6.97997 31.36 6.28597C30.623 6.06997 30.292 6.04997 27.147 6.02197C25.269 6.00497 23.445 6.02697 23.093 6.07197ZM34.172 40.742C32.883 41.049 32.261 42.677 33.022 43.754C33.193 43.996 33.525 44.295 33.76 44.417C34.18 44.637 34.308 44.64 42.341 44.67C48.053 44.691 50.668 44.664 51.07 44.58C53.073 44.165 53.148 41.262 51.17 40.764C50.612 40.623 34.755 40.603 34.172 40.742Z" fill="#222222"/>
</svg>
