<svg width="64" height="64" viewBox="0 0 64 64" fill="none" xmlns="http://www.w3.org/2000/svg">
<path fill-rule="evenodd" clip-rule="evenodd" d="M40 8.75011C38.068 8.86311 37.016 9.18111 35.793 10.0221C34.681 10.7871 33.591 12.2001 33.187 13.4001C32.824 14.4781 32.745 15.2871 32.674 18.6841L32.606 21.9551L22.623 22.0071C15.813 22.0421 12.44 22.0971 12.012 22.1801C9.93298 22.5811 8.30998 23.6621 7.18898 25.3931C6.19498 26.9281 6.07998 27.6861 6.00798 33.1731C5.94598 37.9261 6.06598 41.0041 6.35398 42.0741C7.05198 44.6691 9.21898 46.6141 12.012 47.1541C12.441 47.2371 15.824 47.2911 22.678 47.3271L32.716 47.3781L32.783 48.4091C32.86 49.5881 33.072 50.4721 33.463 51.2481C34.542 53.3831 36.372 54.7401 38.727 55.1481C39.731 55.3221 47.877 55.4061 50.187 55.2671C52.316 55.1381 53.055 54.9821 54.08 54.4451C55.811 53.5381 57.163 51.8831 57.646 50.0801C57.991 48.7931 58.041 45.9481 57.994 30.4531C57.961 19.5121 57.913 15.1321 57.824 14.6791C57.352 12.3001 56.023 10.5281 53.912 9.46211C53.063 9.03311 52.128 8.84111 50.4 8.74011C48.532 8.63111 41.934 8.63811 40 8.75011ZM52.069 12.9761C52.703 13.2691 53.398 13.9641 53.691 14.5971L53.92 15.0931V48.9071L53.691 49.4031C53.398 50.0361 52.703 50.7311 52.069 51.0241C51.58 51.2501 51.493 51.2531 45.333 51.2531C39.174 51.2531 39.087 51.2501 38.597 51.0241C37.964 50.7311 37.269 50.0361 36.976 49.4031L36.747 48.9071V15.0931L36.976 14.5971C37.392 13.6981 38.262 12.9891 39.181 12.8021C39.426 12.7521 42.315 12.7201 45.6 12.7291C51.468 12.7461 51.582 12.7511 52.069 12.9761ZM44.839 16.7391C43.96 16.9551 43.378 17.7271 43.378 18.6761C43.378 20.6811 45.983 21.3901 47.045 19.6721C47.575 18.8141 47.281 17.5761 46.414 17.0161C45.974 16.7321 45.33 16.6191 44.839 16.7391ZM32.64 34.6701V43.3131L22.533 43.2831C12.449 43.2531 12.426 43.2531 11.931 43.0241C11.297 42.7311 10.602 42.0361 10.309 41.4031C10.083 40.9131 10.08 40.8261 10.08 34.6671C10.08 28.5071 10.083 28.4201 10.309 27.9311C10.726 27.0291 11.6 26.3191 12.515 26.1381C12.76 26.0901 17.388 26.0451 22.8 26.0381L32.64 26.0271V34.6701ZM42.172 43.4081C40.883 43.7161 40.261 45.3441 41.022 46.4211C41.614 47.2581 41.802 47.3021 44.985 47.3411C48.324 47.3821 48.79 47.3171 49.385 46.7211C50.448 45.6591 49.948 43.7941 48.503 43.4301C47.955 43.2921 42.735 43.2741 42.172 43.4081ZM18.172 51.4081C16.883 51.7161 16.261 53.3441 17.022 54.4211C17.193 54.6631 17.525 54.9611 17.76 55.0841C18.168 55.2971 18.369 55.3081 22.329 55.3391C27.108 55.3771 27.432 55.3421 28.052 54.7211C29.115 53.6591 28.615 51.7941 27.17 51.4301C26.617 51.2911 18.744 51.2721 18.172 51.4081Z" fill="#222222"/>
</svg>
