<svg width="64" height="64" viewBox="0 0 64 64" fill="none" xmlns="http://www.w3.org/2000/svg">
<path fill-rule="evenodd" clip-rule="evenodd" d="M16 8.74991C14.068 8.86291 13.016 9.18091 11.793 10.0219C10.678 10.7889 9.59099 12.1999 9.18399 13.4079C8.69299 14.8659 8.69299 14.8509 8.69299 29.4929C8.69299 42.6299 8.70399 43.3939 8.88899 43.9999C9.45999 45.8729 10.968 47.0579 13.035 47.2579C14.426 47.3929 49.701 47.3849 50.985 47.2499C52.617 47.0779 53.772 46.4069 54.567 45.1679C55.337 43.9689 55.288 44.8719 55.334 30.9409C55.376 18.0949 55.315 15.1729 54.979 13.9199C54.362 11.6159 52.336 9.60891 50.027 9.01291C49.645 8.91391 48.613 8.79191 47.733 8.73991C45.832 8.62891 17.925 8.63791 16 8.74991ZM49.403 12.9759C50.036 13.2689 50.731 13.9639 51.024 14.5969L51.253 15.0929L51.283 26.5329L51.312 37.9729H12.688L12.717 26.5329L12.747 15.0929L12.976 14.5969C13.392 13.6969 14.265 12.9869 15.181 12.8039C15.426 12.7549 23.115 12.7219 32.267 12.7309L48.907 12.7469L49.403 12.9759ZM50.56 42.1239C50.56 42.2689 49.787 42.8549 49.316 43.0679C48.933 43.2409 47.821 43.2529 32 43.2529C16.179 43.2529 15.067 43.2409 14.684 43.0679C14.213 42.8549 13.44 42.2689 13.44 42.1239C13.44 42.0659 20.833 42.0269 32 42.0269C43.167 42.0269 50.56 42.0659 50.56 42.1239ZM23.506 51.4079C22.216 51.7159 21.595 53.3439 22.356 54.4209C22.527 54.6629 22.859 54.9609 23.093 55.0839C23.514 55.3029 23.641 55.3069 31.674 55.3369C37.386 55.3569 40.001 55.3309 40.404 55.2469C42.406 54.8309 42.482 51.9279 40.503 51.4299C39.945 51.2899 24.088 51.2689 23.506 51.4079Z" fill="#222222"/>
</svg>
