<svg width="64" height="64" viewBox="0 0 64 64" fill="none" xmlns="http://www.w3.org/2000/svg">
<path fill-rule="evenodd" clip-rule="evenodd" d="M21.333 8.75001C19.401 8.86301 18.349 9.18101 17.127 10.022C16.014 10.788 14.924 12.2 14.52 13.402C14.206 14.332 14.103 15.163 14.019 17.413L13.945 19.413L13.346 19.414C11.916 19.416 10.479 19.819 9.39301 20.522C7.66201 21.643 6.58001 23.267 6.18001 25.345C6.00901 26.231 5.91501 44.84 6.06801 47.476C6.18801 49.54 6.34501 50.354 6.79601 51.248C7.87601 53.386 9.73002 54.757 12.06 55.142C13.137 55.32 18.689 55.399 20.853 55.267C22.983 55.138 23.722 54.982 24.747 54.445C26.0442 53.7706 27.1022 52.713 27.777 51.416C28.255 50.504 28.468 49.673 28.551 48.4L28.619 47.36L38.709 47.357C49.167 47.353 51.518 47.291 52.693 46.987C55.003 46.391 57.029 44.384 57.646 42.08C57.98 40.834 58.045 37.888 57.994 26.425C57.959 18.704 57.906 15.115 57.821 14.679C57.361 12.312 56.024 10.529 53.912 9.46201C53.063 9.03301 52.128 8.84101 50.4 8.74001C48.5 8.63001 23.258 8.63801 21.333 8.75001ZM52.069 12.976C52.703 13.269 53.398 13.964 53.691 14.597L53.92 15.093V40.907L53.691 41.403C53.398 42.036 52.703 42.731 52.069 43.024L51.573 43.253L40.144 43.283L28.714 43.312L28.66 34.643C28.624 28.894 28.565 25.762 28.486 25.345C28.036 22.992 26.692 21.196 24.581 20.13C23.617 19.643 22.901 19.517 20.389 19.389L18.005 19.268L18.046 17.18C18.093 14.804 18.185 14.455 18.97 13.67C19.476 13.164 19.899 12.927 20.515 12.804C20.76 12.755 27.848 12.722 36.267 12.731L51.573 12.747L52.069 12.976ZM22.736 23.643C23.37 23.936 24.064 24.63 24.357 25.264L24.587 25.76V48.907L24.357 49.403C24.064 50.036 23.37 50.731 22.736 51.024C22.251 51.248 22.129 51.253 17.333 51.253C12.538 51.253 12.415 51.248 11.931 51.024C11.297 50.731 10.602 50.036 10.309 49.403L10.08 48.907V25.76L10.309 25.264C10.567 24.707 11.232 23.992 11.736 23.732C12.356 23.411 12.949 23.377 17.6 23.395C22.103 23.413 22.255 23.42 22.736 23.643Z" fill="#222222"/>
</svg>
