<svg width="64" height="64" viewBox="0 0 64 64" fill="none" xmlns="http://www.w3.org/2000/svg">
<path fill-rule="evenodd" clip-rule="evenodd" d="M15.627 16.737C14.748 16.828 14.186 17.001 13.6 17.362C12.6207 17.964 11.8938 18.9016 11.555 20C11.379 20.579 11.36 21.088 11.36 25.333C11.36 29.577 11.379 30.087 11.555 30.658C11.7775 31.3855 12.1729 32.0483 12.7073 32.5897C13.2418 33.1312 13.8994 33.5351 14.624 33.767C15.124 33.928 15.821 33.958 19.92 34L24.64 34.048V36.148C24.64 38.495 24.544 39.07 23.972 40.143C23.307 41.391 22.052 42.489 20.721 42.987C20.397 43.108 19.648 43.254 19.058 43.31C17.838 43.426 17.373 43.651 16.955 44.328C16.582 44.931 16.611 45.839 17.022 46.421C17.488 47.08 18.002 47.302 19.01 47.28C21.962 47.217 24.806 45.754 26.643 43.351C27.121 42.727 27.801 41.429 28.101 40.57C28.636 39.04 28.64 38.95 28.64 29.493C28.64 21.221 28.627 20.599 28.445 20.009C28.2227 19.2815 27.8274 18.6187 27.2929 18.0774C26.7584 17.5361 26.1006 17.1324 25.376 16.901C24.878 16.742 24.228 16.713 20.587 16.688C18.269 16.673 16.037 16.695 15.627 16.737ZM39.627 16.737C38.748 16.828 38.186 17.001 37.6 17.362C36.6207 17.964 35.8938 18.9016 35.555 20C35.379 20.579 35.36 21.088 35.36 25.333C35.36 29.577 35.379 30.087 35.555 30.658C35.7775 31.3855 36.1729 32.0483 36.7073 32.5897C37.2418 33.1312 37.8994 33.5351 38.624 33.767C39.124 33.928 39.821 33.958 43.92 34L48.64 34.048V36.148C48.64 38.495 48.544 39.07 47.972 40.143C47.307 41.391 46.052 42.489 44.721 42.987C44.397 43.108 43.648 43.254 43.058 43.31C41.838 43.426 41.373 43.651 40.955 44.328C40.582 44.931 40.611 45.839 41.022 46.421C41.488 47.08 42.002 47.302 43.01 47.28C45.962 47.217 48.806 45.754 50.643 43.351C51.121 42.727 51.801 41.429 52.101 40.57C52.636 39.04 52.64 38.95 52.64 29.493C52.64 21.221 52.627 20.599 52.445 20.009C52.2227 19.2815 51.8274 18.6187 51.2929 18.0774C50.7584 17.5361 50.1006 17.1324 49.376 16.901C48.878 16.742 48.228 16.713 44.587 16.688C42.269 16.673 40.037 16.695 39.627 16.737ZM24.445 20.87C24.628 21.036 24.64 21.321 24.64 25.51V29.973H20.195C16.209 29.973 15.73 29.955 15.555 29.797C15.372 29.631 15.36 29.352 15.36 25.352C15.36 21.53 15.378 21.063 15.537 20.888C15.702 20.706 15.982 20.693 19.981 20.693C23.804 20.693 24.27 20.712 24.445 20.87ZM48.445 20.87C48.628 21.036 48.64 21.321 48.64 25.51V29.973H44.195C40.209 29.973 39.73 29.955 39.555 29.797C39.372 29.631 39.36 29.352 39.36 25.352C39.36 21.53 39.378 21.063 39.537 20.888C39.702 20.706 39.982 20.693 43.981 20.693C47.804 20.693 48.27 20.712 48.445 20.87Z" fill="#222222"/>
</svg>
