<svg width="64" height="64" viewBox="0 0 64 64" fill="none" xmlns="http://www.w3.org/2000/svg">
<path fill-rule="evenodd" clip-rule="evenodd" d="M20.64 16.71C18.227 16.928 16.121 17.858 14.417 19.458C13.013 20.776 11.882 22.891 11.5 24.912C11.391 25.487 11.36 27.638 11.36 34.507C11.36 42.753 11.373 43.403 11.553 43.986C11.7762 44.7236 12.1779 45.3947 12.7225 45.94C13.267 46.4853 13.9377 46.8878 14.675 47.112C15.246 47.288 15.756 47.307 20 47.307C24.244 47.307 24.754 47.288 25.325 47.112C25.9491 46.9233 26.5263 46.6046 27.0184 46.1768C27.5105 45.749 27.9063 45.2218 28.18 44.63C28.636 43.656 28.723 42.418 28.664 37.76C28.609 33.454 28.576 33.213 27.896 32.165C27.3105 31.2436 26.4178 30.5592 25.376 30.233C24.876 30.072 24.179 30.042 20.08 30L15.36 29.952V27.852C15.36 25.505 15.456 24.93 16.028 23.857C16.692 22.611 17.949 21.511 19.273 21.015C19.594 20.895 20.314 20.749 20.873 20.691C21.432 20.633 22.055 20.507 22.257 20.411C23.008 20.055 23.434 19.099 23.236 18.215C22.99 17.119 22.063 16.582 20.64 16.71ZM44.64 16.71C42.227 16.928 40.121 17.858 38.417 19.458C37.013 20.776 35.882 22.891 35.5 24.912C35.391 25.487 35.36 27.638 35.36 34.507C35.36 42.753 35.373 43.403 35.553 43.986C35.7762 44.7236 36.1779 45.3947 36.7225 45.94C37.267 46.4853 37.9377 46.8878 38.675 47.112C39.246 47.288 39.756 47.307 44 47.307C48.244 47.307 48.754 47.288 49.325 47.112C49.9491 46.9233 50.5263 46.6046 51.0184 46.1768C51.5105 45.749 51.9063 45.2218 52.18 44.63C52.636 43.656 52.723 42.418 52.664 37.76C52.609 33.454 52.576 33.213 51.896 32.165C51.3105 31.2436 50.4178 30.5592 49.376 30.233C48.876 30.072 48.179 30.042 44.08 30L39.36 29.952V27.852C39.36 25.505 39.456 24.93 40.028 23.857C40.692 22.611 41.949 21.511 43.273 21.015C43.594 20.895 44.314 20.749 44.873 20.691C45.432 20.633 46.055 20.507 46.257 20.411C47.008 20.055 47.434 19.099 47.236 18.215C46.99 17.119 46.063 16.582 44.64 16.71ZM24.445 34.203C24.628 34.369 24.64 34.648 24.64 38.648C24.64 42.47 24.622 42.937 24.463 43.112C24.298 43.294 24.018 43.307 20.019 43.307C16.196 43.307 15.73 43.288 15.555 43.13C15.372 42.964 15.36 42.679 15.36 38.49V34.027H19.805C23.791 34.027 24.27 34.045 24.445 34.203ZM48.445 34.203C48.628 34.369 48.64 34.648 48.64 38.648C48.64 42.47 48.622 42.937 48.463 43.112C48.298 43.294 48.018 43.307 44.019 43.307C40.196 43.307 39.73 43.288 39.555 43.13C39.372 42.964 39.36 42.679 39.36 38.49V34.027H43.805C47.791 34.027 48.27 34.045 48.445 34.203Z" fill="#222222"/>
</svg>
