<svg width="64" height="64" viewBox="0 0 64 64" fill="none" xmlns="http://www.w3.org/2000/svg">
<path fill-rule="evenodd" clip-rule="evenodd" d="M31.506 6.07202C31.035 6.18902 30.564 6.55002 30.274 7.01502L30.027 7.41302L29.973 23.92L29.92 40.428L24.96 35.462C22.232 32.731 19.837 30.395 19.639 30.271C19.099 29.933 18.171 29.956 17.619 30.322C16.997 30.733 16.711 31.262 16.711 32C16.711 32.437 16.775 32.713 16.937 32.972C17.061 33.171 20.273 36.437 24.075 40.229C30.735 46.874 31.005 47.129 31.493 47.23C31.824 47.298 32.176 47.298 32.507 47.23C32.995 47.129 33.265 46.874 39.973 40.179C43.901 36.258 47.007 33.073 47.105 32.867C47.341 32.37 47.325 31.565 47.069 31.07C46.955 30.848 46.663 30.527 46.421 30.356C46.057 30.098 45.873 30.044 45.363 30.044C45.024 30.044 44.626 30.106 44.48 30.181C44.333 30.256 41.921 32.603 39.12 35.397L34.027 40.477L34.024 24.265C34.022 13.509 33.984 7.89302 33.911 7.57502C33.66 6.48502 32.574 5.80602 31.506 6.07202ZM15.506 54.075C14.216 54.383 13.595 56.01 14.356 57.087C14.527 57.329 14.859 57.628 15.093 57.751C15.52 57.973 15.525 57.973 31.68 58.002C43.182 58.022 48.004 57.996 48.41 57.912C50.407 57.498 50.478 54.594 48.503 54.097C47.943 53.956 16.094 53.935 15.506 54.075Z" fill="#222222"/>
</svg>
