<svg width="64" height="64" viewBox="0 0 64 64" fill="none" xmlns="http://www.w3.org/2000/svg">
<path fill-rule="evenodd" clip-rule="evenodd" d="M19.307 8.74297C16.912 8.94697 15.059 10.058 13.717 12.096C13.403 12.571 12.145 14.712 10.92 16.853L8.69301 20.747L8.66201 33.173C8.63101 45.868 8.69401 48.861 9.02101 50.08C9.63801 52.384 11.664 54.391 13.973 54.987C15.2 55.304 17.604 55.353 32 55.353C46.396 55.353 48.8 55.304 50.027 54.987C52.362 54.385 54.385 52.362 54.987 50.027C55.299 48.819 55.353 46.44 55.357 33.64C55.359 23.266 55.335 21.077 55.212 20.733C55.021 20.198 50.678 12.626 50.077 11.779C49.085 10.383 47.684 9.40397 46.005 8.93397C45.173 8.70197 45.172 8.70097 32.693 8.68397C25.829 8.67397 19.805 8.70097 19.307 8.74297ZM45.241 12.876C46.214 13.186 46.773 13.866 48.4 16.716C49.177 18.078 49.813 19.218 49.813 19.25C49.813 19.281 41.797 19.307 32 19.307C22.203 19.307 14.187 19.281 14.187 19.25C14.187 19.218 14.823 18.078 15.6 16.716C16.659 14.861 17.16 14.092 17.6 13.649C18.61 12.63 17.444 12.707 31.961 12.7C43.668 12.694 44.714 12.708 45.241 12.876ZM51.283 36.133L51.253 48.907L51.024 49.403C50.731 50.036 50.036 50.731 49.403 51.024L48.907 51.253H15.093L14.597 51.024C13.964 50.731 13.269 50.036 12.976 49.403L12.747 48.907L12.717 36.133L12.688 23.36H51.312L51.283 36.133ZM31.506 27.406C31.036 27.521 30.564 27.882 30.274 28.349L30.027 28.747L29.996 35.172L29.965 41.597L27.596 40.016C26.293 39.146 25.108 38.371 24.963 38.294C24.152 37.862 23.24 37.986 22.613 38.613C21.938 39.289 21.841 40.333 22.376 41.15C22.623 41.527 31.022 47.105 31.561 47.25C31.882 47.336 32.118 47.336 32.439 47.25C32.978 47.105 41.377 41.527 41.624 41.15C42.775 39.393 40.888 37.308 39.037 38.294C38.892 38.371 37.707 39.146 36.404 40.016L34.035 41.597L34.004 35.225C33.974 29.001 33.968 28.843 33.751 28.427C33.342 27.645 32.357 27.197 31.506 27.406Z" fill="#222222"/>
</svg>
