<svg width="64" height="64" viewBox="0 0 64 64" fill="none" xmlns="http://www.w3.org/2000/svg">
<path fill-rule="evenodd" clip-rule="evenodd" d="M23.5731 11.385C21.7471 11.536 20.0771 12.892 19.5511 14.653C19.3411 15.354 19.3411 16.646 19.5511 17.347C19.9721 18.758 21.2381 20.028 22.6351 20.443C23.3281 20.649 24.6721 20.649 25.3651 20.443C26.7581 20.029 28.0301 18.755 28.4451 17.359C28.6481 16.673 28.6481 15.327 28.4451 14.641C27.8351 12.589 25.7651 11.205 23.5731 11.385ZM39.5731 11.385C38.1371 11.504 36.8041 12.345 36.0031 13.64C35.1721 14.981 35.1731 17.019 36.0031 18.36C36.6151 19.349 37.6161 20.14 38.6351 20.443C39.3281 20.649 40.6721 20.649 41.3651 20.443C42.7581 20.029 44.0301 18.755 44.4451 17.359C44.6481 16.673 44.6481 15.327 44.4451 14.641C43.8351 12.589 41.7651 11.205 39.5731 11.385ZM24.4451 15.537C24.6881 15.756 24.6971 16.187 24.4631 16.445C24.0971 16.85 23.3601 16.565 23.3601 16.019C23.3585 15.8926 23.394 15.7686 23.4622 15.6622C23.5304 15.5558 23.6283 15.4718 23.7437 15.4205C23.8592 15.3692 23.9872 15.3529 24.1119 15.3736C24.2365 15.3943 24.3524 15.4511 24.4451 15.537ZM40.4451 15.537C40.6881 15.756 40.6971 16.187 40.4631 16.445C40.0971 16.85 39.3601 16.565 39.3601 16.019C39.3585 15.8926 39.394 15.7686 39.4622 15.6622C39.5304 15.5558 39.6283 15.4718 39.7437 15.4205C39.8592 15.3692 39.9872 15.3529 40.1119 15.3736C40.2365 15.3943 40.3524 15.4511 40.4451 15.537ZM23.5731 27.385C21.7471 27.536 20.0771 28.892 19.5511 30.653C19.3411 31.354 19.3411 32.646 19.5511 33.347C19.8591 34.379 20.5571 35.285 21.5271 35.915C22.2801 36.403 23.0001 36.604 24.0001 36.604C25.0001 36.604 25.7201 36.403 26.4731 35.915C27.8901 34.995 28.6041 33.685 28.6041 32C28.6041 31.056 28.4121 30.31 27.9971 29.64C27.0351 28.086 25.3711 27.238 23.5731 27.385ZM39.5731 27.385C37.7471 27.536 36.0771 28.892 35.5511 30.653C35.4611 30.954 35.3871 31.56 35.3871 32C35.3871 33.665 36.1171 35 37.5271 35.915C38.2801 36.403 39.0001 36.604 40.0001 36.604C41.0001 36.604 41.7201 36.403 42.4731 35.915C43.8901 34.995 44.6041 33.685 44.6041 32C44.6041 31.056 44.4121 30.31 43.9971 29.64C43.0351 28.086 41.3711 27.238 39.5731 27.385ZM24.4451 31.537C24.8501 31.903 24.5651 32.64 24.0191 32.64C23.8927 32.6416 23.7687 32.6061 23.6623 32.5379C23.5559 32.4697 23.4719 32.3718 23.4206 32.2563C23.3693 32.1408 23.3529 32.0128 23.3737 31.8882C23.3944 31.7635 23.4512 31.6477 23.5371 31.555C23.7561 31.312 24.1871 31.303 24.4451 31.537ZM40.4451 31.537C40.6881 31.756 40.6971 32.187 40.4631 32.445C40.0971 32.85 39.3601 32.565 39.3601 32.019C39.3585 31.8926 39.394 31.7686 39.4622 31.6622C39.5304 31.5558 39.6283 31.4718 39.7437 31.4205C39.8592 31.3692 39.9872 31.3529 40.1119 31.3736C40.2365 31.3943 40.3524 31.4511 40.4451 31.537ZM23.5731 43.385C21.7471 43.536 20.0771 44.892 19.5511 46.653C19.3411 47.354 19.3411 48.646 19.5511 49.347C19.8591 50.379 20.5571 51.285 21.5271 51.915C22.2801 52.403 23.0001 52.604 24.0001 52.604C25.0001 52.604 25.7201 52.403 26.4731 51.915C27.8901 50.995 28.6041 49.685 28.6041 48C28.6041 47.056 28.4121 46.31 27.9971 45.64C27.0351 44.086 25.3711 43.238 23.5731 43.385ZM39.5731 43.385C37.7471 43.536 36.0771 44.892 35.5511 46.653C35.4611 46.954 35.3871 47.56 35.3871 48C35.3871 49.665 36.1171 51 37.5271 51.915C38.2801 52.403 39.0001 52.604 40.0001 52.604C41.0001 52.604 41.7201 52.403 42.4731 51.915C43.8901 50.995 44.6041 49.685 44.6041 48C44.6041 47.056 44.4121 46.31 43.9971 45.64C43.0351 44.086 41.3711 43.238 39.5731 43.385ZM24.4451 47.537C24.8501 47.903 24.5651 48.64 24.0191 48.64C23.8927 48.6416 23.7687 48.6061 23.6623 48.5379C23.5559 48.4697 23.4719 48.3718 23.4206 48.2563C23.3693 48.1408 23.3529 48.0128 23.3737 47.8882C23.3944 47.7635 23.4512 47.6477 23.5371 47.555C23.7561 47.312 24.1871 47.303 24.4451 47.537ZM40.4451 47.537C40.6881 47.756 40.6971 48.187 40.4631 48.445C40.0971 48.85 39.3601 48.565 39.3601 48.019C39.3585 47.8926 39.394 47.7686 39.4622 47.6622C39.5304 47.5558 39.6283 47.4718 39.7437 47.4205C39.8592 47.3692 39.9872 47.3529 40.1119 47.3736C40.2365 47.3943 40.3524 47.4511 40.4451 47.537Z" fill="#222222"/>
</svg>
