<svg width="64" height="64" viewBox="0 0 64 64" fill="none" xmlns="http://www.w3.org/2000/svg">
<path fill-rule="evenodd" clip-rule="evenodd" d="M15.5731 19.3851C13.7471 19.5361 12.0771 20.8921 11.5511 22.6531C11.3411 23.3541 11.3411 24.6461 11.5511 25.3471C11.8591 26.3791 12.5571 27.2851 13.5271 27.9151C14.2801 28.4031 15.0001 28.6041 16.0001 28.6041C17.0001 28.6041 17.7201 28.4031 18.4731 27.9151C19.8901 26.9951 20.6041 25.6851 20.6041 24.0001C20.6041 23.0561 20.4121 22.3101 19.9971 21.6401C19.0351 20.0861 17.3711 19.2381 15.5731 19.3851ZM31.5731 19.3851C29.7471 19.5361 28.0771 20.8921 27.5511 22.6531C27.4611 22.9541 27.3871 23.5601 27.3871 24.0001C27.3871 25.6651 28.1171 27.0001 29.5271 27.9151C30.2801 28.4031 31.0001 28.6041 32.0001 28.6041C33.0001 28.6041 33.7201 28.4031 34.4731 27.9151C35.8901 26.9951 36.6041 25.6851 36.6041 24.0001C36.6041 23.0561 36.4121 22.3101 35.9971 21.6401C35.0351 20.0861 33.3711 19.2381 31.5731 19.3851ZM47.5731 19.3851C45.7471 19.5361 44.0771 20.8921 43.5511 22.6531C43.4611 22.9541 43.3871 23.5601 43.3871 24.0001C43.3871 25.6651 44.1171 27.0001 45.5271 27.9151C46.2801 28.4031 47.0001 28.6041 48.0001 28.6041C49.0001 28.6041 49.7201 28.4031 50.4731 27.9151C51.8901 26.9951 52.6041 25.6851 52.6041 24.0001C52.6041 23.0561 52.4121 22.3101 51.9971 21.6401C51.0351 20.0861 49.3711 19.2381 47.5731 19.3851ZM16.4451 23.5371C16.6881 23.7561 16.6971 24.1871 16.4631 24.4451C16.0971 24.8501 15.3601 24.5651 15.3601 24.0191C15.3585 23.8927 15.394 23.7687 15.4622 23.6623C15.5304 23.5559 15.6283 23.4719 15.7437 23.4206C15.8592 23.3693 15.9872 23.353 16.1119 23.3737C16.2365 23.3944 16.3524 23.4512 16.4451 23.5371ZM32.4451 23.5371C32.8501 23.9031 32.5651 24.6401 32.0191 24.6401C31.8927 24.6416 31.7687 24.6061 31.6623 24.538C31.5559 24.4698 31.4719 24.3719 31.4206 24.2564C31.3693 24.1409 31.3529 24.0129 31.3737 23.8882C31.3944 23.7636 31.4512 23.6478 31.5371 23.5551C31.7561 23.3121 32.1871 23.3031 32.4451 23.5371ZM48.4451 23.5371C48.6881 23.7561 48.6971 24.1871 48.4631 24.4451C48.0971 24.8501 47.3601 24.5651 47.3601 24.0191C47.3585 23.8927 47.394 23.7687 47.4622 23.6623C47.5304 23.5559 47.6283 23.4719 47.7437 23.4206C47.8592 23.3693 47.9872 23.353 48.1119 23.3737C48.2365 23.3944 48.3524 23.4512 48.4451 23.5371ZM15.5731 35.3851C13.7471 35.5361 12.0771 36.8921 11.5511 38.6531C11.3411 39.3541 11.3411 40.6461 11.5511 41.3471C11.8591 42.3791 12.5571 43.2851 13.5271 43.9151C14.2801 44.4031 15.0001 44.6041 16.0001 44.6041C17.0001 44.6041 17.7201 44.4031 18.4731 43.9151C19.8901 42.9951 20.6041 41.6851 20.6041 40.0001C20.6041 39.0561 20.4121 38.3101 19.9971 37.6401C19.0351 36.0861 17.3711 35.2381 15.5731 35.3851ZM31.5731 35.3851C29.7471 35.5361 28.0771 36.8921 27.5511 38.6531C27.4611 38.9541 27.3871 39.5601 27.3871 40.0001C27.3871 41.6651 28.1171 43.0001 29.5271 43.9151C30.2801 44.4031 31.0001 44.6041 32.0001 44.6041C33.0001 44.6041 33.7201 44.4031 34.4731 43.9151C35.8901 42.9951 36.6041 41.6851 36.6041 40.0001C36.6041 39.0561 36.4121 38.3101 35.9971 37.6401C35.0351 36.0861 33.3711 35.2381 31.5731 35.3851ZM47.5731 35.3851C45.7471 35.5361 44.0771 36.8921 43.5511 38.6531C43.4611 38.9541 43.3871 39.5601 43.3871 40.0001C43.3871 41.6651 44.1171 43.0001 45.5271 43.9151C46.2801 44.4031 47.0001 44.6041 48.0001 44.6041C49.0001 44.6041 49.7201 44.4031 50.4731 43.9151C51.8901 42.9951 52.6041 41.6851 52.6041 40.0001C52.6041 39.0561 52.4121 38.3101 51.9971 37.6401C51.0351 36.0861 49.3711 35.2381 47.5731 35.3851ZM16.4451 39.5371C16.8501 39.9031 16.5651 40.6401 16.0191 40.6401C15.8927 40.6416 15.7687 40.6061 15.6623 40.538C15.5559 40.4698 15.4719 40.3719 15.4206 40.2564C15.3693 40.1409 15.3529 40.0129 15.3737 39.8883C15.3944 39.7636 15.4512 39.6478 15.5371 39.5551C15.7561 39.3121 16.1871 39.3031 16.4451 39.5371ZM32.4451 39.5371C32.8501 39.9031 32.5651 40.6401 32.0191 40.6401C31.8927 40.6416 31.7687 40.6061 31.6623 40.538C31.5559 40.4698 31.4719 40.3719 31.4206 40.2564C31.3693 40.1409 31.3529 40.0129 31.3737 39.8883C31.3944 39.7636 31.4512 39.6478 31.5371 39.5551C31.7561 39.3121 32.1871 39.3031 32.4451 39.5371ZM48.4451 39.5371C48.8501 39.9031 48.5651 40.6401 48.0191 40.6401C47.8927 40.6416 47.7687 40.6061 47.6623 40.538C47.5559 40.4698 47.4719 40.3719 47.4206 40.2564C47.3693 40.1409 47.3529 40.0129 47.3737 39.8883C47.3944 39.7636 47.4512 39.6478 47.5371 39.5551C47.7561 39.3121 48.1871 39.3031 48.4451 39.5371Z" fill="#222222"/>
</svg>
