<svg width="64" height="64" viewBox="0 0 64 64" fill="none" xmlns="http://www.w3.org/2000/svg">
<path fill-rule="evenodd" clip-rule="evenodd" d="M30.613 14.087C21.777 14.73 14.704 21.856 14.087 30.739C13.397 40.664 20.832 49.225 30.739 49.913C38.09 50.424 44.961 46.451 48.16 39.84C49.2 37.691 49.748 35.632 49.913 33.261C50.675 22.293 41.61 13.287 30.613 14.087ZM34.88 18.291C36.506 18.654 38.427 19.457 39.715 20.312C41.11 21.238 42.762 22.89 43.688 24.285C44.203 25.062 44.928 26.554 45.258 27.52C45.782 29.053 45.92 29.984 45.92 32C45.92 34.571 45.586 36.059 44.525 38.213C43.948 39.383 43.498 40.063 42.614 41.1C40.609 43.449 37.877 45.061 34.773 45.726C33.499 45.999 30.501 45.999 29.227 45.726C26.822 45.211 24.749 44.191 22.9 42.614C20.551 40.609 18.939 37.877 18.274 34.773C18.128 34.092 18.08 33.402 18.08 32C18.08 29.984 18.218 29.053 18.742 27.52C19.072 26.554 19.797 25.062 20.312 24.285C21.238 22.89 22.89 21.238 24.285 20.312C25.636 19.416 27.616 18.603 29.173 18.305C29.643 18.215 30.123 18.119 30.24 18.091C30.735 17.972 34.105 18.117 34.88 18.291Z" fill="#222222"/>
</svg>
