<svg width="64" height="64" viewBox="0 0 64 64" fill="none" xmlns="http://www.w3.org/2000/svg">
<path fill-rule="evenodd" clip-rule="evenodd" d="M26.667 19.417C25.22 19.501 24.235 19.713 23.436 20.113C21.311 21.176 19.927 23.042 19.518 25.394C19.343 26.401 19.258 34.654 19.4 36.907C19.524 38.882 19.687 39.704 20.13 40.581C21.208 42.717 23.039 44.073 25.394 44.481C26.398 44.655 34.543 44.74 36.853 44.6C38.983 44.471 39.722 44.315 40.747 43.778C42.0443 43.1036 43.1022 42.046 43.777 40.749C44.315 39.721 44.471 38.984 44.6 36.853C44.74 34.543 44.655 26.398 44.481 25.394C44.073 23.038 42.717 21.208 40.579 20.129C39.729 19.7 38.794 19.508 37.067 19.407C35.199 19.298 28.6 19.305 26.667 19.417ZM38.736 23.643C39.37 23.936 40.064 24.63 40.357 25.264C40.584 25.754 40.587 25.841 40.587 32C40.587 38.159 40.584 38.246 40.357 38.736C40.064 39.37 39.37 40.064 38.736 40.357C38.246 40.584 38.159 40.587 32 40.587C25.841 40.587 25.754 40.584 25.264 40.357C24.63 40.064 23.936 39.37 23.643 38.736C23.416 38.246 23.413 38.159 23.413 32C23.413 25.841 23.416 25.754 23.643 25.264C24.058 24.364 24.929 23.656 25.848 23.469C26.093 23.419 28.981 23.386 32.267 23.396C38.135 23.413 38.249 23.417 38.736 23.643Z" fill="#222222"/>
</svg>
