<svg width="64" height="64" viewBox="0 0 64 64" fill="none" xmlns="http://www.w3.org/2000/svg">
<path fill-rule="evenodd" clip-rule="evenodd" d="M30.879 19.412C25.999 19.841 21.865 23.018 20.106 27.691C19.152 30.228 19.152 33.772 20.106 36.309C21.445 39.864 24.131 42.555 27.669 43.886C30.24 44.852 33.76 44.852 36.331 43.886C39.869 42.555 42.555 39.864 43.894 36.309C44.852 33.763 44.849 30.23 43.886 27.669C41.852 22.261 36.576 18.912 30.879 19.412ZM34.613 23.719C36.022 24.181 36.945 24.762 38.091 25.909C39.231 27.049 39.808 27.961 40.289 29.387C40.556 30.177 40.577 30.369 40.577 32C40.577 33.631 40.556 33.823 40.289 34.613C39.808 36.039 39.231 36.951 38.091 38.091C36.951 39.231 36.039 39.808 34.613 40.289C33.823 40.556 33.631 40.577 32 40.577C30.369 40.577 30.177 40.556 29.387 40.289C27.961 39.808 27.049 39.231 25.909 38.091C24.769 36.951 24.192 36.039 23.711 34.613C23.444 33.823 23.423 33.631 23.423 32C23.423 30.369 23.444 30.177 23.711 29.387C24.192 27.96 24.769 27.049 25.909 25.91C27.822 23.998 29.51 23.333 32.267 23.401C33.527 23.432 33.893 23.482 34.613 23.719Z" fill="#222222"/>
</svg>
