<svg width="64" height="64" viewBox="0 0 64 64" fill="none" xmlns="http://www.w3.org/2000/svg">
<path fill-rule="evenodd" clip-rule="evenodd" d="M21.333 14.084C19.887 14.168 18.902 14.38 18.103 14.78C16.003 15.83 14.634 17.656 14.18 20.012C14.009 20.898 13.915 39.506 14.068 42.143C14.188 44.207 14.345 45.021 14.796 45.914C15.862 48.025 17.652 49.365 20.012 49.82C20.898 49.991 39.506 50.085 42.143 49.932C44.315 49.806 45.046 49.653 46.083 49.11C47.3797 48.4352 48.437 47.3772 49.111 46.08C49.653 45.046 49.806 44.314 49.932 42.143C50.085 39.506 49.991 20.898 49.82 20.012C49.365 17.651 48.025 15.862 45.912 14.796C45.063 14.366 44.128 14.174 42.4 14.074C40.507 13.963 23.26 13.972 21.333 14.084ZM44.069 18.309C44.342 18.435 44.767 18.74 45.013 18.987C45.26 19.233 45.565 19.658 45.691 19.931L45.92 20.427V43.573L45.691 44.069C45.5126 44.4153 45.2841 44.7334 45.013 45.013C44.7334 45.2841 44.4153 45.5126 44.069 45.691L43.573 45.92H20.427L19.931 45.691C19.5848 45.5126 19.2667 45.2841 18.987 45.013C18.7159 44.7334 18.4874 44.4153 18.309 44.069L18.08 43.573V20.427L18.309 19.931C18.725 19.03 19.598 18.321 20.515 18.137C20.76 18.087 26.048 18.055 32.267 18.064L43.573 18.08L44.069 18.309Z" fill="#222222"/>
</svg>
