<svg width="64" height="64" viewBox="0 0 64 64" fill="none" xmlns="http://www.w3.org/2000/svg">
<path fill-rule="evenodd" clip-rule="evenodd" d="M41.259 10.019C40.924 10.126 40.348 10.432 39.979 10.699C39.609 10.965 32.459 18.039 24.089 26.419L8.87197 41.653L8.75098 42.252C8.66898 42.664 8.64097 44.586 8.66197 48.403L8.69298 53.955L9.01297 54.408C9.18897 54.657 9.52498 54.961 9.75998 55.084L10.187 55.307L31.68 55.335C47.056 55.355 53.335 55.33 53.743 55.245C55.784 54.823 55.802 51.861 53.766 51.425C53.381 51.342 49.168 51.307 39.702 51.307H26.188L39.64 37.84C47.039 30.433 53.25 24.138 53.442 23.851C54.484 22.295 54.428 20.207 53.301 18.645C52.704 17.817 45.904 11.043 45.184 10.559C44.102 9.83199 42.524 9.61499 41.259 10.019ZM46.585 17.415C49.402 20.232 50.24 21.13 50.24 21.332C50.24 21.534 49.373 22.461 46.454 25.384L42.668 29.173L38.747 25.253L34.827 21.332L38.616 17.546C41.539 14.627 42.466 13.76 42.668 13.76C42.87 13.76 43.768 14.598 46.585 17.415ZM35.947 28.107L39.839 32L30.187 41.653L20.534 51.307H12.693V43.467L22.32 33.84C27.614 28.545 31.971 24.213 32 24.213C32.03 24.213 33.806 25.965 35.947 28.107Z" fill="#222222"/>
</svg>
