<svg width="64" height="64" viewBox="0 0 64 64" fill="none" xmlns="http://www.w3.org/2000/svg">
<path fill-rule="evenodd" clip-rule="evenodd" d="M41.259 10.019C40.924 10.126 40.348 10.432 39.979 10.699C39.609 10.965 32.459 18.039 24.089 26.419L8.87197 41.653L8.75098 42.252C8.66898 42.664 8.64097 44.586 8.66197 48.403L8.69298 53.955L9.01297 54.408C9.18897 54.657 9.52498 54.961 9.75998 55.084C10.174 55.3 10.348 55.308 15.668 55.338C19.433 55.359 21.336 55.331 21.748 55.249L22.347 55.128L37.581 39.911C45.961 31.541 53.034 24.391 53.301 24.022C54.488 22.378 54.488 20.291 53.301 18.645C52.704 17.817 45.904 11.043 45.184 10.559C44.102 9.83199 42.524 9.61499 41.259 10.019ZM46.585 17.415C49.402 20.232 50.24 21.13 50.24 21.332C50.24 21.534 49.373 22.461 46.454 25.384L42.668 29.173L38.747 25.253L34.827 21.332L38.616 17.546C41.539 14.627 42.466 13.76 42.668 13.76C42.87 13.76 43.768 14.598 46.585 17.415ZM35.947 28.107L39.839 32L30.187 41.653L20.534 51.307H12.693V43.467L22.32 33.84C27.614 28.545 31.971 24.213 32 24.213C32.03 24.213 33.806 25.965 35.947 28.107Z" fill="#222222"/>
</svg>
