<svg width="64" height="64" viewBox="0 0 64 64" fill="none" xmlns="http://www.w3.org/2000/svg">
<path fill-rule="evenodd" clip-rule="evenodd" d="M16 8.75003C14.079 8.86203 13.014 9.18703 11.771 10.039C10.681 10.786 9.58805 12.21 9.18405 13.408C8.84105 14.427 8.73905 15.36 8.71505 17.71C8.69705 19.57 8.71904 19.941 8.87004 20.213C9.22604 20.859 9.98704 21.333 10.667 21.333C11.079 21.333 11.708 21.074 12.035 20.768C12.584 20.256 12.625 20.05 12.695 17.493C12.752 15.376 12.786 15.035 12.982 14.597C13.265 13.968 13.959 13.271 14.597 12.976L15.093 12.747H48.907L49.403 12.976C50.036 13.269 50.731 13.964 51.024 14.597L51.253 15.093V48.907L51.024 49.403C50.731 50.036 50.036 50.731 49.403 51.024L48.907 51.253H15.093L14.597 51.024C13.959 50.729 13.265 50.032 12.982 49.403C12.786 48.965 12.752 48.624 12.695 46.507C12.643 44.6 12.594 44.041 12.458 43.787C11.96 42.855 10.875 42.443 9.94504 42.832C9.10104 43.184 8.75304 43.734 8.67404 44.839C8.59504 45.934 8.82005 49.329 9.02005 50.074C9.71805 52.668 11.869 54.6 14.679 55.157C15.132 55.247 19.512 55.294 30.453 55.327C45.948 55.375 48.793 55.324 50.08 54.979C52.357 54.369 54.369 52.357 54.979 50.08C55.324 48.793 55.375 45.948 55.327 30.453C55.294 19.512 55.247 15.132 55.157 14.679C54.686 12.3 53.357 10.528 51.246 9.46203C50.396 9.03303 49.461 8.84103 47.733 8.74003C45.832 8.62903 17.925 8.63803 16 8.75003ZM31.506 22.072C31.038 22.188 30.564 22.549 30.283 23.003C29.959 23.528 29.953 24.464 30.271 24.972C30.395 25.171 31.531 26.365 32.796 27.627L35.095 29.92L22.58 29.973L10.064 30.027L9.63204 30.313C8.99204 30.737 8.71105 31.256 8.71105 32.018C8.71105 32.541 8.76405 32.721 9.02205 33.087C9.19305 33.329 9.52505 33.628 9.76005 33.751C10.184 33.972 10.269 33.974 22.641 34.027L35.095 34.08L32.796 36.373C31.531 37.635 30.395 38.829 30.271 39.028C29.916 39.595 29.954 40.519 30.356 41.087C30.527 41.329 30.848 41.621 31.07 41.736C31.566 41.992 32.37 42.008 32.869 41.771C33.072 41.674 35.15 39.676 37.513 37.305C41.589 33.215 41.796 32.989 41.896 32.507C41.965 32.1726 41.965 31.8275 41.896 31.493C41.796 31.011 41.589 30.785 37.513 26.695C35.161 24.335 33.09 22.335 32.911 22.251C32.471 22.043 31.909 21.972 31.506 22.072Z" fill="#222222"/>
</svg>
