<svg width="64" height="64" viewBox="0 0 64 64" fill="none" xmlns="http://www.w3.org/2000/svg">
<path fill-rule="evenodd" clip-rule="evenodd" d="M36.839 11.406C35.547 11.722 34.928 13.344 35.689 14.421C35.86 14.663 36.192 14.961 36.427 15.084C36.842 15.301 37.008 15.307 42.742 15.338L48.632 15.368L48.662 21.311L48.693 27.253L48.941 27.651C49.903 29.199 52.215 28.828 52.581 27.068C52.664 26.665 52.692 24.42 52.67 19.672C52.641 12.994 52.635 12.845 52.417 12.427C52.295 12.192 51.991 11.856 51.741 11.68L51.288 11.36L44.231 11.342C40.349 11.333 37.023 11.362 36.839 11.406ZM12.839 35.406C12.369 35.521 11.897 35.882 11.608 36.349L11.36 36.747V51.288L11.68 51.741C11.856 51.99 12.192 52.295 12.427 52.417C12.845 52.635 12.994 52.641 19.672 52.67C24.42 52.692 26.665 52.664 27.068 52.581C28.828 52.215 29.199 49.903 27.651 48.941L27.253 48.693L21.311 48.662L15.368 48.632L15.338 42.742C15.307 37.008 15.301 36.842 15.084 36.427C14.676 35.645 13.69 35.197 12.839 35.406Z" fill="#222222"/>
</svg>
