<svg width="64" height="64" viewBox="0 0 64 64" fill="none" xmlns="http://www.w3.org/2000/svg">
<path fill-rule="evenodd" clip-rule="evenodd" d="M39.5061 8.74201C38.2161 9.04901 37.5951 10.677 38.3561 11.754C38.5271 11.996 38.8591 12.295 39.0931 12.417C39.5031 12.631 39.6971 12.641 43.9941 12.672L48.4671 12.704L40.7251 20.459C36.4671 24.724 32.9221 28.333 32.8471 28.48C32.7721 28.626 32.7111 29.015 32.7111 29.345C32.7111 30.662 33.8161 31.509 35.1701 31.231C35.6641 31.129 35.9291 30.878 43.4881 23.33L51.2961 15.534L51.3281 20.06C51.3601 24.583 51.3601 24.587 51.6081 24.985C52.5591 26.516 54.8711 26.165 55.2421 24.433C55.4051 23.672 55.4051 10.995 55.2421 10.234C55.1687 9.87001 54.9895 9.53577 54.7269 9.2732C54.4644 9.01063 54.1301 8.83141 53.7661 8.75801C53.1381 8.62301 40.0651 8.60801 39.5061 8.74201ZM18.6671 11.414C17.2171 11.502 16.2321 11.715 15.4361 12.113C13.3371 13.163 11.9751 14.979 11.5111 17.345C11.3401 18.215 11.2471 42.362 11.4041 44.93C11.5241 46.881 11.6871 47.704 12.1301 48.581C13.1951 50.691 14.9751 52.024 17.3451 52.489C17.7891 52.576 21.6381 52.626 30.4391 52.66C43.2461 52.71 46.1521 52.651 47.4131 52.313C49.6911 51.703 51.7031 49.691 52.3131 47.413C52.5631 46.479 52.7131 43.347 52.6741 39.883C52.6351 36.44 52.6021 36.288 51.7541 35.689C51.3861 35.429 51.2091 35.378 50.6761 35.378C49.9161 35.378 49.3481 35.693 48.9461 36.339L48.6931 36.747L48.6401 41.493C48.5891 46.066 48.5781 46.258 48.3571 46.736C48.0641 47.37 47.3701 48.064 46.7361 48.357L46.2401 48.587H17.7601L17.2641 48.357C16.6301 48.064 15.9361 47.37 15.6431 46.736L15.4131 46.24V17.76L15.6431 17.264C15.9361 16.63 16.6301 15.936 17.2641 15.643C17.7411 15.422 17.9361 15.411 22.4531 15.36C26.7791 15.311 27.1781 15.291 27.5531 15.105C28.9301 14.421 28.9861 12.437 27.6511 11.608C27.2571 11.362 27.2241 11.36 23.6271 11.347C21.6321 11.339 19.4001 11.37 18.6671 11.414Z" fill="#222222"/>
</svg>
