<svg width="64" height="64" viewBox="0 0 64 64" fill="none" xmlns="http://www.w3.org/2000/svg">
<path fill-rule="evenodd" clip-rule="evenodd" d="M36.907 8.07297C35.572 8.21097 34.018 8.64897 32.907 9.20097C31.383 9.95697 29.822 11.409 28.972 12.862C28.433 13.783 27.787 15.672 27.626 16.8C27.568 17.211 27.488 19.359 27.45 21.573L27.379 25.6H19.913L19.983 27.12C20.021 27.956 20.053 29.876 20.053 31.387V34.133H27.413V56H36.267V34.133H43.599L43.727 33.147C44.582 26.594 44.674 25.76 44.553 25.684C44.484 25.639 42.591 25.603 40.347 25.602L36.267 25.6L36.272 22.693C36.276 21.095 36.316 19.422 36.363 18.977C36.512 17.561 37.083 16.77 38.293 16.303C38.829 16.096 39.149 16.072 41.947 16.025L45.013 15.973V8.34497L44.453 8.27698C42.678 8.06498 38.167 7.94197 36.907 8.07297Z" fill="#1B80E4"/>
</svg>
