<svg width="64" height="64" viewBox="0 0 64 64" fill="none" xmlns="http://www.w3.org/2000/svg">
<path fill-rule="evenodd" clip-rule="evenodd" d="M30.24 6.08397C18.86 6.80897 9.17204 15.092 6.66404 26.24C5.83204 29.938 5.83204 34.062 6.66404 37.76C8.84604 47.46 16.54 55.154 26.24 57.336C29.955 58.172 34.054 58.169 37.803 57.327C46.572 55.358 53.762 48.826 56.651 40.203C58.12 35.819 58.366 30.816 57.336 26.24C55.154 16.54 47.46 8.84597 37.76 6.66397C35.436 6.14097 32.678 5.92797 30.24 6.08397ZM34.563 10.138C37.7193 10.5221 40.7562 11.5802 43.4679 13.2404C46.1796 14.9007 48.5028 17.1244 50.28 19.761C51.727 21.9 53.037 25.007 53.539 27.491C53.869 29.121 53.973 30.208 53.973 32C53.973 35.551 53.272 38.574 51.719 41.713C49.531 46.135 46.135 49.531 41.713 51.719C38.574 53.272 35.551 53.973 32 53.973C28.467 53.973 25.485 53.286 22.33 51.743C15.622 48.464 11.062 42.038 10.138 34.563C9.99504 33.4 9.99504 30.6 10.138 29.437C10.66 25.219 12.424 21.11 15.062 17.973C16.0104 16.8557 17.0525 15.8216 18.177 14.882C21.068 12.471 25.327 10.657 29.29 10.148C30.345 10.013 33.5 10.007 34.563 10.138ZM23.947 23.027C23.439 23.26 23.212 23.498 22.991 24.027C22.8834 24.2872 22.8312 24.567 22.8377 24.8485C22.8443 25.13 22.9094 25.407 23.029 25.662C23.689 27.116 25.853 27.138 26.587 25.699C26.796 25.288 26.831 24.487 26.66 24.034C26.28 23.033 24.983 22.552 23.947 23.027ZM38.347 23.027C37.839 23.26 37.612 23.498 37.391 24.027C37.087 24.754 37.289 25.783 37.829 26.263C38.836 27.157 40.601 26.777 41.06 25.566C41.314 24.894 41.159 23.963 40.713 23.483C40.4149 23.1705 40.0269 22.9588 39.6029 22.877C39.1789 22.7953 38.7399 22.8477 38.347 23.027ZM23.947 37.427C23.439 37.66 23.212 37.898 22.991 38.427C22.687 39.154 22.889 40.183 23.429 40.663C24.011 41.179 23.915 41.173 32.023 41.171C39.173 41.169 39.652 41.157 40.053 40.973C40.561 40.74 40.788 40.502 41.009 39.973C41.218 39.473 41.218 38.927 41.009 38.427C40.788 37.898 40.561 37.66 40.053 37.427C39.652 37.243 39.175 37.231 32 37.231C24.825 37.231 24.348 37.243 23.947 37.427Z" fill="#222222"/>
</svg>
