<svg width="64" height="64" viewBox="0 0 64 64" fill="none" xmlns="http://www.w3.org/2000/svg">
<path fill-rule="evenodd" clip-rule="evenodd" d="M30.24 6.08397C18.86 6.80897 9.17204 15.092 6.66404 26.24C5.83204 29.938 5.83204 34.062 6.66404 37.76C8.84604 47.46 16.54 55.154 26.24 57.336C29.955 58.172 34.054 58.169 37.803 57.327C46.572 55.358 53.762 48.826 56.651 40.203C58.12 35.819 58.366 30.816 57.336 26.24C55.154 16.54 47.46 8.84597 37.76 6.66397C35.436 6.14097 32.678 5.92797 30.24 6.08397ZM34.563 10.138C37.7193 10.5221 40.7562 11.5802 43.4679 13.2404C46.1796 14.9007 48.5028 17.1244 50.28 19.761C51.727 21.9 53.037 25.007 53.539 27.491C53.869 29.121 53.973 30.208 53.973 32C53.973 35.551 53.272 38.574 51.719 41.713C49.531 46.135 46.135 49.531 41.713 51.719C38.574 53.272 35.551 53.973 32 53.973C28.467 53.973 25.485 53.286 22.33 51.743C15.622 48.464 11.062 42.038 10.138 34.563C9.99504 33.4 9.99504 30.6 10.138 29.437C10.66 25.219 12.424 21.11 15.062 17.973C16.0104 16.8557 17.0525 15.8216 18.177 14.882C21.068 12.471 25.327 10.657 29.29 10.148C30.345 10.013 33.5 10.007 34.563 10.138ZM23.947 23.027C23.439 23.26 23.212 23.498 22.991 24.027C22.8832 24.2856 22.831 24.5641 22.8379 24.8442C22.8448 25.1244 22.9106 25.3999 23.031 25.653C23.287 26.202 25.106 27.995 25.623 28.209C26.321 28.498 27.219 28.353 27.771 27.863C28.312 27.383 28.512 26.356 28.209 25.623C27.995 25.106 26.202 23.287 25.653 23.031C25.3861 22.9061 25.0952 22.841 24.8005 22.8403C24.5058 22.8397 24.2145 22.9033 23.947 23.027ZM38.347 23.031C37.798 23.287 36.005 25.106 35.791 25.623C35.488 26.356 35.688 27.383 36.229 27.863C36.781 28.353 37.679 28.498 38.377 28.209C38.894 27.995 40.713 26.202 40.969 25.653C41.222 25.113 41.223 24.492 40.973 23.947C40.74 23.439 40.502 23.212 39.973 22.991C39.7144 22.8831 39.4359 22.8309 39.1558 22.8378C38.8756 22.8447 38.6001 22.9105 38.347 23.031ZM30.81 34.885C28.434 35.097 26.407 35.817 24.367 37.175C23.086 38.027 22.25 38.874 22.105 39.467C21.775 40.817 22.688 41.97 24.076 41.955C24.701 41.949 24.804 41.894 26.026 40.907C26.989 40.129 28.244 39.485 29.493 39.126C30.219 38.917 30.594 38.881 32 38.881C33.406 38.881 33.781 38.917 34.507 39.126C35.756 39.485 37.011 40.129 37.974 40.907C39.196 41.894 39.299 41.949 39.924 41.955C41.308 41.97 42.234 40.818 41.903 39.491C41.805 39.099 41.64 38.854 41.161 38.391C38.604 35.917 34.569 34.55 30.81 34.885Z" fill="#222222"/>
</svg>
