<svg width="64" height="64" viewBox="0 0 64 64" fill="none" xmlns="http://www.w3.org/2000/svg">
<path fill-rule="evenodd" clip-rule="evenodd" d="M30.0659 10.1911C23.6679 11.1881 18.6689 15.9321 17.3129 22.2931C17.0379 23.5841 17.0379 27.0831 17.3129 28.3731C18.4349 33.6351 22.1379 37.9261 27.1039 39.7201C27.9629 40.0301 28.4699 40.1621 30.0529 40.4881C30.2909 40.5371 30.2929 40.5581 30.2929 42.2951V44.0531H28.0489C26.0079 44.0531 25.7669 44.0731 25.3829 44.2691C23.9559 44.9971 24.0519 47.1231 25.5419 47.8001C25.9139 47.9681 26.2679 47.9961 28.1229 47.9981L30.2719 48.0001L30.3089 50.2671C30.3509 52.8121 30.3859 52.9441 31.1829 53.5891C31.5509 53.8861 31.6669 53.9201 32.3109 53.9201C33.1639 53.9201 33.6529 53.6501 34.0479 52.9621C34.2789 52.5581 34.2949 52.4041 34.3279 50.2741L34.3619 48.0151L36.6739 47.9811C38.9239 47.9481 38.9969 47.9401 39.3719 47.6861C40.5519 46.8871 40.6229 45.2611 39.5149 44.4151L39.1109 44.1071L36.7289 44.0741L34.3469 44.0421V42.2901C34.3469 40.5581 34.3499 40.5371 34.5869 40.4881C36.1419 40.1681 36.6649 40.0351 37.4399 39.7621C41.8459 38.2101 45.3479 34.6491 46.8569 30.1871C47.8739 27.1771 47.8759 23.4851 46.8599 20.4801C45.0099 15.0031 40.2069 10.9991 34.5069 10.1831C33.1979 9.99608 31.2959 9.99908 30.0659 10.1911ZM34.6129 14.2421C36.6215 14.6492 38.4773 15.6069 39.9729 17.0081C41.7279 18.6611 42.7209 20.3271 43.3779 22.7201C43.5279 23.2661 43.5679 23.8211 43.5679 25.3331C43.5679 26.8451 43.5279 27.4011 43.3779 27.9471C42.7739 30.1471 41.9429 31.6341 40.4469 33.1921C37.0799 36.6981 31.9369 37.6481 27.5519 35.5761C26.2809 34.9751 25.5669 34.4951 24.5929 33.5851C19.1139 28.4691 20.0709 19.4861 26.5069 15.6131C27.2249 15.1811 28.7059 14.5591 29.5039 14.3551C31.0939 13.9491 32.9879 13.9071 34.6129 14.2421Z" fill="#222222"/>
</svg>
