<svg width="64" height="64" viewBox="0 0 64 64" fill="none" xmlns="http://www.w3.org/2000/svg">
<path fill-rule="evenodd" clip-rule="evenodd" d="M23.3071 6.04203C19.7541 6.37103 16.8721 8.22703 15.2521 11.231C14.4011 12.808 14.0551 14.186 14.0551 16C14.0551 16.616 14.1131 17.432 14.1831 17.813C14.5661 19.887 15.7401 21.994 17.2961 23.402L17.9561 24L17.2961 24.598C15.7401 26.006 14.5661 28.113 14.1831 30.187C14.0191 31.077 14.0191 32.923 14.1831 33.813C14.5661 35.887 15.7401 37.994 17.2961 39.402L17.9561 40L17.2961 40.598C15.7401 42.006 14.5661 44.113 14.1831 46.187C14.0191 47.077 14.0191 48.923 14.1831 49.813C14.5441 51.767 15.6921 53.902 17.0831 55.208C17.7178 55.8204 18.4379 56.3374 19.2211 56.743C20.8081 57.599 22.1831 57.945 24.0001 57.945C25.2761 57.945 26.1841 57.801 27.2411 57.432C30.5761 56.269 32.9561 53.587 33.7771 50.066C33.9151 49.474 33.9571 48.438 33.9971 44.677L34.0471 40.02L34.4371 40.287C35.4281 40.965 36.9551 41.588 38.1871 41.816C39.0761 41.981 40.9221 41.981 41.8131 41.817C43.7671 41.456 45.9021 40.308 47.2081 38.917C48.5241 37.516 49.4771 35.65 49.8171 33.813C49.9811 32.923 49.9811 31.077 49.8171 30.187C49.4341 28.113 48.2601 26.006 46.7041 24.598L46.0441 24L46.7041 23.402C48.2601 21.994 49.4341 19.887 49.8171 17.813C49.8871 17.432 49.9451 16.616 49.9451 16C49.9451 14.724 49.8011 13.816 49.4321 12.759C48.2701 9.42503 45.6181 7.07103 42.0661 6.21803C41.4201 6.06303 40.2951 6.04003 32.5331 6.02303C27.6931 6.01203 23.5411 6.02103 23.3071 6.04203ZM29.9731 16V21.973H26.5291C22.7251 21.973 22.3691 21.929 21.1821 21.307C20.8131 21.113 20.2101 20.643 19.7831 20.217C18.5571 18.99 18.0271 17.718 18.0271 16C18.0271 14.282 18.5571 13.01 19.7831 11.783C20.2121 11.355 20.8131 10.887 21.1851 10.692C22.3581 10.077 22.6411 10.041 26.4801 10.034L29.9731 10.027V16ZM41.5421 10.19C42.5291 10.447 43.3981 10.964 44.2171 11.783C45.4431 13.01 45.9731 14.282 45.9731 16C45.9731 17.718 45.4431 18.99 44.2171 20.217C43.7901 20.643 43.1871 21.113 42.8181 21.307C41.6311 21.929 41.2751 21.973 37.4711 21.973H34.0271V10.027H37.4711C40.2201 10.027 41.0421 10.06 41.5421 10.19ZM29.9731 32V37.973H26.5291C22.7251 37.973 22.3691 37.929 21.1821 37.307C20.8131 37.113 20.2101 36.643 19.7831 36.217C18.5571 34.99 18.0271 33.718 18.0271 32C18.0271 30.282 18.5571 29.01 19.7831 27.783C20.2121 27.355 20.8131 26.887 21.1851 26.692C22.3581 26.077 22.6411 26.041 26.4801 26.034L29.9731 26.027V32ZM41.5421 26.19C42.5291 26.447 43.3981 26.964 44.2171 27.783C45.4431 29.01 45.9731 30.282 45.9731 32C45.9731 33.718 45.4431 34.99 44.2171 36.217C42.9901 37.443 41.7181 37.973 40.0001 37.973C38.2821 37.973 37.0101 37.443 35.7831 36.217C34.5571 34.99 34.0271 33.718 34.0271 32C34.0271 30.282 34.5571 29.01 35.7831 27.783C36.5851 26.982 37.4661 26.45 38.4121 26.195C39.1791 25.989 40.7611 25.986 41.5421 26.19ZM29.9731 45.471C29.9731 49.275 29.9291 49.631 29.3071 50.818C29.1131 51.187 28.6431 51.79 28.2171 52.217C26.9901 53.443 25.7181 53.973 24.0001 53.973C22.2821 53.973 21.0101 53.443 19.7831 52.217C18.5571 50.99 18.0271 49.718 18.0271 48C18.0271 46.282 18.5571 45.01 19.7831 43.783C20.2121 43.355 20.8131 42.887 21.1851 42.692C22.3581 42.077 22.6411 42.041 26.4801 42.034L29.9731 42.027V45.471Z" fill="#222222"/>
</svg>
