<svg width="64" height="64" viewBox="0 0 64 64" fill="none" xmlns="http://www.w3.org/2000/svg">
<path fill-rule="evenodd" clip-rule="evenodd" d="M18.667 6.07995C17.217 6.16795 16.232 6.38195 15.436 6.77995C13.338 7.82895 11.984 9.63295 11.509 12.012C11.338 12.864 11.245 47.6639 11.406 50.2929C11.524 52.216 11.688 53.04 12.13 53.914C13.195 56.024 14.975 57.3579 17.345 57.8219C17.789 57.909 21.638 57.9599 30.439 57.9939C43.246 58.0439 46.152 57.984 47.413 57.646C49.691 57.0359 51.703 55.024 52.313 52.747C52.646 51.502 52.706 48.568 52.667 35.36C52.632 23.855 52.609 22.384 52.455 21.812C52.2465 21.0039 51.9059 20.2359 51.447 19.539C50.993 18.841 40.898 8.63995 39.708 7.67695C38.838 6.97295 37.906 6.49095 36.897 6.22495C36.287 6.06295 35.34 6.04195 28.107 6.02195C23.648 6.00895 19.4 6.03595 18.667 6.07995ZM32.643 13.467C32.648 18.977 32.806 20.613 33.462 21.912C34.542 24.05 36.369 25.405 38.727 25.815C39.117 25.883 41.404 25.961 44.029 25.996L48.645 26.057L48.616 38.8149L48.587 51.573L48.357 52.069C48.064 52.7029 47.37 53.398 46.736 53.691L46.24 53.9199H17.76L17.264 53.691C16.63 53.398 15.936 52.7029 15.643 52.069L15.413 51.573V12.427L15.643 11.931C16.059 11.029 16.933 10.319 17.848 10.138C18.093 10.09 21.521 10.045 25.467 10.038L32.64 10.027L32.643 13.467ZM42.584 16.083C45.68 19.18 48.213 21.774 48.213 21.849C48.213 21.959 47.303 21.979 43.653 21.953C39.249 21.921 39.076 21.912 38.597 21.691C37.964 21.398 37.269 20.703 36.976 20.069C36.755 19.59 36.746 19.418 36.714 15.013C36.687 11.364 36.708 10.453 36.817 10.453C36.892 10.453 39.487 12.987 42.584 16.083ZM29.707 30.081C26.686 30.401 24.123 32.259 22.779 35.103C22.276 36.167 22.059 37.24 22.059 38.667C22.059 39.3489 22.132 40.1749 22.232 40.6399C22.893 43.6959 25.645 46.44 28.713 47.102C29.726 47.32 31.611 47.319 32.628 47.0999C33.061 47.007 33.825 46.7379 34.326 46.5029L35.237 46.076L37.116 47.937C38.407 49.216 39.094 49.82 39.311 49.8689C39.485 49.908 39.706 49.9609 39.803 49.9869C39.901 50.013 40.208 49.977 40.487 49.907C41.54 49.642 42.133 48.624 41.894 47.493C41.795 47.0299 41.629 46.8279 39.931 45.1119L38.076 43.2369L38.503 42.326C39.057 41.144 39.27 40.129 39.27 38.667C39.27 37.25 39.062 36.212 38.562 35.13C36.966 31.675 33.471 29.683 29.707 30.081ZM32.66 34.48C33.6474 34.9684 34.441 35.776 34.912 36.772C35.232 37.448 35.253 37.568 35.253 38.667C35.253 39.7659 35.232 39.886 34.912 40.561C34.4402 41.5597 33.6439 42.369 32.653 42.8569C31.873 43.2419 31.818 43.2529 30.667 43.2529C29.515 43.2529 29.46 43.2419 28.68 42.8569C27.6893 42.3687 26.8931 41.5594 26.421 40.561C26.102 39.886 26.08 39.7659 26.08 38.667C26.08 37.569 26.102 37.447 26.42 36.776C26.996 35.56 27.983 34.675 29.279 34.213C29.685 34.068 30.06 34.029 30.839 34.054C31.772 34.083 31.935 34.122 32.66 34.48Z" fill="#222222"/>
</svg>
