<svg width="64" height="64" viewBox="0 0 64 64" fill="none" xmlns="http://www.w3.org/2000/svg">
<path fill-rule="evenodd" clip-rule="evenodd" d="M18.667 6.08003C17.217 6.16903 16.232 6.38203 15.436 6.78003C13.338 7.82903 11.984 9.63303 11.509 12.012C11.338 12.864 11.245 47.664 11.406 50.293C11.524 52.216 11.688 53.04 12.13 53.914C13.195 56.024 14.975 57.358 17.345 57.822C17.789 57.909 21.638 57.96 30.439 57.994C43.246 58.044 46.152 57.984 47.413 57.646C49.691 57.036 51.703 55.024 52.313 52.747C52.646 51.502 52.706 48.568 52.667 35.36C52.632 23.855 52.609 22.384 52.455 21.812C52.2465 21.004 51.9059 20.236 51.447 19.539C50.993 18.841 40.898 8.64003 39.708 7.67703C38.8991 7.01434 37.9642 6.52244 36.96 6.23103C36.379 6.06203 35.571 6.04303 28.16 6.02203C23.672 6.00903 19.4 6.03503 18.667 6.08003ZM32.643 13.467C32.648 18.977 32.806 20.613 33.462 21.912C34.542 24.05 36.369 25.405 38.727 25.815C39.117 25.883 41.404 25.961 44.029 25.996L48.645 26.057L48.616 38.815L48.587 51.573L48.357 52.069C48.064 52.703 47.37 53.398 46.736 53.691L46.24 53.92H17.76L17.264 53.691C16.63 53.398 15.936 52.703 15.643 52.069L15.413 51.573V12.427L15.643 11.931C16.059 11.029 16.933 10.319 17.848 10.138C18.093 10.09 21.521 10.045 25.467 10.038L32.64 10.027L32.643 13.467ZM42.584 16.083C45.68 19.18 48.213 21.774 48.213 21.849C48.213 21.959 47.303 21.979 43.653 21.953C39.249 21.921 39.076 21.912 38.597 21.691C37.964 21.398 37.269 20.703 36.976 20.069C36.755 19.59 36.746 19.418 36.714 15.013C36.687 11.364 36.708 10.453 36.817 10.453C36.892 10.453 39.487 12.987 42.584 16.083ZM31.52 30.072C31.086 30.177 22.593 35.852 22.376 36.183C21.225 37.941 23.112 40.025 24.963 39.039C25.108 38.962 26.293 38.187 27.596 37.317L29.965 35.736L29.996 42.161L30.027 48.587L30.274 48.985C31.226 50.516 33.537 50.165 33.909 48.433C33.987 48.068 34.027 45.841 34.027 41.807V35.731L36.4 37.315C37.705 38.186 38.892 38.962 39.037 39.039C40.551 39.845 42.283 38.572 41.913 36.926C41.856 36.673 41.729 36.343 41.63 36.193C41.391 35.828 32.997 30.236 32.468 30.09C32.01 29.962 31.979 29.962 31.52 30.072Z" fill="#222222"/>
</svg>
