<svg width="64" height="64" viewBox="0 0 64 64" fill="none" xmlns="http://www.w3.org/2000/svg">
<path fill-rule="evenodd" clip-rule="evenodd" d="M18.667 6.08003C17.217 6.16903 16.232 6.38203 15.436 6.78003C13.338 7.82903 11.984 9.63303 11.509 12.012C11.338 12.864 11.245 47.664 11.406 50.293C11.524 52.216 11.688 53.04 12.13 53.914C13.195 56.024 14.975 57.358 17.345 57.822C17.789 57.909 21.638 57.96 30.439 57.994C43.246 58.044 46.152 57.984 47.413 57.646C49.691 57.036 51.703 55.024 52.313 52.747C52.646 51.502 52.706 48.568 52.667 35.36C52.632 23.855 52.609 22.384 52.455 21.812C52.2465 21.004 51.9059 20.236 51.447 19.539C50.993 18.841 40.898 8.64003 39.708 7.67703C38.8991 7.01434 37.9642 6.52244 36.96 6.23103C36.379 6.06203 35.571 6.04303 28.16 6.02203C23.672 6.00903 19.4 6.03503 18.667 6.08003ZM32.643 13.467C32.648 18.977 32.806 20.613 33.462 21.912C34.542 24.05 36.369 25.405 38.727 25.815C39.117 25.883 41.404 25.961 44.029 25.996L48.645 26.057L48.616 38.815L48.587 51.573L48.357 52.069C48.064 52.703 47.37 53.398 46.736 53.691L46.24 53.92H17.76L17.264 53.691C16.63 53.398 15.936 52.703 15.643 52.069L15.413 51.573V12.427L15.643 11.931C16.059 11.029 16.933 10.319 17.848 10.138C18.093 10.09 21.521 10.045 25.467 10.038L32.64 10.027L32.643 13.467ZM42.584 16.083C45.68 19.18 48.213 21.774 48.213 21.849C48.213 21.959 47.303 21.979 43.653 21.953C39.249 21.921 39.076 21.912 38.597 21.691C37.964 21.398 37.269 20.703 36.976 20.069C36.755 19.59 36.746 19.418 36.714 15.013C36.687 11.364 36.708 10.453 36.817 10.453C36.892 10.453 39.487 12.987 42.584 16.083ZM26.4 32.693C26.2588 32.7328 26.1164 32.7681 25.973 32.799C25.743 32.85 24.84 33.679 22.74 35.769C21.138 37.362 19.726 38.829 19.603 39.028C19.293 39.526 19.293 40.474 19.603 40.972C19.726 41.171 21.138 42.636 22.74 44.228C25.476 46.946 25.684 47.129 26.16 47.228C27.705 47.551 28.886 46.37 28.561 44.827C28.462 44.358 28.292 44.156 26.313 42.16L24.171 40L26.313 37.84C28.297 35.838 28.462 35.643 28.561 35.17C28.76 34.226 28.356 33.28 27.606 32.934C27.235 32.764 26.581 32.633 26.4 32.693ZM36.839 32.742C36.374 32.852 35.899 33.213 35.616 33.67C35.341 34.116 35.288 35.081 35.516 35.52C35.591 35.667 36.594 36.735 37.743 37.893L39.833 40L37.743 42.107C36.594 43.265 35.591 44.333 35.516 44.48C35.44 44.626 35.378 45.024 35.378 45.363C35.378 45.873 35.432 46.057 35.689 46.421C35.86 46.663 36.182 46.955 36.404 47.069C36.9 47.326 37.703 47.341 38.205 47.103C38.408 47.006 39.898 45.597 41.515 43.97C44.279 41.191 44.462 40.983 44.562 40.507C44.632 40.171 44.632 39.829 44.562 39.493C44.462 39.017 44.279 38.809 41.515 36.03C39.898 34.403 38.427 33.005 38.247 32.922C37.802 32.718 37.242 32.646 36.839 32.742Z" fill="#222222"/>
</svg>
