<svg width="64" height="64" viewBox="0 0 64 64" fill="none" xmlns="http://www.w3.org/2000/svg">
<path fill-rule="evenodd" clip-rule="evenodd" d="M18.667 6.07995C17.217 6.16795 16.232 6.38195 15.436 6.77995C13.338 7.82895 11.984 9.63295 11.509 12.012C11.338 12.864 11.245 47.6639 11.406 50.2929C11.524 52.216 11.688 53.04 12.13 53.914C13.195 56.024 14.975 57.3579 17.345 57.8219C17.789 57.909 21.638 57.9599 30.439 57.9939C43.246 58.0439 46.152 57.984 47.413 57.646C49.691 57.0359 51.703 55.024 52.313 52.747C52.646 51.502 52.706 48.568 52.667 35.36C52.632 23.855 52.609 22.384 52.455 21.812C52.2465 21.0039 51.9059 20.2359 51.447 19.539C50.993 18.841 40.898 8.63995 39.708 7.67695C38.838 6.97295 37.906 6.49095 36.897 6.22495C36.287 6.06295 35.34 6.04195 28.107 6.02195C23.648 6.00895 19.4 6.03595 18.667 6.07995ZM32.643 13.467C32.648 18.977 32.806 20.613 33.462 21.912C34.542 24.05 36.369 25.405 38.727 25.815C39.117 25.883 41.404 25.961 44.029 25.996L48.645 26.057L48.616 38.8149L48.587 51.573L48.357 52.069C48.064 52.7029 47.37 53.398 46.736 53.691L46.24 53.9199H17.76L17.264 53.691C16.63 53.398 15.936 52.7029 15.643 52.069L15.413 51.573V12.427L15.643 11.931C16.059 11.029 16.933 10.319 17.848 10.138C18.093 10.09 21.521 10.045 25.467 10.038L32.64 10.027L32.643 13.467ZM42.584 16.083C45.68 19.18 48.213 21.774 48.213 21.849C48.213 21.959 47.303 21.979 43.653 21.953C39.249 21.921 39.076 21.912 38.597 21.691C37.964 21.398 37.269 20.703 36.976 20.069C36.755 19.59 36.746 19.418 36.714 15.013C36.687 11.364 36.708 10.453 36.817 10.453C36.892 10.453 39.487 12.987 42.584 16.083ZM23.506 35.407C22.214 35.721 21.595 37.344 22.356 38.421C22.527 38.663 22.859 38.9609 23.093 39.084C23.514 39.303 23.641 39.307 31.674 39.337C37.386 39.357 40.001 39.331 40.404 39.247C42.162 38.882 42.531 36.569 40.985 35.608L40.587 35.36L32.213 35.343C27.608 35.333 23.69 35.362 23.506 35.407ZM23.506 43.407C22.214 43.721 21.595 45.344 22.356 46.421C22.527 46.663 22.859 46.9609 23.093 47.084C23.514 47.303 23.641 47.307 31.674 47.337C37.386 47.357 40.001 47.331 40.404 47.247C42.162 46.882 42.531 44.569 40.985 43.608L40.587 43.36L32.213 43.3429C27.608 43.333 23.69 43.362 23.506 43.407Z" fill="#222222"/>
</svg>
