<svg width="64" height="64" viewBox="0 0 64 64" fill="none" xmlns="http://www.w3.org/2000/svg">
<path fill-rule="evenodd" clip-rule="evenodd" d="M21.333 6.08003C19.406 6.19803 18.344 6.52203 17.104 7.37203C16.014 8.11903 14.921 9.54303 14.517 10.741C14.05 12.129 14.031 12.536 14.029 21.44L14.027 29.92L14.274 30.318C15.113 31.668 17.08 31.612 17.772 30.219C17.963 29.834 17.976 29.372 18.027 21.12C18.08 12.507 18.082 12.422 18.309 11.931C18.602 11.297 19.297 10.602 19.931 10.309C20.421 10.083 20.512 10.08 27.867 10.049L35.307 10.018L35.31 13.409C35.316 18.971 35.474 20.616 36.129 21.912C37.208 24.05 39.036 25.405 41.394 25.815C41.784 25.883 44.071 25.961 46.696 25.996L51.312 26.057L51.282 38.815L51.253 51.573L51.024 52.069C50.731 52.703 50.036 53.398 49.403 53.691C48.914 53.917 48.797 53.921 41.485 53.973L34.064 54.027L33.632 54.313C32.992 54.737 32.711 55.256 32.711 56.018C32.711 56.541 32.764 56.721 33.022 57.087C33.193 57.329 33.525 57.628 33.76 57.751C34.175 57.967 34.346 57.974 39.893 58.006C45.911 58.04 49.02 57.93 50.08 57.646C52.357 57.036 54.369 55.024 54.979 52.747C55.313 51.502 55.373 48.568 55.333 35.36C55.299 23.855 55.276 22.384 55.121 21.812C54.9129 21.004 54.5726 20.236 54.114 19.539C53.66 18.841 43.565 8.64003 42.374 7.67703C41.5653 7.01455 40.6309 6.52267 39.627 6.23103C39.045 6.06203 38.238 6.04303 30.827 6.02203C26.339 6.00903 22.067 6.03503 21.333 6.08003ZM45.25 16.083C48.347 19.18 50.88 21.774 50.88 21.849C50.88 21.959 49.97 21.979 46.32 21.953C41.916 21.921 41.743 21.912 41.264 21.691C40.63 21.398 39.936 20.703 39.643 20.069C39.421 19.59 39.412 19.418 39.38 15.013C39.354 11.364 39.375 10.453 39.484 10.453C39.559 10.453 42.154 12.987 45.25 16.083ZM30.211 27.411C30.019 27.457 29.683 27.619 29.465 27.771C28.834 28.21 9.11099 48.012 8.89099 48.427C8.70899 48.771 8.69299 49.108 8.69299 52.711V56.622L9.01299 57.075C9.18899 57.324 9.52499 57.628 9.75999 57.751C10.17 57.964 10.339 57.973 14.027 57.973C17.557 57.973 17.897 57.957 18.24 57.776C18.74 57.512 38.861 37.382 39.098 36.909C39.337 36.432 39.337 35.567 39.097 35.091C38.867 34.633 32.069 27.817 31.627 27.599C31.193 27.386 30.633 27.312 30.211 27.411ZM32.214 38.239L29.973 40.479L28.081 38.587L26.188 36.694L28.426 34.454L30.665 32.213L32.559 34.106L34.454 35.999L32.214 38.239ZM25.28 41.44L27.145 43.307L21.813 48.64L16.481 53.973H12.693V50.187L18 44.88C20.918 41.962 23.331 39.573 23.361 39.573C23.391 39.573 24.255 40.414 25.28 41.44Z" fill="#222222"/>
</svg>
