<svg width="64" height="64" viewBox="0 0 64 64" fill="none" xmlns="http://www.w3.org/2000/svg">
<path fill-rule="evenodd" clip-rule="evenodd" d="M28.96 6.076C28.028 6.165 27.507 6.336 26.827 6.776C26.2277 7.15684 25.7241 7.67041 25.355 8.277C24.863 9.071 24.742 9.718 24.672 11.912L24.607 13.958L17.237 13.999C10.536 14.036 9.81398 14.057 9.28998 14.229C7.80298 14.717 6.67098 15.862 6.22198 17.333C6.03598 17.943 6.02698 18.831 6.02698 36C6.02698 53.155 6.03598 54.057 6.22198 54.658C6.44573 55.3954 6.84802 56.0661 7.39315 56.6107C7.93828 57.1553 8.6094 57.5569 9.34698 57.78C9.93698 57.962 10.712 57.973 22.667 57.973C34.657 57.973 35.395 57.963 35.991 57.778C36.6115 57.5907 37.1856 57.2749 37.6759 56.8511C38.1663 56.4272 38.5619 55.9049 38.837 55.318C39.197 54.55 39.355 53.338 39.358 51.341L39.36 50.042L46.747 50.001C54.941 49.956 54.674 49.978 55.835 49.233C57.073 48.439 57.745 47.284 57.916 45.652C58.047 44.408 58.057 20.343 57.927 19.221C57.8663 18.7021 57.7189 18.1971 57.491 17.727C57.178 17.079 56.676 16.543 52.066 11.934C47.457 7.324 46.921 6.822 46.273 6.509C45.8029 6.28103 45.2979 6.13365 44.779 6.073C43.871 5.968 30.063 5.97 28.96 6.076ZM40.666 14.747C40.708 18.846 40.739 19.543 40.9 20.043C41.2265 21.0846 41.9108 21.9773 42.832 22.563C43.916 23.267 44.03 23.28 49.253 23.334L53.973 23.382V34.483C53.973 44.662 53.959 45.599 53.797 45.778C53.629 45.964 53.262 45.973 46.49 45.973H39.36L39.355 36.987C39.353 32.044 39.31 27.649 39.26 27.221C39.1999 26.7019 39.0522 26.1967 38.823 25.727C38.511 25.083 37.997 24.532 33.585 20.103L28.693 15.193V12.805C28.693 10.732 28.717 10.391 28.87 10.222C29.037 10.037 29.362 10.027 34.832 10.027H40.618L40.666 14.747ZM49.424 19.281C45.501 19.306 45.067 19.292 44.89 19.131C44.705 18.964 44.693 18.692 44.693 14.571V10.188L49.227 14.72L53.761 19.253L49.424 19.281ZM22 22.747C22.042 26.846 22.072 27.543 22.233 28.043C22.5595 29.0846 23.2438 29.9773 24.165 30.563C25.249 31.267 25.363 31.28 30.587 31.334L35.307 31.382V42.483C35.307 52.662 35.292 53.599 35.13 53.778C34.961 53.965 34.435 53.973 22.685 53.973C11.419 53.973 10.401 53.959 10.222 53.797C10.034 53.627 10.027 52.935 10.027 36.019C10.027 19.79 10.04 18.402 10.203 18.222C10.37 18.037 10.696 18.027 16.166 18.027H21.952L22 22.747ZM30.757 27.281C26.834 27.306 26.401 27.292 26.223 27.131C26.038 26.964 26.027 26.692 26.027 22.571V18.188L30.561 22.72L35.094 27.253L30.757 27.281Z" fill="#222222"/>
</svg>
