<svg width="64" height="64" viewBox="0 0 64 64" fill="none" xmlns="http://www.w3.org/2000/svg">
<path fill-rule="evenodd" clip-rule="evenodd" d="M18.667 6.08003C17.217 6.16903 16.232 6.38203 15.436 6.78003C13.338 7.82903 11.984 9.63303 11.509 12.012C11.338 12.864 11.245 47.664 11.406 50.293C11.524 52.216 11.688 53.04 12.13 53.914C13.195 56.024 14.975 57.358 17.345 57.822C17.789 57.909 21.638 57.96 30.439 57.994C43.246 58.044 46.152 57.984 47.413 57.646C49.691 57.036 51.703 55.024 52.313 52.747C52.646 51.502 52.706 48.568 52.667 35.36C52.632 23.855 52.609 22.384 52.455 21.812C52.2465 21.004 51.9059 20.236 51.447 19.539C50.993 18.841 40.898 8.64003 39.708 7.67703C38.8991 7.01434 37.9642 6.52244 36.96 6.23103C36.379 6.06203 35.571 6.04303 28.16 6.02203C23.672 6.00903 19.4 6.03503 18.667 6.08003ZM32.643 13.467C32.648 18.977 32.806 20.613 33.462 21.912C34.542 24.05 36.369 25.405 38.727 25.815C39.117 25.883 41.404 25.961 44.029 25.996L48.645 26.057L48.616 38.815L48.587 51.573L48.357 52.069C48.064 52.703 47.37 53.398 46.736 53.691L46.24 53.92H17.76L17.264 53.691C16.63 53.398 15.936 52.703 15.643 52.069L15.413 51.573V12.427L15.643 11.931C16.059 11.029 16.933 10.319 17.848 10.138C18.093 10.09 21.521 10.045 25.467 10.038L32.64 10.027L32.643 13.467ZM42.584 16.083C45.68 19.18 48.213 21.774 48.213 21.849C48.213 21.959 47.303 21.979 43.653 21.953C39.249 21.921 39.076 21.912 38.597 21.691C37.964 21.398 37.269 20.703 36.976 20.069C36.755 19.59 36.746 19.418 36.714 15.013C36.687 11.364 36.708 10.453 36.817 10.453C36.892 10.453 39.487 12.987 42.584 16.083ZM31.506 30.075C31.038 30.186 30.565 30.547 30.274 31.015L30.027 31.413L29.996 37.839L29.965 44.264L27.596 42.683C26.293 41.813 25.108 41.038 24.963 40.961C24.152 40.529 23.24 40.653 22.613 41.28C21.938 41.955 21.841 42.999 22.376 43.817C22.623 44.194 31.022 49.772 31.561 49.917C31.882 50.003 32.118 50.003 32.439 49.917C32.987 49.769 41.379 44.191 41.63 43.807C41.729 43.657 41.856 43.327 41.913 43.074C42.283 41.428 40.551 40.155 39.037 40.961C38.892 41.038 37.705 41.814 36.4 42.685L34.027 44.269L34.024 38.161C34.022 34.351 33.98 31.874 33.911 31.575C33.8387 31.2852 33.7154 31.0106 33.547 30.764C33.128 30.215 32.214 29.907 31.506 30.075Z" fill="#222222"/>
</svg>
