<svg width="64" height="64" viewBox="0 0 64 64" fill="none" xmlns="http://www.w3.org/2000/svg">
<path fill-rule="evenodd" clip-rule="evenodd" d="M12.9601 8.74095C12.0851 8.82695 11.5231 8.99895 10.9331 9.36195C9.96706 9.95695 9.22006 10.9119 8.91006 11.9469C8.68806 12.6869 8.56706 16.5809 8.72306 17.9529C8.93406 19.8039 8.54306 19.3389 17.0811 27.8959L24.6401 35.4709L24.6431 42.8289C24.6471 50.7479 24.7101 52.3969 25.0451 53.3509C25.2548 53.9522 25.5916 54.5012 26.0325 54.9608C26.4734 55.4203 27.008 55.7795 27.6001 56.0139C28.4701 56.3589 29.8581 56.3609 30.8501 56.0179C31.9971 55.6229 37.0031 53.0729 37.6531 52.5539C38.0228 52.2444 38.3434 51.8806 38.6041 51.4749C39.3051 50.3019 39.2891 50.4939 39.3321 42.6129L39.3721 35.4669L46.9251 27.8929C53.8641 20.9369 54.5071 20.2619 54.8241 19.6059C55.2441 18.7389 55.3501 17.9569 55.3531 15.6799C55.3571 13.3509 55.2151 12.1559 54.8371 11.3479C54.2961 10.1919 53.2971 9.31195 52.0481 8.89195C51.4931 8.70495 50.5991 8.69595 32.5871 8.68195C22.2031 8.67395 13.3711 8.70095 12.9601 8.74095ZM51.1121 12.8699C51.2901 13.0309 51.3071 13.2569 51.3071 15.4539V17.8619L43.7451 25.4379C38.4791 30.7139 36.1121 33.156 35.9481 33.483C35.3391 34.697 35.3731 34.2449 35.3111 42.1329L35.2531 49.4399L32.3291 50.9069C30.7201 51.7129 29.3401 52.3729 29.2621 52.3729C29.1841 52.3729 29.0241 52.2769 28.9071 52.1599C28.6971 51.9509 28.6931 51.8009 28.6891 43.9729C28.6861 39.5879 28.6431 35.6489 28.5941 35.2209C28.5335 34.702 28.3861 34.197 28.1581 33.7269C27.8401 33.0709 27.1991 32.3989 20.2531 25.4379L12.6931 17.8619V15.4729C12.6931 13.3989 12.7171 13.0579 12.8701 12.8879C13.0401 12.7009 13.7731 12.6929 31.9811 12.6929C49.4511 12.6929 50.9321 12.7069 51.1121 12.8699Z" fill="#222222"/>
</svg>
