<svg width="64" height="64" viewBox="0 0 64 64" fill="none" xmlns="http://www.w3.org/2000/svg">
<path fill-rule="evenodd" clip-rule="evenodd" d="M12.8391 0.73802C12.3711 0.85402 11.8971 1.21602 11.6161 1.67002C11.3411 2.11502 11.2881 3.08102 11.5151 3.52002C11.5911 3.66702 12.7301 4.87102 14.0461 6.19602L16.4401 8.60602L14.4871 8.67302C12.3921 8.74402 11.7241 8.87302 10.9441 9.35502C9.96506 9.96002 9.22106 10.908 8.91006 11.947C8.68806 12.687 8.56706 16.581 8.72306 17.953C8.93406 19.804 8.54306 19.339 17.0811 27.896L24.6401 35.471L24.6431 42.829C24.6471 50.748 24.7101 52.397 25.0451 53.351C25.2548 53.9523 25.5916 54.5013 26.0325 54.9608C26.4734 55.4203 27.008 55.7795 27.6001 56.014C28.4701 56.359 29.8581 56.361 30.8501 56.018C31.9971 55.623 37.0031 53.073 37.6531 52.554C38.0228 52.2445 38.3434 51.8807 38.6041 51.475C39.3051 50.302 39.2891 50.494 39.3321 42.613L39.3711 35.467L40.3501 34.48L41.3281 33.494L45.4911 37.642C49.4541 41.592 49.6781 41.796 50.1601 41.896C51.7051 42.216 52.8811 41.042 52.5641 39.493C52.4631 39 51.9801 38.506 33.5111 20.026C23.0881 9.59802 14.4171 0.99802 14.2401 0.91502C13.8041 0.71002 13.2411 0.63902 12.8391 0.73802ZM34.1721 8.73802C32.8781 9.06002 32.2611 10.677 33.0221 11.754C33.1931 11.996 33.5251 12.295 33.7601 12.417C34.1811 12.637 34.3041 12.64 42.5551 12.67C50.1051 12.697 50.9421 12.717 51.1151 12.873C51.2891 13.03 51.3071 13.273 51.3071 15.457V17.868L48.9021 20.268C47.5791 21.587 46.3951 22.829 46.2711 23.028C45.9161 23.595 45.9541 24.519 46.3561 25.087C46.9201 25.886 48.0071 26.18 48.8761 25.767C49.0811 25.67 50.4251 24.404 51.8611 22.955C55.3421 19.443 55.3471 19.432 55.3531 15.68C55.3571 13.345 55.2151 12.157 54.8341 11.342C54.5621 10.7659 54.1751 10.2516 53.6968 9.83072C53.2185 9.40988 52.6591 9.09144 52.0531 8.89502C51.5131 8.71902 50.8001 8.70202 42.9871 8.68002C38.3231 8.66602 34.3561 8.69202 34.1721 8.73802ZM29.4611 21.621L38.4951 30.655L37.3331 31.855C36.6941 32.514 36.0671 33.256 35.9411 33.503C35.3421 34.679 35.3731 34.255 35.3111 42.133L35.2531 49.44L32.3291 50.907C30.7201 51.713 29.3401 52.373 29.2621 52.373C29.1841 52.373 29.0241 52.277 28.9071 52.16C28.6971 51.951 28.6931 51.801 28.6891 43.973C28.6861 39.588 28.6431 35.649 28.5941 35.221C28.5335 34.7021 28.3861 34.197 28.1581 33.727C27.8401 33.071 27.1991 32.399 20.2531 25.438L12.6931 17.862V15.454C12.6931 13.264 12.7111 13.031 12.8871 12.871C13.0571 12.718 13.5171 12.693 16.6471 12.667C18.6081 12.65 20.2611 12.626 20.3201 12.612C20.3781 12.598 24.4921 16.652 29.4611 21.621Z" fill="#222222"/>
</svg>
