<svg width="64" height="64" viewBox="0 0 64 64" fill="none" xmlns="http://www.w3.org/2000/svg">
<path fill-rule="evenodd" clip-rule="evenodd" d="M26.24 6.04204C25.5107 6.11793 24.8089 6.36175 24.1897 6.75438C23.5705 7.14702 23.0506 7.67778 22.671 8.30504C22.034 9.33304 22.044 9.22004 22.001 15.86L21.961 21.959L15.86 22.001C9.22198 22.046 9.32898 22.036 8.30498 22.671C7.63701 23.0817 7.07788 23.6474 6.67498 24.32C6.02498 25.409 6.02698 25.383 6.02698 32C6.02698 38.617 6.02498 38.591 6.67498 39.68C7.07498 40.35 7.63198 40.913 8.30498 41.329C9.32898 41.964 9.22198 41.954 15.86 41.999L21.959 42.041L22.001 48.14C22.046 54.778 22.036 54.671 22.671 55.695C23.297 56.707 24.357 57.522 25.44 57.824C26.222 58.043 37.778 58.043 38.56 57.824C39.643 57.522 40.703 56.707 41.329 55.695C41.964 54.671 41.954 54.778 41.999 48.14L42.041 42.041L48.14 41.999C54.778 41.954 54.671 41.964 55.695 41.329C56.3629 40.9184 56.9221 40.3527 57.325 39.68C57.975 38.591 57.973 38.617 57.973 32C57.973 25.383 57.975 25.409 57.325 24.32C56.9221 23.6474 56.3629 23.0817 55.695 22.671C54.671 22.036 54.778 22.046 48.14 22.001L42.041 21.959L41.999 15.86C41.954 9.22204 41.964 9.32904 41.329 8.30504C40.9502 7.676 40.4293 7.14446 39.808 6.75304C38.691 6.02904 38.859 6.04504 32.427 6.02204C29.229 6.01004 26.445 6.01904 26.24 6.04204ZM37.793 10.218C37.948 10.389 37.969 11.14 37.996 17.515L38.027 24.622L38.347 25.075C38.523 25.324 38.859 25.628 39.093 25.751C39.512 25.969 39.657 25.974 46.556 26.004C52.865 26.031 53.611 26.052 53.782 26.207C53.961 26.369 53.973 26.734 53.973 32C53.973 37.266 53.961 37.631 53.782 37.793C53.611 37.948 52.862 37.969 46.502 37.996L39.413 38.027L39.006 38.28C38.7356 38.4647 38.5008 38.6968 38.313 38.965L38.027 39.398L37.996 46.494C37.969 52.861 37.948 53.611 37.793 53.782C37.631 53.961 37.267 53.973 32.019 53.973C26.956 53.973 26.398 53.956 26.222 53.797C26.037 53.629 26.027 53.274 26.027 46.869C26.027 42.341 25.988 39.936 25.909 39.567C25.8328 39.2163 25.6612 38.8934 25.4131 38.6339C25.165 38.3745 24.85 38.1887 24.503 38.097C24.157 38.01 22.013 37.973 17.214 37.973C11.039 37.973 10.399 37.957 10.222 37.797C10.037 37.63 10.027 37.31 10.027 32.019C10.027 26.956 10.044 26.398 10.203 26.222C10.371 26.037 10.726 26.027 17.131 26.027C21.659 26.027 24.064 25.988 24.433 25.909C24.7968 25.8352 25.1307 25.6558 25.3932 25.3933C25.6557 25.1308 25.8351 24.7968 25.909 24.433C25.988 24.064 26.027 21.664 26.027 17.15C26.027 11.034 26.043 10.399 26.203 10.222C26.37 10.037 26.691 10.027 32 10.027C37.266 10.027 37.631 10.039 37.793 10.218Z" fill="#222222"/>
</svg>
