<svg width="64" height="64" viewBox="0 0 64 64" fill="none" xmlns="http://www.w3.org/2000/svg">
<path fill-rule="evenodd" clip-rule="evenodd" d="M18.827 6.08805C16.043 6.31005 13.281 7.30705 10.721 9.01405C9.33896 9.93405 8.90096 10.4011 8.75496 11.1071C8.66996 11.5191 8.64496 17.9761 8.66496 34.1331L8.69296 56.5871L8.94096 56.9851C9.77096 58.3201 11.754 58.2641 12.438 56.8861C12.628 56.5041 12.643 56.0721 12.693 49.6121L12.747 42.7441L13.76 42.1581C14.8892 41.4919 16.1074 40.9896 17.378 40.6661C18.808 40.2851 21.267 40.2681 22.933 40.6261C24.56 40.9771 26.846 41.7691 29.28 42.8271C35.873 45.6931 37.027 46.1361 39.375 46.7061C41.261 47.1641 42.193 47.2791 43.947 47.2711C46.303 47.2611 48.259 46.8491 50.383 45.9141C52.428 45.0141 54.696 43.4741 55.086 42.7201C55.306 42.2951 55.307 42.2231 55.339 27.0931C55.356 18.7331 55.341 11.6441 55.305 11.3391C55.193 10.3931 54.522 9.67905 53.618 9.54405C53.016 9.45305 52.482 9.65405 51.573 10.3111C50.007 11.4441 48.475 12.1731 46.621 12.6671C45.21 13.0431 42.729 13.0651 41.113 12.7161C38.818 12.2201 37.61 11.7651 31.2 8.98505C25.678 6.59005 22.34 5.80905 18.827 6.08805ZM23.307 10.3921C25.42 10.8881 26.979 11.4711 31.453 13.4361C34.813 14.9131 35.855 15.3281 37.559 15.8721C40.233 16.7261 42.159 17.0191 44.508 16.9271C46.781 16.8391 48.587 16.4171 50.526 15.5211L51.307 15.1611V40.8561L50.747 41.2141C49.485 42.0191 47.878 42.6991 46.366 43.0671C45.157 43.3611 42.418 43.3291 40.96 43.0041C38.764 42.5141 37.108 41.9021 32.533 39.8921C29.16 38.4101 28.146 38.0051 26.441 37.4611C23.78 36.6111 21.782 36.3111 19.426 36.4071C17.218 36.4961 15.385 36.9291 13.474 37.8121L12.693 38.1731V12.4771L13.253 12.1201C14.622 11.2451 16.547 10.4641 18.021 10.1851C19.288 9.94505 21.828 10.0441 23.307 10.3921Z" fill="#222222"/>
</svg>
