<svg width="64" height="64" viewBox="0 0 64 64" fill="none" xmlns="http://www.w3.org/2000/svg">
<path fill-rule="evenodd" clip-rule="evenodd" d="M12.427 8.73897C9.53699 9.09997 7.13999 11.14 6.27599 13.973L6.03099 14.773L5.99699 30.187C5.96199 45.901 6.01399 48.813 6.35399 50.08C6.97099 52.384 8.99699 54.391 11.307 54.987C11.688 55.086 12.72 55.208 13.6 55.26C15.685 55.381 48.315 55.381 50.4 55.26C52.229 55.153 53.095 54.961 54.08 54.445C55.3772 53.7706 56.4352 52.713 57.11 51.416C57.651 50.383 57.806 49.647 57.93 47.505C58.086 44.814 57.992 20.881 57.822 20.012C57.357 17.641 56.024 15.862 53.912 14.796C52.446 14.055 51.267 13.981 40.799 13.977L32.797 13.973L31.305 12.472C29.512 10.668 28.498 9.82797 27.592 9.39497C26.181 8.72197 26.164 8.72097 19.307 8.68897C15.875 8.67197 12.779 8.69497 12.427 8.73897ZM25.76 12.948C26.053 13.086 26.485 13.372 26.72 13.582L27.147 13.964L18.955 13.969C10.079 13.974 10.537 14.007 11.253 13.416C11.5783 13.1353 11.9574 12.9237 12.367 12.794C12.517 12.749 15.472 12.708 18.933 12.704L25.227 12.695L25.76 12.948ZM52.069 18.309C52.703 18.602 53.398 19.297 53.691 19.931L53.92 20.427V48.907L53.691 49.403C53.398 50.036 52.703 50.731 52.069 51.024L51.573 51.253H12.427L11.931 51.024C11.297 50.731 10.602 50.036 10.309 49.403L10.08 48.907L10.051 33.465L10.022 18.024L30.798 18.052L51.573 18.08L52.069 18.309ZM29.707 24.748C26.686 25.068 24.123 26.925 22.779 29.769C22.276 30.834 22.059 31.907 22.059 33.333C22.059 34.016 22.132 34.841 22.232 35.307C22.893 38.362 25.645 41.107 28.713 41.768C29.726 41.987 31.611 41.986 32.628 41.767C33.061 41.673 33.825 41.405 34.326 41.17L35.237 40.743L37.116 42.604C38.407 43.882 39.094 44.487 39.311 44.536C39.485 44.575 39.706 44.628 39.803 44.654C39.901 44.68 40.208 44.644 40.487 44.574C41.54 44.309 42.133 43.291 41.894 42.16C41.795 41.696 41.629 41.494 39.931 39.779L38.076 37.904L38.503 36.993C39.057 35.81 39.27 34.796 39.27 33.333C39.27 31.916 39.062 30.879 38.562 29.797C36.965 26.339 33.474 24.349 29.707 24.748ZM32.66 29.146C33.6478 29.6345 34.4414 30.4425 34.912 31.439C35.232 32.114 35.253 32.234 35.253 33.333C35.253 34.432 35.232 34.552 34.912 35.228C34.4402 36.2264 33.6439 37.0355 32.653 37.523C31.873 37.909 31.818 37.92 30.667 37.92C29.515 37.92 29.46 37.909 28.68 37.523C27.6893 37.0352 26.8931 36.2262 26.421 35.228C26.102 34.552 26.08 34.432 26.08 33.333C26.08 32.236 26.102 32.114 26.42 31.443C26.996 30.227 27.983 29.342 29.279 28.879C29.685 28.734 30.06 28.696 30.839 28.721C31.772 28.75 31.935 28.788 32.66 29.146Z" fill="#222222"/>
</svg>
