<svg width="64" height="64" viewBox="0 0 64 64" fill="none" xmlns="http://www.w3.org/2000/svg">
<path fill-rule="evenodd" clip-rule="evenodd" d="M20.96 6.07596C20.086 6.15996 19.524 6.33196 18.933 6.69496C17.9719 7.29065 17.2514 8.20589 16.898 9.27996C16.73 9.80396 16.705 10.508 16.666 15.907L16.622 21.947L13.244 22.001C10.475 22.046 9.76298 22.088 9.28998 22.237C8.56567 22.4652 7.90782 22.8663 7.37328 23.4057C6.83874 23.9451 6.44359 24.6066 6.22198 25.333C6.03698 25.94 6.02698 26.708 6.02698 40C6.02698 53.282 6.03698 54.06 6.22198 54.658C6.44573 55.3953 6.84802 56.0661 7.39315 56.6107C7.93828 57.1553 8.6094 57.5569 9.34698 57.78C9.93998 57.963 10.85 57.973 26.667 57.973C42.531 57.973 43.391 57.964 43.991 57.778C44.6123 57.5905 45.1872 57.274 45.6779 56.8492C46.1686 56.4245 46.5643 55.901 46.839 55.313C47.288 54.355 47.354 53.329 47.357 47.294L47.36 42.054L50.747 41.999C54.457 41.939 54.828 41.885 55.805 41.265C57.067 40.464 57.755 39.267 57.918 37.593C58.053 36.204 58.053 17.13 57.918 15.74C57.755 14.066 57.067 12.87 55.805 12.069C54.68 11.355 54.963 11.376 46.187 11.328L38.24 11.285L36.96 9.62496C35.145 7.27196 34.88 6.99696 33.992 6.55896C33.417 6.27596 33.001 6.15596 32.32 6.07896C31.32 5.96396 22.148 5.96196 20.96 6.07596ZM32.612 10.533C32.842 10.812 33.065 11.1 33.108 11.173C33.17 11.279 31.907 11.307 26.94 11.307H20.693V10.862C20.693 9.97396 20.322 10.027 26.62 10.027H32.193L32.612 10.533ZM53.778 15.537C53.965 15.705 53.973 16.19 53.973 26.648C53.973 36.674 53.959 37.599 53.797 37.778C53.633 37.959 53.387 37.973 50.49 37.973H47.36L47.357 35.387C47.354 32.015 47.244 30.885 46.837 30.015C46.5658 29.4372 46.1787 28.9213 45.6998 28.4993C45.2209 28.0773 44.6603 27.7583 44.053 27.562C43.517 27.388 42.781 27.368 35.52 27.328L27.573 27.285L26.293 25.625C25.589 24.712 24.807 23.735 24.554 23.454C24.023 22.862 22.858 22.23 22.132 22.14L21.173 22.02L20.693 21.96V15.36H37.138C52.291 15.36 53.599 15.374 53.778 15.537ZM21.945 26.533C22.175 26.812 22.399 27.1 22.442 27.173C22.503 27.279 21.24 27.307 16.273 27.307H10.027V26.862C10.027 25.974 9.65498 26.027 15.953 26.027H21.527L21.945 26.533ZM43.112 31.537C43.298 31.705 43.307 32.19 43.307 42.648C43.307 52.674 43.292 53.599 43.13 53.778C42.961 53.966 42.31 53.973 26.685 53.973C11.697 53.973 10.401 53.959 10.222 53.797C10.035 53.628 10.027 53.137 10.027 42.49V31.36H26.472C41.624 31.36 42.932 31.374 43.112 31.537Z" fill="#222222"/>
</svg>
