<svg width="64" height="64" viewBox="0 0 64 64" fill="none" xmlns="http://www.w3.org/2000/svg">
<path fill-rule="evenodd" clip-rule="evenodd" d="M12.427 8.73897C9.53699 9.09997 7.13999 11.14 6.27599 13.973L6.03099 14.773L5.99699 30.187C5.96199 45.901 6.01399 48.813 6.35399 50.08C6.97099 52.384 8.99699 54.391 11.307 54.987C11.688 55.086 12.72 55.208 13.6 55.26C15.685 55.381 48.315 55.381 50.4 55.26C52.229 55.153 53.095 54.961 54.08 54.445C55.3772 53.7706 56.4352 52.713 57.11 51.416C57.651 50.383 57.806 49.647 57.93 47.505C58.086 44.814 57.992 20.881 57.822 20.012C57.357 17.641 56.024 15.862 53.912 14.796C52.446 14.055 51.267 13.981 40.799 13.977L32.797 13.973L31.305 12.472C29.512 10.668 28.498 9.82797 27.592 9.39497C26.181 8.72197 26.164 8.72097 19.307 8.68897C15.875 8.67197 12.779 8.69497 12.427 8.73897ZM25.76 12.948C26.053 13.086 26.485 13.372 26.72 13.582L27.147 13.964L18.955 13.969C10.079 13.974 10.537 14.007 11.253 13.416C11.5783 13.1353 11.9574 12.9237 12.367 12.794C12.517 12.749 15.472 12.708 18.933 12.704L25.227 12.695L25.76 12.948ZM52.069 18.309C52.703 18.602 53.398 19.297 53.691 19.931L53.92 20.427V48.907L53.691 49.403C53.398 50.036 52.703 50.731 52.069 51.024L51.573 51.253H12.427L11.931 51.024C11.297 50.731 10.602 50.036 10.309 49.403L10.08 48.907L10.051 33.465L10.022 18.024L30.798 18.052L51.573 18.08L52.069 18.309ZM31.506 24.739C31.036 24.855 30.564 25.216 30.274 25.682C30.031 26.072 30.026 26.143 29.993 29.353L29.96 32.626L26.678 32.66L23.397 32.693L22.965 32.979C22.325 33.403 22.044 33.923 22.044 34.685C22.044 35.208 22.097 35.388 22.356 35.754C22.96 36.61 23.083 36.635 26.74 36.674L29.96 36.707L29.993 39.98C30.026 43.19 30.031 43.261 30.274 43.651C31.226 45.182 33.537 44.831 33.909 43.099C33.979 42.773 34.027 41.357 34.027 39.621V36.693H36.955C38.69 36.693 40.107 36.645 40.433 36.575C42.165 36.204 42.516 33.893 40.985 32.941C40.594 32.698 40.523 32.693 37.314 32.66L34.041 32.626L34.007 29.406C33.975 26.384 33.96 26.16 33.751 25.76C33.342 24.978 32.357 24.53 31.506 24.739Z" fill="#222222"/>
</svg>
