<svg width="64" height="64" viewBox="0 0 64 64" fill="none" xmlns="http://www.w3.org/2000/svg">
<path fill-rule="evenodd" clip-rule="evenodd" d="M12.4271 8.73897C9.53711 9.09997 7.14011 11.14 6.27611 13.973L6.03111 14.773L5.99711 30.187C5.96211 45.901 6.01411 48.813 6.35411 50.08C6.97111 52.384 8.99711 54.391 11.3071 54.987C11.6881 55.086 12.7201 55.208 13.6001 55.26C15.6851 55.381 48.3151 55.381 50.4001 55.26C52.2291 55.153 53.0951 54.961 54.0801 54.445C55.3773 53.7706 56.4353 52.713 57.1101 51.416C57.6511 50.383 57.8061 49.647 57.9301 47.505C58.0861 44.814 57.9921 20.881 57.8221 20.012C57.3571 17.641 56.0241 15.862 53.9121 14.796C52.4461 14.055 51.2671 13.981 40.7991 13.977L32.7971 13.973L31.3051 12.472C29.5121 10.668 28.4981 9.82797 27.5921 9.39497C26.1811 8.72197 26.1641 8.72097 19.3071 8.68897C15.8751 8.67197 12.7791 8.69497 12.4271 8.73897ZM25.7601 12.948C26.0531 13.086 26.4851 13.372 26.7201 13.582L27.1471 13.964L18.9551 13.969C10.0791 13.974 10.5371 14.007 11.2531 13.416C11.5785 13.1353 11.9575 12.9237 12.3671 12.794C12.5171 12.749 15.4721 12.708 18.9331 12.704L25.2271 12.695L25.7601 12.948ZM52.0691 18.309C52.7031 18.602 53.3981 19.297 53.6911 19.931L53.9201 20.427V48.907L53.6911 49.403C53.3981 50.036 52.7031 50.731 52.0691 51.024L51.5731 51.253H12.4271L11.9311 51.024C11.2971 50.731 10.6021 50.036 10.3091 49.403L10.0801 48.907L10.0511 33.465L10.0221 18.024L30.7981 18.052L51.5731 18.08L52.0691 18.309ZM31.5061 24.739C31.0361 24.855 30.5641 25.216 30.2741 25.682L30.0271 26.08L29.9961 32.505L29.9651 38.93L27.5961 37.349C26.2931 36.48 25.1081 35.705 24.9631 35.627C24.1521 35.196 23.2401 35.32 22.6131 35.947C21.9381 36.622 21.8411 37.666 22.3761 38.484C22.6231 38.861 31.0221 44.438 31.5611 44.583C31.8821 44.67 32.1181 44.67 32.4391 44.583C32.9871 44.436 41.3791 38.858 41.6301 38.474C41.7291 38.323 41.8561 37.993 41.9131 37.74C42.2831 36.094 40.5511 34.821 39.0371 35.627C38.8921 35.705 37.7071 36.48 36.4041 37.349L34.0351 38.93L34.0041 32.559C33.9741 26.334 33.9681 26.177 33.7511 25.76C33.3421 24.978 32.3571 24.53 31.5061 24.739Z" fill="#222222"/>
</svg>
