<svg width="64" height="64" viewBox="0 0 64 64" fill="none" xmlns="http://www.w3.org/2000/svg">
<path fill-rule="evenodd" clip-rule="evenodd" d="M12.427 8.73897C9.53703 9.09997 7.14003 11.14 6.27603 13.973L6.03103 14.773L5.99703 30.187C5.95603 48.723 5.98303 49.46 6.75903 51.2C6.90303 51.523 7.10203 52.016 7.20003 52.296C7.60903 53.457 8.63103 54.502 9.77603 54.93C10.185 55.083 10.839 55.198 11.68 55.265C12.45 55.326 21.285 55.354 33.867 55.336C53.838 55.307 54.8 55.297 55.36 55.109C56.785 54.632 57.811 53.637 58.337 52.22C58.709 51.216 62.161 39.047 62.3 38.244C62.501 37.092 62.389 36.181 61.932 35.257C61.292 33.961 60.16 33.103 58.747 32.842L58.052 32.715L57.997 26.731C57.962 22.922 57.897 20.497 57.819 20.06C57.393 17.686 56.048 15.874 53.912 14.796C52.446 14.055 51.267 13.981 40.799 13.977L32.797 13.973L31.305 12.472C29.512 10.668 28.498 9.82797 27.592 9.39497C26.181 8.72197 26.164 8.72097 19.307 8.68897C15.875 8.67197 12.779 8.69497 12.427 8.73897ZM25.76 12.948C26.053 13.086 26.485 13.372 26.72 13.582L27.147 13.964L18.955 13.969C10.079 13.974 10.537 14.007 11.253 13.416C11.5784 13.1353 11.9574 12.9237 12.367 12.794C12.517 12.749 15.472 12.708 18.933 12.704L25.227 12.695L25.76 12.948ZM52.069 18.309C52.703 18.602 53.398 19.297 53.691 19.931C53.916 20.417 53.921 20.544 53.952 26.532L53.983 32.637L33.365 32.665L12.747 32.693L12.349 32.941C12.1151 33.0899 11.9073 33.2764 11.734 33.493C11.615 33.66 11.185 34.94 10.779 36.338L10.04 38.88L10.033 28.452L10.027 18.024L30.8 18.052L51.573 18.08L52.069 18.309ZM53.952 42.8C53.921 48.789 53.916 48.916 53.691 49.403C53.398 50.036 52.703 50.731 52.069 51.024L51.573 51.253H32.16C21.483 51.253 12.574 51.216 12.362 51.171C11.894 51.072 10.987 50.489 10.987 50.287C10.987 50.169 13.838 40.073 14.623 37.413L14.836 36.693H53.983L53.952 42.8ZM58.272 37.997L58.05 38.88L58.038 37.763L58.027 36.646L58.261 36.88L58.495 37.115L58.272 37.997Z" fill="#222222"/>
</svg>
