<svg width="64" height="64" viewBox="0 0 64 64" fill="none" xmlns="http://www.w3.org/2000/svg">
<path fill-rule="evenodd" clip-rule="evenodd" d="M12.4271 8.73897C9.53711 9.09997 7.14011 11.14 6.27611 13.973L6.03111 14.773L5.99711 30.187C5.96211 45.901 6.01411 48.813 6.35411 50.08C6.97111 52.384 8.99711 54.391 11.3071 54.987C11.6881 55.086 12.7201 55.208 13.6001 55.26C15.6851 55.381 48.3151 55.381 50.4001 55.26C52.2291 55.153 53.0951 54.961 54.0801 54.445C55.3773 53.7706 56.4353 52.713 57.1101 51.416C57.6511 50.383 57.8061 49.647 57.9301 47.505C58.0861 44.814 57.9921 20.881 57.8221 20.012C57.3571 17.641 56.0241 15.862 53.9121 14.796C52.4461 14.055 51.2671 13.981 40.7991 13.977L32.7971 13.973L31.3051 12.472C29.5121 10.668 28.4981 9.82797 27.5921 9.39497C26.1811 8.72197 26.1641 8.72097 19.3071 8.68897C15.8751 8.67197 12.7791 8.69497 12.4271 8.73897ZM25.7601 12.948C26.0531 13.086 26.4851 13.372 26.7201 13.582L27.1471 13.964L18.9551 13.969C10.0791 13.974 10.5371 14.007 11.2531 13.416C11.5785 13.1353 11.9575 12.9237 12.3671 12.794C12.5171 12.749 15.4721 12.708 18.9331 12.704L25.2271 12.695L25.7601 12.948ZM52.0691 18.309C52.7031 18.602 53.3981 19.297 53.6911 19.931L53.9201 20.427V48.907L53.6911 49.403C53.3981 50.036 52.7031 50.731 52.0691 51.024L51.5731 51.253H12.4271L11.9311 51.024C11.2971 50.731 10.6021 50.036 10.3091 49.403L10.0801 48.907L10.0511 33.465L10.0221 18.024L30.7981 18.052L51.5731 18.08L52.0691 18.309ZM26.1721 27.406C25.7051 27.521 25.2311 27.882 24.9501 28.337C24.6741 28.782 24.6221 29.748 24.8491 30.187C24.9251 30.334 25.9271 31.401 27.0761 32.56L29.1661 34.667L27.0761 36.773C25.9271 37.932 24.9251 39 24.8491 39.146C24.7731 39.293 24.7111 39.682 24.7111 40.012C24.7111 41.33 25.8201 42.179 27.1701 41.895C27.6431 41.795 27.8381 41.63 29.8401 39.646L32.0001 37.505L34.1601 39.646C36.1561 41.625 36.3581 41.795 36.8271 41.894C38.3711 42.219 39.5531 41.037 39.2271 39.493C39.1291 39.025 38.9581 38.823 36.9791 36.827L34.8381 34.667L36.9791 32.507C38.9641 30.505 39.1281 30.309 39.2281 29.836C39.5131 28.487 38.6631 27.378 37.3451 27.378C37.0151 27.378 36.6261 27.44 36.4801 27.516C36.3331 27.591 35.2651 28.594 34.1071 29.743L32.0001 31.833L29.8931 29.743C28.7351 28.594 27.6911 27.605 27.5731 27.546C27.2521 27.384 26.5491 27.314 26.1721 27.406Z" fill="#222222"/>
</svg>
