<svg width="64" height="64" viewBox="0 0 64 64" fill="none" xmlns="http://www.w3.org/2000/svg">
<path fill-rule="evenodd" clip-rule="evenodd" d="M12.4271 8.73897C9.53711 9.09997 7.14011 11.14 6.27611 13.973L6.03111 14.773L5.99711 30.187C5.96211 45.901 6.01411 48.813 6.35411 50.08C6.97111 52.384 8.99711 54.391 11.3071 54.987C11.6881 55.086 12.7201 55.208 13.6001 55.26C15.6851 55.381 48.3151 55.381 50.4001 55.26C52.2291 55.153 53.0951 54.961 54.0801 54.445C55.3773 53.7706 56.4353 52.713 57.1101 51.416C57.6511 50.383 57.8061 49.647 57.9301 47.505C58.0861 44.814 57.9921 20.881 57.8221 20.012C57.3571 17.641 56.0241 15.862 53.9121 14.796C52.4461 14.055 51.2671 13.981 40.7991 13.977L32.7971 13.973L31.3051 12.472C29.5121 10.668 28.4981 9.82797 27.5921 9.39497C26.1811 8.72197 26.1641 8.72097 19.3071 8.68897C15.8751 8.67197 12.7791 8.69497 12.4271 8.73897ZM25.7601 12.948C26.0531 13.086 26.4851 13.372 26.7201 13.582L27.1471 13.964L18.9551 13.969C10.0791 13.974 10.5371 14.007 11.2531 13.416C11.5785 13.1353 11.9575 12.9237 12.3671 12.794C12.5171 12.749 15.4721 12.708 18.9331 12.704L25.2271 12.695L25.7601 12.948ZM52.0691 18.309C52.7031 18.602 53.3981 19.297 53.6911 19.931L53.9201 20.427V48.907L53.6911 49.403C53.3981 50.036 52.7031 50.731 52.0691 51.024L51.5731 51.253H12.4271L11.9311 51.024C11.2971 50.731 10.6021 50.036 10.3091 49.403L10.0801 48.907L10.0511 33.465L10.0221 18.024L30.7981 18.052L51.5731 18.08L52.0691 18.309ZM26.4001 27.357C26.3411 27.378 26.1491 27.427 25.9731 27.466C25.7431 27.517 24.8401 28.346 22.7401 30.435C21.1381 32.029 19.7261 33.496 19.6031 33.695C19.2931 34.193 19.2931 35.141 19.6031 35.639C19.7261 35.837 21.1381 37.303 22.7401 38.894C25.4761 41.613 25.6841 41.795 26.1601 41.895C27.7051 42.218 28.8861 41.037 28.5611 39.493C28.4621 39.025 28.2921 38.823 26.3131 36.827L24.1711 34.667L26.3131 32.507C28.2971 30.505 28.4621 30.309 28.5611 29.836C28.7531 28.928 28.4221 28.081 27.7051 27.645C27.3731 27.444 26.6221 27.278 26.4001 27.357ZM36.8391 27.406C36.3721 27.521 35.8971 27.882 35.6161 28.337C35.3411 28.782 35.2881 29.748 35.5161 30.187C35.5911 30.334 36.5941 31.401 37.7431 32.56L39.8331 34.667L37.7431 36.773C36.5941 37.932 35.5911 39 35.5161 39.146C35.4401 39.293 35.3781 39.69 35.3781 40.03C35.3781 40.54 35.4321 40.723 35.6891 41.087C35.8601 41.329 36.1821 41.621 36.4041 41.736C36.9001 41.993 37.7031 42.008 38.2051 41.769C38.4081 41.673 39.8981 40.264 41.5151 38.637C44.2791 35.858 44.4621 35.65 44.5621 35.173C44.6321 34.8389 44.6321 34.494 44.5621 34.16C44.4621 33.684 44.2791 33.476 41.5611 30.74C39.9691 29.138 38.5231 27.739 38.3471 27.632C37.9591 27.394 37.2921 27.295 36.8391 27.406Z" fill="#222222"/>
</svg>
