<svg width="64" height="64" viewBox="0 0 64 64" fill="none" xmlns="http://www.w3.org/2000/svg">
<path fill-rule="evenodd" clip-rule="evenodd" d="M10.2931 8.743C9.36109 8.832 8.84108 9.003 8.16008 9.442C7.23408 10.041 6.58508 10.882 6.22408 11.957C6.04108 12.502 6.02909 13.425 5.99709 29.067C5.96209 45.913 6.01109 48.8 6.35409 50.08C6.97109 52.384 8.99709 54.391 11.3071 54.987C12.5681 55.313 17.9491 55.489 19.0991 55.242C20.8311 54.871 21.1821 52.559 19.6511 51.608C19.2621 51.366 19.1771 51.359 15.8401 51.304C12.6521 51.252 12.3941 51.233 11.9311 51.022C11.2981 50.733 10.6031 50.038 10.3091 49.403L10.0801 48.907L10.0511 33.465L10.0221 18.024L30.7981 18.052L51.5731 18.08L52.0691 18.309C52.7071 18.604 53.4011 19.301 53.6841 19.931C53.8811 20.368 53.9151 20.709 53.9721 22.827C54.0421 25.383 54.0831 25.59 54.6311 26.102C54.9581 26.407 55.5881 26.667 56.0001 26.667C56.6801 26.667 57.4411 26.192 57.7971 25.547C58.0611 25.067 58.0091 21.108 57.7191 19.689C57.2941 17.607 55.9941 15.892 54.0831 14.89C52.4741 14.046 51.5311 13.982 40.8071 13.977L32.8141 13.973L30.5671 11.751C28.0131 9.225 27.5391 8.905 26.1131 8.74C25.2041 8.634 11.3971 8.637 10.2931 8.743ZM26.5071 13.333L27.1401 13.973H10.0271V13.528C10.0271 13.264 10.0981 13.004 10.2031 12.888C10.3711 12.703 10.7571 12.693 18.1271 12.693H25.8731L26.5071 13.333ZM48.8781 27.411C48.6861 27.457 48.3501 27.619 48.1311 27.771C47.5011 28.21 27.7781 48.012 27.5581 48.427C27.3761 48.771 27.3601 49.108 27.3601 52.711V56.622L27.6801 57.075C27.8561 57.324 28.1921 57.628 28.4271 57.751C28.8361 57.964 29.0061 57.973 32.6931 57.973C36.2231 57.973 36.5631 57.957 36.9071 57.776C37.4061 57.512 57.5281 37.382 57.7651 36.909C58.0041 36.432 58.0031 35.567 57.7641 35.091C57.5331 34.633 50.7361 27.817 50.2931 27.599C49.8601 27.386 49.2991 27.312 48.8781 27.411ZM50.8801 38.239L48.6401 40.479L46.7471 38.587L44.8551 36.694L47.0931 34.454L49.3311 32.213L51.2261 34.106L53.1211 35.999L50.8801 38.239ZM43.9471 41.44L45.8121 43.307L40.4801 48.64L35.1471 53.973H31.3601V50.187L36.6661 44.88C39.5851 41.962 41.9971 39.573 42.0271 39.573C42.0581 39.573 42.9211 40.414 43.9471 41.44Z" fill="#222222"/>
</svg>
