<svg width="64" height="64" viewBox="0 0 64 64" fill="none" xmlns="http://www.w3.org/2000/svg">
<path fill-rule="evenodd" clip-rule="evenodd" d="M20.759 14.102C19.802 14.362 20.145 13.625 12.962 30.886C9.32496 39.624 6.26196 47.033 6.15496 47.35C5.98696 47.846 5.97696 47.999 6.08696 48.457C6.44496 49.946 8.30696 50.479 9.36996 49.396C9.67796 49.083 10.11 48.138 11.742 44.213L13.738 39.413H28.929L30.925 44.213C33.126 49.509 33.215 49.664 34.17 49.905C35.653 50.278 36.994 48.907 36.554 47.467C36.264 46.516 23.117 15.086 22.874 14.762C22.435 14.176 21.527 13.892 20.759 14.102ZM24.272 28.227C25.853 32.019 27.163 35.163 27.182 35.214C27.202 35.266 24.628 35.307 21.333 35.307C18.039 35.307 15.465 35.266 15.484 35.214C15.93 34.051 21.289 21.333 21.333 21.333C21.368 21.333 22.691 24.436 24.272 28.227ZM47.307 30.044C43.772 30.36 40.872 32.228 39.252 35.231C38.401 36.808 38.055 38.186 38.055 40C38.055 41.817 38.401 43.192 39.257 44.779C40.446 46.984 42.347 48.591 44.759 49.432C46.723 50.117 49.208 50.132 51.147 49.469C51.894 49.214 53.004 48.67 53.572 48.281L53.971 48.008L54.031 48.297C54.204 49.132 54.765 49.727 55.545 49.902C56.64 50.148 57.679 49.502 57.909 48.433C58.073 47.667 58.073 32.333 57.909 31.567C57.61 30.174 55.933 29.562 54.794 30.43C54.434 30.705 54.134 31.204 54.031 31.703L53.971 31.992L53.572 31.719C52.573 31.035 51.012 30.397 49.867 30.204C49.062 30.069 47.864 29.994 47.307 30.044ZM49.542 34.19C50.529 34.447 51.398 34.964 52.217 35.783C53.443 37.01 53.973 38.282 53.973 40C53.973 41.718 53.443 42.99 52.217 44.217C50.99 45.443 49.718 45.973 48 45.973C46.282 45.973 45.01 45.443 43.783 44.217C42.557 42.99 42.027 41.718 42.027 40C42.027 38.282 42.557 37.01 43.783 35.783C44.585 34.982 45.466 34.45 46.412 34.195C47.179 33.989 48.761 33.986 49.542 34.19Z" fill="#222222"/>
</svg>
