<svg width="64" height="64" viewBox="0 0 64 64" fill="none" xmlns="http://www.w3.org/2000/svg">
<path fill-rule="evenodd" clip-rule="evenodd" d="M7.50604 16.742C7.03804 16.853 6.56504 17.214 6.27404 17.682L6.02704 18.08L5.99404 31.627C5.96904 41.562 5.99304 45.325 6.08304 45.743C6.32804 46.875 7.45704 47.554 8.53304 47.216C8.79704 47.134 13.717 44.449 19.467 41.251L29.92 35.436L29.973 40.625C30.023 45.437 30.041 45.843 30.228 46.219C30.622 47.013 31.607 47.474 32.431 47.252C33.082 47.077 57.059 33.731 57.445 33.329C58.145 32.6 58.15 31.405 57.455 30.682C57.062 30.273 33.1 16.928 32.439 16.75C31.63 16.532 30.755 16.909 30.274 17.682L30.027 18.08L29.973 23.322L29.92 28.564L19.467 22.749C13.717 19.551 8.80204 16.868 8.54304 16.787C8.02904 16.626 7.99504 16.625 7.50604 16.742Z" fill="#222222"/>
</svg>
