<svg width="64" height="64" viewBox="0 0 64 64" fill="none" xmlns="http://www.w3.org/2000/svg">
<path fill-rule="evenodd" clip-rule="evenodd" d="M24.3729 6.08099C21.3519 6.40099 18.7899 8.25899 17.4459 11.103C16.9459 12.159 16.7299 13.236 16.7299 14.667C16.7299 16.161 16.9509 17.191 17.5229 18.359L17.9729 19.277L15.3599 19.347C11.7099 19.444 10.7729 19.629 9.39289 20.522C7.66189 21.643 6.57989 23.267 6.17989 25.345C6.00889 26.231 5.91489 44.84 6.06789 47.476C6.18789 49.54 6.34489 50.354 6.79589 51.248C7.86089 53.356 9.62889 54.682 12.0119 55.158C12.4729 55.25 17.3879 55.295 30.4529 55.328C48.6349 55.374 51.4389 55.33 52.7469 54.979C54.5479 54.497 56.2049 53.144 57.1099 51.416C57.6529 50.38 57.8059 49.648 57.9319 47.476C58.0849 44.84 57.9909 26.231 57.8199 25.345C57.2769 22.527 55.3129 20.359 52.6859 19.678C51.9269 19.481 49.5499 19.316 47.4099 19.31L46.0199 19.307L46.4729 18.373C46.7229 17.86 47.0039 17.08 47.0979 16.64C47.3189 15.61 47.3209 13.73 47.1019 12.713C46.4379 9.63599 43.6969 6.89499 40.6199 6.23199C39.6109 6.01399 37.7229 6.01399 36.7129 6.23199C35.2639 6.54399 33.8749 7.31099 32.6669 8.46399L31.9999 9.09999L31.3329 8.46399C30.4979 7.66699 29.8539 7.22599 28.8489 6.76099C27.6039 6.18599 25.8709 5.92299 24.3729 6.08099ZM27.3269 10.48C28.3142 10.9687 29.1076 11.7763 29.5789 12.772L29.9199 13.493L29.9529 16.406L29.9859 19.319L27.0669 19.286L24.1479 19.253L23.3459 18.857C22.3554 18.3687 21.5595 17.5594 21.0879 16.561C20.7679 15.886 20.7469 15.766 20.7469 14.667C20.7469 13.569 20.7689 13.447 21.0859 12.776C21.6619 11.56 22.6499 10.675 23.9449 10.213C24.3509 10.068 24.7269 10.029 25.5049 10.054C26.4389 10.083 26.6019 10.122 27.3269 10.48ZM40.6599 10.48C41.6474 10.9684 42.4409 11.7761 42.9119 12.772C43.2319 13.448 43.2529 13.568 43.2529 14.667C43.2529 15.766 43.2319 15.886 42.9119 16.561C42.4402 17.5594 41.6443 18.3687 40.6539 18.857L39.8519 19.253L36.9329 19.286L34.0139 19.319L34.0469 16.406L34.0799 13.493L34.4199 12.776C34.9959 11.56 35.9829 10.675 37.2789 10.213C37.6849 10.068 38.0599 10.029 38.8389 10.054C39.7719 10.083 39.9349 10.122 40.6599 10.48ZM29.9729 29.333V35.307H10.0149L10.0469 30.533C10.0789 25.91 10.0869 25.744 10.3089 25.264C10.7259 24.363 11.5999 23.652 12.5149 23.471C12.7599 23.423 16.7879 23.378 21.4669 23.372L29.9729 23.36V29.333ZM52.0689 23.643C52.7029 23.936 53.3979 24.63 53.6909 25.264C53.9129 25.744 53.9209 25.91 53.9529 30.533L53.9849 35.307H34.0269V23.353L42.7999 23.383C51.5199 23.413 51.5759 23.415 52.0689 23.643ZM29.9729 45.337V51.314L21.1999 51.284C12.4799 51.254 12.4239 51.252 11.9309 51.024C11.2969 50.731 10.6019 50.036 10.3089 49.403C10.0869 48.922 10.0789 48.756 10.0469 44.133L10.0149 39.36H29.9729V45.337ZM53.9529 44.133C53.9209 48.756 53.9129 48.922 53.6909 49.403C53.3979 50.036 52.7029 50.731 52.0689 51.024C51.5759 51.252 51.5199 51.254 42.7999 51.284L34.0269 51.314V39.36H53.9849L53.9529 44.133Z" fill="#222222"/>
</svg>
