<svg width="64" height="64" viewBox="0 0 64 64" fill="none" xmlns="http://www.w3.org/2000/svg">
<path fill-rule="evenodd" clip-rule="evenodd" d="M30.24 6.08195C18.892 6.79095 9.16904 15.104 6.66404 26.24C5.83204 29.938 5.83204 34.0619 6.66404 37.7599C8.84604 47.4599 16.54 55.1539 26.24 57.3359C29.955 58.1719 34.054 58.1689 37.803 57.327C46.572 55.3579 53.762 48.826 56.651 40.2029C58.12 35.819 58.366 30.816 57.336 26.24C55.154 16.54 47.46 8.84595 37.76 6.66395C35.44 6.14195 32.688 5.92895 30.24 6.08195ZM33.352 10.356C36.998 12.096 40.008 19.8009 40.587 28.8799L40.657 29.9729H23.343L23.414 28.8799C23.919 21.0669 26.179 14.25 29.21 11.39C30.671 10.012 31.958 9.68995 33.352 10.356ZM24 11.5719C24 11.5999 23.848 11.871 23.662 12.173C22.866 13.467 21.612 16.65 20.977 18.9909C20.199 21.8589 19.639 25.423 19.457 28.667L19.383 29.9729H10.102L10.166 29.298C10.512 25.588 12.473 21.0529 15.062 17.9729C17.19 15.443 19.429 13.684 22.345 12.252C23.778 11.549 24 11.458 24 11.5719ZM41.655 12.249C44.516 13.649 46.931 15.5609 49.085 18.1329C51.503 21.021 53.5 25.716 53.834 29.298L53.898 29.9729H44.617L44.543 28.667C44.202 22.5979 42.679 16.464 40.551 12.587C39.945 11.483 39.962 11.52 40.072 11.52C40.122 11.52 40.834 11.8479 41.655 12.249ZM19.457 35.333C19.639 38.577 20.199 42.1409 20.977 45.0089C21.614 47.3579 22.866 50.533 23.668 51.837C23.857 52.145 23.987 52.422 23.956 52.452C23.845 52.563 20.829 51.005 19.787 50.298C18.001 49.088 16.341 47.573 14.882 45.823C12.47 42.932 10.5 38.2859 10.166 34.702L10.102 34.027H19.383L19.457 35.333ZM40.587 35.1199C40.091 42.8919 37.816 49.755 34.789 52.611C32.859 54.431 31.141 54.431 29.211 52.611C26.179 49.75 23.92 42.9349 23.414 35.1199L23.343 34.027H40.657L40.587 35.1199ZM53.834 34.702C53.562 37.6199 52.094 41.5589 50.28 44.2389C48.6665 46.6187 46.615 48.6698 44.235 50.283C43.213 50.974 40.155 52.5639 40.05 52.459C40.021 52.43 40.212 52.027 40.474 51.563C42.613 47.785 44.199 41.4599 44.543 35.333L44.617 34.027H53.898L53.834 34.702Z" fill="#222222"/>
</svg>
