<svg width="64" height="64" viewBox="0 0 64 64" fill="none" xmlns="http://www.w3.org/2000/svg">
<path fill-rule="evenodd" clip-rule="evenodd" d="M18.0465 32.0002C18.0465 30.4412 18.3122 28.9472 18.7832 27.5452L10.5188 21.3682C8.85562 24.6757 7.99372 28.3138 8.00003 32.0002C8.00003 35.8222 8.90639 39.4262 10.5147 42.6252L18.7761 36.4352C18.294 35.0041 18.0477 33.507 18.0465 32.0002Z" fill="#FBBC05"/>
<path fill-rule="evenodd" clip-rule="evenodd" d="M32.5572 17.8181C36.0181 17.8181 39.1438 19.0181 41.6002 20.9821L48.7427 14.0001C44.3898 10.2901 38.8076 8.00012 32.5572 8.00012C27.973 7.98581 23.4768 9.23118 19.5803 11.5945C15.6838 13.9578 12.5434 17.3442 10.5166 21.3681L18.781 27.5451C19.7366 24.7099 21.5833 22.2427 24.0571 20.4959C26.5309 18.749 29.5065 17.8118 32.5572 17.8181Z" fill="#EB4335"/>
<path fill-rule="evenodd" clip-rule="evenodd" d="M32.5572 46.1821C29.5067 46.1882 26.5323 45.2509 24.0587 43.504C21.5851 41.7572 19.7387 39.2901 18.7831 36.4551L10.5166 42.6311C12.5433 46.6555 15.6837 50.0422 19.5804 52.4057C23.4772 54.7692 27.9737 56.0146 32.5582 56.0001C38.5481 56.0001 44.2682 53.9181 48.5598 50.0181L40.7143 44.0831C38.5011 45.4471 35.7125 46.1821 32.5572 46.1821Z" fill="#34A853"/>
<path fill-rule="evenodd" clip-rule="evenodd" d="M56 31.9997C56 30.5817 55.7762 29.0547 55.4421 27.6367H32.5575V36.9097H45.7297C45.0717 40.0697 43.2784 42.5017 40.7126 44.0827L48.5581 50.0187C53.0674 45.9237 56 39.8227 56 31.9997Z" fill="#4285F4"/>
</svg>
