<svg width="64" height="64" viewBox="0 0 64 64" fill="none" xmlns="http://www.w3.org/2000/svg">
<path fill-rule="evenodd" clip-rule="evenodd" d="M12.839 16.7409C11.548 17.0519 10.928 18.6769 11.689 19.7539C11.86 19.9959 12.192 20.2949 12.427 20.4169L12.853 20.6399L31.68 20.6679C45.119 20.6889 50.67 20.6629 51.076 20.5789C52.828 20.2159 53.194 17.8999 51.651 16.9409L51.253 16.6929L32.213 16.6769C21.741 16.6679 13.023 16.6969 12.839 16.7409ZM12.839 30.0749C11.549 30.3829 10.928 32.0099 11.689 33.0869C11.86 33.3289 12.192 33.6279 12.427 33.7509L12.853 33.9729L31.68 34.0019C45.119 34.0219 50.67 33.9959 51.076 33.9119C53.073 33.4989 53.144 30.5939 51.17 30.0969C50.609 29.9559 13.428 29.9339 12.839 30.0749ZM12.839 43.4079C11.548 43.7179 10.928 45.3439 11.689 46.4209C11.86 46.6629 12.192 46.9609 12.427 47.0839L12.853 47.3069L31.68 47.3349C45.119 47.3549 50.67 47.3299 51.076 47.2459C52.828 46.8829 53.194 44.5669 51.651 43.6079L51.253 43.3599L32.213 43.3439C21.741 43.3339 13.023 43.3629 12.839 43.4079Z" fill="#222222"/>
</svg>
