<svg width="64" height="64" viewBox="0 0 64 64" fill="none" xmlns="http://www.w3.org/2000/svg">
<path fill-rule="evenodd" clip-rule="evenodd" d="M7.50599 16.7409C6.21499 17.0509 5.59499 18.6769 6.35599 19.7539C6.52699 19.9959 6.85899 20.2949 7.09299 20.4169L7.51999 20.6399L31.68 20.6679C48.994 20.6879 56.001 20.6629 56.41 20.5789C58.162 20.2159 58.528 17.8999 56.985 16.9409L56.587 16.6929L32.213 16.6769C18.808 16.6679 7.68999 16.6969 7.50599 16.7409ZM7.50599 30.0749C6.21599 30.3829 5.59499 32.0099 6.35599 33.0869C6.52699 33.3289 6.85899 33.6279 7.09299 33.7509L7.51999 33.9729L31.68 34.0019C48.994 34.0219 56.001 33.9959 56.41 33.9119C58.407 33.4989 58.478 30.5939 56.503 30.0969C55.942 29.9559 8.09599 29.9339 7.50599 30.0749ZM7.50599 43.4079C6.21499 43.7179 5.59499 45.3439 6.35599 46.4209C6.52699 46.6629 6.85899 46.9609 7.09299 47.0839L7.51999 47.3069L31.68 47.3349C48.994 47.3549 56.001 47.3299 56.41 47.2449C58.162 46.8829 58.528 44.5669 56.985 43.6079L56.587 43.3599L32.213 43.3439C18.808 43.3349 7.68999 43.3639 7.50599 43.4079Z" fill="#222222"/>
</svg>
