<svg width="64" height="64" viewBox="0 0 64 64" fill="none" xmlns="http://www.w3.org/2000/svg">
<path fill-rule="evenodd" clip-rule="evenodd" d="M30.879 8.74602C25.461 9.22102 20.851 13.229 19.683 18.476L19.505 19.279L18.952 19.345C18.5457 19.3876 18.1375 19.41 17.729 19.412C16.811 19.414 15.546 19.685 14.755 20.05C12.785 20.96 11.422 22.633 10.83 24.867C10.561 25.884 7.37296 44.825 7.14296 46.773C6.83096 49.414 7.49196 51.557 9.11196 53.164C10.231 54.273 11.516 54.886 13.333 55.178C13.934 55.275 18.574 55.307 32 55.307C45.426 55.307 50.066 55.275 50.667 55.178C52.484 54.886 53.769 54.273 54.888 53.164C56.505 51.561 57.149 49.486 56.856 46.827C56.656 45.004 53.458 25.955 53.17 24.867C52.578 22.633 51.215 20.96 49.245 20.05C48.454 19.685 47.189 19.414 46.271 19.412C45.902 19.412 45.351 19.382 45.048 19.345L44.495 19.279L44.317 18.476C42.968 12.416 37.14 8.19602 30.879 8.74602ZM34.613 13.052C36.023 13.515 36.945 14.096 38.09 15.242C39.169 16.322 39.724 17.168 40.181 18.426C40.316 18.798 40.427 19.149 40.427 19.205C40.427 19.269 37.279 19.307 32 19.307C26.721 19.307 23.573 19.269 23.573 19.205C23.573 18.966 24.097 17.691 24.476 17.007C25.026 16.015 26.674 14.363 27.659 13.817C29.291 12.913 30.261 12.685 32.267 12.735C33.527 12.766 33.893 12.815 34.613 13.052ZM47.606 23.675C48.303 24.031 48.996 24.797 49.208 25.445C49.449 26.182 49.734 27.782 51.314 37.28C52.902 46.829 53.066 48.02 52.902 48.817C52.698 49.81 51.955 50.672 50.962 51.071C50.538 51.241 49.217 51.253 32 51.253C14.783 51.253 13.462 51.241 13.038 51.071C12.4201 50.8296 11.8927 50.4018 11.529 49.847C11.038 49.106 10.957 48.498 11.142 46.933C11.394 44.791 14.488 26.429 14.728 25.653C15.055 24.594 15.952 23.708 16.934 23.475C17.16 23.421 23.809 23.387 32.213 23.396L47.093 23.413L47.606 23.675Z" fill="#222222"/>
</svg>
