<svg width="64" height="64" viewBox="0 0 64 64" fill="none" xmlns="http://www.w3.org/2000/svg">
<path fill-rule="evenodd" clip-rule="evenodd" d="M7.5061 11.405C7.0351 11.522 6.5641 11.883 6.2741 12.349L6.0271 12.747V51.253L6.2741 51.651C7.2261 53.182 9.5371 52.831 9.9091 51.099C9.9891 50.725 10.0271 47.919 10.0271 42.288V34.027H27.3011L27.3301 42.64L27.3601 51.253L27.6081 51.651C28.5591 53.182 30.8711 52.831 31.2421 51.099C31.4091 50.322 31.4091 13.678 31.2421 12.901C30.8681 11.158 28.5651 10.808 27.6081 12.349L27.3601 12.747L27.3301 21.36L27.3011 29.973H10.0271L10.0241 21.68C10.0221 16.368 9.9821 13.215 9.9111 12.909C9.6601 11.818 8.5741 11.14 7.5061 11.405ZM47.3071 22.04C43.7211 22.39 40.8731 24.226 39.2521 27.231C38.3571 28.889 38.0571 30.163 38.0391 32.373C38.0261 34.002 38.0861 34.227 38.6841 34.793C39.0396 35.1296 39.5105 35.3172 40.0001 35.3172C40.4897 35.3172 40.9606 35.1296 41.3161 34.793C41.8721 34.268 41.9491 33.988 42.0301 32.213C42.0901 30.907 42.1551 30.434 42.3371 29.958C43.0331 28.137 44.6471 26.662 46.4581 26.19C47.3011 25.97 49.1691 25.974 49.9271 26.197C50.8455 26.4675 51.6809 26.9652 52.3561 27.644C53.4351 28.723 53.9731 30.012 53.9731 31.517C53.9731 32.513 53.7681 33.405 53.3621 34.179C53.1501 34.582 51.1921 36.614 45.6981 42.133C41.6391 46.211 38.2571 49.666 38.1811 49.813C38.1061 49.959 38.0441 50.357 38.0441 50.696C38.0441 51.206 38.0981 51.39 38.3561 51.754C38.5271 51.996 38.8591 52.295 39.0931 52.417C39.5141 52.637 39.6411 52.64 47.6741 52.67C53.3861 52.691 56.0011 52.664 56.4041 52.58C58.4061 52.165 58.4821 49.262 56.5031 48.764C56.1621 48.678 54.3091 48.64 50.4351 48.64H44.8581L50.3611 43.12C55.6181 37.847 56.3501 37.041 56.9451 35.872C58.2231 33.357 58.2931 30.21 57.1281 27.609C55.9421 24.962 53.2761 22.81 50.4801 22.242C49.6951 22.083 47.9851 21.974 47.3071 22.04Z" fill="#222222"/>
</svg>
