<svg width="64" height="64" viewBox="0 0 64 64" fill="none" xmlns="http://www.w3.org/2000/svg">
<path fill-rule="evenodd" clip-rule="evenodd" d="M30.365 8.75094C27.041 8.99694 23.521 10.2009 20.693 12.0569C19.407 12.9009 18.854 13.3499 17.618 14.5519C13.927 18.1399 11.805 22.6959 11.415 27.8689C11.314 29.1959 11.324 29.5129 11.481 30.0969C11.516 30.2269 11.434 30.2949 11.178 30.3509C10.985 30.3939 10.56 30.5569 10.233 30.7149C8.21097 31.6939 6.81697 33.3859 6.22897 35.5729C6.04597 36.2539 6.02797 36.7599 6.02897 41.3329C6.02997 45.7809 6.05097 46.4249 6.21797 47.0399C6.96397 49.7979 8.90297 51.7349 11.627 52.4409C12.175 52.5839 12.81 52.6209 14.667 52.6209C16.523 52.6209 17.158 52.5839 17.707 52.4409C20.43 51.7349 22.372 49.7949 23.115 47.0399C23.281 46.4259 23.302 45.7759 23.302 41.3329C23.302 36.8899 23.281 36.2409 23.115 35.6269C22.376 32.8849 20.396 30.8999 17.745 30.2429C17.3601 30.1494 16.9668 30.0944 16.571 30.0789C16.2655 30.0766 15.9605 30.0542 15.658 30.0119L15.262 29.9469L15.314 29.0799C15.521 25.6489 16.215 23.2839 17.792 20.6399C19.014 18.5899 21.262 16.3419 23.307 15.1249C26.107 13.4569 28.829 12.6969 32 12.6969C36.595 12.6969 40.691 14.4269 43.904 17.7239C46.945 20.8439 48.435 24.3869 48.68 29.0809L48.725 29.9489L48.336 30.0129C48.0354 30.055 47.7324 30.077 47.429 30.0789C47.144 30.0789 46.616 30.1529 46.255 30.2429C43.624 30.8949 41.616 32.8929 40.896 35.5729C40.713 36.2539 40.695 36.7599 40.696 41.3329C40.697 45.7809 40.718 46.4249 40.884 47.0399C41.625 49.7789 43.575 51.7409 46.24 52.4299C47.292 52.7019 51.34 52.7099 52.373 52.4409C55.097 51.7349 57.036 49.7979 57.782 47.0399C57.949 46.4249 57.97 45.7829 57.97 41.3329C57.97 36.8839 57.949 36.2419 57.782 35.6269C57.174 33.3769 55.803 31.7009 53.767 30.7149C53.44 30.5569 53.017 30.3939 52.827 30.3519C52.439 30.2669 52.448 30.2919 52.584 29.7079C52.725 29.0999 52.528 26.6539 52.218 25.1549C51.59 22.1169 50.275 19.2479 48.339 16.6929C48.072 16.3409 47.371 15.5559 46.78 14.9489C42.469 10.5129 36.579 8.28894 30.365 8.75094ZM17.471 34.3239C18.056 34.6369 18.697 35.2779 19.009 35.8619L19.253 36.3199V46.3469L19.009 46.8039C18.697 47.3889 18.056 48.0299 17.471 48.3419C17.034 48.5759 16.909 48.5869 14.667 48.5869C12.425 48.5869 12.3 48.5759 11.862 48.3419C11.278 48.0299 10.637 47.3889 10.324 46.8039C10.082 46.3499 10.08 46.3159 10.049 41.5729C10.029 38.4659 10.058 36.6549 10.131 36.3829C10.374 35.4779 11.411 34.4079 12.305 34.1389C12.489 34.0839 13.624 34.0479 14.827 34.0589C16.88 34.0789 17.041 34.0949 17.471 34.3239ZM52.138 34.3239C52.722 34.6369 53.363 35.2779 53.676 35.8619L53.92 36.3199V46.3469L53.676 46.8039C53.363 47.3889 52.722 48.0299 52.138 48.3419C51.7 48.5759 51.575 48.5869 49.333 48.5869C47.091 48.5869 46.966 48.5759 46.529 48.3419C46.211 48.158 45.9168 47.9356 45.653 47.6799C45.3979 47.4156 45.1756 47.1215 44.991 46.8039C44.748 46.3499 44.746 46.3159 44.716 41.5729C44.696 38.4659 44.724 36.6549 44.797 36.3829C45.041 35.4779 46.078 34.4079 46.972 34.1389C47.156 34.0839 48.291 34.0479 49.493 34.0589C51.547 34.0789 51.708 34.0949 52.138 34.3239Z" fill="#222222"/>
</svg>
