<svg width="64" height="64" viewBox="0 0 64 64" fill="none" xmlns="http://www.w3.org/2000/svg">
<path fill-rule="evenodd" clip-rule="evenodd" d="M7.5061 11.405C7.0351 11.522 6.5641 11.883 6.2741 12.349L6.0271 12.747V51.253L6.2741 51.651C7.2261 53.182 9.5371 52.831 9.9091 51.099C9.9891 50.725 10.0271 47.919 10.0271 42.288V34.027H27.3011L27.3301 42.64L27.3601 51.253L27.6081 51.651C28.5591 53.182 30.8711 52.831 31.2421 51.099C31.4091 50.322 31.4091 13.678 31.2421 12.901C30.8681 11.158 28.5651 10.808 27.6081 12.349L27.3601 12.747L27.3301 21.36L27.3011 29.973H10.0271L10.0241 21.68C10.0221 16.368 9.9821 13.215 9.9111 12.909C9.6601 11.818 8.5741 11.14 7.5061 11.405ZM44.8281 22.077C44.3581 22.189 43.8031 22.631 43.5961 23.059C43.5011 23.254 42.6431 26.543 41.6891 30.369C40.0091 37.103 39.9581 37.341 40.0851 37.815C40.2591 38.468 40.5861 38.888 41.1211 39.147C42.0351 39.59 42.7441 39.383 43.8611 38.349C45.0731 37.227 46.4271 36.692 48.0491 36.695C49.6851 36.697 51.0241 37.263 52.2131 38.455C54.5821 40.829 54.5871 44.544 52.2241 46.883C51.0321 48.063 49.6801 48.636 48.0851 48.639C46.4021 48.641 45.0481 48.111 43.8501 46.981C43.4491 46.603 42.9491 46.222 42.7381 46.134C40.9811 45.4 39.3261 47.394 40.3331 49.032C40.6291 49.515 41.7431 50.519 42.5901 51.067C43.9451 51.943 45.2231 52.381 47.0521 52.593C49.3481 52.86 51.5971 52.269 53.7071 50.846C57.6201 48.204 59.0851 42.842 57.0691 38.54C55.7951 35.82 53.7771 34.044 50.9241 33.131C49.3301 32.62 47.7321 32.553 45.9311 32.92C45.5261 33.003 45.1811 33.057 45.1651 33.04C45.1481 33.024 45.5271 31.439 46.0061 29.518L46.8771 26.027H51.3801C54.2661 26.027 56.0801 25.984 56.4331 25.909C58.4101 25.485 58.4631 22.59 56.5031 22.097C55.9421 21.956 45.4151 21.938 44.8281 22.077Z" fill="#222222"/>
</svg>
