<svg width="64" height="64" viewBox="0 0 64 64" fill="none" xmlns="http://www.w3.org/2000/svg">
<path fill-rule="evenodd" clip-rule="evenodd" d="M7.5061 11.405C7.0351 11.522 6.5641 11.883 6.2741 12.349L6.0271 12.747V51.253L6.2741 51.651C7.2261 53.182 9.5371 52.831 9.9091 51.099C9.9891 50.725 10.0271 47.919 10.0271 42.288V34.027H27.3011L27.3301 42.64L27.3601 51.253L27.6081 51.651C28.5591 53.182 30.8711 52.831 31.2421 51.099C31.4091 50.322 31.4091 13.678 31.2421 12.901C30.8681 11.158 28.5651 10.808 27.6081 12.349L27.3601 12.747L27.3301 21.36L27.3011 29.973H10.0271L10.0241 21.68C10.0221 16.368 9.9821 13.215 9.9111 12.909C9.6601 11.818 8.5741 11.14 7.5061 11.405ZM39.5061 22.075C38.2161 22.383 37.5951 24.01 38.3561 25.087C38.5271 25.329 38.8591 25.628 39.0931 25.751C39.5091 25.967 39.6761 25.974 45.3271 26.004L51.1341 26.035L47.3931 29.791C45.3351 31.857 43.5901 33.666 43.5151 33.813C43.4391 33.959 43.3781 34.357 43.3781 34.696C43.3781 35.206 43.4321 35.39 43.6891 35.754C44.2521 36.551 44.5321 36.628 47.1471 36.701C49.1601 36.757 49.5131 36.794 50.0421 36.999C51.8751 37.713 53.3391 39.315 53.8101 41.124C53.9001 41.469 53.9731 42.163 53.9731 42.667C53.9731 44.384 53.4431 45.657 52.2171 46.883C50.9901 48.11 49.7151 48.641 48.0041 48.639C46.3131 48.636 44.9951 48.086 43.7741 46.873C43.1731 46.276 42.9221 45.921 42.5651 45.166C42.3171 44.642 42.0101 44.101 41.8841 43.963C41.0281 43.034 39.4121 43.221 38.7651 44.324C38.3581 45.02 38.4261 45.745 39.0151 46.972C39.8491 48.711 40.8641 49.883 42.4451 50.93C44.2541 52.129 45.8141 52.61 47.8931 52.613C49.8111 52.615 51.1611 52.282 52.7791 51.409C54.5401 50.46 55.7951 49.204 56.7481 47.436C57.5991 45.859 57.9451 44.48 57.9451 42.667C57.9451 40.853 57.5991 39.474 56.7481 37.898C55.3641 35.331 53.4721 33.898 50.1411 32.891C50.0451 32.862 51.4381 31.39 53.8891 28.929C57.5961 25.208 57.7961 24.988 57.8961 24.507C58.1291 23.381 57.5381 22.357 56.5031 22.097C55.9451 21.956 40.0881 21.936 39.5061 22.075Z" fill="#222222"/>
</svg>
