<svg width="64" height="64" viewBox="0 0 64 64" fill="none" xmlns="http://www.w3.org/2000/svg">
<path fill-rule="evenodd" clip-rule="evenodd" d="M7.5061 11.405C7.0351 11.522 6.5641 11.883 6.2741 12.349L6.0271 12.747V51.253L6.2741 51.651C7.2261 53.182 9.5371 52.831 9.9091 51.099C9.9891 50.725 10.0271 47.919 10.0271 42.288V34.027H27.3011L27.3301 42.64L27.3601 51.253L27.6081 51.651C28.5591 53.182 30.8711 52.831 31.2421 51.099C31.4091 50.322 31.4091 13.678 31.2421 12.901C30.8681 11.158 28.5651 10.808 27.6081 12.349L27.3601 12.747L27.3301 21.36L27.3011 29.973H10.0271L10.0241 21.68C10.0221 16.368 9.9821 13.215 9.9111 12.909C9.6601 11.818 8.5741 11.14 7.5061 11.405ZM47.4671 22.095C46.9531 22.246 46.4621 22.64 46.2631 23.061C46.1721 23.255 44.5751 28.281 42.7161 34.23C38.9661 46.232 39.1011 45.673 39.7561 46.484C39.9321 46.702 40.2391 46.976 40.4381 47.093C40.7851 47.298 41.0211 47.308 46.0431 47.337L51.2861 47.368L51.3231 49.31C51.3581 51.123 51.3771 51.28 51.6081 51.651C52.5591 53.182 54.8711 52.831 55.2421 51.099C55.3071 50.797 55.3601 49.832 55.3601 48.955V47.36H55.6211C57.2081 47.36 58.1991 46.263 57.8961 44.842C57.7041 43.943 56.7881 43.307 55.6861 43.307H55.3601V40.379C55.3601 36.95 55.2991 36.525 54.7201 35.947C53.7991 35.026 52.3101 35.218 51.6081 36.349C51.3651 36.739 51.3591 36.81 51.3261 40.027L51.2931 43.307H47.6621C44.5301 43.307 44.0391 43.285 44.0901 43.152C44.2091 42.841 49.8961 24.578 49.9631 24.289C50.0551 23.898 49.8561 23.176 49.5431 22.762C49.1061 22.185 48.1781 21.887 47.4671 22.095Z" fill="#222222"/>
</svg>
