<svg width="64" height="64" viewBox="0 0 64 64" fill="none" xmlns="http://www.w3.org/2000/svg">
<path fill-rule="evenodd" clip-rule="evenodd" d="M7.5061 11.405C7.0351 11.522 6.5641 11.883 6.2741 12.349L6.0271 12.747V51.253L6.2741 51.651C7.2261 53.182 9.5371 52.831 9.9091 51.099C9.9891 50.725 10.0271 47.919 10.0271 42.288V34.027H27.3011L27.3301 42.64L27.3601 51.253L27.6081 51.651C28.5591 53.182 30.8711 52.831 31.2421 51.099C31.4091 50.322 31.4091 13.678 31.2421 12.901C30.8681 11.158 28.5651 10.808 27.6081 12.349L27.3601 12.747L27.3301 21.36L27.3011 29.973H10.0271L10.0241 21.68C10.0221 16.368 9.9821 13.215 9.9111 12.909C9.6601 11.818 8.5741 11.14 7.5061 11.405ZM50.2931 22.042C50.1761 22.07 48.1881 22.721 45.8761 23.49C42.0041 24.777 41.6411 24.919 41.2801 25.28C39.8901 26.67 41.2001 29.03 43.1181 28.591C43.3681 28.533 44.7121 28.105 46.1041 27.639L48.6361 26.791L48.6641 39.022L48.6931 51.253L48.9411 51.651C49.8931 53.182 52.2041 52.831 52.5751 51.099C52.7401 50.33 52.7411 24.124 52.5761 23.52C52.3491 22.689 51.7501 22.168 50.8801 22.045C50.6751 22.015 50.4111 22.014 50.2931 22.042Z" fill="#222222"/>
</svg>
