<svg width="64" height="64" viewBox="0 0 64 64" fill="none" xmlns="http://www.w3.org/2000/svg">
<path fill-rule="evenodd" clip-rule="evenodd" d="M18.1721 11.405C17.7021 11.522 17.2301 11.883 16.9411 12.349L16.6931 12.747V51.253L16.9411 51.651C17.8931 53.182 20.2041 52.831 20.5751 51.099C20.6561 50.725 20.6931 47.919 20.6931 42.288V34.027H43.3011L43.3301 42.64L43.3601 51.253L43.6081 51.651C44.5591 53.182 46.8711 52.831 47.2421 51.099C47.4091 50.322 47.4091 13.678 47.2421 12.901C46.8671 11.152 44.5681 10.803 43.6081 12.349L43.3601 12.747L43.3301 21.36L43.3011 29.973H20.6931L20.6911 21.68C20.6891 16.368 20.6491 13.215 20.5781 12.909C20.3271 11.818 19.2411 11.14 18.1721 11.405Z" fill="#222222"/>
</svg>
