<svg width="64" height="64" viewBox="0 0 64 64" fill="none" xmlns="http://www.w3.org/2000/svg">
<path fill-rule="evenodd" clip-rule="evenodd" d="M7.50601 11.405C7.03501 11.522 6.56401 11.883 6.27401 12.349L6.02701 12.747V51.2529L6.27401 51.651C7.22601 53.1819 9.53701 52.8309 9.90901 51.0989C9.98901 50.7249 10.027 47.9189 10.027 42.288V34.027H27.301L27.33 42.64L27.36 51.2529L27.608 51.651C28.559 53.1819 30.871 52.8309 31.242 51.0989C31.409 50.3219 31.409 13.678 31.242 12.901C30.868 11.158 28.565 10.808 27.608 12.349L27.36 12.747L27.33 21.36L27.301 29.973H10.027L10.024 21.68C10.022 16.368 9.98201 13.215 9.91101 12.909C9.66001 11.818 8.57401 11.14 7.50601 11.405ZM50.093 19.435C49.863 19.498 49.513 19.719 49.305 19.934C48.954 20.297 39.657 37.001 38.909 38.612C38.019 40.531 37.796 43.0629 38.334 45.1489C39.374 49.188 42.757 52.1059 46.943 52.577C49.373 52.8499 51.967 52.143 53.98 50.659C55.893 49.249 57.184 47.2459 57.759 44.799C57.999 43.777 58.005 41.741 57.771 40.667C57.116 37.658 54.949 34.937 52.228 33.706C50.734 33.031 48.856 32.677 47.431 32.803L46.596 32.877L46.761 32.557C46.852 32.381 48.174 29.978 49.698 27.215C51.223 24.453 52.522 22 52.586 21.763C52.965 20.355 51.553 19.037 50.093 19.435ZM49.6 36.978C51.434 37.482 52.963 38.884 53.652 40.693C54.017 41.653 54.076 43.357 53.778 44.337C52.986 46.939 50.673 48.646 47.951 48.637C46.871 48.634 46.333 48.511 45.355 48.041C43.838 47.313 42.611 45.827 42.19 44.208C41.976 43.386 41.98 41.903 42.199 41.166C42.756 39.289 44.161 37.766 45.92 37.132C47.152 36.689 48.364 36.638 49.6 36.978Z" fill="#222222"/>
</svg>
