<svg width="64" height="64" viewBox="0 0 64 64" fill="none" xmlns="http://www.w3.org/2000/svg">
<path fill-rule="evenodd" clip-rule="evenodd" d="M19.001 11.528C13.247 12.173 8.598 16.616 7.678 22.347C7.612 22.757 7.561 23.699 7.564 24.439C7.575 27.173 8.301 29.49 9.845 31.722C10.562 32.759 30.568 54.802 31.046 55.082C31.49 55.342 32.355 55.354 32.867 55.108C33.353 54.873 53.286 32.979 54.15 31.729C55.715 29.467 56.431 27.164 56.433 24.383C56.434 23.614 56.364 22.603 56.279 22.133C55.588 18.347 53.36 15.149 50.064 13.215C46.093 10.885 41.086 10.88 37.083 13.202C35.542 14.096 34.318 15.228 32.7 17.253C32.361 17.679 32.045 18.027 32 18.027C31.954 18.027 31.541 17.559 31.083 16.987C29.459 14.961 28.007 13.729 26.157 12.806C24.017 11.738 21.362 11.264 19.001 11.528ZM22.477 15.679C23.9294 16.027 25.2735 16.728 26.39 17.72C26.663 17.961 27.743 19.22 28.789 20.519C29.866 21.855 30.845 22.969 31.046 23.084C31.543 23.371 32.499 23.362 32.975 23.066C33.172 22.943 34.197 21.773 35.253 20.464C37.415 17.786 38.139 17.108 39.611 16.381C41.066 15.662 42.175 15.432 43.893 15.496C45.522 15.556 46.2 15.721 47.52 16.377C49.769 17.495 51.489 19.53 52.162 21.87C52.491 23.011 52.565 24.954 52.325 26.14C52.105 27.228 51.667 28.312 51.098 29.173C50.678 29.81 32.111 50.35 31.99 50.313C31.955 50.302 27.759 45.709 22.666 40.107C17.25 34.149 13.198 29.603 12.905 29.156C11.867 27.575 11.458 26.005 11.55 23.954C11.639 21.976 12.149 20.513 13.271 19.021C14.51 17.373 16.521 16.062 18.462 15.638C19.514 15.408 21.429 15.427 22.477 15.679Z" fill="#222222"/>
</svg>
