<svg width="64" height="64" viewBox="0 0 64 64" fill="none" xmlns="http://www.w3.org/2000/svg">
<path fill-rule="evenodd" clip-rule="evenodd" d="M18.1871 10.2C16.2001 10.499 14.9551 10.868 13.5471 11.577C9.80105 13.462 7.25705 17.008 6.35305 21.6C5.95605 23.616 5.95605 26.667 6.35205 28.8C7.87805 37.011 15.0631 45.787 26.7201 53.677C30.1751 56.016 31.2871 56.64 32.0001 56.64C32.7111 56.64 33.8321 56.012 37.2411 53.703C48.0511 46.383 55.0121 38.351 57.2051 30.667C58.0381 27.748 58.187 24.24 57.599 21.382C56.403 15.567 52.4501 11.481 46.9561 10.379C45.632 10.113 42.6301 10.114 41.3871 10.381C37.7551 11.159 34.097 13.481 32.17 16.231L32.0001 16.474L31.8301 16.231C29.9301 13.518 26.284 11.185 22.7201 10.4C21.9411 10.229 18.8921 10.094 18.1871 10.2ZM21.1041 14.191C23.3171 14.468 25.6771 15.613 27.4441 17.266C28.2441 18.014 29.1801 19.324 29.8091 20.576C30.4221 21.794 30.6641 22.085 31.2781 22.342C31.7791 22.551 32.2211 22.551 32.7221 22.342C33.3351 22.085 33.5781 21.794 34.1861 20.587C35.1081 18.755 36.114 17.519 37.5861 16.41C39.869 14.689 42.729 13.86 45.327 14.165C49.774 14.687 52.725 17.58 53.781 22.453C53.871 22.868 53.918 23.864 53.9151 25.28C53.91 27.141 53.875 27.611 53.6781 28.437C52.743 32.363 50.703 35.989 47.175 40C43.69 43.962 38.5211 48.247 33.0411 51.718L32.003 52.376L31.1211 51.827C27.1811 49.369 22.805 45.975 19.585 42.88C14.526 38.017 11.4631 33.242 10.3231 28.437C10.1291 27.618 10.0921 27.134 10.0861 25.333C10.0791 23.024 10.1661 22.354 10.6751 20.782C11.0741 19.55 11.4841 18.762 12.2661 17.724C14.2891 15.04 17.5331 13.743 21.1041 14.191Z" fill="#222222"/>
</svg>
