<svg width="64" height="64" viewBox="0 0 64 64" fill="none" xmlns="http://www.w3.org/2000/svg">
<path fill-rule="evenodd" clip-rule="evenodd" d="M30.7201 14.0911C26.5261 14.4991 22.6131 17.1741 20.7511 20.9041C20.0781 22.2521 19.8101 23.1061 19.8901 23.6441C20.0701 24.8391 21.2661 25.6071 22.4131 25.2631C23.0851 25.0621 23.5721 24.5111 23.9341 23.5431C24.3511 22.4261 25.1071 21.3111 26.0611 20.4061C27.7331 18.8171 29.7111 18.0271 32.0121 18.0271C33.4491 18.0271 34.3851 18.2521 35.8131 18.9421C36.7441 19.3931 37.1791 19.6801 37.7621 20.2301C39.6491 22.0101 40.4921 23.8081 40.6041 26.2931C40.7231 28.9441 39.8211 31.1591 37.8811 32.9781C36.4111 34.3561 34.6511 35.1251 32.5461 35.3101C31.2411 35.4251 30.8021 35.6141 30.3471 36.2591L30.0271 36.7121V38.6491C30.0271 40.4901 30.0391 40.6061 30.2741 40.9851C31.2261 42.5161 33.5371 42.1651 33.9091 40.4331C33.973 40.1396 34.0125 39.8412 34.0271 39.5411V39.1991L35.1501 38.9111C37.2235 38.3694 39.1269 37.3135 40.684 35.8411C45.754 31.0261 45.9731 23.0571 41.1731 17.9851C39.4891 16.2041 37.3881 14.9831 34.9331 14.3581C34.35 14.2101 32.1721 13.9531 31.7871 13.9881L30.7201 14.0911ZM31.6271 48.6871C31.5681 48.7101 31.3891 48.7571 31.2291 48.7921C30.4101 48.9731 29.7921 50.0221 29.8991 51.0521C30.0161 52.1881 30.8301 52.9071 32.0001 52.9071C33.1631 52.9071 33.984 52.1871 34.1 51.0671C34.196 50.1331 33.7901 49.2811 33.0711 48.9091C32.7781 48.7571 31.8251 48.6111 31.6271 48.6871Z" fill="#222222"/>
</svg>
