<svg width="64" height="64" viewBox="0 0 64 64" fill="none" xmlns="http://www.w3.org/2000/svg">
<path fill-rule="evenodd" clip-rule="evenodd" d="M10.172 8.73895C9.70499 8.85395 9.23099 9.21495 8.94999 9.66995C8.67499 10.1149 8.62199 11.0799 8.84799 11.5199C8.92299 11.6669 10.641 13.4489 12.665 15.4809L16.346 19.1759L15.506 19.7399C13.534 21.0659 11.498 22.7059 9.28499 24.7539C5.82299 27.9579 5.04299 29.3839 5.14699 32.3199C5.23099 34.6959 5.81599 35.8189 8.20099 38.1889C13.915 43.8649 20.165 47.7109 26.133 49.2239C31.671 50.6269 37.353 50.014 42.966 47.408L44.065 46.8969L48.192 51.011C52.121 54.926 52.344 55.129 52.827 55.229C54.372 55.5499 55.547 54.375 55.231 52.827C55.13 52.332 54.596 51.7879 33.564 30.7419C21.704 18.8739 11.856 9.07495 11.68 8.96595C11.293 8.72795 10.627 8.62795 10.172 8.73895ZM30.349 14.0899C28.875 14.1899 28.3 14.3729 27.849 14.8859C27.064 15.7799 27.244 17.1339 28.238 17.8149L28.625 18.0799H31.459C33.745 18.0799 34.489 18.1169 35.307 18.2719C39.039 18.9809 42.944 20.7139 46.683 23.3209C49.674 25.4059 53.992 29.3269 54.647 30.5519C54.839 30.9109 54.879 31.1639 54.88 31.9999C54.88 33.4859 54.645 33.8389 52.061 36.2369C50.241 37.9259 49.991 38.2909 50.052 39.1719C50.125 40.2489 50.921 40.9599 52.053 40.959C52.814 40.959 52.959 40.8649 54.773 39.1809C57.182 36.9459 58.096 35.7789 58.571 34.3279C58.793 33.6489 58.827 33.3439 58.827 31.9999C58.827 30.6529 58.793 30.3519 58.569 29.6669C58.177 28.4689 57.435 27.4359 55.799 25.8109C49.435 19.4889 42.48 15.4869 35.885 14.3529C35.058 14.2109 32.056 13.9489 31.733 13.9899C31.675 13.9979 31.052 14.0429 30.349 14.0899ZM22.419 25.2449L25.585 28.4109L25.381 28.8109C24.699 30.1489 24.513 32.3739 24.952 33.9729C25.469 35.8619 26.755 37.4579 28.587 38.4859C30.364 39.4819 33.031 39.5599 35.035 38.6739L35.599 38.4239L38.346 41.172L41.092 43.9199L39.933 44.375C37.913 45.1679 36.057 45.6439 34.081 45.8769C32.652 46.0459 29.911 45.944 28.48 45.6679C24.831 44.9669 21.031 43.2679 17.317 40.6789C14.326 38.5939 10.008 34.673 9.35299 33.448C9.16099 33.089 9.12099 32.8359 9.11999 31.9999C9.11999 30.8469 9.21199 30.6039 10.004 29.6699C10.73 28.8129 13.526 26.2439 15.093 24.9929C16.294 24.0349 19.046 22.0829 19.199 22.0809C19.228 22.0799 20.677 23.5039 22.419 25.2449ZM31.913 35.2849C31.167 35.3309 30.329 34.9859 29.716 34.3809C29.029 33.7039 28.778 33.1719 28.719 32.2669L28.671 31.5199L30.551 33.3869L32.431 35.2529L31.913 35.2849Z" fill="#222222"/>
</svg>
