<svg width="64" height="64" viewBox="0 0 64 64" fill="none" xmlns="http://www.w3.org/2000/svg">
<path fill-rule="evenodd" clip-rule="evenodd" d="M30.224 7.99792C29.03 8.31092 28.037 8.88792 26.594 10.1049C24.374 11.9769 11.359 23.4389 10.773 24.0369C9.38701 25.4539 8.90601 26.6109 8.73201 28.9499C8.58101 30.9859 8.67901 48.4459 8.84701 49.3209C9.34001 51.8909 11.129 54.0479 13.405 54.8149C14.795 55.2829 14.669 55.2789 30.453 55.3269C48.794 55.3829 49.635 55.3509 51.248 54.5369C53.358 53.4709 54.701 51.6779 55.153 49.3209C55.321 48.4429 55.419 30.9849 55.267 28.9419C55.084 26.4799 54.581 25.3749 52.89 23.7169C52.058 22.9019 39.771 12.0999 37.406 10.1049C36.571 9.40092 35.669 8.77292 35.009 8.43692C33.763 7.80392 31.691 7.61392 30.224 7.99792ZM32.918 11.8909C33.264 11.9929 33.761 12.2999 34.351 12.7719C35.478 13.6769 49.688 26.1089 50.358 26.7759C50.678 27.0949 50.93 27.4819 51.081 27.8849L51.313 28.5039L51.283 38.7059C51.253 48.8869 51.253 48.9079 51.024 49.4029C50.731 50.0359 50.036 50.7309 49.403 51.0239L48.907 51.2529H15.093L14.597 51.0239C13.964 50.7309 13.269 50.0359 12.976 49.4029L12.747 48.9069V28.1069L13.063 27.5349C13.237 27.2209 13.552 26.8129 13.763 26.6279L21.446 19.8949C25.461 16.3759 29.154 13.1699 29.651 12.7709C30.903 11.7669 31.74 11.5409 32.918 11.8909ZM23.506 32.7419C22.216 33.0489 21.595 34.6769 22.356 35.7539C22.527 35.9959 22.859 36.2949 23.093 36.4169C23.514 36.6369 23.641 36.6399 31.674 36.6699C37.386 36.6909 40.001 36.6639 40.404 36.5799C42.406 36.1649 42.482 33.2619 40.503 32.7639C39.945 32.6229 24.088 32.6029 23.506 32.7419Z" fill="#222222"/>
</svg>
