<svg width="64" height="64" viewBox="0 0 64 64" fill="none" xmlns="http://www.w3.org/2000/svg">
<path fill-rule="evenodd" clip-rule="evenodd" d="M30.2241 7.99792C29.0301 8.31092 28.0371 8.88792 26.5941 10.1049C24.3741 11.9769 11.3591 23.4389 10.7731 24.0369C9.39005 25.4509 8.90605 26.6129 8.73305 28.9349C8.66405 29.8729 8.64005 33.8439 8.66905 39.6659C8.70805 47.5869 8.73905 49.0079 8.88305 49.6149C9.49605 52.2039 11.1581 54.0599 13.6011 54.8849C14.3371 55.1339 14.7401 55.1889 16.5601 55.2869C19.5801 55.4499 22.5521 55.2839 23.7321 54.8849C25.7881 54.1909 27.3041 52.7589 28.0841 50.7729C28.5201 49.6639 28.6001 48.9099 28.6801 45.1769C28.7651 41.1979 28.7561 41.2429 29.6661 40.3329C30.3291 39.6699 30.8441 39.4399 31.7871 39.3849C32.8661 39.3229 33.5891 39.5929 34.3311 40.3349C35.2351 41.2389 35.2681 41.4019 35.3421 45.4399C35.4231 49.8219 35.5521 50.4809 36.6621 52.1799C37.4831 53.4369 38.7141 54.3609 40.2681 54.8849C41.0041 55.1339 41.4061 55.1889 43.2271 55.2869C46.2471 55.4499 49.2191 55.2839 50.3991 54.8849C52.8421 54.0599 54.5061 52.2019 55.1171 49.6149C55.2601 49.0089 55.2911 47.5709 55.3311 39.6709C55.3921 27.7299 55.3511 27.1729 54.2961 25.3869C53.7001 24.3789 52.6771 23.4249 45.0131 16.7289C36.1031 8.94492 36.2571 9.07192 35.0091 8.43692C33.7631 7.80392 31.6911 7.61392 30.2241 7.99792ZM32.9181 11.8909C33.2641 11.9929 33.7611 12.2999 34.3511 12.7719C35.4781 13.6769 49.6881 26.1089 50.3581 26.7759C50.6771 27.0939 50.9301 27.4819 51.0811 27.8839L51.3121 28.5019L51.2831 38.7039C51.2531 48.8869 51.2531 48.9079 51.0241 49.4029C50.7311 50.0359 50.0361 50.7309 49.4031 51.0239C48.9261 51.2439 48.7641 51.2529 45.3331 51.2529C41.9021 51.2529 41.7401 51.2439 41.2641 51.0239C40.6281 50.7299 39.9341 50.0349 39.6451 49.4029C39.4331 48.9379 39.4141 48.6679 39.3481 45.1729C39.2701 41.0409 39.1931 40.5179 38.4851 39.2529C37.0841 36.7519 34.7921 35.3849 32.0001 35.3849C29.2081 35.3849 26.9161 36.7519 25.5151 39.2529C24.8071 40.5179 24.7301 41.0409 24.6521 45.1729C24.5861 48.6679 24.5671 48.9379 24.3551 49.4029C24.0661 50.0349 23.3721 50.7299 22.7361 51.0239C22.2601 51.2439 22.0981 51.2529 18.6671 51.2529C15.2361 51.2529 15.0741 51.2439 14.5971 51.0239C13.9641 50.7309 13.2691 50.0359 12.9761 49.4029L12.7471 48.9069V28.1069L13.0631 27.5349C13.2371 27.2209 13.5521 26.8129 13.7631 26.6279L21.4461 19.8949C25.4611 16.3759 29.1541 13.1699 29.6511 12.7709C30.9031 11.7669 31.7401 11.5409 32.9181 11.8909Z" fill="#222222"/>
</svg>
