<svg width="64" height="64" viewBox="0 0 64 64" fill="none" xmlns="http://www.w3.org/2000/svg">
<path fill-rule="evenodd" clip-rule="evenodd" d="M30.2239 7.99792C29.0299 8.31092 28.0369 8.88792 26.5939 10.1049C24.3739 11.9769 11.3589 23.4389 10.7729 24.0369C9.45193 25.3879 8.91793 26.6089 8.74693 28.6739C8.68893 29.3669 8.64293 34.6639 8.64193 40.6029L8.63993 51.2859L6.68493 51.3229C4.77193 51.3589 4.72093 51.3659 4.29793 51.6459C3.65793 52.0699 3.37793 52.5889 3.37793 53.3509C3.37793 53.8739 3.42993 54.0539 3.68893 54.4209C3.85993 54.6629 4.19193 54.9609 4.42693 55.0839L4.85293 55.3069L31.6799 55.3349C50.9309 55.3549 58.6679 55.3299 59.0759 55.2449C61.1179 54.8229 61.1359 51.8609 59.0989 51.4249C58.7969 51.3599 57.8319 51.3069 56.9549 51.3069H55.3599L55.3579 40.6669C55.3559 34.8149 55.3099 29.4409 55.2539 28.7259C55.0799 26.4919 54.5289 25.3239 52.8899 23.7169C52.0579 22.9019 39.7709 12.0999 37.4059 10.1049C36.5709 9.40092 35.6689 8.77292 35.0089 8.43692C33.7629 7.80392 31.6909 7.61392 30.2239 7.99792ZM32.9179 11.8909C33.2639 11.9929 33.7609 12.2999 34.3509 12.7719C35.4779 13.6769 49.6879 26.1089 50.3579 26.7759C50.6749 27.0919 50.9299 27.4819 51.0779 27.8769C51.3069 28.4879 51.3069 28.4949 51.3069 39.8969V51.3069H39.3779L39.3329 46.3729C39.2899 41.6549 39.2779 41.4049 39.0509 40.6399C38.3319 38.2179 36.3669 36.2739 33.9729 35.6179C32.2479 35.1459 30.0169 35.3789 28.5869 36.1809C26.7889 37.1889 25.5059 38.7609 24.9489 40.6399C24.7219 41.4049 24.7099 41.6549 24.6669 46.3729L24.6219 51.3069H12.6899L12.7179 39.7069L12.7469 28.1069L13.0629 27.5349C13.2369 27.2209 13.5519 26.8129 13.7629 26.6279L21.4459 19.8949C25.4609 16.3759 29.1539 13.1699 29.6509 12.7709C30.9029 11.7669 31.7399 11.5409 32.9179 11.8909ZM33.2109 39.5759C33.9849 39.8659 34.8009 40.6819 35.0899 41.4559C35.2959 42.0049 35.3069 42.2729 35.3069 46.6709V51.3069H28.6849L28.7159 46.4799C28.7459 41.7619 28.7519 41.6439 28.9779 41.2209C29.3969 40.4389 30.2679 39.6939 31.0389 39.4599C31.5689 39.2979 32.6179 39.3549 33.2109 39.5759Z" fill="#222222"/>
</svg>
