<svg width="64" height="64" viewBox="0 0 64 64" fill="none" xmlns="http://www.w3.org/2000/svg">
<path fill-rule="evenodd" clip-rule="evenodd" d="M30.224 7.99792C29.03 8.31092 28.037 8.88792 26.594 10.1049C24.374 11.9769 11.359 23.4389 10.773 24.0369C9.38701 25.4539 8.90601 26.6109 8.73201 28.9499C8.58101 30.9859 8.67901 48.4459 8.84701 49.3209C9.34001 51.8909 11.129 54.0479 13.405 54.8149C14.795 55.2829 14.669 55.2789 30.453 55.3269C48.794 55.3829 49.635 55.3509 51.248 54.5369C53.358 53.4709 54.701 51.6779 55.153 49.3209C55.321 48.4429 55.419 30.9849 55.267 28.9419C55.084 26.4799 54.581 25.3749 52.89 23.7169C52.058 22.9019 39.771 12.0999 37.406 10.1049C36.571 9.40092 35.669 8.77292 35.009 8.43692C33.763 7.80392 31.691 7.61392 30.224 7.99792ZM32.918 11.8909C33.643 12.1059 34.094 12.4809 42.554 19.8949L50.237 26.6279C50.448 26.8129 50.763 27.2209 50.937 27.5349L51.253 28.1069V48.9069L51.024 49.4029C50.731 50.0359 50.036 50.7309 49.403 51.0239L48.907 51.2529H15.093L14.597 51.0239C13.964 50.7309 13.269 50.0359 12.976 49.4029L12.747 48.9069V28.1069L13.063 27.5349C13.237 27.2209 13.552 26.8129 13.763 26.6279L21.446 19.8949C25.461 16.3759 29.154 13.1699 29.651 12.7709C30.903 11.7669 31.74 11.5409 32.918 11.8909ZM26.172 27.4079C25.707 27.5189 25.232 27.8799 24.95 28.3369C24.674 28.7819 24.622 29.7479 24.849 30.1869C24.925 30.3339 25.927 31.4009 27.076 32.5599L29.166 34.6669L27.076 36.7729C25.927 37.9319 24.925 38.9999 24.849 39.1459C24.773 39.2929 24.711 39.6819 24.711 40.0119C24.711 41.3299 25.82 42.1789 27.17 41.8949C27.643 41.7949 27.838 41.6299 29.84 39.6459L32 37.5049L34.16 39.6459C36.156 41.6249 36.358 41.7949 36.827 41.8939C38.371 42.2189 39.553 41.0369 39.227 39.4929C39.129 39.0249 38.958 38.8229 36.979 36.8269L34.838 34.6669L36.979 32.5069C38.958 30.5099 39.129 30.3079 39.227 29.8399C39.472 28.6809 38.857 27.6579 37.775 27.4269C37.477 27.3629 37.172 27.3299 37.097 27.3529C36.9467 27.3948 36.7954 27.4324 36.643 27.4659C36.42 27.5149 35.681 28.1749 34.163 29.6819L32 31.8289L29.84 29.6909C27.9 27.7699 27.629 27.5399 27.179 27.4299C26.629 27.2939 26.648 27.2949 26.172 27.4079Z" fill="#222222"/>
</svg>
