<svg width="64" height="64" viewBox="0 0 64 64" fill="none" xmlns="http://www.w3.org/2000/svg">
<path fill-rule="evenodd" clip-rule="evenodd" d="M30.224 7.99792C29.03 8.31092 28.037 8.88792 26.594 10.1049C24.374 11.9769 11.359 23.4389 10.773 24.0369C9.38695 25.4539 8.90595 26.6109 8.73195 28.9499C8.58095 30.9859 8.67895 48.4459 8.84695 49.3209C9.33995 51.8909 11.129 54.0479 13.405 54.8149C14.795 55.2829 14.6689 55.2789 30.4529 55.3269C48.7939 55.3829 49.635 55.3509 51.248 54.5369C53.358 53.4709 54.701 51.6779 55.153 49.3209C55.3209 48.4429 55.4189 30.9849 55.2669 28.9419C55.084 26.4799 54.5809 25.3749 52.8899 23.7169C52.0579 22.9019 39.7709 12.0999 37.4059 10.1049C36.5709 9.40092 35.6689 8.77292 35.0089 8.43692C33.7629 7.80392 31.691 7.61392 30.224 7.99792ZM32.9179 11.8909C33.264 11.9929 33.761 12.2999 34.351 12.7719C35.478 13.6769 49.688 26.1089 50.358 26.7759C50.678 27.0949 50.93 27.4819 51.081 27.8849L51.313 28.5039L51.283 38.7059C51.253 48.8869 51.2529 48.9079 51.0239 49.4029C50.7309 50.0359 50.0359 50.7309 49.403 51.0239L48.907 51.2529H15.093L14.597 51.0239C13.964 50.7309 13.269 50.0359 12.976 49.4029L12.747 48.9069V28.1069L13.063 27.5349C13.237 27.2209 13.552 26.8129 13.763 26.6279L21.446 19.8949C25.461 16.3759 29.1539 13.1699 29.6509 12.7709C30.903 11.7669 31.74 11.5409 32.9179 11.8909Z" fill="#222222"/>
</svg>
