<svg width="64" height="64" viewBox="0 0 64 64" fill="none" xmlns="http://www.w3.org/2000/svg">
<path fill-rule="evenodd" clip-rule="evenodd" d="M30.224 7.99792C29.03 8.31092 28.037 8.88792 26.594 10.1049C24.374 11.9769 11.359 23.4389 10.773 24.0369C9.38695 25.4539 8.90595 26.6109 8.73195 28.9499C8.58095 30.9859 8.67895 48.4459 8.84695 49.3209C9.33995 51.8909 11.129 54.0479 13.405 54.8149C14.795 55.2829 14.6689 55.2789 30.4529 55.3269C48.7939 55.3829 49.635 55.3509 51.248 54.5369C53.358 53.4709 54.701 51.6779 55.153 49.3209C55.3209 48.4429 55.4189 30.9849 55.2669 28.9419C55.084 26.4799 54.5809 25.3749 52.8899 23.7169C52.0579 22.9019 39.7709 12.0999 37.4059 10.1049C36.5709 9.40092 35.6689 8.77292 35.0089 8.43692C33.7629 7.80392 31.691 7.61392 30.224 7.99792ZM32.9179 11.8909C33.643 12.1059 34.094 12.4809 42.554 19.8949L50.2369 26.6279C50.4479 26.8129 50.763 27.2209 50.937 27.5349L51.2529 28.1069V48.9069L51.0239 49.4029C50.7309 50.0359 50.0359 50.7309 49.403 51.0239L48.907 51.2529H15.093L14.597 51.0239C13.964 50.7309 13.269 50.0359 12.976 49.4029L12.747 48.9069V28.1069L13.063 27.5349C13.237 27.2209 13.552 26.8129 13.763 26.6279L21.446 19.8949C25.461 16.3759 29.1539 13.1699 29.6509 12.7709C30.903 11.7669 31.74 11.5409 32.9179 11.8909ZM31.506 24.7379C31.035 24.8549 30.564 25.2159 30.274 25.6819C30.031 26.0719 30.026 26.1429 29.993 29.3529L29.9599 32.6259L26.6779 32.6599L23.397 32.6929L22.965 32.9789C22.325 33.4029 22.044 33.9229 22.044 34.6849C22.044 35.2079 22.097 35.3879 22.356 35.7539C22.96 36.6099 23.083 36.6349 26.74 36.6739L29.9599 36.7069L29.993 39.9799C30.026 43.1899 30.031 43.2609 30.274 43.6509C31.226 45.1819 33.537 44.8309 33.909 43.0989C33.979 42.7729 34.027 41.3569 34.027 39.6209V36.6929H36.955C40.383 36.6929 40.808 36.6319 41.387 36.0529C42.448 34.9919 41.9469 33.1269 40.5029 32.7639C40.1889 32.6849 38.934 32.6399 37.019 32.6399H34.027L34.0239 29.6799C34.0209 26.5449 33.956 25.9679 33.547 25.4299C33.121 24.8729 32.209 24.5639 31.506 24.7379Z" fill="#222222"/>
</svg>
