<svg width="64" height="64" viewBox="0 0 64 64" fill="none" xmlns="http://www.w3.org/2000/svg">
<path fill-rule="evenodd" clip-rule="evenodd" d="M11.893 9.22497C10.882 9.41197 10.375 9.60197 9.50701 10.118C8.04401 10.987 6.78301 12.641 6.36901 14.235C6.00601 15.635 5.95901 18.14 6.00401 33.843C6.04101 46.994 6.06901 49.12 6.21201 49.813C6.83101 52.817 9.00201 54.924 12.053 55.481C13.24 55.697 50.762 55.697 51.947 55.48C53.532 55.191 54.761 54.561 55.834 53.487C56.968 52.354 57.481 51.319 57.801 49.522C57.99 48.464 58.007 47.746 58.022 40.424C58.033 35.012 58.001 32.308 57.922 31.954C57.697 30.951 57.016 30.4 56 30.4C55.137 30.4 54.489 30.824 54.125 31.627C54.071 31.744 54.004 34.249 53.974 37.193L53.92 42.547L51.315 39.294C48.048 35.213 47.696 34.885 46.16 34.491C44.851 34.155 43.43 34.463 42.311 35.325C42.067 35.514 40.951 36.57 39.831 37.674C38.269 39.213 37.733 39.68 37.526 39.68C37.163 39.68 37.053 39.556 32 33.493C29.628 30.648 27.449 28.091 27.157 27.81C25.379 26.102 22.733 26.06 20.893 27.711C20.586 27.988 18.015 30.917 15.181 34.22L10.027 40.228L10.028 28.14C10.03 18.45 10.058 15.934 10.172 15.449C10.401 14.479 11.179 13.605 12.16 13.218C12.465 13.097 14.378 13.06 22.56 13.015C33.736 12.954 32.945 13.011 33.552 12.216C34.291 11.247 33.999 9.80997 32.955 9.27797C32.552 9.07197 32.303 9.06697 22.591 9.07597C14.917 9.08397 12.469 9.11797 11.893 9.22497ZM46.984 9.64597C46.744 9.78997 46.44 10.106 46.291 10.365C46.028 10.825 46.027 10.84 45.993 14.107L45.959 17.387H42.696C39.442 17.387 39.431 17.387 38.995 17.643C37.901 18.284 37.712 19.91 38.631 20.768C39.2 21.3 39.451 21.333 42.816 21.333H45.959L45.993 24.613C46.029 28.15 46.039 28.216 46.631 28.768C46.958 29.074 47.588 29.333 48 29.333C48.412 29.333 49.042 29.074 49.369 28.768C49.961 28.216 49.971 28.15 50.007 24.613L50.041 21.333H53.184C56.549 21.333 56.8 21.3 57.369 20.768C58.288 19.91 58.099 18.284 57.005 17.643C56.569 17.387 56.558 17.387 53.304 17.387H50.041L50.007 14.107L49.973 10.827L49.69 10.346C49.139 9.40797 47.911 9.08997 46.984 9.64597ZM29.111 36.256C31.737 39.402 34.136 42.201 34.442 42.476C35.888 43.776 37.821 44.045 39.563 43.187C40.123 42.911 40.672 42.434 42.573 40.572C43.962 39.21 44.98 38.293 45.102 38.293C45.395 38.293 45.719 38.672 50.004 44.025C52.585 47.249 53.867 48.932 53.867 49.098C53.867 49.489 53.355 50.412 52.932 50.784C52.138 51.481 51.821 51.553 49.173 51.638C46.052 51.739 17.948 51.739 14.827 51.638C12.743 51.571 12.363 51.532 11.941 51.342C11.2592 51.0455 10.7066 50.5139 10.384 49.844C10.12 49.304 10.09 49.119 10.055 47.798L10.016 46.347L16.423 38.88C19.948 34.773 23.064 31.188 23.348 30.913C23.745 30.528 23.919 30.427 24.101 30.474C24.244 30.512 26.216 32.788 29.111 36.256Z" fill="#222222"/>
</svg>
