<svg width="64" height="64" viewBox="0 0 64 64" fill="none" xmlns="http://www.w3.org/2000/svg">
<path fill-rule="evenodd" clip-rule="evenodd" d="M48.7469 8.16994C48.3007 8.36056 47.9311 8.69497 47.6969 9.11994C47.5389 9.40494 47.5159 10.0839 47.4879 15.2829L47.4559 21.1259L45.8109 19.5499C44.9049 18.6829 43.9839 17.8909 43.7619 17.7889C42.9539 17.4199 41.9859 17.6749 41.4299 18.4029C41.1809 18.7299 41.1179 18.9319 41.0869 19.5079C41.0519 20.1419 41.0789 20.2569 41.3509 20.6479C41.7759 21.2589 48.1929 27.5569 48.6079 27.7709C49.1119 28.0299 49.9929 27.9989 50.4669 27.7059C51.0239 27.3619 57.4269 21.0379 57.7119 20.5519C57.9979 20.0629 58.0329 19.1929 57.7849 18.7179C57.3089 17.8009 56.2079 17.3769 55.2959 17.7579C55.0879 17.8439 54.1659 18.6339 53.2459 19.5119L51.5729 21.1089L51.5199 15.2749C51.4729 10.1099 51.4459 9.40294 51.2899 9.11994C50.7729 8.18194 49.6699 7.76994 48.7469 8.16994ZM20.3729 8.64694C12.5189 8.72194 12.0319 8.74894 10.7329 9.18694C8.93689 9.79194 7.12389 11.6059 6.51789 13.4049C6.04989 14.7959 6.05389 14.6629 6.00589 30.5489C5.95889 46.1239 6.00689 48.7769 6.35389 50.0799C6.96889 52.3809 8.99689 54.3909 11.3069 54.9869C11.6879 55.0859 12.7199 55.2079 13.5999 55.2599C15.6849 55.3809 48.3149 55.3809 50.3999 55.2599C52.2289 55.1529 53.0949 54.9609 54.0799 54.4449C56.1199 53.3749 57.3889 51.5969 57.8009 49.2269C57.9889 48.1479 58.0069 47.4139 58.0209 40.1069C58.0329 34.4489 58.0019 31.9949 57.9139 31.5889C57.5329 29.8189 55.2419 29.4589 54.2739 31.0149L54.0269 31.4129L53.9949 36.8319L53.9639 42.2509L51.5059 39.1789C48.1399 34.9719 47.7219 34.5699 46.3209 34.1829C45.2489 33.8869 44.1569 33.9969 43.1319 34.5039C42.4039 34.8629 42.0499 35.1649 40.0429 37.1349C38.3199 38.8259 37.7129 39.3599 37.5109 39.3599C37.1749 39.3599 36.9599 39.1169 31.8369 32.9599C29.6169 30.2909 27.5309 27.8429 27.2019 27.5199C26.1009 26.4379 24.6259 25.9609 23.1949 26.2249C22.2719 26.3949 21.6209 26.7309 20.8489 27.4339C20.5079 27.7449 17.9449 30.6609 15.1539 33.9139L10.0799 39.8279L10.0509 37.7009C10.0339 36.5309 10.0339 30.9649 10.0509 25.3329C10.0799 15.1119 10.0799 15.0919 10.3089 14.5969C10.6039 13.9599 11.2999 13.2659 11.9309 12.9809C12.3859 12.7749 12.6959 12.7509 15.7329 12.6819C17.5519 12.6399 21.5599 12.5969 24.6399 12.5849C27.7199 12.5739 31.9239 12.5329 33.9819 12.4949L37.7239 12.4269L38.1239 12.1209C38.7229 11.6639 38.9319 11.2519 38.9329 10.5279C38.9329 10.1879 38.8659 9.77994 38.7829 9.62094C38.5809 9.23494 38.0939 8.78594 37.7259 8.64694C37.3999 8.52294 33.3539 8.52294 20.3729 8.64694ZM24.2199 30.1899C24.3329 30.2509 26.4759 32.7589 28.9819 35.7639C34.0449 41.8359 34.3699 42.2019 35.0899 42.6649C36.0669 43.2909 37.4779 43.5039 38.6929 43.2079C39.6139 42.9839 40.4729 42.3219 42.7349 40.0919C44.0069 38.8379 44.9669 37.9729 45.0859 37.9729C45.3999 37.9729 45.8829 38.5349 50.0209 43.7149L53.8829 48.5499L53.8129 48.9629C53.6769 49.7639 52.9049 50.6499 51.9729 51.0719C51.6019 51.2409 50.1889 51.2529 31.9999 51.2529H12.4269L11.9309 51.0239C11.2919 50.7289 10.5979 50.0309 10.3169 49.4029C10.1389 49.0019 10.0879 48.6289 10.0529 47.4669L10.0099 46.0269L16.3669 38.6129C22.1379 31.8849 23.7399 30.0799 23.9439 30.0799C24.0409 30.1025 24.134 30.1396 24.2199 30.1899Z" fill="#222222"/>
</svg>
