<svg width="64" height="64" viewBox="0 0 64 64" fill="none" xmlns="http://www.w3.org/2000/svg">
<path fill-rule="evenodd" clip-rule="evenodd" d="M40.099 7.18604C38.598 7.59104 37.415 8.88405 37.121 10.441C37.062 10.757 37.013 12.59 37.013 14.514C37.013 18.685 37.113 19.666 37.73 21.6C38.886 25.22 41.723 28.371 45.569 30.304C47.356 31.203 48.461 31.203 50.312 30.304C54.131 28.449 56.997 25.314 58.171 21.707C58.783 19.827 58.799 19.677 58.849 15.007C58.895 10.843 58.887 10.623 58.677 9.94004C58.4024 9.04935 57.8292 8.2805 57.054 7.76305C55.959 7.03205 56.056 7.03904 47.898 7.04704C42.459 7.05304 40.462 7.08804 40.099 7.18604ZM11.765 10.78C10.546 10.898 9.68599 11.139 8.82299 11.603C7.32599 12.407 6.02299 13.931 5.49999 15.489C5.01199 16.944 4.99699 17.569 5.03999 34.827C5.08499 52.89 5.03599 51.727 5.82199 53.294C6.27773 54.1946 6.91509 54.9909 7.69389 55.6329C8.47269 56.2749 9.37604 56.7485 10.347 57.024C11.01 57.215 11.868 57.225 30.4 57.256C43.677 57.278 50.034 57.253 50.631 57.175C52.401 56.944 53.656 56.327 54.88 55.087C55.745 54.211 56.32 53.211 56.666 51.984C56.9 51.155 56.902 51.056 56.935 42.362L56.968 33.578L56.738 33.102C56.397 32.398 55.819 32.053 54.984 32.055C54.229 32.057 53.758 32.309 53.324 32.942L53.067 33.317L53.013 38.787L52.96 44.257L50.564 41.259C49.246 39.61 47.931 38.001 47.641 37.684C46.596 36.541 45.557 36.053 44.163 36.053C42.419 36.053 41.706 36.489 38.843 39.304C37.565 40.56 36.642 41.387 36.518 41.387C36.209 41.387 35.715 40.829 31.031 35.2C26.613 29.891 26.076 29.289 25.336 28.821C24.104 28.041 22.233 27.954 20.951 28.617C20.122 29.046 19.192 30.042 14.334 35.707C11.48 39.036 9.10099 41.777 9.04699 41.797C8.98799 41.82 8.96299 37.004 8.98499 29.637C9.02499 15.86 8.96399 16.813 9.86999 15.805C10.599 14.994 11.051 14.821 12.723 14.714C13.499 14.664 18.035 14.62 22.803 14.618C32.347 14.613 31.882 14.645 32.503 13.938C33.32 13.008 32.992 11.438 31.867 10.893C31.401 10.667 31.375 10.667 22.02 10.681C16.861 10.689 12.246 10.734 11.765 10.78ZM54.876 14.88C54.873 19.081 54.851 19.275 54.19 20.988C53.322 23.239 50.964 25.656 48.55 26.77L47.98 27.033L47.003 26.531C45.732 25.878 44.822 25.182 43.721 24.021C42.731 22.977 42.184 22.125 41.703 20.878C41.097 19.31 41.05 18.922 40.992 14.96C40.962 12.95 40.965 11.234 40.999 11.146C41.053 11.005 41.898 10.988 47.97 11.013L54.88 11.04L54.876 14.88ZM23.554 32.507C23.762 32.727 25.85 35.211 28.194 38.027C30.537 40.843 32.725 43.425 33.054 43.765C34.238 44.986 35.242 45.397 36.824 45.307C38.38 45.218 38.739 44.986 41.516 42.279C43.149 40.686 43.924 40 44.091 40C44.228 40 44.492 40.17 44.711 40.4C45.069 40.776 52.662 50.244 52.84 50.536C52.973 50.754 52.611 51.667 52.201 52.146C51.673 52.762 51.06 53.09 50.186 53.225C49.031 53.402 11.707 53.322 11.178 53.141C10.572 52.934 9.79199 52.256 9.46299 51.65C9.22499 51.212 9.14499 50.884 9.06599 50.005C9.01199 49.401 8.96599 48.727 8.96399 48.507C8.95999 48.131 9.32499 47.681 15.057 40.987C22.357 32.462 22.674 32.107 22.957 32.107C23.077 32.107 23.345 32.287 23.554 32.507Z" fill="#222222"/>
</svg>
