<svg width="64" height="64" viewBox="0 0 64 64" fill="none" xmlns="http://www.w3.org/2000/svg">
<path fill-rule="evenodd" clip-rule="evenodd" d="M10.0841 9.185C7.5751 9.553 5.2841 11.451 4.4951 13.815C4.0521 15.143 4.0431 15.567 4.0751 32.96L4.1071 49.653L4.3801 50.521C5.0281 52.572 6.6411 54.345 8.5331 55.086C9.9251 55.63 9.1441 55.609 28.8531 55.651C47.3761 55.69 49.3591 55.659 50.7201 55.308C53.1601 54.678 55.1341 52.604 55.7461 50.027C55.9181 49.301 55.9391 48.427 55.9721 40.61C56.0061 32.311 56.0001 31.977 55.8031 31.532C55.6719 31.2191 55.4556 30.9492 55.1788 30.753C54.902 30.5568 54.5758 30.4422 54.2371 30.422C53.4861 30.36 53.2041 30.44 52.7431 30.844C52.0251 31.474 52.0531 31.218 52.0531 37.168C52.0531 40.134 52.0171 42.558 51.9731 42.555C51.9291 42.552 50.8611 41.248 49.6001 39.657C46.2191 35.392 45.6791 34.868 44.3051 34.515C43.6691 34.3449 43.0039 34.3141 42.3549 34.4249C41.706 34.5358 41.0886 34.7855 40.5451 35.157C40.2281 35.371 39.0231 36.477 37.8671 37.613C36.2481 39.204 35.7021 39.68 35.4931 39.68C35.1571 39.68 35.1711 39.696 29.6681 33.093C27.3091 30.262 25.1431 27.759 24.8561 27.532C23.7051 26.623 22.4611 26.312 21.0881 26.592C20.2071 26.772 19.5831 27.089 18.8641 27.724C18.6091 27.949 16.0721 30.849 13.2271 34.169L8.0531 40.205L8.0241 28.396C7.9951 16.232 8.0151 15.522 8.4201 14.738C8.7031 14.191 9.3451 13.601 9.9731 13.312L10.5071 13.067L20.5331 13.013C29.6001 12.965 30.5911 12.943 30.8801 12.783C31.5361 12.422 32.0021 11.662 31.9981 10.963C31.9941 10.438 31.6461 9.773 31.1931 9.428L30.7901 9.12L20.7551 9.106C15.2361 9.098 10.4341 9.133 10.0841 9.185ZM57.1201 9.562C56.9441 9.653 54.0771 12.447 50.7481 15.769L44.6961 21.81L42.0551 19.189C40.6021 17.747 39.2611 16.463 39.0761 16.336C38.4161 15.884 37.4011 15.931 36.7501 16.443C36.1121 16.945 35.8731 18.028 36.2181 18.854C36.3971 19.282 42.5441 25.541 43.4281 26.195C44.0091 26.624 44.6791 26.756 45.2931 26.561C45.6271 26.455 47.0321 25.108 52.6211 19.535C56.4581 15.708 59.6271 12.464 59.7411 12.244C59.9681 11.808 60.0101 11.06 59.8331 10.594C59.6791 10.185 59.2191 9.711 58.8031 9.534C58.3511 9.34 57.5201 9.354 57.1201 9.562ZM23.3561 31.76C23.9411 32.449 26.1611 35.101 28.2901 37.652C31.1071 41.03 32.3401 42.427 32.8201 42.79C33.3113 43.1571 33.8721 43.4203 34.4683 43.5637C35.0645 43.7071 35.6837 43.7276 36.2881 43.624C37.5081 43.404 38.0351 43.026 40.5661 40.56C41.8461 39.313 42.9791 38.293 43.0841 38.293C43.3821 38.293 44.0441 39.065 48.0811 44.12C50.8961 47.645 51.8401 48.899 51.8401 49.111C51.8401 49.502 51.3971 50.332 50.9701 50.741C50.2241 51.455 49.8101 51.552 47.1471 51.638C43.9381 51.742 15.9591 51.742 12.8531 51.638C10.0701 51.545 9.7871 51.475 8.9981 50.682C8.2411 49.921 8.0071 49.119 8.0021 47.279L8.0001 46.397L14.0991 39.279C17.4531 35.363 20.5301 31.788 20.9371 31.333C21.9811 30.165 22.0071 30.17 23.3561 31.76Z" fill="#222222"/>
</svg>
