<svg width="64" height="64" viewBox="0 0 64 64" fill="none" xmlns="http://www.w3.org/2000/svg">
<path fill-rule="evenodd" clip-rule="evenodd" d="M18.187 9.17389C13.38 9.22889 12.405 9.26589 11.68 9.42389C9.11705 9.98089 6.98205 11.9939 6.34505 14.4529C6.25405 14.8049 6.13405 15.8369 6.08005 16.7469C5.95105 18.8769 5.95005 46.1589 6.07705 48.2669C6.23305 50.8309 6.69905 52.0849 8.02005 53.4979C9.15605 54.7119 10.575 55.4329 12.301 55.6709C13.468 55.8329 50.5321 55.8329 51.6991 55.6709C52.8321 55.5149 53.6691 55.2199 54.5741 54.6589C55.9071 53.8329 57.088 52.3439 57.53 50.9329C57.994 49.4499 58.0231 48.7889 57.9971 40.1599C57.9761 32.7459 57.9561 31.9159 57.7971 31.6269C57.4411 30.9809 56.68 30.5069 56 30.5069C55.5881 30.5069 54.958 30.7659 54.6311 31.0719C54.015 31.6469 54.031 31.4909 53.973 37.3259L53.92 42.7059L51.7961 40.0459C48.7281 36.2059 48.3461 35.7689 47.6571 35.3089C46.9427 34.8324 46.1092 34.5655 45.2509 34.5385C44.3927 34.5114 43.544 34.7253 42.801 35.1559C42.522 35.3189 41.2701 36.4549 40.0191 37.6799C38.0671 39.5909 37.705 39.9009 37.459 39.8729C37.227 39.8459 36.291 38.7819 32.458 34.1869C27.673 28.4489 26.8911 27.5859 26.1131 27.1899C24.6691 26.4529 22.893 26.5069 21.597 27.3269C20.88 27.7819 20.385 28.3259 15.37 34.1869C12.709 37.2959 10.417 39.9599 10.2771 40.1069L10.022 40.3729L10.051 27.9999L10.08 15.6269L10.327 15.0819C10.611 14.4539 11.167 13.8779 11.805 13.5489C12.471 13.2069 14.004 13.1269 20.267 13.1089C23.288 13.1009 28.432 13.0639 31.698 13.0269L37.635 12.9599L38.0871 12.6399C38.6781 12.2209 38.933 11.7269 38.933 11.0029C38.933 10.2659 38.6081 9.66789 38.0181 9.32289L37.5811 9.06689L30.7111 9.08789C26.9321 9.09989 21.2961 9.13889 18.187 9.17389ZM48.723 9.68289C48.2071 9.92189 41.4761 16.5029 41.2411 16.9979C40.979 17.5509 41.0141 18.3989 41.3231 18.9249C41.8221 19.7769 43.022 20.1039 43.924 19.6339C44.142 19.5209 45.016 18.7279 45.8671 17.8729L47.413 16.3169L47.467 22.1589L47.5201 27.9999L47.8031 28.4809C48.1711 29.1079 48.7541 29.4399 49.4851 29.4399C50.4611 29.4399 51.1441 28.9269 51.4011 27.9999C51.48 27.7129 51.5191 25.7279 51.5191 21.9239L51.5201 16.2759L53.147 17.8849C54.041 18.7699 54.9271 19.5719 55.1151 19.6669C55.6151 19.9199 56.4681 19.8899 56.9831 19.6009C57.8271 19.1259 58.219 17.8469 57.78 16.9979C57.512 16.4809 50.793 9.92689 50.293 9.69489C49.761 9.44889 49.237 9.44489 48.723 9.68289ZM24.5371 30.9909C24.7381 31.1979 27.016 33.8959 29.598 36.9849C34.649 43.0289 34.915 43.2979 36.196 43.6699C36.929 43.8829 38.0921 43.8879 38.7891 43.6809C39.7121 43.4069 40.5741 42.7359 42.757 40.5899C44.382 38.9919 44.939 38.5069 45.1451 38.5069C45.361 38.5069 45.6371 38.7769 46.529 39.8669C48.197 41.9019 53.6141 48.6869 53.7681 48.9329C54.1021 49.4679 53.2121 50.9309 52.257 51.4179C52.0331 51.5329 51.523 51.6729 51.125 51.7309C50.141 51.8729 13.859 51.8729 12.875 51.7309C11.947 51.5969 11.452 51.3389 10.863 50.6849C10.24 49.9919 10.126 49.6009 10.059 47.9469L10.004 46.5599L16.5821 38.8799C20.2001 34.6559 23.302 31.0679 23.475 30.9069C23.8901 30.5199 24.097 30.5369 24.5371 30.9909Z" fill="#222222"/>
</svg>
