<svg width="64" height="64" viewBox="0 0 64 64" fill="none" xmlns="http://www.w3.org/2000/svg">
<path fill-rule="evenodd" clip-rule="evenodd" d="M11.8929 9.22497C10.8819 9.41197 10.3749 9.60197 9.50692 10.118C8.04392 10.987 6.78292 12.641 6.36892 14.235C6.00592 15.635 5.95892 18.14 6.00392 33.843C6.04092 46.994 6.06892 49.12 6.21192 49.813C6.83092 52.817 9.00192 54.924 12.0529 55.481C13.2399 55.697 50.7619 55.697 51.9469 55.48C53.5319 55.191 54.7609 54.561 55.8339 53.487C56.9679 52.354 57.4809 51.319 57.8009 49.522C57.9899 48.464 58.0069 47.746 58.0219 40.424C58.0329 35.012 58.0009 32.308 57.9219 31.954C57.6969 30.951 57.0159 30.4 55.9999 30.4C55.1369 30.4 54.4889 30.824 54.1249 31.627C54.0709 31.744 54.0039 34.249 53.9739 37.193L53.9199 42.547L51.3149 39.294C48.0479 35.213 47.6959 34.885 46.1599 34.491C44.8509 34.155 43.4299 34.463 42.3109 35.325C42.0669 35.514 40.9509 36.57 39.8309 37.674C38.2689 39.213 37.7329 39.68 37.5259 39.68C37.1629 39.68 37.0529 39.556 31.9999 33.493C29.6279 30.648 27.4489 28.091 27.1569 27.81C25.3789 26.102 22.7329 26.06 20.8929 27.711C20.5859 27.988 18.0149 30.917 15.1809 34.22L10.0269 40.228L10.0279 28.14C10.0299 18.45 10.0579 15.934 10.1719 15.449C10.4009 14.479 11.1789 13.605 12.1599 13.218C12.4649 13.097 14.3779 13.06 22.5599 13.015C33.7359 12.954 32.9449 13.011 33.5519 12.216C34.2909 11.247 33.9989 9.80997 32.9549 9.27797C32.5519 9.07197 32.3029 9.06697 22.5909 9.07597C14.9169 9.08397 12.4689 9.11797 11.8929 9.22497ZM39.4599 16.42C38.9879 16.566 38.7369 16.738 38.4469 17.119C38.2675 17.3483 38.1421 17.6151 38.0801 17.8995C38.0181 18.184 38.0211 18.4788 38.0889 18.762C38.2289 19.384 38.5339 19.793 39.0759 20.082L39.5199 20.32H56.4799L56.9239 20.082C58.0029 19.506 58.3009 18.099 57.5519 17.117C56.9479 16.326 57.5559 16.375 48.1599 16.355C43.5249 16.344 39.6109 16.374 39.4599 16.42ZM29.1109 36.256C31.7369 39.402 34.1359 42.201 34.4419 42.476C35.8879 43.776 37.8209 44.045 39.5629 43.187C40.1229 42.911 40.6719 42.434 42.5729 40.572C43.9619 39.21 44.9799 38.293 45.1019 38.293C45.3949 38.293 45.7189 38.672 50.0039 44.025C52.5849 47.249 53.8669 48.932 53.8669 49.098C53.8669 49.489 53.3549 50.412 52.9319 50.784C52.1379 51.481 51.8209 51.553 49.1729 51.638C46.0519 51.739 17.9479 51.739 14.8269 51.638C12.7429 51.571 12.3629 51.532 11.9409 51.342C11.2591 51.0455 10.7065 50.5139 10.3839 49.844C10.1199 49.304 10.0899 49.119 10.0549 47.798L10.0159 46.347L16.4229 38.88C19.9479 34.773 23.0639 31.188 23.3479 30.913C23.7449 30.528 23.9189 30.427 24.1009 30.474C24.2439 30.512 26.2159 32.788 29.1109 36.256Z" fill="#222222"/>
</svg>
