<svg width="64" height="64" viewBox="0 0 64 64" fill="none" xmlns="http://www.w3.org/2000/svg">
<path fill-rule="evenodd" clip-rule="evenodd" d="M11.8929 9.22406C10.8809 9.41306 10.3739 9.60306 9.50692 10.1181C8.04392 10.9871 6.78292 12.6411 6.36892 14.2351C6.00592 15.6351 5.95892 18.1401 6.00392 33.8431C6.04092 46.9941 6.06892 49.1201 6.21192 49.8131C6.83092 52.8171 9.00192 54.9241 12.0529 55.4811C13.2399 55.6971 50.7619 55.6971 51.9469 55.4801C53.5319 55.1911 54.7609 54.5611 55.8339 53.4871C56.9669 52.3541 57.4789 51.3221 57.8049 49.5161C58.0039 48.4081 58.0129 47.7481 58.0199 33.3271C58.0229 25.0401 57.9809 17.5511 57.9259 16.6401C57.8039 14.6441 57.5879 13.7501 56.9619 12.6551C56.0749 11.1061 54.4879 9.85306 52.7729 9.34806L51.9999 9.12006L32.3199 9.10206C16.4989 9.08806 12.4939 9.11106 11.8929 9.22406ZM51.8399 13.2161C52.9199 13.6471 53.6799 14.5661 53.8609 15.6601C53.9439 16.1611 53.9699 20.2751 53.9489 29.4601L53.9199 42.5461L51.3149 39.2931C48.0479 35.2131 47.6959 34.8851 46.1599 34.4911C44.8509 34.1551 43.4299 34.4631 42.3109 35.3251C42.0669 35.5141 40.9509 36.5701 39.8309 37.6741C38.2689 39.2131 37.7329 39.6801 37.5259 39.6801C37.1629 39.6801 37.0529 39.5561 31.9999 33.4931C29.6279 30.6481 27.4489 28.0911 27.1569 27.8101C25.3789 26.1021 22.7329 26.0601 20.8929 27.7111C20.5859 27.9881 18.0149 30.9171 15.1809 34.2201L10.0269 40.2281V28.2561C10.0269 20.0591 10.0639 16.0731 10.1439 15.6131C10.2833 14.85 10.7014 14.166 11.3169 13.6941C11.7619 13.3601 12.0709 13.2311 12.6929 13.1211C12.9569 13.0751 21.7889 13.0431 32.3199 13.0521C48.4439 13.0641 51.5259 13.0901 51.8399 13.2161ZM38.3639 19.9901C37.5709 20.3221 36.9849 20.7291 36.5139 21.2751C35.7379 22.1741 35.4129 23.0451 35.3979 24.2671C35.3799 25.7141 35.8119 26.7391 36.8549 27.7261C38.5779 29.3551 41.3779 29.3811 43.0859 27.7841C43.7509 27.1621 44.2179 26.4411 44.4409 25.6961C44.6449 25.0101 44.6519 23.5991 44.4529 22.9871C44.248 22.3674 43.9208 21.7951 43.4907 21.3042C43.0606 20.8132 42.5363 20.4136 41.9489 20.1291C41.2999 19.8211 41.1139 19.7841 40.1069 19.7581C39.1209 19.7321 38.9119 19.7601 38.3639 19.9901ZM40.4449 23.8571C40.6879 24.0761 40.6969 24.5071 40.4629 24.7651C40.0969 25.1701 39.3599 24.8851 39.3599 24.3391C39.3583 24.2127 39.3938 24.0887 39.462 23.9823C39.5302 23.8759 39.6281 23.7919 39.7436 23.7406C39.8591 23.6893 39.9871 23.673 40.1117 23.6937C40.2364 23.7144 40.3522 23.7712 40.4449 23.8571ZM29.1109 36.2561C31.7369 39.4021 34.1359 42.2011 34.4419 42.4761C35.8879 43.7761 37.8209 44.0451 39.5629 43.1871C40.1229 42.9111 40.6719 42.4341 42.5729 40.5721C43.9619 39.2101 44.9799 38.2931 45.1019 38.2931C45.3949 38.2931 45.7189 38.6721 50.0039 44.0251C52.5849 47.2491 53.8669 48.9321 53.8669 49.0981C53.8669 49.4891 53.3549 50.4121 52.9319 50.7841C52.1379 51.4811 51.8209 51.5531 49.1729 51.6381C46.0519 51.7391 17.9479 51.7391 14.8269 51.6381C12.7429 51.5711 12.3629 51.5321 11.9409 51.3421C11.2591 51.0456 10.7065 50.514 10.3839 49.8441C10.1199 49.3041 10.0899 49.1191 10.0549 47.7981L10.0159 46.3471L16.4229 38.8801C19.9479 34.7731 23.0639 31.1881 23.3479 30.9131C23.7449 30.5281 23.9189 30.4271 24.1009 30.4741C24.2439 30.5121 26.2159 32.7881 29.1109 36.2561Z" fill="#222222"/>
</svg>
