<svg width="64" height="64" viewBox="0 0 64 64" fill="none" xmlns="http://www.w3.org/2000/svg">
<path fill-rule="evenodd" clip-rule="evenodd" d="M5.58498 6.075C4.65398 6.296 4.05298 7.049 4.05298 7.993C4.05298 8.296 4.13098 8.698 4.22698 8.885C4.32198 9.073 5.09398 9.929 5.94298 10.788L7.48698 12.349L7.28998 13.188C7.10298 13.984 7.09298 14.881 7.09298 30.987C7.09298 47.08 7.10298 47.989 7.28998 48.784C7.87898 51.296 9.79798 53.28 12.336 54.001L13.173 54.239L30.896 54.269L48.618 54.298L50.192 55.954C51.057 56.865 51.865 57.663 51.987 57.728C52.639 58.077 53.603 58.016 54.205 57.587C54.88 57.106 55.151 55.837 54.742 55.073C54.496 54.613 47.199 47.024 35.84 35.415C23.386 22.686 7.25398 6.406 6.93998 6.246C6.55898 6.054 5.98098 5.981 5.58498 6.075ZM18.187 7.882C17.693 8.109 17.342 8.46 17.18 8.887C17.018 9.315 17.04 10.199 17.221 10.549C17.449 10.99 18.079 11.501 18.478 11.569C18.67 11.602 26.339 11.642 35.52 11.657C54.649 11.688 52.903 11.592 53.989 12.678C55.062 13.751 54.975 12.463 55.015 27.889C55.034 35.279 55.013 41.289 54.968 41.243C54.0444 40.1127 53.1271 38.9774 52.216 37.837C49.441 34.381 48.732 33.658 47.798 33.331C46.564 32.898 45.16 32.944 44.304 33.445C43.103 34.147 43.13 36.055 44.35 36.77C44.771 37.016 44.95 37.055 45.617 37.042L46.394 37.027L46.967 37.687C47.282 38.05 49.363 40.628 51.592 43.416C53.82 46.204 55.784 48.577 55.955 48.69C56.134 48.808 56.519 48.914 56.862 48.939C57.626 48.995 58.23 48.706 58.64 48.086L58.933 47.642L58.966 31.634C58.988 20.469 58.962 15.272 58.879 14.454C58.682 12.494 58.109 11.171 56.923 9.934C55.739 8.7 54.253 8.004 52.351 7.794C51.659 7.718 45.893 7.681 34.964 7.682C19.296 7.685 18.596 7.693 18.187 7.882ZM21.172 26.219L21.581 26.677L21.152 27.125C20.916 27.372 18.556 30.105 15.907 33.2C13.258 36.295 11.067 38.827 11.038 38.827C11.01 38.827 10.987 33.665 10.987 27.356V15.886L15.875 20.823C18.563 23.538 20.947 25.966 21.172 26.219ZM40.019 18.454C39.263 18.614 38.49 19.025 37.862 19.6C36.884 20.495 36.377 21.654 36.374 22.994C36.369 26.515 40.032 28.71 43.208 27.089C43.872 26.751 44.867 25.712 45.178 25.034C45.71 23.872 45.77 22.458 45.337 21.317C44.909 20.191 43.796 19.086 42.651 18.651C42.023 18.412 40.687 18.312 40.019 18.454ZM41.445 22.555C41.764 22.875 41.772 23.035 41.486 23.399C41.22 23.737 40.831 23.764 40.533 23.467C40.236 23.169 40.263 22.78 40.601 22.514C40.965 22.228 41.125 22.236 41.445 22.555ZM30.834 36.027C41.342 46.764 44.529 50.04 44.62 50.2C44.695 50.332 42.609 50.348 29.207 50.322C11.502 50.288 13.027 50.374 11.993 49.34C11.282 48.629 11.102 48.072 11.028 46.347L10.973 45.067L16.746 38.347C24.135 29.745 24.308 29.547 24.409 29.547C24.455 29.547 27.346 32.463 30.834 36.027Z" fill="#222222"/>
</svg>
