<svg width="64" height="64" viewBox="0 0 64 64" fill="none" xmlns="http://www.w3.org/2000/svg">
<path fill-rule="evenodd" clip-rule="evenodd" d="M46.5251 8.12295C44.6421 8.39295 42.6181 9.38595 41.1541 10.759C36.1291 15.474 37.3871 23.885 43.5731 26.932C45.1821 27.725 45.9471 27.891 48.0001 27.891C49.5091 27.891 49.8811 27.856 50.6131 27.648C56.4591 25.986 59.4951 19.711 57.1761 14.085C55.4911 9.99995 50.9951 7.48295 46.5251 8.12295ZM12.2131 9.82495C9.42808 10.234 7.06808 12.272 6.38108 14.863C6.26708 15.295 6.13608 16.321 6.07908 17.227C5.94808 19.314 5.94908 46.719 6.07908 48.8C6.23208 51.23 6.59808 52.307 7.74208 53.694C8.73608 54.898 10.1051 55.726 11.6851 56.078C12.4801 56.255 13.7671 56.267 32.0001 56.267C50.2331 56.267 51.5201 56.255 52.3151 56.078C54.2821 55.64 55.8791 54.489 56.9381 52.747C57.3661 52.043 57.6521 51.159 57.8551 49.92C57.9961 49.057 58.0171 47.689 57.9971 40.693L57.9731 32.48L57.7281 32.052C57.3351 31.366 56.8431 31.093 56.0001 31.093C55.1571 31.093 54.6651 31.366 54.2721 32.052C54.0271 32.48 54.0271 32.486 53.9731 37.845L53.9201 43.209L51.2001 39.819C48.2441 36.134 47.6781 35.578 46.5301 35.235C45.7011 34.987 44.3701 34.988 43.6531 35.236C42.8111 35.529 41.9941 36.19 39.7321 38.409C38.6021 39.519 37.5951 40.427 37.4941 40.427C37.2391 40.427 37.1781 40.357 32.1621 34.347C29.6891 31.384 27.3931 28.712 27.0591 28.408C25.7411 27.207 24.1251 26.865 22.4161 27.425C21.3311 27.78 20.9331 28.189 15.4421 34.602C13.6889 36.6534 11.9312 38.7011 10.1691 40.745C9.94408 40.987 10.0121 16.357 10.2381 15.747C10.4211 15.252 11.2071 14.35 11.6611 14.116C12.4231 13.721 12.5301 13.717 22.6841 13.658L32.7271 13.6L33.1371 13.269C33.7231 12.795 33.9501 12.353 33.9501 11.686C33.9501 10.997 33.6431 10.4 33.0961 10.025L32.7091 9.75996L22.7811 9.74596C17.3211 9.73796 12.5651 9.77295 12.2131 9.82495ZM49.4901 12.175C51.4051 12.588 53.2851 14.469 53.8141 16.502C54.0221 17.298 54.0171 18.734 53.8041 19.555C53.4801 20.808 53.8701 21.069 49.4281 16.628C47.2351 14.435 45.4401 12.614 45.4401 12.582C45.4401 12.472 46.5261 12.13 47.1331 12.048C47.7831 11.961 48.7321 12.012 49.4901 12.175ZM50.4781 23.477C50.4351 23.516 50.1361 23.637 49.8131 23.746C48.9901 24.025 47.0101 24.026 46.1871 23.746C45.2451 23.427 44.4761 22.938 43.7331 22.186C42.5581 20.995 42.0271 19.694 42.0271 18.007C42.0271 17.147 42.2191 16.118 42.4661 15.657C42.5731 15.456 42.9181 15.772 46.5691 19.422C48.7611 21.614 50.5201 23.439 50.4781 23.477ZM24.7091 31.707C25.0081 32.015 27.1691 34.571 29.5141 37.387C33.8621 42.611 34.7111 43.531 35.5331 43.915C36.9351 44.57 38.6031 44.488 39.8391 43.704C40.1331 43.517 41.3161 42.444 42.4681 41.319C43.6191 40.195 44.6871 39.192 44.8411 39.092C45.1001 38.922 45.1391 38.921 45.3851 39.082C45.8161 39.365 53.8671 49.487 53.8661 49.745C53.8641 50.159 53.3751 51.033 52.9121 51.45C52.2881 52.013 51.8921 52.155 50.6311 52.268C49.2111 52.396 14.7891 52.396 13.3691 52.268C12.0931 52.153 11.6971 52.008 11.0591 51.419C10.3131 50.732 10.1091 50.134 10.0491 48.468L10.0001 47.069L16.4281 39.561C19.9631 35.432 23.0511 31.849 23.2901 31.6C23.5291 31.351 23.8241 31.147 23.9461 31.147C24.0731 31.147 24.3981 31.385 24.7091 31.707Z" fill="#222222"/>
</svg>
