<svg width="64" height="64" viewBox="0 0 64 64" fill="none" xmlns="http://www.w3.org/2000/svg">
<path fill-rule="evenodd" clip-rule="evenodd" d="M44.058 7.155C43.161 7.314 41.793 7.82 40.936 8.31C38.47 9.722 36.784 12.086 36.204 14.947C35.99 16.002 36.048 18.25 36.313 19.209C38.011 25.352 44.801 28.341 50.345 25.386L51.142 24.961L54.025 27.834C55.61 29.414 57.042 30.758 57.207 30.82C57.601 30.969 58.513 30.965 58.807 30.814C59.151 30.637 59.625 30.173 59.796 29.845C59.998 29.46 59.987 28.55 59.776 28.128C59.683 27.94 58.341 26.515 56.796 24.96L53.986 22.133L54.5 21.095C55.356 19.364 55.669 17.623 55.462 15.744C55.024 11.765 52.339 8.559 48.48 7.408C47.69 7.172 47.264 7.115 46.08 7.087C45.288 7.068 44.378 7.098 44.058 7.155ZM9.795 10.775C7.969 10.949 6.595 11.526 5.36199 12.634C4.67599 13.251 3.87799 14.436 3.56699 15.297C3.02899 16.787 3.04 16.396 3.04 34.027C3.04 51.573 3.032 51.29 3.548 52.693C4.278 54.68 6.151 56.383 8.269 56.985L9.12 57.227L28.427 57.258C42.03 57.279 48.001 57.254 48.64 57.171C50.948 56.872 52.782 55.675 53.952 53.703C54.676 52.482 54.833 51.677 54.937 48.64C55.065 44.885 55.063 34.388 54.933 33.704C54.678 32.363 53.402 31.658 52.209 32.2C51.683 32.439 51.245 32.939 51.098 33.47C51.029 33.718 50.988 35.823 50.987 39.079V44.292L48.392 41.053C46.965 39.271 45.502 37.541 45.142 37.209C44.192 36.332 43.565 36.107 42.077 36.107C40.273 36.107 40.027 36.255 37.096 39.107C35.483 40.676 34.68 41.387 34.518 41.387C34.196 41.387 34.095 41.273 29.22 35.413C24.632 29.899 24.021 29.22 23.228 28.757C21.727 27.88 19.71 27.992 18.308 29.03C17.632 29.531 17.373 29.822 11.413 36.78L7.093 41.824L7.04 31.499C7.011 25.82 7.013 20.261 7.046 19.147C7.099 17.355 7.134 17.057 7.346 16.575C7.623 15.947 8.17699 15.373 8.82699 15.038C9.52599 14.679 11.113 14.623 20.832 14.618C30.458 14.613 29.845 14.657 30.489 13.923C30.894 13.463 30.974 13.18 30.911 12.429C30.853 11.723 30.46 11.159 29.826 10.871C29.407 10.681 28.955 10.672 20 10.684C14.837 10.691 10.245 10.732 9.795 10.775ZM47.069 11.143C48.098 11.362 48.998 11.877 49.867 12.746C51.039 13.92 51.516 15.093 51.519 16.807C51.521 18.445 51.018 19.661 49.854 20.83C48.683 22.007 47.387 22.539 45.712 22.528C44.017 22.518 42.672 21.912 41.503 20.632C40.5106 19.5557 39.9717 18.1381 39.9983 16.6743C40.025 15.2106 40.6151 13.8135 41.646 12.774C43.15 11.255 44.987 10.702 47.069 11.143ZM21.563 32.507C21.772 32.727 23.986 35.36 26.484 38.359C28.982 41.358 31.233 43.992 31.486 44.212C32.276 44.9 33.187 45.263 34.249 45.314C36.103 45.403 36.794 44.998 39.759 42.091C41.09 40.786 41.972 40 42.105 40C42.222 40 42.53 40.228 42.791 40.507C43.787 41.574 50.88 50.543 50.878 50.733C50.874 51.087 50.453 51.881 50.047 52.302C49.532 52.838 49.032 53.086 48.2 53.221C47.344 53.36 10.804 53.372 9.849 53.234C9.008 53.112 8.538 52.885 7.984 52.335C7.266 51.62 7.11699 51.16 7.062 49.489L7.01399 48.045L13.793 40.141C17.521 35.793 20.635 32.211 20.712 32.18C21.023 32.056 21.2 32.124 21.563 32.507Z" fill="#222222"/>
</svg>
