<svg width="64" height="64" viewBox="0 0 64 64" fill="none" xmlns="http://www.w3.org/2000/svg">
<path fill-rule="evenodd" clip-rule="evenodd" d="M52.747 6.08901C51.289 6.30401 49.71 7.45201 48.982 8.82601C48.614 9.51901 48.325 10.63 48.322 11.362L48.32 11.791L46.1 12.897L43.881 14.002L43.354 13.634C41.738 12.506 39.648 12.377 37.839 13.294C37.032 13.703 35.947 14.835 35.538 15.694C33.718 19.518 36.895 23.845 41.085 23.251C41.917 23.133 42.869 22.752 43.49 22.289L43.885 21.995L46.102 23.105L48.32 24.214V24.621C48.32 25.336 48.542 26.273 48.879 26.987C49.279 27.831 50.37 28.966 51.172 29.373C53.869 30.739 57.097 29.699 58.406 27.04C59.401 25.02 59.103 22.791 57.612 21.104C55.862 19.123 52.772 18.78 50.598 20.325L50.102 20.678L47.877 19.565L45.653 18.452V17.543L47.874 16.436L50.095 15.33L50.649 15.711C52.39 16.909 54.869 16.942 56.587 15.791C57.266 15.336 58.047 14.443 58.407 13.708C60.34 9.76501 57.127 5.44001 52.747 6.08901ZM54.491 10.297C55.129 10.834 55.177 11.687 54.601 12.263C54.4209 12.4501 54.1887 12.5788 53.9346 12.6323C53.6805 12.6858 53.4161 12.6616 53.1759 12.563C52.9357 12.4643 52.7307 12.2957 52.5875 12.079C52.4443 11.8624 52.3696 11.6077 52.373 11.348C52.373 10.531 52.878 10.039 53.725 10.031C54.05 10.028 54.257 10.1 54.491 10.297ZM11.765 10.78C10.546 10.898 9.68599 11.139 8.82299 11.603C7.32599 12.407 6.02299 13.931 5.49999 15.489C5.01199 16.944 4.99699 17.569 5.03999 34.827C5.08499 52.89 5.03599 51.727 5.82199 53.294C6.27773 54.1945 6.91509 54.9909 7.69389 55.6329C8.47269 56.2748 9.37604 56.7485 10.347 57.024C11.01 57.215 11.868 57.225 30.4 57.256C43.677 57.278 50.034 57.253 50.631 57.175C52.401 56.944 53.656 56.327 54.88 55.087C55.745 54.211 56.32 53.211 56.666 51.984C56.9 51.155 56.902 51.056 56.935 42.362L56.968 33.578L56.738 33.102C56.397 32.398 55.819 32.053 54.984 32.055C54.229 32.057 53.758 32.309 53.324 32.942L53.067 33.317L53.013 38.787L52.96 44.257L50.564 41.259C49.246 39.61 47.931 38.001 47.641 37.684C46.596 36.541 45.557 36.053 44.163 36.053C42.419 36.053 41.706 36.489 38.843 39.304C37.565 40.56 36.642 41.387 36.518 41.387C36.209 41.387 35.715 40.829 31.031 35.2C26.613 29.891 26.076 29.289 25.336 28.821C24.104 28.041 22.233 27.954 20.951 28.617C20.122 29.046 19.192 30.042 14.334 35.707C11.48 39.036 9.10099 41.777 9.04699 41.797C8.98799 41.82 8.96299 37.004 8.98499 29.637C9.02499 15.86 8.96399 16.813 9.86999 15.805C10.599 14.994 11.051 14.821 12.723 14.714C13.499 14.664 18.035 14.62 22.803 14.618C32.347 14.613 31.882 14.645 32.503 13.938C33.32 13.008 32.992 11.438 31.867 10.893C31.401 10.667 31.375 10.667 22.02 10.681C16.861 10.689 12.246 10.734 11.765 10.78ZM40.956 16.836C41.776 17.276 41.905 18.277 41.229 18.952C40.942 19.24 40.791 19.307 40.432 19.307C39.572 19.307 39.04 18.808 39.04 18.001C39.04 17.476 39.239 17.138 39.719 16.845C40.139 16.588 40.489 16.586 40.956 16.836ZM54.491 23.63C55.129 24.167 55.177 25.02 54.601 25.596C54.4209 25.7831 54.1887 25.9118 53.9346 25.9653C53.6805 26.0188 53.4161 25.9946 53.1759 25.896C52.9357 25.7973 52.7307 25.6287 52.5875 25.412C52.4443 25.1954 52.3696 24.9407 52.373 24.681C52.373 23.864 52.878 23.372 53.725 23.364C54.05 23.361 54.257 23.433 54.491 23.63ZM23.554 32.507C23.762 32.727 25.85 35.211 28.194 38.027C30.537 40.843 32.725 43.425 33.054 43.765C34.238 44.986 35.242 45.397 36.824 45.307C38.38 45.218 38.739 44.986 41.516 42.279C43.149 40.686 43.924 40 44.091 40C44.228 40 44.492 40.17 44.711 40.4C45.069 40.776 52.662 50.244 52.84 50.536C52.973 50.754 52.611 51.667 52.201 52.146C51.673 52.762 51.06 53.09 50.186 53.225C49.031 53.402 11.707 53.322 11.178 53.141C10.572 52.934 9.79199 52.256 9.46299 51.65C9.22499 51.212 9.14499 50.884 9.06599 50.005C9.01199 49.401 8.96599 48.727 8.96399 48.507C8.95999 48.131 9.32499 47.681 15.057 40.987C22.357 32.462 22.674 32.107 22.957 32.107C23.077 32.107 23.345 32.287 23.554 32.507Z" fill="#222222"/>
</svg>
