<svg width="64" height="64" viewBox="0 0 64 64" fill="none" xmlns="http://www.w3.org/2000/svg">
<path fill-rule="evenodd" clip-rule="evenodd" d="M39.254 8.17C38.8086 8.35648 38.4414 8.69146 38.215 9.118C37.994 9.542 38.005 10.423 38.236 10.882C38.339 11.086 39.941 12.778 41.797 14.641L45.17 18.028L41.743 21.467C39.858 23.359 38.256 25.024 38.183 25.168C37.781 25.958 38.206 27.252 39.017 27.708C39.531 27.996 40.384 28.027 40.885 27.775C41.073 27.681 42.751 26.086 44.613 24.231L48 20.858L51.387 24.231C53.249 26.086 54.927 27.681 55.115 27.775C55.994 28.217 57.213 27.842 57.696 26.982C57.983 26.473 58.041 25.606 57.817 25.168C57.744 25.024 56.142 23.359 54.257 21.467L50.83 18.028L54.203 14.641C56.059 12.778 57.661 11.086 57.764 10.882C57.995 10.423 58.006 9.542 57.785 9.118C57.456 8.484 56.683 8 56 8C55.268 8 54.922 8.285 51.44 11.763L48 15.199L44.56 11.763C42.25 9.456 40.99 8.274 40.723 8.164C40.4913 8.06257 40.2409 8.0107 39.9879 8.01174C39.7349 8.01277 39.4849 8.06668 39.254 8.17ZM13.333 8.749C11.885 8.835 10.901 9.047 10.103 9.446C8.00502 10.496 6.64702 12.305 6.17602 14.679C6.00602 15.538 5.91302 45.015 6.07202 47.616C6.19702 49.654 6.35702 50.399 6.89002 51.416C7.56482 52.713 8.6228 53.7706 9.92002 54.445C10.905 54.961 11.771 55.153 13.6 55.26C14.48 55.311 22.76 55.353 32 55.353C41.24 55.353 49.52 55.311 50.4 55.26C52.229 55.153 53.095 54.961 54.08 54.445C56.12 53.375 57.389 51.597 57.801 49.227C57.989 48.148 58.007 47.414 58.021 40.107C58.033 34.449 58.002 31.995 57.914 31.589C57.533 29.819 55.242 29.459 54.274 31.015L54.027 31.413L53.995 36.832L53.964 42.251L51.506 39.179C48.14 34.972 47.722 34.57 46.321 34.183C45.249 33.887 44.157 33.997 43.132 34.504C42.404 34.863 42.05 35.165 40.043 37.135C38.32 38.826 37.713 39.36 37.511 39.36C37.175 39.36 36.96 39.117 31.837 32.96C29.617 30.291 27.531 27.843 27.202 27.52C26.101 26.438 24.626 25.961 23.195 26.225C22.272 26.395 21.621 26.731 20.849 27.434C20.508 27.745 17.945 30.661 15.154 33.914L10.08 39.828L10.051 37.701C10.034 36.531 10.034 30.965 10.051 25.333C10.08 15.112 10.08 15.092 10.309 14.597C10.602 13.964 11.297 13.269 11.931 12.976C12.424 12.748 12.475 12.746 22.453 12.693C32.013 12.642 32.499 12.631 32.886 12.438C34.264 11.754 34.32 9.771 32.985 8.941L32.587 8.693L23.627 8.682C18.699 8.675 14.067 8.705 13.333 8.749ZM24.22 30.19C24.333 30.251 26.476 32.759 28.982 35.764C34.045 41.836 34.37 42.202 35.09 42.665C36.067 43.291 37.478 43.504 38.693 43.208C39.614 42.984 40.473 42.322 42.735 40.092C44.007 38.838 44.967 37.973 45.086 37.973C45.4 37.973 45.883 38.535 50.021 43.715L53.883 48.55L53.813 48.963C53.677 49.764 52.905 50.65 51.973 51.072C51.602 51.241 50.189 51.253 32 51.253H12.427L11.931 51.024C11.292 50.729 10.598 50.031 10.317 49.403C10.139 49.002 10.088 48.629 10.053 47.467L10.01 46.027L16.367 38.613C22.138 31.885 23.74 30.08 23.944 30.08C24.041 30.1026 24.1341 30.1397 24.22 30.19Z" fill="#222222"/>
</svg>
