<svg width="64" height="64" viewBox="0 0 64 64" fill="none" xmlns="http://www.w3.org/2000/svg">
<path fill-rule="evenodd" clip-rule="evenodd" d="M54.667 7.19105C54.051 7.46605 53.547 8.19405 53.547 8.80705C53.547 8.95005 53.517 9.06705 53.48 9.06705C53.443 9.06705 52.999 8.90205 52.493 8.70105C51.212 8.19205 50.098 7.98605 48.64 7.98905C44.026 8.00005 40.098 11.1971 39.194 15.6771C38.956 16.8511 39.031 18.909 39.349 19.9871C40.141 22.666 41.912 24.7561 44.427 25.979C45.9 26.696 46.987 26.927 48.853 26.92C50.219 26.916 50.512 26.8811 51.36 26.625C53.356 26.0231 54.972 25.007 56.144 23.619C56.93 22.686 57.173 22.2131 57.173 21.6111C57.173 21.0131 57.026 20.618 56.66 20.2301C56.24 19.7871 55.866 19.6271 55.248 19.6271C54.464 19.6271 54.05 19.8691 53.329 20.7521C52.306 22.0031 51.052 22.7121 49.462 22.9381C48.6 23.0601 48.044 23.0091 47.031 22.7151C46.044 22.4291 45.381 22.033 44.638 21.286C43.318 19.96 42.746 18.1401 43.103 16.4051C43.515 14.4061 45.239 12.6531 47.322 12.1161C48.013 11.9371 49.493 11.884 49.493 12.037C49.493 12.086 49.392 12.2181 49.269 12.33C48.725 12.8231 48.537 13.9021 48.882 14.5621C49.098 14.9761 49.576 15.4241 49.954 15.5671C50.138 15.6361 51.346 15.6801 53.093 15.6801C55.769 15.6801 55.96 15.6671 56.4 15.4541C56.682 15.3171 56.981 15.055 57.154 14.7951L57.44 14.3621V8.35805L57.147 7.91405C56.632 7.13705 55.516 6.81205 54.667 7.19105ZM12.213 9.82505C9.42802 10.234 7.06802 12.272 6.38102 14.863C6.26702 15.295 6.13602 16.321 6.07902 17.227C5.94802 19.314 5.94902 46.719 6.07902 48.8C6.23202 51.23 6.59802 52.307 7.74202 53.694C8.73602 54.898 10.105 55.726 11.685 56.078C12.48 56.255 13.767 56.267 32 56.267C50.233 56.267 51.52 56.255 52.315 56.078C54.282 55.64 55.879 54.4891 56.938 52.7471C57.366 52.0431 57.652 51.159 57.855 49.92C57.996 49.057 58.017 47.689 57.997 40.6931L57.973 32.48L57.728 32.052C57.335 31.366 56.843 31.0931 56 31.0931C55.157 31.0931 54.665 31.366 54.272 32.052C54.027 32.48 54.027 32.486 53.973 37.8451L53.92 43.209L51.2 39.819C48.244 36.1341 47.678 35.5781 46.53 35.2351C45.701 34.9871 44.37 34.9881 43.653 35.236C42.811 35.529 41.994 36.1901 39.732 38.409C38.602 39.5191 37.595 40.427 37.494 40.427C37.239 40.427 37.178 40.357 32.162 34.347C29.689 31.3841 27.393 28.7121 27.059 28.4081C25.741 27.2071 24.125 26.865 22.416 27.425C21.331 27.78 20.933 28.1891 15.442 34.6021C13.6888 36.6535 11.9311 38.7012 10.169 40.745C9.94402 40.987 10.012 16.357 10.238 15.7471C10.421 15.2521 11.207 14.3501 11.661 14.1161C12.423 13.7211 12.53 13.7171 22.684 13.6581L32.727 13.6001L33.137 13.2691C33.723 12.7951 33.95 12.353 33.95 11.686C33.95 10.997 33.643 10.4 33.096 10.025L32.709 9.76005L22.781 9.74605C17.321 9.73805 12.565 9.77305 12.213 9.82505ZM24.709 31.7071C25.008 32.0151 27.169 34.5711 29.514 37.3871C33.862 42.611 34.711 43.5311 35.533 43.9151C36.935 44.57 38.603 44.488 39.839 43.704C40.133 43.517 41.316 42.444 42.468 41.319C43.619 40.195 44.687 39.192 44.841 39.092C45.1 38.922 45.139 38.9211 45.385 39.0821C45.816 39.3651 53.867 49.487 53.866 49.745C53.864 50.159 53.375 51.0331 52.912 51.4501C52.288 52.0131 51.892 52.1551 50.631 52.2681C49.211 52.396 14.789 52.396 13.369 52.2681C12.093 52.153 11.697 52.008 11.059 51.419C10.313 50.732 10.109 50.134 10.049 48.468L10 47.069L16.428 39.5611C19.963 35.4321 23.051 31.8491 23.29 31.6C23.529 31.351 23.824 31.147 23.946 31.147C24.073 31.147 24.398 31.385 24.709 31.7071Z" fill="#222222"/>
</svg>
