<svg width="64" height="64" viewBox="0 0 64 64" fill="none" xmlns="http://www.w3.org/2000/svg">
<path fill-rule="evenodd" clip-rule="evenodd" d="M16.3201 6.08498C14.6471 6.18998 13.7101 6.43498 12.6491 7.04198C11.0551 7.95398 9.8011 9.57098 9.3611 11.283C9.2441 11.736 9.1381 12.119 9.1261 12.133C9.1131 12.148 8.7241 12.256 8.2601 12.375C6.2571 12.887 4.3421 14.589 3.5811 16.533C3.0431 17.908 3.0601 17.385 3.0141 34.187C2.9691 51.042 2.9971 52.253 3.4641 53.73C3.9651 55.315 5.1021 56.71 6.6391 57.622C7.5441 58.16 8.4581 58.422 9.9191 58.56C11.4521 58.706 46.5921 58.704 48.1271 58.558C48.7551 58.499 49.5951 58.351 49.9941 58.23C52.2141 57.556 54.1291 55.52 54.6691 53.261L54.8521 52.494L55.2931 52.421C57.4951 52.055 59.7361 50.101 60.4781 47.901C61.0321 46.254 61.0241 46.559 60.9831 28.907C60.9421 11.324 60.9611 11.927 60.4151 10.56C59.7141 8.80298 58.1921 7.27998 56.4271 6.56998C55.0881 6.03098 55.6871 6.04698 36.0001 6.02298C25.9091 6.01098 17.0531 6.03798 16.3201 6.08498ZM55.0451 10.305C55.7551 10.633 56.2721 11.134 56.6091 11.821L56.9071 12.427L56.9311 26.08L56.9561 39.733L56.6821 39.413C56.5321 39.237 56.1071 38.756 55.7391 38.344L55.0701 37.594L55.0081 28.264C54.9701 22.416 54.9041 18.655 54.8321 18.187C54.6691 17.136 54.4441 16.488 53.9431 15.627C52.8161 13.692 50.9871 12.483 48.7121 12.169C48.1431 12.09 42.3991 12.053 30.6061 12.053C16.8571 12.053 13.3341 12.026 13.3361 11.92C13.3411 11.695 13.9371 10.982 14.4131 10.632C14.7312 10.4168 15.0855 10.2609 15.4591 10.172C15.9131 10.073 20.5991 10.047 35.3071 10.061L54.5601 10.08L55.0451 10.305ZM48.2001 16.112C48.5731 16.173 49.0531 16.312 49.2661 16.422C49.8101 16.703 50.4001 17.346 50.6881 17.973L50.9331 18.507L50.9631 32.052C50.9881 43.59 50.9701 45.574 50.8451 45.439C49.9262 44.3147 49.0152 43.184 48.1121 42.047C45.3911 38.644 44.7941 38.042 43.7501 37.65C42.9391 37.345 41.8001 37.271 41.0321 37.474C39.9561 37.757 39.3201 38.237 37.0031 40.507C35.7901 41.695 34.7331 42.672 34.6531 42.679C34.3351 42.707 34.1781 42.645 33.9731 42.412C33.8561 42.279 31.7171 39.725 29.2191 36.738C26.7221 33.751 24.3941 31.047 24.0461 30.729C23.2991 30.047 22.6041 29.706 21.6551 29.554C20.2951 29.337 18.9741 29.74 17.9071 30.698C17.5991 30.974 15.0291 33.903 12.1951 37.206L7.0421 43.212L7.0141 32.833C6.9991 27.124 7.0131 21.541 7.0441 20.427C7.1101 18.116 7.2031 17.776 7.9841 16.998C8.5161 16.469 9.0241 16.213 9.7521 16.106C10.6251 15.978 47.4081 15.983 48.2001 16.112ZM35.6801 22.87C32.3071 23.939 31.2561 28.118 33.7321 30.612C35.8051 32.7 39.3121 32.31 40.9081 29.813C41.4691 28.934 41.6301 28.289 41.5821 27.11C41.5461 26.233 41.4911 25.975 41.2091 25.375C40.9249 24.7795 40.5202 24.2495 40.0204 23.8186C39.5207 23.3878 38.9369 23.0654 38.3061 22.872C37.7011 22.688 36.2561 22.687 35.6801 22.87ZM37.4161 26.833C37.7051 27.035 37.7321 27.523 37.4671 27.761C37.0091 28.17 36.3731 27.922 36.3731 27.334C36.3731 26.759 36.9291 26.492 37.4161 26.833ZM21.7231 34.053C22.0211 34.361 24.1841 36.917 26.5291 39.733C28.8741 42.549 31.0641 45.108 31.3961 45.419C32.4761 46.432 33.9121 46.876 35.2861 46.623C36.5541 46.389 37.0611 46.028 39.5961 43.547C40.8701 42.3 41.9751 41.28 42.0521 41.28C42.1291 41.28 42.3011 41.356 42.4331 41.449C42.6831 41.623 50.7391 51.627 50.8381 51.885C50.9441 52.162 50.6611 52.895 50.2441 53.423C49.5841 54.257 48.9361 54.519 47.2731 54.624C45.4551 54.739 12.4831 54.735 10.6941 54.62C9.1221 54.518 8.6931 54.37 7.9801 53.682C7.2991 53.025 7.1121 52.429 7.0691 50.773L7.0311 49.333L13.4411 41.867C16.9671 37.76 20.0511 34.196 20.2951 33.947C20.5381 33.697 20.8371 33.493 20.9591 33.493C21.0861 33.493 21.4111 33.732 21.7231 34.053ZM56.0481 44.887C56.8251 45.815 56.8751 45.905 56.8171 46.266C56.7281 46.809 56.2361 47.558 55.6961 47.97C55.1991 48.349 54.8671 48.432 54.9751 48.151C55.0111 48.058 55.0401 47.017 55.0401 45.837C55.0401 44.656 55.0801 43.736 55.1281 43.792C55.1771 43.848 55.5901 44.34 56.0481 44.887Z" fill="#222222"/>
</svg>
