<svg width="64" height="64" viewBox="0 0 64 64" fill="none" xmlns="http://www.w3.org/2000/svg">
<path fill-rule="evenodd" clip-rule="evenodd" d="M9.73905 10.225C9.17484 10.4236 8.66078 10.7429 8.23277 11.1607C7.80477 11.5785 7.47314 12.0847 7.26105 12.644C7.04105 13.233 7.04005 13.296 7.04005 30.355C7.04005 49.058 7.01505 48.248 7.64805 49.76C8.52405 51.852 10.5671 53.739 12.7701 54.49L13.6001 54.773H50.4001L51.23 54.49C53.433 53.739 55.4761 51.852 56.3521 49.76C56.9881 48.241 56.9631 49.056 56.9621 30.35C56.9611 13.285 56.9611 13.236 56.7401 12.645C56.4571 11.891 55.846 11.117 55.19 10.682C54.13 9.98 55.785 10.026 31.9541 10.03C11.3921 10.033 10.2651 10.043 9.73905 10.225ZM53.0131 22.24V30.507H48.217C43.626 30.507 43.396 30.516 42.8301 30.728C41.5091 31.222 40.5261 32.384 40.1091 33.944C39.6441 35.688 39.0801 36.819 38.1451 37.887C34.8471 41.653 28.7931 41.525 25.6271 37.624C24.8271 36.638 24.3011 35.525 23.8871 33.944C23.4991 32.467 22.6321 31.38 21.3781 30.802C20.8631 30.564 20.7661 30.559 15.9471 30.507L11.0401 30.453L11.0131 22.213L10.9851 13.973H53.0131V22.24ZM20.0331 34.987C20.3961 36.235 20.7511 37.229 21.0401 37.813C22.9391 41.649 26.6891 44.213 30.9241 44.571C35.2161 44.934 39.253 43.124 41.793 39.699C42.788 38.356 43.324 37.196 43.967 34.987L44.107 34.507L48.5601 34.479L53.0131 34.451V40.624C53.0131 44.352 52.97 47.025 52.905 47.372C52.8461 47.688 52.668 48.202 52.51 48.514C52.123 49.282 51.066 50.257 50.274 50.576L49.653 50.827L32.3201 50.859C19.3411 50.884 14.8391 50.861 14.4001 50.767C13.5831 50.592 13.0671 50.306 12.3691 49.641C11.6911 48.993 11.2541 48.216 11.0951 47.372C11.0301 47.025 10.9871 44.352 10.9871 40.624V34.451L15.4401 34.479L19.8931 34.507L20.0331 34.987Z" fill="#222222"/>
</svg>
