<svg width="64" height="64" viewBox="0 0 64 64" fill="none" xmlns="http://www.w3.org/2000/svg">
<path fill-rule="evenodd" clip-rule="evenodd" d="M30.24 6.08195C25.83 6.35795 21.325 7.88495 17.629 10.357C9.00404 16.127 4.66204 26.2319 6.40704 36.4799C8.14804 46.7029 16.087 55.0519 26.24 57.3359C29.955 58.1719 34.054 58.1689 37.803 57.327C46.572 55.3579 53.762 48.826 56.651 40.2029C58.12 35.819 58.366 30.816 57.336 26.24C55.154 16.54 47.46 8.84595 37.76 6.66395C35.44 6.14195 32.688 5.92895 30.24 6.08195ZM34.563 10.1379C37.7194 10.5221 40.7562 11.5801 43.4679 13.2404C46.1796 14.9007 48.5028 17.1244 50.28 19.761C51.727 21.9 53.037 25.007 53.539 27.4909C53.869 29.1209 53.973 30.208 53.973 32C53.973 35.551 53.272 38.574 51.719 41.713C49.531 46.135 46.135 49.531 41.713 51.719C38.574 53.272 35.551 53.9729 32 53.9729C28.467 53.9729 25.485 53.2859 22.33 51.743C15.622 48.464 11.062 42.0379 10.138 34.563C9.99504 33.4 9.99504 30.6 10.138 29.437C10.66 25.219 12.424 21.11 15.062 17.9729C16.0104 16.8557 17.0525 15.8216 18.177 14.882C21.068 12.471 25.327 10.6569 29.29 10.148C30.345 10.013 33.5 10.0069 34.563 10.1379ZM31.627 19.354C31.568 19.376 31.389 19.424 31.229 19.459C30.41 19.639 29.792 20.689 29.899 21.719C30.016 22.8549 30.83 23.573 32 23.573C33.163 23.573 33.984 22.854 34.1 21.7339C34.196 20.7999 33.79 19.947 33.071 19.575C32.778 19.424 31.825 19.278 31.627 19.354ZM31.506 27.406C31.036 27.521 30.564 27.882 30.274 28.349L30.027 28.747V43.2529L30.274 43.651C31.236 45.199 33.549 44.8279 33.914 43.068C33.998 42.665 34.025 40.42 34.004 35.672C33.974 28.994 33.969 28.8449 33.751 28.427C33.342 27.645 32.357 27.197 31.506 27.406Z" fill="#222222"/>
</svg>
