<svg width="64" height="64" viewBox="0 0 64 64" fill="none" xmlns="http://www.w3.org/2000/svg">
<path fill-rule="evenodd" clip-rule="evenodd" d="M18.453 6.09997C18.003 6.19797 17.615 6.56498 12.18 12.027C8.99298 15.23 6.31098 17.997 6.21798 18.176C6.00298 18.592 6.00098 19.486 6.21498 19.896C6.72298 20.868 7.81898 21.27 8.82098 20.851C9.06098 20.751 10.041 19.864 11.38 18.535L13.552 16.38L16.054 18.881L18.556 21.381L15.959 23.997C13.582 26.391 13.329 26.681 12.982 27.413C11.943 29.606 12.262 32.119 13.804 33.886C14.051 34.169 17.946 38.075 22.46 42.568C30.983 51.05 31.133 51.187 32.933 52.093C34.271 52.767 35.369 53.032 37.067 53.092C38.733 53.15 39.87 52.994 41.28 52.512C42.77 52.003 44.719 50.904 46.027 49.836L46.56 49.4L50.773 53.596C54.785 57.59 55.011 57.796 55.493 57.896C57.04 58.216 58.216 57.04 57.896 55.493C57.796 55.011 57.59 54.785 53.596 50.773L49.402 46.56L49.722 46.187C50.308 45.504 51.391 43.8 51.926 42.72C54.043 38.443 53.851 34.12 51.421 31.342C50.662 30.474 49.834 30.21 48.985 30.565C48.182 30.9 47.761 31.517 47.749 32.375C47.74 32.952 47.991 33.477 48.64 34.244C49.916 35.748 49.586 39.023 47.871 41.882C47.209 42.986 46.578 43.78 45.394 44.998C43.38 47.07 41.544 48.295 39.52 48.917C38.532 49.22 36.443 49.195 35.523 48.867C33.826 48.264 33.945 48.37 25.033 39.48C20.467 34.926 16.669 31.08 16.592 30.933C16.3584 30.5036 16.2996 30.0006 16.428 29.529C16.537 29.115 17.192 28.422 22.701 22.899C26.085 19.507 28.995 16.657 29.168 16.566C29.565 16.355 30.494 16.358 30.895 16.571C31.063 16.66 32.722 18.26 34.583 20.126C38.006 23.56 38.293 23.91 38.293 24.64C38.293 25.363 37.998 25.726 34.781 28.96C33.031 30.72 31.537 32.28 31.461 32.426C31.284 32.77 31.285 33.791 31.462 34.134C31.664 34.523 32.009 34.877 32.373 35.067C32.848 35.315 33.809 35.286 34.252 35.011C34.451 34.888 36.104 33.284 37.927 31.447C40.997 28.352 41.268 28.048 41.624 27.307C41.835 26.867 42.06 26.252 42.124 25.941C42.286 25.151 42.266 23.963 42.076 23.157C41.74 21.733 41.528 21.467 37.552 17.459C35.335 15.225 33.612 13.577 33.227 13.324C31.546 12.216 29.215 12.1 27.307 13.03C26.719 13.316 26.215 13.762 23.996 15.961L21.379 18.554L18.851 16.024L16.323 13.493L18.552 11.253C20.472 9.32498 20.799 8.94897 20.905 8.54797C21.136 7.67597 20.82 6.83497 20.084 6.36197C19.59 6.04497 19.086 5.96397 18.453 6.09997Z" fill="#222222"/>
</svg>
