<svg width="64" height="64" viewBox="0 0 64 64" fill="none" xmlns="http://www.w3.org/2000/svg">
<path fill-rule="evenodd" clip-rule="evenodd" d="M30.472 4.11996C29.529 4.32296 28.732 4.67996 27.854 5.29496C26.894 5.96696 5.96701 26.894 5.29501 27.854C4.10301 29.556 3.70101 31.461 4.11401 33.457C4.32301 34.471 4.66201 35.242 5.29501 36.146C5.96701 37.106 26.894 58.033 27.854 58.705C28.758 59.338 29.529 59.677 30.543 59.886C32.745 60.341 34.78 59.815 36.64 58.308C37.922 57.27 58.112 36.99 58.704 36.146C59.338 35.243 59.677 34.472 59.886 33.457C60.299 31.46 59.897 29.554 58.704 27.854C58.112 27.01 37.922 6.72996 36.64 5.69196C34.778 4.18396 32.674 3.64796 30.472 4.11996ZM33.401 8.27296C34.246 8.71596 55.286 29.76 55.737 30.613C56 31.11 56.047 31.322 56.047 32C56.047 32.678 56 32.89 55.737 33.387C55.285 34.242 34.252 55.278 33.387 55.74C32.887 56.007 32.681 56.053 32 56.053C31.319 56.053 31.113 56.007 30.613 55.74C29.748 55.278 8.71501 34.242 8.26301 33.387C8.00001 32.89 7.95301 32.678 7.95301 32C7.95301 31.322 8.00001 31.111 8.26401 30.613C8.51101 30.146 10.742 27.857 19.194 19.398C25.034 13.552 30.015 8.63896 30.262 8.47996C31.318 7.79996 32.366 7.73096 33.401 8.27296Z" fill="#222222"/>
</svg>
