<svg width="64" height="64" viewBox="0 0 64 64" fill="none" xmlns="http://www.w3.org/2000/svg">
<path fill-rule="evenodd" clip-rule="evenodd" d="M31.506 11.4059C30.213 11.7229 29.595 13.3439 30.356 14.4209C30.882 15.1659 31.274 15.2979 33.097 15.3439C34.498 15.3789 34.668 15.4029 34.621 15.5579L30.079 31.4669C27.609 40.1199 25.494 47.5199 25.379 47.9109L25.17 48.6209L22.958 48.6569C20.848 48.6919 20.728 48.7049 20.339 48.9459C19.693 49.3479 19.378 49.9159 19.378 50.6759C19.378 51.2089 19.429 51.3859 19.689 51.7539C19.86 51.9959 20.192 52.2949 20.427 52.4169C20.841 52.6329 21.014 52.6409 26.334 52.6709C30.117 52.6929 31.996 52.6649 32.397 52.5819C34.161 52.2149 34.534 49.9039 32.985 48.9409C32.623 48.7159 32.438 48.6899 30.956 48.6549C29.505 48.6209 29.332 48.5979 29.379 48.4419L33.921 32.5329C36.391 23.8799 38.507 16.4759 38.624 16.0799L38.836 15.3599H40.693C41.714 15.3599 42.797 15.3069 43.099 15.2419C44.831 14.8709 45.182 12.5589 43.651 11.6079L43.253 11.3599L37.547 11.3419C34.408 11.3319 31.69 11.3609 31.506 11.4059Z" fill="#222222"/>
</svg>
