<svg width="64" height="64" viewBox="0 0 64 64" fill="none" xmlns="http://www.w3.org/2000/svg">
<path fill-rule="evenodd" clip-rule="evenodd" d="M10.667 14.0839C9.21998 14.1679 8.23498 14.3799 7.43598 14.7799C5.33698 15.8299 3.96698 17.6559 3.51298 20.0119C3.34198 20.8979 3.24898 39.5059 3.40198 42.1429C3.52198 44.2069 3.67898 45.0209 4.12998 45.9139C5.19398 48.0229 6.95898 49.3459 9.34498 49.8249C9.81098 49.9189 15.266 49.9629 30.453 49.9949C51.326 50.0399 54.089 50.0009 55.413 49.6459C57.216 49.1629 58.871 47.8109 59.778 46.0799C60.32 45.0459 60.472 44.3139 60.598 42.1429C60.751 39.5059 60.658 20.8979 60.487 20.0119C60.032 17.6509 58.691 15.8619 56.579 14.7959C55.729 14.3659 54.794 14.1739 53.067 14.0739C51.161 13.9629 12.59 13.9719 10.667 14.0839ZM54.736 18.3089C55.37 18.6019 56.064 19.2969 56.357 19.9309L56.587 20.4269V43.5729L56.357 44.0689C56.064 44.7029 55.37 45.3979 54.736 45.6909L54.24 45.9199H9.75998L9.26398 45.6909C8.62998 45.3979 7.93598 44.7029 7.64298 44.0689L7.41298 43.5729V20.4269L7.64298 19.9309C8.05898 19.0299 8.93198 18.3199 9.84798 18.1369C10.093 18.0879 20.181 18.0559 32.267 18.0639L54.24 18.0799L54.736 18.3089ZM12.839 22.0749C11.549 22.3829 10.928 24.0099 11.689 25.0869C11.86 25.3289 12.192 25.6279 12.427 25.7509L12.853 25.9729L31.68 26.0019C45.119 26.0219 50.67 25.9959 51.076 25.9119C53.073 25.4989 53.144 22.5939 51.17 22.0969C50.609 21.9559 13.428 21.9339 12.839 22.0749ZM12.839 30.0749C11.549 30.3829 10.928 32.0099 11.689 33.0869C11.86 33.3289 12.192 33.6279 12.427 33.7509L12.853 33.9729L31.68 34.0019C45.119 34.0219 50.67 33.9959 51.076 33.9119C53.073 33.4989 53.144 30.5939 51.17 30.0969C50.609 29.9559 13.428 29.9339 12.839 30.0749ZM12.839 38.0749C11.549 38.3829 10.928 40.0099 11.689 41.0869C12.204 41.8159 12.62 41.9629 14.301 42.0099C16.194 42.0619 16.842 41.9319 17.385 41.3879C18.448 40.3249 17.948 38.4609 16.503 38.0969C15.968 37.9619 13.377 37.9469 12.839 38.0749ZM23.506 38.0749C22.216 38.3829 21.595 40.0099 22.356 41.0869C22.527 41.3289 22.859 41.6279 23.093 41.7509C23.514 41.9699 23.641 41.9739 31.674 42.0029C37.386 42.0239 40.001 41.9969 40.404 41.9139C42.406 41.4979 42.482 38.5949 40.503 38.0969C39.945 37.9559 24.088 37.9359 23.506 38.0749ZM47.506 38.0749C46.216 38.3829 45.595 40.0099 46.356 41.0869C46.87 41.8159 47.287 41.9629 48.967 42.0099C50.861 42.0619 51.508 41.9319 52.052 41.3879C53.115 40.3249 52.615 38.4609 51.17 38.0969C50.634 37.9619 48.044 37.9469 47.506 38.0749Z" fill="#222222"/>
</svg>
