<svg width="64" height="64" viewBox="0 0 64 64" fill="none" xmlns="http://www.w3.org/2000/svg">
<path fill-rule="evenodd" clip-rule="evenodd" d="M16 14.0809C14.532 14.1699 13.578 14.3799 12.754 14.7959C10.642 15.8619 9.30199 17.6509 8.84599 20.0119C8.67599 20.8979 8.58199 39.506 8.73499 42.143C8.86099 44.3139 9.01399 45.0459 9.55499 46.0799C10.462 47.8109 12.117 49.1629 13.92 49.6459C15.151 49.9759 18.094 50.0409 29.76 49.9979C42.51 49.9509 41.845 49.9919 43.508 49.1549C44.753 48.5289 45.332 47.9269 49.429 43.0069C55.208 36.0669 55.539 35.6269 55.992 34.2689C56.448 32.9049 56.448 31.0949 55.992 29.7309C55.539 28.3729 55.208 27.9329 49.429 20.9929C45.332 16.0729 44.753 15.4709 43.508 14.8449C41.834 14.0019 42.582 14.0449 29.227 14.0209C22.685 14.0099 16.733 14.0359 16 14.0809ZM41.6 18.3299C41.864 18.4669 42.194 18.6829 42.334 18.8099C42.601 19.0509 50.024 27.9109 51.195 29.3869C52.067 30.4839 52.371 31.1319 52.372 31.8929C52.372 32.6979 52.226 33.1579 51.737 33.8849C51.32 34.5049 43.316 44.167 42.577 44.9429C42.362 45.1679 41.947 45.4799 41.653 45.636L41.12 45.9199H15.093L14.597 45.691C13.964 45.398 13.269 44.7029 12.976 44.0689L12.747 43.573V20.4269L12.976 19.9309C13.392 19.0299 14.265 18.3199 15.181 18.1369C15.426 18.0879 21.363 18.0549 28.373 18.0639L41.12 18.0799L41.6 18.3299Z" fill="#222222"/>
</svg>
