<svg width="64" height="64" viewBox="0 0 64 64" fill="none" xmlns="http://www.w3.org/2000/svg">
<path fill-rule="evenodd" clip-rule="evenodd" d="M16 11.4169C14.553 11.5009 13.569 11.7129 12.769 12.1129C10.671 13.1629 9.309 14.9779 8.844 17.3449C8.757 17.7899 8.707 21.6839 8.673 30.6739L8.625 43.3739L8.003 43.5019C5.977 43.9209 4.178 45.6359 3.565 47.7329C3.321 48.5719 3.322 50.0829 3.568 50.9349C4.144 52.9299 5.697 54.4869 7.733 55.1109C8.346 55.2979 9.367 55.3069 32 55.3069C54.633 55.3069 55.654 55.2979 56.267 55.1109C58.303 54.4869 59.856 52.9299 60.432 50.9359C60.675 50.0939 60.675 48.5729 60.432 47.7309C59.829 45.6429 58.023 43.9209 55.997 43.5019L55.375 43.3739L55.327 30.6739C55.293 21.6839 55.243 17.7899 55.156 17.3449C54.69 14.9729 53.357 13.1949 51.246 12.1289C50.396 11.6999 49.461 11.5079 47.733 11.4069C45.832 11.2959 17.925 11.3049 16 11.4169ZM49.403 15.6429C50.036 15.9359 50.731 16.6299 51.024 17.2639L51.253 17.7599L51.283 30.5329L51.312 43.3069H12.688L12.717 30.5329L12.747 17.7599L12.976 17.2639C13.392 16.3629 14.265 15.6539 15.181 15.4699C15.426 15.4209 23.115 15.3889 32.267 15.3969L48.907 15.4129L49.403 15.6429ZM55.572 47.5579C55.775 47.6669 56.087 47.9349 56.264 48.1539C56.557 48.5169 56.587 48.6239 56.587 49.3329C56.587 50.0429 56.557 50.1499 56.264 50.5119C56.0677 50.7476 55.8339 50.9493 55.572 51.1089C55.216 51.2999 54.396 51.3069 32 51.3069C9.604 51.3069 8.784 51.2999 8.428 51.1089C8.16609 50.9493 7.93229 50.7476 7.736 50.5119C7.443 50.1499 7.413 50.0429 7.413 49.3329C7.413 48.6239 7.443 48.5169 7.736 48.1539C7.913 47.9349 8.225 47.6669 8.428 47.5579C8.784 47.3669 9.604 47.3599 32 47.3599C54.396 47.3599 55.216 47.3669 55.572 47.5579Z" fill="#222222"/>
</svg>
