<svg width="64" height="64" viewBox="0 0 64 64" fill="none" xmlns="http://www.w3.org/2000/svg">
<path fill-rule="evenodd" clip-rule="evenodd" d="M31.609 3.41295C31.423 3.45495 31.063 3.61395 30.809 3.76495C30.555 3.91695 24.973 7.63195 18.404 12.021C5.27802 20.791 6.03902 20.218 6.03902 21.333C6.03902 22.45 5.26202 21.865 18.564 30.753C25.22 35.2 30.856 38.938 31.087 39.0589C31.371 39.1991 31.6834 39.272 32 39.272C32.3167 39.272 32.6291 39.1991 32.913 39.0589C33.144 38.938 38.78 35.2 45.436 30.753C58.769 21.845 57.969 22.447 57.952 21.318C57.936 20.201 58.709 20.7819 45.436 11.9139C38.78 7.46595 33.165 3.74095 32.96 3.63595C32.483 3.39095 32.035 3.31695 31.609 3.41295ZM42.28 14.56C47.828 18.256 52.367 21.304 52.367 21.333C52.367 21.4489 32.174 34.827 32 34.827C31.826 34.827 11.633 21.448 11.633 21.333C11.633 21.208 31.857 7.79895 32.016 7.81795C32.113 7.82995 36.731 10.864 42.28 14.56ZM7.42602 30.1049C7.19502 30.166 6.83702 30.389 6.61602 30.61C5.93802 31.289 5.83902 32.331 6.37702 33.151C6.53202 33.388 30.28 49.312 31.145 49.7589C31.604 49.9969 32.396 49.9969 32.855 49.7589C33.743 49.2999 57.47 33.3849 57.63 33.1409C57.728 32.99 57.856 32.66 57.913 32.407C58.283 30.761 56.549 29.487 55.037 30.294C54.892 30.372 49.674 33.836 43.44 37.991C37.207 42.1469 32.059 45.547 32 45.547C31.941 45.547 26.79 42.145 20.553 37.986C14.316 33.8279 9.07202 30.3549 8.90002 30.267C8.44377 30.0387 7.92094 29.9813 7.42602 30.1049ZM7.42602 40.7719C7.19502 40.833 6.83702 41.056 6.61602 41.277C5.93802 41.956 5.83902 42.998 6.37702 43.818C6.53202 44.055 30.28 59.9779 31.145 60.4259C31.604 60.6629 32.396 60.6629 32.855 60.4259C33.743 59.966 57.47 44.0509 57.63 43.8079C57.728 43.6569 57.856 43.327 57.913 43.074C58.283 41.428 56.549 40.1539 55.037 40.9609C54.892 41.0389 49.674 44.502 43.44 48.658C37.207 52.813 32.059 56.213 32 56.213C31.941 56.213 26.79 52.811 20.553 48.653C14.316 44.4949 9.07202 41.021 8.90002 40.9339C8.4439 40.7053 7.92091 40.6478 7.42602 40.7719Z" fill="#222222"/>
</svg>
