<svg width="64" height="64" viewBox="0 0 64 64" fill="none" xmlns="http://www.w3.org/2000/svg">
<path fill-rule="evenodd" clip-rule="evenodd" d="M31.609 8.74696C31.423 8.78796 31.063 8.94696 30.809 9.09896C30.555 9.25096 24.973 12.965 18.404 17.354C5.27802 26.124 6.03902 25.551 6.03902 26.667C6.03902 27.783 5.26202 27.198 18.564 36.086C25.22 40.534 30.856 44.271 31.087 44.392C31.3708 44.5325 31.6833 44.6057 32 44.6057C32.3167 44.6057 32.6292 44.5325 32.913 44.392C33.144 44.271 38.78 40.534 45.436 36.086C58.769 27.178 57.969 27.78 57.952 26.652C57.936 25.534 58.709 26.116 45.436 17.247C38.78 12.8 33.165 9.07496 32.96 8.96896C32.483 8.72396 32.035 8.64996 31.609 8.74696ZM42.28 19.893C47.828 23.589 52.367 26.637 52.367 26.667C52.367 26.782 32.174 40.16 32 40.16C31.826 40.16 11.633 26.782 11.633 26.667C11.633 26.541 31.857 13.132 32.016 13.152C32.113 13.164 36.731 16.197 42.28 19.893ZM7.42602 35.439C7.19502 35.499 6.83702 35.723 6.61602 35.944C5.93802 36.622 5.83902 37.664 6.37702 38.484C6.53202 38.721 30.28 54.645 31.145 55.093C31.604 55.33 32.396 55.33 32.855 55.093C33.743 54.633 57.47 38.718 57.63 38.474C57.728 38.324 57.856 37.993 57.913 37.74C58.283 36.094 56.549 34.82 55.037 35.628C54.892 35.705 49.674 39.169 43.44 43.324C37.207 47.48 32.059 50.88 32 50.88C31.941 50.88 26.79 47.478 20.553 43.32C14.316 39.162 9.07202 35.688 8.90002 35.601C8.4439 35.3723 7.92091 35.3148 7.42602 35.439Z" fill="#222222"/>
</svg>
