<svg width="64" height="64" viewBox="0 0 64 64" fill="none" xmlns="http://www.w3.org/2000/svg">
<path fill-rule="evenodd" clip-rule="evenodd" d="M42.56 11.4201C37.864 11.6201 33.147 12.4471 29.223 13.7581C24.438 15.3561 20.953 17.4181 17.971 20.4171C14.256 24.1521 12.48 28.382 12.48 33.493C12.48 36.949 13.288 40.19 15.065 43.87L15.724 45.2341L13.687 47.284C12.566 48.411 11.589 49.451 11.516 49.5951C11.114 50.3841 11.539 51.678 12.351 52.134C12.865 52.423 13.718 52.454 14.219 52.201C14.406 52.106 15.458 51.1371 16.556 50.048L18.552 48.0681L19.809 48.666C21.681 49.555 22.97 50.0541 24.47 50.472C35.078 53.424 44.232 48.4431 49.054 37.097C50.545 33.5891 51.554 29.4081 52.112 24.4271C52.326 22.5081 52.435 16.3201 52.291 14.2661C52.199 12.9661 52.156 12.7511 51.914 12.3851C51.41 11.6241 51.055 11.5321 48.151 11.4151C45.374 11.3031 45.298 11.3031 42.56 11.4201ZM48.367 18.667C48.358 22.681 48.158 24.934 47.509 28.32C45.864 36.903 42.034 43.095 36.693 45.806C33.671 47.34 30.335 47.711 26.681 46.919C25.439 46.65 23.617 46.0391 22.421 45.4911L21.535 45.085L25.802 40.809C28.683 37.922 30.122 36.4051 30.234 36.1371C30.73 34.951 29.968 33.5511 28.753 33.4141C27.641 33.2881 27.861 33.115 23.075 37.891L18.683 42.273L18.526 41.91C18.44 41.71 18.245 41.2721 18.094 40.9351C17.596 39.8311 17.086 38.2301 16.789 36.8371C16.535 35.6471 16.496 35.2141 16.489 33.5471C16.48 31.4611 16.663 30.279 17.249 28.649C18.158 26.116 19.97 23.6921 22.453 21.6861C26.28 18.5941 32.721 16.317 39.573 15.634C41.995 15.392 41.924 15.395 45.28 15.405L48.373 15.4131L48.367 18.667Z" fill="#222222"/>
</svg>
