<svg width="64" height="64" viewBox="0 0 64 64" fill="none" xmlns="http://www.w3.org/2000/svg">
<path fill-rule="evenodd" clip-rule="evenodd" d="M31.4117 8.02583C30.9447 8.13705 30.3373 8.6651 30.0758 9.18813C29.8122 9.71318 29.8082 9.76027 29.8082 12.3424C29.8082 14.9436 29.8102 14.9676 30.0818 15.4946C30.2612 15.8493 30.5355 16.1472 30.8741 16.3553C31.2128 16.5635 31.6025 16.6737 32 16.6737C32.3975 16.6737 32.7872 16.5635 33.1259 16.3553C33.4645 16.1472 33.7388 15.8493 33.9182 15.4946C34.1898 14.9676 34.1918 14.9436 34.1918 12.3424C34.1918 9.76027 34.1878 9.71318 33.9242 9.18713C33.5725 8.48273 32.9501 8.0629 32.1864 8.0118C31.8777 7.99176 31.53 7.99777 31.4117 8.02583ZM16.4607 15.168C15.2921 15.5848 14.6948 16.9626 15.2069 18.0577C15.4735 18.6269 18.4521 21.5757 18.9812 21.7941C20.7121 22.5106 22.5371 20.6088 21.7474 18.9124C21.6271 18.6539 20.8985 17.8443 19.9053 16.8664C18.6064 15.5858 18.1735 15.2221 17.8357 15.1299C17.2825 14.9786 16.9678 14.9876 16.4607 15.168ZM46.0651 15.171C45.5249 15.3634 42.5463 18.2882 42.2536 18.9124C41.4609 20.6058 43.2879 22.5106 45.0187 21.7941C45.5479 21.5757 48.5265 18.6269 48.7931 18.0577C49.187 17.2161 48.9574 16.2291 48.2158 15.5778C47.5954 15.0337 46.8478 14.8914 46.0651 15.171ZM30.5037 21.1679C29.6408 21.3262 28.6446 21.5988 27.9881 21.8563C24.754 23.1268 22.3497 25.8422 21.3936 29.305C21.2022 29.9964 21.1631 30.4393 21.1571 31.9523C21.15 33.5344 21.1811 33.8861 21.3976 34.6777C21.9548 36.7198 22.8328 38.2438 24.297 39.7067C25.7602 41.1706 27.2846 42.0483 29.3271 42.6054C30.1068 42.8178 30.4877 42.8539 32 42.8539C33.5123 42.8539 33.8932 42.8178 34.6729 42.6054C36.7154 42.0483 38.2398 41.1706 39.703 39.7067C41.1672 38.2438 42.0452 36.7198 42.6024 34.6777C42.8149 33.8982 42.851 33.5174 42.851 32.0054C42.851 30.4934 42.8149 30.1126 42.6024 29.3331C41.514 25.3432 38.6567 22.4935 34.6579 21.4094C33.8902 21.202 31.1802 21.0437 30.5037 21.1679ZM9.12047 30.1086C8.80577 30.2812 8.5333 30.5214 8.32271 30.812C8.04109 31.2168 8 31.3681 8 32.0054C8 32.6427 8.04109 32.794 8.32171 33.1988C8.52516 33.4924 8.83885 33.7599 9.1766 33.9292C9.70276 34.1927 9.74986 34.1967 12.3326 34.1967C14.9343 34.1967 14.9584 34.1947 15.4855 33.9232C17.0229 33.1326 17.058 30.9142 15.5467 30.1167C15.0887 29.8752 14.9985 29.8682 12.3356 29.8682C9.70677 29.8682 9.57648 29.8772 9.12047 30.1086ZM48.4533 30.1167C46.942 30.9142 46.9771 33.1326 48.5145 33.9232C49.0416 34.1947 49.0657 34.1967 51.6674 34.1967C54.2501 34.1967 54.2972 34.1927 54.8234 33.9292C55.1611 33.7599 55.4748 33.4924 55.6783 33.1988C55.9589 32.794 56 32.6427 56 32.0054C56 31.3671 55.9599 31.2188 55.6793 30.82C55.4645 30.5356 55.1954 30.2965 54.8875 30.1167C54.4295 29.8752 54.3383 29.8682 51.6704 29.8682C49.0015 29.8682 48.9113 29.8752 48.4533 30.1167ZM19.0183 42.2106C18.4791 42.403 15.4996 45.3278 15.2069 45.9531C14.4122 47.6514 16.2362 49.5532 17.972 48.8348C18.5022 48.6154 21.4798 45.6675 21.7464 45.0984C22.1402 44.2557 21.9107 43.2687 21.1691 42.6185C20.5487 42.0734 19.8011 41.9321 19.0183 42.2106ZM43.5064 42.2086C42.3378 42.6255 41.7405 44.0022 42.2536 45.0984C42.5202 45.6675 45.4978 48.6154 46.028 48.8348C47.7638 49.5532 49.5858 47.6544 48.7941 45.9531C48.6738 45.6946 47.9452 44.8849 46.952 43.906C45.6531 42.6255 45.2202 42.2627 44.8814 42.1706C44.3282 42.0193 44.0145 42.0273 43.5064 42.2086ZM31.4909 47.3909C31.1854 47.4711 30.9003 47.6147 30.6541 47.8124C30.4079 48.0101 30.206 48.2574 30.0617 48.5382C29.8162 49.0372 29.8082 49.1324 29.8082 51.6714C29.8082 54.2505 29.8122 54.2976 30.0758 54.8237C30.2451 55.1613 30.5127 55.475 30.8064 55.6784C31.2113 55.9589 31.3626 56 32 56C32.6374 56 32.7887 55.9589 33.1936 55.6784C33.4873 55.475 33.7549 55.1613 33.9242 54.8237C34.1878 54.2976 34.1918 54.2505 34.1918 51.6684C34.1918 49.0672 34.1898 49.0432 33.9182 48.5162C33.4753 47.6554 32.4179 47.1655 31.4909 47.3909Z" fill="#FFA500"/>
</svg>
