<svg width="64" height="64" viewBox="0 0 64 64" fill="none" xmlns="http://www.w3.org/2000/svg">
<path fill-rule="evenodd" clip-rule="evenodd" d="M30.879 6.07895C25.908 6.51595 21.642 9.86895 20.021 14.613C19.445 16.3 19.37 17.024 19.365 20.96C19.36 24.572 19.361 24.588 19.608 24.985C20.437 26.32 22.421 26.264 23.105 24.886C23.287 24.519 23.312 24.118 23.366 20.693C23.426 16.945 23.43 16.898 23.713 16.053C24.189 14.632 24.767 13.717 25.909 12.575C27.049 11.435 27.961 10.859 29.387 10.377C30.177 10.11 30.369 10.089 32 10.089C33.631 10.089 33.823 10.11 34.613 10.377C36.039 10.859 36.951 11.435 38.091 12.575C39.233 13.717 39.811 14.632 40.287 16.053C40.571 16.899 40.574 16.939 40.634 20.747C40.692 24.527 40.697 24.593 40.941 24.985C41.635 26.101 43.145 26.295 44.055 25.385C44.679 24.761 44.731 24.334 44.661 20.427C44.612 17.64 44.568 16.959 44.382 16.095C43.026 9.78895 37.267 5.51795 30.879 6.07895ZM31.506 19.406C31.036 19.521 30.564 19.882 30.274 20.349L30.027 20.747V43.2529L30.274 43.651C31.234 45.1959 33.549 44.828 33.913 43.074C33.997 42.671 34.023 39.317 34.002 31.678C33.974 20.935 33.972 20.85 33.751 20.427C33.342 19.645 32.357 19.197 31.506 19.406ZM20.839 38.075C20.371 38.187 19.898 38.547 19.608 39.0149C19.361 39.4119 19.36 39.428 19.365 43.04C19.369 46.065 19.401 46.826 19.559 47.6269C20.437 52.0849 23.43 55.625 27.669 57.219C30.23 58.182 33.763 58.185 36.309 57.227C40.484 55.656 43.453 52.2269 44.382 47.9049C44.568 47.041 44.612 46.36 44.661 43.573C44.731 39.667 44.679 39.239 44.055 38.615C43.133 37.693 41.644 37.8839 40.941 39.0149C40.697 39.4069 40.692 39.4729 40.634 43.2529C40.574 47.0609 40.571 47.1009 40.287 47.9469C39.811 49.368 39.233 50.283 38.091 51.4249C36.951 52.5649 36.039 53.141 34.613 53.623C33.823 53.8899 33.631 53.9109 32 53.9109C30.369 53.9109 30.177 53.8899 29.387 53.623C27.961 53.141 27.049 52.5649 25.909 51.4249C24.767 50.283 24.189 49.368 23.713 47.9469C23.43 47.1019 23.426 47.055 23.366 43.3069C23.3 39.111 23.281 38.9959 22.57 38.4529C22.298 38.2459 21.451 37.952 21.227 37.987C21.197 37.991 21.023 38.031 20.839 38.075Z" fill="#222222"/>
</svg>
