<svg width="64" height="64" viewBox="0 0 64 64" fill="none" xmlns="http://www.w3.org/2000/svg">
<path fill-rule="evenodd" clip-rule="evenodd" d="M10.172 8.73802C9.70504 8.85402 9.23004 9.21602 8.95004 9.67002C8.67504 10.115 8.62204 11.08 8.84804 11.52C8.92304 11.667 10.712 13.521 12.824 15.64L16.663 19.493L15.835 19.678C11.737 20.589 8.30304 23.621 6.78104 27.669C5.81404 30.24 5.81404 33.76 6.78104 36.331C8.34104 40.479 11.783 43.455 16.095 44.382C16.959 44.568 17.64 44.612 20.427 44.661C24.334 44.731 24.761 44.679 25.385 44.055C26.323 43.117 26.064 41.48 24.886 40.895C24.519 40.712 24.121 40.688 20.693 40.634C16.942 40.575 16.899 40.572 16.053 40.288C14.631 39.81 13.717 39.233 12.575 38.091C11.435 36.951 10.859 36.039 10.377 34.613C10.11 33.823 10.089 33.631 10.089 32C10.089 30.369 10.11 30.177 10.377 29.387C10.859 27.961 11.435 27.049 12.575 25.909C13.72 24.764 14.641 24.184 16.053 23.717C16.802 23.469 17.128 23.428 18.707 23.385L20.507 23.335L23.801 26.627L27.095 29.92L23.913 29.973L20.731 30.027L20.298 30.313C19.658 30.737 19.378 31.256 19.378 32.018C19.378 32.541 19.43 32.721 19.689 33.087C19.86 33.329 20.192 33.628 20.427 33.751C20.84 33.966 21.018 33.974 26.027 34.004L31.2 34.034L41.76 44.58C51.999 54.806 52.335 55.129 52.827 55.23C54.374 55.548 55.547 54.375 55.231 52.827C55.13 52.332 54.596 51.789 33.51 30.693C21.621 18.798 11.75 8.99802 11.574 8.91502C11.137 8.71002 10.574 8.63902 10.172 8.73802ZM39.506 19.401C38.616 19.632 38.044 20.395 38.044 21.351C38.044 21.874 38.097 22.054 38.356 22.421C38.97 23.29 39.016 23.299 43.307 23.367C47.055 23.426 47.102 23.429 47.947 23.713C49.368 24.189 50.283 24.767 51.425 25.909C53.132 27.616 53.848 29.211 53.946 31.527C54.059 34.177 53.314 36.141 51.457 38.09C50.568 39.024 50.453 39.246 50.453 40.039C50.453 41.158 51.293 41.967 52.443 41.955C53.146 41.948 53.518 41.72 54.483 40.703C56.77 38.296 57.944 35.324 57.94 31.951C57.933 25.946 53.823 20.894 47.905 19.617C47.014 19.425 46.421 19.39 43.36 19.355C41.424 19.333 39.69 19.354 39.506 19.401Z" fill="#222222"/>
</svg>
