<svg width="64" height="64" viewBox="0 0 64 64" fill="none" xmlns="http://www.w3.org/2000/svg">
<path fill-rule="evenodd" clip-rule="evenodd" d="M17.545 19.409C12.64 19.859 8.53201 23.018 6.77301 27.691C5.81801 30.228 5.81801 33.772 6.77301 36.309C8.34401 40.484 11.773 43.453 16.095 44.382C16.959 44.568 17.64 44.612 20.427 44.661C24.334 44.731 24.761 44.679 25.385 44.055C26.323 43.117 26.064 41.48 24.886 40.895C24.519 40.712 24.121 40.688 20.693 40.634C16.942 40.575 16.899 40.572 16.053 40.288C14.631 39.81 13.717 39.233 12.575 38.091C11.435 36.951 10.859 36.039 10.377 34.613C10.11 33.823 10.089 33.631 10.089 32C10.089 30.369 10.11 30.177 10.377 29.387C10.859 27.961 11.435 27.049 12.575 25.909C13.717 24.767 14.632 24.189 16.053 23.713C16.898 23.43 16.945 23.426 20.693 23.366C24.118 23.312 24.519 23.287 24.886 23.105C26.264 22.421 26.32 20.437 24.985 19.608C24.594 19.364 24.531 19.36 21.493 19.345C19.792 19.337 18.015 19.366 17.545 19.409ZM39.506 19.401C38.616 19.632 38.044 20.395 38.044 21.351C38.044 21.874 38.097 22.054 38.356 22.421C38.97 23.29 39.016 23.299 43.307 23.367C47.055 23.426 47.102 23.429 47.947 23.713C49.368 24.189 50.283 24.767 51.425 25.909C52.565 27.049 53.141 27.961 53.623 29.387C53.89 30.177 53.911 30.369 53.911 32C53.911 33.631 53.89 33.823 53.623 34.613C53.141 36.039 52.565 36.951 51.425 38.091C50.283 39.233 49.368 39.811 47.947 40.287C47.1 40.571 47.061 40.574 43.245 40.634L39.397 40.693L38.965 40.979C38.325 41.403 38.044 41.923 38.044 42.685C38.044 43.208 38.097 43.388 38.356 43.754C38.527 43.996 38.859 44.295 39.093 44.417C39.502 44.631 39.671 44.64 43.093 44.635C46.065 44.631 46.828 44.598 47.627 44.441C52.084 43.564 55.625 40.57 57.219 36.331C58.182 33.77 58.185 30.237 57.227 27.691C55.656 23.517 52.232 20.551 47.905 19.617C47.014 19.425 46.421 19.39 43.36 19.355C41.424 19.333 39.69 19.354 39.506 19.401ZM20.839 30.075C19.549 30.383 18.928 32.01 19.689 33.087C19.86 33.329 20.192 33.628 20.427 33.751C20.85 33.972 20.935 33.974 31.678 34.002C39.317 34.023 42.671 33.997 43.074 33.913C45.073 33.498 45.146 30.595 43.17 30.097C42.611 29.956 21.424 29.935 20.839 30.075Z" fill="#222222"/>
</svg>
