<svg width="64" height="64" viewBox="0 0 64 64" fill="none" xmlns="http://www.w3.org/2000/svg">
<path fill-rule="evenodd" clip-rule="evenodd" d="M39.438 10.081C37.661 10.3829 35.9646 11.0451 34.453 12.027C33.799 12.457 32.839 13.322 31.001 15.138C29.601 16.521 28.389 17.808 28.308 17.997C27.937 18.858 28.257 19.939 29.035 20.453C29.638 20.852 30.594 20.868 31.148 20.489C31.353 20.349 32.576 19.191 33.867 17.915C36.7 15.115 37.451 14.603 39.441 14.113C40.484 13.856 42.572 13.883 43.642 14.168C46.635 14.966 49.154 17.542 49.882 20.553C50.12 21.535 50.118 23.592 49.879 24.581C49.412 26.515 48.853 27.332 46.085 30.133C44.809 31.424 43.651 32.647 43.511 32.852C43.132 33.406 43.148 34.362 43.547 34.965C44.061 35.743 45.143 36.063 46.003 35.692C46.457 35.496 51.135 30.759 51.773 29.85C54.788 25.555 54.826 19.897 51.871 15.435C51.218 14.449 49.551 12.782 48.565 12.129C45.815 10.307 42.507 9.56496 39.438 10.081ZM38.667 22.682C38.199 22.925 22.957 38.167 22.713 38.636C22.471 39.1 22.444 39.862 22.654 40.35C22.831 40.765 23.305 41.225 23.714 41.38C24.153 41.546 24.92 41.518 25.312 41.323C25.783 41.088 41.031 25.856 41.287 25.364C41.514 24.928 41.556 24.181 41.38 23.714C41.225 23.305 40.765 22.831 40.35 22.654C39.897 22.46 39.066 22.474 38.667 22.682ZM17.973 28.313C17.531 28.513 12.839 33.279 12.227 34.15C9.21104 38.448 9.17204 44.1 12.129 48.565C12.782 49.551 14.449 51.218 15.435 51.871C19.9 54.828 25.552 54.789 29.85 51.773C30.759 51.135 35.496 46.457 35.692 46.003C36.063 45.143 35.743 44.061 34.965 43.547C34.362 43.148 33.406 43.132 32.852 43.511C32.647 43.651 31.424 44.809 30.133 46.085C27.298 48.886 26.54 49.403 24.559 49.885C23.506 50.141 21.418 50.115 20.358 49.832C17.425 49.05 14.95 46.575 14.168 43.642C13.885 42.582 13.859 40.494 14.115 39.441C14.597 37.46 15.114 36.702 17.915 33.867C19.191 32.576 20.349 31.353 20.489 31.148C20.868 30.594 20.852 29.638 20.453 29.035C20.292 28.791 19.97 28.494 19.737 28.375C19.248 28.126 18.451 28.097 17.973 28.313Z" fill="#222222"/>
</svg>
