<svg width="64" height="64" viewBox="0 0 64 64" fill="none" xmlns="http://www.w3.org/2000/svg">
<path fill-rule="evenodd" clip-rule="evenodd" d="M20.839 8.73803C20.368 8.85503 19.897 9.21603 19.608 9.68203C19.363 10.076 19.36 10.116 19.36 13.333C19.36 16.551 19.363 16.591 19.608 16.985C20.559 18.516 22.871 18.165 23.242 16.433C23.392 15.735 23.394 10.889 23.245 10.242C22.993 9.15203 21.908 8.47303 20.839 8.73803ZM39.407 10.086C37.607 10.389 35.611 11.202 34.15 12.227C33.241 12.865 28.504 17.543 28.308 17.997C27.937 18.857 28.257 19.939 29.035 20.453C29.638 20.852 30.594 20.868 31.148 20.489C31.353 20.349 32.576 19.191 33.867 17.915C36.702 15.114 37.46 14.597 39.441 14.115C40.494 13.859 42.582 13.885 43.642 14.168C46.637 14.967 49.154 17.542 49.882 20.553C50.12 21.535 50.118 23.592 49.879 24.581C49.407 26.534 48.866 27.314 45.916 30.299C43.763 32.477 43.416 32.874 43.306 33.283C42.95 34.605 43.851 35.84 45.173 35.84C45.441 35.84 45.815 35.773 46.003 35.692C46.457 35.496 51.135 30.759 51.773 29.85C54.788 25.555 54.826 19.897 51.871 15.435C51.218 14.449 49.551 12.782 48.565 12.129C45.81 10.304 42.501 9.56603 39.407 10.086ZM10.172 19.408C8.883 19.716 8.261 21.344 9.022 22.421C9.614 23.258 9.802 23.302 12.985 23.341C16.324 23.382 16.79 23.317 17.385 22.721C18.448 21.659 17.948 19.794 16.503 19.43C15.955 19.292 10.735 19.274 10.172 19.408ZM17.973 28.312C17.797 28.391 16.521 29.601 15.138 31.001C12.505 33.666 11.792 34.566 11.104 36.095C8.216 42.511 10.839 49.778 17.153 52.851C21.14 54.791 26.157 54.365 29.85 51.773C30.759 51.135 35.496 46.457 35.692 46.003C36.063 45.143 35.743 44.061 34.965 43.547C34.362 43.148 33.406 43.132 32.852 43.511C32.647 43.651 31.424 44.809 30.133 46.085C27.298 48.887 26.537 49.405 24.559 49.884C23.592 50.118 21.524 50.117 20.553 49.882C17.478 49.138 14.862 46.522 14.118 43.447C13.883 42.476 13.882 40.408 14.116 39.441C14.595 37.463 15.113 36.702 17.915 33.867C19.191 32.576 20.349 31.353 20.489 31.148C20.868 30.594 20.852 29.638 20.453 29.035C20.292 28.791 19.97 28.494 19.737 28.375C19.249 28.126 18.451 28.097 17.973 28.312ZM47.506 40.742C46.216 41.049 45.595 42.677 46.356 43.754C46.947 44.592 47.135 44.635 50.319 44.675C53.657 44.716 54.123 44.65 54.719 44.055C55.781 42.992 55.282 41.128 53.836 40.764C53.288 40.626 48.068 40.607 47.506 40.742ZM42.172 46.072C41.702 46.189 41.23 46.55 40.941 47.015C40.696 47.409 40.693 47.449 40.693 50.667C40.693 53.884 40.696 53.924 40.941 54.318C41.893 55.849 44.204 55.498 44.575 53.766C44.725 53.069 44.727 48.222 44.578 47.575C44.327 46.485 43.241 45.806 42.172 46.072Z" fill="#222222"/>
</svg>
