<svg width="64" height="64" viewBox="0 0 64 64" fill="none" xmlns="http://www.w3.org/2000/svg">
<path fill-rule="evenodd" clip-rule="evenodd" d="M15.413 8.78606C15.179 8.86306 13.728 9.55806 12.19 10.3321C9.23099 11.8201 9.02699 11.9691 8.74999 12.8311C8.44099 13.7951 9.14099 14.9791 10.175 15.2391C10.827 15.4031 11.229 15.2941 12.713 14.5501C13.346 14.2331 13.886 13.9731 13.914 13.9731C13.943 13.9731 13.979 16.9611 13.996 20.6131L14.027 27.2531L14.274 27.6511C15.235 29.1971 17.549 28.8281 17.914 27.0711C17.997 26.6681 18.024 24.0341 18.003 18.2701L17.973 10.0451L17.653 9.59206C17.127 8.84706 16.225 8.52206 15.413 8.78606ZM26.172 16.7421C24.883 17.0491 24.261 18.6771 25.022 19.7541C25.193 19.9961 25.525 20.2951 25.76 20.4171C26.185 20.6391 26.23 20.6401 39.68 20.6691C49.245 20.6891 53.339 20.6631 53.743 20.5791C55.74 20.1651 55.811 17.2611 53.836 16.7641C53.277 16.6231 26.759 16.6021 26.172 16.7421ZM26.172 30.0751C24.883 30.3831 24.261 32.0101 25.022 33.0871C25.193 33.3291 25.525 33.6281 25.76 33.7511C26.185 33.9731 26.23 33.9731 39.68 34.0021C49.245 34.0221 53.339 33.9961 53.743 33.9121C55.74 33.4981 55.811 30.5941 53.836 30.0971C53.277 29.9561 26.759 29.9351 26.172 30.0751ZM13.813 35.4151C10.855 35.8171 8.725 38.3131 8.701 41.4041C8.694 42.3841 8.709 42.4571 9.015 42.8921C9.459 43.5241 9.93899 43.7831 10.667 43.7831C11.383 43.7831 11.874 43.5251 12.293 42.9281C12.539 42.5781 12.604 42.3391 12.68 41.5141C12.76 40.6511 12.812 40.4721 13.082 40.1391C13.518 39.6001 14.018 39.3601 14.704 39.3601C16.154 39.3601 17.046 40.7421 16.476 42.1061C16.386 42.3211 14.638 44.7321 12.593 47.4621C9.916 51.0341 8.83899 52.5521 8.75399 52.8731C8.52399 53.7391 8.96599 54.7001 9.78099 55.1051C10.154 55.2911 10.518 55.3091 14.334 55.3381C19.114 55.3741 19.433 55.3401 20.052 54.7211C20.99 53.7841 20.731 52.1471 19.553 51.5621C19.207 51.3901 18.819 51.3521 16.928 51.3071L14.709 51.2531L17.226 47.8931C19.738 44.5381 20.223 43.7601 20.479 42.6801C20.687 41.8001 20.642 40.2861 20.383 39.4591C19.526 36.7231 16.753 35.0161 13.813 35.4151ZM26.172 43.4081C24.883 43.7161 24.261 45.3441 25.022 46.4211C25.193 46.6631 25.525 46.9611 25.76 47.0841C26.185 47.3061 26.23 47.3071 39.68 47.3351C49.245 47.3561 53.339 47.3301 53.743 47.2461C55.74 46.8311 55.811 43.9271 53.836 43.4301C53.277 43.2891 26.759 43.2681 26.172 43.4081Z" fill="#222222"/>
</svg>
