<svg width="64" height="64" viewBox="0 0 64 64" fill="none" xmlns="http://www.w3.org/2000/svg">
<path fill-rule="evenodd" clip-rule="evenodd" d="M20.96 11.381C20.272 11.554 19.954 11.876 17.168 15.216C15.294 17.464 14.239 18.6469 14.156 18.5979C13.7549 18.3393 13.3562 18.077 12.96 17.811C11.281 16.692 10.943 16.5669 10.143 16.7689C8.86099 17.0919 8.29199 18.6709 9.04499 19.82C9.32799 20.2509 13.856 23.207 14.357 23.287C14.6178 23.3265 14.884 23.3134 15.1397 23.2485C15.3954 23.1836 15.6356 23.0681 15.846 22.909C16.01 22.781 17.713 20.791 19.632 18.488C22.553 14.981 23.14 14.221 23.243 13.812C23.453 12.978 23.093 12.084 22.371 11.645C22.004 11.422 21.311 11.292 20.96 11.381ZM28.839 16.7409C27.548 17.0529 26.928 18.6769 27.689 19.754C27.86 19.9959 28.192 20.295 28.427 20.417C28.851 20.639 28.916 20.64 41.012 20.669C49.614 20.689 53.338 20.663 53.742 20.579C55.495 20.215 55.862 17.901 54.318 16.941L53.92 16.693L41.547 16.676C34.741 16.667 29.023 16.6959 28.839 16.7409ZM20.96 24.714C20.272 24.887 19.954 25.209 17.168 28.5499C15.294 30.7969 14.239 31.9809 14.156 31.931C13.7549 31.6723 13.3562 31.41 12.96 31.1439C11.281 30.025 10.943 29.9009 10.143 30.1019C8.86099 30.4249 8.29199 32.0049 9.04499 33.153C9.32799 33.5849 13.856 36.5409 14.357 36.6209C14.6178 36.66 14.8839 36.6467 15.1395 36.5818C15.3952 36.5169 15.6353 36.4017 15.846 36.243C16.01 36.114 17.713 34.1239 19.632 31.8209C22.553 28.3139 23.14 27.554 23.243 27.145C23.453 26.311 23.093 25.418 22.371 24.979C22.004 24.755 21.311 24.625 20.96 24.714ZM28.839 30.075C27.549 30.383 26.928 32.01 27.689 33.087C27.86 33.329 28.192 33.628 28.427 33.7509C28.851 33.972 28.916 33.9729 41.012 34.0019C49.614 34.0229 53.338 33.9959 53.742 33.9129C55.74 33.4979 55.812 30.594 53.836 30.097C53.277 29.9559 29.425 29.935 28.839 30.075ZM20.96 38.047C20.272 38.221 19.954 38.542 17.168 41.8829C15.294 44.13 14.239 45.3139 14.156 45.264C13.755 45.0054 13.3564 44.7434 12.96 44.478C11.281 43.359 10.943 43.234 10.143 43.435C8.86099 43.758 8.29199 45.338 9.04499 46.4869C9.32799 46.9179 13.856 49.8739 14.357 49.9539C14.6178 49.9932 14.8839 49.98 15.1396 49.9151C15.3953 49.8502 15.6354 49.7349 15.846 49.576C16.01 49.4469 17.713 47.457 19.632 45.1539C22.553 41.6469 23.14 40.887 23.243 40.478C23.453 39.644 23.093 38.7509 22.371 38.312C22.004 38.089 21.311 37.959 20.96 38.047ZM28.839 43.407C27.548 43.719 26.928 45.344 27.689 46.421C27.86 46.663 28.192 46.9609 28.427 47.084C28.851 47.306 28.916 47.3069 41.012 47.3359C49.614 47.3559 53.338 47.3299 53.742 47.2459C55.495 46.882 55.862 44.567 54.318 43.608L53.92 43.36L41.547 43.3429C34.741 43.3339 29.023 43.363 28.839 43.407Z" fill="#222222"/>
</svg>
