<svg width="64" height="64" viewBox="0 0 64 64" fill="none" xmlns="http://www.w3.org/2000/svg">
<path fill-rule="evenodd" clip-rule="evenodd" d="M12.8391 16.739C11.9601 16.955 11.3781 17.727 11.3781 18.676C11.3781 20.681 13.9831 21.39 15.0451 19.672C15.3841 19.124 15.3841 18.209 15.0451 17.661C14.5941 16.931 13.6551 16.539 12.8391 16.739ZM23.5061 16.742C22.2161 17.049 21.5951 18.677 22.3561 19.754C22.5271 19.996 22.8591 20.295 23.0931 20.417C23.5191 20.639 23.5631 20.64 37.0131 20.669C46.5781 20.689 50.6721 20.663 51.076 20.579C53.118 20.155 53.1361 17.195 51.0991 16.758C50.4671 16.622 24.0711 16.607 23.5061 16.742ZM12.8391 30.073C11.9601 30.288 11.3781 31.06 11.3781 32.009C11.3781 34.015 13.9831 34.723 15.0451 33.006C15.3841 32.457 15.3841 31.543 15.0451 30.994C14.5941 30.265 13.6551 29.872 12.8391 30.073ZM23.5061 30.075C22.2161 30.383 21.5951 32.01 22.3561 33.087C22.5271 33.329 22.8591 33.628 23.0931 33.751C23.5191 33.973 23.5631 33.973 37.0131 34.002C46.5781 34.022 50.6721 33.996 51.076 33.912C53.118 33.489 53.1361 30.528 51.0991 30.091C50.4671 29.956 24.0711 29.94 23.5061 30.075ZM12.8391 43.406C11.9601 43.622 11.3781 44.394 11.3781 45.343C11.3781 47.348 13.9831 48.056 15.0451 46.339C15.3841 45.791 15.3841 44.876 15.0451 44.328C14.5941 43.598 13.6551 43.206 12.8391 43.406ZM23.5061 43.408C22.2161 43.716 21.5951 45.344 22.3561 46.421C22.5271 46.663 22.8591 46.961 23.0931 47.084C23.5191 47.306 23.5631 47.307 37.0131 47.335C46.5781 47.356 50.6721 47.33 51.076 47.246C53.118 46.822 53.1361 43.861 51.0991 43.425C50.4671 43.289 24.0711 43.273 23.5061 43.408Z" fill="#222222"/>
</svg>
