<svg width="64" height="64" viewBox="0 0 64 64" fill="none" xmlns="http://www.w3.org/2000/svg">
<path fill-rule="evenodd" clip-rule="evenodd" d="M7.50598 16.742C6.21598 17.049 5.59498 18.677 6.35598 19.754C6.52698 19.996 6.85898 20.295 7.09298 20.417C7.51898 20.64 7.54398 20.64 22.347 20.669C32.88 20.689 37.338 20.663 37.743 20.579C39.784 20.156 39.802 17.195 37.766 16.758C37.133 16.622 8.07198 16.607 7.50598 16.742ZM7.50598 30.075C6.21598 30.383 5.59498 32.01 6.35598 33.087C6.52698 33.329 6.85898 33.628 7.09298 33.751C7.51898 33.973 7.54398 33.973 22.347 34.002C32.88 34.022 37.338 33.996 37.743 33.912C39.784 33.489 39.802 30.528 37.766 30.091C37.133 29.956 8.07198 29.94 7.50598 30.075ZM47.506 32.738C47.035 32.855 46.564 33.216 46.274 33.682C46.031 34.072 46.026 34.143 45.993 37.353L45.96 40.626L42.678 40.66L39.397 40.693L38.965 40.979C38.325 41.403 38.044 41.923 38.044 42.685C38.044 43.208 38.097 43.388 38.356 43.754C38.96 44.61 39.083 44.635 42.74 44.674L45.96 44.707L45.993 47.98C46.026 51.19 46.031 51.261 46.274 51.651C47.226 53.182 49.537 52.831 49.909 51.099C49.979 50.773 50.027 49.357 50.027 47.621V44.693H52.955C56.383 44.693 56.808 44.632 57.387 44.053C58.448 42.992 57.947 41.127 56.503 40.764C56.189 40.685 54.934 40.64 53.019 40.64H50.027L50.024 37.68C50.021 34.545 49.956 33.968 49.547 33.43C49.121 32.873 48.209 32.564 47.506 32.738ZM7.50598 43.408C6.21598 43.716 5.59498 45.344 6.35598 46.421C6.52698 46.663 6.85898 46.961 7.09298 47.084C7.51498 47.304 7.62099 47.307 17.01 47.336C23.685 47.357 26.669 47.33 27.073 47.247C29.073 46.831 29.147 43.928 27.17 43.43C26.611 43.29 8.08998 43.269 7.50598 43.408Z" fill="#222222"/>
</svg>
