<svg width="64" height="64" viewBox="0 0 64 64" fill="none" xmlns="http://www.w3.org/2000/svg">
<path fill-rule="evenodd" clip-rule="evenodd" d="M7.50605 16.742C6.21605 17.049 5.59505 18.677 6.35605 19.754C6.52705 19.996 6.85905 20.295 7.09305 20.417C7.51905 20.64 7.54405 20.64 22.347 20.669C32.88 20.689 37.338 20.663 37.743 20.579C39.784 20.156 39.802 17.195 37.766 16.758C37.133 16.622 8.07205 16.607 7.50605 16.742ZM7.50605 30.075C6.21605 30.383 5.59505 32.01 6.35605 33.087C6.52705 33.329 6.85905 33.628 7.09305 33.751C7.51905 33.973 7.54405 33.973 22.347 34.002C32.88 34.022 37.338 33.996 37.743 33.912C39.784 33.489 39.802 30.528 37.766 30.091C37.133 29.956 8.07205 29.94 7.50605 30.075ZM39.506 40.742C38.216 41.049 37.595 42.677 38.356 43.754C38.527 43.996 38.859 44.295 39.093 44.417C39.514 44.637 39.641 44.64 47.674 44.67C53.386 44.691 56.001 44.664 56.404 44.58C58.406 44.165 58.482 41.262 56.503 40.764C55.945 40.623 40.088 40.603 39.506 40.742ZM7.50605 43.408C6.21605 43.716 5.59505 45.344 6.35605 46.421C6.52705 46.663 6.85905 46.961 7.09305 47.084C7.51505 47.304 7.62105 47.307 17.01 47.336C23.685 47.357 26.669 47.33 27.073 47.247C29.073 46.831 29.147 43.928 27.17 43.43C26.611 43.29 8.09005 43.269 7.50605 43.408Z" fill="#222222"/>
</svg>
