<svg width="64" height="64" viewBox="0 0 64 64" fill="none" xmlns="http://www.w3.org/2000/svg">
<path fill-rule="evenodd" clip-rule="evenodd" d="M10.172 16.742C8.883 17.049 8.261 18.677 9.022 19.754C9.193 19.996 9.525 20.295 9.76 20.417C10.186 20.64 10.211 20.64 25.013 20.669C35.547 20.689 40.005 20.663 40.41 20.579C42.407 20.165 42.478 17.261 40.503 16.764C39.943 16.623 10.76 16.601 10.172 16.742ZM10.172 30.075C8.883 30.383 8.261 32.01 9.022 33.087C9.193 33.329 9.525 33.628 9.76 33.751C10.186 33.973 10.211 33.973 25.013 34.002C35.547 34.022 40.005 33.996 40.41 33.912C42.407 33.498 42.478 30.594 40.503 30.097C39.943 29.956 10.76 29.935 10.172 30.075ZM53.067 35.357C52.9262 35.3987 52.7837 35.4347 52.64 35.465C52.403 35.517 51.067 36.786 47.495 40.35L42.67 45.165L40.508 43.022C38.468 41 38.316 40.873 37.81 40.766C36.88 40.569 36.098 40.891 35.616 41.67C35.293 42.194 35.286 43.13 35.603 43.639C35.726 43.837 37.138 45.303 38.74 46.894C41.476 49.613 41.684 49.795 42.16 49.895C42.493 49.964 42.84 49.965 43.173 49.896C43.66 49.796 43.907 49.565 49.306 44.179C52.455 41.037 55.007 38.406 55.105 38.201C55.509 37.35 55.214 36.242 54.444 35.714C54.063 35.454 53.33 35.263 53.067 35.357ZM10.172 43.407C8.881 43.72 8.261 45.344 9.022 46.421C9.193 46.663 9.525 46.961 9.76 47.084C10.182 47.304 10.288 47.307 19.676 47.336C26.352 47.357 29.336 47.33 29.739 47.247C31.495 46.882 31.863 44.568 30.318 43.608L29.92 43.36L20.213 43.343C14.875 43.333 10.356 43.362 10.172 43.407Z" fill="#222222"/>
</svg>
