<svg width="64" height="64" viewBox="0 0 64 64" fill="none" xmlns="http://www.w3.org/2000/svg">
<path fill-rule="evenodd" clip-rule="evenodd" d="M47.5731 22.052C45.7471 22.203 44.0771 23.559 43.5511 25.32C43.4611 25.621 43.3871 26.227 43.3871 26.667C43.3871 28.332 44.1171 29.666 45.5271 30.581C46.2801 31.07 47.0001 31.27 48.0001 31.27C49.0001 31.27 49.7201 31.07 50.4731 30.581C51.8901 29.662 52.6041 28.352 52.6041 26.667C52.6041 25.722 52.4121 24.976 51.9971 24.307C51.0351 22.752 49.3711 21.904 47.5731 22.052ZM48.4451 26.203C48.6881 26.423 48.6971 26.854 48.4631 27.112C48.0971 27.516 47.3601 27.231 47.3601 26.685C47.3601 26.115 48.0221 25.821 48.4451 26.203ZM31.5201 27.378C29.6581 27.606 28.0701 28.916 27.5511 30.653C27.3411 31.354 27.3411 32.646 27.5511 33.347C27.8591 34.379 28.5571 35.285 29.5271 35.915C30.2801 36.403 31.0001 36.604 32.0001 36.604C33.0001 36.604 33.7201 36.403 34.4731 35.915C35.8901 34.995 36.6041 33.685 36.6041 32C36.6041 30.315 35.8901 29.005 34.4731 28.085C33.6551 27.555 32.4441 27.265 31.5201 27.378ZM32.4451 31.537C32.8501 31.903 32.5651 32.64 32.0191 32.64C31.8927 32.6416 31.7687 32.6061 31.6623 32.5379C31.5559 32.4697 31.4719 32.3718 31.4206 32.2563C31.3693 32.1409 31.3529 32.0129 31.3737 31.8882C31.3944 31.7636 31.4512 31.6477 31.5371 31.555C31.7561 31.312 32.1871 31.303 32.4451 31.537ZM15.5731 32.719C13.7471 32.869 12.0771 34.226 11.5511 35.987C11.3411 36.687 11.3411 37.979 11.5511 38.68C11.8591 39.712 12.5571 40.618 13.5271 41.248C14.2801 41.736 15.0001 41.937 16.0001 41.937C17.0001 41.937 17.7201 41.736 18.4731 41.248C19.8901 40.328 20.6041 39.018 20.6041 37.333C20.6041 36.389 20.4121 35.643 19.9971 34.973C19.0351 33.419 17.3711 32.571 15.5731 32.719ZM16.4451 36.87C16.8501 37.236 16.5651 37.973 16.0191 37.973C15.8927 37.9746 15.7687 37.9391 15.6623 37.8709C15.5559 37.8027 15.4719 37.7048 15.4206 37.5893C15.3693 37.4739 15.3529 37.3459 15.3737 37.2212C15.3944 37.0966 15.4512 36.9807 15.5371 36.888C15.7561 36.646 16.1871 36.637 16.4451 36.87Z" fill="#222222"/>
</svg>
