<svg width="64" height="64" viewBox="0 0 64 64" fill="none" xmlns="http://www.w3.org/2000/svg">
<path fill-rule="evenodd" clip-rule="evenodd" d="M30.7041 6.08802C26.8931 6.49202 23.588 9.37502 22.456 13.283C22.092 14.538 21.9741 15.996 21.9731 19.227V21.973L19.9201 21.977C17.1751 21.982 14.8191 22.127 13.9811 22.345C11.3541 23.026 9.39005 25.194 8.84605 28.012C8.67605 28.898 8.58205 47.506 8.73505 50.143C8.85505 52.207 9.01205 53.021 9.46305 53.914C10.5281 56.023 12.3011 57.352 14.6791 57.824C15.5371 57.994 44.786 58.087 47.5201 57.929C49.6451 57.806 50.385 57.65 51.413 57.111C52.7104 56.4373 53.7685 55.3799 54.4431 54.083C54.986 53.046 55.139 52.315 55.265 50.143C55.418 47.506 55.324 28.898 55.154 28.012C54.6101 25.194 52.646 23.026 50.0191 22.345C48.855 22.043 46.4921 21.98 36.0801 21.977L26.0271 21.973V18.636C26.0271 14.93 26.0691 14.601 26.7151 13.28C27.4061 11.868 28.7601 10.672 30.1551 10.241C31.0161 9.97502 32.3641 9.95602 33.1811 10.199C34.1051 10.473 34.6761 10.812 35.5491 11.604C36.1521 12.152 36.4911 12.378 36.8471 12.467C38.1541 12.796 39.309 11.853 39.281 10.479C39.267 9.79002 39.0311 9.38202 38.2191 8.63902C36.5781 7.14002 34.7421 6.30102 32.6271 6.08402C32.035 6.02302 31.5441 5.98002 31.5351 5.98802C31.259 6.02899 30.9819 6.06233 30.7041 6.08802ZM49.403 26.309C50.036 26.602 50.731 27.297 51.024 27.931L51.253 28.427V51.573L51.024 52.069C50.731 52.703 50.036 53.398 49.403 53.691L48.9071 53.92H15.0931L14.5971 53.691C13.9641 53.398 13.2691 52.703 12.9761 52.069L12.7471 51.573V28.427L12.9761 27.931C13.3921 27.03 14.2651 26.32 15.1811 26.137C15.4261 26.088 23.115 26.055 32.267 26.064L48.9071 26.08L49.403 26.309Z" fill="#222222"/>
</svg>
