<svg width="64" height="64" viewBox="0 0 64 64" fill="none" xmlns="http://www.w3.org/2000/svg">
<path fill-rule="evenodd" clip-rule="evenodd" d="M31.3071 6.04397C27.7781 6.35997 24.8631 8.23397 23.2601 11.219C22.1831 13.223 22.0701 13.866 22.0031 18.32L21.949 21.973L19.9081 21.977C17.1751 21.982 14.8171 22.128 13.9811 22.345C11.3541 23.026 9.39005 25.194 8.84605 28.012C8.67605 28.898 8.58205 47.506 8.73505 50.143C8.85505 52.207 9.01205 53.021 9.46305 53.914C10.5281 56.023 12.3011 57.352 14.6791 57.824C15.5371 57.994 44.786 58.087 47.5201 57.929C49.6451 57.806 50.385 57.65 51.413 57.111C52.7104 56.4372 53.7685 55.3799 54.4431 54.083C54.986 53.046 55.139 52.315 55.265 50.143C55.418 47.506 55.324 28.898 55.154 28.012C54.6101 25.194 52.646 23.026 50.0191 22.345C49.1831 22.128 46.8251 21.982 44.092 21.977L42.051 21.973L41.9971 18.32C41.9551 15.533 41.902 14.493 41.774 13.934C40.97 10.43 38.5761 7.73097 35.2411 6.56797C34.1161 6.17497 32.3961 5.94597 31.3071 6.04397ZM33.5421 10.19C33.8871 10.28 34.4611 10.506 34.8181 10.693C35.6571 11.133 36.8671 12.343 37.3071 13.182C37.9291 14.369 37.9731 14.725 37.9731 18.529V21.973H26.0271V18.529C26.0271 15.78 26.0601 14.958 26.1901 14.458C26.6971 12.511 28.4751 10.716 30.4121 10.195C31.1791 9.98897 32.7611 9.98597 33.5421 10.19ZM49.403 26.309C50.036 26.602 50.731 27.297 51.024 27.931L51.253 28.427V51.573L51.024 52.069C50.731 52.703 50.036 53.398 49.403 53.691L48.9071 53.92H15.0931L14.5971 53.691C13.9641 53.398 13.2691 52.703 12.9761 52.069L12.7471 51.573V28.427L12.9761 27.931C13.3921 27.03 14.2651 26.32 15.1811 26.137C15.4261 26.088 23.115 26.055 32.267 26.064L48.9071 26.08L49.403 26.309Z" fill="#222222"/>
</svg>
