<svg width="64" height="64" viewBox="0 0 64 64" fill="none" xmlns="http://www.w3.org/2000/svg">
<path fill-rule="evenodd" clip-rule="evenodd" d="M39.48 6.08006C38.108 6.40406 37.546 8.18206 38.469 9.27906C39.075 9.99906 38.782 9.96806 45.493 10.0271L51.573 10.0801L52.074 10.3271C52.713 10.6421 53.358 11.2871 53.673 11.9261L53.92 12.4271V51.5731L53.672 52.0781C53.32 52.7921 52.562 53.5011 51.874 53.7581C51.324 53.9641 51.05 53.9731 45.623 53.9761C42.501 53.9771 39.758 54.0221 39.528 54.0751C38.433 54.3291 37.785 55.4371 38.083 56.5441C38.245 57.1441 38.853 57.7551 39.45 57.9151C39.775 58.0031 41.635 58.0281 45.952 58.0041L52 57.9701L52.853 57.6811C54.036 57.2811 54.941 56.7181 55.829 55.8291C56.679 55.0019 57.3152 53.9806 57.683 52.8531L57.973 52.0001V12.0001L57.683 11.1471C57.3156 10.0189 56.6785 8.99736 55.827 8.17106C54.568 6.91506 53.265 6.27906 51.544 6.08206C50.452 5.95706 40.009 5.95506 39.48 6.08006ZM26.146 16.7451C25.1 16.9981 24.462 18.1261 24.748 19.2151C24.857 19.6311 25.412 20.2231 30.007 24.8271L35.144 29.9731L21.545 29.9761C13.767 29.9771 7.768 30.0201 7.528 30.0751C6.021 30.4251 5.498 32.2961 6.599 33.3981C6.815 33.6131 7.182 33.8431 7.416 33.9081C7.715 33.9911 11.86 34.0261 21.492 34.0261L35.144 34.0271L30.007 39.1731C25.412 43.7771 24.857 44.3691 24.748 44.7851C24.6522 45.1271 24.6491 45.4884 24.7391 45.8321C24.829 46.1757 25.0088 46.4892 25.2599 46.7404C25.511 46.9916 25.8244 47.1715 26.168 47.2616C26.5116 47.3517 26.8729 47.3487 27.215 47.2531C27.634 47.1431 28.373 46.4391 34.651 40.1791C39.395 35.4471 41.686 33.0901 41.822 32.8001C42.066 32.2791 42.079 31.8001 41.863 31.2771C41.749 31.0001 39.605 28.7831 34.796 23.9661C31 20.1641 27.773 16.9901 27.627 16.9121C27.257 16.7181 26.576 16.6401 26.146 16.7451Z" fill="#222222"/>
</svg>
