<svg width="64" height="64" viewBox="0 0 64 64" fill="none" xmlns="http://www.w3.org/2000/svg">
<path fill-rule="evenodd" clip-rule="evenodd" d="M29.3331 8.75001C27.4121 8.86201 26.3471 9.18701 25.1041 10.039C24.0141 10.786 22.9211 12.21 22.5171 13.408C22.1741 14.427 22.0731 15.36 22.0491 17.71C22.0301 19.57 22.0531 19.941 22.2031 20.213C22.5591 20.859 23.3201 21.333 24.0001 21.333C24.4121 21.333 25.0421 21.074 25.3691 20.768C25.9171 20.256 25.9581 20.05 26.0281 17.493C26.0851 15.376 26.1191 15.035 26.3161 14.597C26.5991 13.968 27.2931 13.271 27.9311 12.976L28.4271 12.747H48.9071L49.4031 12.976C50.0361 13.269 50.7311 13.964 51.0241 14.597L51.2531 15.093V48.907L51.0241 49.403C50.7311 50.036 50.0361 50.731 49.4031 51.024L48.9071 51.253H28.4271L27.9311 51.024C27.2931 50.729 26.5991 50.032 26.3161 49.403C26.1191 48.965 26.0851 48.624 26.0281 46.507C25.9761 44.6 25.9271 44.041 25.7911 43.787C25.2931 42.855 24.2081 42.443 23.2781 42.832C22.4341 43.184 22.0861 43.734 22.0071 44.839C21.9281 45.934 22.1531 49.329 22.3541 50.074C23.0521 52.669 25.2281 54.622 28.0121 55.152C28.9091 55.323 44.8791 55.416 47.4671 55.266C49.6471 55.139 50.3791 54.987 51.4131 54.445C53.1451 53.538 54.4961 51.883 54.9791 50.08C55.3241 48.793 55.3751 45.948 55.3271 30.453C55.2941 19.512 55.2471 15.132 55.1571 14.679C54.6861 12.3 53.3571 10.528 51.2461 9.46201C50.3961 9.03301 49.4611 8.84101 47.7331 8.74001C45.8441 8.63001 31.2611 8.63801 29.3331 8.75001ZM31.5061 22.072C31.0381 22.188 30.5641 22.549 30.2831 23.003C29.9591 23.528 29.9531 24.464 30.2711 24.972C30.3951 25.171 31.5311 26.365 32.7961 27.627L35.0951 29.92L22.5801 29.973L10.0641 30.027L9.63206 30.313C8.99206 30.737 8.71106 31.256 8.71106 32.018C8.71106 32.541 8.76406 32.721 9.02206 33.087C9.19306 33.329 9.52506 33.628 9.76006 33.751C10.1841 33.972 10.2691 33.974 22.6411 34.027L35.0951 34.08L32.7961 36.373C31.5311 37.635 30.3951 38.829 30.2711 39.028C29.9161 39.595 29.9541 40.519 30.3561 41.087C30.5271 41.329 30.8481 41.621 31.0701 41.736C31.5661 41.992 32.3701 42.008 32.8691 41.771C33.0721 41.674 35.1501 39.676 37.5131 37.305C41.5891 33.215 41.7961 32.989 41.8961 32.507C41.965 32.1725 41.965 31.8275 41.8961 31.493C41.7961 31.011 41.5891 30.785 37.5131 26.695C35.1611 24.335 33.0901 22.335 32.9111 22.251C32.4711 22.043 31.9091 21.972 31.5061 22.072Z" fill="#222222"/>
</svg>
