<svg width="64" height="64" viewBox="0 0 64 64" fill="none" xmlns="http://www.w3.org/2000/svg">
<path fill-rule="evenodd" clip-rule="evenodd" d="M13.333 11.417C11.887 11.501 10.902 11.713 10.103 12.113C8.00401 13.163 6.64201 14.979 6.17801 17.345C6.00801 18.214 5.91401 42.147 6.07001 44.839C6.18801 46.873 6.34701 47.691 6.79601 48.581C7.86101 50.69 9.62901 52.015 12.012 52.491C12.473 52.583 17.388 52.629 30.453 52.661C48.635 52.707 51.439 52.663 52.747 52.313C55.024 51.703 57.036 49.691 57.646 47.413C57.984 46.152 58.044 43.246 57.994 30.439C57.96 21.638 57.909 17.789 57.822 17.345C57.357 14.974 56.024 13.195 53.912 12.129C53.063 11.7 52.128 11.508 50.4 11.407C48.496 11.296 15.257 11.305 13.333 11.417ZM50.764 15.401C50.74 15.423 48.872 16.83 46.613 18.528C44.2064 20.3386 41.8064 22.1579 39.413 23.986C33.633 28.414 33.197 28.691 32 28.691C31.144 28.691 30.543 28.431 29.244 27.497C28.112 26.682 13.555 15.709 13.337 15.506C13.205 15.382 16.079 15.36 31.995 15.36C42.343 15.36 50.789 15.378 50.764 15.401ZM18.021 24.063C28.32 31.834 28.682 32.083 30.293 32.493C31.089 32.695 32.757 32.723 33.513 32.546C35.158 32.161 35.869 31.691 42.834 26.384C50.682 20.405 53.783 18.114 53.886 18.217C53.937 18.267 53.965 24.58 53.949 32.274L53.92 46.24L53.691 46.736C53.398 47.37 52.703 48.064 52.069 48.357L51.573 48.587H12.427L11.931 48.357C11.297 48.064 10.602 47.37 10.309 46.736L10.08 46.24L10.051 32.323C10.035 24.669 10.048 18.339 10.079 18.258C10.117 18.158 10.179 18.143 10.268 18.211L18.021 24.063Z" fill="#222222"/>
</svg>
