<svg width="64" height="64" viewBox="0 0 64 64" fill="none" xmlns="http://www.w3.org/2000/svg">
<path fill-rule="evenodd" clip-rule="evenodd" d="M13.333 11.417C11.887 11.501 10.902 11.713 10.103 12.113C8.00401 13.163 6.64201 14.979 6.17801 17.345C6.00801 18.214 5.91401 42.147 6.07001 44.839C6.19401 46.98 6.34901 47.716 6.89001 48.749C7.56454 50.0462 8.62259 51.1039 9.92001 51.778C10.905 52.295 11.771 52.486 13.6 52.593C16.021 52.734 31.761 52.719 32.433 52.575C34.165 52.204 34.516 49.893 32.985 48.941L32.587 48.693L22.507 48.64C12.474 48.587 12.424 48.586 11.931 48.357C11.297 48.064 10.602 47.37 10.309 46.736L10.08 46.24L10.051 32.274C10.035 24.593 10.06 18.271 10.107 18.224C10.153 18.178 13.694 20.785 17.976 24.019C28.396 31.889 28.675 32.081 30.293 32.493C31.089 32.695 32.757 32.723 33.513 32.546C35.158 32.161 35.869 31.691 42.834 26.384C50.554 20.502 53.783 18.114 53.88 18.211C53.927 18.258 53.98 21.512 53.996 25.442L54.027 32.587L54.274 32.985C55.258 34.567 57.546 34.177 57.922 32.363C58.094 31.536 58.005 18.407 57.82 17.394C57.388 15.012 56.047 13.207 53.912 12.129C53.063 11.7 52.128 11.508 50.4 11.407C48.496 11.296 15.257 11.305 13.333 11.417ZM50.764 15.401C50.74 15.423 48.872 16.83 46.613 18.528C44.2064 20.3386 41.8064 22.1579 39.413 23.986C33.633 28.414 33.197 28.691 32 28.691C31.144 28.691 30.543 28.431 29.244 27.497C28.112 26.682 13.555 15.709 13.337 15.506C13.205 15.382 16.079 15.36 31.995 15.36C42.343 15.36 50.789 15.378 50.764 15.401ZM55.253 40.168C55.024 40.266 53.553 41.653 51.44 43.763L48.001 47.198L46.534 45.738C45.727 44.934 44.932 44.227 44.766 44.165C44.311 43.995 43.51 44.031 43.101 44.24C42.528 44.532 42.111 45.13 42.052 45.743C41.959 46.712 42.094 46.916 44.362 49.214C45.512 50.38 46.667 51.472 46.928 51.64C47.2455 51.8516 47.6186 51.9644 48.0002 51.9642C48.3817 51.964 48.7547 51.8509 49.072 51.639C49.714 51.222 57.529 43.349 57.764 42.882C57.995 42.423 58.006 41.542 57.785 41.118C57.304 40.192 56.181 39.771 55.253 40.168Z" fill="#222222"/>
</svg>
