<svg width="64" height="64" viewBox="0 0 64 64" fill="none" xmlns="http://www.w3.org/2000/svg">
<path fill-rule="evenodd" clip-rule="evenodd" d="M13.333 11.417C12.6 11.46 11.688 11.576 11.307 11.676C9.39802 12.176 7.75902 13.522 6.83002 15.352C6.12802 16.733 7.25102 18.384 8.76902 18.204C9.06502 18.169 9.41402 18.07 9.54402 17.985C9.77102 17.836 10.119 18.085 17.77 23.864C28.413 31.903 28.67 32.08 30.293 32.493C31.089 32.695 32.757 32.723 33.513 32.546C35.158 32.161 35.869 31.691 42.834 26.384C50.682 20.405 53.783 18.114 53.886 18.217C53.937 18.267 53.965 24.58 53.949 32.274L53.92 46.24L53.691 46.736C53.398 47.37 52.703 48.064 52.069 48.357L51.573 48.587H32C13.811 48.587 12.398 48.574 12.027 48.405C11.362 48.104 10.897 47.686 10.435 46.971C9.92402 46.18 9.50102 45.883 8.76302 45.795C7.25102 45.616 6.13002 47.27 6.83002 48.648C7.86702 50.691 9.66102 52.021 12.012 52.491C12.473 52.583 17.388 52.629 30.453 52.661C48.635 52.707 51.439 52.663 52.747 52.313C55.05 51.696 57.058 49.669 57.654 47.36C57.963 46.163 58.02 43.791 58.02 32C58.02 20.209 57.963 17.837 57.654 16.64C57.051 14.304 55.029 12.282 52.693 11.679C52.312 11.581 51.28 11.458 50.4 11.407C48.496 11.296 15.257 11.305 13.333 11.417ZM50.764 15.401C50.74 15.423 48.872 16.83 46.613 18.528C44.2064 20.3386 41.8064 22.1579 39.413 23.986C33.633 28.414 33.197 28.691 32 28.691C31.144 28.691 30.543 28.431 29.244 27.497C28.112 26.682 13.555 15.709 13.337 15.506C13.205 15.382 16.079 15.36 31.995 15.36C42.343 15.36 50.789 15.378 50.764 15.401ZM8.14802 26.231C7.86249 26.3755 7.61013 26.5778 7.40702 26.825C6.84402 27.564 6.95902 28.842 7.64602 29.463C8.16702 29.934 8.48202 29.973 11.696 29.973C14.6 29.973 14.784 29.962 15.227 29.747C15.92 29.412 16.267 28.828 16.267 28C16.267 27.172 15.92 26.588 15.227 26.253C14.783 26.038 14.603 26.027 11.673 26.029C8.88902 26.031 8.54402 26.051 8.14802 26.231ZM8.14802 34.231C7.86249 34.3755 7.61013 34.5778 7.40702 34.825C6.84402 35.564 6.95902 36.842 7.64602 37.463C8.20402 37.968 8.27902 37.973 14.363 37.973C19.984 37.973 20.102 37.969 20.56 37.747C21.253 37.412 21.6 36.828 21.6 36C21.6 35.172 21.253 34.588 20.56 34.253C20.101 34.031 19.987 34.027 14.34 34.029C8.95102 34.031 8.55902 34.044 8.14802 34.231Z" fill="#222222"/>
</svg>
