<svg width="64" height="64" viewBox="0 0 64 64" fill="none" xmlns="http://www.w3.org/2000/svg">
<path fill-rule="evenodd" clip-rule="evenodd" d="M13.3329 11.417C11.8869 11.501 10.9019 11.713 10.1029 12.113C8.00388 13.163 6.64188 14.979 6.17788 17.345C6.00788 18.214 5.91389 42.147 6.06989 44.839C6.19389 46.98 6.34888 47.716 6.88988 48.749C7.56442 50.0462 8.62247 51.1039 9.91988 51.778C10.9049 52.295 11.7709 52.486 13.5999 52.593C16.0209 52.734 31.7609 52.719 32.4329 52.575C34.1649 52.204 34.5159 49.893 32.9849 48.941L32.5869 48.693L22.5069 48.64C12.4739 48.587 12.4239 48.586 11.9309 48.357C11.2969 48.064 10.6019 47.37 10.3089 46.736L10.0799 46.24L10.0509 32.274C10.0349 24.593 10.0599 18.271 10.1069 18.224C10.1529 18.178 13.6939 20.785 17.9759 24.019C28.3959 31.889 28.6749 32.081 30.2929 32.493C31.0889 32.695 32.7569 32.723 33.5129 32.546C35.1579 32.161 35.8689 31.691 42.8339 26.384C50.5539 20.502 53.7829 18.114 53.8799 18.211C53.9269 18.258 53.9799 21.512 53.9959 25.442L54.0269 32.587L54.2739 32.985C55.2579 34.567 57.5459 34.177 57.9219 32.363C58.0939 31.536 58.0049 18.407 57.8199 17.394C57.3879 15.012 56.0469 13.207 53.9119 12.129C53.0629 11.7 52.1279 11.508 50.3999 11.407C48.4959 11.296 15.2569 11.305 13.3329 11.417ZM50.7639 15.401C50.7399 15.423 48.8719 16.83 46.6129 18.528C44.2063 20.3386 41.8062 22.1579 39.4129 23.986C33.6329 28.414 33.1969 28.691 31.9999 28.691C31.1439 28.691 30.5429 28.431 29.2439 27.497C28.1119 26.682 13.5549 15.709 13.3369 15.506C13.2049 15.382 16.0789 15.36 31.9949 15.36C42.3429 15.36 50.7889 15.378 50.7639 15.401ZM49.3539 38.078C48.5349 38.226 47.7729 38.938 47.6089 39.707C47.5469 39.997 47.5369 40 46.7009 40C45.7199 40 45.3179 40.161 45.1229 40.633C44.8729 41.236 45.2439 41.854 45.9339 41.983L46.2839 42.049L46.3149 46.224L46.3469 50.4L46.6389 50.897C46.7999 51.171 47.1119 51.507 47.3319 51.644C47.7299 51.891 47.7619 51.893 51.0039 51.893H54.2749L54.7319 51.572C55.0059 51.379 55.2959 51.043 55.4579 50.728L55.7269 50.204L55.7699 46.129L55.8119 42.053L56.2219 41.93C56.9669 41.707 57.2029 40.934 56.7029 40.353C56.4599 40.07 56.3879 40.051 55.4419 40.017L54.4389 39.981L54.3199 39.537C54.1809 39.021 53.6529 38.436 53.1199 38.21C52.6779 38.022 50.1469 37.933 49.3539 38.078ZM53.7599 45.899C53.7599 48.768 53.7269 49.804 53.6319 49.899C53.4499 50.08 48.5229 50.08 48.3409 49.899C48.2459 49.804 48.2129 48.768 48.2129 45.899V42.027H53.7599V45.899ZM49.2679 42.827C48.7759 43.094 48.7329 43.38 48.7679 46.178L48.7999 48.765L49.0989 49.023C49.7109 49.549 50.5679 49.226 50.7189 48.412C50.7559 48.215 50.7709 46.981 50.7529 45.671L50.7199 43.289L50.3719 42.978C49.9889 42.636 49.6929 42.596 49.2679 42.827ZM51.9469 42.742C51.8006 42.8141 51.6658 42.9074 51.5469 43.019C51.3099 43.235 51.3069 43.271 51.3069 45.997V48.756L51.5679 49.018C51.7559 49.206 51.9449 49.279 52.2349 49.277C52.6769 49.273 52.9119 49.139 53.1029 48.78C53.2629 48.478 53.2759 43.492 53.1169 43.194C52.9199 42.827 52.3339 42.6 51.9469 42.742Z" fill="#222222"/>
</svg>
