<svg width="64" height="64" viewBox="0 0 64 64" fill="none" xmlns="http://www.w3.org/2000/svg">
<path fill-rule="evenodd" clip-rule="evenodd" d="M12.9931 11.416C9.7171 11.805 6.9741 14.263 6.2161 17.489C6.0401 18.237 6.0271 19.254 6.0271 32C6.0271 44.746 6.0401 45.763 6.2161 46.511C6.8781 49.33 9.0871 51.607 11.9301 52.402C12.7261 52.625 12.9501 52.632 20.9411 52.668C26.8181 52.695 29.3011 52.671 29.7231 52.583C31.4951 52.216 31.8711 49.907 30.3181 48.941L29.9201 48.693L21.4401 48.64L12.9601 48.587L12.3481 48.3C11.5661 47.934 10.7331 47.1 10.3671 46.318L10.0801 45.707L10.0521 35.385L10.0241 25.064L19.1321 31.137C24.1421 34.477 28.4821 37.332 28.7771 37.482C30.6741 38.443 33.3261 38.443 35.2231 37.482C35.5181 37.332 39.8561 34.479 44.8621 31.141L53.9641 25.072L53.9951 30.163L54.0271 35.253L54.2741 35.651C55.2401 37.205 57.5491 36.828 57.9171 35.057C58.0041 34.634 58.0281 32.152 58.0021 26.274C57.9651 18.283 57.9591 18.06 57.7361 17.264C56.9621 14.5 54.8471 12.383 52.0701 11.594L51.2531 11.362L32.4801 11.347C22.1551 11.339 13.3861 11.37 12.9931 11.416ZM51.6521 15.7C52.4341 16.067 53.2671 16.9 53.6331 17.682C53.8681 18.185 53.9241 18.473 53.9501 19.307L53.9821 20.32L43.7641 27.117C38.1451 30.855 33.3371 33.987 33.0801 34.077C32.8231 34.167 32.3371 34.24 32.0001 34.24C31.6631 34.24 31.1771 34.167 30.9201 34.077C30.6631 33.987 25.8591 30.855 20.2431 27.117L10.0321 20.32V19.413C10.0311 17.643 10.9371 16.286 12.5681 15.614L13.1731 15.364L32.1071 15.389L51.0401 15.413L51.6521 15.7ZM52.8391 43.406C52.3721 43.521 51.8971 43.882 51.6161 44.337C51.3401 44.784 51.2881 45.751 51.5171 46.187C51.5941 46.334 52.1381 46.944 52.7251 47.543L53.7931 48.633L46.5951 48.663L39.3981 48.693L38.9651 48.979C38.3251 49.403 38.0441 49.923 38.0441 50.685C38.0441 51.208 38.0971 51.388 38.3561 51.754C38.5271 51.996 38.8591 52.295 39.0931 52.417C39.5121 52.636 39.6561 52.641 46.6571 52.67L53.7931 52.701L52.7251 53.79C52.1381 54.39 51.5941 55 51.5171 55.146C51.4411 55.293 51.3781 55.69 51.3781 56.03C51.3781 56.54 51.4321 56.723 51.6891 57.087C51.8601 57.329 52.1821 57.621 52.4041 57.736C52.9001 57.993 53.7031 58.008 54.2051 57.769C54.4081 57.673 55.8981 56.264 57.5151 54.637C60.2791 51.858 60.4621 51.65 60.5621 51.173C60.6321 50.839 60.6321 50.4941 60.5621 50.16C60.4621 49.684 60.2791 49.476 57.5611 46.74C55.9691 45.138 54.5231 43.739 54.3471 43.632C53.9591 43.394 53.2921 43.295 52.8391 43.406Z" fill="#222222"/>
</svg>
