<svg width="64" height="64" viewBox="0 0 64 64" fill="none" xmlns="http://www.w3.org/2000/svg">
<path fill-rule="evenodd" clip-rule="evenodd" d="M13.333 11.417C11.887 11.501 10.902 11.713 10.103 12.113C8.00401 13.163 6.64201 14.979 6.17801 17.345C6.00801 18.214 5.91401 42.147 6.07001 44.839C6.19401 46.98 6.34901 47.716 6.89001 48.749C7.56454 50.0462 8.62259 51.1039 9.92001 51.778C10.905 52.295 11.771 52.486 13.6 52.593C16.021 52.734 31.761 52.719 32.433 52.575C34.165 52.204 34.516 49.893 32.985 48.941L32.587 48.693L22.507 48.64C12.474 48.587 12.424 48.586 11.931 48.357C11.297 48.064 10.602 47.37 10.309 46.736L10.08 46.24L10.051 32.274C10.035 24.593 10.06 18.271 10.107 18.224C10.153 18.178 13.694 20.785 17.976 24.019C28.396 31.889 28.675 32.081 30.293 32.493C31.089 32.695 32.757 32.723 33.513 32.546C35.158 32.161 35.869 31.691 42.834 26.384C50.554 20.502 53.783 18.114 53.88 18.211C53.927 18.258 53.98 21.512 53.996 25.442L54.027 32.587L54.274 32.985C55.258 34.567 57.546 34.177 57.922 32.363C58.094 31.536 58.005 18.407 57.82 17.394C57.388 15.012 56.047 13.207 53.912 12.129C53.063 11.7 52.128 11.508 50.4 11.407C48.496 11.296 15.257 11.305 13.333 11.417ZM50.764 15.401C50.74 15.423 48.872 16.83 46.613 18.528C44.2064 20.3386 41.8064 22.1579 39.413 23.986C33.633 28.414 33.197 28.691 32 28.691C31.144 28.691 30.543 28.431 29.244 27.497C28.112 26.682 13.555 15.709 13.337 15.506C13.205 15.382 16.079 15.36 31.995 15.36C42.343 15.36 50.789 15.378 50.764 15.401ZM49.227 37.162C48.766 37.364 48.229 37.955 48.106 38.394C48.049 38.603 48.001 39.718 48.001 40.872L48 42.971L45.733 43.006C43.596 43.038 43.442 43.054 43.038 43.286C42.35 43.68 42.08 44.17 42.08 45.022C42.08 45.666 42.114 45.782 42.411 46.15C43.056 46.947 43.188 46.982 45.733 47.024L48 47.061L48.002 49.211C48.004 51.065 48.032 51.419 48.2 51.791C48.877 53.281 51.003 53.378 51.731 51.951C51.927 51.567 51.947 51.325 51.947 49.295V47.061L54.213 47.021C56.298 46.983 56.516 46.961 56.924 46.746C58.002 46.178 58.301 44.766 57.552 43.784C57.018 43.084 56.848 43.044 54.272 43.006L51.958 42.972L51.926 40.597L51.893 38.223L51.586 37.82C51.049 37.117 49.998 36.824 49.227 37.162Z" fill="#222222"/>
</svg>
