<svg width="64" height="64" viewBox="0 0 64 64" fill="none" xmlns="http://www.w3.org/2000/svg">
<path fill-rule="evenodd" clip-rule="evenodd" d="M30.9481 7.63102C30.1531 7.80302 29.0331 8.35002 28.0551 9.04202C26.8441 9.90102 9.4711 23.045 8.7471 23.652C7.4641 24.726 6.6081 26.06 6.2101 27.607C6.0421 28.26 6.0271 29.283 6.0271 39.68C6.0271 51.658 6.0321 51.819 6.5171 53.259C6.9211 54.457 8.0141 55.881 9.1041 56.628C10.3891 57.509 11.3891 57.798 13.6001 57.926C14.4801 57.978 22.7601 58.02 32.0001 58.02C41.2401 58.02 49.5201 57.978 50.4001 57.926C52.2291 57.82 53.0951 57.628 54.0801 57.112C55.3771 56.4374 56.435 55.3798 57.1101 54.083C57.6281 53.095 57.8201 52.23 57.9261 50.4C58.0511 48.264 58.0471 30.598 57.9221 28.907C57.7631 26.772 57.2261 25.541 55.8441 24.151C54.9221 23.223 37.7751 9.45402 36.5751 8.67802C35.6891 8.10502 35.0751 7.83702 34.1731 7.62702C33.3271 7.43102 31.8611 7.43302 30.9481 7.63102ZM33.9201 11.733C34.1841 11.868 34.7601 12.252 35.2001 12.588C36.6341 13.68 51.3591 25.504 51.3811 25.58C51.3921 25.62 48.1881 28.077 44.2601 31.04C32.7921 39.69 33.2771 39.361 32.0001 39.359C31.1441 39.358 30.5411 39.096 29.2441 38.163C27.9521 37.234 13.1101 26.039 12.8701 25.813C12.6811 25.635 13.0211 25.364 21.3501 19.07C30.3961 12.234 30.9771 11.811 31.6451 11.562C32.2281 11.344 33.3201 11.427 33.9201 11.733ZM53.9501 42.08C53.9201 51.537 53.9191 51.575 53.6911 52.069C53.3981 52.703 52.7031 53.398 52.0691 53.691L51.5731 53.92H12.4271L11.9311 53.691C11.2971 53.398 10.6021 52.703 10.3091 52.069L10.0801 51.573L10.0511 40.187C10.0341 33.924 10.0581 28.8 10.1041 28.801C10.1491 28.801 13.6911 31.448 17.9731 34.683C22.2561 37.918 26.3271 40.965 27.0211 41.453C29.1201 42.931 30.1911 43.336 32.0001 43.336C33.7931 43.336 34.8631 42.936 36.9171 41.498C37.5861 41.029 41.6851 37.963 46.0271 34.684L53.9201 28.722L53.9501 30.654C53.9661 31.717 53.9661 36.859 53.9501 42.08Z" fill="#222222"/>
</svg>
