<svg width="64" height="64" viewBox="0 0 64 64" fill="none" xmlns="http://www.w3.org/2000/svg">
<path fill-rule="evenodd" clip-rule="evenodd" d="M30.226 4.15797C29.204 4.42597 28.342 4.87697 27.399 5.63697C26.299 6.52297 22.639 10.274 22.152 11.014C21.02 12.732 20.649 14.659 21.081 16.566C21.492 18.381 22.087 19.226 25.004 22.139C27.525 24.656 28.389 25.313 29.79 25.776C30.556 26.029 30.836 26.066 32 26.066C33.164 26.066 33.444 26.029 34.21 25.776C35.622 25.309 36.473 24.66 39.047 22.087C41.619 19.515 42.268 18.663 42.737 17.25C42.986 16.499 43.028 16.19 43.034 15.093C43.04 13.76 42.938 13.206 42.499 12.195C42.056 11.176 41.359 10.305 39.367 8.28297C36.424 5.29397 35.475 4.59797 33.732 4.15297C32.691 3.88697 31.253 3.88897 30.226 4.15797ZM32.825 8.04497C33.133 8.12597 33.613 8.36197 33.892 8.56797C34.47 8.99397 38.239 12.785 38.593 13.296C38.922 13.771 39.179 14.849 39.092 15.394C38.92 16.471 38.616 16.884 36.23 19.27C33.626 21.874 33.272 22.111 32 22.111C30.728 22.111 30.374 21.874 27.77 19.27C25.384 16.884 25.08 16.471 24.908 15.394C24.821 14.849 25.078 13.771 25.407 13.296C25.762 12.784 29.531 8.99397 30.111 8.56597C30.946 7.94997 31.831 7.77997 32.825 8.04497ZM13.489 21.057C12.624 21.255 11.502 21.775 10.78 22.314C9.96102 22.925 6.40402 26.441 5.63402 27.401C4.47602 28.844 3.94702 30.286 3.94702 32C3.94702 33.717 4.47902 35.165 5.63802 36.601C6.55602 37.739 10.175 41.267 10.985 41.814C12.893 43.103 15.083 43.423 17.25 42.728C18.655 42.277 19.498 41.635 22.088 39.047C24.646 36.49 25.309 35.617 25.783 34.187C26.028 33.446 26.066 33.157 26.066 32C26.066 29.535 25.47 28.386 22.729 25.568C19.062 21.798 17.843 21.04 15.307 20.951C14.548 20.924 13.906 20.962 13.489 21.057ZM47.626 21.015C45.707 21.397 44.458 22.291 41.271 25.568C39.364 27.528 38.64 28.532 38.224 29.79C37.971 30.556 37.934 30.836 37.934 32C37.934 33.164 37.971 33.444 38.224 34.21C38.691 35.622 39.34 36.473 41.913 39.047C44.485 41.619 45.337 42.268 46.75 42.737C47.501 42.986 47.81 43.028 48.907 43.034C50.643 43.042 51.636 42.746 53.032 41.803C53.832 41.263 57.453 37.728 58.375 36.587C59.518 35.172 60.048 33.703 60.051 31.937C60.055 30.291 59.505 28.814 58.361 27.399C57.575 26.426 54.024 22.914 53.22 22.314C52.468 21.753 51.363 21.25 50.462 21.059C49.706 20.899 48.318 20.877 47.626 21.015ZM16.423 25.237C16.891 25.45 17.451 25.95 19.276 27.779C21.883 30.392 22.111 30.733 22.111 32.011C22.111 33.252 21.86 33.623 19.251 36.239C16.876 38.619 16.468 38.921 15.394 39.092C14.72 39.199 13.718 38.902 13.072 38.404C12.33 37.83 8.62302 34.059 8.35102 33.6C7.97038 32.929 7.84368 32.1436 7.99402 31.387C8.06802 31.049 8.22902 30.605 8.35102 30.4C8.62802 29.933 12.467 26.031 13.132 25.54C14.103 24.823 15.277 24.715 16.423 25.237ZM49.754 25.016C50.098 25.106 50.6 25.342 50.87 25.541C51.534 26.031 55.372 29.933 55.649 30.4C55.771 30.605 55.932 31.049 56.006 31.387C56.163 32.104 56.023 32.974 55.647 33.6C55.368 34.065 51.666 37.834 50.931 38.402C50.282 38.902 49.281 39.199 48.606 39.092C47.533 38.921 47.124 38.619 44.733 36.227C42.123 33.618 41.889 33.27 41.889 32C41.889 30.727 42.127 30.373 44.723 27.781C46.963 25.544 47.437 25.171 48.292 24.969C48.881 24.83 49.063 24.836 49.754 25.016ZM30.56 38.018C29.512 38.26 28.764 38.587 27.932 39.166C26.964 39.841 22.943 43.843 22.258 44.814C20.488 47.324 20.448 50.399 22.152 52.986C22.639 53.726 26.299 57.477 27.399 58.363C28.836 59.521 30.284 60.053 32 60.053C33.717 60.053 35.165 59.521 36.601 58.362C37.728 57.453 41.265 53.828 41.803 53.032C42.746 51.636 43.042 50.643 43.034 48.907C43.028 47.81 42.986 47.501 42.737 46.75C42.268 45.337 41.619 44.485 39.047 41.913C36.456 39.323 35.614 38.682 34.21 38.234C33.128 37.888 31.528 37.793 30.56 38.018ZM33.38 42.2C33.848 42.41 34.396 42.896 36.23 44.73C38.616 47.116 38.92 47.529 39.092 48.606C39.199 49.28 38.902 50.282 38.404 50.928C37.83 51.67 34.059 55.377 33.6 55.649C32.9291 56.0296 32.1436 56.1563 31.387 56.006C31.049 55.932 30.605 55.771 30.4 55.649C29.941 55.377 26.17 51.67 25.596 50.928C25.098 50.282 24.801 49.28 24.908 48.606C25.08 47.528 25.384 47.116 27.763 44.741C29.156 43.35 30.205 42.39 30.49 42.246C31.444 41.764 32.37 41.749 33.38 42.2Z" fill="#222222"/>
</svg>
