<svg width="64" height="64" viewBox="0 0 64 64" fill="none" xmlns="http://www.w3.org/2000/svg">
<path fill-rule="evenodd" clip-rule="evenodd" d="M43.4669 12.047C39.0509 12.09 37.2189 12.142 37.0669 12.231C36.7329 12.425 36.2909 12.93 36.1669 13.26C35.8999 13.967 36.1299 15.011 36.6589 15.489C37.1939 15.973 37.4439 16 41.4089 16H45.1719L40.9199 20.253L36.6669 24.507L35.7999 23.924C31.2269 20.848 25.2069 20.524 20.2979 23.088C14.4319 26.151 11.2179 32.48 12.2109 39.014C12.8819 43.43 15.5869 47.483 19.3599 49.729C21.9559 51.274 24.3929 51.947 27.3859 51.946C31.5509 51.945 35.3549 50.339 38.2929 47.341C41.3839 44.187 42.9979 39.642 42.5669 35.307C42.2939 32.571 41.5089 30.331 40.0759 28.2L39.4929 27.333L43.7469 23.08L47.9999 18.828V22.591C47.9999 26.556 48.0269 26.806 48.5109 27.341C49.0099 27.893 50.0829 28.108 50.8029 27.8C51.2149 27.624 51.6779 27.149 51.8289 26.75C51.8989 26.565 51.9429 24.109 51.9519 19.954L51.9649 13.448L51.7169 13.007C51.4169 12.473 50.7889 12.085 50.1329 12.029C49.8689 12.007 46.8689 12.015 43.4669 12.047ZM29.4879 25.561C31.5916 25.9513 33.5355 26.9474 35.0809 28.427C37.1519 30.391 38.3439 32.835 38.6049 35.657C39.2009 42.074 34.2789 47.674 27.7869 47.967C24.4899 48.116 21.4309 46.873 19.1329 44.453C16.9649 42.171 15.8979 39.335 16.0309 36.213C16.0935 34.5835 16.5082 32.9868 17.2465 31.5328C17.9847 30.0788 19.0291 28.8018 20.3077 27.7897C21.5863 26.7776 23.0689 26.0543 24.6536 25.6696C26.2383 25.2849 27.8875 25.2478 29.4879 25.561Z" fill="#222222"/>
</svg>
