<svg width="64" height="64" viewBox="0 0 64 64" fill="none" xmlns="http://www.w3.org/2000/svg">
<path fill-rule="evenodd" clip-rule="evenodd" d="M23.52 6.07094C23.143 6.16794 7.23201 14.1139 6.79801 14.4219C6.63501 14.5369 6.39501 14.8309 6.26401 15.0759L6.02701 15.5199V56.6219L6.34701 57.0749C6.75201 57.6489 7.34501 57.9609 8.02801 57.9609C8.50201 57.9609 9.27201 57.5999 16.275 54.1009L24 50.2419L31.725 54.1009C38.887 57.6799 39.489 57.9609 40 57.9609C40.51 57.9609 41.131 57.6709 48.555 53.9669C52.958 51.7709 56.768 49.8439 57.022 49.6859C57.3 49.5119 57.581 49.2149 57.728 48.9389L57.973 48.4799V7.37794L57.653 6.92494C57.248 6.35094 56.655 6.03894 55.972 6.03894C55.498 6.03894 54.728 6.39994 47.725 9.89894L40 13.7579L32.293 9.91894C28.055 7.80794 24.419 6.05994 24.213 6.03394C23.9815 6.01051 23.7477 6.02299 23.52 6.07094ZM21.973 29.0399V46.7739L16.053 49.7339C12.797 51.3619 10.109 52.6929 10.08 52.6929C10.051 52.6929 10.027 44.7129 10.027 34.9599V17.2259L15.92 14.2719C19.161 12.6479 21.849 11.3159 21.893 11.3129C21.937 11.3089 21.973 19.2869 21.973 29.0399ZM32.053 14.2659L37.973 17.2259V34.9599C37.973 44.7129 37.949 52.6929 37.92 52.6929C37.891 52.6929 35.203 51.3619 31.947 49.7339L26.027 46.7739V29.0399C26.027 19.2869 26.051 11.3069 26.08 11.3069C26.109 11.3069 28.797 12.6379 32.053 14.2659ZM53.973 29.0399V46.7739L48.053 49.7339C44.797 51.3619 42.109 52.6929 42.08 52.6929C42.051 52.6929 42.027 44.7129 42.027 34.9599V17.2259L47.92 14.2719C51.161 12.6479 53.849 11.3159 53.893 11.3129C53.937 11.3089 53.973 19.2869 53.973 29.0399Z" fill="#222222"/>
</svg>
