<svg width="64" height="64" viewBox="0 0 64 64" fill="none" xmlns="http://www.w3.org/2000/svg">
<path fill-rule="evenodd" clip-rule="evenodd" d="M30.381 6.08312C24.971 6.48612 19.71 9.15912 16.215 13.2801C10.882 19.5701 9.91803 28.0011 13.522 36.8531C15.396 41.4571 18.819 46.4521 23.189 50.9591C25.698 53.5451 28.924 56.3211 30.08 56.8871C30.737 57.2091 30.838 57.2271 32 57.2271C33.162 57.2271 33.263 57.2091 33.92 56.8871C35.057 56.3301 38.289 53.5571 40.72 51.0521C46.574 45.0201 50.41 38.6631 51.893 32.5331C52.487 30.0761 52.741 27.2781 52.578 24.9671C52.199 19.5611 49.535 14.3501 45.387 10.8951C41.2011 7.40071 35.8185 5.67464 30.381 6.08312ZM34.4 10.1781C38.166 10.7571 41.252 12.3201 43.893 14.9871C46.026 17.1411 47.438 19.6311 48.155 22.5041C48.535 24.0221 48.64 24.8981 48.64 26.5351C48.64 32.5351 45.907 38.8881 40.576 45.2801C39.126 47.0181 35.898 50.2651 34.096 51.7961C32.443 53.2001 32.181 53.3751 31.859 53.2941C31.071 53.0971 25.618 47.9161 23.424 45.2801C18.077 38.8591 15.36 32.5481 15.36 26.5501C15.36 23.7041 15.919 21.4131 17.228 18.9011C18.013 17.3931 18.848 16.2591 20.107 14.9871C22.713 12.3551 25.8 10.7771 29.493 10.1871C30.651 10.0031 33.227 9.99812 34.4 10.1781ZM31.093 16.7421C28.737 17.0251 26.74 18.4011 25.514 20.5871C24.447 22.4901 24.447 25.5101 25.514 27.4131C26.918 29.9161 29.208 31.2821 32 31.2821C34.792 31.2821 37.082 29.9161 38.486 27.4131C39.553 25.5101 39.553 22.4901 38.486 20.5871C36.951 17.8501 34.122 16.3791 31.093 16.7421ZM33.211 20.9101C33.985 21.1991 34.801 22.0151 35.09 22.7891C35.911 24.9841 34.323 27.3071 32 27.3071C30.771 27.3071 29.582 26.5761 28.98 25.4501C28.644 24.8191 28.642 23.1831 28.978 22.5551C29.396 21.7731 30.268 21.0281 31.039 20.7931C31.569 20.6321 32.618 20.6881 33.211 20.9101Z" fill="#222222"/>
</svg>
