<svg width="64" height="64" viewBox="0 0 64 64" fill="none" xmlns="http://www.w3.org/2000/svg">
<path fill-rule="evenodd" clip-rule="evenodd" d="M30.228 6.08412C23.935 6.56612 18.255 9.51112 14.707 14.1331C13.16 16.1491 12.019 18.7361 11.577 21.2311L11.396 22.2481L10.736 22.4851C8.86803 23.1551 7.19703 24.8381 6.46503 26.7871C6.00003 28.0241 5.95403 28.7261 5.99903 33.8131C6.04603 39.0651 6.04903 39.0931 6.78003 40.5871C7.49297 42.0144 8.64994 43.1717 10.077 43.8851C11.572 44.6171 11.609 44.6211 16.766 44.6651C20.066 44.6941 21.558 44.6701 21.882 44.5831C22.471 44.4241 23.089 43.8111 23.245 43.2301C23.33 42.9161 23.356 39.9821 23.336 33.1001C23.307 23.5561 23.303 23.4081 23.088 23.0411C22.968 22.8371 22.664 22.5251 22.413 22.3481L21.955 22.0271L18.764 21.9931C15.078 21.9541 15.417 22.1121 15.845 20.6341C16.437 18.5891 17.548 16.7901 19.302 15.0331C21.099 13.2341 23.131 11.9541 25.547 11.0981C30.365 9.39312 35.987 9.72212 40.48 11.9731C42.151 12.8101 43.341 13.6741 44.695 15.0331C46.457 16.8031 47.565 18.5961 48.155 20.6341C48.583 22.1121 48.922 21.9541 45.236 21.9931L42.045 22.0271L41.587 22.3481C41.336 22.5251 41.032 22.8371 40.912 23.0411C40.697 23.4081 40.693 23.5561 40.664 33.1001C40.644 39.9821 40.67 42.9161 40.755 43.2301C40.906 43.7921 41.527 44.4201 42.082 44.5741C42.345 44.6471 43.636 44.6921 45.467 44.6931C47.095 44.6931 48.427 44.7101 48.427 44.7301C48.427 44.9151 47.923 46.1431 47.556 46.8511C47.209 47.5221 46.869 47.9661 46.137 48.7041C45.017 49.8331 44.124 50.3971 42.667 50.8961C41.662 51.2411 41.633 51.2441 39.307 51.2801L36.96 51.3161L36.589 50.6601C35.537 48.8021 33.336 47.7541 31.187 48.0881C28.618 48.4881 26.667 50.7521 26.667 53.3331C26.667 56.2121 29.121 58.6671 32 58.6671C33.826 58.6671 35.685 57.5921 36.589 56.0141L36.96 55.3661L38.776 55.3631C41.542 55.3581 43.002 55.1161 44.877 54.3521C46.428 53.7201 47.485 52.9901 48.904 51.5711C50.971 49.5041 51.841 47.8491 52.52 44.6931C52.565 44.4851 52.702 44.3841 53.142 44.2311C55.083 43.5571 56.787 41.8691 57.538 39.8741C57.992 38.6671 58.045 37.8491 57.999 32.8001C57.953 27.6651 57.944 27.5891 57.27 26.1691C56.463 24.4691 54.681 22.8871 53.008 22.3861L52.609 22.2661L52.438 21.3331C51.576 16.6221 48.888 12.6401 44.649 9.79612C40.536 7.03612 35.325 5.69512 30.228 6.08412ZM19.307 33.3331V40.6401H16.004C12.93 40.6401 12.661 40.6251 12.114 40.4201C11.402 40.1541 10.701 39.5011 10.342 38.7721L10.08 38.2401L10.047 33.5471C10.024 30.2491 10.051 28.7261 10.137 28.4271C10.421 27.4351 11.251 26.5521 12.241 26.1881C12.546 26.0761 13.428 26.0401 15.973 26.0341L19.307 26.0271V33.3331ZM52.098 26.3381C52.7755 26.6756 53.3245 27.2247 53.662 27.9021L53.92 28.4271V38.2401L53.658 38.7721C53.299 39.5011 52.598 40.1541 51.886 40.4201C51.339 40.6251 51.07 40.6401 47.996 40.6401H44.693V26.0181L48.133 26.0491C51.528 26.0801 51.58 26.0831 52.098 26.3381Z" fill="#222222"/>
</svg>
