<svg width="64" height="64" viewBox="0 0 64 64" fill="none" xmlns="http://www.w3.org/2000/svg">
<path fill-rule="evenodd" clip-rule="evenodd" d="M30.2929 6.07999C23.7139 6.54499 17.5649 9.43499 13.1329 14.146C9.53695 17.968 7.27195 22.563 6.32895 27.947C6.04595 29.564 6.04595 34.436 6.32895 36.053C7.26895 41.424 9.54595 46.041 13.1329 49.854C19.0359 56.129 27.7969 59.045 36.3729 57.591C38.665 57.202 41.674 56.263 42.2109 55.769C42.5599 55.448 42.875 54.762 42.8779 54.317C42.882 53.638 42.403 52.837 41.813 52.537C41.1759 52.213 40.794 52.237 39.49 52.682C36.894 53.568 35.264 53.865 32.587 53.94C29.825 54.017 27.8479 53.751 25.3869 52.973C18.5969 50.824 13.2519 45.514 11.0929 38.773C10.281 36.236 10.0799 34.893 10.0799 32C10.0799 29.157 10.2689 27.856 11.0499 25.333C13.3209 18 19.5359 12.292 27.1469 10.551C29.4529 10.024 32.4969 9.87699 34.7929 10.183C44.8749 11.525 52.639 19.407 53.8639 29.544C53.924 30.041 53.9729 31.752 53.9729 33.346C53.9729 35.934 53.951 36.317 53.762 36.929C52.916 39.666 49.646 41.079 47.0569 39.824C45.755 39.193 44.629 37.75 44.374 36.385C44.309 36.036 44.2669 32.965 44.2669 28.552C44.2669 21.374 44.264 21.289 44.04 20.827C43.507 19.725 42.0019 19.401 41.0169 20.176C40.5269 20.562 40.32 21.124 40.32 22.069V22.921L39.4399 22.258C33.3099 17.639 24.5919 19.612 21.0979 26.409C18.0059 32.424 20.3819 39.804 26.4089 42.902C31.0969 45.312 36.706 44.467 40.548 40.772L41.469 39.886L41.949 40.556C43.1366 42.2043 44.843 43.4065 46.7949 43.97C47.4899 44.17 47.881 44.209 49.173 44.206C50.7729 44.201 51.1259 44.142 52.4119 43.66C54.4079 42.912 56.435 40.928 57.303 38.873C57.897 37.468 57.9739 36.822 57.964 33.333C57.955 30.082 57.875 29.043 57.4799 26.987C56.048 19.545 51.282 12.997 44.589 9.28199C40.346 6.92499 35.0659 5.74299 30.2929 6.07999ZM34.24 24.006C35.6439 24.396 36.6149 24.988 37.8129 26.187C39.591 27.964 40.24 29.52 40.24 32C40.24 34.48 39.591 36.036 37.8129 37.813C36.0409 39.586 34.4469 40.255 31.9999 40.255C29.5529 40.255 27.9589 39.586 26.1869 37.813C24.4139 36.041 23.7449 34.447 23.7449 32C23.7449 29.586 24.4149 27.967 26.1329 26.228C27.5359 24.809 28.9269 24.071 30.7539 23.78C31.6079 23.644 33.3419 23.756 34.24 24.006Z" fill="#222222"/>
</svg>
