<svg width="64" height="64" viewBox="0 0 64 64" fill="none" xmlns="http://www.w3.org/2000/svg">
<path fill-rule="evenodd" clip-rule="evenodd" d="M12.8389 22.0749C11.5489 22.3829 10.9279 24.0099 11.6889 25.0869C11.8599 25.3289 12.1919 25.6279 12.4269 25.7509L12.8529 25.9729L31.6799 26.0019C45.1189 26.0219 50.6699 25.9959 51.0759 25.9119C53.1179 25.4889 53.1359 22.5279 51.0989 22.0909C50.4659 21.9549 13.4059 21.9399 12.8389 22.0749ZM12.8389 38.0749C11.5489 38.3829 10.9279 40.0099 11.6889 41.0869C11.8599 41.3289 12.1919 41.6279 12.4269 41.7509L12.8529 41.9729L31.6799 42.0019C45.1189 42.0219 50.6699 41.9959 51.0759 41.9119C53.1179 41.4889 53.1359 38.5279 51.0989 38.0909C50.4659 37.9549 13.4059 37.9399 12.8389 38.0749Z" fill="#222222"/>
</svg>
