<svg width="64" height="64" viewBox="0 0 64 64" fill="none" xmlns="http://www.w3.org/2000/svg">
<path fill-rule="evenodd" clip-rule="evenodd" d="M28.8391 16.74C27.5481 17.053 26.9281 18.677 27.6891 19.754C27.8601 19.996 28.1921 20.295 28.4271 20.417C28.8501 20.638 28.9351 20.64 39.6781 20.669C47.3171 20.69 50.6711 20.663 51.0741 20.58C52.8281 20.215 53.1961 17.901 51.6511 16.941L51.2531 16.693L40.2131 16.676C34.1411 16.667 29.0231 16.696 28.8391 16.74ZM12.8391 30.075C11.5491 30.383 10.9281 32.01 11.6891 33.087C11.8601 33.329 12.1921 33.628 12.4271 33.751L12.8531 33.973L31.6801 34.002C45.1191 34.022 50.6701 33.996 51.0761 33.912C53.0731 33.499 53.1441 30.594 51.1701 30.097C50.6091 29.956 13.4281 29.934 12.8391 30.075ZM28.8391 43.407C27.5481 43.72 26.9281 45.344 27.6891 46.421C27.8601 46.663 28.1921 46.961 28.4271 47.084C28.8501 47.305 28.9351 47.307 39.6781 47.336C47.3171 47.356 50.6711 47.33 51.0741 47.246C52.8281 46.882 53.1961 44.568 51.6511 43.608L51.2531 43.36L40.2131 43.343C34.1411 43.334 29.0231 43.363 28.8391 43.407Z" fill="#222222"/>
</svg>
