<svg width="64" height="64" viewBox="0 0 64 64" fill="none" xmlns="http://www.w3.org/2000/svg">
<path fill-rule="evenodd" clip-rule="evenodd" d="M12.839 16.7409C11.548 17.0519 10.928 18.6769 11.689 19.7539C11.86 19.9959 12.192 20.2949 12.427 20.4169L12.853 20.6399L31.68 20.6679C45.119 20.6889 50.67 20.6629 51.076 20.5789C52.828 20.2159 53.194 17.8999 51.651 16.9409L51.253 16.6929L32.213 16.6769C21.741 16.6679 13.023 16.6969 12.839 16.7409ZM12.839 30.0749C11.549 30.3829 10.928 32.0099 11.689 33.0869C11.86 33.3289 12.192 33.6279 12.427 33.7509L12.853 33.9729L31.68 34.0019C45.119 34.0219 50.67 33.9959 51.076 33.9119C53.118 33.4889 53.136 30.5279 51.099 30.0909C50.466 29.9549 13.406 29.9399 12.839 30.0749ZM31.506 43.4069C30.214 43.7199 29.595 45.3439 30.356 46.4209C30.527 46.6629 30.859 46.9609 31.093 47.0839C31.515 47.3039 31.621 47.3069 41.01 47.3359C47.685 47.3569 50.669 47.3299 51.073 47.2469C52.828 46.8819 53.196 44.5679 51.651 43.6079L51.253 43.3599L41.547 43.3429C36.208 43.3329 31.69 43.3619 31.506 43.4069Z" fill="#222222"/>
</svg>
