<svg width="64" height="64" viewBox="0 0 64 64" fill="none" xmlns="http://www.w3.org/2000/svg">
<path fill-rule="evenodd" clip-rule="evenodd" d="M7.50592 22.0749C6.21592 22.3829 5.59492 24.0099 6.35592 25.0869C6.52692 25.3289 6.85892 25.6279 7.09292 25.7509L7.51992 25.9729L31.6799 26.0019C48.9939 26.0219 56.0009 25.9959 56.4099 25.9119C58.4069 25.4989 58.4779 22.5939 56.5029 22.0969C55.9419 21.9559 8.09592 21.9339 7.50592 22.0749ZM7.50592 38.0749C6.21592 38.3829 5.59492 40.0099 6.35592 41.0869C6.52692 41.3289 6.85892 41.6279 7.09292 41.7509L7.51992 41.9729L31.6799 42.0019C48.9939 42.0219 56.0009 41.9959 56.4099 41.9119C58.4069 41.4989 58.4779 38.5939 56.5029 38.0969C55.9419 37.9559 8.09592 37.9339 7.50592 38.0749Z" fill="#222222"/>
</svg>
