<svg width="64" height="64" viewBox="0 0 64 64" fill="none" xmlns="http://www.w3.org/2000/svg">
<path fill-rule="evenodd" clip-rule="evenodd" d="M12.8391 16.74C11.5481 17.053 10.9281 18.677 11.6891 19.754C11.8601 19.996 12.1921 20.295 12.4271 20.417C12.8501 20.638 12.9351 20.64 23.6781 20.669C31.3171 20.69 34.6711 20.663 35.0741 20.58C36.8281 20.215 37.1961 17.901 35.6511 16.941L35.2531 16.693L24.2131 16.676C18.1411 16.667 13.0231 16.696 12.8391 16.74ZM12.8391 30.075C11.5491 30.383 10.9281 32.01 11.6891 33.087C11.8601 33.329 12.1921 33.628 12.4271 33.751L12.8531 33.973L31.6801 34.002C45.1191 34.022 50.6701 33.996 51.0761 33.912C53.0731 33.499 53.1441 30.594 51.1701 30.097C50.6091 29.956 13.4281 29.934 12.8391 30.075ZM12.8391 43.408C11.5481 43.718 10.9281 45.344 11.6891 46.421C11.8601 46.663 12.1921 46.961 12.4271 47.084L12.8531 47.307L31.6801 47.335C45.1191 47.355 50.6701 47.33 51.0761 47.246C52.8281 46.883 53.1941 44.567 51.6511 43.608L51.2531 43.36L32.2131 43.344C21.7411 43.334 13.0231 43.363 12.8391 43.408Z" fill="#222222"/>
</svg>
