<svg width="64" height="64" viewBox="0 0 64 64" fill="none" xmlns="http://www.w3.org/2000/svg">
<path fill-rule="evenodd" clip-rule="evenodd" d="M29.9221 5.18299C27.5501 5.63199 25.4501 6.75699 23.8351 8.44499C22.5831 9.75399 21.7681 11.081 21.2261 12.693C20.6551 14.391 20.6651 14.2 20.6171 24.213C20.5671 34.323 20.6151 35.697 21.0711 37.303C22.2121 41.326 25.5221 44.391 29.6531 45.25C31.0151 45.533 33.3301 45.478 34.6501 45.131C37.1785 44.4612 39.4046 42.9529 40.9641 40.853C41.6161 39.98 42.4201 38.272 42.7481 37.067L43.0381 36L43.0691 25.665C43.0951 16.698 43.0771 15.202 42.9331 14.367C42.5151 11.943 41.5061 10.02 39.7301 8.26699C38.2205 6.77069 36.3199 5.72994 34.2461 5.26399C33.1981 5.03099 30.9481 4.98899 29.9221 5.18299ZM33.7091 9.22699C36.0371 9.83099 38.0111 11.687 38.8011 14.018L39.0931 14.88L39.1241 24.853C39.1581 36.04 39.1731 35.79 38.4021 37.387C37.8086 38.6146 36.8817 39.6505 35.7273 40.3762C34.5729 41.102 33.2376 41.4883 31.8741 41.491C29.0801 41.498 26.5491 39.904 25.3221 37.367C24.6301 35.934 24.6441 36.188 24.6421 25.217C24.6401 15.762 24.6501 15.249 24.8451 14.484C25.2081 13.068 25.6411 12.329 26.7711 11.197C28.0661 9.90199 29.1631 9.31399 30.7611 9.05999C31.4741 8.94599 32.9481 9.02999 33.7091 9.22699ZM14.1331 33.031C13.1921 33.527 12.9541 34.12 13.0551 35.709C13.1441 37.107 13.2851 38.079 13.5591 39.2C15.3301 46.432 21.4731 51.953 28.8271 52.922L29.8671 53.059V57.067H26.6621C23.6811 57.067 23.4291 57.081 23.0451 57.278C22.0011 57.81 21.7091 59.247 22.4481 60.216C23.0531 61.009 22.4311 60.96 31.9021 60.96H40.3921L40.8321 60.655C41.5711 60.143 41.9051 59.098 41.5931 58.274C41.4691 57.944 41.0271 57.438 40.6931 57.244C40.5491 57.16 39.4041 57.103 37.1731 57.067L33.8671 57.013V53.07L35.0401 52.898C39.0351 52.313 42.5411 50.558 45.3761 47.723C48.6721 44.427 50.5881 40 50.6891 35.452C50.7121 34.416 50.6891 34.248 50.4721 33.865C49.8631 32.791 48.4091 32.514 47.5121 33.301C46.9301 33.812 46.8181 34.131 46.7171 35.562C46.5621 37.74 46.1641 39.274 45.2841 41.079C43.9211 43.873 41.5461 46.272 38.7731 47.656C35.3151 49.382 30.2151 49.631 26.4121 48.259C23.0871 47.06 20.1141 44.396 18.5031 41.173C17.6611 39.488 17.1741 37.58 16.9871 35.227C16.8991 34.128 16.8651 33.994 16.5761 33.638C16.382 33.406 16.1509 33.2076 15.8921 33.051C15.4381 32.808 14.5751 32.797 14.1331 33.031Z" fill="#222222"/>
</svg>
