<svg width="64" height="64" viewBox="0 0 64 64" fill="none" xmlns="http://www.w3.org/2000/svg">
<path fill-rule="evenodd" clip-rule="evenodd" d="M29.937 5.17595C25.369 6.04195 21.904 9.38496 20.875 13.918C20.666 14.839 20.655 15.275 20.615 24.213C20.569 34.37 20.616 35.713 21.069 37.28C21.354 38.265 21.845 39.467 21.961 39.466C21.997 39.466 22.618 38.684 23.341 37.729L24.654 35.993L24.647 25.703C24.639 14.194 24.612 14.659 25.397 13.027C25.767 12.258 26 11.948 26.813 11.146C28.335 9.64395 29.793 9.03695 31.893 9.02895C33.889 9.02096 35.516 9.70095 36.975 11.151C37.698 11.871 37.923 12.182 38.325 13.021C38.858 14.135 39.035 14.782 39.134 15.973L39.2 16.773L40.834 14.616L42.468 12.458L42.293 12.016C41.027 8.81095 38.052 6.24295 34.557 5.33995C33.359 5.03095 31.122 4.95095 29.937 5.17595ZM46.729 8.87495C46.317 9.09595 44.646 11.259 33.231 26.343C26.065 35.812 20.155 43.575 20.097 43.594C19.962 43.639 19.026 42.216 18.504 41.173C17.662 39.491 17.174 37.581 16.987 35.227C16.899 34.128 16.865 33.994 16.576 33.638C15.947 32.861 14.939 32.628 14.086 33.064C13.197 33.517 12.955 34.142 13.056 35.726C13.314 39.767 14.655 43.297 17.063 46.271C17.413 46.703 17.576 46.991 17.523 47.081C17.477 47.157 16.722 48.167 15.845 49.324L14.249 51.429L14.206 52.111C14.169 52.694 14.201 52.859 14.431 53.251C14.826 53.926 15.414 54.222 16.249 54.167C16.655 54.14 17.024 54.046 17.214 53.921C17.442 53.769 19.706 50.91 20.504 49.764C20.556 49.689 20.642 49.694 20.77 49.781C23.337 51.503 26.03 52.553 28.827 52.922L29.867 53.059V57.067H26.662C23.681 57.067 23.429 57.081 23.045 57.278C22.001 57.81 21.709 59.247 22.448 60.216C23.053 61.009 22.431 60.96 31.902 60.96H40.392L40.832 60.655C41.571 60.143 41.905 59.098 41.593 58.274C41.469 57.944 41.027 57.438 40.693 57.244C40.549 57.16 39.404 57.103 37.173 57.067L33.867 57.013V53.07L35.04 52.898C39.035 52.313 42.541 50.558 45.376 47.723C48.672 44.427 50.588 40 50.689 35.452C50.712 34.416 50.689 34.248 50.472 33.865C50.084 33.181 49.591 32.907 48.747 32.907C48.167 32.907 47.967 32.955 47.651 33.172C46.999 33.618 46.823 34.068 46.717 35.553C46.562 37.741 46.165 39.271 45.284 41.079C43.921 43.873 41.546 46.272 38.773 47.656C35.311 49.384 30.217 49.631 26.403 48.256C25.549 47.948 23.757 47.035 23.314 46.681L23.017 46.444L36.137 29.106C43.353 19.57 49.334 11.618 49.428 11.436C49.665 10.978 49.643 10.29 49.374 9.73295C48.906 8.76695 47.677 8.36795 46.729 8.87495ZM41.12 24.191L39.2 26.72L39.141 31.147C39.084 35.383 39.071 35.605 38.838 36.32C38.066 38.685 36.357 40.396 33.973 41.191C33.342 41.402 33.013 41.44 31.84 41.438C30.466 41.435 29.958 41.331 28.782 40.809C28.642 40.747 28.364 41.05 27.472 42.233C26.849 43.06 26.314 43.8 26.285 43.878C26.171 44.174 28.561 45.087 30.102 45.335C31.292 45.527 33.632 45.42 34.72 45.124C38.477 44.101 41.443 41.265 42.593 37.597C43.075 36.061 43.105 35.483 43.071 28.351L43.04 21.663L41.12 24.191Z" fill="#222222"/>
</svg>
