<svg width="64" height="64" viewBox="0 0 64 64" fill="none" xmlns="http://www.w3.org/2000/svg">
<path fill-rule="evenodd" clip-rule="evenodd" d="M24 6.08411C22.553 6.16811 21.569 6.38011 20.769 6.78011C18.672 7.82911 17.317 9.63311 16.842 12.0121C16.672 12.8641 16.578 47.6641 16.739 50.2931C16.857 52.2161 17.022 53.0401 17.463 53.9141C18.54 56.0471 20.345 57.3871 22.727 57.8211C23.693 57.9971 36.86 58.0851 39.467 57.9331C41.647 57.8061 42.38 57.6531 43.413 57.1111C45.145 56.2041 46.496 54.5501 46.979 52.7471C47.33 51.4391 47.374 48.6351 47.328 30.4531C47.295 17.3881 47.25 12.4731 47.158 12.0121C46.682 9.62911 45.356 7.86111 43.246 6.79611C42.396 6.36611 41.461 6.17411 39.733 6.07411C37.848 5.96411 25.929 5.97111 24 6.08411ZM41.403 10.3091C42.036 10.6021 42.731 11.2971 43.024 11.9311L43.253 12.4271V51.5731L43.024 52.0691C42.731 52.7031 42.036 53.3981 41.403 53.6911C40.908 53.9201 40.888 53.9201 32 53.9201C23.112 53.9201 23.092 53.9201 22.597 53.6911C21.964 53.3981 21.269 52.7031 20.976 52.0691L20.747 51.5731V12.4271L20.976 11.9311C21.392 11.0311 22.264 10.3211 23.181 10.1361C23.426 10.0871 27.515 10.0541 32.267 10.0631C40.864 10.0801 40.909 10.0811 41.403 10.3091Z" fill="#222222"/>
</svg>
