<svg width="64" height="64" viewBox="0 0 64 64" fill="none" xmlns="http://www.w3.org/2000/svg">
<path fill-rule="evenodd" clip-rule="evenodd" d="M16 11.4169C14.553 11.5009 13.569 11.7129 12.769 12.1129C10.67 13.1629 9.30096 14.9889 8.84596 17.3449C8.76396 17.7729 8.70896 21.1229 8.67296 27.8399C8.60796 40.3029 8.67896 41.6949 9.46296 43.2479C10.528 45.3569 12.301 46.6859 14.679 47.1569C15.132 47.2469 19.512 47.2939 30.453 47.3269C45.948 47.3749 48.793 47.3239 50.08 46.9789C52.384 46.3619 54.391 44.3359 54.987 42.0269C55.286 40.8719 55.353 38.5279 55.353 29.3329C55.353 20.1379 55.286 17.7939 54.987 16.6399C54.385 14.3039 52.362 12.2819 50.027 11.6789C49.645 11.5809 48.613 11.4579 47.733 11.4069C45.832 11.2959 17.925 11.3049 16 11.4169ZM49.403 15.6429C50.036 15.9359 50.731 16.6299 51.024 17.2639L51.253 17.7599V40.9069L51.024 41.4029C50.731 42.0359 50.036 42.7309 49.403 43.0239L48.907 43.2529H15.093L14.597 43.0239C13.964 42.7309 13.269 42.0359 12.976 41.4029L12.747 40.9069V17.7599L12.976 17.2639C13.392 16.3629 14.265 15.6539 15.181 15.4699C15.426 15.4209 23.115 15.3889 32.267 15.3969L48.907 15.4129L49.403 15.6429ZM23.506 51.4069C22.214 51.7209 21.595 53.3439 22.356 54.4209C22.527 54.6629 22.859 54.9609 23.093 55.0839C23.514 55.3029 23.641 55.3069 31.674 55.3369C37.386 55.3569 40.001 55.3309 40.404 55.2469C42.162 54.8819 42.531 52.5689 40.985 51.6079L40.587 51.3599L32.213 51.3429C27.608 51.3329 23.69 51.3619 23.506 51.4069Z" fill="#222222"/>
</svg>
