<svg width="64" height="64" viewBox="0 0 64 64" fill="none" xmlns="http://www.w3.org/2000/svg">
<path fill-rule="evenodd" clip-rule="evenodd" d="M23.155 7.56795C14.498 10.7869 8.21201 18.1269 6.52301 26.9869C6.21701 28.5929 6.18101 28.8909 6.08201 30.6239C5.41201 42.2699 12.661 52.9199 23.797 56.6509C25.295 57.1529 26.924 57.5279 28.64 57.7649C30.148 57.9729 33.483 58.0009 34.933 57.8159C39.403 57.2479 43.274 55.7899 46.773 53.3559C51.1662 50.3115 54.52 45.993 56.382 40.9829C57.017 39.2869 57.069 38.5779 56.613 37.8879C56.042 37.0239 55.202 36.8329 53.758 37.2359C52.169 37.6809 50.769 37.8749 48.687 37.9389C44.807 38.0589 41.734 37.4069 38.33 35.7429C31.566 32.4359 27.012 25.9689 26.123 18.4059C25.852 16.1019 26.136 12.4879 26.764 10.2419C27.165 8.80495 26.975 7.95795 26.125 7.39495C25.393 6.91095 24.836 6.94295 23.155 7.56795ZM22.173 13.1729C22.002 14.5819 22.036 17.9229 22.235 19.3599C23.965 31.8569 33.964 41.1709 46.453 41.9189C47.832 42.0019 50.717 41.9039 51.447 41.7499L51.747 41.6869L51.461 42.2509C50.635 43.8809 49.369 45.6239 47.848 47.2229C46.053 49.1109 44.084 50.5459 41.653 51.7389C38.526 53.2739 35.489 53.9729 31.947 53.9729C28.452 53.9729 25.408 53.2629 22.287 51.7189C15.571 48.3969 11.061 42.0279 10.138 34.5629C9.99501 33.4029 9.99401 30.5509 10.137 29.4739C10.711 25.1519 12.265 21.4839 14.949 18.1139C16.21 16.5319 18.348 14.6169 20.107 13.4939C20.789 13.0589 22.219 12.2629 22.254 12.2989C22.266 12.3109 22.229 12.7039 22.173 13.1729Z" fill="#222222"/>
</svg>
