<svg width="64" height="64" viewBox="0 0 64 64" fill="none" xmlns="http://www.w3.org/2000/svg">
<path fill-rule="evenodd" clip-rule="evenodd" d="M15.573 27.3851C13.747 27.5361 12.077 28.8921 11.551 30.6531C11.341 31.3541 11.341 32.6461 11.551 33.3471C11.859 34.3791 12.557 35.2851 13.527 35.9151C14.28 36.4031 15 36.6041 16 36.6041C17 36.6041 17.72 36.4031 18.473 35.9151C19.89 34.9951 20.604 33.6851 20.604 32.0001C20.604 31.0561 20.412 30.3101 19.997 29.6401C19.035 28.0861 17.371 27.2381 15.573 27.3851ZM31.573 27.3851C29.747 27.5361 28.077 28.8921 27.551 30.6531C27.461 30.9541 27.387 31.5601 27.387 32.0001C27.387 33.6651 28.117 35.0001 29.527 35.9151C30.28 36.4031 31 36.6041 32 36.6041C33 36.6041 33.72 36.4031 34.473 35.9151C35.89 34.9951 36.604 33.6851 36.604 32.0001C36.604 31.0561 36.412 30.3101 35.997 29.6401C35.035 28.0861 33.371 27.2381 31.573 27.3851ZM47.573 27.3851C45.747 27.5361 44.077 28.8921 43.551 30.6531C43.461 30.9541 43.387 31.5601 43.387 32.0001C43.387 33.6651 44.117 35.0001 45.527 35.9151C46.28 36.4031 47 36.6041 48 36.6041C49 36.6041 49.72 36.4031 50.473 35.9151C51.89 34.9951 52.604 33.6851 52.604 32.0001C52.604 31.0561 52.412 30.3101 51.997 29.6401C51.035 28.0861 49.371 27.2381 47.573 27.3851ZM16.445 31.5371C16.85 31.9031 16.565 32.6401 16.019 32.6401C15.8926 32.6416 15.7686 32.6061 15.6622 32.538C15.5558 32.4698 15.4718 32.3719 15.4205 32.2564C15.3692 32.1409 15.3529 32.0129 15.3736 31.8882C15.3943 31.7636 15.4511 31.6478 15.537 31.5551C15.756 31.3121 16.187 31.3031 16.445 31.5371ZM32.445 31.5371C32.85 31.9031 32.565 32.6401 32.019 32.6401C31.8926 32.6416 31.7686 32.6061 31.6622 32.538C31.5558 32.4698 31.4718 32.3719 31.4205 32.2564C31.3692 32.1409 31.3529 32.0129 31.3736 31.8882C31.3943 31.7636 31.4511 31.6478 31.537 31.5551C31.756 31.3121 32.187 31.3031 32.445 31.5371ZM48.445 31.5371C48.688 31.7561 48.697 32.1871 48.463 32.4451C48.097 32.8501 47.36 32.5651 47.36 32.0191C47.3584 31.8927 47.3939 31.7687 47.4621 31.6623C47.5303 31.5559 47.6282 31.4719 47.7437 31.4206C47.8592 31.3693 47.9871 31.353 48.1118 31.3737C48.2365 31.3944 48.3523 31.4512 48.445 31.5371Z" fill="#222222"/>
</svg>
