<svg width="64" height="64" viewBox="0 0 64 64" fill="none" xmlns="http://www.w3.org/2000/svg">
<path fill-rule="evenodd" clip-rule="evenodd" d="M31.573 11.3851C30.137 11.5041 28.804 12.3451 28.003 13.6401C27.172 14.9811 27.173 17.0191 28.003 18.3601C28.615 19.3491 29.616 20.1401 30.635 20.4431C31.328 20.6491 32.672 20.6491 33.365 20.4431C34.758 20.0291 36.03 18.7551 36.445 17.3591C36.648 16.6731 36.648 15.3271 36.445 14.6411C35.835 12.5891 33.765 11.2051 31.573 11.3851ZM32.445 15.5371C32.85 15.9031 32.565 16.6401 32.019 16.6401C31.8927 16.6417 31.7686 16.6062 31.6622 16.538C31.5558 16.4698 31.4718 16.3719 31.4205 16.2564C31.3692 16.1409 31.3529 16.0129 31.3736 15.8883C31.3943 15.7636 31.4511 15.6478 31.537 15.5551C31.756 15.3121 32.187 15.3031 32.445 15.5371ZM31.573 27.3851C29.747 27.5361 28.077 28.8921 27.551 30.6531C27.461 30.9541 27.387 31.5601 27.387 32.0001C27.387 33.6651 28.117 35.0001 29.527 35.9151C30.28 36.4031 31 36.6041 32 36.6041C33 36.6041 33.72 36.4031 34.473 35.9151C35.89 34.9951 36.604 33.6851 36.604 32.0001C36.604 31.0561 36.412 30.3101 35.997 29.6401C35.035 28.0861 33.371 27.2381 31.573 27.3851ZM32.445 31.5371C32.85 31.9031 32.565 32.6401 32.019 32.6401C31.8927 32.6417 31.7686 32.6062 31.6622 32.538C31.5558 32.4698 31.4718 32.3719 31.4205 32.2564C31.3692 32.1409 31.3529 32.0129 31.3736 31.8883C31.3943 31.7636 31.4511 31.6478 31.537 31.5551C31.756 31.3121 32.187 31.3031 32.445 31.5371ZM31.573 43.3851C29.747 43.5361 28.077 44.8921 27.551 46.6531C27.461 46.9541 27.387 47.5601 27.387 48.0001C27.387 49.6651 28.117 51.0001 29.527 51.9151C30.28 52.4031 31 52.6041 32 52.6041C33 52.6041 33.72 52.4031 34.473 51.9151C35.89 50.9951 36.604 49.6851 36.604 48.0001C36.604 47.0561 36.412 46.3101 35.997 45.6401C35.035 44.0861 33.371 43.2381 31.573 43.3851ZM32.445 47.5371C32.85 47.9031 32.565 48.6401 32.019 48.6401C31.8927 48.6417 31.7686 48.6062 31.6622 48.538C31.5558 48.4698 31.4718 48.3719 31.4205 48.2564C31.3692 48.1409 31.3529 48.0129 31.3736 47.8883C31.3943 47.7636 31.4511 47.6478 31.537 47.5551C31.756 47.3121 32.187 47.3031 32.445 47.5371Z" fill="#222222"/>
</svg>
