<svg width="64" height="64" viewBox="0 0 64 64" fill="none" xmlns="http://www.w3.org/2000/svg">
<path fill-rule="evenodd" clip-rule="evenodd" d="M15.5201 11.378C13.6571 11.606 12.0681 12.917 11.5511 14.653C11.3451 15.345 11.3471 16.656 11.5541 17.356C11.9701 18.755 13.2411 20.029 14.6351 20.443C15.3281 20.649 16.6721 20.649 17.3651 20.443C18.0061 20.253 18.9091 19.688 19.3741 19.187C20.2221 18.272 20.6041 17.285 20.6041 16C20.6041 14.315 19.8901 13.005 18.4731 12.085C17.6551 11.555 16.4441 11.265 15.5201 11.378ZM31.5201 11.378C29.6571 11.606 28.0681 12.917 27.5511 14.653C27.3451 15.345 27.3471 16.656 27.5541 17.356C27.9701 18.755 29.2411 20.029 30.6351 20.443C31.3281 20.649 32.6721 20.649 33.3651 20.443C34.0061 20.253 34.9091 19.688 35.3741 19.187C36.2221 18.272 36.6041 17.285 36.6041 16C36.6041 14.315 35.8901 13.005 34.4731 12.085C33.6551 11.555 32.4441 11.265 31.5201 11.378ZM47.5201 11.378C45.6571 11.606 44.0681 12.917 43.5511 14.653C43.3451 15.345 43.3471 16.656 43.5541 17.356C43.9701 18.755 45.2411 20.029 46.6351 20.443C47.3281 20.649 48.6721 20.649 49.3651 20.443C50.0061 20.253 50.9091 19.688 51.3741 19.187C52.2221 18.272 52.6041 17.285 52.6041 16C52.6041 14.315 51.8901 13.005 50.4731 12.085C49.6551 11.555 48.4441 11.265 47.5201 11.378ZM16.4451 15.537C16.6881 15.756 16.6971 16.187 16.4631 16.445C16.0971 16.85 15.3601 16.565 15.3601 16.019C15.3585 15.8926 15.394 15.7686 15.4622 15.6622C15.5304 15.5558 15.6283 15.4718 15.7438 15.4205C15.8593 15.3692 15.9872 15.3529 16.1119 15.3736C16.2365 15.3943 16.3524 15.4511 16.4451 15.537ZM32.4451 15.537C32.8501 15.903 32.5651 16.64 32.0191 16.64C31.8927 16.6416 31.7687 16.6061 31.6623 16.5379C31.5559 16.4697 31.4719 16.3718 31.4206 16.2563C31.3693 16.1408 31.353 16.0128 31.3737 15.8882C31.3944 15.7635 31.4512 15.6477 31.5371 15.555C31.7561 15.312 32.1871 15.303 32.4451 15.537ZM48.4451 15.537C48.6881 15.756 48.6971 16.187 48.4631 16.445C48.0971 16.85 47.3601 16.565 47.3601 16.019C47.3585 15.8926 47.394 15.7686 47.4622 15.6622C47.5304 15.5558 47.6283 15.4718 47.7438 15.4205C47.8592 15.3692 47.9872 15.3529 48.1119 15.3736C48.2365 15.3943 48.3524 15.4511 48.4451 15.537ZM15.5201 27.378C13.6571 27.606 12.0681 28.917 11.5511 30.653C11.3451 31.345 11.3471 32.656 11.5541 33.356C11.8571 34.377 12.5591 35.287 13.5271 35.915C14.2801 36.403 15.0001 36.604 16.0001 36.604C17.0001 36.604 17.7201 36.403 18.4731 35.915C19.8901 34.995 20.6041 33.685 20.6041 32C20.6041 30.315 19.8901 29.005 18.4731 28.085C17.6551 27.555 16.4441 27.265 15.5201 27.378ZM31.5201 27.378C29.6571 27.606 28.0681 28.917 27.5511 30.653C27.3451 31.345 27.3471 32.656 27.5541 33.356C27.8571 34.377 28.5591 35.287 29.5271 35.915C30.2801 36.403 31.0001 36.604 32.0001 36.604C33.0001 36.604 33.7201 36.403 34.4731 35.915C35.8901 34.995 36.6041 33.685 36.6041 32C36.6041 30.315 35.8901 29.005 34.4731 28.085C33.6551 27.555 32.4441 27.265 31.5201 27.378ZM47.5201 27.378C45.6571 27.606 44.0681 28.917 43.5511 30.653C43.3451 31.345 43.3471 32.656 43.5541 33.356C43.8571 34.377 44.5591 35.287 45.5271 35.915C46.2801 36.403 47.0001 36.604 48.0001 36.604C49.0001 36.604 49.7201 36.403 50.4731 35.915C51.8901 34.995 52.6041 33.685 52.6041 32C52.6041 30.315 51.8901 29.005 50.4731 28.085C49.6551 27.555 48.4441 27.265 47.5201 27.378ZM16.4451 31.537C16.8501 31.903 16.5651 32.64 16.0191 32.64C15.8927 32.6416 15.7687 32.6061 15.6623 32.5379C15.5559 32.4697 15.4719 32.3718 15.4206 32.2563C15.3693 32.1408 15.353 32.0128 15.3737 31.8882C15.3944 31.7635 15.4512 31.6477 15.5371 31.555C15.7561 31.312 16.1871 31.303 16.4451 31.537ZM32.4451 31.537C32.8501 31.903 32.5651 32.64 32.0191 32.64C31.8927 32.6416 31.7687 32.6061 31.6623 32.5379C31.5559 32.4697 31.4719 32.3718 31.4206 32.2563C31.3693 32.1408 31.353 32.0128 31.3737 31.8882C31.3944 31.7635 31.4512 31.6477 31.5371 31.555C31.7561 31.312 32.1871 31.303 32.4451 31.537ZM48.4451 31.537C48.6881 31.756 48.6971 32.187 48.4631 32.445C48.0971 32.85 47.3601 32.565 47.3601 32.019C47.3585 31.8926 47.394 31.7686 47.4622 31.6622C47.5304 31.5558 47.6283 31.4718 47.7438 31.4205C47.8592 31.3692 47.9872 31.3529 48.1119 31.3736C48.2365 31.3943 48.3524 31.4511 48.4451 31.537ZM15.5201 43.378C13.6571 43.606 12.0681 44.917 11.5511 46.653C11.3451 47.345 11.3471 48.656 11.5541 49.356C11.8571 50.377 12.5591 51.287 13.5271 51.915C14.2801 52.403 15.0001 52.604 16.0001 52.604C17.0001 52.604 17.7201 52.403 18.4731 51.915C19.8901 50.995 20.6041 49.685 20.6041 48C20.6041 46.315 19.8901 45.005 18.4731 44.085C17.6551 43.555 16.4441 43.265 15.5201 43.378ZM31.5201 43.378C29.6571 43.606 28.0681 44.917 27.5511 46.653C27.3451 47.345 27.3471 48.656 27.5541 49.356C27.8571 50.377 28.5591 51.287 29.5271 51.915C30.2801 52.403 31.0001 52.604 32.0001 52.604C33.0001 52.604 33.7201 52.403 34.4731 51.915C35.8901 50.995 36.6041 49.685 36.6041 48C36.6041 46.315 35.8901 45.005 34.4731 44.085C33.6551 43.555 32.4441 43.265 31.5201 43.378ZM47.5201 43.378C45.6571 43.606 44.0681 44.917 43.5511 46.653C43.3451 47.345 43.3471 48.656 43.5541 49.356C43.8571 50.377 44.5591 51.287 45.5271 51.915C46.2801 52.403 47.0001 52.604 48.0001 52.604C49.0001 52.604 49.7201 52.403 50.4731 51.915C51.8901 50.995 52.6041 49.685 52.6041 48C52.6041 46.315 51.8901 45.005 50.4731 44.085C49.6551 43.555 48.4441 43.265 47.5201 43.378ZM16.4451 47.537C16.8501 47.903 16.5651 48.64 16.0191 48.64C15.8927 48.6416 15.7687 48.6061 15.6623 48.5379C15.5559 48.4697 15.4719 48.3718 15.4206 48.2563C15.3693 48.1408 15.353 48.0128 15.3737 47.8882C15.3944 47.7635 15.4512 47.6477 15.5371 47.555C15.7561 47.312 16.1871 47.303 16.4451 47.537ZM32.4451 47.537C32.8501 47.903 32.5651 48.64 32.0191 48.64C31.8927 48.6416 31.7687 48.6061 31.6623 48.5379C31.5559 48.4697 31.4719 48.3718 31.4206 48.2563C31.3693 48.1408 31.353 48.0128 31.3737 47.8882C31.3944 47.7635 31.4512 47.6477 31.5371 47.555C31.7561 47.312 32.1871 47.303 32.4451 47.537ZM48.4451 47.537C48.8501 47.903 48.5651 48.64 48.0191 48.64C47.8927 48.6416 47.7687 48.6061 47.6623 48.5379C47.5559 48.4697 47.4719 48.3718 47.4206 48.2563C47.3693 48.1408 47.353 48.0128 47.3737 47.8882C47.3944 47.7635 47.4512 47.6477 47.5371 47.555C47.7561 47.312 48.1871 47.303 48.4451 47.537Z" fill="#222222"/>
</svg>
