<svg width="64" height="64" viewBox="0 0 64 64" fill="none" xmlns="http://www.w3.org/2000/svg">
<path fill-rule="evenodd" clip-rule="evenodd" d="M23.573 19.3851C21.747 19.5361 20.077 20.8921 19.551 22.6531C19.341 23.3541 19.341 24.6461 19.551 25.3471C19.859 26.3791 20.557 27.2851 21.527 27.9151C22.28 28.4031 23 28.6041 24 28.6041C25 28.6041 25.72 28.4031 26.473 27.9151C27.89 26.9951 28.604 25.6851 28.604 24.0001C28.604 23.0561 28.412 22.3101 27.997 21.6401C27.035 20.0861 25.371 19.2381 23.573 19.3851ZM39.573 19.3851C37.747 19.5361 36.077 20.8921 35.551 22.6531C35.461 22.9541 35.387 23.5601 35.387 24.0001C35.387 25.6651 36.117 27.0001 37.527 27.9151C38.28 28.4031 39 28.6041 40 28.6041C41 28.6041 41.72 28.4031 42.473 27.9151C43.89 26.9951 44.604 25.6851 44.604 24.0001C44.604 23.0561 44.412 22.3101 43.997 21.6401C43.035 20.0861 41.371 19.2381 39.573 19.3851ZM24.445 23.5371C24.688 23.7561 24.697 24.1871 24.463 24.4451C24.097 24.8501 23.36 24.5651 23.36 24.0191C23.3584 23.8927 23.3939 23.7687 23.4621 23.6623C23.5303 23.5559 23.6282 23.4719 23.7437 23.4206C23.8592 23.3693 23.9871 23.353 24.1118 23.3737C24.2365 23.3944 24.3523 23.4512 24.445 23.5371ZM40.445 23.5371C40.688 23.7561 40.697 24.1871 40.463 24.4451C40.097 24.8501 39.36 24.5651 39.36 24.0191C39.3584 23.8927 39.3939 23.7687 39.4621 23.6623C39.5303 23.5559 39.6282 23.4719 39.7437 23.4206C39.8592 23.3693 39.9871 23.353 40.1118 23.3737C40.2365 23.3944 40.3523 23.4512 40.445 23.5371ZM23.573 35.3851C21.747 35.5361 20.077 36.8921 19.551 38.6531C19.341 39.3541 19.341 40.6461 19.551 41.3471C19.859 42.3791 20.557 43.2851 21.527 43.9151C22.28 44.4031 23 44.6041 24 44.6041C25 44.6041 25.72 44.4031 26.473 43.9151C27.89 42.9951 28.604 41.6851 28.604 40.0001C28.604 39.0561 28.412 38.3101 27.997 37.6401C27.035 36.0861 25.371 35.2381 23.573 35.3851ZM39.573 35.3851C37.747 35.5361 36.077 36.8921 35.551 38.6531C35.461 38.9541 35.387 39.5601 35.387 40.0001C35.387 41.6651 36.117 43.0001 37.527 43.9151C38.28 44.4031 39 44.6041 40 44.6041C41 44.6041 41.72 44.4031 42.473 43.9151C43.89 42.9951 44.604 41.6851 44.604 40.0001C44.604 39.0561 44.412 38.3101 43.997 37.6401C43.035 36.0861 41.371 35.2381 39.573 35.3851ZM24.445 39.5371C24.85 39.9031 24.565 40.6401 24.019 40.6401C23.8926 40.6416 23.7686 40.6061 23.6622 40.538C23.5558 40.4698 23.4718 40.3719 23.4205 40.2564C23.3692 40.1409 23.3529 40.0129 23.3736 39.8883C23.3943 39.7636 23.4511 39.6478 23.537 39.5551C23.756 39.3121 24.187 39.3031 24.445 39.5371ZM40.445 39.5371C40.688 39.7561 40.697 40.1871 40.463 40.4451C40.097 40.8501 39.36 40.5651 39.36 40.0191C39.3584 39.8927 39.3939 39.7687 39.4621 39.6623C39.5303 39.5559 39.6282 39.4719 39.7437 39.4206C39.8592 39.3693 39.9871 39.353 40.1118 39.3737C40.2365 39.3944 40.3523 39.4512 40.445 39.5371Z" fill="#222222"/>
</svg>
