<svg width="64" height="64" viewBox="0 0 64 64" fill="none" xmlns="http://www.w3.org/2000/svg">
<path fill-rule="evenodd" clip-rule="evenodd" d="M30.613 6.08689C22.694 6.66289 15.977 12.5779 14.401 20.3619C14.037 22.1599 13.98 23.7419 13.98 31.9999C13.98 40.2619 14.037 41.8419 14.402 43.6379C15.997 51.4909 22.708 57.3549 30.739 57.9129C38.09 58.4239 44.961 54.4509 48.16 47.8399C49.208 45.6739 49.741 43.6609 49.922 41.1849C50.05 39.4359 50.05 24.5639 49.922 22.8149C49.741 20.3379 49.207 18.3239 48.159 16.1599C44.93 9.49389 38.054 5.54589 30.613 6.08689ZM34.88 10.2909C36.506 10.6539 38.427 11.4569 39.715 12.3119C41.11 13.2379 42.762 14.8899 43.688 16.2849C44.574 17.6199 45.364 19.5349 45.726 21.2269C45.906 22.0659 45.92 22.8619 45.92 31.9999C45.92 41.1379 45.906 41.9339 45.726 42.7729C45.211 45.1779 44.191 47.2509 42.614 49.0999C40.609 51.4489 37.877 53.0609 34.773 53.7259C34.092 53.8719 33.402 53.9199 32 53.9199C29.429 53.9199 27.941 53.5859 25.787 52.5249C24.617 51.9479 23.937 51.4979 22.9 50.6139C20.551 48.6089 18.939 45.8769 18.274 42.7729C18.094 41.9339 18.08 41.1379 18.08 31.9999C18.08 22.8619 18.094 22.0659 18.274 21.2269C18.636 19.5349 19.426 17.6199 20.312 16.2849C21.238 14.8899 22.89 13.2379 24.285 12.3119C25.636 11.4159 27.616 10.6029 29.173 10.3049C29.643 10.2149 30.123 10.1189 30.24 10.0909C30.735 9.97189 34.105 10.1169 34.88 10.2909ZM31.506 16.7379C31.035 16.8549 30.564 17.2159 30.274 17.6819L30.027 18.0799V27.2529L30.274 27.6509C31.226 29.1819 33.537 28.8309 33.909 27.0989C34.062 26.3849 34.064 18.9049 33.911 18.2419C33.66 17.1519 32.574 16.4729 31.506 16.7379Z" fill="#222222"/>
</svg>
