<svg width="64" height="64" viewBox="0 0 64 64" fill="none" xmlns="http://www.w3.org/2000/svg">
<path fill-rule="evenodd" clip-rule="evenodd" d="M31.733 6.02301C31.675 6.04401 31.483 6.09301 31.307 6.13201C31.071 6.18301 29.866 7.31901 26.741 10.434C24.406 12.762 22.394 14.829 22.27 15.028C21.953 15.537 21.959 16.473 22.283 16.997C22.753 17.757 23.575 18.09 24.503 17.895C24.98 17.795 25.176 17.626 27.493 15.326L29.973 12.863V51.141L27.547 48.73C26.212 47.404 25 46.258 24.854 46.182C24.707 46.106 24.314 46.044 23.979 46.044C23.255 46.044 22.674 46.371 22.289 46.994C21.959 47.528 21.95 48.459 22.27 48.972C22.394 49.171 24.406 51.236 26.741 53.562C30.785 57.59 31.011 57.796 31.493 57.896C31.8275 57.965 32.1725 57.965 32.507 57.896C32.989 57.796 33.215 57.589 37.305 53.513C39.676 51.15 41.674 49.072 41.771 48.869C42.008 48.37 41.992 47.566 41.736 47.07C41.621 46.848 41.329 46.527 41.087 46.356C40.723 46.098 40.54 46.044 40.03 46.044C39.69 46.044 39.293 46.106 39.146 46.182C39 46.258 37.788 47.404 36.453 48.73L34.027 51.141V12.863L36.507 15.326C38.818 17.62 39.021 17.795 39.493 17.894C41.037 18.219 42.217 17.04 41.896 15.493C41.796 15.011 41.59 14.785 37.562 10.741C35.236 8.40601 33.189 6.40701 33.013 6.29901C32.703 6.10801 31.95 5.94601 31.733 6.02301Z" fill="#222222"/>
</svg>
