<svg width="64" height="64" viewBox="0 0 64 64" fill="none" xmlns="http://www.w3.org/2000/svg">
<path fill-rule="evenodd" clip-rule="evenodd" d="M15.733 22.026C15.675 22.045 15.483 22.093 15.307 22.132C15.071 22.183 13.866 23.319 10.741 26.434C8.40599 28.762 6.39399 30.829 6.26999 31.028C5.95899 31.526 5.95899 32.474 6.26999 32.972C6.39399 33.171 8.40599 35.236 10.741 37.562C14.785 41.59 15.011 41.796 15.493 41.896C17.04 42.217 18.219 41.037 17.894 39.493C17.795 39.021 17.62 38.818 15.326 36.507L12.863 34.027H51.141L48.73 36.453C47.404 37.788 46.258 39 46.182 39.146C46.106 39.293 46.044 39.69 46.044 40.03C46.044 40.54 46.098 40.723 46.356 41.087C46.527 41.329 46.848 41.621 47.07 41.736C47.566 41.992 48.37 42.008 48.869 41.771C49.072 41.674 51.15 39.676 53.513 37.305C57.589 33.215 57.796 32.989 57.896 32.507C57.965 32.1725 57.965 31.8275 57.896 31.493C57.796 31.011 57.589 30.785 53.513 26.695C51.098 24.272 49.074 22.326 48.863 22.227C48.316 21.967 47.468 21.996 46.99 22.291C46.371 22.674 46.044 23.256 46.044 23.979C46.044 24.314 46.106 24.707 46.182 24.854C46.258 25 47.404 26.212 48.73 27.547L51.141 29.973H12.863L15.326 27.493C17.626 25.176 17.795 24.98 17.895 24.503C18.093 23.559 17.689 22.613 16.939 22.268C16.569 22.097 15.915 21.966 15.733 22.026Z" fill="#222222"/>
</svg>
