<svg width="64" height="64" viewBox="0 0 64 64" fill="none" xmlns="http://www.w3.org/2000/svg">
<path fill-rule="evenodd" clip-rule="evenodd" d="M31.733 6.02301C31.675 6.04401 31.483 6.09301 31.307 6.13201C31.071 6.18301 29.866 7.31901 26.741 10.434C24.406 12.762 22.394 14.829 22.27 15.028C21.953 15.537 21.959 16.473 22.283 16.997C22.753 17.757 23.575 18.09 24.503 17.895C24.98 17.795 25.176 17.626 27.493 15.326L29.973 12.863V29.973H12.863L15.326 27.493C17.62 25.182 17.795 24.979 17.894 24.507C18.138 23.347 17.523 22.325 16.442 22.093C16.144 22.029 15.839 21.996 15.764 22.02C15.6128 22.0619 15.4604 22.0993 15.307 22.132C15.071 22.184 13.87 23.315 10.741 26.434C8.40599 28.762 6.39399 30.829 6.26999 31.028C5.95899 31.526 5.95899 32.474 6.26999 32.972C6.39399 33.171 8.40599 35.236 10.741 37.562C14.785 41.59 15.011 41.796 15.493 41.896C17.04 42.217 18.219 41.037 17.894 39.493C17.795 39.021 17.62 38.818 15.326 36.507L12.863 34.027H29.973V51.141L27.547 48.73C26.212 47.404 25 46.258 24.854 46.182C24.707 46.106 24.314 46.044 23.979 46.044C23.255 46.044 22.674 46.371 22.289 46.994C21.959 47.528 21.95 48.459 22.27 48.972C22.394 49.171 24.406 51.236 26.741 53.562C30.785 57.59 31.011 57.796 31.493 57.896C31.8275 57.965 32.1725 57.965 32.507 57.896C32.989 57.796 33.215 57.589 37.305 53.513C39.676 51.15 41.674 49.072 41.771 48.869C42.008 48.37 41.992 47.566 41.736 47.07C41.621 46.848 41.329 46.527 41.087 46.356C40.723 46.098 40.54 46.044 40.03 46.044C39.69 46.044 39.293 46.106 39.146 46.182C39 46.258 37.788 47.404 36.453 48.73L34.027 51.141V34.027H51.141L48.73 36.453C47.404 37.788 46.258 39 46.182 39.146C46.106 39.293 46.044 39.69 46.044 40.03C46.044 40.54 46.098 40.723 46.356 41.087C46.527 41.329 46.848 41.621 47.07 41.736C47.566 41.992 48.37 42.008 48.869 41.771C49.072 41.674 51.15 39.676 53.513 37.305C57.589 33.215 57.796 32.989 57.896 32.507C57.965 32.1725 57.965 31.8275 57.896 31.493C57.796 31.011 57.589 30.785 53.513 26.695C51.098 24.272 49.074 22.326 48.863 22.227C48.284 21.952 47.447 21.994 46.948 22.324C46.334 22.731 46.044 23.264 46.044 23.988C46.044 24.318 46.106 24.707 46.182 24.854C46.258 25 47.404 26.212 48.73 27.547L51.141 29.973H34.027V12.863L36.507 15.326C38.818 17.62 39.021 17.795 39.493 17.894C41.037 18.219 42.217 17.04 41.896 15.493C41.796 15.011 41.59 14.785 37.562 10.741C35.236 8.40601 33.189 6.40701 33.013 6.29901C32.703 6.10801 31.95 5.94601 31.733 6.02301Z" fill="#222222"/>
</svg>
