<svg width="64" height="64" viewBox="0 0 64 64" fill="none" xmlns="http://www.w3.org/2000/svg">
<path fill-rule="evenodd" clip-rule="evenodd" d="M13.067 11.357C13.008 11.378 12.816 11.427 12.64 11.466C12.409 11.517 11.507 12.346 9.40698 14.435C7.80498 16.029 6.39298 17.496 6.26898 17.695C5.95298 18.203 5.95898 19.14 6.28298 19.663C6.75298 20.424 7.57598 20.757 8.50298 20.561C8.97598 20.462 9.17198 20.297 11.173 18.313L13.333 16.171L15.493 18.313C17.49 20.292 17.692 20.462 18.16 20.561C19.704 20.886 20.885 19.705 20.562 18.16C20.462 17.684 20.279 17.476 17.561 14.74C15.969 13.138 14.523 11.739 14.347 11.632C14.036 11.442 13.283 11.28 13.067 11.357ZM34.667 11.417C33.22 11.501 32.235 11.713 31.436 12.113C29.309 13.177 27.91 15.065 27.524 17.394C27.345 18.472 27.265 24.127 27.399 26.24C27.531 28.322 27.69 29.064 28.222 30.08C29.142 31.836 30.803 33.18 32.64 33.654C33.486 33.873 35.838 34.018 38.587 34.023L40.64 34.027V37C40.64 38.635 40.669 40.12 40.705 40.3L40.771 40.626L26.705 40.673C16.626 40.706 12.462 40.755 12.012 40.844C9.91898 41.257 8.30898 42.33 7.18898 44.06C6.16398 45.643 6.04498 46.467 6.03498 52.107L6.02698 56.587L6.27398 56.985C7.10398 58.32 9.08698 58.264 9.77198 56.886C9.95798 56.512 9.97798 56.112 10.027 51.787C10.078 47.269 10.089 47.075 10.309 46.597C10.602 45.964 11.297 45.269 11.931 44.976L12.427 44.747H51.573L52.069 44.976C52.703 45.269 53.398 45.964 53.691 46.597C53.912 47.075 53.922 47.268 53.973 51.84C54.027 56.576 54.027 56.588 54.274 56.985C55.251 58.556 57.547 58.161 57.925 56.356C58.086 55.588 57.996 47.785 57.814 46.727C57.331 43.92 55.338 41.699 52.686 41.011C51.841 40.792 49.486 40.648 46.679 40.643L44.559 40.64L44.625 40.24C44.661 40.02 44.692 38.532 44.692 36.933L44.693 34.027L46.747 34.023C49.495 34.018 51.848 33.873 52.693 33.654C54.529 33.18 56.192 31.835 57.11 30.083C57.648 29.055 57.804 28.318 57.934 26.187C58.066 24.023 57.987 18.471 57.809 17.394C57.424 15.062 56.053 13.21 53.912 12.129C53.063 11.7 52.128 11.508 50.4 11.407C48.515 11.297 36.596 11.305 34.667 11.417ZM52.069 15.643C52.703 15.936 53.398 16.63 53.691 17.264C53.915 17.749 53.92 17.871 53.92 22.667C53.92 27.462 53.915 27.585 53.691 28.069C53.5126 28.4153 53.2841 28.7333 53.013 29.013C52.7333 29.2841 52.4152 29.5126 52.069 29.691C51.574 29.92 51.554 29.92 42.667 29.92C33.779 29.92 33.759 29.92 33.264 29.691C32.63 29.398 31.936 28.703 31.643 28.069C31.419 27.585 31.413 27.462 31.413 22.667C31.413 17.871 31.419 17.749 31.643 17.264C32.059 16.364 32.93 15.655 33.848 15.47C34.093 15.42 38.181 15.387 42.933 15.397C51.531 15.413 51.576 15.414 52.069 15.643ZM7.50598 24.739C7.03898 24.854 6.56398 25.215 6.28298 25.67C5.95898 26.194 5.95298 27.13 6.26898 27.639C6.39298 27.837 7.80498 29.303 9.40698 30.894C12.143 33.613 12.351 33.795 12.827 33.895C13.162 33.965 13.505 33.965 13.84 33.895C14.316 33.795 14.524 33.613 17.304 30.848C18.93 29.231 20.34 27.741 20.436 27.538C20.674 27.037 20.659 26.234 20.403 25.737C20.288 25.515 19.996 25.193 19.754 25.022C19.39 24.765 19.206 24.711 18.696 24.711C18.357 24.711 17.959 24.773 17.813 24.849C17.666 24.925 16.599 25.927 15.44 27.076L13.333 29.166L11.227 27.076C10.068 25.927 9.02398 24.938 8.90698 24.879C8.58498 24.717 7.88198 24.647 7.50598 24.739Z" fill="#222222"/>
</svg>
