<svg width="64" height="64" viewBox="0 0 64 64" fill="none" xmlns="http://www.w3.org/2000/svg">
<path fill-rule="evenodd" clip-rule="evenodd" d="M10.891 7.52897C9.08198 8.01497 7.75698 9.48097 7.43698 11.351C7.33498 11.947 7.34298 12.205 7.48798 12.887C7.58398 13.338 10.596 23.235 14.182 34.88C19.114 50.897 20.785 56.193 21.044 56.625C22.249 58.636 24.902 59.389 27.07 58.336C28.482 57.65 28.293 57.966 33.496 47.568L38.189 38.189L47.568 33.496C57.967 28.292 57.652 28.48 58.334 27.07C59.455 24.75 58.529 21.943 56.287 20.863C55.77 20.614 14.968 8.00897 13.236 7.56297C12.309 7.32497 11.684 7.31597 10.891 7.52897ZM33.28 17.861C44.867 21.424 54.457 24.409 54.593 24.496C54.79 24.621 54.832 24.731 54.806 25.046L54.773 25.44L45.341 30.187C36.829 34.47 35.857 34.985 35.384 35.464C34.918 35.935 34.337 37.036 30.15 45.384L25.44 54.773L25.046 54.806C24.731 54.832 24.621 54.79 24.496 54.593C24.409 54.457 21.405 44.807 17.819 33.147C12.411 15.564 11.319 11.91 11.416 11.728C11.537 11.502 11.917 11.295 12.107 11.352L33.28 17.861Z" fill="#222222"/>
</svg>
