<svg width="64" height="64" viewBox="0 0 64 64" fill="none" xmlns="http://www.w3.org/2000/svg">
<path fill-rule="evenodd" clip-rule="evenodd" d="M18.88 8.31998C14.386 9.30298 10.281 13.439 7.48301 19.803C6.01401 23.142 4.71801 28.188 4.36601 31.94C4.20701 33.625 4.29001 36.833 4.52601 38.133C5.26001 42.181 7.17101 45.041 10.051 46.403C11.128 46.913 12.096 47.079 13.478 46.991C14.887 46.903 15.57 46.911 17.493 47.042C18.285 47.096 21.045 47.197 23.627 47.267C26.208 47.337 28.334 47.405 28.351 47.417C28.367 47.429 28.305 47.961 28.211 48.6C27.875 50.889 27.39 52.345 26.11 54.909C25.529 56.073 25.339 56.567 25.303 57.005C25.212 58.098 25.764 59.124 26.755 59.707C27.245 59.995 27.282 60 28.96 59.99C31.619 59.973 33.389 59.524 36.16 58.163C37.333 57.587 37.713 57.341 38.212 56.833C38.922 56.111 40.758 53.388 42.086 51.089C42.593 50.211 43.035 49.493 43.07 49.493C43.104 49.493 43.731 49.643 44.464 49.827C45.627 50.118 45.925 50.154 46.818 50.11C48.494 50.027 49.795 49.385 51.306 47.893C53.207 46.017 54.723 43.16 55.576 39.846C56.033 38.071 56.149 37.134 56.148 35.2C56.148 33.738 56.108 33.278 55.91 32.48C55.418 30.498 54.421 29.099 52.853 28.19C52.443 27.952 51.003 27.242 49.653 26.613C42.804 23.418 40.797 22.249 36.498 18.949C33.404 16.573 28.802 12.61 27.752 11.416C25.41 8.75298 22.132 7.60898 18.88 8.31998ZM22.095 12.263C23.436 12.677 24.799 13.803 25.182 14.813C25.525 15.72 25.81 17.234 25.812 18.16L25.813 18.987H25.36C22.74 18.992 20.03 20.575 18.349 23.083C17.243 24.734 16.235 27.241 15.781 29.469C14.874 33.919 15.598 37.269 18.018 39.822L18.507 40.337L17.924 40.855C16.86 41.801 15.028 42.737 13.695 43.017C12.567 43.253 11.325 42.794 10.406 41.801C7.94801 39.146 7.55001 33.903 9.28301 26.999C10.661 21.512 12.821 17.289 15.599 14.653C17.863 12.504 20.151 11.662 22.095 12.263ZM31.962 20.433C37.516 24.94 40.076 26.531 46.956 29.75C50.525 31.42 51.099 31.714 51.381 32.017C53.061 33.82 52.103 40.029 49.566 43.787C49.005 44.617 47.954 45.661 47.413 45.925C46.569 46.337 45.677 46.157 41.665 44.765C38.463 43.655 37.415 43.545 28.8 43.412C25.075 43.355 21.872 43.282 21.684 43.25L21.341 43.192L21.965 42.529C22.73 41.716 23.186 41.173 23.133 41.138C22.7201 40.8289 22.3156 40.5088 21.92 40.178C21.817 40.076 22.644 40.524 23.101 40.817C23.311 40.953 23.37 40.879 24.308 39.28C26.062 36.29 27.662 32.83 28.107 31.063C28.606 29.079 29.495 23.634 29.66 21.547L29.829 19.437L29.884 18.768L30.131 18.957C30.267 19.062 31.091 19.725 31.962 20.433ZM25.493 23.175C25.493 23.402 24.881 26.939 24.547 28.64C24.098 30.928 23.383 32.725 21.711 35.767L20.96 37.135L20.607 36.729C20.165 36.221 19.686 35.216 19.531 34.475C19.466 34.164 19.413 33.413 19.413 32.807C19.413 29.457 21.146 25.151 23.013 23.858C23.932 23.222 25.493 22.792 25.493 23.175ZM35.893 47.582C37.187 47.696 38.811 47.965 39.033 48.103C39.275 48.252 36.085 53.445 35.397 54.024C35.047 54.319 33.806 54.93 32.747 55.331C32.05 55.594 30.194 56.043 30.118 55.967C30.096 55.944 30.248 55.551 30.457 55.093C31.302 53.239 31.955 50.844 32.217 48.64C32.283 48.083 32.357 47.565 32.38 47.49C32.426 47.344 33.496 47.372 35.893 47.582Z" fill="#222222"/>
</svg>
