<svg width="64" height="64" viewBox="0 0 64 64" fill="none" xmlns="http://www.w3.org/2000/svg">
<path fill-rule="evenodd" clip-rule="evenodd" d="M16 8.75003C14.535 8.83603 13.581 9.04503 12.754 9.46203C10.643 10.528 9.31398 12.3 8.84298 14.679C8.67298 15.537 8.57898 44.786 8.73798 47.52C8.85498 49.539 9.01398 50.359 9.46298 51.248C10.561 53.421 12.372 54.742 14.842 55.171C16.021 55.375 35.734 55.367 36.64 55.162C37.5185 54.9629 38.3555 54.6116 39.113 54.124C39.824 53.663 52.658 40.94 53.656 39.708C54.376 38.819 54.848 37.893 55.118 36.843C55.292 36.164 55.307 35.316 55.307 25.867C55.307 15.078 55.297 14.837 54.816 13.408C54.412 12.21 53.319 10.786 52.229 10.039C50.944 9.15803 49.944 8.86903 47.733 8.74003C45.832 8.62903 17.925 8.63803 16 8.75003ZM49.403 12.976C50.036 13.269 50.731 13.964 51.024 14.597C51.252 15.09 51.254 15.147 51.284 23.859L51.314 32.625L43.924 32.665C37.181 32.703 36.482 32.723 35.952 32.897C35.2376 33.1306 34.5885 33.5295 34.0573 34.0612C33.5261 34.5929 33.1279 35.2425 32.895 35.957C32.723 36.481 32.703 37.204 32.665 43.924L32.625 51.314L23.859 51.284C15.147 51.254 15.09 51.252 14.597 51.024C13.964 50.731 13.269 50.036 12.976 49.403L12.747 48.907V15.093L12.976 14.597C13.392 13.697 14.265 12.987 15.181 12.804C15.426 12.755 23.115 12.722 32.267 12.731L48.907 12.747L49.403 12.976ZM50.88 36.824C50.88 36.896 47.747 40.088 43.917 43.917C40.088 47.747 36.896 50.88 36.824 50.88C36.722 50.88 36.693 49.358 36.693 43.982C36.693 37.713 36.709 37.066 36.87 36.888C37.037 36.703 37.398 36.693 43.963 36.693C49.354 36.693 50.88 36.722 50.88 36.824Z" fill="#222222"/>
</svg>
