<svg width="64" height="64" viewBox="0 0 64 64" fill="none" xmlns="http://www.w3.org/2000/svg">
<path fill-rule="evenodd" clip-rule="evenodd" d="M16 8.75003C14.535 8.83603 13.581 9.04503 12.754 9.46203C10.643 10.528 9.31398 12.3 8.84298 14.679C8.67298 15.537 8.57898 44.786 8.73798 47.52C8.85498 49.539 9.01398 50.359 9.46298 51.248C10.541 53.382 12.359 54.73 14.727 55.151C15.759 55.335 26.216 55.425 27.023 55.257C28.873 54.872 29.229 52.394 27.553 51.562C27.173 51.373 26.755 51.357 21.12 51.307C15.237 51.255 15.082 51.248 14.597 51.024C13.964 50.731 13.269 50.036 12.976 49.403L12.747 48.907V15.093L12.976 14.597C13.269 13.964 13.964 13.269 14.597 12.976L15.093 12.747H48.907L49.403 12.976C50.036 13.269 50.731 13.964 51.024 14.597C51.248 15.082 51.255 15.235 51.307 21.173L51.36 27.253L51.608 27.651C52.591 29.234 54.879 28.84 55.257 27.023C55.425 26.216 55.335 15.759 55.151 14.727C54.73 12.358 53.382 10.541 51.246 9.46203C50.396 9.03303 49.461 8.84103 47.733 8.74003C45.832 8.62903 17.925 8.63803 16 8.75003ZM34.827 24.757C30.268 25.203 26.383 28.477 25.119 32.935C24.419 35.403 24.643 38.365 25.707 40.712C26.765 43.044 28.956 45.235 31.288 46.293C34.601 47.795 38.65 47.583 41.743 45.746L42.476 45.31L46.065 48.883C49.464 52.269 49.68 52.462 50.16 52.562C51.706 52.884 52.884 51.706 52.562 50.16C52.462 49.68 52.269 49.464 48.883 46.065L45.31 42.476L45.746 41.743C47.583 38.65 47.795 34.601 46.293 31.288C44.728 27.837 41.062 25.137 37.493 24.807C36.002 24.669 35.771 24.664 34.827 24.757ZM38.293 29.006C39.319 29.354 40.339 30 41.162 30.823C42.01 31.67 42.561 32.528 42.961 33.622C43.223 34.336 43.246 34.532 43.246 36C43.246 37.468 43.223 37.664 42.961 38.378C42.562 39.47 42.01 40.329 41.17 41.17C40.329 42.01 39.47 42.562 38.378 42.961C37.664 43.223 37.468 43.246 36 43.246C34.607 43.246 34.31 43.214 33.707 43.002C31.562 42.249 29.719 40.402 29.007 38.293C28.688 37.348 28.607 35.453 28.84 34.361C29.386 31.793 31.711 29.428 34.258 28.85C35.272 28.62 37.396 28.702 38.293 29.006Z" fill="#222222"/>
</svg>
