<svg width="64" height="64" viewBox="0 0 64 64" fill="none" xmlns="http://www.w3.org/2000/svg">
<path fill-rule="evenodd" clip-rule="evenodd" d="M47.5155 6.04541C47.2872 6.11155 47.071 6.21421 46.8755 6.34941C46.7075 6.47141 41.0905 12.0594 34.3925 18.7654L22.2155 30.9594L22.0935 31.5644C22.0115 31.9734 21.9825 33.5254 22.0045 36.3814L22.0365 40.5944L22.3565 41.0474C22.5325 41.2964 22.8685 41.6004 23.1035 41.7234C23.5115 41.9364 23.7125 41.9474 27.6725 41.9784C30.4685 42.0004 32.0105 41.9714 32.4185 41.8894L33.0235 41.7684L45.4135 29.3774C57.4555 17.3344 57.8065 16.9714 57.9075 16.4794C57.9748 16.145 57.9742 15.8005 57.9055 15.4664C57.8055 14.9834 57.5995 14.7574 53.5725 10.7134C51.2465 8.37841 49.1995 6.37941 49.0235 6.27141C48.6355 6.03341 47.9695 5.93441 47.5155 6.04541ZM50.6235 13.4134L53.1825 15.9734L50.5965 18.5594L48.0105 21.1454L45.4245 18.5594L42.8375 15.9734L45.3965 13.4134C46.8035 12.0044 47.9795 10.8524 48.0105 10.8524C48.0405 10.8524 49.2165 12.0044 50.6235 13.4134ZM13.3435 11.3874C11.8945 11.4744 10.9095 11.6874 10.1125 12.0854C8.01449 13.1354 6.65749 14.9444 6.18649 17.3184C6.01649 18.1764 5.92249 47.4254 6.08149 50.1594C6.19849 52.1784 6.35749 52.9984 6.80649 53.8874C7.87149 55.9964 9.64449 57.3254 12.0225 57.7964C12.4755 57.8864 16.8555 57.9334 27.7965 57.9664C43.2915 58.0144 46.1365 57.9634 47.4235 57.6184C49.7005 57.0084 51.7125 54.9964 52.3225 52.7194C52.5925 51.7124 52.7185 48.6124 52.6835 43.8664C52.6515 39.6724 52.6415 39.4754 52.4275 39.0664C52.2575 38.7789 52.0322 38.5281 51.7645 38.3284C51.3975 38.0694 51.2175 38.0174 50.6945 38.0174C49.9325 38.0174 49.4135 38.2974 48.9895 38.9374L48.7035 39.3704L48.6505 45.4584C48.5985 51.4044 48.5915 51.5574 48.3675 52.0424C48.0745 52.6754 47.3795 53.3704 46.7465 53.6634L46.2505 53.8924H12.4365L11.9405 53.6634C11.3075 53.3704 10.6125 52.6754 10.3195 52.0424L10.0905 51.5464V17.7324L10.3195 17.2364C10.6125 16.6034 11.3075 15.9084 11.9405 15.6154C12.4255 15.3914 12.5805 15.3844 18.4635 15.3324C24.0985 15.2824 24.5165 15.2664 24.8965 15.0774C26.2735 14.3934 26.3295 12.4104 24.9945 11.5804L24.5965 11.3324L19.6365 11.3204C16.9085 11.3134 14.0765 11.3434 13.3435 11.3874ZM42.6235 21.4134L45.1825 23.9734L38.1965 30.9594L31.2105 37.9464H26.0365V32.7734L32.9965 25.8134C36.8245 21.9844 39.9805 18.8524 40.0105 18.8524C40.0405 18.8524 41.2165 20.0044 42.6235 21.4134Z" fill="#222222"/>
</svg>
