<svg width="64" height="64" viewBox="0 0 64 64" fill="none" xmlns="http://www.w3.org/2000/svg">
<path fill-rule="evenodd" clip-rule="evenodd" d="M16 8.75003C14.535 8.83603 13.581 9.04503 12.754 9.46203C10.643 10.528 9.31398 12.3 8.84298 14.679C8.67298 15.537 8.57898 44.786 8.73798 47.52C8.85498 49.539 9.01398 50.359 9.46298 51.248C10.528 53.357 12.301 54.686 14.679 55.157C15.132 55.247 19.512 55.294 30.453 55.327C45.948 55.375 48.793 55.324 50.08 54.979C52.357 54.369 54.369 52.357 54.979 50.08C55.324 48.793 55.375 45.948 55.327 30.453C55.294 19.512 55.247 15.132 55.157 14.679C54.686 12.3 53.357 10.528 51.246 9.46203C50.396 9.03303 49.461 8.84103 47.733 8.74003C45.832 8.62903 17.925 8.63803 16 8.75003ZM19.307 32.011V51.329L17.2 51.287C15.337 51.251 15.036 51.22 14.597 51.02C13.966 50.733 13.27 50.039 12.976 49.403L12.747 48.907V15.093L12.976 14.597C13.233 14.041 13.899 13.326 14.402 13.065C14.944 12.785 15.522 12.717 17.467 12.705L19.307 12.693V32.011ZM49.403 12.976C50.036 13.269 50.731 13.964 51.024 14.597L51.253 15.093V48.907L51.024 49.403C50.731 50.036 50.036 50.731 49.403 51.024L48.907 51.253L36.133 51.283L23.36 51.312V12.688L36.133 12.717L48.907 12.747L49.403 12.976ZM31.506 19.408C30.216 19.716 29.595 21.344 30.356 22.421C30.527 22.663 30.859 22.961 31.093 23.084C31.507 23.3 31.681 23.308 37.001 23.338C43.222 23.373 43.417 23.356 44.052 22.721C45.115 21.659 44.615 19.794 43.17 19.43C42.614 19.29 32.083 19.271 31.506 19.408ZM31.506 27.408C30.216 27.716 29.595 29.344 30.356 30.421C30.527 30.663 30.859 30.961 31.093 31.084C31.507 31.3 31.681 31.308 37.001 31.338C43.222 31.373 43.417 31.356 44.052 30.721C45.115 29.659 44.615 27.794 43.17 27.43C42.614 27.29 32.083 27.271 31.506 27.408Z" fill="#222222"/>
</svg>
