<svg width="64" height="64" viewBox="0 0 64 64" fill="none" xmlns="http://www.w3.org/2000/svg">
<path fill-rule="evenodd" clip-rule="evenodd" d="M23.572 6.08688C22.4899 6.16727 21.4412 6.49723 20.508 7.05088C19.631 7.56188 7.56199 19.6309 7.05099 20.5079C6.45099 21.5359 6.19299 22.4039 6.07999 23.7699C5.94599 25.3859 5.94599 38.6139 6.07999 40.2299C6.19299 41.5959 6.45099 42.4639 7.05099 43.4919C7.56199 44.3689 19.631 56.4379 20.508 56.9489C21.536 57.5489 22.404 57.8069 23.77 57.9199C25.367 58.0529 38.473 58.0529 40.171 57.9209C41.591 57.8109 42.441 57.5619 43.492 56.9489C44.369 56.4379 56.438 44.3689 56.949 43.4919C57.562 42.4409 57.811 41.5909 57.921 40.1709C58.053 38.4729 58.053 25.3669 57.92 23.7699C57.807 22.4039 57.549 21.5359 56.949 20.5079C56.438 19.6309 44.369 7.56188 43.492 7.05088C42.464 6.45088 41.596 6.19288 40.23 6.07988C38.767 5.95888 25.05 5.96488 23.572 6.08688ZM41.067 10.2989C41.565 10.5289 42.537 11.4509 47.504 16.4049C52.596 21.4829 53.395 22.3229 53.664 22.8799L53.973 23.5199L53.972 31.9999L53.971 40.4799L53.701 41.0669C53.471 41.5649 52.549 42.5369 47.595 47.5039C42.517 52.5959 41.677 53.3949 41.12 53.6639L40.48 53.9729H23.52L22.88 53.6639C22.323 53.3949 21.483 52.5959 16.405 47.5039C11.451 42.5369 10.529 41.5649 10.299 41.0669L10.029 40.4799V23.5199L10.299 22.9329C10.529 22.4349 11.451 21.4629 16.405 16.4959C21.483 11.4039 22.323 10.6049 22.88 10.3359L23.52 10.0269L32 10.0279L40.48 10.0289L41.067 10.2989Z" fill="#222222"/>
</svg>
