<svg width="64" height="64" viewBox="0 0 64 64" fill="none" xmlns="http://www.w3.org/2000/svg">
<path fill-rule="evenodd" clip-rule="evenodd" d="M23.572 6.08688C22.4899 6.16727 21.4412 6.49723 20.508 7.05088C19.631 7.56188 7.56199 19.6309 7.05099 20.5079C6.45099 21.5359 6.19299 22.4039 6.07999 23.7699C5.94599 25.3859 5.94599 38.6139 6.07999 40.2299C6.19299 41.5959 6.45099 42.4639 7.05099 43.4919C7.56199 44.3689 19.631 56.4379 20.508 56.9489C21.536 57.5489 22.404 57.8069 23.77 57.9199C25.386 58.0539 38.614 58.0539 40.23 57.9199C41.596 57.8069 42.464 57.5489 43.492 56.9489C43.944 56.6859 45.764 54.9339 50.351 50.3489C57.031 43.6709 57.131 43.5559 57.609 42.0269C57.728 41.6449 57.87 40.8049 57.925 40.1599C58.055 38.6049 58.052 25.3559 57.92 23.7699C57.807 22.4039 57.549 21.5359 56.949 20.5079C56.438 19.6309 44.369 7.56188 43.492 7.05088C42.464 6.45088 41.596 6.19288 40.23 6.07988C38.767 5.95888 25.05 5.96488 23.572 6.08688ZM41.067 10.2989C41.565 10.5289 42.537 11.4509 47.504 16.4049C52.596 21.4829 53.395 22.3229 53.664 22.8799L53.973 23.5199L53.972 31.9999L53.971 40.4799L53.701 41.0669C53.471 41.5649 52.549 42.5369 47.595 47.5039C42.517 52.5959 41.677 53.3949 41.12 53.6639L40.48 53.9729H23.52L22.88 53.6639C22.323 53.3949 21.483 52.5959 16.405 47.5039C11.451 42.5369 10.529 41.5649 10.299 41.0669L10.029 40.4799V23.5199L10.299 22.9329C10.529 22.4349 11.451 21.4629 16.405 16.4959C21.483 11.4039 22.323 10.6049 22.88 10.3359L23.52 10.0269L32 10.0279L40.48 10.0289L41.067 10.2989ZM30.88 16.7449C27.539 17.1269 24.596 19.1699 23.11 22.1349C22.373 23.6059 22.258 24.2639 22.604 25.0259C22.995 25.8859 23.939 26.3209 24.891 26.0789C25.556 25.9099 26.057 25.4149 26.346 24.6409C27.048 22.7639 28.831 21.1939 30.699 20.8099C32.76 20.3849 34.77 20.9809 36.213 22.4429C37.382 23.6279 37.973 25.0339 37.973 26.6299C37.973 27.6619 37.81 28.3789 37.367 29.2929C36.427 31.2349 34.68 32.4009 32.348 32.6429C31.173 32.7639 30.751 32.9689 30.313 33.6319C30.029 34.0609 30.027 34.0789 30.027 35.9919C30.027 37.8229 30.039 37.9399 30.274 38.3179C30.93 39.3719 32.253 39.6209 33.238 38.8759C33.68 38.5419 33.901 38.0439 33.999 37.1659L34.08 36.4399L34.667 36.2919C36.119 35.9259 38.214 34.6619 39.26 33.5209C40.296 32.3909 41.17 30.8419 41.622 29.3329C41.771 28.8359 41.846 28.1789 41.888 27.0129C41.939 25.5869 41.917 25.2609 41.713 24.3789C40.951 21.0789 38.427 18.3189 35.147 17.1979C33.927 16.7809 32.182 16.5949 30.88 16.7449ZM31.627 43.3539C31.568 43.3759 31.389 43.4239 31.229 43.4589C30.41 43.6389 29.792 44.6889 29.899 45.7189C30.016 46.8549 30.83 47.5729 32 47.5729C33.163 47.5729 33.984 46.8539 34.1 45.7339C34.196 44.7999 33.79 43.9469 33.071 43.5749C32.778 43.4239 31.825 43.2779 31.627 43.3539Z" fill="#222222"/>
</svg>
