<svg width="64" height="64" viewBox="0 0 64 64" fill="none" xmlns="http://www.w3.org/2000/svg">
<path fill-rule="evenodd" clip-rule="evenodd" d="M23.572 6.08688C22.4899 6.16727 21.4412 6.49723 20.508 7.05088C19.631 7.56188 7.56199 19.6309 7.05099 20.5079C6.45099 21.5359 6.19299 22.4039 6.07999 23.7699C5.94599 25.3859 5.94599 38.6139 6.07999 40.2299C6.19299 41.5959 6.45099 42.4639 7.05099 43.4919C7.56199 44.3689 19.631 56.4379 20.508 56.9489C21.536 57.5489 22.404 57.8069 23.77 57.9199C25.386 58.0539 38.614 58.0539 40.23 57.9199C41.596 57.8069 42.464 57.5489 43.492 56.9489C43.944 56.6859 45.764 54.9339 50.351 50.3489C57.031 43.6709 57.131 43.5559 57.609 42.0269C57.728 41.6449 57.87 40.8049 57.925 40.1599C58.055 38.6049 58.052 25.3559 57.92 23.7699C57.807 22.4039 57.549 21.5359 56.949 20.5079C56.438 19.6309 44.369 7.56188 43.492 7.05088C42.464 6.45088 41.596 6.19288 40.23 6.07988C38.767 5.95888 25.05 5.96488 23.572 6.08688ZM41.067 10.2989C41.565 10.5289 42.537 11.4509 47.504 16.4049C52.596 21.4829 53.395 22.3229 53.664 22.8799L53.973 23.5199L53.972 31.9999L53.971 40.4799L53.701 41.0669C53.471 41.5649 52.549 42.5369 47.595 47.5039C42.517 52.5959 41.677 53.3949 41.12 53.6639L40.48 53.9729H23.52L22.88 53.6639C22.323 53.3949 21.483 52.5959 16.405 47.5039C11.451 42.5369 10.529 41.5649 10.299 41.0669L10.029 40.4799V23.5199L10.299 22.9329C10.529 22.4349 11.451 21.4629 16.405 16.4959C21.483 11.4039 22.323 10.6049 22.88 10.3359L23.52 10.0269L32 10.0279L40.48 10.0289L41.067 10.2989ZM39.733 24.6889C39.5927 24.7316 39.4506 24.768 39.307 24.7979C39.07 24.8499 37.733 26.1189 34.16 29.6839L29.334 34.4999L27.227 32.4099C26.068 31.2609 25 30.2579 24.854 30.1819C24.707 30.1059 24.314 30.0439 23.979 30.0439C23.255 30.0439 22.674 30.3709 22.289 30.9939C21.959 31.5269 21.95 32.4589 22.269 32.9719C22.393 33.1709 23.805 34.6359 25.407 36.2279C28.143 38.9459 28.351 39.1289 28.827 39.2279C29.158 39.2969 29.509 39.2979 29.84 39.2299C30.327 39.1299 30.567 38.9059 36.07 33.4029C41.587 27.8869 41.797 27.6619 41.898 27.1699C42.092 26.2239 41.69 25.2839 40.939 24.9309C40.566 24.7549 39.912 24.6239 39.733 24.6889Z" fill="#222222"/>
</svg>
