<svg width="64" height="64" viewBox="0 0 64 64" fill="none" xmlns="http://www.w3.org/2000/svg">
<path fill-rule="evenodd" clip-rule="evenodd" d="M7.50592 16.742C6.21592 17.049 5.59492 18.677 6.35592 19.754C6.52692 19.996 6.85892 20.295 7.09292 20.417C7.51292 20.636 7.64892 20.641 15.1399 20.67C20.5779 20.692 22.8009 20.734 22.9039 20.82C22.9829 20.886 26.3369 26.42 30.3559 33.118C34.3759 39.816 37.8809 45.543 38.1449 45.845C38.8639 46.668 39.8629 47.127 41.2309 47.263C41.8529 47.325 45.2329 47.356 49.3869 47.338C56.3429 47.307 56.4879 47.302 56.9069 47.084C57.1409 46.961 57.4729 46.663 57.6439 46.421C57.9039 46.053 57.9559 45.875 57.9559 45.342C57.9559 44.582 57.6399 44.015 56.9939 43.613L56.5869 43.36L48.9139 43.33C43.4349 43.308 41.1989 43.266 41.0959 43.18C41.0169 43.114 37.6629 37.58 33.6439 30.882C29.6239 24.184 26.1189 18.457 25.8549 18.155C25.1829 17.386 24.1409 16.883 22.9329 16.745C21.8819 16.625 8.00792 16.622 7.50592 16.742ZM39.5059 16.74C38.2139 17.054 37.5949 18.677 38.3559 19.754C38.5269 19.996 38.8589 20.295 39.0929 20.417C39.5139 20.637 39.6409 20.64 47.6739 20.67C53.3859 20.691 56.0009 20.664 56.4039 20.58C58.1619 20.215 58.5309 17.902 56.9849 16.941L56.5869 16.693L48.2129 16.676C43.6079 16.666 39.6899 16.695 39.5059 16.74Z" fill="#222222"/>
</svg>
