<svg width="64" height="64" viewBox="0 0 64 64" fill="none" xmlns="http://www.w3.org/2000/svg">
<path fill-rule="evenodd" clip-rule="evenodd" d="M18.172 14.075C16.883 14.383 16.261 16.01 17.022 17.087C17.193 17.329 17.525 17.628 17.76 17.751C18.185 17.972 18.247 17.974 32.427 18.031C48.024 18.095 46.85 18.045 48.747 18.726C52.777 20.173 55.754 23.731 56.493 27.982C56.742 29.416 56.649 31.6 56.279 33.013C55.944 34.291 55.055 36.153 54.313 37.129C53.198 38.596 51.53 39.999 49.973 40.776C49.68 40.922 48.984 41.195 48.427 41.383C46.464 42.042 46.69 42.034 29.171 42.002L13.28 41.973L12.427 41.672C11.14 41.218 10.491 40.803 9.49103 39.796C8.00403 38.296 7.36003 36.748 7.36003 34.667C7.36003 32.587 8.00303 31.039 9.49103 29.536C10.504 28.514 11.33 27.999 12.587 27.609L13.387 27.36H45.387L45.813 27.591C47.743 28.634 47.847 31.203 46.004 32.286L45.493 32.587L31.787 32.64L18.08 32.693L17.673 32.946C17.027 33.348 16.711 33.916 16.711 34.676C16.711 35.209 16.762 35.386 17.022 35.754C17.193 35.996 17.525 36.295 17.76 36.417C18.185 36.639 18.236 36.64 31.36 36.67C44.531 36.7 45.622 36.676 46.775 36.328C47.994 35.96 49.415 34.867 50.19 33.701C50.883 32.659 51.209 31.67 51.279 30.396C51.392 28.351 50.786 26.769 49.34 25.332C48.355 24.353 47.551 23.881 46.336 23.571C45.534 23.365 45.097 23.36 29.597 23.36C12.249 23.36 12.809 23.342 10.992 23.965C7.19303 25.267 4.42003 28.45 3.57303 32.48C3.33503 33.614 3.33503 35.719 3.57303 36.853C4.42003 40.884 7.19303 44.066 10.992 45.369C12.81 45.992 12.239 45.973 29.704 45.973C40.645 45.973 46.011 45.936 46.623 45.857C50.26 45.386 53.518 43.768 56.078 41.16C59.305 37.873 60.904 33.503 60.58 28.853C60.363 25.9053 59.3439 23.0731 57.633 20.663C56.839 19.545 55.122 17.828 54.004 17.033C51.567 15.302 48.76 14.301 45.707 14.075C44.17 13.961 18.65 13.961 18.172 14.075Z" fill="#222222"/>
</svg>
