<svg width="64" height="64" viewBox="0 0 64 64" fill="none" xmlns="http://www.w3.org/2000/svg">
<path fill-rule="evenodd" clip-rule="evenodd" d="M38.8321 6.19598C35.8241 6.48598 33.0911 7.56798 30.5601 9.47198C29.5951 10.198 10.5851 29.202 10.3271 29.698C10.0071 30.316 10.0901 31.221 10.5161 31.747C10.6901 31.962 10.9981 32.227 11.2011 32.335C11.6571 32.58 12.4781 32.593 12.9391 32.363C13.1261 32.269 17.6241 27.86 22.9331 22.565C28.2431 17.27 32.8751 12.722 33.2271 12.458C35.0087 11.1397 37.1209 10.3411 39.3291 10.151C43.1041 9.84198 46.7301 11.247 49.2101 13.98C52.9601 18.114 53.4111 24.046 50.3361 28.8C50.0131 29.299 46.7191 32.669 38.5701 40.835C32.3461 47.073 26.9651 52.384 26.6131 52.637C25.3981 53.511 24.0931 53.911 22.4531 53.911C21.1221 53.911 20.4811 53.761 19.2071 53.151C18.3651 52.748 18.0611 52.528 17.3411 51.8C15.8551 50.297 15.2591 48.974 15.1751 46.987C15.1131 45.508 15.3051 44.537 15.9041 43.307L16.3451 42.4L27.5591 31.162C36.6141 22.088 38.8761 19.875 39.3071 19.67C40.3371 19.178 41.5521 19.446 42.3601 20.343C42.8101 20.841 43.0241 21.403 43.0241 22.08C43.0241 23.183 43.4461 22.716 33.2261 32.96C27.9881 38.211 23.6261 42.66 23.5311 42.848C23.3221 43.266 23.3091 44.151 23.5051 44.622C23.5861 44.813 23.8001 45.096 23.9831 45.249C24.7441 45.89 25.7131 45.904 26.5451 45.288C26.8171 45.086 31.1961 40.754 36.2751 35.661C42.5121 29.407 45.6531 26.183 45.9481 25.732C46.7556 24.5145 47.1271 23.0595 47.0021 21.604C46.8691 19.866 46.2941 18.642 45.0231 17.386C43.6741 16.051 42.2781 15.471 40.4051 15.468C39.1831 15.466 38.5351 15.61 37.4401 16.127L36.5331 16.555L25.2951 27.771C18.4371 34.614 13.8111 39.312 13.4281 39.822C12.6641 40.839 11.9411 42.286 11.5541 43.573C11.2831 44.475 11.2651 44.659 11.2651 46.613C11.2651 48.578 11.2811 48.747 11.5581 49.653C12.5461 52.889 14.6081 55.337 17.5471 56.764C21.1591 58.518 25.3221 58.231 28.8001 55.989C29.8441 55.315 51.9761 33.207 53.1171 31.697C54.3661 30.045 55.3421 28.048 55.8461 26.113C56.3221 24.29 56.4581 21.566 56.1691 19.68C55.0491 12.378 49.1501 6.85198 41.7601 6.18398C40.5371 6.07298 40.0871 6.07498 38.8321 6.19598Z" fill="#222222"/>
</svg>
