<svg width="64" height="64" viewBox="0 0 64 64" fill="none" xmlns="http://www.w3.org/2000/svg">
<path fill-rule="evenodd" clip-rule="evenodd" d="M50.717 7.61802C49.797 7.82602 50.333 7.66302 29.115 14.191C18.465 17.467 9.38098 20.291 8.92998 20.464C6.61898 21.354 5.64298 22.333 5.26598 24.137C5.08598 25.004 5.19398 26.053 5.54498 26.847C5.82998 27.492 6.71298 28.387 7.66798 28.998C8.11498 29.284 12.379 31.47 17.145 33.854L25.81 38.19L30.145 46.855C32.529 51.621 34.695 55.856 34.957 56.267C35.798 57.582 36.658 58.334 37.64 58.612C38.48 58.85 39.164 58.884 39.909 58.726C41.668 58.353 42.654 57.359 43.536 55.07C43.832 54.3 55.398 16.832 56.135 14.256C56.423 13.247 56.475 12.888 56.477 11.888C56.48 10.74 56.47 10.689 56.082 9.90302C55.601 8.93002 54.981 8.32502 53.992 7.86102C53.386 7.57702 53.138 7.52402 52.32 7.50002C51.783 7.48402 51.076 7.53602 50.717 7.61802ZM52.38 11.524C52.659 11.673 52.642 11.926 52.264 13.273C51.667 15.398 40.017 53.164 39.709 53.973C39.425 54.719 39.381 54.776 39.064 54.807C38.76 54.836 38.689 54.785 38.396 54.327C38.215 54.044 36.187 50.058 33.887 45.469L29.707 37.124L35.914 30.909C39.335 27.485 42.173 24.558 42.234 24.393C42.578 23.474 42.203 22.338 41.409 21.892C40.942 21.63 40.124 21.572 39.607 21.766C39.442 21.827 36.515 24.665 33.091 28.086L26.876 34.293L18.531 30.113C13.942 27.813 9.95598 25.785 9.67298 25.604C9.21498 25.311 9.16398 25.24 9.19298 24.936C9.22398 24.619 9.28098 24.575 10.027 24.291C10.759 24.011 50.382 11.792 51.36 11.544C51.936 11.397 52.137 11.393 52.38 11.524Z" fill="#222222"/>
</svg>
