<svg width="64" height="64" viewBox="0 0 64 64" fill="none" xmlns="http://www.w3.org/2000/svg">
<path fill-rule="evenodd" clip-rule="evenodd" d="M28.2119 11.411C23.3219 11.849 19.1989 15.018 17.4399 19.691C16.4809 22.237 16.4849 25.77 17.4479 28.331C18.6029 31.405 20.8349 33.891 23.7329 35.334C25.2759 36.102 26.8749 36.505 28.9299 36.643L29.9659 36.713L29.9959 43.983L30.0269 51.253L30.2739 51.651C31.2259 53.182 33.5369 52.831 33.9089 51.099C33.9919 50.71 34.0269 45.401 34.0269 32.955V15.36H40.6369L40.6649 33.307L40.6929 51.253L40.9409 51.651C41.8929 53.182 44.2039 52.831 44.5749 51.099C44.6589 50.71 44.6929 45.408 44.6929 32.978V15.407L45.4399 15.29C46.6549 15.098 47.2779 14.431 47.2779 13.322C47.2779 12.649 46.9769 12.082 46.4079 11.68L45.9549 11.36L37.5109 11.347C32.8669 11.34 28.6819 11.369 28.2119 11.411ZM29.9729 24.015V32.67L28.7729 32.613C26.5389 32.506 24.9189 31.768 23.2419 30.091C22.1019 28.951 21.5249 28.039 21.0439 26.613C20.7769 25.823 20.7559 25.631 20.7559 24C20.7559 22.369 20.7769 22.177 21.0439 21.387C21.5259 19.96 22.1019 19.049 23.2419 17.91C24.9819 16.172 26.7679 15.389 29.0399 15.368L29.9729 15.36V24.015Z" fill="#222222"/>
</svg>
