<svg width="64" height="64" viewBox="0 0 64 64" fill="none" xmlns="http://www.w3.org/2000/svg">
<path d="M7.30708 20.202C5.53708 20.765 4.29708 22.243 4.04108 24.093C3.97608 24.558 3.94808 26.864 3.97108 29.848C4.00708 34.6 4.01908 34.854 4.23308 35.425C4.84608 37.055 6.16408 38.199 7.78208 38.506C8.64008 38.669 40.4741 38.653 40.7801 38.489C41.3491 38.186 41.4551 37.535 41.0051 37.112L40.7301 36.853L24.2311 36.8L7.73308 36.747L7.29108 36.51C6.98339 36.3266 6.7058 36.0969 6.46808 35.829C5.74908 34.988 5.74908 34.986 5.78308 29.108L5.81308 23.84L6.14208 23.253C6.50008 22.616 7.19808 22.058 7.87408 21.87C8.41908 21.719 55.5811 21.719 56.1261 21.87C56.8021 22.058 57.5001 22.616 57.8581 23.253L58.1871 23.84L58.2401 26.756L58.2931 29.672L58.5931 29.929C58.9721 30.256 59.3211 30.256 59.7011 29.929L60.0001 29.672L60.0341 27.257C60.0741 24.394 59.9781 23.594 59.4641 22.542C59.0131 21.62 58.2811 20.914 57.2801 20.437L56.5871 20.107L32.1601 20.087C12.6361 20.071 7.64808 20.094 7.30708 20.202ZM49.2801 23.939C48.3872 24.1892 47.5691 24.6543 46.8973 25.2935C46.2255 25.9327 45.7204 26.7266 45.4261 27.606C45.2391 28.16 45.1721 28.66 45.1261 29.831L45.0671 31.341L44.5361 31.697C44.1993 31.9349 43.91 32.2337 43.6831 32.578L43.3601 33.103V35.618C43.3601 38.111 43.3631 38.142 43.6721 39.086C44.2081 40.721 45.5301 42.367 46.9691 43.19C48.4231 44.022 50.4741 44.37 52.0811 44.058C54.7591 43.537 56.8931 41.64 57.7861 38.987C58.0641 38.16 58.0731 38.056 58.0761 35.68C58.0801 33.363 58.0671 33.203 57.8491 32.794C57.5751 32.284 57.0341 31.731 56.6351 31.554C56.3511 31.428 56.3511 31.427 56.2901 29.916C56.1981 27.663 55.7611 26.502 54.5641 25.333C53.9551 24.738 53.0411 24.213 52.1671 23.957C51.4801 23.755 49.9771 23.746 49.2801 23.939ZM14.8651 24.746C14.3921 24.936 14.2931 25.246 14.2931 26.53C14.2931 27.192 14.2731 27.733 14.2481 27.733C14.2241 27.733 13.7461 27.469 13.1871 27.147C12.0761 26.505 11.7971 26.449 11.3741 26.781C11.1601 26.95 11.0931 27.097 11.0931 27.402C11.0931 27.894 11.2661 28.064 12.4511 28.747C12.9341 29.026 13.3051 29.293 13.2761 29.341C13.2461 29.389 12.8591 29.628 12.4161 29.872C11.9741 30.117 11.4921 30.419 11.3461 30.545C10.7871 31.026 11.1511 32 11.8891 32C12.0961 32 12.6021 31.782 13.2311 31.422L14.2401 30.844L14.2931 32.177C14.3401 33.353 14.3721 33.53 14.5601 33.667C15.1301 34.083 15.7491 33.911 15.9671 33.276C16.0371 33.073 16.0971 32.463 16.1011 31.92C16.1041 31.377 16.1371 30.933 16.1741 30.933C16.2111 30.933 16.6611 31.173 17.1731 31.467C17.7271 31.783 18.2361 32 18.4281 32C19.1241 32 19.5201 31.233 19.0981 30.697C18.9751 30.54 18.5271 30.219 18.1031 29.985C16.7951 29.261 16.8041 29.357 17.9811 28.691C19.1661 28.02 19.4391 27.67 19.2091 27.115C19.1338 26.9538 19.0154 26.8167 18.867 26.7187C18.7185 26.6207 18.5458 26.5658 18.3681 26.56C18.2681 26.56 17.7301 26.817 17.1731 27.131L16.1601 27.702L16.1021 26.517C16.0361 25.189 15.9401 24.928 15.4531 24.758C15.3388 24.7147 15.2223 24.6776 15.1041 24.647L14.8651 24.746ZM26.1711 24.722C25.6691 24.803 25.5501 25.106 25.4931 26.463L25.4401 27.73L24.4271 27.148C23.8691 26.828 23.2791 26.565 23.1151 26.563C22.7241 26.559 22.2931 26.99 22.2931 27.385C22.2931 27.848 22.5211 28.08 23.5681 28.684C24.0991 28.991 24.5331 29.274 24.5321 29.314C24.5311 29.354 24.1351 29.603 23.6521 29.867C23.1691 30.131 22.6661 30.452 22.5341 30.582C22.3777 30.7401 22.2905 30.9538 22.2916 31.1762C22.2927 31.3986 22.3821 31.6115 22.5401 31.768C22.9441 32.148 23.3961 32.067 24.4801 31.421L25.4401 30.848L25.4931 32.127C25.5451 33.367 25.5561 33.414 25.8461 33.663C26.2261 33.989 26.5741 33.989 26.9541 33.663C27.2471 33.411 27.2541 33.377 27.2891 32.125L27.3241 30.844L28.3111 31.422C28.9511 31.796 29.4191 32 29.6411 32C30.3401 32 30.7811 31.101 30.3121 30.632C30.2051 30.525 29.6731 30.183 29.1301 29.872L28.1431 29.307L29.2141 28.68C29.8041 28.335 30.3361 27.96 30.3961 27.847C30.6911 27.295 30.2841 26.559 29.6851 26.561C29.5211 26.561 28.9311 26.822 28.3731 27.14L27.3601 27.719L27.3071 26.462C27.2721 25.655 27.2031 25.145 27.1141 25.038C26.9401 24.829 26.4741 24.673 26.1711 24.722ZM37.2481 24.806C37.0751 24.879 36.8911 25.004 36.8391 25.083C36.7881 25.162 36.7231 25.788 36.6931 26.473L36.6401 27.719L35.6271 27.14C35.0691 26.822 34.4791 26.561 34.3151 26.561C33.7161 26.559 33.3091 27.295 33.6041 27.847C33.6641 27.96 34.1961 28.335 34.7861 28.68L35.8571 29.307L34.8701 29.872C34.3271 30.183 33.7951 30.525 33.6881 30.632C33.2191 31.101 33.6601 32 34.3591 32C34.5811 32 35.0491 31.796 35.6891 31.422L36.6761 30.844L36.7111 32.125C36.7461 33.377 36.7531 33.411 37.0461 33.663C37.4261 33.989 37.7741 33.989 38.1541 33.663C38.4441 33.414 38.4551 33.367 38.5071 32.127L38.5601 30.848L39.5201 31.421C40.6581 32.099 41.1301 32.171 41.4861 31.719C41.7771 31.349 41.7691 30.878 41.4661 30.582C41.3341 30.452 40.8311 30.131 40.3481 29.867C39.8651 29.603 39.4691 29.354 39.4681 29.314C39.4671 29.274 39.9011 28.991 40.4321 28.684C41.4791 28.08 41.7071 27.848 41.7071 27.385C41.7071 26.99 41.2761 26.559 40.8851 26.563C40.7211 26.565 40.1311 26.828 39.5731 27.148L38.5601 27.73L38.5071 26.463C38.4641 25.439 38.4161 25.154 38.2601 24.982C38.0091 24.704 37.6421 24.641 37.2481 24.806ZM51.8331 25.696C52.5913 25.9383 53.2564 26.4083 53.7381 27.042C54.2881 27.758 54.4251 28.274 54.4811 29.84L54.5311 31.253H46.9331V29.993C46.9331 27.984 47.3591 27.019 48.6201 26.166C49.6301 25.482 50.6621 25.332 51.8331 25.696ZM55.9921 33.236L56.3201 33.512V35.617C56.3201 37.94 56.2441 38.379 55.6431 39.519C55.2511 40.263 54.3451 41.211 53.6191 41.636C52.3621 42.3834 50.8648 42.616 49.4402 42.2853C48.0157 41.9545 46.7741 41.0858 45.9751 39.861C45.2521 38.758 45.1001 38.11 45.0401 35.867C44.9821 33.732 45.0451 33.386 45.5351 33.12C45.7641 32.996 46.6931 32.968 50.7381 32.964L55.6641 32.96L55.9921 33.236ZM49.9681 35.131C49.5301 35.33 49.0971 35.865 48.9591 36.378C48.8021 36.959 48.9891 37.597 49.4501 38.058C49.7321 38.34 49.8131 38.509 49.8131 38.814C49.8131 39.547 50.4091 40.026 51.0111 39.776C51.3781 39.624 51.6271 39.184 51.6271 38.684C51.6271 38.417 51.6951 38.273 51.8771 38.154C52.4211 37.797 52.6421 36.755 52.3311 36.011C52.1021 35.463 51.5031 35.063 50.8461 35.02C50.5251 34.999 50.1571 35.045 49.9681 35.131Z" fill="#222222"/>
</svg>
