<svg width="64" height="64" viewBox="0 0 64 64" fill="none" xmlns="http://www.w3.org/2000/svg">
<path fill-rule="evenodd" clip-rule="evenodd" d="M47.3071 6.04397C43.7721 6.35997 40.8721 8.22797 39.2521 11.231C38.4011 12.808 38.0551 14.186 38.0551 16C38.0551 17.805 38.4021 19.193 39.2401 20.747L39.6561 21.518L30.5751 30.589L21.4931 39.66L20.8531 39.298C19.3671 38.456 17.8431 38.062 16.0531 38.057C14.1931 38.053 12.8261 38.391 11.2311 39.252C9.92545 39.958 8.79443 40.9472 7.92094 42.1473C7.04745 43.3473 6.45364 44.7276 6.18306 46.187C6.01906 47.077 6.01906 48.923 6.18306 49.813C6.52306 51.65 7.47606 53.516 8.79206 54.917C10.0981 56.308 12.2331 57.456 14.1871 57.817C15.0771 57.981 16.9231 57.981 17.8131 57.817C19.2724 57.5464 20.6528 56.9526 21.8528 56.0791C23.0528 55.2056 24.0421 54.0746 24.7481 52.769C25.6091 51.174 25.9471 49.807 25.9431 47.947C25.9381 46.157 25.5441 44.633 24.7021 43.147L24.3401 42.507L33.4111 33.425L42.4821 24.344L43.2531 24.76C44.8071 25.598 46.1951 25.945 48.0001 25.945C49.8141 25.945 51.1921 25.599 52.7691 24.748C54.5371 23.795 55.7931 22.54 56.7431 20.779C57.5991 19.192 57.9451 17.817 57.9451 16C57.9451 14.186 57.5991 12.808 56.7481 11.231C55.5531 9.01597 53.6581 7.40997 51.2411 6.56797C50.1161 6.17497 48.3961 5.94597 47.3071 6.04397ZM49.5421 10.19C50.5291 10.447 51.3981 10.964 52.2171 11.783C53.4431 13.01 53.9731 14.282 53.9731 16C53.9731 17.718 53.4431 18.99 52.2171 20.217C50.9901 21.443 49.7181 21.973 48.0001 21.973C46.2821 21.973 45.0101 21.443 43.7831 20.217C42.5571 18.99 42.0271 17.718 42.0271 16C42.0271 14.282 42.5571 13.01 43.7831 11.783C44.5851 10.982 45.4661 10.45 46.4121 10.195C47.1791 9.98897 48.7611 9.98597 49.5421 10.19ZM17.5421 42.19C18.5291 42.447 19.3981 42.964 20.2171 43.783C21.4431 45.01 21.9731 46.282 21.9731 48C21.9731 49.718 21.4431 50.99 20.2171 52.217C18.9901 53.443 17.7181 53.973 16.0001 53.973C14.2821 53.973 13.0101 53.443 11.7831 52.217C10.5571 50.99 10.0271 49.718 10.0271 48C10.0271 46.282 10.5571 45.01 11.7831 43.783C12.5851 42.982 13.4661 42.45 14.4121 42.195C15.1791 41.989 16.7611 41.986 17.5421 42.19Z" fill="#222222"/>
</svg>
