<svg width="64" height="64" viewBox="0 0 64 64" fill="none" xmlns="http://www.w3.org/2000/svg">
<path fill-rule="evenodd" clip-rule="evenodd" d="M18.4329 11.0399C17.2905 11.1466 16.5201 11.4126 15.6202 12.0101C14.4181 12.808 13.557 14.0272 13.1633 15.4881C13.0065 16.0702 13 16.6758 13 31.9599C13 47.2658 13.0065 47.8503 13.1641 48.4736C13.7163 50.6533 15.3227 52.2726 17.4846 52.8321C18.3351 53.0512 21.6078 53.0577 22.4429 52.841C24.6533 52.267 26.2508 50.6686 26.807 48.4736C26.9647 47.8503 26.9703 47.2658 26.9703 31.9599C26.9703 16.6758 26.9647 16.0702 26.8078 15.4881C26.2241 13.323 24.5999 11.7053 22.4841 11.1814C21.8721 11.0294 19.4459 10.9453 18.4329 11.0399ZM42.1485 11.0399C41.0054 11.1466 40.2357 11.4126 39.3351 12.0101C38.1337 12.808 37.2727 14.0272 36.8781 15.4881C36.7213 16.0702 36.7156 16.6758 36.7156 31.9599C36.7156 47.2658 36.7213 47.8503 36.8789 48.4736C37.4311 50.6533 39.0375 52.2726 41.1994 52.8321C42.0499 53.0512 45.3234 53.0577 46.1585 52.841C48.3681 52.267 49.9656 50.6686 50.5218 48.4736C50.6795 47.8503 50.686 47.2658 50.686 31.9599C50.686 16.6758 50.6795 16.0702 50.5226 15.4881C49.9389 13.323 48.3147 11.7053 46.199 11.1814C45.5878 11.0294 43.1615 10.9453 42.1485 11.0399ZM22.2529 14.4783C22.7251 14.7314 23.2433 15.2496 23.4963 15.7218L23.6936 16.092V47.9134L23.4963 48.2836C23.2433 48.7558 22.7251 49.274 22.2529 49.5271C21.8988 49.7154 21.7978 49.7243 19.9852 49.7243C18.1726 49.7243 18.0715 49.7154 17.7182 49.5271C17.2453 49.274 16.727 48.7558 16.4748 48.2836L16.2775 47.9134L16.2549 32.1878C16.2395 21.643 16.2614 16.354 16.3204 16.1341C16.5152 15.4113 17.3576 14.5454 18.0764 14.3288C18.2251 14.2843 19.1427 14.2552 20.1145 14.2641C21.7751 14.2803 21.9053 14.2932 22.2529 14.4783ZM45.9677 14.4783C46.4407 14.7314 46.9589 15.2496 47.2112 15.7218L47.4084 16.092V47.9134L47.2112 48.2836C46.9589 48.7558 46.4407 49.274 45.9677 49.5271C45.6144 49.7154 45.5134 49.7243 43.7008 49.7243C41.8882 49.7243 41.7871 49.7154 41.433 49.5271C40.9609 49.274 40.4427 48.7558 40.1896 48.2836L39.9923 47.9134L39.9697 32.1878C39.9552 21.643 39.9762 16.354 40.036 16.1341C40.23 15.4113 41.0725 14.5454 41.7912 14.3288C41.9399 14.2843 42.8576 14.2552 43.8301 14.2641C45.4899 14.2803 45.6201 14.2932 45.9677 14.4783Z" fill="#222222"/>
</svg>
