<svg width="64" height="64" viewBox="0 0 64 64" fill="none" xmlns="http://www.w3.org/2000/svg">
<path fill-rule="evenodd" clip-rule="evenodd" d="M18.4329 11.0399C17.2905 11.1466 16.5201 11.4126 15.6202 12.0101C14.4181 12.808 13.557 14.0272 13.1633 15.4881C13.0065 16.0702 13 16.6758 13 31.9599C13 47.2658 13.0065 47.8503 13.1641 48.4736C13.7163 50.6533 15.3227 52.2726 17.4846 52.8321C18.3351 53.0512 21.6078 53.0577 22.4429 52.841C24.6533 52.267 26.2508 50.6686 26.807 48.4736C26.9647 47.8503 26.9703 47.2658 26.9703 31.9599C26.9703 16.6758 26.9647 16.0702 26.8078 15.4881C26.2241 13.323 24.5999 11.7053 22.4841 11.1814C21.8721 11.0294 19.4459 10.9453 18.4329 11.0399ZM42.1485 11.0399C41.0054 11.1466 40.2357 11.4126 39.3351 12.0101C38.1337 12.808 37.2727 14.0272 36.8781 15.4881C36.7213 16.0702 36.7156 16.6758 36.7156 31.9599C36.7156 47.2658 36.7213 47.8503 36.8789 48.4736C37.4311 50.6533 39.0375 52.2726 41.1994 52.8321C42.0499 53.0512 45.3234 53.0577 46.1585 52.841C48.3681 52.267 49.9656 50.6686 50.5218 48.4736C50.6795 47.8503 50.686 47.2658 50.686 31.9599C50.686 16.6758 50.6795 16.0702 50.5226 15.4881C49.9389 13.323 48.3147 11.7053 46.199 11.1814C45.5878 11.0294 43.1615 10.9453 42.1485 11.0399Z" fill="#222222"/>
</svg>
