<svg width="64" height="64" viewBox="0 0 64 64" fill="none" xmlns="http://www.w3.org/2000/svg">
<path fill-rule="evenodd" clip-rule="evenodd" d="M24.397 6.123C23.59 6.321 22.858 6.935 22.477 7.733L22.25 8.21L22.207 15.317L22.163 22.423L15.143 22.467L8.12296 22.51L7.69696 22.727C7.19396 22.983 6.57796 23.574 6.35096 24.018C6.00596 24.695 5.98896 25.105 6.01696 32.087L6.04296 38.803L6.27496 39.297C6.53896 39.861 7.12396 40.487 7.62796 40.744C8.27196 41.072 8.86496 41.099 15.642 41.099L22.207 41.1L22.209 48.358L22.211 55.617L22.413 56.108C22.524 56.378 22.708 56.714 22.822 56.854C23.133 57.235 23.827 57.724 24.232 57.848C24.507 57.931 26.272 57.957 31.87 57.957H39.15L39.67 57.714C40.25 57.442 40.664 57.086 40.992 56.573C41.446 55.865 41.445 55.887 41.446 48.402L41.447 41.447L48.402 41.446C55.887 41.445 55.865 41.446 56.573 40.992C57.086 40.664 57.442 40.25 57.714 39.67L57.957 39.15L57.983 32.26C58.01 25.106 57.994 24.694 57.65 24.021C57.43 23.589 56.788 22.976 56.291 22.722L55.877 22.51L48.662 22.486L41.447 22.463L41.446 15.553C41.445 8.11701 41.446 8.135 40.992 7.427C40.664 6.914 40.25 6.558 39.67 6.286L39.15 6.043L32 6.028C26.439 6.016 24.749 6.037 24.397 6.123ZM37.479 17.072L37.503 24.157L37.727 24.634C37.999 25.212 38.583 25.815 39.157 26.107L39.583 26.323L46.777 26.367L53.97 26.41L53.992 31.933L54.015 37.455L46.884 37.479L39.753 37.503L39.179 37.786C38.511 38.115 38.053 38.585 37.732 39.27L37.503 39.757L37.479 46.885L37.455 54.013H26.193V47.102C26.192 42.693 26.159 39.987 26.101 39.629C25.929 38.57 25.195 37.65 24.236 37.291C23.771 37.117 23.608 37.113 16.873 37.113H9.98496L10.008 31.762L10.03 26.41L17.05 26.367L24.07 26.323L24.46 26.119C24.8942 25.896 25.2695 25.5733 25.555 25.1773C25.8406 24.7814 26.0284 24.3235 26.103 23.841C26.158 23.497 26.192 20.794 26.193 16.638V9.987H37.455L37.479 17.072Z" fill="#222222"/>
</svg>
