<svg width="64" height="64" viewBox="0 0 64 64" fill="none" xmlns="http://www.w3.org/2000/svg">
<path fill-rule="evenodd" clip-rule="evenodd" d="M40.1079 7.23801C39.4719 7.57901 39.1129 8.12701 39.0619 8.83801C39.0299 9.28301 39.0679 9.56201 39.1989 9.82301C39.2989 10.023 40.6109 11.422 42.1149 12.932L44.8499 15.678L42.0579 18.479C40.5229 20.02 39.2149 21.415 39.1529 21.58C38.8859 22.288 39.1169 23.331 39.6459 23.809C39.9479 24.082 40.5839 24.32 41.0129 24.32C41.7829 24.32 42.1199 24.056 44.9339 21.25L47.6819 18.51L50.4279 21.251C52.2349 23.056 53.3089 24.048 53.5699 24.156C54.7809 24.656 56.1469 23.863 56.2919 22.575C56.3979 21.637 56.2889 21.489 53.2969 18.48L50.5119 15.68L53.2509 12.933C56.0559 10.12 56.3199 9.78301 56.3199 9.01301C56.3199 8.58401 56.0819 7.94801 55.8089 7.64601C55.3309 7.11701 54.2879 6.88601 53.5799 7.15301C53.4149 7.21501 52.0199 8.52301 50.4789 10.058L47.6779 12.85L44.9319 10.115C43.4219 8.61101 42.0329 7.30401 41.8449 7.21001C41.3839 6.98001 40.5639 6.99301 40.1079 7.23801ZM15.5829 8.31701C14.1499 8.60901 12.7339 8.92701 12.4359 9.02401C10.2699 9.72601 8.29094 11.679 7.63194 13.765C7.24294 14.995 7.20494 15.819 7.45494 17.568C8.64194 25.86 12.4919 34.019 18.3849 40.736C18.8949 41.317 20.0689 42.529 20.9929 43.43C27.6279 49.895 36.0739 54.26 44.7839 55.725C46.6579 56.04 48.1749 56.08 49.1239 55.838C51.3759 55.266 53.4559 53.338 54.2249 51.111C54.5289 50.233 55.3949 46.056 55.5149 44.894C55.7679 42.431 54.4529 39.49 52.4309 37.998C51.5919 37.379 47.7969 35.48 46.9209 35.24C45.8849 34.957 44.2339 34.995 43.1289 35.327C41.8879 35.701 41.1549 36.173 39.9999 37.346C38.5399 38.827 38.5149 38.834 37.1979 38.172C32.9609 36.044 26.7169 29.707 24.9739 25.767C24.5639 24.841 24.6889 24.491 25.7419 23.612C26.4329 23.035 27.1919 22.086 27.5909 21.298C28.2389 20.019 28.4719 17.873 28.1139 16.48C27.8709 15.536 25.8259 11.486 25.2059 10.723C24.4869 9.84845 23.5865 9.14048 22.5669 8.64801C21.4149 8.08301 20.6449 7.89101 19.3069 7.83401C18.2789 7.79001 17.9709 7.83001 15.5829 8.31701ZM19.7549 11.853C20.5596 12.0236 21.2966 12.4262 21.8749 13.011C22.2719 13.409 22.5989 13.952 23.3269 15.422L24.2669 17.32L24.2639 18.18C24.2599 19.231 24.0399 19.713 23.2259 20.455C21.9009 21.662 21.3829 22.353 21.0029 23.422C20.7039 24.261 20.6819 25.636 20.9549 26.453C22.2969 30.484 28.2239 37.209 33.3869 40.559C35.6329 42.017 37.0009 42.577 38.3159 42.577C39.9279 42.577 41.2089 41.925 42.5889 40.405C43.6349 39.252 44.1409 39 45.2929 39.058C46.0219 39.095 46.1839 39.154 47.9569 40.039C50.0859 41.101 50.6929 41.592 51.1719 42.639C51.6369 43.655 51.6239 44.455 51.0959 47.08C50.5619 49.742 50.3649 50.298 49.7159 50.981C48.7149 52.035 47.9419 52.201 45.6969 51.844C39.5659 50.87 33.1409 48.083 27.8929 44.122C25.3399 42.194 21.9609 38.915 20.0199 36.48C15.6579 31.009 12.7099 24.594 11.5689 18.088C11.1259 15.562 11.2289 14.836 12.1739 13.81C12.8989 13.024 13.4159 12.825 16.2129 12.256C19.0269 11.683 18.9779 11.688 19.7549 11.853Z" fill="#222222"/>
</svg>
