<svg width="64" height="64" viewBox="0 0 64 64" fill="none" xmlns="http://www.w3.org/2000/svg">
<path fill-rule="evenodd" clip-rule="evenodd" d="M53.493 7.20498C53.317 7.29598 50.317 10.223 46.826 13.711C43.335 17.199 40.443 20.053 40.4 20.053C40.356 20.053 40.32 18.684 40.32 17.01C40.32 13.816 40.28 13.5 39.809 12.979C39.18 12.283 37.879 12.173 37.16 12.756C36.337 13.422 36.373 13.104 36.373 19.656C36.373 25.182 36.384 25.523 36.575 25.898C36.825 26.386 37.067 26.611 37.574 26.823C37.911 26.963 38.781 26.987 43.696 26.987C49.317 26.987 49.435 26.982 49.893 26.76C51.321 26.07 51.333 23.974 49.914 23.25C49.531 23.055 49.276 23.04 46.325 23.04H43.149L49.57 16.613C54.023 12.157 56.042 10.065 56.156 9.78998C56.445 9.09198 56.299 8.18698 55.809 7.64598C55.301 7.08398 54.156 6.86598 53.493 7.20498ZM15.583 8.31698C14.15 8.60898 12.734 8.92698 12.436 9.02398C10.27 9.72598 8.291 11.679 7.632 13.765C7.243 14.995 7.205 15.819 7.455 17.568C8.642 25.86 12.492 34.019 18.385 40.736C18.895 41.317 20.069 42.529 20.993 43.43C27.628 49.895 36.074 54.26 44.784 55.725C46.658 56.04 48.175 56.08 49.124 55.838C51.376 55.266 53.456 53.338 54.225 51.111C54.529 50.233 55.395 46.056 55.515 44.894C55.768 42.431 54.453 39.49 52.431 37.998C51.592 37.379 47.797 35.48 46.921 35.24C45.885 34.957 44.234 34.995 43.129 35.327C41.888 35.701 41.155 36.173 40 37.346C38.54 38.827 38.515 38.834 37.198 38.172C32.961 36.044 26.717 29.707 24.974 25.767C24.564 24.841 24.689 24.491 25.742 23.612C26.433 23.035 27.192 22.086 27.591 21.298C28.239 20.019 28.472 17.873 28.114 16.48C27.871 15.536 25.826 11.486 25.206 10.723C24.4869 9.84842 23.5865 9.14044 22.567 8.64798C21.415 8.08298 20.645 7.89098 19.307 7.83398C18.279 7.78998 17.971 7.82998 15.583 8.31698ZM19.755 11.853C20.5596 12.0236 21.2966 12.4262 21.875 13.011C22.272 13.409 22.599 13.952 23.327 15.422L24.267 17.32L24.264 18.18C24.26 19.231 24.04 19.713 23.226 20.455C21.901 21.662 21.383 22.353 21.003 23.422C20.704 24.261 20.682 25.636 20.955 26.453C22.297 30.484 28.224 37.209 33.387 40.559C35.633 42.017 37.001 42.577 38.316 42.577C39.928 42.577 41.209 41.925 42.589 40.405C43.635 39.252 44.141 39 45.293 39.058C46.022 39.095 46.184 39.154 47.957 40.039C50.086 41.101 50.693 41.592 51.172 42.639C51.637 43.655 51.624 44.455 51.096 47.08C50.562 49.742 50.365 50.298 49.716 50.981C48.715 52.035 47.942 52.201 45.697 51.844C39.566 50.87 33.141 48.083 27.893 44.122C25.34 42.194 21.961 38.915 20.02 36.48C15.658 31.009 12.71 24.594 11.569 18.088C11.126 15.562 11.229 14.836 12.174 13.81C12.899 13.024 13.416 12.825 16.213 12.256C19.027 11.683 18.978 11.688 19.755 11.853Z" fill="#222222"/>
</svg>
