<svg width="64" height="64" viewBox="0 0 64 64" fill="none" xmlns="http://www.w3.org/2000/svg">
<path fill-rule="evenodd" clip-rule="evenodd" d="M13.425 3.61901C11.615 3.87101 10.471 5.15901 10.242 7.20001C9.99699 9.39301 10.169 12.02 10.624 13.013C10.971 13.773 11.782 14.537 12.545 14.822C13.854 15.312 18.146 15.312 19.455 14.822C20.22 14.536 21.029 13.773 21.379 13.008C21.564 12.604 21.689 12.062 21.772 11.301C21.909 10.052 21.843 7.29501 21.654 6.43801C21.485 5.66701 20.946 4.82401 20.32 4.35101C19.41 3.66501 19.119 3.60601 16.427 3.56801C15.107 3.55001 13.756 3.57301 13.425 3.61901ZM29.423 3.62801C28.61 3.75601 27.879 4.11601 27.341 4.65401C26.391 5.60301 26.195 6.40301 26.195 9.33301C26.195 12.263 26.391 13.063 27.341 14.013C28.302 14.974 29.396 15.202 32.634 15.12C34.204 15.079 34.852 15.021 35.256 14.885C36.307 14.529 37.159 13.694 37.514 12.672C37.601 12.42 37.725 11.573 37.789 10.791C37.921 9.17201 37.783 6.76601 37.514 5.99401C37.158 4.97301 36.309 4.14001 35.256 3.78001C34.828 3.63401 34.248 3.59101 32.373 3.56601C31.083 3.54801 29.755 3.57601 29.423 3.62801ZM45.423 3.62801C44.61 3.75601 43.879 4.11601 43.341 4.65401C42.391 5.60301 42.195 6.40301 42.195 9.33301C42.195 12.263 42.391 13.063 43.341 14.013C44.302 14.974 45.396 15.202 48.634 15.12C50.204 15.079 50.852 15.021 51.256 14.885C52.307 14.529 53.159 13.694 53.514 12.672C53.601 12.42 53.725 11.573 53.789 10.791C53.921 9.17201 53.783 6.76601 53.514 5.99401C53.158 4.97301 52.309 4.14001 51.256 3.78001C50.828 3.63401 50.248 3.59101 48.373 3.56601C47.083 3.54801 45.755 3.57601 45.423 3.62801ZM17.413 7.53501L17.813 7.60101V9.33501C17.813 11.384 17.996 11.197 16 11.197C14.004 11.197 14.187 11.386 14.187 9.32801V7.58801L14.48 7.54301C14.964 7.47001 16.984 7.46401 17.413 7.53501ZM33.693 7.56201C33.806 7.63401 33.838 8.03001 33.838 9.33301C33.838 10.637 33.806 11.033 33.693 11.104C33.502 11.225 30.498 11.225 30.307 11.104C30.194 11.033 30.162 10.637 30.162 9.33301C30.162 8.03001 30.194 7.63401 30.307 7.56201C30.388 7.51201 31.149 7.47001 32 7.47001C32.851 7.47001 33.612 7.51201 33.693 7.56201ZM49.693 7.56201C49.806 7.63401 49.838 8.03001 49.838 9.33301C49.838 10.637 49.806 11.033 49.693 11.104C49.502 11.225 46.498 11.225 46.307 11.104C46.194 11.033 46.162 10.637 46.162 9.33301C46.162 8.03001 46.194 7.63401 46.307 7.56201C46.388 7.51201 47.149 7.47001 48 7.47001C48.851 7.47001 49.612 7.51201 49.693 7.56201ZM13.904 18.235C12.192 18.433 11.217 19.076 10.609 20.406C9.98799 21.763 9.98799 26.237 10.609 27.594C11.094 28.657 11.877 29.31 13.042 29.625C13.568 29.767 14.186 29.804 16 29.804C17.814 29.804 18.432 29.767 18.958 29.625C20.117 29.312 20.906 28.657 21.385 27.609C22.009 26.242 22.009 21.758 21.385 20.391C20.913 19.358 20.116 18.687 19.013 18.394C18.288 18.201 15.063 18.101 13.904 18.235ZM29.904 18.235C28.192 18.433 27.217 19.076 26.609 20.406C25.988 21.763 25.988 26.237 26.609 27.594C27.094 28.657 27.877 29.31 29.042 29.625C29.568 29.767 30.186 29.804 32 29.804C35.015 29.804 35.784 29.605 36.768 28.572C37.405 27.901 37.647 27.171 37.785 25.502C37.956 23.443 37.785 21.268 37.385 20.391C36.913 19.358 36.116 18.687 35.013 18.394C34.288 18.201 31.063 18.101 29.904 18.235ZM45.904 18.235C44.192 18.433 43.217 19.076 42.609 20.406C41.988 21.763 41.988 26.237 42.609 27.594C43.094 28.657 43.877 29.31 45.042 29.625C45.568 29.767 46.186 29.804 48 29.804C51.015 29.804 51.784 29.605 52.768 28.572C53.405 27.901 53.647 27.171 53.785 25.502C53.956 23.443 53.785 21.268 53.385 20.391C52.913 19.358 52.116 18.687 51.013 18.394C50.288 18.201 47.063 18.101 45.904 18.235ZM17.771 22.219C17.808 22.263 17.854 24.301 17.834 25.024L17.813 25.782L16.907 25.852C16.408 25.89 15.598 25.89 15.107 25.853L14.215 25.784L14.159 24.892C14.1288 24.2944 14.1292 23.6956 14.16 23.098L14.216 22.197L14.761 22.151C15.247 22.11 17.727 22.166 17.771 22.219ZM33.771 22.219C33.808 22.263 33.854 24.301 33.834 25.024L33.813 25.782L32.907 25.852C32.408 25.89 31.598 25.89 31.107 25.853L30.215 25.784L30.159 24.892C30.1288 24.2944 30.1292 23.6956 30.16 23.098L30.216 22.197L30.761 22.151C31.247 22.11 33.727 22.166 33.771 22.219ZM49.771 22.219C49.808 22.263 49.854 24.301 49.834 25.024L49.813 25.782L48.907 25.852C48.408 25.89 47.598 25.89 47.107 25.853L46.215 25.784L46.159 24.892C46.1288 24.2944 46.1292 23.6956 46.16 23.098L46.216 22.197L46.761 22.151C47.247 22.11 49.727 22.166 49.771 22.219ZM13.423 32.962C12.61 33.09 11.879 33.449 11.341 33.987C10.391 34.937 10.195 35.737 10.195 38.667C10.195 41.597 10.391 42.397 11.341 43.346C12.302 44.307 13.396 44.536 16.634 44.453C18.204 44.413 18.852 44.355 19.256 44.218C20.307 43.862 21.159 43.027 21.514 42.006C21.601 41.753 21.725 40.907 21.789 40.124C21.921 38.505 21.783 36.099 21.514 35.328C21.158 34.306 20.309 33.473 19.256 33.114C18.828 32.968 18.248 32.924 16.373 32.899C15.083 32.881 13.755 32.91 13.423 32.962ZM29.423 32.962C28.61 33.09 27.879 33.449 27.341 33.987C26.391 34.937 26.195 35.737 26.195 38.667C26.195 41.597 26.391 42.397 27.341 43.346C28.302 44.307 29.396 44.536 32.634 44.453C34.204 44.413 34.852 44.355 35.256 44.218C36.307 43.862 37.159 43.027 37.514 42.006C37.601 41.753 37.725 40.907 37.789 40.124C37.921 38.505 37.783 36.099 37.514 35.328C37.158 34.306 36.309 33.473 35.256 33.114C34.828 32.968 34.248 32.924 32.373 32.899C31.083 32.881 29.755 32.91 29.423 32.962ZM45.423 32.962C44.61 33.09 43.879 33.449 43.341 33.987C42.391 34.937 42.195 35.737 42.195 38.667C42.195 41.597 42.391 42.397 43.341 43.346C44.302 44.307 45.396 44.536 48.634 44.453C50.204 44.413 50.852 44.355 51.256 44.218C52.307 43.862 53.159 43.027 53.514 42.006C53.601 41.753 53.725 40.907 53.789 40.124C53.921 38.505 53.783 36.099 53.514 35.328C53.158 34.306 52.309 33.473 51.256 33.114C50.828 32.968 50.248 32.924 48.373 32.899C47.083 32.881 45.755 32.91 45.423 32.962ZM17.693 36.896C17.806 36.967 17.838 37.363 17.838 38.667C17.838 39.97 17.806 40.366 17.693 40.438C17.502 40.558 14.498 40.558 14.307 40.438C14.194 40.366 14.162 39.97 14.162 38.667C14.162 37.363 14.194 36.967 14.307 36.896C14.388 36.845 15.149 36.803 16 36.803C16.851 36.803 17.612 36.845 17.693 36.896ZM33.693 36.896C33.806 36.967 33.838 37.363 33.838 38.667C33.838 39.97 33.806 40.366 33.693 40.438C33.502 40.558 30.498 40.558 30.307 40.438C30.194 40.366 30.162 39.97 30.162 38.667C30.162 37.363 30.194 36.967 30.307 36.896C30.388 36.845 31.149 36.803 32 36.803C32.851 36.803 33.612 36.845 33.693 36.896ZM49.693 36.896C49.806 36.967 49.838 37.363 49.838 38.667C49.838 39.97 49.806 40.366 49.693 40.438C49.502 40.558 46.498 40.558 46.307 40.438C46.194 40.366 46.162 39.97 46.162 38.667C46.162 37.363 46.194 36.967 46.307 36.896C46.388 36.845 47.149 36.803 48 36.803C48.851 36.803 49.612 36.845 49.693 36.896ZM29.904 47.568C28.192 47.766 27.217 48.409 26.609 49.739C25.988 51.096 25.988 55.57 26.609 56.928C27.094 57.991 27.877 58.644 29.042 58.958C29.568 59.1 30.186 59.138 32 59.138C33.814 59.138 34.432 59.1 34.958 58.958C36.117 58.645 36.906 57.99 37.385 56.942C38.009 55.575 38.009 51.092 37.385 49.725C36.913 48.692 36.116 48.021 35.013 47.728C34.288 47.535 31.063 47.434 29.904 47.568ZM33.771 51.552C33.808 51.596 33.854 53.634 33.834 54.358L33.813 55.115L32.907 55.185C32.408 55.223 31.598 55.224 31.107 55.186L30.215 55.117L30.159 54.225C30.129 53.735 30.129 52.928 30.16 52.432L30.216 51.53L30.761 51.484C31.247 51.444 33.727 51.5 33.771 51.552Z" fill="#222222"/>
</svg>
