<svg width="64" height="64" viewBox="0 0 64 64" fill="none" xmlns="http://www.w3.org/2000/svg">
<path fill-rule="evenodd" clip-rule="evenodd" d="M30.187 6.08199C24.164 6.49699 18.28 9.09299 14.114 13.172C13.16 14.107 12.935 14.579 13.068 15.368C13.159 15.906 13.64 16.559 14.11 16.782C14.586 17.008 15.485 17.011 15.915 16.789C16.096 16.695 16.562 16.322 16.949 15.959C20.3894 12.7439 24.7625 10.7055 29.437 10.138C30.601 9.99499 33.402 9.99499 34.563 10.139C38.952 10.683 43.279 12.602 46.378 15.379C47.93 16.769 48.238 16.96 48.929 16.96C49.665 16.96 50.182 16.719 50.558 16.199C50.7346 15.9524 50.8546 15.6698 50.9094 15.3714C50.9642 15.0731 50.9524 14.7663 50.875 14.473C50.679 13.721 48.724 11.931 46.395 10.373C41.682 7.21899 35.898 5.68699 30.187 6.08199ZM30.753 16.751C27.374 17.028 24.272 18.373 21.678 20.684C20.651 21.599 20.366 22.412 20.751 23.333C21.066 24.088 21.733 24.533 22.549 24.533C23.225 24.533 23.433 24.429 24.384 23.618C25.537 22.634 26.52 22.015 27.67 21.547C29.328 20.873 30.012 20.747 32 20.747C33.988 20.747 34.672 20.873 36.33 21.547C37.48 22.015 38.463 22.634 39.616 23.618C40.567 24.429 40.775 24.533 41.451 24.533C42.267 24.533 42.934 24.088 43.249 23.333C43.634 22.412 43.349 21.599 42.322 20.684C39.087 17.802 34.975 16.404 30.753 16.751ZM29.813 30.085C22.217 30.487 14.785 33.285 9.111 37.88C7.979 38.796 7.299 39.598 6.829 40.571C6.114 42.049 6.034 42.56 6.039 45.6C6.043 47.985 6.068 48.354 6.272 49.097C6.999 51.744 8.945 53.792 11.573 54.674C12.675 55.044 14.397 55.141 15.539 54.898C16.661 54.659 18.972 53.715 19.865 53.131C21.1932 52.2487 22.2171 50.9783 22.797 49.493C23.101 48.703 23.15 48.466 23.3 47.04C23.437 45.744 23.62 45.209 24.088 44.741C24.528 44.301 24.817 44.196 26.242 43.957C29.809 43.361 34.191 43.361 37.758 43.957C39.183 44.196 39.472 44.301 39.912 44.741C40.38 45.209 40.563 45.744 40.7 47.04C40.85 48.466 40.899 48.703 41.203 49.493C41.741 50.891 42.793 52.229 43.994 53.046C44.71 53.532 46.278 54.244 47.611 54.686C48.393 54.946 48.634 54.975 50.027 54.978C51.445 54.98 51.644 54.955 52.427 54.684C55.078 53.763 57.009 51.725 57.731 49.081C57.928 48.361 57.954 47.959 57.96 45.6C57.967 42.548 57.889 42.058 57.154 40.533C56.638 39.462 55.611 38.373 53.969 37.155C48.182 32.864 41.426 30.479 33.92 30.078C31.896 29.97 31.994 29.97 29.813 30.085ZM36.587 34.289C39.289 34.671 42.401 35.51 44.762 36.491C47.923 37.805 51.286 39.866 52.925 41.494C53.938 42.5 53.994 42.734 53.952 45.78C53.921 48.104 53.913 48.174 53.635 48.768C53.041 50.035 51.671 50.978 50.293 51.068C49.68 51.109 49.395 51.066 48.693 50.831C45.736 49.838 44.819 48.871 44.644 46.56C44.469 44.261 43.603 42.491 42.094 41.345C41.038 40.543 40.064 40.245 37.108 39.822C35.197 39.548 28.803 39.548 26.892 39.822C23.936 40.245 22.962 40.543 21.906 41.345C20.397 42.491 19.531 44.261 19.356 46.56C19.181 48.871 18.264 49.838 15.307 50.831C14.605 51.066 14.32 51.109 13.707 51.068C12.329 50.978 10.959 50.035 10.365 48.768C10.087 48.174 10.079 48.104 10.048 45.78C10.006 42.695 10.056 42.493 11.134 41.442C12.388 40.219 14.655 38.698 16.911 37.567C20.798 35.619 24.415 34.595 29.173 34.095C30.211 33.986 35.407 34.122 36.587 34.289Z" fill="#222222"/>
</svg>
