<svg width="64" height="64" viewBox="0 0 64 64" fill="none" xmlns="http://www.w3.org/2000/svg">
<path fill-rule="evenodd" clip-rule="evenodd" d="M32.108 7.23797C31.472 7.57897 31.113 8.12797 31.062 8.83697C30.966 10.163 31.816 10.987 33.281 10.987C34.19 10.987 35.823 11.176 36.993 11.418C42.81 12.617 47.958 16.705 50.506 22.147C51.567 24.413 52.091 26.475 52.278 29.12C52.35 30.129 52.461 30.932 52.563 31.18C53.172 32.65 55.391 32.679 56.094 31.227C56.356 30.684 56.384 29.92 56.207 28.099C55.502 20.856 51.504 14.419 45.28 10.504C41.912 8.38597 37.345 7.04397 33.492 7.04097C32.706 7.03997 32.393 7.08497 32.108 7.23797ZM15.583 8.31697C14.15 8.60897 12.734 8.92697 12.436 9.02397C10.27 9.72597 8.291 11.679 7.632 13.765C7.243 14.995 7.205 15.819 7.455 17.568C8.642 25.86 12.492 34.019 18.385 40.736C18.895 41.317 20.069 42.529 20.993 43.43C27.628 49.895 36.074 54.26 44.784 55.725C46.658 56.04 48.175 56.08 49.124 55.838C51.376 55.266 53.456 53.338 54.225 51.111C54.529 50.233 55.395 46.056 55.515 44.894C55.768 42.431 54.453 39.49 52.431 37.998C51.592 37.379 47.797 35.48 46.921 35.24C45.885 34.957 44.234 34.995 43.129 35.327C41.888 35.701 41.155 36.173 40 37.346C38.54 38.827 38.515 38.834 37.198 38.172C32.961 36.044 26.717 29.707 24.974 25.767C24.564 24.841 24.689 24.491 25.742 23.612C26.433 23.035 27.192 22.086 27.591 21.298C28.239 20.019 28.472 17.873 28.114 16.48C27.871 15.536 25.826 11.486 25.206 10.723C24.4869 9.84842 23.5865 9.14044 22.567 8.64797C21.415 8.08297 20.645 7.89097 19.307 7.83397C18.279 7.78997 17.971 7.82997 15.583 8.31697ZM19.755 11.853C20.5596 12.0236 21.2966 12.4262 21.875 13.011C22.272 13.409 22.599 13.952 23.327 15.422L24.267 17.32L24.264 18.18C24.26 19.231 24.04 19.713 23.226 20.455C21.901 21.662 21.383 22.353 21.003 23.422C20.704 24.261 20.682 25.636 20.955 26.453C22.297 30.484 28.224 37.209 33.387 40.559C35.633 42.017 37.001 42.577 38.316 42.577C39.928 42.577 41.209 41.925 42.589 40.405C43.635 39.252 44.141 39 45.293 39.058C46.022 39.095 46.184 39.154 47.957 40.039C50.086 41.101 50.693 41.592 51.172 42.639C51.637 43.655 51.624 44.455 51.096 47.08C50.562 49.742 50.365 50.298 49.716 50.981C48.715 52.035 47.942 52.201 45.697 51.844C39.566 50.87 33.141 48.083 27.893 44.122C25.34 42.194 21.961 38.915 20.02 36.48C15.658 31.009 12.71 24.594 11.569 18.088C11.126 15.562 11.229 14.836 12.174 13.81C12.899 13.024 13.416 12.825 16.213 12.256C19.027 11.683 18.978 11.688 19.755 11.853ZM34.752 18.244C34.105 18.586 33.774 19.116 33.733 19.879C33.674 20.984 34.247 21.68 35.513 22.042C36.622 22.358 37.924 23.117 38.842 23.981C40.077 25.143 40.776 26.235 41.279 27.787C41.579 28.715 41.928 29.192 42.494 29.449C43.631 29.966 44.9 29.381 45.234 28.187C45.353 27.762 45.345 27.597 45.177 26.942C44.175 23.055 40.966 19.665 37.042 18.351C35.93 17.978 35.311 17.949 34.752 18.244Z" fill="#222222"/>
</svg>
