<svg width="64" height="64" viewBox="0 0 64 64" fill="none" xmlns="http://www.w3.org/2000/svg">
<path fill-rule="evenodd" clip-rule="evenodd" d="M45.441 7.23798C45.1793 7.39748 44.9455 7.59882 44.749 7.83398L44.427 8.23298L44.373 11.61L44.32 14.987L40.943 15.04L37.566 15.093L37.168 15.416C36.9321 15.612 36.7303 15.8458 36.571 16.108C36.197 16.806 36.393 17.946 36.979 18.476C37.503 18.95 37.805 18.987 41.17 18.987H44.373V22.244C44.373 25.276 44.388 25.53 44.584 25.914C45.308 27.333 47.403 27.321 48.094 25.893C48.309 25.449 48.32 25.269 48.32 22.206V18.987H51.54C54.603 18.987 54.782 18.976 55.227 18.76C56.611 18.09 56.669 16.014 55.324 15.278C55.031 15.118 54.548 15.086 51.68 15.04L48.373 14.987L48.32 11.68C48.263 8.17598 48.24 8.01898 47.718 7.55898C47.104 7.01998 46.109 6.87998 45.441 7.23798ZM15.583 8.31698C14.15 8.60898 12.734 8.92698 12.436 9.02398C10.27 9.72598 8.291 11.679 7.632 13.765C7.243 14.995 7.205 15.819 7.455 17.568C8.642 25.86 12.492 34.019 18.385 40.736C18.895 41.317 20.069 42.529 20.993 43.43C27.628 49.895 36.074 54.26 44.784 55.725C46.658 56.04 48.175 56.08 49.124 55.838C51.376 55.266 53.456 53.338 54.225 51.111C54.529 50.233 55.395 46.056 55.515 44.894C55.768 42.431 54.453 39.49 52.431 37.998C51.592 37.379 47.797 35.48 46.921 35.24C45.885 34.957 44.234 34.995 43.129 35.327C41.888 35.701 41.155 36.173 40 37.346C38.54 38.827 38.515 38.834 37.198 38.172C32.961 36.044 26.717 29.707 24.974 25.767C24.564 24.841 24.689 24.491 25.742 23.612C26.433 23.035 27.192 22.086 27.591 21.298C28.239 20.019 28.472 17.873 28.114 16.48C27.871 15.536 25.826 11.486 25.206 10.723C24.4869 9.84843 23.5865 9.14045 22.567 8.64798C21.415 8.08298 20.645 7.89098 19.307 7.83398C18.279 7.78998 17.971 7.82998 15.583 8.31698ZM19.755 11.853C20.5596 12.0236 21.2966 12.4262 21.875 13.011C22.272 13.409 22.599 13.952 23.327 15.422L24.267 17.32L24.264 18.18C24.26 19.231 24.04 19.713 23.226 20.455C21.901 21.662 21.383 22.353 21.003 23.422C20.704 24.261 20.682 25.636 20.955 26.453C22.297 30.484 28.224 37.209 33.387 40.559C35.633 42.017 37.001 42.577 38.316 42.577C39.928 42.577 41.209 41.925 42.589 40.405C43.635 39.252 44.141 39 45.293 39.058C46.022 39.095 46.184 39.154 47.957 40.039C50.086 41.101 50.693 41.592 51.172 42.639C51.637 43.655 51.624 44.455 51.096 47.08C50.562 49.742 50.365 50.298 49.716 50.981C48.715 52.035 47.942 52.201 45.697 51.844C39.566 50.87 33.141 48.083 27.893 44.122C25.34 42.194 21.961 38.915 20.02 36.48C15.658 31.009 12.71 24.594 11.569 18.088C11.126 15.562 11.229 14.836 12.174 13.81C12.899 13.024 13.416 12.825 16.213 12.256C19.027 11.683 18.978 11.688 19.755 11.853Z" fill="#222222"/>
</svg>
