<svg width="64" height="64" viewBox="0 0 64 64" fill="none" xmlns="http://www.w3.org/2000/svg">
<path fill-rule="evenodd" clip-rule="evenodd" d="M15.583 8.31699C14.15 8.60899 12.734 8.92699 12.436 9.02399C10.27 9.72599 8.29097 11.679 7.63197 13.765C7.23597 15.016 7.20197 15.819 7.46597 17.6C8.46397 24.323 10.894 30.422 14.89 36.229C15.624 37.295 15.865 37.565 16.245 37.749C17.138 38.182 18.14 37.944 18.74 37.156C19.004 36.811 19.04 36.671 19.04 36.008V35.253L18.171 33.973C14.589 28.694 12.451 23.485 11.516 17.76C11.141 15.463 11.257 14.793 12.209 13.776C12.92 13.016 13.547 12.783 16.427 12.211C18.785 11.742 18.974 11.72 19.614 11.835C20.473 11.9782 21.2645 12.3899 21.875 13.011C22.272 13.409 22.599 13.952 23.327 15.422L24.267 17.32L24.264 18.18C24.26 19.231 24.04 19.713 23.226 20.455C21.378 22.138 20.787 23.222 20.769 24.96C20.755 26.276 21.155 27.332 22.478 29.47C23.205 30.646 23.627 31.135 24.075 31.323C24.923 31.677 26.037 31.343 26.539 30.584C26.768 30.237 26.823 30.028 26.825 29.502C26.827 28.882 26.794 28.799 26.165 27.827C25.28 26.462 24.748 25.403 24.748 25.013C24.748 24.585 24.997 24.234 25.742 23.612C26.433 23.035 27.192 22.086 27.591 21.298C28.239 20.019 28.472 17.873 28.114 16.48C27.871 15.536 25.826 11.486 25.206 10.723C24.4869 9.84844 23.5865 9.14046 22.567 8.64799C21.415 8.08299 20.645 7.89099 19.307 7.83399C18.279 7.78999 17.971 7.82999 15.583 8.31699ZM50.88 9.82399C50.516 9.96699 7.39997 53.088 7.19997 53.509C6.87197 54.199 7.08597 55.303 7.64597 55.809C8.21697 56.326 9.15397 56.453 9.85997 56.109C10.146 55.97 12.271 53.92 16.097 50.091L21.901 44.285L22.764 45.032C24.067 46.161 25.904 47.534 27.627 48.667C33.342 52.424 39.457 54.857 45.653 55.839C48.505 56.29 50.337 55.803 52.305 54.071C52.956 53.498 53.885 52.076 54.218 51.143C54.494 50.368 55.402 45.987 55.521 44.848C55.774 42.447 54.433 39.475 52.431 37.998C51.592 37.379 47.797 35.48 46.921 35.24C45.885 34.957 44.234 34.995 43.129 35.327C41.888 35.701 41.155 36.173 40 37.346C38.956 38.405 38.677 38.613 38.303 38.613C37.692 38.613 35.172 37.017 33.058 35.29L31.869 34.319L42.597 23.586C50.164 16.016 53.374 12.736 53.489 12.457C53.778 11.758 53.632 10.854 53.143 10.313C52.666 9.78599 51.579 9.55099 50.88 9.82399ZM31.84 39.435C33.66 40.811 36.012 42.156 37.117 42.453C37.835 42.646 38.994 42.603 39.794 42.354C40.792 42.044 41.635 41.456 42.589 40.405C43.635 39.252 44.141 39 45.293 39.058C46.022 39.095 46.184 39.154 47.957 40.039C50.086 41.101 50.693 41.592 51.172 42.639C51.637 43.655 51.624 44.455 51.096 47.08C50.562 49.742 50.365 50.298 49.716 50.981C48.69 52.06 47.931 52.212 45.652 51.794C38.415 50.464 31.656 47.245 25.721 42.3L24.721 41.467L26.886 39.301L29.051 37.134L30.019 37.962C30.6139 38.4678 31.2211 38.9589 31.84 39.435Z" fill="#222222"/>
</svg>
