<svg width="64" height="64" viewBox="0 0 64 64" fill="none" xmlns="http://www.w3.org/2000/svg">
<path fill-rule="evenodd" clip-rule="evenodd" d="M28.8 18.094C20.536 18.681 12.747 21.514 6.453 26.221C4.673 27.552 3.704 28.919 3.243 30.747C3.023 31.617 2.919 35.328 3.078 36.617C3.318 38.568 4.029 40.081 5.314 41.373C6.614 42.68 8.065 43.42 9.867 43.693C11.472 43.937 12.592 43.751 14.838 42.87C17.434 41.851 18.707 40.762 19.629 38.773C20.052 37.862 20.22 37.145 20.327 35.797C20.461 34.124 20.918 33.593 22.717 33.024C24.102 32.585 25.393 32.297 27.147 32.035C28.773 31.792 34.248 31.759 35.84 31.983C38.541 32.363 41.54 33.17 42.146 33.68C42.678 34.128 42.879 34.67 43.036 36.087C43.25 38.019 43.617 38.978 44.672 40.358C45.495 41.434 46.666 42.177 48.901 43.04C50.414 43.624 51.112 43.766 52.427 43.757C55.417 43.737 58.019 42.132 59.418 39.444C60.165 38.01 60.267 37.386 60.267 34.24C60.267 31.094 60.165 30.47 59.419 29.036C58.855 27.954 58.224 27.251 56.95 26.285C51.214 21.942 44.247 19.206 36.587 18.289C35.209 18.124 30.157 17.997 28.8 18.094ZM36.107 22.238C42.637 23.013 48.663 25.275 53.703 28.843C55.194 29.899 55.806 30.529 56.097 31.306C56.321 31.903 56.332 32.074 56.3 34.399L56.267 36.859L55.916 37.57C55.177 39.07 53.51 39.985 51.893 39.778C51.077 39.674 48.645 38.676 48.129 38.234C47.43 37.636 47.076 36.771 46.944 35.34C46.819 33.983 46.576 33.166 46.01 32.196C45.113 30.657 43.778 29.773 41.283 29.063C38.139 28.169 35.499 27.829 31.68 27.829C27.754 27.829 24.584 28.257 21.642 29.184C19.947 29.719 19.075 30.194 18.226 31.048C17.104 32.176 16.521 33.557 16.373 35.431C16.287 36.516 16.173 36.923 15.775 37.555C15.35 38.231 14.733 38.638 13.263 39.214C11.852 39.766 11.206 39.887 10.353 39.758C9.083 39.566 7.72 38.47 7.24 37.253C7.015 36.683 6.997 36.475 6.992 34.293C6.985 31.393 7.058 31.106 8.044 30.132C9.62 28.576 13.762 26.107 16.907 24.849C20.886 23.257 24.353 22.479 29.44 22.036C30.443 21.949 34.778 22.08 36.107 22.238Z" fill="#222222"/>
</svg>
