<svg width="64" height="64" viewBox="0 0 64 64" fill="none" xmlns="http://www.w3.org/2000/svg">
<path fill-rule="evenodd" clip-rule="evenodd" d="M32.8461 14.1129C32.1801 14.3009 31.4311 14.7559 31.1021 15.1729C30.9521 15.3639 30.0551 17.3269 29.1081 19.5359L27.3861 23.5509L26.3061 24.6269L25.2271 25.7029L20.7001 26.6129C15.9021 27.5779 15.6861 27.6449 14.9391 28.3929C14.0241 29.3099 13.7691 30.8349 14.3281 32.0469C14.5791 32.5909 15.1101 33.1729 18.0811 36.1559L21.5421 39.6319L18.0201 43.1489C16.0821 45.0839 14.3951 46.8289 14.2711 47.0279C13.9161 47.5949 13.9541 48.5189 14.3561 49.0869C14.5271 49.3289 14.8481 49.6209 15.0701 49.7359C15.5641 49.9909 16.3691 50.0079 16.8651 49.7729C17.0641 49.6779 18.8341 47.9939 20.7971 46.0289L24.3681 42.4579L27.8441 45.9189C30.8241 48.8859 31.4091 49.4209 31.9471 49.6669C32.7196 50.0186 33.5977 50.0604 34.4002 49.7837C35.2027 49.5071 35.8684 48.933 36.2601 48.1799C36.4101 47.8889 36.7991 46.1819 37.3791 43.2679L38.2671 38.8029L39.3581 37.7089L40.4491 36.6139L44.4811 34.8859C48.9531 32.9709 49.1581 32.8459 49.6701 31.7259C49.9041 31.2159 49.9591 30.9409 49.9571 30.2939C49.9541 28.8649 50.1881 29.1419 42.5231 21.4719C36.6271 15.5709 35.5991 14.5859 35.0921 14.3559C34.3661 14.0249 33.4941 13.9309 32.8461 14.1129ZM39.7291 24.3159C42.8941 27.4809 45.4621 30.0919 45.4351 30.1159C45.4091 30.1409 43.7791 30.8479 41.8131 31.6869L38.2401 33.2129L36.6101 34.8159C35.4441 35.9619 34.9071 36.5709 34.7231 36.9559C34.5501 37.3159 34.2121 38.7679 33.6971 41.3599C33.2741 43.4869 32.9001 45.2269 32.8641 45.2269C32.7591 45.2269 18.7251 31.1599 18.7781 31.1079C18.8051 31.0819 20.5551 30.7169 22.6671 30.2969C25.2341 29.7869 26.6851 29.4489 27.0441 29.2769C27.4301 29.0919 28.0331 28.5589 29.1811 27.3899L30.7801 25.7599L32.3141 22.1599C33.1581 20.1799 33.8771 18.5599 33.9111 18.5599C33.9461 18.5599 36.5641 21.1499 39.7291 24.3159Z" fill="#222222"/>
</svg>
