<svg width="64" height="64" viewBox="0 0 64 64" fill="none" xmlns="http://www.w3.org/2000/svg">
<path fill-rule="evenodd" clip-rule="evenodd" d="M20.4831 12.171C20.0131 12.36 19.531 12.796 19.2371 13.299C19.0091 13.687 18.9481 13.927 18.9481 14.442C18.9471 15.039 19.1061 15.488 20.8341 19.785L22.72 24.478V27.291L19.6841 31.876C17.5971 35.027 16.6101 36.612 16.5271 36.943C16.3101 37.802 16.6501 38.787 17.3861 39.436C18.0121 39.988 18.1621 40 24.2811 40H29.9641L29.9951 45.253L30.0271 50.507L30.3101 50.988C31.074 52.288 32.9591 52.278 33.7081 50.97L33.9731 50.507L34.0051 45.253L34.0361 40H39.7191C45.9681 40 46.0061 39.996 46.6941 39.352C47.3701 38.72 47.6861 37.721 47.4671 36.907C47.392 36.628 46.1961 34.732 44.3131 31.909L41.2801 27.36V24.478L43.1661 19.785C44.9051 15.462 45.053 15.041 45.052 14.433C45.0511 13.888 44.9961 13.682 44.7361 13.262C44.5268 12.943 44.2651 12.6617 43.9621 12.43L43.5021 12.107L32.1241 12.086C24.7921 12.073 20.6531 12.103 20.4831 12.171ZM40.2931 16.187C40.2641 16.289 39.6001 17.957 38.8161 19.893L37.3901 23.413L37.3541 25.721C37.3321 27.202 37.3611 28.188 37.4381 28.473C37.5091 28.736 38.507 30.342 39.899 32.432C41.1861 34.366 42.2401 35.971 42.2401 35.999C42.2401 36.026 37.632 36.048 32.0001 36.048C26.3681 36.048 21.7601 36.026 21.7601 35.999C21.7601 35.971 22.8141 34.366 24.1011 32.432C25.4931 30.342 26.4911 28.736 26.5621 28.473C26.6391 28.188 26.6681 27.202 26.6461 25.721L26.6101 23.413L25.1841 19.893C24.4001 17.957 23.7361 16.289 23.7071 16.187C23.6581 16.01 24.1041 16 32.0001 16C39.896 16 40.3421 16.01 40.2931 16.187Z" fill="#222222"/>
</svg>
