<svg width="64" height="64" viewBox="0 0 64 64" fill="none" xmlns="http://www.w3.org/2000/svg">
<path fill-rule="evenodd" clip-rule="evenodd" d="M30.293 8.75298C24.013 9.16098 17.971 12.306 13.909 17.282C10.669 21.251 8.82504 26.274 8.71104 31.44L8.67604 33.038L7.52604 34.412C3.80604 38.856 2.21204 42.892 2.98404 45.91C3.53504 48.064 5.10404 49.727 7.31104 50.496C9.68204 51.322 13.004 51.421 16.779 50.777L17.941 50.579L18.458 50.969C19.332 51.63 21.207 52.708 22.428 53.253C24.4993 54.1735 26.6903 54.7963 28.936 55.103C30.358 55.303 33.439 55.328 34.827 55.152C40.871 54.382 46.453 51.278 50.163 46.623C52.7874 43.338 54.4901 39.4136 55.096 35.253C55.31 33.808 55.338 30.775 55.152 29.227L55.016 28.107L55.93 26.753C58.259 23.301 59.102 20.296 58.453 17.758C57.78 15.126 55.619 13.419 52.16 12.786C51.161 12.604 47.436 12.6 46.254 12.78L45.415 12.908L44.329 12.227C40.181 9.62298 35.341 8.42498 30.293 8.75298ZM34.613 12.85C40.298 13.663 45.131 16.752 48.259 21.571C49.379 23.296 50.775 26.585 50.609 27.108C50.506 27.43 47.208 30.693 45.653 32.01C38.523 38.05 28.975 43.308 20.687 45.76C19.898 45.993 19.156 46.184 19.037 46.185C18.803 46.187 18.018 45.425 17.014 44.222C15.16 42 13.691 38.904 13.044 35.859C12.782 34.621 12.757 34.299 12.752 32.053C12.747 29.894 12.776 29.453 12.995 28.373C13.782 24.488 15.579 21.124 18.352 18.352C21.46 15.243 25.383 13.332 29.813 12.766C30.651 12.659 33.646 12.711 34.613 12.85ZM51.67 16.761C53.025 16.992 54.055 17.59 54.482 18.392C54.713 18.826 54.708 20.136 54.473 20.896C54.266 21.568 53.651 22.934 53.558 22.931C53.522 22.93 53.211 22.351 52.865 21.644C52.208 20.297 50.953 18.34 50.009 17.187L49.453 16.508L50.246 16.581C50.683 16.621 51.323 16.702 51.67 16.761ZM51.275 33.413C51.106 36.324 50.074 39.495 48.413 42.209C46.959 44.584 44.516 47.011 42.107 48.474C39.129 50.282 36.112 51.179 32.668 51.28C30.092 51.355 28.219 51.098 25.956 50.359C24.752 49.965 23.215 49.272 23.329 49.174C23.375 49.134 23.797 48.967 24.267 48.802C27.14 47.796 29.678 46.716 32.545 45.279C39.394 41.846 45.517 37.672 50.453 33.073C50.893 32.663 51.273 32.326 51.296 32.324C51.32 32.322 51.31 32.812 51.275 33.413ZM9.95804 39.601C10.747 41.901 12.163 44.496 13.698 46.453L14.2 47.093L13.633 47.182C12.805 47.311 10.418 47.197 9.49304 46.984C6.82304 46.369 6.15904 44.851 7.32504 42.029C7.83904 40.787 9.25904 38.398 9.48204 38.401C9.51804 38.401 9.73204 38.941 9.95804 39.601Z" fill="#222222"/>
</svg>
