<svg width="64" height="64" viewBox="0 0 64 64" fill="none" xmlns="http://www.w3.org/2000/svg">
<path fill-rule="evenodd" clip-rule="evenodd" d="M18.0894 11.1286C16.9638 11.4319 15.978 12.2912 15.4982 13.3866C14.9877 14.5512 15 14.0811 15 31.9998C15 49.9185 14.9877 49.4483 15.4982 50.6129C15.9885 51.7327 17.0526 52.6281 18.2151 52.9002C19.2563 53.1431 19.9337 52.9743 21.6542 52.0419C23.5433 51.0187 47.9694 36.5304 48.7883 35.9461C50.4543 34.7601 51.2099 33.1605 50.9498 31.3697C50.7513 29.9993 50.0835 28.9751 48.7883 28.0534C47.9694 27.4691 23.5433 12.9808 21.6542 11.9577C19.9039 11.0096 19.1667 10.8379 18.0894 11.1286ZM33.1094 23.0936C40.5728 27.513 46.8579 31.2604 47.0775 31.4214C47.386 31.6496 47.4756 31.7803 47.4756 32.0027C47.4756 32.2992 47.2875 32.466 46.1637 33.1683C45.148 33.8013 20.2782 48.5032 19.6965 48.8133C19.1649 49.0972 19.0155 49.1381 18.853 49.0426C18.7515 48.986 18.661 48.9078 18.5867 48.8124C18.549 48.75 18.5173 41.1839 18.5173 31.9998C18.5173 22.8156 18.549 15.2505 18.5867 15.1881C18.7326 14.9482 19.012 14.8555 19.2774 14.9579C19.4215 15.0135 25.646 18.6751 33.1094 23.0936Z" fill="#222222"/>
</svg>
