<svg width="64" height="64" viewBox="0 0 64 64" fill="none" xmlns="http://www.w3.org/2000/svg">
<path fill-rule="evenodd" clip-rule="evenodd" d="M18.0894 10.5988C16.9638 10.9021 15.978 11.7615 15.4982 12.8568C14.9877 14.0214 15 13.5513 15 31.47C15 49.3887 14.9877 48.9185 15.4982 50.0831C15.9885 51.2029 17.0526 52.0983 18.2151 52.3704C19.2563 52.6133 19.9337 52.4445 21.6542 51.5121C23.5433 50.4889 47.9694 36.0006 48.7883 35.4164C50.4543 34.2303 51.2099 32.6307 50.9498 30.8399C50.7513 29.4695 50.0835 28.4453 48.7883 27.5236C47.9694 26.9393 23.5433 12.4511 21.6542 11.4279C19.9039 10.4798 19.1667 10.3081 18.0894 10.5988Z" fill="#222222"/>
</svg>
