<svg width="64" height="64" viewBox="0 0 64 64" fill="none" xmlns="http://www.w3.org/2000/svg">
<path fill-rule="evenodd" clip-rule="evenodd" d="M30.2399 6.08397C22.2239 6.59497 14.8889 10.854 10.3569 17.629C6.34994 23.619 5.04494 31.173 6.78694 38.285C9.09994 47.722 16.7329 55.197 26.2399 57.336C29.9549 58.172 34.0539 58.169 37.8029 57.327C46.5719 55.358 53.7619 48.826 56.6509 40.203C58.1199 35.819 58.3659 30.816 57.3359 26.24C55.1539 16.54 47.4599 8.84597 37.7599 6.66397C35.4359 6.14097 32.6779 5.92797 30.2399 6.08397ZM34.5629 10.138C37.7192 10.5221 40.7561 11.5802 43.4678 13.2404C46.1795 14.9007 48.5027 17.1244 50.2799 19.761C51.7269 21.9 53.0369 25.007 53.5389 27.491C53.8689 29.121 53.9729 30.208 53.9729 32C53.9729 35.551 53.2719 38.574 51.7189 41.713C49.5309 46.135 46.1349 49.531 41.7129 51.719C38.5739 53.272 35.5509 53.973 31.9999 53.973C28.4669 53.973 25.4849 53.286 22.3299 51.743C15.6219 48.464 11.0619 42.038 10.1379 34.563C9.99494 33.4 9.99494 30.6 10.1379 29.437C10.6599 25.219 12.4239 21.11 15.0619 17.973C16.0103 16.8557 17.0524 15.8216 18.1769 14.882C21.0679 12.471 25.3269 10.657 29.2899 10.148C30.3449 10.013 33.4999 10.007 34.5629 10.138ZM26.1719 22.075C25.7039 22.187 25.2319 22.547 24.9409 23.015L24.6929 23.413L24.6599 31.627C24.6349 37.565 24.6599 39.998 24.7499 40.41C24.9829 41.488 26.0789 42.193 27.0959 41.919C27.7599 41.74 41.3299 33.552 41.6079 33.163C42.0939 32.48 42.0839 31.506 41.5829 30.803C41.3359 30.456 27.7289 22.255 27.1199 22.086C26.6749 21.962 26.6459 21.962 26.1719 22.075ZM36.0529 32C36.0529 32.029 34.3969 33.047 32.3729 34.262L28.6929 36.47V27.53L32.3729 29.738C34.3969 30.953 36.0529 31.971 36.0529 32Z" fill="#222222"/>
</svg>
