<svg width="64" height="64" viewBox="0 0 64 64" fill="none" xmlns="http://www.w3.org/2000/svg">
<path fill-rule="evenodd" clip-rule="evenodd" d="M31.506 8.73803C31.035 8.85503 30.564 9.21603 30.274 9.68203L30.027 10.08V32.587L30.274 32.985C31.226 34.516 33.537 34.165 33.909 32.433C34.067 31.694 34.07 10.929 33.911 10.242C33.66 9.15203 32.574 8.47303 31.506 8.73803ZM17.416 14.074C16.959 14.187 16.727 14.348 15.827 15.184C13.361 17.471 11.024 21.187 9.87904 24.64C9.04604 27.152 8.72004 29.261 8.72404 32.107C8.72804 35.811 9.42604 38.848 11.038 42.187C12.165 44.519 14.108 47.218 15.801 48.801C19.486 52.247 23.832 54.361 28.747 55.097C30.335 55.335 33.665 55.335 35.253 55.097C39.692 54.432 43.684 52.631 47.148 49.731C51.467 46.115 54.41 40.635 55.152 34.827C55.31 33.588 55.312 30.392 55.155 29.227C54.519 24.506 52.784 20.529 49.788 16.925C48.849 15.796 47.475 14.473 46.956 14.198C46.802 14.117 46.433 14.048 46.138 14.045C44.988 14.035 44.159 14.858 44.161 16.009C44.161 16.734 44.412 17.167 45.29 17.96C46.819 19.342 48.322 21.403 49.343 23.52C50.183 25.261 50.594 26.44 50.957 28.149C51.218 29.378 51.243 29.705 51.248 31.947C51.253 34.097 51.223 34.549 51.008 35.609C50.218 39.51 48.422 42.875 45.648 45.648C42.875 48.422 39.51 50.218 35.609 51.008C34.561 51.221 34.081 51.253 32 51.253C29.91 51.253 29.442 51.221 28.373 51.005C24.488 50.218 21.124 48.421 18.352 45.648C15.579 42.876 13.782 39.512 12.995 35.627C12.777 34.549 12.747 34.102 12.75 31.947C12.754 29.696 12.778 29.383 13.041 28.149C13.4 26.466 13.815 25.269 14.617 23.596C15.655 21.431 17.15 19.369 18.697 17.972C19.588 17.167 19.839 16.737 19.839 16.009C19.841 14.713 18.657 13.767 17.416 14.074Z" fill="#222222"/>
</svg>
