<svg width="64" height="64" viewBox="0 0 64 64" fill="none" xmlns="http://www.w3.org/2000/svg">
<path fill-rule="evenodd" clip-rule="evenodd" d="M21.333 6.08389C19.401 6.19589 18.349 6.51389 17.127 7.35489C16.014 8.12089 14.924 9.53289 14.52 10.7349C14.206 11.6649 14.103 12.4959 14.019 14.7469L13.945 16.7469H13.346C9.72904 16.7519 6.85005 19.1359 6.18305 22.6789C6.01505 23.5669 5.91805 37.7329 6.06505 39.8929C6.12605 40.8029 6.25605 41.8109 6.35405 42.1329C6.94205 44.0829 8.23605 45.6439 9.96105 46.4849C10.961 46.9719 11.687 47.1569 12.864 47.2219L13.941 47.2819L14.014 49.3999C14.095 51.7709 14.189 52.4359 14.583 53.4399C15.493 55.7589 17.459 57.3529 20 57.8319C21.09 58.0379 42.91 58.0379 44 57.8319C46.541 57.3529 48.507 55.7589 49.417 53.4399C49.809 52.4389 49.899 51.8039 49.983 49.4139L50.058 47.2819L51.136 47.2219C52.313 47.1569 53.039 46.9719 54.039 46.4849C55.764 45.6439 57.057 44.0839 57.647 42.1329C57.967 41.0739 58.048 38.4519 57.996 30.7729C57.945 23.1709 57.92 22.7049 57.48 21.3999C57.079 20.2099 55.983 18.7839 54.896 18.0389C53.725 17.2359 52.662 16.8859 51.08 16.7829L50.054 16.7159L49.98 14.7309C49.867 11.6689 49.653 10.6939 48.811 9.39289C47.818 7.85989 46.352 6.77689 44.686 6.34489C44.309 6.24689 43.28 6.12489 42.4 6.07389C40.507 5.96289 23.26 5.97189 21.333 6.08389ZM44.069 10.3089C44.706 10.6029 45.4 11.2989 45.687 11.9309C45.886 12.3689 45.917 12.6699 45.954 14.5329L45.996 16.6399H18.004L18.046 14.5329C18.093 12.1349 18.184 11.7899 18.97 11.0029C19.476 10.4979 19.899 10.2599 20.515 10.1369C20.76 10.0869 26.048 10.0549 32.267 10.0639L43.573 10.0799L44.069 10.3089ZM52.069 20.9759C52.703 21.2689 53.398 21.9639 53.691 22.5969C53.92 23.0919 53.92 23.1119 53.92 31.9999C53.92 40.8879 53.92 40.9079 53.691 41.4029C53.395 42.0419 52.698 42.7359 52.069 43.0159C51.697 43.1809 51.339 43.2389 50.635 43.2449L49.697 43.2529L49.419 42.5599C48.479 40.2149 46.545 38.6479 44 38.1679C42.91 37.9619 21.09 37.9619 20 38.1679C17.455 38.6479 15.521 40.2149 14.581 42.5599L14.303 43.2529L13.365 43.2449C12.661 43.2389 12.303 43.1809 11.931 43.0159C11.302 42.7359 10.605 42.0419 10.309 41.4029C10.08 40.9079 10.08 40.8879 10.08 31.9999C10.08 23.1119 10.08 23.0919 10.309 22.5969C10.726 21.6969 11.599 20.9869 12.515 20.8039C12.76 20.7549 21.648 20.7219 32.267 20.7309L51.573 20.7469L52.069 20.9759ZM26.172 27.4059C24.88 27.7229 24.261 29.3439 25.022 30.4209C25.193 30.6629 25.525 30.9609 25.76 31.0839C26.174 31.2999 26.348 31.3079 31.668 31.3379C35.45 31.3589 37.329 31.3319 37.731 31.2479C39.495 30.8819 39.868 28.5709 38.318 27.6079L37.92 27.3599L32.213 27.3419C29.075 27.3319 26.356 27.3609 26.172 27.4059ZM44.069 42.3089C44.703 42.6019 45.398 43.2969 45.691 43.9309C45.911 44.4069 45.92 44.5689 45.92 47.9999C45.92 51.4309 45.911 51.5929 45.691 52.0689C45.398 52.7029 44.703 53.3979 44.069 53.6909L43.573 53.9199H20.427L19.931 53.6909C19.297 53.3979 18.602 52.7029 18.309 52.0689C18.093 51.6019 18.078 51.3839 18.046 48.3439C18.024 46.2189 18.054 44.9159 18.134 44.5319C18.359 43.4489 19.281 42.4649 20.341 42.1779C20.749 42.0669 23.165 42.0429 32.213 42.0589L43.573 42.0799L44.069 42.3089Z" fill="#222222"/>
</svg>
