<svg width="64" height="64" viewBox="0 0 64 64" fill="none" xmlns="http://www.w3.org/2000/svg">
<path fill-rule="evenodd" clip-rule="evenodd" d="M36.6401 6.04397C33.1061 6.35997 30.2051 8.22797 28.5851 11.231C27.8341 12.624 27.5151 13.76 27.3591 15.594C27.3211 16.045 27.2331 16.461 27.1651 16.517C27.0951 16.574 25.5961 16.641 23.7331 16.669C20.1701 16.724 19.9011 16.762 18.9711 17.337C18.3425 17.7165 17.8114 18.2377 17.4201 18.859C16.7531 19.887 16.7221 20.086 16.6691 23.733C16.6411 25.614 16.5761 27.094 16.5171 27.165C16.4611 27.233 16.0451 27.321 15.5941 27.359C13.7561 27.515 12.6241 27.834 11.2211 28.591C9.46005 29.54 8.20505 30.796 7.25205 32.564C6.40105 34.141 6.05505 35.52 6.05505 37.333C6.05505 39.147 6.40105 40.526 7.25205 42.102C8.20505 43.87 9.46005 45.126 11.2211 46.076C12.6241 46.833 13.7561 47.152 15.5941 47.308C16.0451 47.346 16.4611 47.433 16.5171 47.502C16.5741 47.572 16.6411 49.071 16.6691 50.933C16.7241 54.497 16.7621 54.765 17.3371 55.695C17.9631 56.707 19.0231 57.522 20.1071 57.824C20.5531 57.949 23.3681 57.973 37.3331 57.973C51.2981 57.973 54.1141 57.949 54.5601 57.824C56.0021 57.421 57.3041 56.173 57.7821 54.735C58.0001 54.078 58.111 48.223 57.9271 47.04C57.6171 45.043 56.0101 43.646 53.7461 43.406C51.2081 43.136 50.3411 42.79 49.1171 41.556C47.8891 40.318 47.3601 39.047 47.3601 37.333C47.3601 35.619 47.8891 34.349 49.1171 33.111C50.3411 31.877 51.2081 31.53 53.7461 31.261C54.9831 31.13 55.8711 30.741 56.6771 29.98C57.9341 28.79 58.0701 28.14 57.9981 23.634C57.9411 20.097 57.9061 19.875 57.2471 18.859C56.8554 18.2376 56.3239 17.7164 55.6951 17.337C54.7651 16.762 54.4971 16.724 50.9331 16.669C49.0711 16.641 47.5721 16.574 47.5021 16.517C47.4331 16.461 47.3461 16.045 47.3081 15.594C47.1521 13.76 46.8331 12.624 46.0821 11.231C44.8871 9.01597 42.9911 7.40997 40.5751 6.56797C39.4491 6.17497 37.7301 5.94597 36.6401 6.04397ZM38.8761 10.19C40.4351 10.596 41.9861 11.869 42.7051 13.333C43.1051 14.149 43.2181 14.644 43.4061 16.413C43.583 18.082 44.4521 19.491 45.7351 20.19C46.5001 20.606 47.3311 20.692 50.6051 20.693C53.2261 20.693 53.6071 20.715 53.7781 20.87C53.9581 21.033 53.9731 21.276 53.9731 24.057C53.9731 26.335 53.9411 27.094 53.8401 27.177C53.7671 27.238 53.1791 27.34 52.5331 27.405C50.8561 27.574 49.9231 27.852 48.5441 28.596C46.7941 29.54 45.5371 30.8 44.5851 32.564C43.7351 34.141 43.3891 35.52 43.3891 37.333C43.3891 39.151 43.7341 40.525 44.5911 42.113C45.5381 43.87 46.7971 45.128 48.5541 46.076C49.9231 46.814 50.8601 47.094 52.5331 47.262C53.1791 47.327 53.7671 47.429 53.8401 47.49C53.9411 47.573 53.9731 48.328 53.9731 50.591C53.9731 53.226 53.9521 53.607 53.7971 53.778C53.6271 53.966 52.9771 53.973 37.3521 53.973C22.3641 53.973 21.0681 53.959 20.8881 53.797C20.7081 53.634 20.6931 53.391 20.6931 50.623C20.6921 48.975 20.6411 47.316 20.5801 46.937C20.2711 45.035 18.6261 43.641 16.4131 43.406C13.8741 43.136 13.0081 42.79 11.7831 41.556C10.5551 40.318 10.0271 39.047 10.0271 37.333C10.0271 35.619 10.5551 34.349 11.7831 33.111C13.0081 31.877 13.8741 31.53 16.4131 31.261C18.0821 31.084 19.4911 30.214 20.1901 28.931C20.6061 28.167 20.6921 27.335 20.6931 24.062C20.6931 21.441 20.7151 21.06 20.8701 20.888C21.0331 20.708 21.2761 20.693 24.0431 20.693C25.6911 20.692 27.3511 20.641 27.7301 20.58C28.6301 20.434 29.3321 20.042 30.0001 19.311C30.7691 18.472 31.1311 17.64 31.2611 16.413C31.4491 14.644 31.5611 14.149 31.9621 13.333C32.6691 11.892 34.2221 10.605 35.7451 10.195C36.5121 9.98897 38.0941 9.98597 38.8761 10.19Z" fill="#222222"/>
</svg>
