<svg width="64" height="64" viewBox="0 0 64 64" fill="none" xmlns="http://www.w3.org/2000/svg">
<path fill-rule="evenodd" clip-rule="evenodd" d="M15.733 8.73806C14.433 8.82906 13.595 9.03806 12.651 9.50606C10.918 10.3651 9.75096 11.7171 9.11496 13.6011C8.86596 14.3371 8.81096 14.7401 8.71296 16.5601C8.57596 19.0921 8.72696 22.5271 9.01696 23.4671C9.75896 25.8751 11.46 27.5771 13.867 28.3161C15.356 28.7741 21.977 28.7741 23.467 28.3161C25.874 27.5761 27.591 25.8591 28.313 23.4671C28.693 22.2091 28.794 16.3241 28.467 14.5311C28.238 13.2771 27.541 11.8941 26.65 10.9281C25.773 9.97606 24.157 9.11406 22.773 8.86006C21.961 8.71106 17.281 8.63006 15.733 8.73806ZM42.4 8.73806C41.097 8.82906 40.284 9.03306 39.3 9.51206C37.571 10.3561 36.29 11.8981 35.683 13.8671C35.222 15.3631 35.222 21.9701 35.683 23.4671C36.425 25.8751 38.127 27.5771 40.533 28.3161C42.023 28.7741 48.644 28.7741 50.133 28.3161C52.541 27.5761 54.257 25.8591 54.98 23.4671C55.36 22.2091 55.461 16.3241 55.134 14.5311C54.905 13.2771 54.208 11.8941 53.317 10.9281C52.439 9.97606 50.824 9.11406 49.44 8.86006C48.628 8.71106 43.947 8.63006 42.4 8.73806ZM22.736 12.9761C23.37 13.2691 24.064 13.9641 24.357 14.5971C24.578 15.0741 24.587 15.2361 24.587 18.6671C24.587 22.0981 24.578 22.2601 24.357 22.7361C24.064 23.3701 23.37 24.0641 22.736 24.3571C22.26 24.5781 22.098 24.5871 18.667 24.5871C15.236 24.5871 15.074 24.5781 14.597 24.3571C13.964 24.0641 13.269 23.3701 12.976 22.7361C12.76 22.2691 12.745 22.0511 12.713 19.0111C12.691 16.8861 12.721 15.5821 12.8 15.1991C13.025 14.1161 13.944 13.1351 15.008 12.8421C15.392 12.7361 16.362 12.7071 18.88 12.7241C22.067 12.7451 22.266 12.7581 22.736 12.9761ZM49.403 12.9761C50.036 13.2691 50.731 13.9641 51.024 14.5971C51.244 15.0741 51.253 15.2361 51.253 18.6671C51.253 22.0981 51.244 22.2601 51.024 22.7361C50.731 23.3701 50.036 24.0641 49.403 24.3571C48.926 24.5781 48.764 24.5871 45.333 24.5871C41.902 24.5871 41.74 24.5781 41.264 24.3571C40.63 24.0641 39.936 23.3701 39.643 22.7361C39.427 22.2691 39.411 22.0511 39.38 19.0111C39.357 16.8861 39.387 15.5821 39.467 15.1991C39.692 14.1161 40.611 13.1351 41.675 12.8421C42.058 12.7361 43.029 12.7071 45.547 12.7241C48.733 12.7451 48.932 12.7581 49.403 12.9761ZM15.733 35.4051C14.433 35.4961 13.595 35.7051 12.651 36.1731C10.918 37.0321 9.75096 38.3841 9.11496 40.2681C8.86596 41.0041 8.81096 41.4061 8.71296 43.2271C8.57596 45.7581 8.72696 49.1941 9.01696 50.1331C9.75896 52.5421 11.46 54.2431 13.867 54.9831C15.356 55.4411 21.977 55.4411 23.467 54.9831C25.874 54.2431 27.591 52.5251 28.313 50.1331C28.693 48.8761 28.794 42.9911 28.467 41.1971C28.238 39.9431 27.541 38.5611 26.65 37.5951C25.773 36.6431 24.157 35.7811 22.773 35.5271C21.961 35.3781 17.281 35.2971 15.733 35.4051ZM36.839 35.4081C35.549 35.7161 34.928 37.3441 35.689 38.4211C36.281 39.2581 36.469 39.3021 39.652 39.3411C42.991 39.3821 43.457 39.3171 44.052 38.7211C45.144 37.6291 44.6 35.7461 43.099 35.4251C42.484 35.2931 37.379 35.2791 36.839 35.4081ZM50.172 35.4081C48.578 35.7891 48.167 37.9891 49.511 38.9461C49.696 39.0781 50.146 39.2241 50.57 39.2911L51.307 39.4071V43.2931L48.027 43.3261C44.788 43.3601 44.741 43.3631 44.339 43.6131C43.693 44.0151 43.378 44.5821 43.378 45.3421C43.378 45.8751 43.429 46.0531 43.689 46.4211C43.86 46.6631 44.192 46.9611 44.427 47.0841C44.835 47.2971 45.036 47.3081 48.995 47.3391C53.775 47.3771 54.098 47.3421 54.718 46.7221C55.32 46.1201 55.36 45.7881 55.36 41.3331C55.36 38.9001 55.316 37.2451 55.242 36.9011C55.1686 36.5371 54.9893 36.2028 54.7268 35.9402C54.4642 35.6777 54.13 35.4985 53.766 35.4251C53.158 35.2941 50.698 35.2831 50.172 35.4081ZM22.736 39.6431C23.37 39.9361 24.064 40.6301 24.357 41.2641C24.578 41.7401 24.587 41.9021 24.587 45.3331C24.587 48.7641 24.578 48.9261 24.357 49.4031C24.064 50.0361 23.37 50.7311 22.736 51.0241C22.26 51.2441 22.098 51.2531 18.667 51.2531C15.236 51.2531 15.074 51.2441 14.597 51.0241C13.964 50.7311 13.269 50.0361 12.976 49.4031C12.76 48.9361 12.745 48.7171 12.713 45.6781C12.691 43.5531 12.721 42.2491 12.8 41.8651C13.025 40.7831 13.944 39.8021 15.008 39.5091C15.392 39.4031 16.362 39.3731 18.88 39.3901C22.067 39.4121 22.266 39.4251 22.736 39.6431ZM36.839 43.4091C36.371 43.5201 35.898 43.8811 35.608 44.3491L35.36 44.7471V53.9551L35.68 54.4081C36.282 55.2601 36.461 55.3021 39.652 55.3411C42.991 55.3821 43.457 55.3171 44.052 54.7211C45.144 53.6291 44.6 51.7461 43.099 51.4251C42.797 51.3601 41.832 51.3071 40.955 51.3071H39.36L39.357 48.3471C39.355 45.2111 39.29 44.6341 38.88 44.0971C38.461 43.5481 37.548 43.2401 36.839 43.4091ZM50.172 51.4081C48.883 51.7161 48.261 53.3441 49.022 54.4211C49.537 55.1491 49.954 55.2961 51.634 55.3431C53.528 55.3961 54.175 55.2651 54.719 54.7211C55.811 53.6291 55.267 51.7461 53.766 51.4251C53.158 51.2941 50.698 51.2831 50.172 51.4081Z" fill="#222222"/>
</svg>
