<svg width="64" height="64" viewBox="0 0 64 64" fill="none" xmlns="http://www.w3.org/2000/svg">
<path fill-rule="evenodd" clip-rule="evenodd" d="M30.293 8.75005C23.985 9.17505 17.971 12.306 13.909 17.282C11.288 20.492 9.53999 24.497 8.90299 28.747C8.66499 30.335 8.66499 33.665 8.90299 35.253C9.54746 39.6401 11.4046 43.7599 14.265 47.148C17.91 51.482 23.362 54.409 29.173 55.152C30.409 55.31 33.591 55.31 34.827 55.152C40.877 54.379 46.453 51.278 50.163 46.623C52.794 43.323 54.468 39.464 55.096 35.253C55.305 33.854 55.335 30.595 55.153 29.173C54.405 23.353 51.482 17.91 47.148 14.265C42.398 10.271 36.476 8.33305 30.293 8.75005ZM35.68 13.007C39.4613 13.7548 42.9327 15.6162 45.648 18.352C48.422 21.125 50.218 24.49 51.008 28.391C51.221 29.439 51.253 29.919 51.253 32C51.253 34.081 51.221 34.561 51.008 35.609C50.218 39.51 48.422 42.875 45.648 45.648C42.875 48.422 39.51 50.218 35.609 51.008C34.561 51.221 34.081 51.253 32 51.253C29.91 51.253 29.442 51.221 28.373 51.005C24.488 50.218 21.124 48.421 18.352 45.648C15.579 42.876 13.782 39.512 12.995 35.627C12.779 34.558 12.747 34.09 12.747 32C12.747 29.91 12.779 29.442 12.995 28.373C13.782 24.488 15.579 21.124 18.352 18.352C21.474 15.23 25.138 13.442 29.813 12.76C29.989 12.735 31.117 12.726 32.32 12.742C34.073 12.765 34.739 12.817 35.68 13.007Z" fill="#222222"/>
</svg>
