<svg width="64" height="64" viewBox="0 0 64 64" fill="none" xmlns="http://www.w3.org/2000/svg">
<path fill-rule="evenodd" clip-rule="evenodd" d="M30.293 8.75005C23.985 9.17505 17.971 12.306 13.909 17.282C11.288 20.492 9.53999 24.497 8.90299 28.747C8.66499 30.335 8.66499 33.665 8.90299 35.253C9.54746 39.6401 11.4046 43.7599 14.265 47.148C17.91 51.482 23.362 54.409 29.173 55.152C30.409 55.31 33.591 55.31 34.827 55.152C40.877 54.379 46.453 51.278 50.163 46.623C52.794 43.323 54.468 39.464 55.096 35.253C55.305 33.854 55.335 30.595 55.153 29.173C54.405 23.353 51.482 17.91 47.148 14.265C42.398 10.271 36.476 8.33305 30.293 8.75005ZM35.68 13.007C39.4613 13.7548 42.9327 15.6162 45.648 18.352C48.422 21.125 50.218 24.49 51.008 28.391C51.221 29.439 51.253 29.919 51.253 32C51.253 34.081 51.221 34.561 51.008 35.609C50.218 39.51 48.422 42.875 45.648 45.648C42.875 48.422 39.51 50.218 35.609 51.008C34.561 51.221 34.081 51.253 32 51.253C29.91 51.253 29.442 51.221 28.373 51.005C24.488 50.218 21.124 48.421 18.352 45.648C15.579 42.876 13.782 39.512 12.995 35.627C12.779 34.558 12.747 34.09 12.747 32C12.747 29.91 12.779 29.442 12.995 28.373C13.782 24.488 15.579 21.124 18.352 18.352C21.474 15.23 25.138 13.442 29.813 12.76C29.989 12.735 31.117 12.726 32.32 12.742C34.073 12.765 34.739 12.817 35.68 13.007ZM31.307 22.044C27.772 22.36 24.872 24.228 23.252 27.231C22.401 28.808 22.055 30.186 22.055 32C22.055 33.817 22.401 35.192 23.257 36.779C24.207 38.54 25.463 39.795 27.231 40.748C28.808 41.599 30.186 41.945 32 41.945C33.814 41.945 35.192 41.599 36.769 40.748C38.537 39.795 39.793 38.54 40.743 36.779C41.599 35.192 41.945 33.817 41.945 32C41.945 30.186 41.599 28.808 40.748 27.231C39.553 25.016 37.658 23.41 35.241 22.568C34.116 22.175 32.396 21.946 31.307 22.044ZM33.542 26.19C34.529 26.447 35.398 26.964 36.217 27.783C37.443 29.01 37.973 30.282 37.973 32C37.973 33.718 37.443 34.99 36.217 36.217C34.99 37.443 33.718 37.973 32 37.973C30.282 37.973 29.01 37.443 27.783 36.217C26.557 34.99 26.027 33.718 26.027 32C26.027 30.282 26.557 29.01 27.783 27.783C28.585 26.982 29.466 26.45 30.412 26.195C31.179 25.989 32.761 25.986 33.542 26.19Z" fill="#222222"/>
</svg>
