<svg width="64" height="64" viewBox="0 0 64 64" fill="none" xmlns="http://www.w3.org/2000/svg">
<path fill-rule="evenodd" clip-rule="evenodd" d="M30.24 14.082C18.892 14.791 9.16898 23.104 6.66398 34.24C6.13198 36.603 6.04698 37.643 6.03698 41.92L6.02698 45.92L6.27398 46.318C7.22598 47.849 9.53698 47.498 9.90898 45.766C9.98098 45.429 10.027 43.886 10.027 41.779C10.027 39.888 10.077 37.934 10.138 37.437C10.66 33.219 12.424 29.11 15.062 25.973C17.186 23.448 19.429 21.684 22.33 20.26C25.473 18.717 28.462 18.027 32 18.027C35.533 18.027 38.515 18.714 41.67 20.257C47.229 22.975 51.345 27.856 53.122 33.838C53.819 36.184 53.892 36.862 53.963 41.6C54.026 45.88 54.029 45.924 54.274 46.318C55.251 47.889 57.546 47.494 57.925 45.69C58.135 44.688 57.991 38.106 57.72 36.313C57.111 32.29 55.77 28.798 53.579 25.531C48.405 17.815 39.602 13.497 30.24 14.082ZM30.613 22.087C24.285 22.547 18.643 26.394 15.839 32.16C14.34 35.241 13.919 37.775 13.992 43.271C14.025 45.826 14.035 45.934 14.274 46.318C15.104 47.653 17.087 47.597 17.772 46.219C17.954 45.851 17.979 45.444 18.039 41.867C18.109 37.645 18.152 37.249 18.743 35.52C19.3192 33.8246 20.2165 32.256 21.386 30.9C23.391 28.551 26.123 26.939 29.227 26.274C29.908 26.128 30.598 26.08 32 26.08C34.571 26.08 36.059 26.414 38.213 27.475C39.383 28.052 40.063 28.502 41.1 29.386C43.41 31.358 45.008 34.036 45.713 37.12C45.861 37.764 45.909 38.7 45.961 41.92C46.026 45.863 46.03 45.926 46.274 46.318C47.226 47.849 49.537 47.498 49.909 45.766C50.052 45.099 50.06 40.703 49.922 38.815C49.741 36.338 49.207 34.324 48.159 32.16C44.93 25.494 38.054 21.546 30.613 22.087ZM31.307 30.044C28.898 30.259 26.788 31.191 25.083 32.792C23.68 34.11 22.549 36.224 22.167 38.245C22.069 38.762 22.027 40.036 22.027 42.453C22.027 45.894 22.029 45.923 22.274 46.318C23.226 47.849 25.537 47.498 25.909 45.766C25.979 45.437 26.027 43.987 26.027 42.15C26.027 38.759 26.082 38.349 26.693 37.182C26.887 36.813 27.357 36.21 27.783 35.783C29.01 34.557 30.282 34.027 32 34.027C32.503 34.027 33.197 34.1 33.542 34.19C35.349 34.661 36.939 36.111 37.672 37.958C37.899 38.529 37.914 38.752 37.969 42.24C38.026 45.855 38.031 45.927 38.274 46.318C39.251 47.889 41.549 47.494 41.923 45.691C42.112 44.78 41.999 38.929 41.772 37.934C40.977 34.439 38.577 31.731 35.241 30.568C34.116 30.175 32.396 29.946 31.307 30.044Z" fill="#222222"/>
</svg>
