<svg width="64" height="64" viewBox="0 0 64 64" fill="none" xmlns="http://www.w3.org/2000/svg">
<path fill-rule="evenodd" clip-rule="evenodd" d="M50.172 6.07503C49.705 6.18603 49.232 6.54703 48.941 7.01503C48.696 7.40903 48.693 7.45603 48.6399 11.485L48.587 15.557L47.68 14.753C44.206 11.675 40.2699 9.75903 35.8919 9.01403C33.6189 8.62803 30.3789 8.62803 28.1069 9.01503C17.3739 10.846 9.32295 19.864 8.75995 30.688C8.41795 37.24 10.4899 42.963 15.0399 48.038C16.2789 49.419 19.069 51.522 21.12 52.619C25.476 54.95 30.93 55.82 35.893 54.977C42.0379 53.934 47.6709 50.357 51.1399 45.295C51.7 44.479 51.778 44.299 51.818 43.751C51.853 43.267 51.813 43.033 51.638 42.69C51.1749 41.782 49.824 41.371 48.956 41.875C48.753 41.993 48.3559 42.399 48.075 42.778C45.6679 46.015 43.7819 47.678 40.8349 49.162C38.8139 50.18 36.5919 50.89 34.4529 51.202C33.2909 51.372 30.6319 51.348 29.3649 51.158C26.5503 50.7408 23.8527 49.7441 21.443 48.231C20.6259 47.716 19.339 46.651 18.3949 45.709C15.2429 42.565 13.3379 38.686 12.7939 34.307C12.6289 32.977 12.7199 29.711 12.9539 28.543C13.3589 26.52 13.8149 25.167 14.6629 23.467C17.7939 17.189 23.7129 13.228 30.7459 12.704C36.2369 12.295 42.2609 14.625 45.9129 18.57L46.5449 19.253L41.638 19.307L36.7309 19.36L36.2979 19.646C35.6579 20.07 35.3779 20.589 35.3779 21.351C35.3779 21.874 35.4299 22.054 35.6889 22.421C35.8599 22.663 36.1919 22.961 36.4269 23.084C36.8449 23.302 36.994 23.307 43.672 23.337C48.42 23.358 50.665 23.331 51.068 23.248C51.853 23.085 52.41 22.537 52.575 21.766C52.732 21.036 52.7339 8.25403 52.5779 7.57503C52.5049 7.28533 52.3814 7.01079 52.213 6.76403C51.795 6.21503 50.881 5.90703 50.172 6.07503Z" fill="#222222"/>
</svg>
