<svg width="64" height="64" viewBox="0 0 64 64" fill="none" xmlns="http://www.w3.org/2000/svg">
<path fill-rule="evenodd" clip-rule="evenodd" d="M31.492 16.76C30.856 16.943 6.9 30.312 6.545 30.682C5.85 31.405 5.855 32.6 6.555 33.329C6.941 33.731 30.918 47.077 31.569 47.252C32.393 47.474 33.378 47.013 33.772 46.219C33.959 45.843 33.977 45.437 34.027 40.625L34.08 35.436L44.533 41.251C50.283 44.449 55.203 47.134 55.467 47.216C56.495 47.539 57.637 46.892 57.903 45.836C58.074 45.156 58.08 19.032 57.909 18.234C57.671 17.124 56.534 16.449 55.467 16.784C55.203 16.866 50.283 19.551 44.533 22.749L34.08 28.564L34.027 23.375C33.977 18.563 33.959 18.157 33.772 17.781C33.528 17.289 33.054 16.915 32.48 16.758C31.991 16.624 31.961 16.624 31.492 16.76ZM29.948 36.948L29.92 41.896L21.044 36.975C16.162 34.268 12.168 32.029 12.168 32C12.168 31.971 16.162 29.732 21.044 27.025L29.92 22.104L29.948 27.052C29.963 29.773 29.963 34.227 29.948 36.948ZM53.948 36.948L53.92 41.896L45.044 36.975C40.162 34.268 36.168 32.029 36.168 32C36.168 31.971 40.162 29.732 45.044 27.025L53.92 22.104L53.948 27.052C53.963 29.773 53.963 34.227 53.948 36.948Z" fill="#222222"/>
</svg>
