<svg width="64" height="64" viewBox="0 0 64 64" fill="none" xmlns="http://www.w3.org/2000/svg">
<path fill-rule="evenodd" clip-rule="evenodd" d="M15.413 11.41C14.012 11.532 13.054 11.861 11.934 12.604C10.433 13.601 9.36801 15.126 8.89201 16.96C8.75001 17.508 8.71201 18.144 8.71201 20C8.71201 21.856 8.75001 22.492 8.89201 23.04C9.60101 25.773 11.579 27.75 14.293 28.437C15.063 28.632 15.74 28.64 32 28.64C48.26 28.64 48.937 28.632 49.707 28.437C52.421 27.749 54.403 25.768 55.107 23.04C55.248 22.494 55.286 21.849 55.286 20C55.286 18.151 55.248 17.506 55.107 16.96C54.412 14.266 52.514 12.347 49.76 11.555C49.168 11.384 47.9 11.369 32.693 11.353C23.659 11.343 15.883 11.369 15.413 11.41ZM49.471 15.658C50.056 15.97 50.697 16.611 51.009 17.196C51.242 17.633 51.253 17.758 51.253 20C51.253 22.242 51.242 22.367 51.009 22.804C50.697 23.389 50.056 24.03 49.471 24.342L49.013 24.587H14.987L14.529 24.342C13.944 24.03 13.303 23.389 12.991 22.804C12.764 22.38 12.744 22.195 12.712 20.254C12.691 18.967 12.722 17.995 12.794 17.73C13.041 16.81 14.079 15.736 14.972 15.476C15.17 15.418 22.205 15.385 32.16 15.396L49.013 15.413L49.471 15.658ZM15.413 35.41C14.012 35.532 13.054 35.861 11.934 36.604C10.433 37.601 9.36801 39.126 8.89201 40.96C8.75001 41.508 8.71201 42.144 8.71201 44C8.71201 45.856 8.75001 46.492 8.89201 47.04C9.60101 49.773 11.579 51.75 14.293 52.437C15.063 52.632 15.74 52.64 32 52.64C48.26 52.64 48.937 52.632 49.707 52.437C52.421 51.749 54.403 49.768 55.107 47.04C55.248 46.494 55.286 45.849 55.286 44C55.286 42.151 55.248 41.506 55.107 40.96C54.412 38.266 52.514 36.347 49.76 35.555C49.168 35.384 47.9 35.369 32.693 35.353C23.659 35.343 15.883 35.369 15.413 35.41ZM49.471 39.658C50.056 39.97 50.697 40.611 51.009 41.196C51.242 41.633 51.253 41.758 51.253 44C51.253 46.242 51.242 46.367 51.009 46.804C50.697 47.389 50.056 48.03 49.471 48.342L49.013 48.587H14.987L14.529 48.342C13.944 48.03 13.303 47.389 12.991 46.804C12.764 46.38 12.744 46.195 12.712 44.254C12.691 42.967 12.722 41.995 12.794 41.73C13.041 40.81 14.079 39.736 14.972 39.476C15.17 39.418 22.205 39.385 32.16 39.396L49.013 39.413L49.471 39.658Z" fill="#222222"/>
</svg>
