<svg width="64" height="64" viewBox="0 0 64 64" fill="none" xmlns="http://www.w3.org/2000/svg">
<path fill-rule="evenodd" clip-rule="evenodd" d="M13.173 12.196C12.771 12.386 12.315 12.869 12.167 13.26C11.881 14.017 12.153 15.087 12.75 15.557C13.189 15.903 13.597 15.977 15.415 16.043C26.257 16.438 36.375 22.162 42.396 31.307C45.826 36.517 47.733 42.441 47.957 48.585C48.023 50.403 48.097 50.811 48.443 51.25C48.932 51.871 50.027 52.128 50.805 51.803C51.28 51.604 51.814 50.965 51.904 50.488C51.945 50.269 51.949 49.272 51.914 48.272C51.648 40.767 48.96 33.269 44.343 27.147C41.285 23.092 37.243 19.523 32.907 17.047C28.424 14.488 23.946 13.011 18.4 12.262C17.931 12.199 16.635 12.124 15.52 12.096C13.91 12.056 13.427 12.076 13.173 12.196ZM13.479 27.509C12.236 27.828 11.634 29.391 12.337 30.475C12.809 31.203 13.221 31.362 14.909 31.469C16.521 31.571 17.34 31.691 18.59 32.009C25.098 33.662 30.338 38.902 31.991 45.41C32.301 46.629 32.422 47.454 32.53 49.094C32.642 50.785 32.8 51.193 33.525 51.663C34.411 52.237 35.714 51.931 36.284 51.014C36.514 50.644 36.532 50.51 36.514 49.28C36.386 40.225 30.221 31.779 21.526 28.743C19.4213 27.9988 17.2174 27.5725 14.987 27.478C14.341 27.448 13.663 27.462 13.479 27.509ZM15.387 43.045C14.552 43.27 14.05 43.562 13.39 44.206C12.519 45.056 12.127 45.95 12.072 47.216C12.022 48.34 12.192 49.003 12.749 49.867C13.3276 50.7782 14.2089 51.4562 15.238 51.782C15.67 51.925 16.046 51.961 16.784 51.928C18.05 51.873 18.944 51.481 19.794 50.61C20.453 49.936 20.731 49.448 20.961 48.568C21.837 45.201 18.747 42.14 15.387 43.045ZM16.96 47.04C17.217 47.297 17.227 47.45 17.007 47.763C16.811 48.044 16.467 48.069 16.195 47.823C15.93 47.583 15.95 47.194 16.237 46.993C16.55 46.773 16.703 46.783 16.96 47.04Z" fill="#222222"/>
</svg>
