<svg width="64" height="64" viewBox="0 0 64 64" fill="none" xmlns="http://www.w3.org/2000/svg">
<path fill-rule="evenodd" clip-rule="evenodd" d="M40.46 7.78298C39.4339 7.93563 38.4523 8.30591 37.581 8.86898C36.904 9.31398 34.177 11.987 23.082 23.082C8.42201 37.742 8.58601 37.566 8.10501 39.125C7.40601 41.386 7.67701 43.417 8.93201 45.333C9.79601 46.651 17.349 54.204 18.667 55.068C20.583 56.323 22.614 56.594 24.875 55.895C26.434 55.414 26.258 55.578 40.918 40.918C51.987 29.849 54.686 27.095 55.128 26.422C56.307 24.628 56.589 22.336 55.888 20.249C55.422 18.859 54.734 18.027 50.621 13.884C45.955 9.18298 44.984 8.40198 43.253 7.96398C42.429 7.75598 41.164 7.67298 40.46 7.78298ZM42.969 12.115C43.269 12.287 45.1 14.035 47.583 16.52C52.223 21.163 52.267 21.221 52.266 22.554C52.264 24.034 53.23 22.973 38.102 38.102C22.973 53.23 24.034 52.264 22.554 52.266C21.217 52.267 21.168 52.229 16.47 47.53C11.771 42.832 11.733 42.783 11.734 41.446C11.736 40.173 11.927 39.889 14.611 37.185L16.951 34.827L19.275 37.139C20.846 38.702 21.704 39.479 21.92 39.535C23.204 39.871 24.39 39.111 24.508 37.876C24.601 36.909 24.471 36.719 22.041 34.263L19.795 31.993L22.136 29.651L24.476 27.309L26.771 29.588C29.239 32.039 29.446 32.182 30.36 32.079C31.231 31.981 31.981 31.231 32.079 30.36C32.182 29.446 32.039 29.239 29.588 26.771L27.309 24.476L29.651 22.136L31.993 19.795L34.263 22.041C36.719 24.471 36.909 24.601 37.876 24.508C38.885 24.411 39.604 23.604 39.604 22.566C39.604 22.264 39.544 21.899 39.471 21.755C39.397 21.611 38.322 20.472 37.082 19.223L34.827 16.953L37.173 14.625C38.623 13.186 39.7 12.205 39.992 12.057C40.4551 11.8223 40.9687 11.7048 41.4877 11.715C42.0068 11.7251 42.5154 11.8624 42.969 12.115Z" fill="#222222"/>
</svg>
