<svg width="64" height="64" viewBox="0 0 64 64" fill="none" xmlns="http://www.w3.org/2000/svg">
<path fill-rule="evenodd" clip-rule="evenodd" d="M13.3331 6.0809C11.8841 6.1679 10.8991 6.3809 10.1031 6.7799C8.0051 7.8289 6.6511 9.6329 6.1751 12.0119C6.0051 12.8639 5.9111 47.4099 6.0721 50.1869C6.1881 52.2059 6.3471 53.0249 6.7961 53.9139C7.8611 56.0229 9.6291 57.3489 12.0121 57.8249C12.4731 57.9169 17.3881 57.9619 30.4531 57.9949C48.6351 58.0399 51.4391 57.9959 52.7471 57.6459C55.0241 57.0359 57.0361 55.0239 57.6461 52.7469C57.9801 51.4989 58.0401 48.5689 58.0021 35.2529C57.9601 20.7979 58.0141 21.8509 57.2401 20.2109C56.7961 19.2679 56.2081 18.5669 51.3431 13.1729C46.7941 8.1289 45.9971 7.3419 44.8901 6.7949C43.2581 5.9899 44.3491 6.0419 28.6931 6.0199C20.9791 6.0099 14.0671 6.0369 13.3331 6.0809ZM42.8241 10.2479C43.1921 10.3859 43.6081 10.6579 43.9251 10.9679C45.2421 12.2559 53.4621 21.5249 53.6801 21.9659L53.9201 22.4529V51.5729L53.6911 52.0689C53.3971 52.7059 52.7011 53.3999 52.0691 53.6869C51.6311 53.8859 51.3301 53.9169 49.4801 53.9539L47.3861 53.9949L47.3311 48.0379C47.2951 44.2549 47.2301 41.8289 47.1521 41.3939C46.7271 39.0209 45.3811 37.2069 43.2481 36.1299C41.7641 35.3809 39.9381 35.2679 30.4531 35.3359C23.1921 35.3889 22.6941 35.4179 21.4001 35.8529C19.6061 36.4579 17.7911 38.2729 17.1871 40.0669C16.7661 41.3159 16.7261 41.9269 16.6691 48.0379L16.6141 53.9949L14.5201 53.9539C12.6701 53.9169 12.3691 53.8859 11.9311 53.6869C11.2991 53.3999 10.6031 52.7059 10.3091 52.0689L10.0801 51.5729V12.4269L10.3091 11.9309C10.7261 11.0289 11.6001 10.3189 12.5151 10.1379C12.7601 10.0899 19.5461 10.0449 27.5961 10.0379C42.1641 10.0269 42.2351 10.0279 42.8241 10.2479ZM23.5061 16.7419C22.2161 17.0489 21.5951 18.6769 22.3561 19.7539C22.5271 19.9959 22.8591 20.2949 23.0931 20.4169C23.5141 20.6369 23.6411 20.6399 31.6741 20.6699C37.3861 20.6909 40.0011 20.6639 40.4041 20.5799C42.4061 20.1649 42.4821 17.2619 40.5031 16.7639C39.9451 16.6229 24.0881 16.6029 23.5061 16.7419ZM41.4031 39.6429C42.0361 39.9359 42.7311 40.6299 43.0241 41.2639C43.2491 41.7499 43.2541 41.8779 43.2851 47.8669L43.3161 53.9729H20.6841L20.7151 47.8669C20.7461 41.8779 20.7511 41.7499 20.9761 41.2639C21.3921 40.3639 22.2641 39.6549 23.1811 39.4699C23.4261 39.4199 27.5151 39.3869 32.2671 39.3969C40.8641 39.4129 40.9091 39.4139 41.4031 39.6429Z" fill="#222222"/>
</svg>
