<svg width="64" height="64" viewBox="0 0 64 64" fill="none" xmlns="http://www.w3.org/2000/svg">
<path fill-rule="evenodd" clip-rule="evenodd" d="M23.506 6.07194C23.035 6.18894 22.564 6.54994 22.274 7.01494L22.027 7.41294L21.973 14.0799L21.92 20.7469L21.676 21.0889C21.5077 21.3102 21.3103 21.5077 21.089 21.6759L20.747 21.9199L14.072 21.9729L7.397 22.0269L6.965 22.3129C6.325 22.7369 6.044 23.2559 6.044 24.0179C6.044 24.5409 6.097 24.7209 6.356 25.0869C6.527 25.3289 6.859 25.6279 7.093 25.7509C7.513 25.9699 7.632 25.9729 14.24 25.9729C20.46 25.9729 21.008 25.9589 21.6 25.7769C23.605 25.1629 25.112 23.6739 25.771 21.6529C25.945 21.1209 25.966 20.4689 26.001 14.6299C26.043 7.79694 26.019 7.38294 25.549 6.76694C25.121 6.20594 24.211 5.89694 23.506 6.07194ZM39.506 6.07494C39.038 6.18694 38.565 6.54694 38.274 7.01494L38.027 7.41294V14.1869C38.027 20.4589 38.041 21.0069 38.223 21.5999C38.837 23.6049 40.326 25.1119 42.347 25.7709C42.879 25.9449 43.531 25.9659 49.364 26.0009C56.627 26.0449 56.737 26.0369 57.385 25.3879C58.448 24.3249 57.948 22.4609 56.503 22.0969C56.159 22.0099 54.14 21.9729 49.738 21.9729C42.698 21.9729 43.079 22.0149 42.403 21.1789L42.08 20.7799L42.027 14.1499C41.977 7.92294 41.961 7.49494 41.772 7.11394C41.528 6.62294 41.054 6.24794 40.48 6.09094C40.007 5.96194 39.981 5.96094 39.506 6.07494ZM7.506 38.0719C6.212 38.3929 5.595 40.0099 6.356 41.0869C6.527 41.3289 6.859 41.6279 7.093 41.7509C7.509 41.9679 7.687 41.9749 14.133 42.0269L20.747 42.0799L21.089 42.3239C21.277 42.4589 21.541 42.7229 21.676 42.9109L21.92 43.2529L21.973 49.9199L22.027 56.5869L22.274 56.9849C23.241 58.5399 25.549 58.1609 25.917 56.3869C26.005 55.9649 26.029 53.9439 26.001 49.3639C25.966 43.5309 25.945 42.8789 25.771 42.3469C25.12 40.3529 23.648 38.8809 21.653 38.2289C21.118 38.0539 20.49 38.0349 14.453 38.0129C10.816 37.9989 7.69 38.0259 7.506 38.0719ZM43.147 38.0849C40.879 38.3829 38.995 40.0069 38.265 42.2929C38.029 43.0339 38.027 43.0969 38.027 49.8129V56.5869L38.274 56.9849C39.104 58.3199 41.087 58.2639 41.772 56.8859C41.961 56.5049 41.977 56.0769 42.027 49.8499L42.08 43.2199L42.403 42.8209C43.079 41.9859 42.706 42.0269 49.673 42.0269C53.805 42.0269 56.067 41.9869 56.433 41.9089C58.41 41.4849 58.463 38.5899 56.503 38.0969C55.936 37.9539 44.22 37.9429 43.147 38.0849Z" fill="#222222"/>
</svg>
