<svg width="64" height="64" viewBox="0 0 64 64" fill="none" xmlns="http://www.w3.org/2000/svg">
<path fill-rule="evenodd" clip-rule="evenodd" d="M11.1471 6.08494C8.8791 6.38294 6.9951 8.00694 6.2651 10.2929C6.0291 11.0339 6.0271 11.0969 6.0271 17.8129V24.5869L6.2741 24.9849C7.1041 26.3199 9.0871 26.2639 9.7721 24.8859C9.9611 24.5049 9.9771 24.0769 10.0271 17.8499L10.0801 11.2199L10.4031 10.8209C11.0791 9.98594 10.7061 10.0269 17.6731 10.0269C21.8051 10.0269 24.0671 9.98694 24.4331 9.90894C26.4101 9.48494 26.4631 6.58994 24.5031 6.09694C23.9361 5.95394 12.2201 5.94294 11.1471 6.08494ZM39.5061 6.07194C38.2121 6.39294 37.5951 8.00994 38.3561 9.08694C38.5271 9.32894 38.8591 9.62794 39.0931 9.75094C39.5091 9.96794 39.6871 9.97494 46.1331 10.0269L52.7471 10.0799L53.0891 10.3239C53.2771 10.4589 53.5411 10.7229 53.6761 10.9109L53.9201 11.2529L53.9731 17.9199L54.0271 24.5869L54.2741 24.9849C55.2411 26.5399 57.5491 26.1609 57.9171 24.3869C58.0051 23.9649 58.0291 21.9439 58.0011 17.3639C57.9661 11.5309 57.9451 10.8789 57.7711 10.3469C57.1201 8.35294 55.6481 6.88094 53.6531 6.22894C53.1181 6.05394 52.4901 6.03494 46.4531 6.01294C42.8161 5.99894 39.6901 6.02594 39.5061 6.07194ZM31.5061 22.0719C31.0351 22.1889 30.5641 22.5499 30.2741 23.0149C30.0311 23.4059 30.0261 23.4769 29.9931 26.6859L29.9601 29.9599L26.6781 29.9929L23.3971 30.0269L22.9651 30.3129C22.3251 30.7369 22.0441 31.2559 22.0441 32.0179C22.0441 32.5409 22.0971 32.7209 22.3561 33.0869C22.9601 33.9429 23.0831 33.9689 26.7401 34.0069L29.9601 34.0409L29.9931 37.3139C30.0261 40.5229 30.0311 40.5939 30.2741 40.9849C31.2261 42.5159 33.5371 42.1649 33.9091 40.4329C33.9791 40.1069 34.0271 38.6899 34.0271 36.9549V34.0269H36.9551C40.3831 34.0269 40.8081 33.9649 41.3871 33.3859C42.4481 32.3249 41.9471 30.4609 40.5031 30.0969C40.1891 30.0179 38.9341 29.9729 37.0191 29.9729H34.0271L34.0241 27.0129C34.0211 23.8779 33.9561 23.3009 33.5471 22.7639C33.1211 22.2059 32.2091 21.8969 31.5061 22.0719ZM7.5061 38.0749C7.0381 38.1869 6.5651 38.5469 6.2741 39.0149L6.0271 39.4129V46.1869C6.0271 52.4589 6.0411 53.0069 6.2231 53.5999C6.8371 55.6049 8.3261 57.1119 10.3471 57.7709C10.8791 57.9449 11.5311 57.9659 17.3641 58.0009C24.6271 58.0449 24.7371 58.0369 25.3851 57.3879C26.4481 56.3249 25.9481 54.4609 24.5031 54.0969C24.1591 54.0099 22.1401 53.9729 17.7381 53.9729C10.6981 53.9729 11.0791 54.0149 10.4031 53.1789L10.0801 52.7799L10.0271 46.1499C9.9771 39.9229 9.9611 39.4949 9.7721 39.1139C9.5281 38.6229 9.0541 38.2479 8.4801 38.0909C8.0071 37.9619 7.9811 37.9609 7.5061 38.0749ZM55.5061 38.0719C55.0351 38.1889 54.5641 38.5499 54.2741 39.0149L54.0271 39.4129L53.9731 46.0799L53.9201 52.7469L53.6761 53.0889C53.5078 53.3102 53.3104 53.5077 53.0891 53.6759L52.7471 53.9199L46.0721 53.9729L39.3971 54.0269L38.9651 54.3129C38.3251 54.7369 38.0441 55.2559 38.0441 56.0179C38.0441 56.5409 38.0971 56.7209 38.3561 57.0869C38.5271 57.3289 38.8591 57.6279 39.0931 57.7509C39.5131 57.9699 39.6321 57.9729 46.2401 57.9729C52.4601 57.9729 53.0081 57.9589 53.6001 57.7769C55.6051 57.1629 57.1121 55.6739 57.7711 53.6529C57.9451 53.1209 57.9661 52.4689 58.0011 46.6299C58.0431 39.7969 58.0191 39.3829 57.5491 38.7669C57.1211 38.2059 56.2111 37.8969 55.5061 38.0719Z" fill="#222222"/>
</svg>
