<svg width="64" height="64" viewBox="0 0 64 64" fill="none" xmlns="http://www.w3.org/2000/svg">
<path fill-rule="evenodd" clip-rule="evenodd" d="M11.147 6.08298C8.87398 6.38598 6.99398 8.00798 6.26498 10.293L6.02698 11.04V32.587L6.27398 32.985C7.10398 34.32 9.08698 34.264 9.77198 32.886C9.96398 32.498 9.97598 32.002 10.027 21.85L10.08 11.22L10.403 10.821C10.58 10.602 10.892 10.333 11.096 10.224C11.454 10.032 12.149 10.026 32.123 10.053L52.78 10.08L53.179 10.403C53.398 10.58 53.667 10.891 53.775 11.094C53.966 11.45 53.973 12.201 53.973 32C53.973 51.799 53.966 52.55 53.775 52.906C53.667 53.109 53.398 53.42 53.179 53.597L52.78 53.92L42.089 53.973L31.398 54.027L30.965 54.313C30.325 54.737 30.044 55.256 30.044 56.018C30.044 56.541 30.097 56.721 30.356 57.087C30.527 57.329 30.859 57.628 31.093 57.751C31.518 57.972 31.575 57.973 42.24 57.973C52.343 57.973 52.997 57.962 53.6 57.777C54.5884 57.4826 55.4879 56.9465 56.2172 56.2172C56.9465 55.4879 57.4826 54.5884 57.777 53.6C57.965 52.988 57.973 52.044 57.973 32C57.973 11.956 57.965 11.012 57.777 10.4C57.163 8.39698 55.692 6.90698 53.653 6.22398C53.092 6.03598 52.173 6.02698 32.427 6.01298C21.075 6.00498 11.499 6.03598 11.147 6.08298ZM45.227 16.168C44.988 16.27 42.535 18.645 38.427 22.75L32 29.173V25.41C32 21.444 31.973 21.194 31.489 20.659C31.011 20.13 29.967 19.9 29.26 20.167C28.852 20.321 28.378 20.781 28.2 21.197C27.983 21.703 27.983 34.297 28.2 34.803C28.378 35.219 28.852 35.679 29.26 35.833C29.46 35.909 31.71 35.947 36 35.947C40.29 35.947 42.54 35.909 42.74 35.833C43.148 35.679 43.622 35.219 43.8 34.803C44.108 34.083 43.893 33.01 43.341 32.511C42.806 32.027 42.556 32 38.591 32H34.829L41.299 25.52C48.37 18.438 48.115 18.74 47.952 17.65C47.891 17.242 47.781 17.051 47.374 16.644C46.717 15.987 46.015 15.831 45.227 16.168ZM11.147 38.08C8.86298 38.396 6.99398 40.009 6.26498 42.293C6.03198 43.022 6.02698 43.161 6.02698 48C6.02698 52.512 6.04398 53.018 6.22298 53.6C6.51738 54.5884 7.05344 55.4879 7.78272 56.2172C8.51201 56.9465 9.41152 57.4826 10.4 57.777C10.982 57.956 11.488 57.973 16 57.973C20.512 57.973 21.018 57.956 21.6 57.777C22.5884 57.4826 23.4879 56.9465 24.2172 56.2172C24.9465 55.4879 25.4826 54.5884 25.777 53.6C25.956 53.018 25.973 52.512 25.973 48C25.973 43.488 25.956 42.982 25.777 42.4C25.162 40.394 23.665 38.88 21.653 38.231C21.134 38.064 20.532 38.039 16.427 38.017C13.875 38.003 11.499 38.032 11.147 38.08ZM20.906 42.225C21.109 42.333 21.42 42.602 21.597 42.821L21.92 43.22V52.78L21.597 53.179C20.937 53.995 21.089 53.973 16 53.973C10.911 53.973 11.063 53.995 10.403 53.179L10.08 52.78V43.22L10.403 42.821C11.063 42.005 10.911 42.027 16 42.027C20.215 42.027 20.563 42.041 20.906 42.225Z" fill="#222222"/>
</svg>
