<svg width="64" height="64" viewBox="0 0 64 64" fill="none" xmlns="http://www.w3.org/2000/svg">
<path fill-rule="evenodd" clip-rule="evenodd" d="M11.147 6.08494C8.87898 6.38294 6.99498 8.00694 6.26498 10.2929C6.02898 11.0339 6.02698 11.0969 6.02698 17.8129V24.5869L6.27398 24.9849C7.10398 26.3199 9.08698 26.2639 9.77198 24.8859C9.96098 24.5049 9.97698 24.0769 10.027 17.8499L10.08 11.2199L10.403 10.8209C11.079 9.98594 10.706 10.0269 17.673 10.0269C21.805 10.0269 24.067 9.98694 24.433 9.90894C26.41 9.48494 26.463 6.58994 24.503 6.09694C23.936 5.95394 12.22 5.94294 11.147 6.08494ZM39.506 6.07194C38.212 6.39294 37.595 8.00994 38.356 9.08694C38.527 9.32894 38.859 9.62794 39.093 9.75094C39.509 9.96794 39.687 9.97494 46.133 10.0269L52.747 10.0799L53.089 10.3239C53.277 10.4589 53.541 10.7229 53.676 10.9109L53.92 11.2529L53.973 17.9199L54.027 24.5869L54.274 24.9849C55.241 26.5399 57.549 26.1609 57.917 24.3869C58.005 23.9649 58.029 21.9439 58.001 17.3639C57.966 11.5309 57.945 10.8789 57.771 10.3469C57.12 8.35294 55.648 6.88094 53.653 6.22894C53.118 6.05394 52.49 6.03494 46.453 6.01294C42.816 5.99894 39.69 6.02594 39.506 6.07194ZM23.506 30.0749C22.216 30.3829 21.595 32.0099 22.356 33.0869C22.527 33.3289 22.859 33.6279 23.093 33.7509C23.514 33.9699 23.641 33.9739 31.674 34.0029C37.386 34.0239 40.001 33.9969 40.404 33.9139C42.406 33.4979 42.482 30.5949 40.503 30.0969C39.945 29.9559 24.088 29.9359 23.506 30.0749ZM7.50598 38.0749C7.03798 38.1869 6.56498 38.5469 6.27398 39.0149L6.02698 39.4129V46.1869C6.02698 52.4589 6.04098 53.0069 6.22298 53.5999C6.83698 55.6049 8.32598 57.1119 10.347 57.7709C10.879 57.9449 11.531 57.9659 17.364 58.0009C24.627 58.0449 24.737 58.0369 25.385 57.3879C26.448 56.3249 25.948 54.4609 24.503 54.0969C24.159 54.0099 22.14 53.9729 17.738 53.9729C10.698 53.9729 11.079 54.0149 10.403 53.1789L10.08 52.7799L10.027 46.1499C9.97698 39.9229 9.96098 39.4949 9.77198 39.1139C9.52798 38.6229 9.05398 38.2479 8.47998 38.0909C8.00698 37.9619 7.98098 37.9609 7.50598 38.0749ZM55.506 38.0719C55.035 38.1889 54.564 38.5499 54.274 39.0149L54.027 39.4129L53.973 46.0799L53.92 52.7469L53.676 53.0889C53.5077 53.3102 53.3102 53.5077 53.089 53.6759L52.747 53.9199L46.072 53.9729L39.397 54.0269L38.965 54.3129C38.325 54.7369 38.044 55.2559 38.044 56.0179C38.044 56.5409 38.097 56.7209 38.356 57.0869C38.527 57.3289 38.859 57.6279 39.093 57.7509C39.513 57.9699 39.632 57.9729 46.24 57.9729C52.46 57.9729 53.008 57.9589 53.6 57.7769C55.605 57.1629 57.112 55.6739 57.771 53.6529C57.945 53.1209 57.966 52.4689 58.001 46.6299C58.043 39.7969 58.019 39.3829 57.549 38.7669C57.121 38.2059 56.211 37.8969 55.506 38.0719Z" fill="#222222"/>
</svg>
