<svg width="64" height="64" viewBox="0 0 64 64" fill="none" xmlns="http://www.w3.org/2000/svg">
<path fill-rule="evenodd" clip-rule="evenodd" d="M11.147 6.08298C8.87401 6.38598 6.99401 8.00798 6.26501 10.293L6.02701 11.04V32.587L6.27401 32.985C7.10401 34.32 9.08701 34.264 9.77201 32.886C9.96401 32.498 9.97601 32.002 10.027 21.85L10.08 11.22L10.403 10.821C10.58 10.602 10.892 10.333 11.096 10.224C11.454 10.032 12.149 10.026 32.123 10.053L52.78 10.08L53.179 10.403C53.398 10.58 53.667 10.891 53.775 11.094C53.966 11.45 53.973 12.201 53.973 32C53.973 51.799 53.966 52.55 53.775 52.906C53.667 53.109 53.398 53.42 53.179 53.597L52.78 53.92L42.089 53.973L31.398 54.027L30.965 54.313C30.325 54.737 30.044 55.256 30.044 56.018C30.044 56.541 30.097 56.721 30.356 57.087C30.527 57.329 30.859 57.628 31.093 57.751C31.518 57.972 31.575 57.973 42.24 57.973C52.343 57.973 52.997 57.962 53.6 57.777C54.5885 57.4826 55.488 56.9465 56.2173 56.2172C56.9465 55.4879 57.4826 54.5884 57.777 53.6C57.965 52.988 57.973 52.044 57.973 32C57.973 11.956 57.965 11.012 57.777 10.4C57.163 8.39698 55.692 6.90698 53.653 6.22398C53.092 6.03598 52.173 6.02698 32.427 6.01298C21.075 6.00498 11.499 6.03598 11.147 6.08298ZM33.399 16.076C33.259 16.103 32.915 16.355 32.634 16.636C32.219 17.051 32.11 17.24 32.048 17.65C31.912 18.556 32.298 19.341 33.073 19.736C33.46 19.934 33.713 19.947 37.276 19.947C39.361 19.947 41.067 19.983 41.067 20.027C41.067 20.071 38.231 22.939 34.766 26.4C31.301 29.861 28.373 32.871 28.26 33.089C27.868 33.841 28.039 34.859 28.654 35.433C29.244 35.985 30.193 36.114 30.911 35.74C31.129 35.627 34.139 32.699 37.6 29.234C41.061 25.769 43.929 22.933 43.973 22.933C44.017 22.933 44.053 24.639 44.053 26.724C44.053 30.287 44.066 30.54 44.264 30.927C44.659 31.702 45.444 32.088 46.35 31.952C47.054 31.846 47.845 31.07 47.944 30.387C47.981 30.13 47.997 27.088 47.979 23.627L47.947 17.333L47.699 16.986C47.5155 16.7478 47.3036 16.5328 47.068 16.346L46.683 16.053L40.168 16.04C36.585 16.032 33.539 16.048 33.399 16.076ZM11.147 38.08C8.86301 38.396 6.99401 40.009 6.26501 42.293C6.03201 43.022 6.02701 43.161 6.02701 48C6.02701 52.512 6.04401 53.018 6.22301 53.6C6.51741 54.5884 7.05347 55.4879 7.78275 56.2172C8.51204 56.9465 9.41155 57.4826 10.4 57.777C10.982 57.956 11.488 57.973 16 57.973C20.512 57.973 21.018 57.956 21.6 57.777C22.5885 57.4826 23.488 56.9465 24.2173 56.2172C24.9465 55.4879 25.4826 54.5884 25.777 53.6C25.956 53.018 25.973 52.512 25.973 48C25.973 43.488 25.956 42.982 25.777 42.4C25.162 40.394 23.665 38.88 21.653 38.231C21.134 38.064 20.532 38.039 16.427 38.017C13.875 38.003 11.499 38.032 11.147 38.08ZM20.906 42.225C21.109 42.333 21.42 42.602 21.597 42.821L21.92 43.22V52.78L21.597 53.179C20.937 53.995 21.089 53.973 16 53.973C10.911 53.973 11.063 53.995 10.403 53.179L10.08 52.78V43.22L10.403 42.821C11.063 42.005 10.911 42.027 16 42.027C20.215 42.027 20.563 42.041 20.906 42.225Z" fill="#222222"/>
</svg>
