<svg width="64" height="64" viewBox="0 0 64 64" fill="none" xmlns="http://www.w3.org/2000/svg">
<path fill-rule="evenodd" clip-rule="evenodd" d="M11.1471 6.08494C8.8791 6.38294 6.9951 8.00694 6.2651 10.2929C6.0291 11.0339 6.0271 11.0969 6.0271 17.8129V24.5869L6.2741 24.9849C7.1041 26.3199 9.0871 26.2639 9.7721 24.8859C9.9611 24.5049 9.9771 24.0769 10.0271 17.8499L10.0801 11.2199L10.4031 10.8209C11.0791 9.98594 10.7061 10.0269 17.6731 10.0269C21.8051 10.0269 24.0671 9.98694 24.4331 9.90894C26.4101 9.48494 26.4631 6.58994 24.5031 6.09694C23.9361 5.95394 12.2201 5.94294 11.1471 6.08494ZM39.5061 6.07194C38.2121 6.39294 37.5951 8.00994 38.3561 9.08694C38.5271 9.32894 38.8591 9.62794 39.0931 9.75094C39.5091 9.96794 39.6871 9.97494 46.1331 10.0269L52.7471 10.0799L53.0891 10.3239C53.2771 10.4589 53.5411 10.7229 53.6761 10.9109L53.9201 11.2529L53.9731 17.9199L54.0271 24.5869L54.2741 24.9849C55.2411 26.5399 57.5491 26.1609 57.9171 24.3869C58.0051 23.9649 58.0291 21.9439 58.0011 17.3639C57.9661 11.5309 57.9451 10.8789 57.7711 10.3469C57.1201 8.35294 55.6481 6.88094 53.6531 6.22894C53.1181 6.05394 52.4901 6.03494 46.4531 6.01294C42.8161 5.99894 39.6901 6.02594 39.5061 6.07194ZM31.3071 22.0439C27.7721 22.3599 24.8721 24.2279 23.2521 27.2309C22.4011 28.8079 22.0551 30.1859 22.0551 31.9999C22.0551 33.8169 22.4011 35.1919 23.2571 36.7789C24.2071 38.5399 25.4631 39.7949 27.2311 40.7479C28.8081 41.5989 30.1861 41.9449 32.0001 41.9449C33.8141 41.9449 35.1921 41.5989 36.7691 40.7479C38.5371 39.7949 39.7931 38.5399 40.7431 36.7789C41.5991 35.1919 41.9451 33.8169 41.9451 31.9999C41.9451 30.1859 41.5991 28.8079 40.7481 27.2309C39.5531 25.0159 37.6581 23.4099 35.2411 22.5679C34.1161 22.1749 32.3961 21.9459 31.3071 22.0439ZM33.5421 26.1899C34.5291 26.4469 35.3981 26.9639 36.2171 27.7829C37.4431 29.0099 37.9731 30.2819 37.9731 31.9999C37.9731 33.7179 37.4431 34.9899 36.2171 36.2169C34.9901 37.4429 33.7181 37.9729 32.0001 37.9729C30.2821 37.9729 29.0101 37.4429 27.7831 36.2169C26.5571 34.9899 26.0271 33.7179 26.0271 31.9999C26.0271 30.2819 26.5571 29.0099 27.7831 27.7829C28.5851 26.9819 29.4661 26.4499 30.4121 26.1949C31.1791 25.9889 32.7611 25.9859 33.5421 26.1899ZM7.5061 38.0749C7.0381 38.1869 6.5651 38.5469 6.2741 39.0149L6.0271 39.4129V46.1869C6.0271 52.4589 6.0411 53.0069 6.2231 53.5999C6.8371 55.6049 8.3261 57.1119 10.3471 57.7709C10.8791 57.9449 11.5311 57.9659 17.3641 58.0009C24.6271 58.0449 24.7371 58.0369 25.3851 57.3879C26.4481 56.3249 25.9481 54.4609 24.5031 54.0969C24.1591 54.0099 22.1401 53.9729 17.7381 53.9729C10.6981 53.9729 11.0791 54.0149 10.4031 53.1789L10.0801 52.7799L10.0271 46.1499C9.9771 39.9229 9.9611 39.4949 9.7721 39.1139C9.5281 38.6229 9.0541 38.2479 8.4801 38.0909C8.0071 37.9619 7.9811 37.9609 7.5061 38.0749ZM55.5061 38.0719C55.0351 38.1889 54.5641 38.5499 54.2741 39.0149L54.0271 39.4129L53.9731 46.0799L53.9201 52.7469L53.6761 53.0889C53.5078 53.3102 53.3104 53.5077 53.0891 53.6759L52.7471 53.9199L46.0721 53.9729L39.3971 54.0269L38.9651 54.3129C38.3251 54.7369 38.0441 55.2559 38.0441 56.0179C38.0441 56.5409 38.0971 56.7209 38.3561 57.0869C38.5271 57.3289 38.8591 57.6279 39.0931 57.7509C39.5131 57.9699 39.6321 57.9729 46.2401 57.9729C52.4601 57.9729 53.0081 57.9589 53.6001 57.7769C55.6051 57.1629 57.1121 55.6739 57.7711 53.6529C57.9451 53.1209 57.9661 52.4689 58.0011 46.6299C58.0431 39.7969 58.0191 39.3829 57.5491 38.7669C57.1211 38.2059 56.2111 37.8969 55.5061 38.0719Z" fill="#222222"/>
</svg>
