<svg width="64" height="64" viewBox="0 0 64 64" fill="none" xmlns="http://www.w3.org/2000/svg">
<path fill-rule="evenodd" clip-rule="evenodd" d="M24.459 22.395C24.224 22.539 24.099 22.712 24.055 22.955C24.02 23.148 24.005 27.349 24.022 32.29C24.053 41.198 24.055 41.276 24.273 41.494C24.394 41.615 24.662 41.741 24.868 41.774C25.222 41.832 25.643 41.569 32.126 37.248C35.912 34.726 39.04 32.581 39.078 32.482C39.116 32.383 39.147 32.166 39.147 32C39.147 31.834 39.116 31.617 39.078 31.518C38.979 31.26 25.327 22.187 25.038 22.187C24.907 22.187 24.647 22.281 24.459 22.395Z" fill="#222222"/>
</svg>
