<svg width="64" height="64" viewBox="0 0 64 64" fill="none" xmlns="http://www.w3.org/2000/svg">
<path fill-rule="evenodd" clip-rule="evenodd" d="M24 6.08402C22.553 6.16802 21.569 6.38002 20.769 6.78002C18.671 7.82902 17.308 9.64602 16.844 12.012C16.674 12.881 16.58 36.814 16.737 39.505C16.855 41.539 17.014 42.357 17.463 43.248C18.528 45.357 20.308 46.691 22.679 47.156C23.547 47.326 47.48 47.42 50.172 47.263C52.312 47.139 53.05 46.984 54.08 46.445C55.3772 45.7706 56.4352 44.713 57.11 43.416C57.651 42.383 57.806 41.647 57.93 39.505C58.086 36.814 57.992 12.881 57.822 12.012C57.357 9.64102 56.024 7.86202 53.912 6.79602C53.063 6.36602 52.128 6.17402 50.4 6.07402C48.502 5.96302 25.926 5.97202 24 6.08402ZM52.069 10.309C52.703 10.602 53.398 11.297 53.691 11.931L53.92 12.427V40.907L53.691 41.403C53.398 42.036 52.703 42.731 52.069 43.024L51.573 43.253H23.093L22.597 43.024C21.964 42.731 21.269 42.036 20.976 41.403L20.747 40.907V12.427L20.976 11.931C21.392 11.03 22.265 10.321 23.181 10.137C23.426 10.088 29.915 10.055 37.6 10.064L51.573 10.08L52.069 10.309ZM45.067 19.357C44.9262 19.3987 44.7837 19.4347 44.64 19.465C44.403 19.517 43.067 20.786 39.495 24.35L34.67 29.165L32.508 27.022C30.468 25 30.316 24.873 29.81 24.766C28.88 24.569 28.098 24.891 27.616 25.67C27.293 26.194 27.286 27.13 27.603 27.639C27.726 27.837 29.138 29.303 30.74 30.894C33.476 33.613 33.684 33.795 34.16 33.895C34.493 33.964 34.84 33.965 35.173 33.896C35.66 33.796 35.907 33.565 41.306 28.179C44.455 25.037 47.007 22.406 47.105 22.201C47.509 21.35 47.214 20.242 46.444 19.714C46.063 19.454 45.33 19.263 45.067 19.357ZM7.50601 22.072C7.03501 22.189 6.56401 22.55 6.27401 23.015L6.02701 23.413V38.72C6.02701 53.197 6.03701 54.061 6.22001 54.653C6.44303 55.381 6.83795 56.0446 7.37141 56.5878C7.90487 57.131 8.56121 57.5378 9.28501 57.774C9.83501 57.958 10.673 57.97 24.843 58.002C35.669 58.026 39.98 58.002 40.399 57.915C42.406 57.498 42.485 54.596 40.503 54.097C40.143 54.006 36.073 53.973 25.196 53.973C10.978 53.973 10.373 53.965 10.203 53.778C10.041 53.599 10.026 52.405 10.024 38.818C10.022 29.056 9.98401 23.891 9.91101 23.575C9.66001 22.485 8.57401 21.806 7.50601 22.072Z" fill="#222222"/>
</svg>
