<svg width="64" height="64" viewBox="0 0 64 64" fill="none" xmlns="http://www.w3.org/2000/svg">
<path fill-rule="evenodd" clip-rule="evenodd" d="M9.12497 9.84098C9.08597 10.852 9.06897 13.96 9.08697 16.747L9.11997 21.813L9.81297 21.951C16.578 23.293 53.909 30.5 53.94 30.469C53.963 30.446 43.905 25.381 31.589 19.214L9.19597 8.00098L9.12497 9.84098ZM9.85497 25.024C9.89797 25.135 10.734 26.438 11.713 27.918L13.493 30.609L26.178 30.611C33.154 30.612 38.836 30.587 38.804 30.556C38.736 30.487 36.499 30.044 21.6 27.147C17.7439 26.4003 13.8892 25.6463 10.036 24.885C9.81597 24.831 9.78997 24.851 9.85497 25.024ZM11.713 36.082C10.734 37.562 9.89797 38.863 9.85697 38.972C9.79097 39.145 9.82097 39.162 10.091 39.106C10.261 39.07 15.944 37.962 22.72 36.643C38.57 33.558 38.6 33.552 38.365 33.462C38.257 33.42 32.617 33.388 25.831 33.389L13.493 33.391L11.713 36.082ZM52.64 33.714C52.112 33.823 42.152 35.764 30.507 38.027C18.861 40.29 9.24497 42.168 9.13697 42.201C8.94897 42.258 8.94297 42.536 8.97697 49.068C8.99697 52.812 9.04397 55.907 9.08197 55.944C9.15997 56.023 26.884 47.222 43.2 39.004C49.213 35.976 54.013 33.502 53.867 33.506C53.72 33.511 53.168 33.605 52.64 33.714Z" fill="#222222"/>
</svg>
