<svg width="64" height="64" viewBox="0 0 64 64" fill="none" xmlns="http://www.w3.org/2000/svg">
<path fill-rule="evenodd" clip-rule="evenodd" d="M9.16594 10.268C8.59094 10.656 8.21994 11.277 8.09894 12.057C8.03194 12.487 8.00294 15.415 8.02194 19.788L8.05294 26.827L8.38394 27.413C8.75794 28.076 9.41594 28.635 10.0079 28.795C10.7419 28.993 11.9619 29.116 18.5069 29.655C33.3019 30.873 42.8559 31.801 43.6609 32.099C43.8539 32.17 43.8009 32.204 43.3369 32.303C41.6349 32.669 31.0749 33.639 16.4799 34.772C9.72694 35.296 9.66794 35.306 8.83194 36.039C8.02294 36.75 8.05794 36.376 8.02094 44.82C7.99894 49.964 8.02494 52.496 8.10294 52.786C8.32494 53.61 9.85594 54.568 10.5859 54.34C11.3409 54.104 18.4569 50.851 35.8399 42.795C52.9499 34.866 53.6559 34.534 54.3209 34.093C55.0519 33.607 55.8609 32.753 55.9589 32.363C56.1259 31.696 55.1959 30.642 53.6989 29.805C52.1909 28.962 13.9409 11.45 11.3469 10.415C10.2069 9.95998 9.67594 9.92498 9.16594 10.268Z" fill="#222222"/>
</svg>
