<svg width="64" height="64" viewBox="0 0 64 64" fill="none" xmlns="http://www.w3.org/2000/svg">
<path fill-rule="evenodd" clip-rule="evenodd" d="M31.04 4.22304C30.2262 4.37686 29.4368 4.63956 28.693 5.00404C27.77 5.46304 11.51 14.835 10.419 15.537C8.51102 16.765 7.39402 18.438 7.04702 20.587C6.89302 21.539 6.89302 42.461 7.04702 43.413C7.39402 45.562 8.51102 47.235 10.419 48.463C11.527 49.176 27.748 58.522 28.678 58.983C29.972 59.625 30.601 59.774 32 59.774C33.41 59.774 34.029 59.624 35.36 58.959C36.336 58.471 52.477 49.173 53.581 48.463C55.489 47.235 56.606 45.562 56.953 43.413C57.107 42.461 57.107 21.539 56.953 20.587C56.606 18.438 55.489 16.765 53.581 15.537C52.618 14.918 36.32 5.51303 35.393 5.04203C34.9439 4.81832 34.4794 4.62684 34.003 4.46903C33.353 4.26803 31.595 4.12204 31.04 4.22304ZM33.707 8.67804C34.627 9.14204 50.063 18.032 51.274 18.795C52.047 19.282 52.529 19.799 52.842 20.475C53.066 20.958 53.067 21 53.067 32C53.067 43 53.066 43.042 52.842 43.525C52.529 44.201 52.047 44.718 51.274 45.205C50.09 45.951 34.639 54.852 33.678 55.342C32.836 55.771 32.669 55.818 32 55.818C31.331 55.818 31.164 55.771 30.322 55.342C29.361 54.852 13.91 45.951 12.726 45.205C11.953 44.718 11.471 44.201 11.158 43.525C10.934 43.042 10.933 43 10.933 32C10.933 21 10.934 20.958 11.158 20.475C11.47 19.799 11.953 19.283 12.726 18.795C13.839 18.093 29.328 9.16504 30.274 8.68104C30.762 8.43104 31.29 8.20404 31.447 8.17704C32.096 8.06704 32.809 8.22504 33.707 8.67804ZM31.307 22.044C27.772 22.36 24.872 24.228 23.252 27.231C22.401 28.808 22.055 30.186 22.055 32C22.055 33.817 22.401 35.192 23.257 36.779C24.207 38.54 25.463 39.795 27.231 40.748C28.808 41.599 30.186 41.945 32 41.945C33.814 41.945 35.192 41.599 36.769 40.748C38.537 39.795 39.793 38.54 40.743 36.779C41.599 35.192 41.945 33.817 41.945 32C41.945 30.186 41.599 28.808 40.748 27.231C39.553 25.016 37.658 23.41 35.241 22.568C34.116 22.175 32.396 21.946 31.307 22.044ZM33.542 26.19C34.529 26.447 35.398 26.964 36.217 27.783C37.443 29.01 37.973 30.282 37.973 32C37.973 33.718 37.443 34.99 36.217 36.217C34.99 37.443 33.718 37.973 32 37.973C30.282 37.973 29.01 37.443 27.783 36.217C26.557 34.99 26.027 33.718 26.027 32C26.027 30.282 26.557 29.01 27.783 27.783C28.585 26.982 29.466 26.45 30.412 26.195C31.179 25.989 32.761 25.986 33.542 26.19Z" fill="#222222"/>
</svg>
