<svg width="64" height="64" viewBox="0 0 64 64" fill="none" xmlns="http://www.w3.org/2000/svg">
<path fill-rule="evenodd" clip-rule="evenodd" d="M28.373 5.16206C26.74 5.52606 25.297 6.87406 24.762 8.53306C24.696 8.73906 24.548 9.43506 24.432 10.0801C24.245 11.1241 24.186 11.2861 23.896 11.5471C23.717 11.7081 23.466 11.8401 23.339 11.8401C23.212 11.8401 22.361 11.4361 21.447 10.9411C19.267 9.76206 18.481 9.56506 17.1 9.85306C15.646 10.1561 15.305 10.3951 12.897 12.7961C10.529 15.1591 10.184 15.6381 9.914 16.9371C9.76 17.6751 9.838 18.9661 10.076 19.6271C10.171 19.8911 10.612 20.7181 11.056 21.4661C11.763 22.6561 11.856 22.8701 11.797 23.1851C11.759 23.3821 11.636 23.6291 11.521 23.7321C11.407 23.8361 10.593 24.1031 9.713 24.3251C8.833 24.5481 7.868 24.8641 7.567 25.0271C6.599 25.5541 5.717 26.5981 5.297 27.7151C5.086 28.2761 5.067 28.5621 5.034 31.6271C5.009 33.8511 5.038 35.1411 5.122 35.5691C5.399 36.9851 6.417 38.3411 7.68 38.9721C8.122 39.1931 8.986 39.4731 9.863 39.6791C11.416 40.0441 11.551 40.1281 11.687 40.8101C11.743 41.0861 11.648 41.2671 10.995 42.1381C10.579 42.6931 10.123 43.3871 9.982 43.6801C9.29 45.1211 9.413 47.0101 10.294 48.4381C10.453 48.6961 11.669 49.9921 12.998 51.3181C15.219 53.5351 15.48 53.7611 16.243 54.1271C16.96 54.4701 17.206 54.5321 18.068 54.5841C19.415 54.6641 20.169 54.4311 21.654 53.4771C22.928 52.6591 23.295 52.5801 23.745 53.0301C23.967 53.2521 24.053 53.5141 24.213 54.4511C24.469 55.9561 24.865 56.7471 25.798 57.6201C27.168 58.9011 27.727 59.0141 32.427 58.9631C36.453 58.9181 36.592 58.8961 37.761 58.1161C38.539 57.5961 39.279 56.7021 39.569 55.9301C39.683 55.6281 39.854 54.9801 39.948 54.4901C40.178 53.3041 40.294 53.0321 40.65 52.8481C41.133 52.5981 41.345 52.6591 42.331 53.3281C43.499 54.1221 44.111 54.3861 45.051 54.5041C46.155 54.6431 47.186 54.4421 48.19 53.8921C48.88 53.5151 53.523 48.8651 53.904 48.1701C54.397 47.2701 54.538 46.5921 54.485 45.3941C54.428 44.1291 54.17 43.4851 53.157 42.0871C52.702 41.4581 52.544 41.1491 52.544 40.8841C52.544 40.2671 52.896 40.0401 54.492 39.6271C56.203 39.1831 56.785 38.8811 57.595 38.0151C58.884 36.6371 59.016 36.0231 58.962 31.6271C58.917 27.8891 58.886 27.7061 58.104 26.5401C57.287 25.3211 56.423 24.8171 54.096 24.2051C53.332 24.0041 53.177 23.9241 53.003 23.6391C52.892 23.4561 52.801 23.2101 52.8 23.0921C52.8 22.9741 53.136 22.3271 53.546 21.6541C54.529 20.0441 54.666 19.6291 54.656 18.2931C54.647 17.0901 54.44 16.3941 53.839 15.5481C53.206 14.6581 49.369 10.6521 48.81 10.2981C48.047 9.81406 47.338 9.59306 46.333 9.52406C45.148 9.44306 44.246 9.72006 43.066 10.5281L41.825 11.3781C41.369 11.6921 40.944 11.6941 40.588 11.3871C40.377 11.2051 40.199 10.7851 39.853 9.65306C39.602 8.83206 39.269 7.91106 39.113 7.60706C38.534 6.47606 37.238 5.48406 35.939 5.17806C35.056 4.97006 29.29 4.95806 28.373 5.16206ZM35.411 9.23006C35.54 9.35906 35.827 10.1011 36.114 11.0441C36.662 12.8451 37.044 13.5701 37.809 14.2611C38.86 15.2111 40.1 15.6381 41.535 15.5451C42.657 15.4731 43.253 15.2271 44.7 14.2401C45.345 13.8001 45.941 13.4401 46.023 13.4401C46.431 13.4401 46.84 13.7951 48.6 15.6761C50.333 17.5281 50.754 18.0601 50.769 18.4131C50.771 18.4791 50.456 19.0551 50.069 19.6931C49.005 21.4441 48.916 21.7061 48.917 23.0931C48.917 24.0611 48.959 24.3741 49.159 24.8771C49.75 26.3731 50.919 27.4091 52.573 27.9021C54.761 28.5551 54.654 28.5081 54.856 28.9071C55.025 29.2411 55.042 29.5771 55.016 32.1311L54.987 34.9821L54.714 35.2551C54.508 35.4601 54.093 35.6171 53.025 35.8941C51.382 36.3201 50.712 36.6661 49.932 37.4901C48.645 38.8511 48.216 40.8851 48.855 42.5921C48.969 42.8971 49.399 43.6431 49.811 44.2491C50.937 45.9061 51.024 45.6631 48.344 48.3441C45.711 50.9771 45.861 50.9121 44.513 49.9901C43.053 48.9901 42.394 48.7501 41.105 48.7481C39.084 48.7451 37.184 50.0371 36.492 51.8851C36.374 52.2011 36.206 52.8701 36.118 53.3721C35.821 55.0771 35.911 55.0401 32.073 55.0401C30.366 55.0401 29.022 54.9951 28.84 54.9311C28.39 54.7741 28.251 54.4811 28.044 53.2481C27.82 51.9131 27.487 51.1941 26.698 50.3421C25.687 49.2491 24.1 48.6441 22.635 48.7921C21.713 48.8861 21.01 49.1701 19.831 49.9261C18.687 50.6591 18.461 50.7401 18.042 50.5661C17.877 50.4981 16.798 49.4941 15.644 48.3351C13.609 46.2901 13.547 46.2151 13.547 45.7951C13.547 45.4271 13.646 45.2341 14.198 44.5211C15.244 43.1691 15.676 42.1401 15.679 40.9921C15.683 39.1191 14.65 37.3521 13.064 36.5191C12.676 36.3151 11.857 36.0521 10.973 35.8461C8.875 35.3581 9.021 35.6231 8.98 32.2321C8.959 30.5511 8.989 29.3481 9.056 29.1181C9.206 28.6111 9.509 28.4571 11.134 28.0631C12.626 27.7021 13.343 27.3931 14.068 26.7981C15.065 25.9821 15.788 24.4061 15.785 23.0551C15.783 21.8481 15.551 21.2201 14.357 19.2051C13.719 18.1281 13.675 17.9631 13.912 17.5151C14.144 17.0731 17.533 13.7621 17.767 13.7481C18.217 13.7211 18.431 13.8091 19.881 14.6191C20.719 15.0871 21.669 15.5321 22.022 15.6231C23.708 16.0571 25.375 15.6261 26.687 14.4151C27.558 13.6121 27.983 12.7081 28.321 10.9431C28.585 9.56206 28.729 9.24606 29.173 9.05806C29.291 9.00906 30.693 8.97906 32.291 8.99106C35.053 9.01206 35.205 9.02406 35.411 9.23006ZM29.6 20.2641C25.086 21.2411 21.602 24.5451 20.398 28.9911C20.143 29.9341 20.118 30.2031 20.118 32.0001C20.118 33.7971 20.143 34.0661 20.398 35.0091C21.126 37.6951 22.888 40.2451 25.074 41.7761C26.092 42.4901 27.759 43.2691 28.963 43.5941C29.938 43.8581 30.191 43.8821 32 43.8821C33.809 43.8821 34.062 43.8581 35.037 43.5941C36.241 43.2691 37.908 42.4901 38.926 41.7761C41.112 40.2451 42.874 37.6951 43.602 35.0091C43.857 34.0661 43.882 33.7971 43.882 32.0001C43.882 30.1911 43.858 29.9381 43.594 28.9631C43.269 27.7591 42.49 26.0921 41.776 25.0741C40.241 22.8821 37.668 21.1071 35.009 20.4051C33.563 20.0241 31.018 19.9571 29.6 20.2641ZM34.293 24.3191C35.5669 24.7206 36.7242 25.4256 37.6654 26.3733C38.6066 27.3211 39.3034 28.4834 39.696 29.7601C40.056 30.9171 40.056 33.0831 39.696 34.2401C39.3019 35.5261 38.5985 36.6959 37.6473 37.647C36.6961 38.598 35.5261 39.3012 34.24 39.6951C33.078 40.0561 30.913 40.0571 29.76 39.6971C28.4741 39.302 27.3044 38.5981 26.3531 37.6469C25.4019 36.6957 24.698 35.526 24.303 34.2401C24.093 33.5671 24.053 33.2111 24.053 32.0001C24.053 30.7891 24.093 30.4331 24.303 29.7601C24.7366 28.3477 25.5421 27.0779 26.635 26.0837C27.7279 25.0895 29.068 24.4075 30.515 24.1091C31.337 23.9361 33.45 24.0541 34.293 24.3191Z" fill="#222222"/>
</svg>
