<svg width="64" height="64" viewBox="0 0 64 64" fill="none" xmlns="http://www.w3.org/2000/svg">
<path fill-rule="evenodd" clip-rule="evenodd" d="M21.867 5.10997C21.485 5.21397 20.861 5.44397 20.48 5.61997C19.436 6.10097 15.411 8.47797 14.55 9.12097C13.343 10.023 12.426 11.397 11.989 12.96C11.849 13.462 11.802 14.185 11.773 16.32L11.737 19.04L11.399 19.725C10.922 20.693 10.386 21.167 8.74399 22.07C6.13399 23.506 5.20899 24.262 4.39199 25.629C3.74799 26.708 3.51398 27.587 3.40998 29.32C3.28698 31.374 3.38298 35.126 3.58698 36.213C3.87598 37.752 4.80999 39.289 6.04399 40.258C6.37499 40.517 7.34698 41.128 8.20298 41.613C10.394 42.856 10.632 43.033 11.104 43.763C11.7 44.685 11.761 45.015 11.744 47.253C11.721 50.236 11.953 51.513 12.771 52.894C13.579 54.26 14.44 54.944 17.745 56.845C21.014 58.725 21.964 59.087 23.639 59.091C25.195 59.095 26.297 58.713 28.491 57.41C30.872 55.996 30.723 56.053 32 56.053C33.275 56.053 33.132 55.999 35.467 57.384C37.745 58.737 38.385 58.972 40.024 59.061C41.354 59.133 42.237 58.965 43.461 58.405C44.554 57.904 48.562 55.542 49.471 54.863C50.671 53.966 51.571 52.612 52.011 51.04C52.152 50.536 52.198 49.824 52.224 47.685L52.258 44.971L52.598 44.28C53.078 43.306 53.612 42.834 55.256 41.93C57.866 40.494 58.791 39.738 59.608 38.371C60.263 37.274 60.488 36.413 60.588 34.624C60.703 32.581 60.552 28.09 60.345 27.359C59.986 26.096 59.195 24.816 58.27 24.002C57.701 23.501 56.477 22.727 54.882 21.859C53.601 21.162 53.055 20.647 52.584 19.69L52.229 18.969L52.252 16.909C52.288 13.759 52.056 12.477 51.187 11.027C50.398 9.70997 49.541 9.03697 46.24 7.14497C42.956 5.26297 42.035 4.91297 40.361 4.90897C38.805 4.90497 37.703 5.28697 35.509 6.58997C33.335 7.88097 33.235 7.92397 32.267 7.97697C31.797 8.00197 31.221 7.97097 30.987 7.90797C30.752 7.84397 29.816 7.35297 28.907 6.81597C26.985 5.68297 26.23 5.32197 25.269 5.08097C24.345 4.84997 22.767 4.86297 21.867 5.10997ZM24.96 9.16897C25.224 9.30197 26.171 9.84197 27.065 10.369C27.959 10.896 29.039 11.454 29.465 11.609C30.181 11.87 30.369 11.891 31.947 11.892C34.161 11.894 34.531 11.778 37.067 10.295C39.57 8.82997 40.152 8.65397 41.25 9.02697C42.053 9.29897 46.297 11.711 47.152 12.381C47.36 12.544 47.672 12.933 47.845 13.245L48.16 13.813L48.228 16.64C48.285 19.015 48.329 19.578 48.506 20.16C48.998 21.781 50.053 23.356 51.253 24.259C51.664 24.569 52.708 25.22 53.574 25.707C55.42 26.747 55.843 27.084 56.27 27.855L56.587 28.427V32C56.587 35.548 56.585 35.577 56.335 36.053C56.1858 36.332 56.0072 36.5941 55.802 36.835C55.496 37.163 54.209 37.984 52.853 38.716C51 39.716 49.867 40.842 49.032 42.516C48.374 43.834 48.291 44.331 48.216 47.413C48.14 50.517 48.109 50.665 47.365 51.408C46.939 51.834 44.336 53.435 42.367 54.481C41.468 54.958 41.145 55.075 40.607 55.117C39.721 55.185 39.215 54.982 36.96 53.651C35.954 53.057 34.845 52.487 34.468 52.37C32.955 51.901 31.038 51.901 29.532 52.371C29.159 52.488 27.989 53.089 26.933 53.706C25.877 54.324 24.753 54.907 24.436 55.001C23.337 55.326 22.733 55.114 19.52 53.272C17.184 51.932 16.559 51.466 16.17 50.773L15.84 50.187L15.774 47.413C15.7 44.325 15.637 43.948 14.945 42.507C14.451 41.476 13.742 40.54 12.965 39.893C12.648 39.629 11.594 38.962 10.623 38.412C8.57798 37.252 8.16298 36.927 7.72998 36.145L7.41298 35.573V32C7.41298 28.452 7.41498 28.423 7.66498 27.947C7.80398 27.683 8.04398 27.331 8.19798 27.165C8.50298 26.837 9.78698 26.018 11.147 25.284C13.004 24.281 14.136 23.155 14.968 21.484C15.628 20.16 15.709 19.671 15.778 16.587L15.84 13.813L16.159 13.237C16.554 12.525 17.004 12.183 19.388 10.787C21.278 9.67997 22.358 9.10197 22.827 8.94697C23.301 8.78997 24.443 8.90897 24.96 9.16897ZM30.879 19.412C25.999 19.841 21.865 23.018 20.106 27.691C19.152 30.228 19.152 33.772 20.106 36.309C21.445 39.864 24.131 42.555 27.669 43.886C30.24 44.852 33.76 44.852 36.331 43.886C39.869 42.555 42.555 39.864 43.894 36.309C44.852 33.763 44.849 30.23 43.886 27.669C41.852 22.261 36.576 18.912 30.879 19.412ZM34.613 23.719C36.022 24.181 36.945 24.762 38.091 25.909C39.231 27.049 39.808 27.961 40.289 29.387C40.556 30.177 40.577 30.369 40.577 32C40.577 33.631 40.556 33.823 40.289 34.613C39.808 36.039 39.231 36.951 38.091 38.091C36.951 39.231 36.039 39.808 34.613 40.289C33.823 40.556 33.631 40.577 32 40.577C30.369 40.577 30.177 40.556 29.387 40.289C27.961 39.808 27.049 39.231 25.909 38.091C24.769 36.951 24.192 36.039 23.711 34.613C23.444 33.823 23.423 33.631 23.423 32C23.423 30.369 23.444 30.177 23.711 29.387C24.192 27.96 24.769 27.049 25.909 25.91C27.822 23.998 29.51 23.333 32.267 23.401C33.527 23.432 33.893 23.482 34.613 23.719Z" fill="#222222"/>
</svg>
