<svg width="64" height="64" viewBox="0 0 64 64" fill="none" xmlns="http://www.w3.org/2000/svg">
<path fill-rule="evenodd" clip-rule="evenodd" d="M31.733 6.02301C31.675 6.04401 31.483 6.09301 31.307 6.13201C31.071 6.18301 29.866 7.31901 26.741 10.434C24.406 12.762 22.394 14.829 22.27 15.028C21.953 15.537 21.959 16.473 22.283 16.997C22.753 17.757 23.575 18.09 24.503 17.895C24.98 17.795 25.176 17.626 27.491 15.328L29.969 12.868L29.998 24.061L30.027 35.253L30.274 35.651C31.226 37.182 33.537 36.831 33.909 35.099C33.99 34.718 34.027 31.222 34.027 23.706V12.863L36.507 15.326C38.818 17.62 39.021 17.795 39.493 17.894C41.037 18.219 42.217 17.04 41.896 15.493C41.796 15.011 41.59 14.785 37.562 10.741C35.236 8.40601 33.189 6.40701 33.013 6.29901C32.703 6.10801 31.95 5.94601 31.733 6.02301ZM15.733 24.747C14.437 24.828 13.626 25.029 12.633 25.512C10.902 26.357 9.60797 27.916 9.02097 29.867C8.71797 30.872 8.64797 32.97 8.64697 41.013C8.64697 51.24 8.72297 52.449 9.46197 53.912C10.528 56.023 12.3 57.352 14.679 57.824C15.132 57.913 19.512 57.961 30.453 57.994C45.948 58.041 48.793 57.991 50.08 57.646C52.357 57.036 54.369 55.024 54.979 52.747C55.299 51.552 55.381 48.508 55.331 39.633C55.29 32.387 55.257 30.986 55.116 30.385C54.542 27.944 53.005 26.126 50.773 25.249C49.74 24.843 48.949 24.738 46.743 24.715C44.809 24.694 44.734 24.701 44.339 24.946C43.693 25.348 43.378 25.916 43.378 26.676C43.378 27.209 43.429 27.386 43.689 27.754C44.236 28.528 44.556 28.623 46.877 28.696C48.617 28.751 48.977 28.792 49.403 28.983C50.032 29.265 50.729 29.959 51.024 30.597L51.253 31.093V51.573L51.024 52.069C50.731 52.703 50.036 53.398 49.403 53.691L48.907 53.92H15.093L14.597 53.691C13.964 53.398 13.269 52.703 12.976 52.069L12.747 51.573V31.093L12.976 30.597C13.271 29.959 13.968 29.265 14.597 28.983C15.022 28.792 15.386 28.75 17.12 28.694C18.771 28.64 19.222 28.591 19.553 28.432C20.734 27.864 20.997 26.224 20.059 25.286C19.414 24.64 18.745 24.557 15.733 24.747Z" fill="#222222"/>
</svg>
