<svg width="64" height="64" viewBox="0 0 64 64" fill="none" xmlns="http://www.w3.org/2000/svg">
<path fill-rule="evenodd" clip-rule="evenodd" d="M47.3071 6.04397C44.8981 6.25897 42.7881 7.19097 41.0831 8.79197C39.6911 10.099 38.5421 12.237 38.1841 14.187C38.0161 15.1 38.0151 16.819 38.1821 17.794C38.2551 18.223 38.2981 18.59 38.2771 18.609C38.2571 18.628 35.0101 20.258 31.0611 22.231L23.8831 25.819L23.3381 25.223C21.9721 23.728 19.8471 22.559 17.8131 22.183C16.9231 22.019 15.0771 22.019 14.1871 22.183C12.2331 22.544 10.0981 23.692 8.79206 25.083C7.47606 26.484 6.52306 28.35 6.18306 30.187C6.01906 31.077 6.01906 32.923 6.18306 33.813C6.52306 35.65 7.47606 37.516 8.79206 38.917C10.0981 40.308 12.2331 41.456 14.1871 41.817C15.0771 41.981 16.9231 41.981 17.8131 41.817C19.8471 41.441 21.9721 40.272 23.3381 38.777L23.8831 38.181L31.0611 41.769C35.0101 43.742 38.2571 45.372 38.2771 45.391C38.2981 45.41 38.2551 45.777 38.1821 46.206C37.9041 47.832 38.0521 49.762 38.5681 51.241C39.4091 53.653 41.0161 55.554 43.2211 56.743C44.8081 57.599 46.1831 57.945 48.0001 57.945C49.8171 57.945 51.1921 57.599 52.7791 56.743C54.5401 55.793 55.7951 54.537 56.7481 52.769C57.5991 51.192 57.9451 49.814 57.9451 48C57.9451 46.183 57.5991 44.808 56.7431 43.221C55.7931 41.46 54.5371 40.205 52.7691 39.252C51.1921 38.401 49.8141 38.055 48.0001 38.055C47.3841 38.055 46.5681 38.113 46.1871 38.183C44.1531 38.559 42.0281 39.728 40.6621 41.223L40.1181 41.819L32.9041 38.216L25.6911 34.613L25.7601 34.187C26.0181 32.579 26.0181 31.421 25.7601 29.813L25.6911 29.387L32.9041 25.784L40.1181 22.181L40.6621 22.777C42.0281 24.272 44.1531 25.441 46.1871 25.817C46.5681 25.887 47.3841 25.945 48.0001 25.945C49.8141 25.945 51.1921 25.599 52.7691 24.748C54.5371 23.795 55.7931 22.54 56.7431 20.779C57.5991 19.192 57.9451 17.817 57.9451 16C57.9451 14.186 57.5991 12.808 56.7481 11.231C55.5531 9.01597 53.6581 7.40997 51.2411 6.56797C50.1161 6.17497 48.3961 5.94597 47.3071 6.04397ZM49.5421 10.19C50.5291 10.447 51.3981 10.964 52.2171 11.783C53.4431 13.01 53.9731 14.282 53.9731 16C53.9731 17.718 53.4431 18.99 52.2171 20.217C50.9901 21.443 49.7181 21.973 48.0001 21.973C46.2821 21.973 45.0101 21.443 43.7831 20.217C42.5571 18.99 42.0271 17.718 42.0271 16C42.0271 14.282 42.5571 13.01 43.7831 11.783C44.5851 10.982 45.4661 10.45 46.4121 10.195C47.1791 9.98897 48.7611 9.98597 49.5421 10.19ZM17.5421 26.19C18.5291 26.447 19.3981 26.964 20.2171 27.783C21.4431 29.01 21.9731 30.282 21.9731 32C21.9731 33.718 21.4431 34.99 20.2171 36.217C18.9901 37.443 17.7181 37.973 16.0001 37.973C14.2821 37.973 13.0101 37.443 11.7831 36.217C10.5571 34.99 10.0271 33.718 10.0271 32C10.0271 30.282 10.5571 29.01 11.7831 27.783C12.5851 26.982 13.4661 26.45 14.4121 26.195C15.1791 25.989 16.7611 25.986 17.5421 26.19ZM49.5421 42.19C50.5291 42.447 51.3981 42.964 52.2171 43.783C53.4431 45.01 53.9731 46.282 53.9731 48C53.9731 49.718 53.4431 50.99 52.2171 52.217C50.9901 53.443 49.7181 53.973 48.0001 53.973C46.2821 53.973 45.0101 53.443 43.7831 52.217C42.5571 50.99 42.0271 49.718 42.0271 48C42.0271 46.282 42.5571 45.01 43.7831 43.783C44.5851 42.982 45.4661 42.45 46.4121 42.195C47.1791 41.989 48.7611 41.986 49.5421 42.19Z" fill="#222222"/>
</svg>
