<svg width="64" height="64" viewBox="0 0 64 64" fill="none" xmlns="http://www.w3.org/2000/svg">
<path fill-rule="evenodd" clip-rule="evenodd" d="M16 6.08389C14.068 6.19589 13.016 6.51389 11.793 7.35489C10.681 8.12089 9.59096 9.53289 9.18696 10.7329C8.75296 12.0209 8.72296 12.5359 8.66896 19.6269C8.61596 26.7379 8.70396 29.8789 9.01896 31.9999C10.092 39.2419 13.25 45.1339 18.863 50.3639C21.835 53.1339 26.58 56.1309 29.687 57.1989C30.568 57.5019 30.796 57.5369 31.947 57.5409C33.48 57.5479 34.152 57.3689 36.11 56.4359C43.139 53.0839 48.942 47.5809 52.118 41.2579C54.023 37.4649 55.01 33.5059 55.264 28.6399C55.416 25.7319 55.332 13.0389 55.154 12.0599C54.721 9.67889 53.381 7.87389 51.246 6.79589C50.396 6.36589 49.461 6.17389 47.733 6.07389C45.832 5.96289 17.925 5.97189 16 6.08389ZM49.403 10.3089C50.036 10.6019 50.731 11.2969 51.024 11.9309C51.253 12.4259 51.253 12.4469 51.253 21.2799C51.253 31.2109 51.259 31.1149 50.452 34.2929C49.299 38.8349 47.074 42.7369 43.647 46.2259C40.928 48.9949 38.528 50.7389 34.978 52.5259C32.903 53.5709 32.279 53.7499 31.396 53.5519C30.661 53.3879 27.669 51.8969 26.133 50.9309C23.881 49.5129 21.723 47.7169 19.786 45.6459C16.723 42.3709 14.632 38.5659 13.548 34.2929C12.741 31.1149 12.747 31.2109 12.747 21.2799C12.747 12.4469 12.747 12.4259 12.976 11.9309C13.392 11.0299 14.265 10.3199 15.181 10.1369C15.426 10.0879 23.115 10.0549 32.267 10.0639L48.907 10.0799L49.403 10.3089Z" fill="#222222"/>
</svg>
