<svg width="64" height="64" viewBox="0 0 64 64" fill="none" xmlns="http://www.w3.org/2000/svg">
<path fill-rule="evenodd" clip-rule="evenodd" d="M16 6.08389C14.068 6.19589 13.016 6.51389 11.793 7.35489C10.681 8.12089 9.59096 9.53289 9.18696 10.7329C8.75296 12.0209 8.72296 12.5359 8.66896 19.6269C8.61596 26.7379 8.70396 29.8789 9.01896 31.9999C10.092 39.2419 13.25 45.1339 18.863 50.3639C21.835 53.1339 26.58 56.1309 29.687 57.1989C30.568 57.5019 30.796 57.5369 31.947 57.5409C33.48 57.5479 34.152 57.3689 36.11 56.4359C41.586 53.8239 46.39 49.8629 49.706 45.2269C53.127 40.4419 54.923 35.1609 55.255 28.9109C55.381 26.5509 55.384 15.7299 55.26 13.5999C55.153 11.7699 54.961 10.9049 54.444 9.91689C53.7685 8.62006 52.7102 7.56252 51.413 6.88789C50.428 6.37189 49.562 6.17989 47.733 6.07389C45.832 5.96289 17.925 5.97189 16 6.08389ZM49.403 10.3089C50.036 10.6019 50.731 11.2969 51.024 11.9309C51.253 12.4259 51.253 12.4469 51.253 21.2799C51.253 31.2109 51.259 31.1149 50.452 34.2929C49.299 38.8349 47.074 42.7369 43.647 46.2259C40.928 48.9949 38.528 50.7389 34.978 52.5259C32.903 53.5709 32.279 53.7499 31.396 53.5519C30.661 53.3879 27.669 51.8969 26.133 50.9309C23.881 49.5129 21.723 47.7169 19.786 45.6459C16.723 42.3709 14.632 38.5659 13.548 34.2929C12.741 31.1149 12.747 31.2109 12.747 21.2799C12.747 12.4469 12.747 12.4259 12.976 11.9309C13.392 11.0299 14.265 10.3199 15.181 10.1369C15.426 10.0879 23.115 10.0549 32.267 10.0639L48.907 10.0799L49.403 10.3089ZM39.733 22.0259C39.675 22.0449 39.483 22.0929 39.307 22.1309C39.07 22.1829 37.733 23.4529 34.16 27.0179L29.334 31.8339L27.227 29.7439C26.068 28.5939 25 27.5909 24.854 27.5159C24.707 27.4399 24.314 27.3779 23.979 27.3779C23.255 27.3779 22.674 27.7039 22.289 28.3279C21.959 28.8599 21.95 29.7919 22.269 30.3049C22.393 30.5039 23.805 31.9689 25.407 33.5609C28.143 36.2789 28.351 36.4619 28.827 36.5619C29.158 36.6309 29.509 36.6319 29.84 36.5639C30.327 36.4639 30.567 36.2389 36.07 30.7369C41.587 25.2199 41.797 24.9949 41.898 24.5029C42.092 23.5559 41.687 22.6119 40.939 22.2679C40.569 22.0969 39.915 21.9659 39.733 22.0259Z" fill="#222222"/>
</svg>
