<svg width="64" height="64" viewBox="0 0 64 64" fill="none" xmlns="http://www.w3.org/2000/svg">
<path fill-rule="evenodd" clip-rule="evenodd" d="M16 6.08389C14.068 6.19589 13.016 6.51389 11.793 7.35489C10.678 8.12289 9.59104 9.53289 9.18404 10.7409C8.71104 12.1469 8.69304 12.5259 8.69604 21.2799C8.69904 28.5289 8.72304 29.7839 8.88404 31.0309C9.89604 38.8819 13.004 44.9039 18.863 50.3639C21.835 53.1339 26.58 56.1309 29.687 57.1989C30.568 57.5019 30.796 57.5369 31.947 57.5409C33.48 57.5479 34.152 57.3689 36.11 56.4359C41.586 53.8239 46.39 49.8629 49.706 45.2269C52.7 41.0399 54.404 36.5669 55.115 31.0309C55.275 29.7869 55.3 28.5149 55.303 21.2799C55.307 12.5259 55.289 12.1469 54.816 10.7409C54.412 9.54289 53.319 8.11889 52.229 7.37189C50.944 6.49089 49.944 6.20189 47.733 6.07389C45.832 5.96289 17.925 5.97189 16 6.08389ZM49.403 10.3089C50.036 10.6019 50.731 11.2969 51.024 11.9309C51.253 12.4259 51.253 12.4469 51.253 21.2799C51.253 31.2109 51.259 31.1149 50.452 34.2929C49.299 38.8349 47.074 42.7369 43.647 46.2259C40.928 48.9949 38.528 50.7389 34.978 52.5259C32.903 53.5709 32.279 53.7499 31.396 53.5519C30.661 53.3879 27.669 51.8969 26.133 50.9309C23.881 49.5129 21.723 47.7169 19.786 45.6459C16.723 42.3709 14.632 38.5659 13.548 34.2929C12.741 31.1149 12.747 31.2109 12.747 21.2799C12.747 12.4469 12.747 12.4259 12.976 11.9309C13.392 11.0299 14.265 10.3199 15.181 10.1369C15.426 10.0879 23.115 10.0549 32.267 10.0639L48.907 10.0799L49.403 10.3089ZM31.506 19.4059C31.036 19.5209 30.564 19.8819 30.274 20.3489L30.027 20.7469V32.5869L30.274 32.9849C31.238 34.5339 33.549 34.1609 33.915 32.3969C33.998 31.9959 34.026 30.1169 34.005 26.3339C33.974 21.0139 33.967 20.8409 33.751 20.4269C33.342 19.6449 32.357 19.1969 31.506 19.4059ZM31.627 38.0209C31.4961 38.062 31.3633 38.097 31.229 38.1259C30.41 38.3059 29.792 39.3549 29.899 40.3859C30.016 41.5209 30.83 42.2399 32 42.2399C33.163 42.2399 33.984 41.5209 34.1 40.3999C34.196 39.4659 33.79 38.6139 33.071 38.2419C32.778 38.0909 31.825 37.9449 31.627 38.0209Z" fill="#222222"/>
</svg>
