<svg width="64" height="64" viewBox="0 0 64 64" fill="none" xmlns="http://www.w3.org/2000/svg">
<path fill-rule="evenodd" clip-rule="evenodd" d="M13.333 8.75003C11.887 8.83503 10.902 9.04703 10.103 9.44603C8.00498 10.496 6.64698 12.305 6.17598 14.679C6.00598 15.537 5.91298 44.786 6.07098 47.52C6.18798 49.539 6.34798 50.359 6.79598 51.248C7.86098 53.356 9.62898 54.682 12.012 55.158C12.473 55.25 17.388 55.295 30.453 55.328C48.635 55.374 51.439 55.33 52.747 54.979C55.024 54.369 57.036 52.357 57.646 50.08C57.991 48.793 58.041 45.948 57.994 30.453C57.961 19.512 57.913 15.132 57.824 14.679C57.352 12.3 56.023 10.528 53.912 9.46203C53.063 9.03303 52.128 8.84103 50.4 8.74003C48.496 8.62903 15.257 8.63803 13.333 8.75003ZM52.069 12.976C52.703 13.269 53.398 13.964 53.691 14.597L53.92 15.093V48.907L53.691 49.403C53.398 50.036 52.703 50.731 52.069 51.024L51.573 51.253H12.427L11.931 51.024C11.297 50.731 10.602 50.036 10.309 49.403L10.08 48.907V15.093L10.309 14.597C10.726 13.697 11.599 12.987 12.515 12.804C12.76 12.755 21.648 12.722 32.267 12.731L51.573 12.747L52.069 12.976ZM23.506 19.406C23.035 19.521 22.564 19.883 22.276 20.348C22.066 20.688 22.033 20.874 22.049 21.618C22.114 24.626 23.563 27.459 25.982 29.31C27.039 30.118 28.82 30.897 30.187 31.15C31.077 31.314 32.923 31.314 33.813 31.15C38.408 30.301 41.849 26.294 41.947 21.676C41.969 20.668 41.746 20.154 41.087 19.689C40.48 19.26 39.571 19.245 38.952 19.655C38.29 20.093 38.092 20.514 37.976 21.734C37.814 23.436 37.208 24.694 36.037 25.762C34.89 26.808 33.587 27.307 32 27.307C30.413 27.307 29.11 26.808 27.963 25.762C26.806 24.707 26.197 23.457 26.023 21.782C25.962 21.191 25.834 20.593 25.722 20.377C25.344 19.645 24.335 19.203 23.506 19.406Z" fill="#222222"/>
</svg>
