<svg width="64" height="64" viewBox="0 0 64 64" fill="none" xmlns="http://www.w3.org/2000/svg">
<path fill-rule="evenodd" clip-rule="evenodd" d="M7.50605 6.07505C6.21605 6.38305 5.59505 8.01005 6.35605 9.08705C6.91105 9.87405 7.23205 9.96805 9.49305 10.01C10.611 10.031 11.524 10.094 11.598 10.155C11.671 10.214 11.779 10.438 11.838 10.652C11.898 10.865 13.509 18.3261 15.418 27.2311C17.328 36.1361 18.911 43.48 18.937 43.551C18.965 43.627 18.689 43.819 18.265 44.017C16.858 44.677 15.652 45.82 14.848 47.253C13.78 49.157 13.78 52.1771 14.848 54.0801C16.251 56.583 18.541 57.9491 21.333 57.9491C24.125 57.9491 26.415 56.583 27.819 54.0801C28.807 52.319 28.884 49.592 28.004 47.5471C27.928 47.3701 28.222 47.3601 33.333 47.3601C38.445 47.3601 38.738 47.3701 38.663 47.5471C37.783 49.592 37.86 52.319 38.848 54.0801C40.251 56.583 42.541 57.9491 45.333 57.9491C48.125 57.9491 50.415 56.583 51.819 54.0801C52.886 52.1771 52.886 49.157 51.819 47.253C50.813 45.459 49.253 44.1851 47.36 43.6101L46.56 43.3671L34.853 43.3321L23.146 43.298L22.995 43.062C22.912 42.933 22.692 42.1311 22.507 41.28C22.3839 40.7024 22.2545 40.126 22.119 39.551C22.071 39.379 22.871 39.366 35.381 39.336C48.665 39.304 48.695 39.3041 49.316 39.077C50.643 38.592 51.557 37.723 52.103 36.427C52.325 35.9 55.895 23.691 56.766 20.48C56.946 19.818 57.012 19.286 57.012 18.507C57.013 17.481 56.997 17.408 56.599 16.611C55.975 15.359 55.092 14.635 53.683 14.216C53.113 14.046 51.702 14.03 34.863 13.999L16.659 13.965L16.544 13.463C16.481 13.186 16.256 12.169 16.045 11.203C15.607 9.20005 15.424 8.66005 14.949 7.97005C14.221 6.91105 13.086 6.26705 11.629 6.08605C10.615 5.96005 8.01705 5.95305 7.50605 6.07505ZM52.962 18.282C53.113 18.512 53.114 18.606 52.97 19.215C52.716 20.298 48.55 34.6571 48.4 34.9701L48.264 35.253L34.753 35.28C21.952 35.306 21.238 35.298 21.186 35.12C21.156 35.018 20.357 31.309 19.411 26.88L17.604 18.427L17.516 18.0271H52.795L52.962 18.282ZM22.544 47.576C23.766 48.034 24.64 49.322 24.64 50.667C24.64 52.0111 23.766 53.3 22.544 53.757C20.826 54.399 18.867 53.535 18.233 51.855C17.942 51.085 17.983 49.8781 18.32 49.2211C18.717 48.4501 19.596 47.696 20.373 47.46C20.903 47.298 21.952 47.355 22.544 47.576ZM46.544 47.576C47.318 47.8661 48.134 48.6821 48.424 49.4561C48.894 50.7131 48.606 52.0571 47.665 52.9981C46.349 54.314 44.317 54.314 43.002 52.9981C42.26 52.2561 41.99 51.532 42.052 50.453C42.106 49.511 42.337 48.995 42.998 48.333C43.725 47.607 44.259 47.384 45.303 47.369C45.727 47.363 46.173 47.438 46.544 47.576Z" fill="#222222"/>
</svg>
