<svg width="64" height="64" viewBox="0 0 64 64" fill="none" xmlns="http://www.w3.org/2000/svg">
<path fill-rule="evenodd" clip-rule="evenodd" d="M7.50605 6.07504C6.21605 6.38304 5.59505 8.01004 6.35605 9.08704C6.86405 9.80604 7.29005 9.96004 8.90505 10.008C10.496 10.055 10.597 10.102 10.759 10.864C10.818 11.137 12.193 18.56 13.816 27.36C16.055 39.497 16.819 43.445 16.983 43.714C17.102 43.908 17.394 44.196 17.632 44.354L18.064 44.64H33.219C47.003 44.64 48.429 44.624 48.987 44.463C50.259 44.097 51.267 43.261 51.841 42.094C52.102 41.564 52.675 39.239 54.618 30.821C55.964 24.989 57.12 19.827 57.187 19.35C57.525 16.937 56.232 14.907 53.92 14.221C53.319 14.043 52.129 14.03 34.32 13.999C22.571 13.979 15.36 13.928 15.36 13.866C15.36 13.584 14.583 9.68604 14.436 9.22704C14.17 8.40104 13.797 7.83804 13.093 7.20104C12.331 6.51104 11.62 6.21304 10.403 6.07304C9.41005 5.95904 7.98805 5.96004 7.50605 6.07504ZM53.174 18.28C53.377 18.59 53.51 17.951 50.766 29.854C48.311 40.5 48.351 40.341 48.134 40.507C47.996 40.612 45.031 40.64 34.136 40.64H20.313L18.891 32.933L16.805 21.627L16.141 18.027H53.008L53.174 18.28ZM20.907 48.719C19.08 48.869 17.409 50.227 16.884 51.987C16.678 52.678 16.68 53.99 16.888 54.689C17.303 56.088 18.574 57.362 19.968 57.776C20.662 57.982 22.005 57.982 22.698 57.776C24.091 57.363 25.364 56.088 25.778 54.692C25.982 54.007 25.982 52.66 25.778 51.974C25.169 49.922 23.098 48.538 20.907 48.719ZM47.573 48.719C46.137 48.837 44.804 49.678 44.003 50.973C43.172 52.315 43.173 54.353 44.003 55.693C44.615 56.682 45.616 57.474 46.635 57.776C47.328 57.982 48.672 57.982 49.365 57.776C50.758 57.363 52.03 56.088 52.445 54.692C52.648 54.007 52.648 52.66 52.445 51.974C51.835 49.922 49.765 48.538 47.573 48.719ZM21.778 52.87C22.183 53.236 21.898 53.973 21.352 53.973C21.2257 53.9746 21.1016 53.9391 20.9953 53.8709C20.8889 53.8027 20.8048 53.7048 20.7535 53.5894C20.7022 53.4739 20.6859 53.3459 20.7066 53.2212C20.7274 53.0966 20.7842 52.9807 20.87 52.888C21.09 52.646 21.521 52.637 21.778 52.87ZM48.445 52.87C48.85 53.236 48.565 53.973 48.019 53.973C47.8927 53.9746 47.7687 53.9391 47.6623 53.8709C47.5559 53.8027 47.4718 53.7048 47.4205 53.5894C47.3692 53.4739 47.3529 53.3459 47.3736 53.2212C47.3944 53.0966 47.4512 52.9807 47.537 52.888C47.756 52.646 48.187 52.637 48.445 52.87Z" fill="#222222"/>
</svg>
