<svg width="64" height="64" viewBox="0 0 64 64" fill="none" xmlns="http://www.w3.org/2000/svg">
<path fill-rule="evenodd" clip-rule="evenodd" d="M30.879 8.74602C25.463 9.22102 20.851 13.229 19.684 18.474L19.506 19.273L16.72 19.347C15.187 19.387 13.616 19.465 13.23 19.52C11.571 19.755 10.218 20.406 9.11202 21.503C7.49502 23.106 6.85102 25.18 7.14402 27.84C7.34402 29.663 10.542 48.711 10.83 49.799C11.578 52.624 13.541 54.524 16.32 55.114C17.169 55.294 18.167 55.307 32 55.307C45.833 55.307 46.831 55.294 47.68 55.114C50.459 54.524 52.422 52.624 53.17 49.799C53.458 48.711 56.656 29.663 56.856 27.84C57.149 25.18 56.505 23.106 54.888 21.503C53.782 20.406 52.429 19.755 50.77 19.52C50.384 19.465 48.813 19.387 47.28 19.347L44.494 19.273L44.316 18.474C42.968 12.416 37.139 8.19602 30.879 8.74602ZM34.613 13.052C36.023 13.515 36.945 14.096 38.09 15.242C39.169 16.322 39.724 17.168 40.181 18.426C40.316 18.798 40.427 19.149 40.427 19.205C40.427 19.269 37.279 19.307 32 19.307C26.721 19.307 23.573 19.269 23.573 19.205C23.573 18.966 24.097 17.691 24.476 17.007C25.026 16.015 26.674 14.363 27.659 13.817C29.291 12.913 30.261 12.685 32.267 12.735C33.527 12.766 33.893 12.815 34.613 13.052ZM50.962 23.596C51.579 23.8365 52.1058 24.2633 52.469 24.817C52.929 25.511 53.036 26.15 52.9 27.392C52.779 28.495 49.724 46.981 49.443 48.309C49.142 49.732 48.646 50.448 47.573 51.004L47.093 51.253H16.907L16.394 50.992C16.0001 50.7896 15.6502 50.5111 15.3645 50.1726C15.0789 49.8342 14.8633 49.4424 14.73 49.02C14.489 48.24 11.395 29.887 11.142 27.733C10.957 26.168 11.038 25.561 11.529 24.82C12.047 24.037 12.668 23.642 13.653 23.468C13.917 23.421 22.317 23.39 32.32 23.398C49.214 23.412 50.539 23.426 50.962 23.596Z" fill="#222222"/>
</svg>
