<svg width="64" height="64" viewBox="0 0 64 64" fill="none" xmlns="http://www.w3.org/2000/svg">
<path fill-rule="evenodd" clip-rule="evenodd" d="M30.4 14.088C23.523 14.555 16.442 18.132 9.28502 24.754C5.82302 27.958 5.04302 29.384 5.14702 32.32C5.23102 34.696 5.81602 35.819 8.20102 38.189C15.423 45.363 23.241 49.461 30.563 49.909C37.121 50.31 43.752 47.942 50.56 42.765C53.443 40.573 56.873 37.329 57.782 35.933C58.617 34.65 58.827 33.863 58.827 32C58.827 30.653 58.793 30.352 58.569 29.667C58.177 28.469 57.435 27.436 55.799 25.811C49.435 19.489 42.48 15.487 35.885 14.353C35.058 14.211 32.056 13.949 31.733 13.99C31.675 13.998 31.075 14.042 30.4 14.088ZM35.36 18.287C38.989 18.96 42.96 20.725 46.683 23.321C49.674 25.406 53.992 29.327 54.647 30.552C54.839 30.911 54.879 31.163 54.879 32C54.879 33.356 54.728 33.623 52.973 35.36C47.128 41.146 41.152 44.641 35.253 45.724C33.749 46 30.251 46 28.747 45.724C24.995 45.035 21.097 43.315 17.317 40.679C14.326 38.594 10.008 34.673 9.35302 33.448C9.16102 33.089 9.12102 32.837 9.12102 32C9.12102 30.626 9.26202 30.383 11.138 28.533C17.102 22.652 23.265 19.129 29.227 18.194C30.567 17.984 34.006 18.036 35.36 18.287ZM31.093 24.742C28.737 25.025 26.74 26.401 25.514 28.587C24.447 30.49 24.447 33.51 25.514 35.413C26.918 37.916 29.208 39.282 32 39.282C34.792 39.282 37.082 37.916 38.486 35.413C39.553 33.51 39.553 30.49 38.486 28.587C36.951 25.85 34.122 24.379 31.093 24.742ZM33.211 28.91C33.985 29.199 34.801 30.015 35.09 30.789C35.56 32.046 35.272 33.39 34.331 34.331C33.016 35.647 30.984 35.647 29.669 34.331C28.927 33.589 28.656 32.866 28.719 31.787C28.773 30.845 29.003 30.329 29.665 29.667C30.391 28.94 30.925 28.717 31.969 28.703C32.394 28.697 32.84 28.771 33.211 28.91Z" fill="#222222"/>
</svg>
