<svg width="64" height="64" viewBox="0 0 64 64" fill="none" xmlns="http://www.w3.org/2000/svg">
<path fill-rule="evenodd" clip-rule="evenodd" d="M36.839 11.406C36.369 11.521 35.897 11.882 35.608 12.349L35.36 12.747V27.288L35.68 27.741C35.856 27.99 36.192 28.295 36.427 28.417C36.845 28.635 36.994 28.641 43.672 28.67C48.42 28.692 50.665 28.664 51.068 28.581C52.828 28.215 53.199 25.903 51.651 24.941L51.253 24.693L45.311 24.662L39.368 24.632L39.338 18.742C39.307 13.008 39.301 12.842 39.084 12.427C38.676 11.645 37.69 11.197 36.839 11.406ZM12.839 35.406C11.547 35.722 10.928 37.344 11.689 38.421C11.86 38.663 12.192 38.961 12.427 39.084C12.842 39.301 13.008 39.307 18.742 39.338L24.632 39.368L24.662 45.311L24.693 51.253L24.941 51.651C25.903 53.199 28.215 52.828 28.581 51.068C28.664 50.665 28.692 48.42 28.67 43.672C28.641 36.994 28.635 36.845 28.417 36.427C28.295 36.192 27.991 35.856 27.741 35.68L27.288 35.36L20.231 35.342C16.349 35.333 13.023 35.362 12.839 35.406Z" fill="#222222"/>
</svg>
