<svg width="64" height="64" viewBox="0 0 64 64" fill="none" xmlns="http://www.w3.org/2000/svg">
<path fill-rule="evenodd" clip-rule="evenodd" d="M47.506 8.742C47.041 8.852 46.565 9.213 46.283 9.67C46.008 10.115 45.955 11.081 46.182 11.52C46.258 11.667 47.398 12.872 48.716 14.199L51.112 16.611L47.396 16.669C43.264 16.732 42.433 16.827 40.571 17.442C38.585 18.099 36.181 19.49 35.653 20.289C35.095 21.131 35.366 22.356 36.246 22.978C36.613 23.237 36.792 23.289 37.319 23.289C37.916 23.289 38.012 23.25 39.003 22.608C40.195 21.835 41.29 21.332 42.516 20.994C43.297 20.778 43.652 20.758 47.253 20.72L51.147 20.68L48.733 23.113C47.406 24.452 46.258 25.666 46.182 25.813C46.106 25.959 46.044 26.357 46.044 26.696C46.044 27.206 46.098 27.39 46.356 27.754C46.527 27.996 46.848 28.288 47.07 28.403C47.566 28.659 48.37 28.674 48.869 28.437C49.072 28.341 51.15 26.343 53.513 23.972C57.589 19.882 57.796 19.656 57.896 19.173C57.965 18.841 57.965 18.493 57.896 18.16C57.796 17.677 57.589 17.451 53.513 13.362C51.161 11.001 49.09 9.003 48.911 8.921C48.469 8.718 47.908 8.646 47.506 8.742ZM7.50598 16.742C6.21598 17.049 5.59498 18.677 6.35598 19.754C6.52698 19.996 6.85898 20.295 7.09298 20.417C7.50898 20.634 7.69598 20.642 14.08 20.702C21.394 20.771 21.009 20.733 23.069 21.574C25.57 22.595 27.956 24.929 28.985 27.36C29.722 29.099 29.846 29.677 30.023 32.191C30.188 34.522 30.364 35.534 30.85 36.96C32.365 41.402 35.931 44.968 40.373 46.483C42.396 47.173 44.052 47.356 48.317 47.358L51.141 47.36L48.73 49.787C47.404 51.121 46.258 52.333 46.182 52.48C46.106 52.626 46.044 53.024 46.044 53.363C46.044 53.873 46.098 54.057 46.356 54.421C46.527 54.663 46.848 54.955 47.07 55.069C47.566 55.326 48.37 55.341 48.869 55.104C49.072 55.008 51.15 53.01 53.513 50.638C57.589 46.549 57.796 46.323 57.896 45.84C57.965 45.5059 57.965 45.1611 57.896 44.827C57.796 44.344 57.589 44.118 53.513 40.028C51.098 37.605 49.074 35.66 48.863 35.56C48.316 35.3 47.468 35.329 46.99 35.625C46.371 36.007 46.044 36.59 46.044 37.313C46.044 37.647 46.106 38.041 46.182 38.187C46.258 38.334 47.406 39.548 48.733 40.887L51.147 43.32L47.253 43.277C42.936 43.228 42.879 43.221 40.931 42.426C38.315 41.358 35.961 38.99 34.889 36.35C34.294 34.883 34.139 34.111 33.976 31.799C33.809 29.431 33.635 28.456 33.115 26.948C31.601 22.565 28.035 19.021 23.627 17.517C22.372 17.089 21.295 16.874 19.758 16.747C18.312 16.627 8.00498 16.623 7.50598 16.742ZM26.187 40.739C26.011 40.784 25.412 41.116 24.857 41.476C23.8138 42.1669 22.6665 42.6862 21.459 43.014C20.675 43.233 20.359 43.245 14.027 43.301L7.41298 43.36L7.00598 43.613C6.35998 44.015 6.04398 44.582 6.04398 45.342C6.04398 45.875 6.09598 46.053 6.35598 46.421C6.52698 46.663 6.85898 46.961 7.09298 47.084C7.51198 47.303 7.63398 47.307 13.867 47.303C20.925 47.3 21.227 47.276 23.421 46.559C25.375 45.92 27.818 44.511 28.341 43.721C28.688 43.197 28.719 42.348 28.412 41.754C28.014 40.984 27.015 40.528 26.187 40.739Z" fill="#222222"/>
</svg>
