<svg width="64" height="64" viewBox="0 0 64 64" fill="none" xmlns="http://www.w3.org/2000/svg">
<path fill-rule="evenodd" clip-rule="evenodd" d="M33.973 16.708C31.528 16.941 29.454 17.858 27.75 19.458C26.346 20.776 25.216 22.891 24.834 24.912C24.725 25.487 24.693 27.638 24.693 34.507C24.693 42.753 24.707 43.403 24.887 43.986C25.1101 44.7237 25.5117 45.3949 26.0563 45.9402C26.6009 46.4855 27.2716 46.888 28.009 47.112C28.58 47.288 29.09 47.307 33.333 47.307C37.577 47.307 38.087 47.288 38.658 47.112C39.3953 46.8878 40.0659 46.4853 40.6105 45.94C41.1551 45.3947 41.5568 44.7236 41.78 43.986C41.954 43.422 41.973 42.897 41.973 38.667C41.973 34.423 41.955 33.913 41.778 33.342C41.5557 32.6145 41.1605 31.9518 40.6262 31.4103C40.0919 30.8689 39.4344 30.465 38.71 30.233C38.209 30.072 37.512 30.042 33.413 30L28.693 29.952V27.852C28.693 25.505 28.79 24.93 29.361 23.857C30.025 22.611 31.282 21.511 32.606 21.015C32.927 20.895 33.648 20.749 34.206 20.691C34.765 20.633 35.388 20.507 35.591 20.411C36.342 20.055 36.768 19.099 36.569 18.215C36.321 17.113 35.391 16.572 33.973 16.708ZM37.778 34.203C37.961 34.369 37.973 34.648 37.973 38.648C37.973 42.47 37.955 42.937 37.797 43.112C37.631 43.294 37.352 43.307 33.352 43.307C29.53 43.307 29.063 43.288 28.888 43.13C28.705 42.964 28.693 42.679 28.693 38.49V34.027H33.138C37.125 34.027 37.603 34.045 37.778 34.203Z" fill="#222222"/>
</svg>
