<svg width="64" height="64" viewBox="0 0 64 64" fill="none" xmlns="http://www.w3.org/2000/svg">
<path fill-rule="evenodd" clip-rule="evenodd" d="M28.96 16.7369C28.022 16.8339 27.503 17.0059 26.827 17.4419C25.872 18.0579 25.226 18.9159 24.887 20.0139C24.712 20.5779 24.693 21.1029 24.693 25.3329C24.693 29.5769 24.712 30.0869 24.888 30.6579C25.1105 31.3855 25.5059 32.0483 26.0403 32.5897C26.5748 33.1311 27.2324 33.535 27.957 33.7669C28.457 33.9279 29.154 33.9579 33.253 33.9999L37.973 34.0479V36.1479C37.973 38.4949 37.877 39.0699 37.305 40.1429C36.64 41.3909 35.385 42.4889 34.054 42.9869C33.73 43.1079 32.982 43.2539 32.392 43.3099C31.172 43.4259 30.707 43.6509 30.289 44.3279C29.916 44.9309 29.944 45.8389 30.356 46.4209C30.821 47.0799 31.335 47.3019 32.343 47.2799C35.295 47.2169 38.139 45.7539 39.976 43.3509C40.454 42.7269 41.134 41.4289 41.434 40.5699C41.969 39.0399 41.973 38.9499 41.973 29.4929C41.973 21.2209 41.961 20.5989 41.778 20.0089C41.556 19.2814 41.1609 18.6186 40.6265 18.0773C40.0922 17.536 39.4346 17.1324 38.71 16.9009C38.212 16.7419 37.561 16.7129 33.92 16.6879C31.603 16.6729 29.371 16.6949 28.96 16.7369ZM37.778 20.8699C37.961 21.0359 37.973 21.3209 37.973 25.5099V29.9729H33.528C29.542 29.9729 29.063 29.9549 28.888 29.7969C28.706 29.6309 28.693 29.3519 28.693 25.3519C28.693 21.5299 28.712 21.0629 28.87 20.8879C29.035 20.7059 29.315 20.6929 33.315 20.6929C37.137 20.6929 37.604 20.7119 37.778 20.8699Z" fill="#222222"/>
</svg>
