<svg width="64" height="64" viewBox="0 0 64 64" fill="none" xmlns="http://www.w3.org/2000/svg">
<path fill-rule="evenodd" clip-rule="evenodd" d="M18.172 11.406C17.702 11.521 17.231 11.882 16.941 12.349L16.693 12.747V51.253L16.941 51.651C17.893 53.182 20.204 52.831 20.575 51.099C20.655 50.73 20.694 48.201 20.697 43.381L20.7 36.213L20.924 36.514C21.295 37.011 22.768 38.138 24.25 39.059C26.073 40.191 35.921 45.937 37.707 46.91C40.041 48.182 41.414 48.636 42.938 48.638C45.4 48.643 47.918 47.113 48.999 44.957C49.354 44.248 49.669 43.062 49.834 41.813C50.025 40.372 50.025 23.628 49.834 22.187C49.408 18.964 48.255 17.201 45.813 16.041C43.33 14.862 41.246 15.141 37.605 17.141C35.804 18.131 25.937 23.893 24.25 24.941C22.736 25.882 21.229 27.041 20.933 27.494C20.755 27.765 20.744 27.459 20.693 20.315C20.641 13.008 20.635 12.845 20.417 12.427C20.009 11.645 19.024 11.197 18.172 11.406Z" fill="#222222"/>
</svg>
