<svg width="64" height="64" viewBox="0 0 64 64" fill="none" xmlns="http://www.w3.org/2000/svg">
<path d="M43.6081 12.349C43.8971 11.882 44.3691 11.521 44.8391 11.406C45.6901 11.197 46.676 11.645 47.084 12.427L47.307 12.853L47.335 31.68C47.355 45.119 47.33 50.67 47.246 51.076C46.883 52.828 44.5671 53.194 43.6081 51.651L43.3601 51.253L43.307 43.738C43.256 36.543 43.2451 36.235 43.0671 36.506C42.7711 36.959 41.264 38.118 39.75 39.059C37.927 40.191 28.079 45.937 26.293 46.91C22.712 48.861 20.649 49.128 18.187 47.959C15.762 46.807 14.622 45.08 14.165 41.867C13.97 40.492 13.97 23.508 14.165 22.133C14.622 18.92 15.762 17.193 18.187 16.041C20.67 14.862 22.754 15.141 26.395 17.141C28.196 18.131 38.063 23.893 39.75 24.941C41.264 25.882 42.7711 27.041 43.0671 27.494C43.2451 27.765 43.256 27.457 43.307 20.262L43.3601 12.747L43.6081 12.349Z" fill="#222222"/>
</svg>
