<svg width="64" height="64" viewBox="0 0 64 64" fill="none" xmlns="http://www.w3.org/2000/svg">
<path fill-rule="evenodd" clip-rule="evenodd" d="M44.8391 11.406C44.3691 11.521 43.8971 11.882 43.6081 12.349L43.3601 12.747L43.307 20.262C43.256 27.457 43.2451 27.765 43.0671 27.494C42.7711 27.041 41.264 25.882 39.75 24.941C38.063 23.893 28.196 18.131 26.395 17.141C22.754 15.141 20.67 14.862 18.187 16.041C15.762 17.193 14.622 18.92 14.165 22.133C13.97 23.508 13.97 40.492 14.165 41.867C14.622 45.08 15.762 46.807 18.187 47.959C20.649 49.128 22.712 48.861 26.293 46.91C28.079 45.937 37.927 40.191 39.75 39.059C41.264 38.118 42.7711 36.959 43.0671 36.506C43.2451 36.235 43.256 36.543 43.307 43.738L43.3601 51.253L43.6081 51.651C44.5671 53.194 46.883 52.828 47.246 51.076C47.33 50.67 47.355 45.119 47.335 31.68L47.307 12.853L47.084 12.427C46.676 11.645 45.6901 11.197 44.8391 11.406ZM22.09 19.505C23.256 19.907 24.6791 20.692 32.2131 25.096C37.3781 28.114 39.0911 29.188 39.8311 29.87C41.0401 30.984 41.0401 33.016 39.8311 34.13C39.0601 34.841 37.33 35.915 31.147 39.52C22.137 44.774 21.729 44.963 20.327 44.541C19.194 44.2 18.472 43.382 18.225 42.16C18.012 41.105 18.012 22.895 18.225 21.84C18.468 20.639 19.19 19.807 20.285 19.465C20.93 19.264 21.42 19.275 22.09 19.505Z" fill="#222222"/>
</svg>
