<svg width="64" height="64" viewBox="0 0 64 64" fill="none" xmlns="http://www.w3.org/2000/svg">
<path fill-rule="evenodd" clip-rule="evenodd" d="M26.1719 8.73803C25.7019 8.85503 25.2299 9.21603 24.9409 9.68203C24.7099 10.053 24.6909 10.21 24.6569 12.024L24.6199 13.967L16.0169 13.997L7.41295 14.027L7.00595 14.28C6.35995 14.681 6.04395 15.249 6.04395 16.009C6.04395 16.542 6.09595 16.719 6.35595 17.087C6.52695 17.329 6.85895 17.628 7.09295 17.751C7.51395 17.97 7.63494 17.974 16.0699 18.003L24.6199 18.033L24.6569 19.976C24.6909 21.79 24.7099 21.947 24.9409 22.318C25.8929 23.849 28.2039 23.498 28.5749 21.766C28.7309 21.042 28.7329 10.915 28.5779 10.242C28.3269 9.15203 27.2409 8.47303 26.1719 8.73803ZM36.8389 14.075C35.5489 14.383 34.9279 16.01 35.6889 17.087C35.8599 17.329 36.1919 17.628 36.4269 17.751C36.8489 17.971 36.9549 17.974 46.3429 18.003C53.0189 18.024 56.0029 17.997 56.4059 17.913C58.4059 17.498 58.4799 14.595 56.5029 14.097C55.9449 13.956 37.4229 13.936 36.8389 14.075ZM42.1719 24.738C41.7019 24.855 41.2299 25.216 40.9409 25.682C40.7099 26.053 40.6909 26.21 40.6569 28.025L40.6199 29.97L24.0169 29.998L7.41295 30.027L7.00595 30.28C6.35995 30.681 6.04395 31.249 6.04395 32.009C6.04395 32.542 6.09595 32.719 6.35595 33.087C6.52695 33.329 6.85895 33.628 7.09295 33.751L7.51995 33.973L24.0699 34.002L40.6199 34.03L40.6569 35.975C40.6909 37.79 40.7099 37.947 40.9409 38.318C41.8929 39.849 44.2039 39.498 44.5749 37.766C44.7309 37.042 44.7329 26.915 44.5779 26.242C44.3269 25.152 43.2409 24.473 42.1719 24.738ZM52.8389 30.075C51.5489 30.383 50.9279 32.01 51.6889 33.087C52.2039 33.816 52.6199 33.963 54.3009 34.01C56.1939 34.062 56.8419 33.932 57.3849 33.388C58.4479 32.325 57.9479 30.461 56.5029 30.097C55.9679 29.962 53.3769 29.947 52.8389 30.075ZM15.5059 40.738C15.0349 40.855 14.5639 41.216 14.2739 41.682C14.0429 42.053 14.0239 42.21 13.9899 44.02L13.9529 45.96L10.6749 45.993L7.39694 46.027L6.96495 46.313C6.32495 46.737 6.04395 47.256 6.04395 48.018C6.04395 48.541 6.09695 48.721 6.35595 49.087C6.95995 49.943 7.08395 49.969 10.7369 50.007L13.9529 50.041L13.9899 51.98C14.0239 53.79 14.0429 53.947 14.2739 54.318C15.2259 55.849 17.5369 55.498 17.9089 53.766C18.0639 53.042 18.0659 42.915 17.9109 42.242C17.6599 41.152 16.5739 40.473 15.5059 40.738ZM26.1719 46.075C24.8829 46.383 24.2609 48.01 25.0219 49.087C25.1929 49.329 25.5249 49.628 25.7599 49.751C26.1859 49.973 26.2109 49.973 41.0129 50.002C51.5469 50.022 56.0049 49.996 56.4099 49.912C58.4069 49.498 58.4779 46.594 56.5029 46.097C55.9429 45.956 26.7599 45.935 26.1719 46.075Z" fill="#222222"/>
</svg>
