<svg width="64" height="64" viewBox="0 0 64 64" fill="none" xmlns="http://www.w3.org/2000/svg">
<path fill-rule="evenodd" clip-rule="evenodd" d="M42.24 15.5149C39.034 16.2009 36.431 18.6759 35.619 21.8129C35.31 23.0049 35.31 24.9949 35.619 26.1869C36.377 29.1109 38.717 31.4909 41.676 32.3449C42.871 32.6899 45.129 32.6899 46.324 32.3449C49.138 31.5329 51.46 29.2809 52.271 26.5799C52.463 25.9409 52.536 25.8139 52.679 25.8769C52.775 25.9189 53.505 25.9749 54.301 26.0019C56.192 26.0649 56.837 25.9359 57.385 25.3879C58.448 24.3249 57.948 22.4609 56.503 22.0969C55.935 21.9539 53.466 21.9349 52.887 22.0699L52.493 22.1609L52.265 21.4009C51.461 18.7189 49.009 16.3669 46.24 15.6189C45.361 15.3819 43.133 15.3239 42.24 15.5149ZM44.804 19.4139C45.4277 19.5316 46.0216 19.7727 46.5508 20.123C47.0801 20.4733 47.534 20.9258 47.886 21.4539C48.411 22.2409 48.64 23.0139 48.64 23.9999C48.64 24.9859 48.411 25.7589 47.886 26.5459C47.5072 27.1243 47.0038 27.6107 46.4128 27.9694C45.8217 28.3281 45.1579 28.5501 44.4699 28.6191C43.782 28.6882 43.0873 28.6025 42.4367 28.3683C41.7862 28.1342 41.1962 27.7575 40.71 27.2659C39.76 26.3149 39.362 25.3519 39.362 23.9999C39.362 22.6479 39.76 21.6849 40.71 20.7339C41.823 19.6219 43.332 19.1349 44.804 19.4139ZM7.50605 22.0749C6.21605 22.3829 5.59505 24.0099 6.35605 25.0869C6.52705 25.3289 6.85905 25.6279 7.09305 25.7509C7.51505 25.9709 7.62105 25.9739 17.01 26.0029C23.685 26.0239 26.669 25.9969 27.073 25.9129C29.073 25.4979 29.147 22.5949 27.17 22.0969C26.611 21.9559 8.09005 21.9359 7.50605 22.0749ZM18.24 31.5149C16.855 31.8109 15.754 32.3379 14.596 33.2579C13.274 34.3089 12.084 36.0319 11.732 37.4039L11.591 37.9549L9.50205 37.9909C7.52205 38.0249 7.39205 38.0399 7.00605 38.2799C6.36005 38.6809 6.04405 39.2489 6.04405 40.0089C6.04405 40.5419 6.09605 40.7189 6.35605 41.0869C6.91505 41.8789 7.22505 41.9679 9.55605 42.0099L11.591 42.0459L11.732 42.5959C11.81 42.8979 12.053 43.4929 12.273 43.9179C12.8296 44.9813 13.5949 45.9215 14.5233 46.6822C15.4517 47.4428 16.524 48.0084 17.676 48.3449C18.871 48.6899 21.129 48.6899 22.324 48.3449C25.283 47.4909 27.623 45.1109 28.381 42.1869C28.548 41.5449 28.602 41.0029 28.602 39.9999C28.602 38.4419 28.379 37.4069 27.78 36.1859C26.734 34.0509 24.535 32.2389 22.24 31.6189C21.361 31.3819 19.133 31.3239 18.24 31.5149ZM20.804 35.4139C21.4277 35.5316 22.0216 35.7727 22.5508 36.123C23.0801 36.4733 23.534 36.9258 23.886 37.4539C24.411 38.2409 24.64 39.0139 24.64 39.9999C24.64 40.9859 24.411 41.7589 23.886 42.5459C23.5072 43.1243 23.0038 43.6107 22.4128 43.9694C21.8217 44.3281 21.1579 44.5501 20.4699 44.6191C19.782 44.6882 19.0873 44.6025 18.4367 44.3683C17.7862 44.1342 17.1962 43.7575 16.71 43.2659C15.76 42.3149 15.362 41.3519 15.362 39.9999C15.362 38.6479 15.76 37.6849 16.71 36.7339C17.823 35.6219 19.332 35.1349 20.804 35.4139ZM36.839 38.0749C35.549 38.3829 34.928 40.0099 35.689 41.0869C35.86 41.3289 36.192 41.6279 36.427 41.7509C36.849 41.9709 36.955 41.9739 46.343 42.0029C53.019 42.0239 56.003 41.9969 56.406 41.9129C58.406 41.4979 58.48 38.5949 56.503 38.0969C55.945 37.9559 37.423 37.9359 36.839 38.0749Z" fill="#222222"/>
</svg>
