<svg width="64" height="64" viewBox="0 0 64 64" fill="none" xmlns="http://www.w3.org/2000/svg">
<path fill-rule="evenodd" clip-rule="evenodd" d="M26.24 7.51495C23.034 8.20095 20.431 10.6759 19.619 13.8129C19.31 15.0049 19.31 16.9949 19.619 18.1869C20.377 21.1109 22.717 23.4909 25.676 24.3449C26.871 24.6899 29.129 24.6899 30.324 24.3449C31.4761 24.0084 32.5484 23.4428 33.4768 22.6822C34.4052 21.9215 35.1705 20.9813 35.727 19.9179C35.947 19.4929 36.191 18.8939 36.27 18.5859L36.414 18.0269H46.148C52.855 18.0269 56.054 17.9899 56.433 17.9089C58.41 17.4849 58.463 14.5899 56.503 14.0969C56.149 14.0079 53.287 13.9729 46.213 13.9729H36.414L36.27 13.4139C36.07 12.6319 35.431 11.4399 34.762 10.5989C33.696 9.25895 31.879 8.06195 30.24 7.61895C29.361 7.38195 27.133 7.32395 26.24 7.51495ZM28.804 11.4139C29.4277 11.5316 30.0216 11.7727 30.5508 12.123C31.0801 12.4733 31.534 12.9258 31.886 13.4539C32.411 14.2409 32.64 15.0139 32.64 15.9999C32.64 16.9859 32.411 17.7589 31.886 18.5459C31.5072 19.1243 31.0038 19.6107 30.4128 19.9694C29.8217 20.3281 29.1579 20.5501 28.4699 20.6191C27.782 20.6882 27.0873 20.6025 26.4367 20.3683C25.7862 20.1342 25.1962 19.7575 24.71 19.2659C23.76 18.3149 23.362 17.3519 23.362 15.9999C23.362 14.6479 23.76 13.6849 24.71 12.7339C25.823 11.6219 27.332 11.1349 28.804 11.4139ZM7.50605 14.0749C6.21605 14.3829 5.59505 16.0099 6.35605 17.0869C6.87005 17.8159 7.28705 17.9629 8.96705 18.0099C10.861 18.0619 11.508 17.9319 12.052 17.3879C13.115 16.3249 12.615 14.4609 11.17 14.0969C10.634 13.9619 8.04405 13.9469 7.50605 14.0749ZM42.24 23.5149C39.034 24.2009 36.431 26.6759 35.619 29.8129C35.31 31.0049 35.31 32.9949 35.619 34.1869C36.377 37.1109 38.717 39.4909 41.676 40.3449C42.871 40.6899 45.129 40.6899 46.324 40.3449C49.138 39.5329 51.46 37.2809 52.271 34.5799C52.463 33.9409 52.536 33.8139 52.679 33.8769C52.775 33.9189 53.505 33.9749 54.301 34.0019C56.192 34.0649 56.837 33.9359 57.385 33.3879C58.448 32.3249 57.948 30.4609 56.503 30.0969C55.935 29.9539 53.466 29.9349 52.887 30.0699L52.493 30.1609L52.265 29.4009C51.461 26.7189 49.009 24.3669 46.24 23.6189C45.361 23.3819 43.133 23.3239 42.24 23.5149ZM44.804 27.4139C45.4277 27.5316 46.0216 27.7727 46.5508 28.123C47.0801 28.4733 47.534 28.9258 47.886 29.4539C48.411 30.2409 48.64 31.0139 48.64 31.9999C48.64 32.9859 48.411 33.7589 47.886 34.5459C47.5072 35.1243 47.0038 35.6107 46.4128 35.9694C45.8217 36.3281 45.1579 36.5501 44.4699 36.6191C43.782 36.6882 43.0873 36.6025 42.4367 36.3683C41.7862 36.1342 41.1962 35.7575 40.71 35.2659C39.76 34.3149 39.362 33.3519 39.362 31.9999C39.362 30.6479 39.76 29.6849 40.71 28.7339C41.823 27.6219 43.332 27.1349 44.804 27.4139ZM7.50605 30.0749C6.21605 30.3829 5.59505 32.0099 6.35605 33.0869C6.52705 33.3289 6.85905 33.6279 7.09305 33.7509C7.51505 33.9709 7.62105 33.9739 17.01 34.0029C23.685 34.0239 26.669 33.9969 27.073 33.9129C29.073 33.4979 29.147 30.5949 27.17 30.0969C26.611 29.9559 8.09005 29.9359 7.50605 30.0749ZM18.24 39.5149C16.855 39.8109 15.754 40.3379 14.596 41.2579C13.274 42.3089 12.084 44.0319 11.732 45.4039L11.591 45.9549L9.50205 45.9909C7.52205 46.0249 7.39205 46.0399 7.00605 46.2799C6.36005 46.6809 6.04405 47.2489 6.04405 48.0089C6.04405 48.5419 6.09605 48.7189 6.35605 49.0869C6.91505 49.8789 7.22505 49.9679 9.55605 50.0099L11.591 50.0459L11.732 50.5959C11.81 50.8979 12.053 51.4929 12.273 51.9179C12.8296 52.9813 13.5949 53.9215 14.5233 54.6822C15.4517 55.4428 16.524 56.0084 17.676 56.3449C18.871 56.6899 21.129 56.6899 22.324 56.3449C25.283 55.4909 27.623 53.1109 28.381 50.1869C28.548 49.5449 28.602 49.0029 28.602 47.9999C28.602 46.4419 28.379 45.4069 27.78 44.1859C26.734 42.0509 24.535 40.2389 22.24 39.6189C21.361 39.3819 19.133 39.3239 18.24 39.5149ZM20.804 43.4139C21.4277 43.5316 22.0216 43.7727 22.5508 44.123C23.0801 44.4733 23.534 44.9258 23.886 45.4539C24.411 46.2409 24.64 47.0139 24.64 47.9999C24.64 48.9859 24.411 49.7589 23.886 50.5459C23.5072 51.1243 23.0038 51.6107 22.4128 51.9694C21.8217 52.3281 21.1579 52.5501 20.4699 52.6191C19.782 52.6882 19.0873 52.6025 18.4367 52.3683C17.7862 52.1342 17.1962 51.7575 16.71 51.2659C15.76 50.3149 15.362 49.3519 15.362 47.9999C15.362 46.6479 15.76 45.6849 16.71 44.7339C17.823 43.6219 19.332 43.1349 20.804 43.4139ZM36.839 46.0749C35.549 46.3829 34.928 48.0099 35.689 49.0869C35.86 49.3289 36.192 49.6279 36.427 49.7509C36.849 49.9709 36.955 49.9739 46.343 50.0029C53.019 50.0239 56.003 49.9969 56.406 49.9129C58.406 49.4979 58.48 46.5949 56.503 46.0969C55.945 45.9559 37.423 45.9359 36.839 46.0749Z" fill="#222222"/>
</svg>
