<svg width="64" height="64" viewBox="0 0 64 64" fill="none" xmlns="http://www.w3.org/2000/svg">
<path fill-rule="evenodd" clip-rule="evenodd" d="M10.172 16.7421C8.883 17.0491 8.261 18.6771 9.022 19.7541C9.193 19.9961 9.525 20.2951 9.76 20.4171C10.187 20.6401 10.192 20.6401 26.347 20.6691C37.849 20.6891 42.671 20.6631 43.076 20.5791C45.118 20.1561 45.136 17.1951 43.099 16.7581C42.466 16.6221 10.739 16.6061 10.172 16.7421ZM47.506 27.4051C47.035 27.5221 46.564 27.8831 46.274 28.3491L46.027 28.7471L45.997 37.2721L45.967 45.7971L43.49 43.3381C41.134 40.9991 40.987 40.8731 40.476 40.7651C39.546 40.5691 38.764 40.8911 38.283 41.6701C37.959 42.1941 37.953 43.1301 38.27 43.6391C38.394 43.8371 40.406 45.9031 42.741 48.2291C46.785 52.2561 47.011 52.4621 47.493 52.5621C47.824 52.6311 48.176 52.6311 48.507 52.5631C48.991 52.4641 49.209 52.2641 53.403 48.0701C57.597 43.8751 57.797 43.6571 57.897 43.1731C58.136 42.0101 57.522 40.9911 56.442 40.7601C56.144 40.6961 55.839 40.6631 55.764 40.6861C55.6132 40.7288 55.4611 40.7668 55.308 40.8001C55.08 40.8501 54.276 41.5791 52.508 43.3371L50.027 45.8031L50.024 37.5951C50.022 32.3411 49.982 29.2151 49.911 28.9091C49.66 27.8181 48.574 27.1401 47.506 27.4051ZM10.172 30.0751C8.883 30.3831 8.261 32.0101 9.022 33.0871C9.193 33.3291 9.525 33.6281 9.76 33.7511C10.184 33.9721 10.249 33.9731 22.346 34.0021C30.948 34.0231 34.672 33.9961 35.075 33.9131C37.118 33.4891 37.136 30.5281 35.099 30.0911C34.467 29.9561 10.737 29.9401 10.172 30.0751ZM10.172 43.4081C8.883 43.7161 8.261 45.3441 9.022 46.4211C9.193 46.6631 9.525 46.9611 9.76 47.0841C10.18 47.3031 10.308 47.3071 18.341 47.3371C24.053 47.3571 26.668 47.3311 27.07 47.2471C29.117 46.8221 29.14 43.8621 27.099 43.4251C26.47 43.2901 10.733 43.2741 10.172 43.4081Z" fill="#222222"/>
</svg>
