<svg width="64" height="64" viewBox="0 0 64 64" fill="none" xmlns="http://www.w3.org/2000/svg">
<path fill-rule="evenodd" clip-rule="evenodd" d="M47.733 11.357C47.675 11.378 47.483 11.426 47.307 11.465C47.071 11.517 45.866 12.653 42.741 15.768C40.406 18.095 38.394 20.163 38.27 20.361C37.953 20.87 37.959 21.806 38.283 22.33C38.753 23.091 39.575 23.423 40.503 23.229C40.98 23.128 41.176 22.96 43.49 20.662L45.967 18.203L45.997 26.728L46.027 35.253L46.274 35.651C47.226 37.182 49.537 36.831 49.909 35.099C49.989 34.725 50.027 31.941 50.027 26.373V18.197L52.507 20.659C54.818 22.953 55.021 23.129 55.493 23.228C57.037 23.552 58.217 22.373 57.896 20.827C57.796 20.344 57.59 20.118 53.562 16.074C51.236 13.739 49.189 11.74 49.013 11.632C48.703 11.442 47.95 11.28 47.733 11.357ZM10.172 16.74C8.881 17.054 8.261 18.677 9.022 19.754C9.193 19.996 9.525 20.295 9.76 20.417C10.18 20.637 10.308 20.64 18.341 20.67C24.053 20.691 26.668 20.664 27.07 20.58C28.828 20.215 29.197 17.902 27.651 16.941L27.253 16.693L18.88 16.676C14.275 16.666 10.356 16.695 10.172 16.74ZM10.172 30.075C8.883 30.383 8.261 32.01 9.022 33.087C9.193 33.329 9.525 33.628 9.76 33.751C10.184 33.972 10.249 33.973 22.346 34.002C30.948 34.023 34.672 33.996 35.075 33.913C37.073 33.498 37.145 30.594 35.17 30.097C34.61 29.956 10.758 29.935 10.172 30.075ZM10.172 43.407C8.882 43.719 8.261 45.344 9.022 46.421C9.193 46.663 9.525 46.961 9.76 47.084C10.187 47.307 10.192 47.307 26.347 47.335C37.849 47.355 42.671 47.33 43.076 47.246C44.828 46.882 45.194 44.567 43.651 43.608L43.253 43.36L26.88 43.343C17.875 43.334 10.356 43.363 10.172 43.407Z" fill="#222222"/>
</svg>
