<svg width="64" height="64" viewBox="0 0 64 64" fill="none" xmlns="http://www.w3.org/2000/svg">
<path fill-rule="evenodd" clip-rule="evenodd" d="M13.333 6.08389C11.887 6.16789 10.902 6.37989 10.103 6.77989C8.00501 7.82889 6.65101 9.63289 6.17501 12.0119C6.00501 12.8639 5.91101 47.4099 6.07201 50.1869C6.18801 52.2059 6.34701 53.0249 6.79601 53.9139C7.86101 56.0229 9.62901 57.3489 12.012 57.8249C12.473 57.9169 17.388 57.9619 30.453 57.9949C48.635 58.0399 51.439 57.9959 52.747 57.6459C55.024 57.0359 57.036 55.0239 57.646 52.7469C57.996 51.4389 58.04 48.6349 57.995 30.4529C57.962 17.3879 57.917 12.4729 57.825 12.0119C57.348 9.62889 56.023 7.86089 53.912 6.79589C53.063 6.36589 52.128 6.17389 50.4 6.07389C48.496 5.96289 15.257 5.97189 13.333 6.08389ZM52.069 10.3089C52.703 10.6019 53.398 11.2969 53.691 11.9309L53.92 12.4269V51.5729L53.691 52.0689C53.398 52.7029 52.703 53.3979 52.069 53.6909L51.573 53.9199H12.427L11.931 53.6909C11.297 53.3979 10.602 52.7029 10.309 52.0689L10.08 51.5729V12.4269L10.309 11.9309C10.726 11.0299 11.599 10.3199 12.515 10.1369C12.76 10.0879 21.648 10.0549 32.267 10.0639L51.573 10.0799L52.069 10.3089ZM30.88 16.7449C27.539 17.1269 24.596 19.1699 23.11 22.1349C22.373 23.6059 22.258 24.2639 22.604 25.0259C22.995 25.8859 23.939 26.3209 24.891 26.0789C25.556 25.9099 26.057 25.4149 26.346 24.6409C27.048 22.7639 28.831 21.1939 30.699 20.8099C32.76 20.3849 34.77 20.9809 36.213 22.4429C37.382 23.6279 37.973 25.0339 37.973 26.6299C37.973 27.6619 37.81 28.3789 37.367 29.2929C36.427 31.2349 34.68 32.4009 32.348 32.6429C31.173 32.7639 30.751 32.9689 30.313 33.6319C30.029 34.0609 30.027 34.0789 30.027 35.9919C30.027 37.8229 30.039 37.9399 30.274 38.3179C30.93 39.3719 32.253 39.6209 33.238 38.8759C33.68 38.5419 33.901 38.0439 33.999 37.1659L34.08 36.4399L34.667 36.2919C36.119 35.9259 38.214 34.6619 39.26 33.5209C40.296 32.3909 41.17 30.8419 41.622 29.3329C41.771 28.8359 41.846 28.1789 41.888 27.0129C41.939 25.5869 41.917 25.2609 41.713 24.3789C40.951 21.0789 38.427 18.3189 35.147 17.1979C33.927 16.7809 32.182 16.5949 30.88 16.7449ZM31.627 43.3539C31.568 43.3759 31.389 43.4239 31.229 43.4589C30.41 43.6389 29.792 44.6889 29.899 45.7189C30.016 46.8549 30.83 47.5729 32 47.5729C33.163 47.5729 33.984 46.8539 34.1 45.7339C34.196 44.7999 33.79 43.9469 33.071 43.5749C32.778 43.4239 31.825 43.2779 31.627 43.3539Z" fill="#222222"/>
</svg>
