<svg width="64" height="64" viewBox="0 0 64 64" fill="none" xmlns="http://www.w3.org/2000/svg">
<path fill-rule="evenodd" clip-rule="evenodd" d="M13.333 6.08389C11.887 6.16789 10.902 6.37989 10.103 6.77989C8.00498 7.82889 6.65098 9.63289 6.17498 12.0119C6.00498 12.8639 5.91098 47.4099 6.07198 50.1869C6.18798 52.2059 6.34698 53.0249 6.79598 53.9139C7.86098 56.0229 9.62898 57.3489 12.012 57.8249C12.473 57.9169 17.388 57.9619 30.453 57.9949C48.635 58.0399 51.439 57.9959 52.747 57.6459C55.024 57.0359 57.036 55.0239 57.646 52.7469C57.996 51.4389 58.04 48.6349 57.995 30.4529C57.962 17.3879 57.917 12.4729 57.825 12.0119C57.348 9.62889 56.023 7.86089 53.912 6.79589C53.063 6.36589 52.128 6.17389 50.4 6.07389C48.496 5.96289 15.257 5.97189 13.333 6.08389ZM52.069 10.3089C52.703 10.6019 53.398 11.2969 53.691 11.9309L53.92 12.4269V51.5729L53.691 52.0689C53.398 52.7029 52.703 53.3979 52.069 53.6909L51.573 53.9199H12.427L11.931 53.6909C11.297 53.3979 10.602 52.7029 10.309 52.0689L10.08 51.5729V12.4269L10.309 11.9309C10.726 11.0299 11.599 10.3199 12.515 10.1369C12.76 10.0879 21.648 10.0549 32.267 10.0639L51.573 10.0799L52.069 10.3089Z" fill="#222222"/>
</svg>
