<svg width="64" height="64" viewBox="0 0 64 64" fill="none" xmlns="http://www.w3.org/2000/svg">
<path fill-rule="evenodd" clip-rule="evenodd" d="M31.47 6.16C31.223 6.732 29.83 10.008 28.375 13.44C24.29 23.072 24.115 23.461 23.854 23.521C23.467 23.609 19.621 23.974 13.177 24.533C5.23498 25.223 3.86698 25.372 4.06198 25.529C4.08698 25.549 6.24298 27.407 8.85298 29.659C18.162 37.688 19.212 38.62 19.156 38.809C19.071 39.095 15.293 55.395 14.986 56.8C14.8862 57.2734 14.7786 57.7452 14.663 58.215C14.596 58.421 14.696 58.363 23.52 53.035C28.037 50.308 31.814 48.055 31.911 48.028C32.018 47.999 35.54 50.056 40.616 53.11C45.306 55.931 49.201 58.24 49.272 58.24C49.346 58.24 49.376 58.16 49.343 58.053C49.311 57.951 48.298 53.619 47.091 48.427C45.884 43.235 44.873 38.907 44.844 38.809C44.788 38.62 45.779 37.74 55.147 29.658C57.757 27.405 59.913 25.547 59.938 25.528C60.138 25.372 58.811 25.228 50.293 24.484C47.5415 24.2477 44.7911 23.998 42.042 23.735C41.4677 23.6699 40.8923 23.6159 40.316 23.573C39.909 23.573 40.383 24.62 33.865 9.307C32.885 7.004 32.046 5.12 32.001 5.12C31.956 5.12 31.717 5.588 31.47 6.16ZM32.535 17.787C32.788 18.359 33.849 20.837 34.893 23.294C35.937 25.75 36.808 27.777 36.827 27.796C36.847 27.816 38.853 28.002 41.285 28.21C46.157 28.628 47.681 28.767 48.477 28.867L49.008 28.933L48.623 29.267C48.412 29.45 46.525 31.112 44.43 32.96C43.0397 34.1871 41.649 35.4138 40.258 36.64C40.057 36.816 39.893 37.062 39.893 37.187C39.893 37.312 40.232 38.872 40.645 40.654C41.598 44.761 42.453 48.59 42.453 48.747C42.453 48.904 42.115 48.711 36.614 45.411L32 42.644L27.12 45.574C21.819 48.757 21.547 48.913 21.547 48.749C21.547 48.594 22.467 44.481 23.355 40.665C23.768 38.889 24.107 37.349 24.107 37.243C24.107 37.136 23.759 36.714 23.333 36.305C22.731 35.725 18.165 31.686 15.377 29.267L14.992 28.933L15.523 28.867C16.319 28.767 17.843 28.628 22.715 28.21C25.147 28.002 27.153 27.816 27.173 27.796C27.192 27.777 28.063 25.75 29.107 23.294C31.491 17.684 31.905 16.747 32 16.747C32.042 16.747 32.283 17.215 32.535 17.787Z" fill="#222222"/>
</svg>
