<svg width="64" height="64" viewBox="0 0 64 64" fill="none" xmlns="http://www.w3.org/2000/svg">
<path fill-rule="evenodd" clip-rule="evenodd" d="M30.8131 5.43006C30.1271 5.69806 29.6131 6.11506 29.2471 6.70206C29.0751 6.97606 27.4591 10.4041 25.6541 14.3201C23.8501 18.2361 22.3441 21.4411 22.3071 21.4421C22.2701 21.4431 18.6551 21.8711 14.2731 22.3921C5.48706 23.4361 5.59506 23.4151 4.76906 24.2651C4.10106 24.9531 3.89306 25.5111 3.89306 26.6131C3.89306 28.1771 3.70506 27.9561 9.96506 33.7441L15.9251 39.2531L16.4471 39.7331L14.8791 47.5731C13.5531 54.2031 13.3191 55.5201 13.3601 56.1071C13.4431 57.2971 14.0701 58.2181 15.1701 58.7681C16.0311 59.1981 17.1501 59.2271 17.9731 58.8411C18.2671 58.7031 21.5181 56.9041 25.1981 54.8421C28.8771 52.7801 31.9391 51.0931 32.0021 51.0931C32.0641 51.0931 35.1681 52.8031 38.8991 54.8921C42.6301 56.9811 45.8801 58.7801 46.1211 58.8891C46.4241 59.0271 46.8111 59.0891 47.3701 59.0911C48.0611 59.0931 48.2741 59.0461 48.8301 58.7681C49.9301 58.2181 50.5571 57.2971 50.6411 56.1071C50.6821 55.5201 50.4491 54.2111 49.1221 47.5761L47.5551 39.7391L48.0181 39.3071C48.2721 39.0701 50.9541 36.5891 53.9781 33.7941C60.3011 27.9491 60.1071 28.1771 60.1071 26.6131C60.1071 25.5121 59.8771 24.8981 59.2211 24.2411C58.3961 23.4161 58.4771 23.4321 49.7271 22.3921C45.3451 21.8711 41.7301 21.4431 41.6931 21.4421C41.6561 21.4411 40.0961 18.1191 38.2261 14.0601C35.1211 7.31806 34.7831 6.63606 34.3241 6.17606C33.4361 5.28606 31.9751 4.97506 30.8131 5.43006ZM35.2041 17.0401C38.1341 23.3961 38.3741 23.8751 38.8771 24.3811C39.1821 24.6881 39.6251 25.0031 39.8981 25.1071C40.2161 25.2291 42.9081 25.5911 47.7671 26.1661C51.9891 26.6661 55.1561 27.0861 55.1601 27.1471C55.1641 27.2051 52.7041 29.5331 49.6931 32.3201C45.0081 36.6571 44.1771 37.4721 43.9181 37.9781C43.3601 39.0691 43.3491 38.9801 44.9541 47.0261C45.7541 51.0381 46.3951 54.3591 46.3781 54.4081C46.3611 54.4561 43.3971 52.8441 39.7921 50.8241C34.7871 48.0211 33.0971 47.1241 32.6451 47.0301C31.4421 46.7791 31.4331 46.7831 24.2251 50.8191C20.6111 52.8431 17.6401 54.4621 17.6241 54.4161C17.6091 54.3711 18.2491 51.0491 19.0471 47.0331C20.6481 38.9811 20.6391 39.0671 20.0821 37.9781C19.8241 37.4721 18.9921 36.6561 14.2901 32.3031C11.2711 29.5071 8.81106 27.1791 8.82306 27.1301C8.83606 27.0801 12.1711 26.6471 16.2331 26.1661C21.0921 25.5911 23.7841 25.2291 24.1021 25.1071C24.3761 25.0031 24.8171 24.6891 25.1231 24.3811C25.6251 23.8761 25.8681 23.3901 28.7971 17.0401C30.5221 13.3001 31.9641 10.2401 32.0011 10.2401C32.0391 10.2401 33.4801 13.3001 35.2041 17.0401Z" fill="#222222"/>
</svg>
