<svg width="64" height="64" viewBox="0 0 64 64" fill="none" xmlns="http://www.w3.org/2000/svg">
<path fill-rule="evenodd" clip-rule="evenodd" d="M31.4701 6.16C31.2231 6.732 29.8301 10.008 28.3751 13.44C24.2901 23.072 24.1151 23.461 23.8541 23.521C23.4671 23.609 19.6211 23.974 13.1771 24.533C5.23511 25.223 3.8671 25.372 4.0621 25.529C4.0871 25.549 6.2431 27.407 8.8531 29.659C18.1621 37.688 19.2121 38.62 19.1561 38.809C19.0711 39.095 15.2931 55.395 14.9861 56.8C14.8864 57.2734 14.7787 57.7452 14.6631 58.215C14.5961 58.421 14.6961 58.363 23.5201 53.035C28.0371 50.308 31.8141 48.055 31.9111 48.028C32.0181 47.999 35.5401 50.056 40.6161 53.11C45.3061 55.931 49.2011 58.24 49.2721 58.24C49.3461 58.24 49.3761 58.16 49.3431 58.053C49.3111 57.951 48.2981 53.619 47.0911 48.427C45.8841 43.235 44.8731 38.907 44.8441 38.809C44.7881 38.62 45.7791 37.74 55.1471 29.658C57.7571 27.405 59.9131 25.547 59.9381 25.528C60.1381 25.372 58.8111 25.228 50.2931 24.484C47.5416 24.2477 44.7912 23.998 42.0421 23.735C41.4679 23.6699 40.8924 23.6159 40.3161 23.573C39.9091 23.573 40.3831 24.62 33.8651 9.307C32.8851 7.004 32.0461 5.12 32.0011 5.12C31.9561 5.12 31.7171 5.588 31.4701 6.16Z" fill="#222222"/>
</svg>
