<svg width="64" height="64" viewBox="0 0 64 64" fill="none" xmlns="http://www.w3.org/2000/svg">
<path d="M15.436 12.1129C16.235 11.7129 17.22 11.5009 18.667 11.4169C20.592 11.3049 43.169 11.2959 45.067 11.4069C46.794 11.5079 47.729 11.6999 48.579 12.1289C50.691 13.1949 52.024 14.9739 52.489 17.3449C52.659 18.2139 52.753 42.1469 52.597 44.8389C52.472 46.9799 52.318 47.7159 51.777 48.7489C51.1022 50.0459 50.0442 51.1035 48.747 51.7779C47.717 52.3179 46.979 52.4719 44.839 52.5969C42.147 52.7529 18.214 52.6589 17.345 52.4889C14.975 52.0239 13.195 50.6909 12.13 48.5809C11.68 47.6909 11.522 46.8729 11.403 44.8389C11.247 42.1469 11.341 18.2139 11.511 17.3449C11.975 14.9789 13.337 13.1629 15.436 12.1129Z" fill="#222222"/>
</svg>
