<svg width="64" height="64" viewBox="0 0 64 64" fill="none" xmlns="http://www.w3.org/2000/svg">
<path fill-rule="evenodd" clip-rule="evenodd" d="M30.24 6.08195C25.83 6.35795 21.325 7.88495 17.629 10.357C9.00398 16.127 4.66198 26.2319 6.40698 36.4799C8.14798 46.7029 16.087 55.0519 26.24 57.3359C29.955 58.1719 34.054 58.1689 37.803 57.327C46.572 55.3579 53.762 48.826 56.651 40.2029C58.12 35.819 58.366 30.816 57.336 26.24C55.154 16.54 47.46 8.84595 37.76 6.66395C35.44 6.14195 32.688 5.92895 30.24 6.08195ZM34.563 10.1379C37.7193 10.5221 40.7562 11.5801 43.4679 13.2404C46.1796 14.9007 48.5027 17.1244 50.28 19.761C51.727 21.9 53.037 25.007 53.539 27.4909C53.869 29.1209 53.973 30.208 53.973 32C53.973 32.912 53.923 34.066 53.862 34.563C53.3768 38.4654 51.8781 42.1727 49.515 45.316L48.926 46.0989L33.422 30.596L17.917 15.093L18.265 14.797C19.086 14.1 20.96 12.929 22.33 12.258C24.531 11.18 26.942 10.449 29.29 10.148C30.345 10.013 33.5 10.0069 34.563 10.1379ZM45.789 49.153C44.145 50.5219 41.114 52.1659 38.909 52.8849C36.501 53.6709 34.582 53.9729 32 53.9729C28.467 53.9729 25.485 53.2859 22.33 51.743C15.622 48.464 11.062 42.0379 10.138 34.563C9.99498 33.4 9.99498 30.6 10.138 29.437C10.624 25.511 12.262 21.5 14.595 18.527L15.081 17.908L30.583 33.407L46.085 48.907L45.789 49.153Z" fill="#222222"/>
</svg>
