<svg width="64" height="64" viewBox="0 0 64 64" fill="none" xmlns="http://www.w3.org/2000/svg">
<path fill-rule="evenodd" clip-rule="evenodd" d="M30.2401 6.08397C22.2241 6.59497 14.8891 10.854 10.3571 17.629C6.35006 23.619 5.04506 31.173 6.78706 38.285C9.10006 47.722 16.7331 55.197 26.2401 57.336C29.9551 58.172 34.0541 58.169 37.8031 57.327C46.5721 55.358 53.7621 48.826 56.6511 40.203C58.1201 35.819 58.3661 30.816 57.3361 26.24C55.1541 16.54 47.4601 8.84597 37.7601 6.66397C35.4361 6.14097 32.6781 5.92797 30.2401 6.08397ZM34.5631 10.138C37.7194 10.5221 40.7562 11.5802 43.4679 13.2404C46.1796 14.9007 48.5028 17.1244 50.2801 19.761C51.7271 21.9 53.0371 25.007 53.5391 27.491C53.8691 29.121 53.9731 30.208 53.9731 32C53.9731 35.551 53.2721 38.574 51.7191 41.713C49.5311 46.135 46.1351 49.531 41.7131 51.719C38.5741 53.272 35.5511 53.973 32.0001 53.973C28.4671 53.973 25.4851 53.286 22.3301 51.743C15.6221 48.464 11.0621 42.038 10.1381 34.563C9.99506 33.4 9.99506 30.6 10.1381 29.437C10.6601 25.219 12.4241 21.11 15.0621 17.973C16.0104 16.8557 17.0525 15.8216 18.1771 14.882C21.0681 12.471 25.3271 10.657 29.2901 10.148C30.3451 10.013 33.5001 10.007 34.5631 10.138ZM26.2931 22.071C25.4151 22.161 24.8541 22.334 24.2671 22.695C23.2877 23.2968 22.5608 24.2345 22.2221 25.333C22.0431 25.921 22.0271 26.462 22.0271 32C22.0271 37.535 22.0431 38.078 22.2221 38.658C22.8041 40.545 24.3021 41.725 26.3691 41.925C27.7171 42.055 36.3951 42.049 37.6521 41.916C40.1331 41.655 41.6641 40.126 41.9181 37.653C42.0551 36.327 42.0541 27.651 41.9161 26.348C41.7451 24.716 41.0731 23.561 39.8351 22.767C38.7101 22.045 38.7331 22.047 32.5871 22.02C29.5361 22.006 26.7041 22.029 26.2931 22.071ZM37.7781 26.203C37.9631 26.37 37.9731 26.69 37.9731 31.981C37.9731 37.044 37.9561 37.602 37.7971 37.778C37.6301 37.963 37.3101 37.973 32.0191 37.973C26.9561 37.973 26.3981 37.956 26.2221 37.797C26.0371 37.63 26.0271 37.31 26.0271 32.019C26.0271 26.956 26.0441 26.398 26.2031 26.222C26.3701 26.037 26.6901 26.027 31.9811 26.027C37.0441 26.027 37.6021 26.044 37.7781 26.203Z" fill="#222222"/>
</svg>
