<svg width="64" height="64" viewBox="0 0 64 64" fill="none" xmlns="http://www.w3.org/2000/svg">
<path fill-rule="evenodd" clip-rule="evenodd" d="M18.667 11.4169C17.22 11.5009 16.235 11.7129 15.436 12.1129C13.337 13.1629 11.975 14.9789 11.511 17.3449C11.341 18.2139 11.247 42.1469 11.403 44.8389C11.522 46.8729 11.68 47.6909 12.13 48.5809C13.195 50.6909 14.975 52.0239 17.345 52.4889C18.214 52.6589 42.147 52.7529 44.839 52.5969C46.979 52.4719 47.717 52.3179 48.747 51.7779C50.0442 51.1035 51.1022 50.0459 51.777 48.7489C52.318 47.7159 52.472 46.9799 52.597 44.8389C52.753 42.1469 52.659 18.2139 52.489 17.3449C52.024 14.9739 50.691 13.1949 48.579 12.1289C47.729 11.6999 46.794 11.5079 45.067 11.4069C43.169 11.2959 20.592 11.3049 18.667 11.4169ZM46.736 15.6429C47.37 15.9359 48.064 16.6299 48.357 17.2639L48.587 17.7599V46.2399L48.357 46.7359C48.064 47.3699 47.37 48.0639 46.736 48.3569L46.24 48.5869H17.76L17.264 48.3569C16.63 48.0639 15.936 47.3699 15.643 46.7359L15.413 46.2399V17.7599L15.643 17.2639C16.059 16.3639 16.931 15.6539 17.848 15.4699C18.093 15.4209 24.581 15.3879 32.267 15.3969L46.24 15.4129L46.736 15.6429Z" fill="#222222"/>
</svg>
