<svg width="64" height="64" viewBox="0 0 64 64" fill="none" xmlns="http://www.w3.org/2000/svg">
<path fill-rule="evenodd" clip-rule="evenodd" d="M30.987 8.71199C27.088 8.90799 23.13 10.502 20.543 12.918C18.95 14.406 17.57 16.608 17.073 18.453C16.624 20.126 16.582 22.744 16.992 23.53C17.356 24.226 18.02 24.64 18.773 24.64C19.309 24.64 19.714 24.482 20.09 24.127C20.653 23.593 20.73 23.32 20.708 21.92C20.685 20.481 20.787 19.796 21.161 18.87C21.585 17.82 22.087 17.075 22.993 16.152C24.686 14.425 26.996 13.293 29.743 12.841C31.111 12.616 33.792 12.696 35.093 13.001C38.045 13.691 40.522 15.207 41.888 17.158C42.591 18.162 42.771 18.349 43.253 18.572C44.07 18.949 44.93 18.766 45.525 18.088C45.844 17.724 46.079 17.132 46.078 16.693C46.077 16.028 44.765 14.14 43.454 12.916C41.512 11.102 38.754 9.71399 35.837 9.08299C34.902 8.87999 32.378 8.61299 31.851 8.65999C31.728 8.67099 31.339 8.69499 30.987 8.71199ZM10.172 30.075C8.883 30.383 8.261 32.01 9.022 33.087C9.193 33.329 9.525 33.628 9.76 33.751C10.183 33.972 10.283 33.974 22.187 34.035C30.341 34.077 34.34 34.134 34.667 34.213C38.338 35.11 40.679 36.573 42.166 38.899C42.958 40.137 43.297 41.233 43.303 42.572C43.312 44.591 42.602 46.222 41.007 47.848C39.314 49.575 37.004 50.707 34.257 51.159C32.889 51.384 30.208 51.304 28.907 50.999C25.955 50.309 23.478 48.793 22.112 46.842C21.409 45.838 21.229 45.651 20.747 45.428C19.93 45.051 19.07 45.234 18.475 45.912C18.156 46.276 17.921 46.868 17.922 47.307C17.923 48.143 19.631 50.4 21.233 51.683C25.388 55.01 31.252 56.137 36.771 54.668C41.129 53.508 44.552 50.849 46.247 47.307C48.257 43.107 47.406 38.4 43.982 34.77L43.281 34.027H48.248C51.474 34.027 53.409 33.985 53.766 33.909C55.787 33.475 55.787 30.525 53.766 30.091C53.132 29.955 10.74 29.939 10.172 30.075Z" fill="#222222"/>
</svg>
