<svg width="64" height="64" viewBox="0 0 64 64" fill="none" xmlns="http://www.w3.org/2000/svg">
<path fill-rule="evenodd" clip-rule="evenodd" d="M30.8789 8.74606C25.4629 9.22106 20.8509 13.2291 19.6839 18.4741L19.5059 19.2731L16.1259 19.3411C11.7119 19.4291 10.8469 19.5811 9.39289 20.5221C7.66189 21.6431 6.57989 23.2671 6.17989 25.3451C6.00889 26.2311 5.91489 44.8401 6.06789 47.4761C6.18789 49.5401 6.34489 50.3541 6.79589 51.2481C7.86089 53.3561 9.62889 54.6821 12.0119 55.1581C12.4729 55.2501 17.3879 55.2951 30.4529 55.3281C48.6349 55.3741 51.4389 55.3301 52.7469 54.9791C54.5479 54.4971 56.2049 53.1441 57.1099 51.4161C57.6529 50.3801 57.8059 49.6481 57.9319 47.4761C58.0849 44.8401 57.9909 26.2311 57.8199 25.3451C57.2769 22.5271 55.3129 20.3591 52.6859 19.6781C51.8379 19.4581 49.4839 19.3151 46.6509 19.3101L44.5009 19.3071L44.3199 18.4901C42.9679 12.4151 37.1469 8.19506 30.8789 8.74606ZM34.6129 13.0521C36.0229 13.5151 36.9449 14.0961 38.0899 15.2421C39.1689 16.3221 39.7239 17.1681 40.1809 18.4261C40.3159 18.7981 40.4269 19.1491 40.4269 19.2051C40.4269 19.2691 37.2789 19.3071 31.9999 19.3071C26.7209 19.3071 23.5729 19.2691 23.5729 19.2051C23.5729 18.9661 24.0969 17.6911 24.4759 17.0071C25.0259 16.0151 26.6739 14.3631 27.6589 13.8171C29.2909 12.9131 30.2609 12.6851 32.2669 12.7351C33.5269 12.7661 33.8929 12.8151 34.6129 13.0521ZM52.0689 23.6431C52.7029 23.9361 53.3979 24.6301 53.6909 25.2641L53.9199 25.7601V48.9071L53.6909 49.4031C53.3979 50.0361 52.7029 50.7311 52.0689 51.0241L51.5729 51.2531H12.4269L11.9309 51.0241C11.2969 50.7311 10.6019 50.0361 10.3089 49.4031L10.0799 48.9071V25.7601L10.3089 25.2641C10.7259 24.3631 11.5989 23.6531 12.5149 23.4711C12.7599 23.4221 21.6479 23.3891 32.2669 23.3981L51.5729 23.4131L52.0689 23.6431Z" fill="#222222"/>
</svg>
