<svg width="64" height="64" viewBox="0 0 64 64" fill="none" xmlns="http://www.w3.org/2000/svg">
<path fill-rule="evenodd" clip-rule="evenodd" d="M31.5061 3.40898C31.0381 3.51998 30.5651 3.88098 30.2741 4.34898C30.0291 4.74198 30.0271 4.78198 30.0271 7.99998C30.0271 11.218 30.0291 11.258 30.2741 11.651C31.2261 13.182 33.5371 12.831 33.9091 11.099C34.0581 10.402 34.0601 5.55498 33.9111 4.90898C33.8388 4.61889 33.7155 4.34395 33.5471 4.09698C33.1281 3.54798 32.2141 3.23998 31.5061 3.40898ZM12.8391 11.408C12.3741 11.519 11.8981 11.88 11.6161 12.337C11.2931 12.861 11.2861 13.797 11.6031 14.305C11.7271 14.504 12.7791 15.609 13.9411 16.76C16.2131 19.012 16.4431 19.167 17.3471 19.065C18.2241 18.967 18.9671 18.218 19.0671 17.333C19.1701 16.417 18.9711 16.131 16.5591 13.74C14.4311 11.63 14.3251 11.542 13.7811 11.426C13.5875 11.3809 13.392 11.3448 13.1951 11.318C13.0772 11.3509 12.9584 11.3809 12.8391 11.408ZM50.6131 11.406C50.0671 11.537 49.9261 11.658 47.6621 13.939C45.2701 16.349 45.2421 16.392 45.3601 17.446C45.4971 18.656 46.8981 19.423 48.0731 18.932C48.4871 18.759 52.1651 15.192 52.6481 14.495C53.1611 13.755 53.1261 12.737 52.5661 12.099C52.0381 11.498 51.3091 11.239 50.6131 11.406ZM30.7531 16.751C25.3791 17.192 20.6881 20.377 18.2701 25.227C16.1921 29.394 16.1921 34.606 18.2701 38.773C19.9279 42.1211 22.7513 44.7487 26.2098 46.162C29.6683 47.5752 33.5238 47.6769 37.0521 46.448C38.9046 45.7925 40.6169 44.7933 42.0991 43.503C44.3864 41.4877 46.0217 38.8367 46.7963 35.8882C47.5708 32.9397 47.4496 29.8273 46.4481 26.948C44.7231 21.954 40.3121 18.07 35.1721 17.02C34.4861 16.88 31.9711 16.61 31.7871 16.657C31.7571 16.664 31.2921 16.707 30.7531 16.751ZM34.7201 20.994C36.2001 21.411 37.1141 21.819 38.2681 22.58C39.9521 23.692 41.5781 25.61 42.3191 27.36C43.1551 29.336 43.2481 29.798 43.2481 32C43.2481 34.202 43.1551 34.664 42.3191 36.64C41.3271 38.982 38.9821 41.327 36.6401 42.319C34.6841 43.147 34.1991 43.245 32.0531 43.25C30.6131 43.253 30.0761 43.212 29.4401 43.05C25.1981 41.973 22.0271 38.802 20.9501 34.56C20.6431 33.35 20.6651 30.466 20.9901 29.264C22.2141 24.746 25.6711 21.62 30.4001 20.758C30.5471 20.731 31.4111 20.726 32.3201 20.747C33.5491 20.774 34.1651 20.838 34.7201 20.994ZM4.83905 30.075C3.54905 30.383 2.92805 32.01 3.68905 33.087C4.28105 33.925 4.46905 33.969 7.65205 34.008C10.9911 34.049 11.4571 33.983 12.0521 33.388C13.1441 32.296 12.6001 30.413 11.0991 30.091C10.4841 29.959 5.37905 29.946 4.83905 30.075ZM52.8391 30.075C51.5491 30.383 50.9281 32.01 51.6891 33.087C52.2811 33.925 52.4691 33.969 55.6521 34.008C58.9911 34.049 59.4571 33.983 60.0521 33.388C61.1441 32.296 60.6001 30.413 59.0991 30.091C58.4841 29.959 53.3791 29.946 52.8391 30.075ZM16.3201 45.446C15.9771 45.587 11.7731 49.764 11.5511 50.184C11.3341 50.593 11.3351 51.486 11.5531 51.907C11.6837 52.1628 11.8676 52.3878 12.0923 52.5668C12.317 52.7457 12.5774 52.8746 12.856 52.9448C13.1346 53.015 13.4249 53.0248 13.7076 52.9736C13.9903 52.9224 14.2588 52.8114 14.4951 52.648C15.1921 52.165 18.7591 48.487 18.9321 48.073C19.0974 47.6614 19.1244 47.2072 19.0089 46.779C18.8935 46.3507 18.6419 45.9717 18.2921 45.699C17.9721 45.454 17.7671 45.389 17.2411 45.365C16.8811 45.349 16.4671 45.385 16.3201 45.446ZM46.4531 45.458C46.1141 45.645 45.6471 46.109 45.4841 46.421C45.3061 46.762 45.2861 47.648 45.4471 48.073C45.6151 48.516 49.6701 52.569 50.1871 52.81C50.5541 52.9908 50.9686 53.0521 51.3722 52.9854C51.7759 52.9186 52.1486 52.7271 52.4379 52.4378C52.7272 52.1485 52.9187 51.7759 52.9854 51.3722C53.0522 50.9685 52.9909 50.554 52.8101 50.187C52.5691 49.67 48.5161 45.615 48.0731 45.447C47.6851 45.3 46.7271 45.306 46.4531 45.458ZM31.5061 51.409C31.0381 51.52 30.5651 51.881 30.2741 52.349C30.0291 52.742 30.0271 52.782 30.0271 56C30.0271 59.218 30.0291 59.258 30.2741 59.651C31.2261 61.182 33.5371 60.831 33.9091 59.099C34.0581 58.402 34.0601 53.555 33.9111 52.909C33.8388 52.6189 33.7155 52.3439 33.5471 52.097C33.1281 51.548 32.2141 51.24 31.5061 51.409Z" fill="#222222"/>
</svg>
