<svg width="64" height="64" viewBox="0 0 64 64" fill="none" xmlns="http://www.w3.org/2000/svg">
<path fill-rule="evenodd" clip-rule="evenodd" d="M18.453 5.32598C17.519 5.61198 16.716 6.27498 16.324 7.08498C16.098 7.55298 6.90601 41.603 6.33201 44.103C5.97701 45.646 5.95401 47.59 6.27301 49.02C7.25801 53.436 10.449 56.643 14.935 57.725L15.947 57.969L35.147 58.001C47.375 58.022 54.592 57.996 55.023 57.929C56.613 57.683 57.666 56.646 57.924 55.072C57.982 54.721 58.025 51.089 58.024 46.667C58.023 38.536 57.987 37.788 57.545 36.724C57.453 36.502 55.856 33.059 53.996 29.073C50.925 22.491 50.569 21.779 50.112 21.322C49.415 20.625 48.64 20.342 47.573 20.394C46.78 20.432 46.726 20.455 40.693 23.272C37.349 24.834 34.604 26.104 34.594 26.094C34.583 26.084 35.342 23.221 36.28 19.731C37.93 13.598 37.985 13.358 37.945 12.533C37.883 11.257 37.341 10.353 36.301 9.79098C35.971 9.61198 32.914 8.74398 27.78 7.36998C19.802 5.23398 19.192 5.10098 18.453 5.32598ZM26.883 11.252C30.712 12.277 33.86 13.131 33.877 13.148C33.934 13.205 24.439 48.565 24.166 49.313C23.567 50.959 22.304 52.341 20.64 53.174C19.411 53.788 18.657 53.973 17.381 53.973C14.539 53.973 12.082 52.487 10.849 50.022C10.154 48.631 9.99401 47.922 10.048 46.461C10.091 45.298 10.164 45.013 14.865 27.467C17.49 17.669 19.658 9.59298 19.682 9.51998C19.707 9.44698 19.77 9.38698 19.824 9.38698C19.877 9.38698 23.054 10.226 26.883 11.252ZM50.609 31.24C52.288 34.841 53.646 37.803 53.626 37.823C53.536 37.913 28.355 49.618 28.323 49.584C28.302 49.564 29.394 45.41 30.749 40.353L33.213 31.16L40.312 27.851C44.217 26.032 47.445 24.577 47.484 24.618C47.524 24.659 48.93 27.64 50.609 31.24ZM53.973 48.053V53.973L41.253 53.964L28.533 53.956L29.067 53.702C31.546 52.521 53.832 42.141 53.893 42.138C53.937 42.135 53.973 44.797 53.973 48.053ZM17.12 44.959C17.061 44.979 16.882 45.024 16.722 45.059C16.331 45.145 15.682 45.729 15.504 46.155C15.3446 46.537 15.3102 46.9597 15.4058 47.3624C15.5013 47.7652 15.7219 48.1273 16.036 48.397C17.501 49.683 19.626 48.405 19.261 46.458C19.182 46.034 18.678 45.398 18.251 45.182C17.952 45.031 17.294 44.902 17.12 44.959Z" fill="#222222"/>
</svg>
