<svg width="64" height="64" viewBox="0 0 64 64" fill="none" xmlns="http://www.w3.org/2000/svg">
<path fill-rule="evenodd" clip-rule="evenodd" d="M19.9469 14.086C12.0189 14.668 5.30989 20.577 3.73289 28.366C2.09389 36.464 6.09389 44.574 13.4929 48.159C15.6579 49.207 17.6709 49.741 20.1489 49.922C21.8989 50.05 42.1009 50.05 43.8509 49.922C46.3289 49.741 48.3419 49.207 50.5069 48.159C55.5269 45.727 59.1639 41.059 60.2659 35.634C61.9079 27.55 57.9009 19.423 50.5069 15.841C48.3419 14.793 46.3289 14.259 43.8509 14.078C42.2509 13.961 21.5579 13.968 19.9469 14.086ZM45.5469 18.279C47.9819 18.859 49.9659 19.85 51.7659 21.386C54.1159 23.391 55.7279 26.123 56.3929 29.227C56.5379 29.908 56.5869 30.598 56.5869 32C56.5869 34.571 56.2529 36.059 55.1909 38.213C54.6149 39.383 54.1649 40.063 53.2799 41.1C51.2759 43.449 48.5429 45.061 45.4399 45.726C44.5919 45.907 43.7169 45.92 31.9999 45.92C20.2829 45.92 19.4079 45.907 18.5599 45.726C16.1549 45.211 14.0829 44.191 12.2339 42.614C9.88389 40.609 8.27189 37.877 7.60689 34.773C7.46189 34.092 7.41289 33.402 7.41289 32C7.41289 29.984 7.55089 29.053 8.07489 27.52C8.40589 26.554 9.12989 25.062 9.64589 24.285C10.5709 22.89 12.2239 21.238 13.6189 20.312C14.9689 19.416 16.9489 18.603 18.5069 18.305C18.9759 18.215 19.4559 18.121 19.5729 18.095C19.6909 18.07 25.4029 18.058 32.2669 18.069C43.8389 18.087 44.8049 18.102 45.5469 18.279ZM20.6399 22.044C17.1059 22.36 14.2049 24.228 12.5849 27.231C11.7349 28.808 11.3889 30.186 11.3889 32C11.3889 33.817 11.7339 35.192 12.5909 36.779C13.5399 38.54 14.7959 39.795 16.5639 40.748C18.1409 41.599 19.5199 41.945 21.3329 41.945C23.1469 41.945 24.5259 41.599 26.1019 40.748C27.8699 39.795 29.1259 38.54 30.0759 36.779C30.9319 35.192 31.2779 33.817 31.2779 32C31.2779 30.186 30.9319 28.808 30.0819 27.231C28.8869 25.016 26.9909 23.41 24.5749 22.568C23.4489 22.175 21.7299 21.946 20.6399 22.044ZM22.8759 26.19C23.8629 26.447 24.7309 26.964 25.5499 27.783C26.7769 29.01 27.3069 30.282 27.3069 32C27.3069 33.718 26.7769 34.99 25.5499 36.217C24.3229 37.443 23.0509 37.973 21.3329 37.973C19.6159 37.973 18.3429 37.443 17.1169 36.217C15.8899 34.99 15.3599 33.718 15.3599 32C15.3599 30.282 15.8899 29.01 17.1169 27.783C17.9179 26.982 18.7989 26.45 19.7449 26.195C20.5119 25.989 22.0939 25.986 22.8759 26.19Z" fill="#222222"/>
</svg>
