<svg width="64" height="64" viewBox="0 0 64 64" fill="none" xmlns="http://www.w3.org/2000/svg">
<path fill-rule="evenodd" clip-rule="evenodd" d="M19.9469 14.086C12.0189 14.668 5.30989 20.577 3.73289 28.366C2.09389 36.464 6.09389 44.574 13.4929 48.159C15.6579 49.207 17.6709 49.741 20.1489 49.922C21.8989 50.05 42.1009 50.05 43.8509 49.922C46.3289 49.741 48.3419 49.207 50.5069 48.159C55.5269 45.727 59.1639 41.059 60.2659 35.634C61.9079 27.55 57.9009 19.423 50.5069 15.841C48.3419 14.793 46.3289 14.259 43.8509 14.078C42.2509 13.961 21.5579 13.968 19.9469 14.086ZM45.5469 18.279C47.9819 18.859 49.9659 19.85 51.7659 21.386C54.1159 23.391 55.7279 26.123 56.3929 29.227C56.5379 29.908 56.5869 30.598 56.5869 32C56.5869 34.571 56.2529 36.059 55.1909 38.213C54.6149 39.383 54.1649 40.063 53.2799 41.1C51.2759 43.449 48.5429 45.061 45.4399 45.726C44.5919 45.907 43.7169 45.92 31.9999 45.92C20.2829 45.92 19.4079 45.907 18.5599 45.726C16.1549 45.211 14.0829 44.191 12.2339 42.614C9.88389 40.609 8.27189 37.877 7.60689 34.773C7.46189 34.092 7.41289 33.402 7.41289 32C7.41289 29.984 7.55089 29.053 8.07489 27.52C8.40589 26.554 9.12989 25.062 9.64589 24.285C10.5709 22.89 12.2239 21.238 13.6189 20.312C14.9689 19.416 16.9489 18.603 18.5069 18.305C18.9759 18.215 19.4559 18.121 19.5729 18.095C19.6909 18.07 25.4029 18.058 32.2669 18.069C43.8389 18.087 44.8049 18.102 45.5469 18.279ZM41.9729 22.044C38.4389 22.36 35.5379 24.228 33.9179 27.231C33.0679 28.808 32.7219 30.186 32.7219 32C32.7219 33.817 33.0679 35.192 33.9239 36.779C34.8739 38.54 36.1299 39.795 37.8979 40.748C39.4739 41.599 40.8529 41.945 42.6669 41.945C44.4799 41.945 45.8589 41.599 47.4359 40.748C49.2039 39.795 50.4599 38.54 51.4089 36.779C52.2659 35.192 52.6109 33.817 52.6109 32C52.6109 30.186 52.2649 28.808 51.4149 27.231C50.2199 25.016 48.3239 23.41 45.9079 22.568C44.7829 22.175 43.0629 21.946 41.9729 22.044ZM44.2089 26.19C45.1959 26.447 46.0639 26.964 46.8829 27.783C48.1099 29.01 48.6399 30.282 48.6399 32C48.6399 33.718 48.1099 34.99 46.8829 36.217C45.6569 37.443 44.3839 37.973 42.6669 37.973C40.9489 37.973 39.6769 37.443 38.4499 36.217C37.2229 34.99 36.6929 33.718 36.6929 32C36.6929 30.282 37.2229 29.01 38.4499 27.783C39.2519 26.982 40.1319 26.45 41.0789 26.195C41.8449 25.989 43.4269 25.986 44.2089 26.19Z" fill="#222222"/>
</svg>
