<svg width="64" height="64" viewBox="0 0 64 64" fill="none" xmlns="http://www.w3.org/2000/svg">
<path fill-rule="evenodd" clip-rule="evenodd" d="M16 8.75003C14.553 8.83503 13.569 9.04703 12.769 9.44603C10.671 10.496 9.31395 12.305 8.84295 14.679C8.75295 15.132 8.70595 19.512 8.67295 30.453C8.62495 45.948 8.67595 48.793 9.02095 50.08C9.63795 52.384 11.664 54.391 13.973 54.987C15.2 55.304 17.604 55.353 32 55.353C46.396 55.353 48.8 55.304 50.027 54.987C52.336 54.391 54.362 52.384 54.979 50.08C55.324 48.793 55.375 45.948 55.327 30.453C55.294 19.512 55.247 15.132 55.157 14.679C54.686 12.3 53.357 10.528 51.246 9.46203C50.396 9.03303 49.461 8.84103 47.733 8.74003C45.832 8.62903 17.925 8.63803 16 8.75003ZM29.973 17.333V21.973H12.678L12.712 18.533C12.745 15.278 12.759 15.067 12.976 14.597C13.393 13.696 14.267 12.986 15.181 12.805C15.426 12.756 18.855 12.711 22.8 12.705L29.973 12.693V17.333ZM49.403 12.976C50.036 13.269 50.731 13.964 51.024 14.597C51.241 15.067 51.255 15.278 51.288 18.533L51.322 21.973H34.027V12.685L41.467 12.716C48.821 12.746 48.912 12.749 49.403 12.976ZM29.973 32V37.973H12.693V26.027H29.973V32ZM51.307 32V37.973H34.027V26.027H51.307V32ZM29.973 46.671V51.315L22.533 51.284C15.179 51.254 15.088 51.251 14.597 51.024C13.964 50.731 13.269 50.036 12.976 49.403C12.759 48.933 12.745 48.722 12.712 45.467L12.678 42.027H29.973V46.671ZM51.288 45.467C51.255 48.722 51.241 48.933 51.024 49.403C50.731 50.036 50.036 50.731 49.403 51.024C48.912 51.251 48.821 51.254 41.467 51.284L34.027 51.315V42.027H51.322L51.288 45.467Z" fill="#222222"/>
</svg>
