<svg width="64" height="64" viewBox="0 0 64 64" fill="none" xmlns="http://www.w3.org/2000/svg">
<path fill-rule="evenodd" clip-rule="evenodd" d="M13.3329 8.75003C11.8869 8.83503 10.9019 9.04703 10.1029 9.44603C8.00494 10.496 6.64694 12.305 6.17594 14.679C6.08694 15.132 6.03894 19.512 6.00594 30.453C5.95894 45.948 6.00894 48.793 6.35394 50.08C6.97094 52.384 8.99694 54.391 11.3069 54.987C11.6879 55.086 12.7199 55.208 13.5999 55.26C16.0089 55.4 29.0959 55.386 29.7659 55.242C30.1299 55.1686 30.4642 54.9894 30.7268 54.7268C30.9893 54.4643 31.1685 54.13 31.2419 53.766C31.3249 53.381 31.3599 49.147 31.3599 39.621V26.027H41.0189C47.9869 26.027 50.8159 25.992 51.1699 25.903C51.8989 25.719 52.4259 25.146 52.5909 24.356C52.7519 23.588 52.6619 15.785 52.4799 14.727C52.0759 12.375 50.7169 10.542 48.5789 9.46203C47.7289 9.03303 46.7939 8.84103 45.0669 8.74003C43.1649 8.62903 15.2579 8.63803 13.3329 8.75003ZM27.3069 17.333V21.973H10.0109L10.0449 18.533C10.0779 15.278 10.0919 15.067 10.3089 14.597C10.7259 13.696 11.5999 12.986 12.5149 12.805C12.7599 12.756 16.1879 12.711 20.1329 12.705L27.3069 12.693V17.333ZM46.7359 12.976C47.3699 13.269 48.0639 13.964 48.3569 14.597C48.5739 15.067 48.5889 15.278 48.6209 18.533L48.6559 21.973H31.3599V12.685L38.7999 12.716C46.1549 12.746 46.2459 12.749 46.7359 12.976ZM27.3069 32V37.973H10.0269V26.027H27.3069V32ZM39.5059 40.74C38.2139 41.054 37.5949 42.677 38.3559 43.754C38.5269 43.996 38.8589 44.295 39.0929 44.417C39.5139 44.637 39.6409 44.64 47.6739 44.67C53.3859 44.691 56.0009 44.664 56.4039 44.58C58.1619 44.215 58.5309 41.902 56.9849 40.941L56.5869 40.693L48.2129 40.676C43.6079 40.666 39.6899 40.695 39.5059 40.74ZM27.3069 46.671V51.315L19.8669 51.284C12.5119 51.254 12.4209 51.251 11.9309 51.024C11.2969 50.731 10.6019 50.036 10.3089 49.403C10.0919 48.933 10.0779 48.722 10.0449 45.467L10.0109 42.027H27.3069V46.671Z" fill="#222222"/>
</svg>
