<svg width="64" height="64" viewBox="0 0 64 64" fill="none" xmlns="http://www.w3.org/2000/svg">
<path fill-rule="evenodd" clip-rule="evenodd" d="M13.3331 6.08389C11.8871 6.16789 10.9021 6.37989 10.1031 6.77989C8.0051 7.82889 6.6511 9.63289 6.1751 12.0119C6.0051 12.8639 5.9111 47.4099 6.0721 50.1869C6.1881 52.2059 6.3471 53.0249 6.7961 53.9139C7.8611 56.0229 9.6291 57.3489 12.0121 57.8249C12.4731 57.9169 17.3881 57.9619 30.4531 57.9949C48.6351 58.0399 51.4391 57.9959 52.7471 57.6459C55.0241 57.0359 57.0361 55.0239 57.6461 52.7469C57.9961 51.4389 58.0401 48.6349 57.9951 30.4529C57.9621 17.3879 57.9171 12.4729 57.8251 12.0119C57.3481 9.62889 56.0231 7.86089 53.9121 6.79589C53.0631 6.36589 52.1281 6.17389 50.4001 6.07389C48.4961 5.96289 15.2571 5.97189 13.3331 6.08389ZM52.0691 10.3089C52.7031 10.6019 53.3981 11.2969 53.6911 11.9309L53.9201 12.4269V51.5729L53.6911 52.0689C53.3981 52.7029 52.7031 53.3979 52.0691 53.6909L51.5731 53.9199H12.4271L11.9311 53.6909C11.2971 53.3979 10.6021 52.7029 10.3091 52.0689L10.0801 51.5729V12.4269L10.3091 11.9309C10.7261 11.0299 11.5991 10.3199 12.5151 10.1369C12.7601 10.0879 21.6481 10.0549 32.2671 10.0639L51.5731 10.0799L52.0691 10.3089Z" fill="#222222"/>
</svg>
