<svg width="64" height="64" viewBox="0 0 64 64" fill="none" xmlns="http://www.w3.org/2000/svg">
<path fill-rule="evenodd" clip-rule="evenodd" d="M16.0001 6.08389C14.5531 6.16789 13.5691 6.37989 12.7691 6.77989C10.6721 7.82889 9.31709 9.63289 8.84209 12.0119C8.67209 12.8639 8.57809 47.6639 8.73909 50.2929C8.85709 52.2159 9.02209 53.0399 9.46309 53.9139C10.5281 56.0229 12.3011 57.3519 14.6791 57.8239C15.1321 57.9129 19.5121 57.9609 30.4531 57.9939C45.9481 58.0409 48.7931 57.9909 50.0801 57.6459C52.3571 57.0359 54.3691 55.0239 54.9791 52.7469C55.3301 51.4389 55.3741 48.6349 55.3281 30.4529C55.2951 17.3879 55.2501 12.4729 55.1581 12.0119C54.6821 9.62889 53.3561 7.86089 51.2461 6.79589C50.3961 6.36589 49.4611 6.17389 47.7331 6.07389C45.8321 5.96289 17.9251 5.97189 16.0001 6.08389ZM49.4031 10.3089C50.0361 10.6019 50.7311 11.2969 51.0241 11.9309L51.2531 12.4269V51.5729L51.0241 52.0689C50.7311 52.7029 50.0361 53.3979 49.4031 53.6909L48.9071 53.9199H15.0931L14.5971 53.6909C13.9641 53.3979 13.2691 52.7029 12.9761 52.0689L12.7471 51.5729V12.4269L12.9761 11.9309C13.3921 11.0299 14.2651 10.3199 15.1811 10.1369C15.4261 10.0879 23.1151 10.0549 32.2671 10.0639L48.9071 10.0799L49.4031 10.3089Z" fill="#222222"/>
</svg>
