<svg width="64" height="64" viewBox="0 0 64 64" fill="none" xmlns="http://www.w3.org/2000/svg">
<path fill-rule="evenodd" clip-rule="evenodd" d="M24.32 10.296C17.915 10.89 16.616 11.057 15.609 11.411C13.886 12.016 12.362 13.439 11.569 15.182C11.122 16.167 10.901 17.759 10.291 24.427C9.48703 33.203 9.50703 33.809 10.679 35.812C10.945 36.267 13.31 38.708 19.786 45.209C24.597 50.039 28.911 54.296 29.372 54.667C30.922 55.916 32.273 56.427 34.027 56.427C35.751 56.427 37.162 55.905 38.679 54.707C39.704 53.899 53.802 39.82 54.636 38.773C56.264 36.729 56.788 34.57 56.207 32.295C55.945 31.27 55.663 30.688 54.979 29.758C54.364 28.922 37.72 12.201 36.587 11.281C35.721 10.578 34.867 10.14 33.845 9.87497C32.788 9.60097 30.913 9.68397 24.32 10.296ZM33.493 13.962C34.058 14.249 51.381 31.517 51.938 32.348C52.645 33.402 52.629 34.727 51.897 35.785C51.311 36.633 36.096 51.758 35.467 52.119C35.004 52.384 34.824 52.424 34.081 52.425C33.388 52.426 33.126 52.377 32.693 52.165C31.966 51.808 14.332 34.227 13.966 33.493C13.81 33.181 13.71 32.752 13.681 32.267C13.63 31.423 14.753 18.859 14.99 17.62C15.161 16.724 15.396 16.292 16.014 15.733C16.847 14.981 16.804 14.988 24.8 14.237C31.582 13.6 32.712 13.565 33.493 13.962ZM22.667 19.558C21.424 19.966 20.347 20.91 19.804 22.068C19.523 22.669 19.467 22.926 19.431 23.803C19.399 24.588 19.434 24.968 19.577 25.403C20.295 27.583 22.426 28.915 24.684 28.596C25.656 28.458 26.455 28.062 27.206 27.346C27.7484 26.8354 28.1583 26.2005 28.4004 25.4961C28.6426 24.7917 28.7096 24.0389 28.5958 23.3028C28.482 22.5667 28.1908 21.8693 27.7473 21.2709C27.3037 20.6724 26.7212 20.191 26.05 19.868C25.293 19.493 25.168 19.465 24.166 19.442C23.504 19.428 22.93 19.472 22.667 19.558ZM24.445 23.537C24.684 23.753 24.699 24.246 24.472 24.472C24.096 24.849 23.36 24.549 23.36 24.019C23.3584 23.8926 23.3939 23.7686 23.4621 23.6622C23.5303 23.5558 23.6282 23.4718 23.7437 23.4205C23.8592 23.3692 23.9872 23.3529 24.1118 23.3736C24.2365 23.3943 24.3523 23.4511 24.445 23.537Z" fill="#222222"/>
</svg>
