<svg width="64" height="64" viewBox="0 0 64 64" fill="none" xmlns="http://www.w3.org/2000/svg">
<path fill-rule="evenodd" clip-rule="evenodd" d="M19.2824 8.0497C16.1481 8.45438 13.5112 9.68217 11.8263 11.5208C10.2703 13.2186 8.86296 16.0617 8.17475 18.9005C7.923 19.9367 7.94792 22.7282 8.21942 23.9878C8.74697 26.4279 9.39051 28.0784 11.2026 31.6312C14.1917 37.4935 13.8721 36.7468 14.2819 38.833C16.3981 49.6141 17.9842 54.3698 19.8572 55.5581C20.8599 56.1939 21.7681 56.1406 23.3404 55.3544C23.9367 55.0571 24.2348 54.8312 24.7254 54.3062C26.1826 52.745 26.876 50.2499 27.5754 44.0543C27.779 42.2508 28.0299 40.8486 28.2413 40.3297L28.3641 40.0281L28.7112 40.8349C29.3197 42.2474 30.1097 43.5746 31.0611 44.7829C31.2983 45.0853 31.5552 45.4565 31.6316 45.6077C31.8533 46.0459 32.2821 47.4576 32.9273 49.8719C33.8887 53.4754 34.2874 54.4703 35.0959 55.2865C35.6553 55.851 36.2386 56.0461 37.1984 55.9911C37.75 55.9593 37.9991 55.8957 38.3205 55.7084C39.733 54.8801 40.3937 53.4565 41.368 49.1364C41.7014 47.6577 41.7452 47.5074 41.8165 47.5856C41.8354 47.6071 42.0459 48.4697 42.2848 49.5024C42.5228 50.5361 42.8175 51.7321 42.9387 52.1608C43.4284 53.8878 44.3211 55.2092 45.3341 55.7041C46.329 56.1913 47.9813 55.9765 48.8052 55.253C49.8088 54.3724 50.1336 53.3439 50.442 50.0781C50.7891 46.3999 51.1062 45.4367 52.6794 43.2819C54.488 40.8057 55.2612 39.1981 55.7707 36.8551C56.0096 35.7588 56.0096 33.2164 55.7716 32.3649C55.0542 29.7934 53.5403 27.8241 51.168 26.3746L50.6104 26.0335L50.8707 25.0059C51.2823 23.3838 51.4327 22.0005 51.3734 20.4049C51.2514 17.1701 50.2255 14.7909 47.9684 12.5141C45.7379 10.263 42.6749 8.89171 39.2475 8.60817C36.3813 8.37104 33.6645 8.93209 30.7656 10.3601L29.5103 10.9787L28.9656 10.6324C27.0538 9.41668 24.6034 8.43891 22.6728 8.12273C21.9253 7.99986 19.9895 7.95776 19.2824 8.0497ZM22.2484 11.5183C24.5295 11.9504 26.998 13.2006 28.8736 14.8717C31.5998 17.3024 32.9015 18.0851 35.95 19.1299C37.2671 19.581 37.7568 19.6274 38.2973 19.3516C39.1178 18.9331 39.4589 17.8969 39.0448 17.0841C38.7664 16.5377 38.531 16.3951 37.1322 15.9216C36.3602 15.6549 35.6025 15.3483 34.8622 15.0032C33.9188 14.5435 32.4333 13.5632 32.4333 13.3999C32.4333 13.3037 33.3105 12.9153 34.1895 12.6215C35.1329 12.3062 36.0419 12.1214 37.1992 12.0097C40.6128 11.6824 44.3495 13.2272 46.3222 15.7825C48.0895 18.0731 48.4616 21.1086 47.4151 24.7078L47.2673 25.2164H46.6444C45.0884 25.2164 43.1337 25.8024 41.966 26.6186L41.6473 26.842L40.9582 26.5215C39.8619 26.0129 38.6779 25.6117 37.9038 25.4879C36.4981 25.262 34.4403 25.5086 33.0218 26.0739C30.7974 26.9606 29.1855 28.4092 28.2155 30.3939C27.4809 31.8967 27.3468 32.5497 27.3468 34.6263V36.3851L27.0719 36.5449C26.4971 36.88 26.0795 37.2873 25.6473 37.9334C24.862 39.107 24.4642 40.7275 24.0965 44.2459C23.5947 49.0505 22.9383 51.5456 22.0078 52.1909C21.8136 52.3258 21.6272 52.4357 21.5928 52.4357C21.4579 52.4357 20.8711 51.1057 20.4346 49.81C19.6192 47.3871 18.9791 44.7691 17.8648 39.2943C17.0949 35.5139 17.1001 35.5276 15.2287 32.0109C12.7457 27.3464 11.7765 24.9346 11.4534 22.6165C11.2369 21.0579 11.3503 20.0002 11.9165 18.3051C13.0292 14.9722 14.6153 13.0133 16.9171 12.1274C17.5537 11.8826 18.9834 11.5337 19.7404 11.4392C20.4252 11.3533 21.5705 11.3894 22.2484 11.5183ZM18.9396 12.3835C16.2581 12.8638 13.9932 15.0255 12.9716 18.0799C12.5429 19.3619 12.4209 20.2829 12.4785 21.8089C12.5334 23.2978 12.8058 24.4603 13.3875 25.6924C13.7982 26.5636 14.0628 26.873 14.5826 27.0903C15.2751 27.3799 16.0733 27.1556 16.5433 26.5396C16.7779 26.232 16.8071 26.1203 16.8054 25.5446C16.8028 24.9913 16.7512 24.7842 16.4574 24.1441C15.3516 21.7384 15.8104 18.6762 17.5408 16.9123C18.2273 16.2129 18.8502 15.8924 19.8306 15.7335C20.6855 15.5952 20.8281 15.535 21.1778 15.1656C21.8832 14.4215 21.7346 13.1653 20.8737 12.5957C20.4561 12.3199 19.7378 12.2409 18.9396 12.3835ZM48.8267 29.0141C50.7719 29.9901 52.0599 31.5238 52.4646 33.3418C52.7584 34.6633 52.48 36.5578 51.736 38.296C51.3605 39.1741 51.0546 39.6715 49.8758 41.3169C48.721 42.9305 48.2803 43.7261 47.8936 44.9006C47.5053 46.0751 47.2587 47.5125 47.0018 50.0815C46.897 51.1315 46.7784 52.08 46.7372 52.19C46.6676 52.3747 46.6512 52.3636 46.5146 52.0396C46.2715 51.4588 46.0318 50.5696 45.5377 48.4027C45.2782 47.2685 44.9492 45.9883 44.8065 45.557C44.145 43.5628 43.0572 42.5146 41.6499 42.5146C40.9118 42.5146 40.3843 42.7509 39.8696 43.3111C39.2854 43.9477 38.885 44.9075 38.4365 46.7444L37.6744 49.8693C37.4716 50.701 37.2551 51.5052 37.1941 51.6564L37.0815 51.9314L36.8684 51.2681C36.7507 50.9038 36.4045 49.6537 36.0986 48.4903C35.1732 44.9702 34.8124 44.0612 33.8475 42.8127C32.3542 40.8796 31.599 39.2651 30.9976 36.7176C30.6461 35.2303 30.629 33.6546 30.952 32.6854C31.257 31.7738 31.7021 31.0899 32.4341 30.4128C33.558 29.3724 34.9258 28.8577 36.6038 28.8457C37.6666 28.8379 37.9983 28.9299 39.5766 29.6748C40.4109 30.0683 40.7486 30.2874 41.2263 30.7479C42.2839 31.7652 43.2548 32.4062 44.3684 32.8203C45.2353 33.1434 46.8385 33.4862 47.257 33.4389C48.3894 33.3118 49.0544 32.0891 48.5715 31.0254C48.325 30.4824 47.8842 30.1852 47.0851 30.0219C46.1675 29.8346 45.0368 29.4548 44.7842 29.2486L44.5771 29.0794L44.8521 28.9677C45.365 28.758 46.2234 28.6249 47.1221 28.6163C48.0062 28.6068 48.0277 28.612 48.8267 29.0141ZM35.8013 29.6172C34.345 29.985 33.1163 31.3769 32.6481 33.1898C32.4384 34 32.441 35.5225 32.6532 36.3052C32.9703 37.4789 33.7324 38.6912 34.3458 38.9988C35.5264 39.5916 36.8306 38.796 36.8324 37.4832C36.8324 37.039 36.786 36.8963 36.4998 36.4753C36.0161 35.763 35.9165 35.4692 35.9165 34.7664C35.9165 33.6133 36.3452 32.8581 36.9337 32.9758C37.3264 33.0549 37.9613 32.7773 38.3342 32.3649C39.0517 31.5702 38.8231 30.3347 37.8539 29.7667C37.5154 29.5682 36.3349 29.4823 35.8013 29.6172Z" fill="#222222"/>
</svg>
