<svg width="64" height="64" viewBox="0 0 64 64" fill="none" xmlns="http://www.w3.org/2000/svg">
<path fill-rule="evenodd" clip-rule="evenodd" d="M53.067 12.1129C50.858 12.8659 38.895 17.4399 20.533 24.5529C9.116 28.9759 9.235 28.9269 8.74 29.3509C8.281 29.7439 8 30.1949 8 30.5379C8 30.8739 8.638 31.5179 9.23 31.7799C10.437 32.3139 20.527 35.3929 20.767 35.3009C20.843 35.2719 24.47 33.0059 28.826 30.2659C36.962 25.1479 44.138 20.6689 45.786 19.6799C46.545 19.2249 46.792 19.1269 47.118 19.1539C47.56 19.1909 47.699 19.4389 47.449 19.7449C47.256 19.9809 43.07 23.7859 34.4 31.6059C31.933 33.8301 29.4674 36.0558 27.003 38.2829C26.838 38.4359 26.686 40.0729 26.351 45.3269C26.064 49.8339 26.061 49.6409 26.427 49.6379C27.065 49.6329 27.617 49.2159 29.983 46.9519C30.9783 45.9941 31.9824 45.0454 32.995 44.1059L33.617 43.5469L33.902 43.7329C34.058 43.8349 35.459 44.8559 37.013 45.9999C42.306 49.8979 45.058 51.8299 45.506 51.9629C46.092 52.1379 46.877 52.1289 47.232 51.9439C47.662 51.7189 48.068 51.2479 48.316 50.6879C48.534 50.1959 49.411 46.1959 52.639 30.9739C55.564 17.1859 56 14.9879 56 14.0399C56 13.2409 55.562 12.4749 54.912 12.1369C54.582 11.9659 53.54 11.9519 53.067 12.1129Z" fill="#20A0E1"/>
</svg>
