<svg width="64" height="64" viewBox="0 0 64 64" fill="none" xmlns="http://www.w3.org/2000/svg">
<path fill-rule="evenodd" clip-rule="evenodd" d="M50.24 12.2521C49.615 12.4631 45.595 14.1071 39.253 16.7451C37.112 17.6361 31.784 19.8291 27.413 21.6181C10.018 28.7411 10.395 28.5801 9.528 29.2641C8.423 30.1351 8 30.8421 8 31.8171C8 33.3331 8.775 34.375 10.347 34.975C11.622 35.4611 16.685 37.0541 18.027 37.3911C19.945 37.8731 21.747 37.8531 23.223 37.3341C23.885 37.1021 24.976 36.4121 30.717 32.6011C32.916 31.1411 34.646 30.0291 34.563 30.1301C34.48 30.2301 33.425 31.2311 32.219 32.3551C28.411 35.9031 28.188 36.1341 27.782 36.9451C27.452 37.6041 27.413 37.7731 27.413 38.5481C27.414 40.1471 28.004 40.9841 30.405 42.7821C32.543 44.3841 38.572 48.4331 41.739 50.3941C42.706 50.9931 44.175 51.6431 45.013 51.8451C45.336 51.9221 46.104 51.9881 46.72 51.9921C47.749 51.9981 47.892 51.9731 48.48 51.6861C49.29 51.2901 50.118 50.4671 50.483 49.6941C51.076 48.4401 51.094 48.341 53.647 32.1881C55.775 18.7221 56.06 16.6811 55.968 15.5361C55.882 14.4641 55.635 13.8451 55.031 13.1841C54.254 12.3341 53.695 12.1241 52.107 12.0851C51.082 12.0601 50.71 12.0941 50.24 12.2521ZM52.335 16.4001C52.108 19.0991 47.806 46.2481 47.386 47.6271C47.127 48.4781 46.882 48.6091 45.982 48.3761C45.6034 48.2758 45.2313 48.1522 44.868 48.0061C43.179 47.2821 31.548 39.4161 31.107 38.7001C30.963 38.4651 30.927 38.503 33.707 35.9121C37.863 32.0371 41.717 28.3411 42.988 27.0121C44.59 25.3371 45.067 24.4851 45.067 23.3001C45.067 22.6031 45.034 22.4821 44.731 22.0641C44.5115 21.7782 44.2401 21.5363 43.931 21.3511C43.529 21.1351 43.355 21.1081 42.638 21.1471C41.2 21.2251 41.137 21.2621 30.321 28.4911C26.932 30.7551 23.633 32.9391 22.989 33.3441L21.818 34.0801L20.536 34.0701C19.387 34.0611 19.12 34.0201 17.973 33.6761C15.718 32.9981 12.385 31.8911 12.329 31.8021C12.267 31.7011 11.472 32.034 24.96 26.5081C29.7632 24.5425 34.5632 22.5692 39.36 20.5881C50.457 15.9821 51.466 15.5841 52.042 15.5771L52.405 15.5731L52.335 16.4001Z" fill="#20A0E1"/>
</svg>
