<svg width="64" height="64" viewBox="0 0 64 64" fill="none" xmlns="http://www.w3.org/2000/svg">
<path fill-rule="evenodd" clip-rule="evenodd" d="M13.3329 11.4169C11.8869 11.5009 10.9019 11.7129 10.1029 12.1129C8.00388 13.1629 6.64188 14.9789 6.17788 17.3449C6.00788 18.2139 5.91389 42.1469 6.06989 44.8389C6.18789 46.8729 6.34688 47.6909 6.79588 48.5809C7.86089 50.6899 9.62889 52.0149 12.0119 52.4909C12.4729 52.5829 17.3879 52.6289 30.4529 52.6609C48.6349 52.7069 51.4389 52.6629 52.7469 52.3129C55.0239 51.7029 57.0359 49.6909 57.6459 47.4129C57.9839 46.1519 58.0439 43.2459 57.9939 30.4389C57.9599 21.6379 57.9089 17.7889 57.8219 17.3449C57.3569 14.9739 56.0239 13.1949 53.9119 12.1289C53.0629 11.6999 52.1279 11.5079 50.3999 11.4069C48.4959 11.2959 15.2569 11.3049 13.3329 11.4169ZM52.0689 15.6429C52.7029 15.9359 53.3979 16.6299 53.6909 17.2639L53.9199 17.7599V46.2399L53.6909 46.7359C53.3979 47.3699 52.7029 48.0639 52.0689 48.3569L51.5729 48.5869H12.4269L11.9309 48.3569C11.2969 48.0639 10.6019 47.3699 10.3089 46.7359L10.0799 46.2399V17.7599L10.3089 17.2639C10.7259 16.3629 11.5989 15.6529 12.5149 15.4709C12.7599 15.4219 21.6479 15.3889 32.2669 15.3979L51.5729 15.4129L52.0689 15.6429ZM18.1369 24.7629C17.2629 25.0189 16.7199 25.7179 16.7109 26.5969C16.7009 27.5919 16.8189 27.7229 20.2739 30.5889C22.0229 32.0399 23.4539 33.2749 23.4539 33.3329C23.4539 33.3919 22.0229 34.6269 20.2739 36.0779C16.8069 38.9529 16.7009 39.0719 16.7119 40.0879C16.7229 41.1519 17.6069 41.9739 18.7229 41.9579C19.0209 41.9539 19.3739 41.8909 19.5079 41.8199C19.8879 41.6159 27.9809 34.8449 28.2449 34.5099C28.4903 34.1959 28.6307 33.8127 28.6463 33.4144C28.6619 33.0162 28.5519 32.6232 28.3319 32.2909C28.1109 31.9579 20.3279 25.3719 19.6799 24.9689C19.2699 24.7129 18.6079 24.6249 18.1369 24.7629ZM31.5059 38.0729C30.2139 38.3879 29.5949 40.0099 30.3559 41.0869C30.5269 41.3289 30.8589 41.6279 31.0929 41.7509C31.5109 41.9689 31.6609 41.9739 38.3379 42.0039C43.0859 42.0249 45.3319 41.9979 45.7339 41.9139C47.4949 41.5489 47.8659 39.2359 46.3179 38.2739L45.9199 38.0269L38.8799 38.0089C35.0079 37.9989 31.6899 38.0279 31.5059 38.0729Z" fill="#222222"/>
</svg>
