<svg width="64" height="64" viewBox="0 0 64 64" fill="none" xmlns="http://www.w3.org/2000/svg">
<path fill-rule="evenodd" clip-rule="evenodd" d="M10.1719 14.0749C8.88294 14.3829 8.26094 16.0099 9.02194 17.0869C9.19294 17.3289 9.52494 17.6279 9.75994 17.7509L10.1869 17.9729L31.6799 18.0019C47.0559 18.0219 53.3349 17.9959 53.7429 17.9119C55.7839 17.4899 55.8019 14.5279 53.7659 14.0909C53.1319 13.9549 10.7399 13.9389 10.1719 14.0749ZM26.1719 24.7419C24.8829 25.0489 24.2609 26.6769 25.0219 27.7539C25.1929 27.9959 25.5249 28.2949 25.7599 28.4169C26.1849 28.6389 26.2299 28.6399 39.6799 28.6689C49.2449 28.6889 53.3389 28.6629 53.7429 28.5789C55.7839 28.1549 55.8019 25.1949 53.7659 24.7579C53.1339 24.6219 26.7379 24.6069 26.1719 24.7419ZM10.1719 35.4079C8.88194 35.7179 8.26094 37.3439 9.02194 38.4209C9.19294 38.6629 9.52494 38.9609 9.75994 39.0839L10.1869 39.3069L31.6799 39.3349C47.0559 39.3549 53.3349 39.3299 53.7429 39.2449C55.4949 38.8829 55.8609 36.5669 54.3179 35.6079L53.9199 35.3599L32.2129 35.3439C20.2749 35.3349 10.3559 35.3629 10.1719 35.4079ZM26.1719 46.0749C24.8829 46.3829 24.2609 48.0099 25.0219 49.0869C25.1929 49.3289 25.5249 49.6279 25.7599 49.7509C26.1849 49.9729 26.2299 49.9729 39.6799 50.0019C49.2449 50.0219 53.3389 49.9959 53.7429 49.9119C55.7839 49.4889 55.8019 46.5279 53.7659 46.0909C53.1339 45.9559 26.7379 45.9399 26.1719 46.0749Z" fill="#222222"/>
</svg>
