<svg width="64" height="64" viewBox="0 0 64 64" fill="none" xmlns="http://www.w3.org/2000/svg">
<path fill-rule="evenodd" clip-rule="evenodd" d="M10.1719 14.075C8.88294 14.383 8.26094 16.01 9.02194 17.087C9.19294 17.329 9.52494 17.628 9.75994 17.751L10.1869 17.973L31.6799 18.002C47.0559 18.022 53.3349 17.996 53.7429 17.912C55.7399 17.499 55.8109 14.594 53.8359 14.097C53.2759 13.956 10.7619 13.934 10.1719 14.075ZM18.1719 24.742C16.8829 25.049 16.2609 26.677 17.0219 27.754C17.1929 27.996 17.5249 28.295 17.7599 28.417C18.1849 28.639 18.2299 28.64 31.6799 28.669C41.2449 28.689 45.3389 28.663 45.7429 28.579C47.7399 28.165 47.8109 25.261 45.8359 24.764C45.2769 24.623 18.7589 24.602 18.1719 24.742ZM10.1719 35.408C8.88194 35.718 8.26094 37.344 9.02194 38.421C9.19294 38.663 9.52494 38.961 9.75994 39.084L10.1869 39.307L31.6799 39.335C47.0559 39.355 53.3349 39.33 53.7429 39.245C55.4949 38.883 55.8609 36.567 54.3179 35.608L53.9199 35.36L32.2129 35.344C20.2749 35.335 10.3559 35.363 10.1719 35.408ZM18.1719 46.075C16.8829 46.383 16.2609 48.01 17.0219 49.087C17.1929 49.329 17.5249 49.628 17.7599 49.751C18.1849 49.973 18.2299 49.973 31.6799 50.002C41.2449 50.022 45.3389 49.996 45.7429 49.912C47.7399 49.498 47.8109 46.594 45.8359 46.097C45.2769 45.956 18.7589 45.935 18.1719 46.075Z" fill="#222222"/>
</svg>
