<svg width="64" height="64" viewBox="0 0 64 64" fill="none" xmlns="http://www.w3.org/2000/svg">
<path fill-rule="evenodd" clip-rule="evenodd" d="M15.506 11.408C15.038 11.52 14.565 11.881 14.274 12.349C14.039 12.727 14.027 12.843 14.027 14.684V16.622L14.347 17.075C14.749 17.644 15.316 17.945 15.988 17.945C17.098 17.945 17.765 17.321 17.956 16.107L18.074 15.36H29.973V48.62L28.019 48.656C26.106 48.693 26.055 48.699 25.632 48.979C24.992 49.403 24.711 49.923 24.711 50.685C24.711 51.208 24.764 51.388 25.022 51.754C25.193 51.996 25.525 52.295 25.76 52.417C26.174 52.633 26.348 52.641 31.668 52.671C35.45 52.693 37.329 52.665 37.731 52.582C39.783 52.156 39.811 49.196 37.766 48.758C37.464 48.693 36.499 48.64 35.621 48.64H34.027V15.36H45.943L46.011 16.014C46.121 17.062 46.641 17.699 47.554 17.904C48.64 18.148 49.68 17.498 49.909 16.433C50.061 15.724 50.061 13.61 49.909 12.901C49.8328 12.5501 49.6612 12.2271 49.4131 11.9675C49.165 11.708 48.85 11.522 48.503 11.43C47.943 11.289 16.094 11.268 15.506 11.408Z" fill="#222222"/>
</svg>
