<svg width="64" height="64" viewBox="0 0 64 64" fill="none" xmlns="http://www.w3.org/2000/svg">
<path fill-rule="evenodd" clip-rule="evenodd" d="M13.067 14.08C11.77 14.162 10.959 14.362 9.96699 14.846C8.23499 15.69 6.94199 17.248 6.35399 19.2C6.14199 19.902 5.92799 22.782 6.00699 23.868C6.07299 24.769 6.32699 25.265 6.92599 25.661C7.23599 25.866 7.54499 25.943 8.39199 26.023C10.103 26.186 11.359 26.79 12.429 27.963C13.474 29.11 13.973 30.413 13.973 32C13.973 33.587 13.474 34.89 12.429 36.037C11.359 37.21 10.103 37.814 8.39199 37.977C7.16699 38.093 6.70799 38.317 6.27999 39.006C6.03499 39.4 6.02699 39.479 6.04499 41.396C6.06599 43.583 6.17499 44.403 6.58299 45.44C7.49399 47.76 9.45899 49.353 12 49.832C13.1 50.04 50.9 50.04 52 49.832C54.541 49.353 56.506 47.76 57.417 45.44C57.821 44.413 57.927 43.626 57.951 41.468C57.971 39.744 57.95 39.473 57.772 39.114C57.465 38.496 56.983 38.186 56.139 38.065C55.74 38.008 55.125 37.917 54.773 37.863C53.76 37.707 52.654 37.101 51.783 36.223C50.555 34.984 50.027 33.714 50.027 32C50.027 30.282 50.557 29.01 51.783 27.783C52.878 26.689 54.297 26.027 55.549 26.027C56.865 26.027 57.697 25.441 57.925 24.356C58.097 23.532 57.911 20.058 57.649 19.2C57.049 17.24 55.763 15.689 54.039 14.849C53.001 14.343 52.315 14.183 50.72 14.077C49.016 13.964 14.87 13.966 13.067 14.08ZM35.307 32.002V45.978L23.867 45.949L12.427 45.92L11.931 45.691C11.293 45.396 10.597 44.698 10.323 44.078C10.046 43.452 9.92199 41.841 10.145 41.774C13.452 40.783 15.365 39.333 16.748 36.769C17.599 35.192 17.945 33.814 17.945 32C17.945 30.186 17.599 28.808 16.748 27.231C15.372 24.679 13.377 23.166 10.16 22.232C9.99199 22.183 9.98299 21.229 10.143 20.484C10.367 19.439 11.302 18.458 12.341 18.179C12.743 18.071 15.263 18.04 24.08 18.034L35.307 18.027V32.002ZM52.069 18.309C52.707 18.604 53.403 19.302 53.677 19.922C53.954 20.548 54.078 22.159 53.855 22.226C50.548 23.217 48.635 24.667 47.252 27.231C46.401 28.808 46.055 30.186 46.055 32C46.055 33.814 46.401 35.192 47.252 36.769C48.635 39.333 50.548 40.783 53.855 41.774C54.078 41.841 53.954 43.452 53.677 44.078C53.403 44.698 52.707 45.396 52.069 45.691C51.583 45.916 51.457 45.921 45.467 45.951L39.36 45.982V18.018L45.467 18.049C51.457 18.079 51.583 18.084 52.069 18.309Z" fill="#222222"/>
</svg>
