<svg width="64" height="64" viewBox="0 0 64 64" fill="none" xmlns="http://www.w3.org/2000/svg">
<path fill-rule="evenodd" clip-rule="evenodd" d="M24.48 5.16199C23.999 5.37299 23.477 5.96399 23.347 6.44699C23.104 7.35199 23.52 8.33799 24.316 8.74499C24.724 8.95299 24.93 8.95999 30.469 8.95999C36.014 8.95999 36.214 8.95299 36.648 8.74299C37.475 8.34299 37.933 7.30099 37.654 6.45499C37.487 5.94899 36.952 5.34099 36.512 5.15699C36.015 4.94999 24.955 4.95399 24.48 5.16199ZM47.627 9.87399C46.466 10.478 46.179 11.81 46.978 12.892C47.179 13.164 48.703 14.736 50.365 16.385C53.632 19.627 53.729 19.698 54.737 19.601C55.325 19.544 55.916 19.145 56.248 18.579C56.488 18.168 56.506 17.207 56.281 16.783C56.041 16.33 49.594 9.94799 49.246 9.81799C48.807 9.65499 47.994 9.68299 47.627 9.87399ZM28.213 13.03C25.352 13.281 22.572 14.088 19.91 15.441C18.829 15.99 16.853 17.211 16.853 17.329C16.853 17.403 19.001 20.369 19.098 20.43C19.142 20.457 19.59 20.221 20.093 19.905C22.919 18.131 25.733 17.217 29.158 16.961C34.79 16.541 40.259 18.607 44.326 22.691C49.516 27.904 51.293 35.408 49.012 42.484C47.49 47.206 43.977 51.358 39.568 53.645C36.388 55.295 33.4 55.976 29.867 55.858C26.782 55.755 24.463 55.171 21.775 53.821C18.587 52.22 15.811 49.694 13.961 46.71C11.292 42.407 10.403 37.383 11.425 32.382C11.602 31.515 12.278 29.286 12.402 29.163C12.418 29.146 13.198 29.56 14.136 30.082C15.073 30.604 15.855 30.986 15.874 30.932C15.908 30.837 14.726 21.201 14.674 21.147C14.633 21.104 4.80298 24.795 4.80298 24.853C4.80298 24.883 5.65798 25.379 6.70398 25.956C7.74898 26.533 8.66498 27.043 8.73898 27.089C8.84198 27.152 8.76798 27.457 8.43198 28.371C7.55598 30.752 7.15698 32.865 7.07198 35.577C6.97398 38.66 7.31898 41.086 8.24898 43.871C9.43298 47.412 11.213 50.274 13.91 52.97C17.008 56.069 20.515 58.081 24.666 59.14C26.577 59.628 28.346 59.84 30.507 59.84C34.972 59.84 38.986 58.727 42.719 56.453C48.979 52.641 53.124 46.05 53.862 38.735C54.846 28.979 49.621 19.608 40.795 15.296C36.943 13.414 32.649 12.64 28.213 13.03ZM22.67 26.782C20.63 27.091 19.035 28.305 18.269 30.133C18.1434 30.4342 18.0476 30.7471 17.983 31.067L17.862 31.84L17.804 32.213H21.227V31.913C21.227 30.848 22.032 29.681 22.933 29.439C23.608 29.258 24.468 29.368 24.969 29.7C25.602 30.119 25.86 30.705 25.864 31.733C25.869 33.339 25.429 33.976 21.186 38.509L18.143 41.76L18.138 42.853L18.133 43.947H29.867V41.387H26.24C24.245 41.387 22.613 41.358 22.613 41.323C22.613 41.288 23.369 40.421 24.293 39.397L26.759 36.661C28.022 35.256 28.715 34.133 29.069 32.915C29.322 32.046 29.246 30.369 28.916 29.52C28.451 28.321 27.212 27.314 25.76 26.952C24.916 26.742 23.463 26.662 22.67 26.782ZM35.004 32.601L31.464 38.215L31.534 39.213L31.605 40.21L35.082 40.239L38.56 40.267L38.589 42.107L38.618 43.947H41.915L41.944 42.107L41.973 40.267L42.907 40.236L43.84 40.205V37.662L42.907 37.631L41.973 37.6L41.946 32.293L41.918 26.987H38.544L35.004 32.601ZM38.577 37.619C38.555 37.64 37.698 37.645 36.673 37.629L34.81 37.6L36.685 34.507L38.56 31.413L38.588 34.496C38.604 36.192 38.599 37.597 38.577 37.619Z" fill="#222222"/>
</svg>
