<svg width="64" height="64" viewBox="0 0 64 64" fill="none" xmlns="http://www.w3.org/2000/svg">
<path fill-rule="evenodd" clip-rule="evenodd" d="M24.48 5.16199C23.999 5.37299 23.477 5.96399 23.347 6.44699C23.104 7.35199 23.52 8.33799 24.316 8.74499C24.724 8.95299 24.93 8.95999 30.469 8.95999C36.014 8.95999 36.214 8.95299 36.648 8.74299C37.475 8.34299 37.933 7.30099 37.654 6.45499C37.487 5.94899 36.952 5.34099 36.512 5.15699C36.015 4.94999 24.955 4.95399 24.48 5.16199ZM47.627 9.87399C46.466 10.478 46.179 11.81 46.978 12.892C47.179 13.164 48.703 14.736 50.365 16.385C53.632 19.627 53.729 19.698 54.737 19.601C55.325 19.544 55.916 19.145 56.248 18.579C56.488 18.168 56.506 17.207 56.281 16.783C56.041 16.33 49.594 9.94799 49.246 9.81799C48.807 9.65499 47.994 9.68299 47.627 9.87399ZM28.213 13.03C25.352 13.281 22.572 14.088 19.91 15.441C18.829 15.99 16.853 17.211 16.853 17.329C16.853 17.403 19.001 20.369 19.098 20.43C19.142 20.457 19.59 20.221 20.093 19.905C22.919 18.131 25.733 17.217 29.158 16.961C34.79 16.541 40.259 18.607 44.326 22.691C49.516 27.904 51.293 35.408 49.012 42.484C47.49 47.206 43.977 51.358 39.568 53.645C36.388 55.295 33.4 55.976 29.867 55.858C26.782 55.755 24.463 55.171 21.775 53.821C18.587 52.22 15.811 49.694 13.961 46.71C11.292 42.407 10.403 37.383 11.425 32.382C11.602 31.515 12.278 29.286 12.402 29.163C12.418 29.146 13.198 29.56 14.136 30.082C15.073 30.604 15.855 30.986 15.874 30.932C15.908 30.837 14.726 21.201 14.674 21.147C14.633 21.104 4.80298 24.795 4.80298 24.853C4.80298 24.883 5.65798 25.379 6.70398 25.956C7.74898 26.533 8.66498 27.043 8.73898 27.089C8.84198 27.152 8.76798 27.457 8.43198 28.371C7.55598 30.752 7.15698 32.865 7.07198 35.577C6.97398 38.66 7.31898 41.086 8.24898 43.871C9.43298 47.412 11.213 50.274 13.91 52.97C17.008 56.069 20.515 58.081 24.666 59.14C26.577 59.628 28.346 59.84 30.507 59.84C34.972 59.84 38.986 58.727 42.719 56.453C48.979 52.641 53.124 46.05 53.862 38.735C54.846 28.979 49.621 19.608 40.795 15.296C36.943 13.414 32.649 12.64 28.213 13.03ZM29.707 23.832C29.299 24.014 28.96 24.34 28.721 24.776C28.548 25.093 28.533 25.585 28.533 30.951V36.782L28.853 37.235C29.708 38.444 31.505 38.382 32.212 37.119L32.48 36.64V30.987C32.48 27.877 32.443 25.202 32.398 25.042C32.286 24.638 31.699 23.997 31.285 23.824C30.849 23.642 30.122 23.646 29.707 23.832Z" fill="#222222"/>
</svg>
