<svg width="64" height="64" viewBox="0 0 64 64" fill="none" xmlns="http://www.w3.org/2000/svg">
<path fill-rule="evenodd" clip-rule="evenodd" d="M24.48 5.16199C23.999 5.37299 23.477 5.96399 23.347 6.44699C23.104 7.35199 23.52 8.33799 24.316 8.74499C24.724 8.95299 24.93 8.95999 30.469 8.95999C36.014 8.95999 36.214 8.95299 36.648 8.74299C37.475 8.34299 37.933 7.30099 37.654 6.45499C37.487 5.94899 36.952 5.34099 36.512 5.15699C36.015 4.94999 24.955 4.95399 24.48 5.16199ZM47.6269 9.87399C46.466 10.478 46.179 11.81 46.978 12.892C47.179 13.164 48.703 14.736 50.365 16.385C53.632 19.627 53.729 19.698 54.7369 19.601C55.325 19.544 55.916 19.145 56.248 18.579C56.488 18.168 56.5059 17.207 56.2809 16.783C56.0409 16.33 49.5939 9.94799 49.2459 9.81799C48.8069 9.65499 47.9939 9.68299 47.6269 9.87399ZM28.107 13.126C24.754 13.473 20.94 14.775 18.133 16.531C15.088 18.436 12.416 21.103 10.568 24.084C8.93656 26.7368 7.82795 29.6774 7.30195 32.747C7.06295 34.167 6.97695 37.486 7.14295 38.911C7.69095 43.632 9.42395 47.778 12.36 51.395C14.881 54.5 18.509 57.096 22.29 58.5C22.846 58.707 23.334 58.841 23.374 58.798C23.458 58.709 24.533 55.355 24.533 55.181C24.533 55.119 24.164 54.936 23.712 54.776C21.044 53.829 18.668 52.276 16.585 50.12C13.329 46.747 11.552 42.943 11.086 38.347C10.597 33.514 12.012 28.618 15.053 24.623C15.899 23.511 17.525 21.882 18.622 21.047C24.658 16.452 32.607 15.717 39.323 19.132C42.004 20.495 44.264 22.37 45.99 24.66L46.367 25.161L47.8499 24.095C48.3895 23.7024 48.9346 23.3174 49.485 22.94C49.83 22.738 47.0939 19.682 45.2799 18.242C41.9459 15.596 38.23 13.961 33.973 13.268C32.787 13.074 29.399 12.993 28.107 13.126ZM29.707 23.832C29.299 24.014 28.96 24.34 28.721 24.776C28.548 25.093 28.533 25.585 28.533 30.951V36.782L28.853 37.235C29.708 38.444 31.505 38.382 32.212 37.119L32.48 36.64V30.987C32.48 27.877 32.443 25.202 32.398 25.042C32.286 24.638 31.699 23.997 31.285 23.824C30.849 23.642 30.122 23.646 29.707 23.832ZM49.6769 27.097C49.4202 27.1653 49.1702 27.2566 48.93 27.37C48.741 27.465 43.897 32.229 38.164 37.958C29.069 47.047 27.708 48.448 27.474 48.962C27.218 49.525 27.2 49.71 27.035 53.357C26.878 56.816 26.877 57.216 27.029 57.738C27.228 58.423 27.883 59.215 28.52 59.541C29.139 59.859 29.916 59.881 33.846 59.698C37.107 59.545 37.261 59.528 37.793 59.266C38.241 59.046 40.3569 56.981 48.868 48.457C58.907 38.403 59.398 37.894 59.575 37.345C59.811 36.613 59.746 35.641 59.416 34.984C59.054 34.263 52.3739 27.602 51.7249 27.315C51.1379 27.056 50.2289 26.959 49.6769 27.097ZM52.9339 33.894L55.36 36.322L53.226 38.454L51.0929 40.585L48.6139 38.106L46.1349 35.627L48.213 33.547C49.356 32.403 50.34 31.467 50.4 31.467C50.46 31.467 51.5999 32.559 52.9339 33.894ZM45.8139 40.96L48.2659 43.414L42.16 49.52L36.053 55.627L33.545 55.723C32.165 55.775 31.007 55.789 30.971 55.753C30.935 55.717 30.958 54.548 31.023 53.154L31.14 50.62L37.197 44.563C40.527 41.232 43.277 38.507 43.3069 38.507C43.3369 38.507 44.465 39.611 45.8139 40.96Z" fill="#222222"/>
</svg>
