<svg width="64" height="64" viewBox="0 0 64 64" fill="none" xmlns="http://www.w3.org/2000/svg">
<path fill-rule="evenodd" clip-rule="evenodd" d="M26.172 3.406C24.88 3.723 24.261 5.344 25.022 6.421C25.193 6.663 25.525 6.961 25.76 7.084C26.174 7.3 26.348 7.308 31.668 7.338C35.45 7.359 37.329 7.332 37.731 7.248C39.495 6.882 39.868 4.571 38.318 3.608L37.92 3.36L32.213 3.342C29.075 3.332 26.356 3.361 26.172 3.406ZM50.172 8.739C49.705 8.854 49.231 9.215 48.95 9.67C48.626 10.194 48.619 11.13 48.936 11.639C49.059 11.837 50.471 13.303 52.074 14.894C54.809 17.613 55.018 17.795 55.493 17.895C57.038 18.218 58.218 17.038 57.895 15.493C57.795 15.018 57.613 14.809 54.894 12.074C53.303 10.471 51.856 9.073 51.68 8.965C51.292 8.728 50.626 8.628 50.172 8.739ZM30.293 11.416C23.985 11.841 17.971 14.973 13.909 19.949C11.288 23.159 9.53999 27.163 8.90299 31.413C8.66499 33.002 8.66499 36.332 8.90299 37.92C9.54787 42.3069 11.4049 46.4266 14.265 49.815C17.299 53.423 21.775 56.177 26.453 57.316C28.392 57.787 29.746 57.94 32 57.94C34.254 57.94 35.608 57.787 37.547 57.316C42.452 56.122 47.047 53.199 50.163 49.29C52.794 45.989 54.468 42.131 55.096 37.92C55.305 36.521 55.335 33.262 55.153 31.84C54.405 26.02 51.482 20.577 47.148 16.932C42.398 12.938 36.476 11 30.293 11.416ZM35.68 15.674C39.4613 16.4217 42.9327 18.2831 45.648 21.019C48.422 23.792 50.218 27.156 51.008 31.058C51.221 32.106 51.253 32.586 51.253 34.667C51.253 36.748 51.221 37.227 51.008 38.276C50.218 42.177 48.422 45.541 45.648 48.315C42.875 51.088 39.51 52.885 35.609 53.675C34.561 53.887 34.081 53.92 32 53.92C29.91 53.92 29.442 53.888 28.373 53.672C24.488 52.885 21.124 51.087 18.352 48.315C15.579 45.542 13.782 42.179 12.995 38.293C12.779 37.225 12.747 36.757 12.747 34.667C12.747 32.576 12.779 32.108 12.995 31.04C13.782 27.154 15.579 23.791 18.352 21.019C21.474 17.896 25.138 16.109 29.813 15.427C29.989 15.401 31.117 15.393 32.32 15.409C34.073 15.431 34.739 15.484 35.68 15.674ZM23.506 32.74C22.214 33.054 21.595 34.677 22.356 35.754C22.527 35.996 22.859 36.295 23.093 36.417C23.514 36.637 23.641 36.64 31.674 36.67C37.386 36.691 40.001 36.664 40.404 36.58C42.162 36.215 42.531 33.902 40.985 32.941L40.587 32.693L32.213 32.676C27.608 32.666 23.69 32.695 23.506 32.74Z" fill="#222222"/>
</svg>
