<svg width="64" height="64" viewBox="0 0 64 64" fill="none" xmlns="http://www.w3.org/2000/svg">
<path fill-rule="evenodd" clip-rule="evenodd" d="M24.344 4.22997C23.587 4.60397 23.167 5.45597 23.302 6.34997C23.363 6.75797 23.473 6.94897 23.879 7.35597C24.191 7.66797 24.515 7.88397 24.737 7.92897C24.933 7.96797 27.571 7.99897 30.6 7.99797C35.712 7.99497 36.138 7.98097 36.538 7.79997C38.028 7.12297 38.124 4.99697 36.697 4.26897C36.289 4.05997 36.086 4.05297 30.484 4.05597C25.372 4.05797 24.652 4.07797 24.344 4.22997ZM47.682 8.87997C47.046 9.20497 46.633 9.74897 46.547 10.375C46.414 11.347 46.518 11.483 50.159 15.113C53.037 17.981 53.555 18.452 53.94 18.554C55.237 18.895 56.451 17.972 56.451 16.644C56.451 16.352 56.362 15.973 56.234 15.727C56.11 15.487 54.625 13.923 52.782 12.091C50.086 9.41097 49.476 8.85497 49.12 8.75797C48.496 8.58697 48.207 8.61197 47.682 8.87997ZM27.68 12.168C23.956 12.668 20.606 13.901 17.6 15.879C7.72801 22.374 4.21601 35.253 9.43601 45.813C11.719 50.431 15.122 53.93 19.631 56.297C20.868 56.946 22.543 57.655 23.107 57.768L23.415 57.83L23.992 56.005C24.334 54.926 24.53 54.145 24.472 54.094C24.418 54.047 24.061 53.898 23.68 53.763C19.3 52.215 15.481 48.83 13.179 44.454C9.71901 37.877 10.421 29.715 14.957 23.756C20.043 17.074 28.698 14.368 36.632 16.978C38.012 17.432 40.628 18.758 41.805 19.601C43.051 20.492 44.763 22.115 45.659 23.253C46.032 23.726 46.393 24.091 46.462 24.065C46.53 24.039 47.267 23.529 48.098 22.932L49.61 21.847L49.321 21.457C48.245 20.007 46.737 18.426 45.387 17.334C42.142 14.71 38.421 13.023 34.293 12.306C33.15 12.107 28.806 12.016 27.68 12.168ZM29.887 21.09C29.493 21.165 28.731 21.971 28.598 22.453C28.457 22.968 28.448 24.32 28.582 24.898C28.935 26.419 30.835 26.937 31.912 25.807C32.205 25.498 32.335 25.241 32.432 24.778C32.587 24.033 32.503 22.537 32.282 22.112C31.85 21.281 30.933 20.89 29.887 21.09ZM37.867 24.148C36.358 24.484 35.182 25.56 34.668 27.075C34.519 27.513 34.318 27.922 34.222 27.983C34.088 28.067 33.866 28.011 33.294 27.747C32.29 27.284 31.34 27.14 30.416 27.31C29.24 27.527 28.657 27.878 27.328 29.168C26.345 30.123 26.052 30.481 25.74 31.113C25.406 31.789 25.351 32.012 25.307 32.877C25.255 33.887 25.34 34.286 25.844 35.42C26.093 35.98 25.919 36.236 25.09 36.534C23.437 37.129 22.329 38.476 22.081 40.192C21.948 41.113 21.948 42.945 22.082 43.871C22.2054 44.706 22.5637 45.4888 23.1151 46.1279C23.6664 46.7671 24.3881 47.2364 25.196 47.481C25.594 47.602 25.946 47.743 25.978 47.794C26.01 47.845 25.83 48.261 25.578 48.717L25.12 49.547V50.72C25.12 51.826 25.14 51.936 25.471 52.635C25.765 53.255 26.061 53.614 27.285 54.83C28.478 56.017 28.884 56.351 29.493 56.648C30.198 56.991 30.304 57.012 31.36 57.012C32.448 57.013 32.503 57.002 33.31 56.599C33.767 56.371 34.167 56.211 34.2 56.244C34.232 56.277 34.303 56.501 34.358 56.743C34.625 57.931 35.555 59.085 36.665 59.605L37.28 59.893H42.72L43.334 59.606C44.459 59.078 45.522 57.836 45.709 56.83C45.826 56.199 45.966 56.159 46.717 56.54C48.007 57.196 49.351 57.206 50.66 56.571C51.486 56.17 54.12 53.53 54.54 52.682C55.181 51.39 55.163 49.988 54.488 48.658C54.089 47.871 54.135 47.697 54.79 47.508C55.513 47.298 56.123 46.931 56.692 46.362C57.769 45.284 58.1 44.01 57.999 41.333C57.957 40.226 57.887 39.684 57.729 39.235C57.289 37.989 56.338 37.012 55.138 36.575C54.785 36.446 54.456 36.264 54.405 36.169C54.342 36.051 54.414 35.788 54.631 35.34C55.326 33.903 55.242 32.24 54.409 30.968C54.185 30.626 53.473 29.792 52.826 29.115C51.914 28.161 51.497 27.807 50.971 27.544C49.631 26.874 48.246 26.89 46.859 27.593C45.96 28.049 45.871 28.019 45.591 27.165C45.091 25.641 43.75 24.452 42.155 24.118C41.412 23.963 38.612 23.983 37.867 24.148ZM41.488 28.082C41.667 28.173 41.824 28.423 41.986 28.876C42.524 30.379 43.562 31.346 45.067 31.748C46.143 32.036 47.413 31.862 48.383 31.295C48.623 31.155 48.895 31.04 48.987 31.04C49.213 31.04 51.093 33.066 51.093 33.309C51.093 33.414 50.974 33.737 50.827 34.026C49.99 35.678 50.338 37.764 51.674 39.1C52.151 39.576 52.688 39.899 53.68 40.303L53.973 40.422V41.958C53.973 43.609 53.962 43.643 53.391 43.78C52.742 43.935 51.926 44.427 51.406 44.978C50.08 46.38 49.827 48.289 50.732 50.065L51.105 50.796L49.952 51.962L48.799 53.127L48.027 52.731C47.362 52.39 47.132 52.329 46.36 52.288C44.236 52.177 42.584 53.377 41.958 55.486L41.804 56.005L40.034 55.976L38.264 55.947L38.117 55.371C37.697 53.731 36.486 52.595 34.803 52.264C33.921 52.09 33.03 52.252 32.024 52.767L31.248 53.164L30.131 52.051C29.516 51.438 29.013 50.872 29.013 50.792C29.013 50.712 29.109 50.512 29.225 50.349C29.747 49.616 29.907 49.057 29.913 47.947C29.918 46.997 29.886 46.81 29.623 46.247C29.032 44.983 28.263 44.304 26.897 43.841L26.08 43.564L26.05 42.09C26.031 41.128 26.061 40.567 26.138 40.474C26.203 40.396 26.505 40.25 26.808 40.15C29.43 39.287 30.722 36.238 29.493 33.813C29.346 33.524 29.227 33.2 29.227 33.094C29.227 32.845 30.831 31.247 31.101 31.229C31.214 31.221 31.643 31.376 32.053 31.575C32.694 31.884 32.939 31.941 33.776 31.98C35.277 32.049 36.406 31.588 37.346 30.521C37.862 29.936 38.098 29.495 38.334 28.674C38.446 28.286 38.575 28.051 38.694 28.02C39.123 27.908 41.237 27.955 41.488 28.082ZM38.396 33.765C35.24 34.336 32.572 36.903 31.828 40.081C31.625 40.951 31.599 42.799 31.779 43.68C32.372 46.589 34.563 49.05 37.41 50.006C38.171 50.262 38.385 50.285 40 50.285C41.615 50.285 41.829 50.262 42.59 50.006C44.976 49.205 47.043 47.212 47.878 44.907C48.219 43.965 48.352 43.118 48.346 41.92C48.336 40.096 47.905 38.697 46.906 37.251C44.996 34.487 41.75 33.157 38.396 33.765ZM41.2 37.778C42.129 37.98 43.21 38.841 43.857 39.893C44.7 41.266 44.487 43.532 43.397 44.786C41.218 47.292 37.353 46.764 35.979 43.772C35.597 42.941 35.512 41.577 35.789 40.732C36.32 39.115 37.732 37.887 39.31 37.671C39.987 37.578 40.386 37.601 41.2 37.778Z" fill="#222222"/>
</svg>
