<svg width="64" height="64" viewBox="0 0 64 64" fill="none" xmlns="http://www.w3.org/2000/svg">
<path fill-rule="evenodd" clip-rule="evenodd" d="M10.1329 4.21904C9.75189 4.30004 9.00788 4.58304 8.47988 4.84704C6.89733 5.6186 5.61844 6.89749 4.84689 8.48004C4.00589 10.166 4.04489 9.40704 4.07789 23.659C4.10589 35.67 4.11789 36.35 4.30589 36.907C5.18089 39.499 7.12488 41.442 9.70688 42.306C10.2439 42.486 10.8599 42.507 17.0129 42.558L23.7329 42.613L23.7929 48.213L23.8519 53.813L24.1509 54.72C25.1029 57.604 26.9789 59.65 29.7229 60.797C31.2839 61.45 31.0779 61.44 42.6129 61.44C54.2549 61.44 53.9559 61.456 55.6069 60.748C56.9659 60.165 57.5959 59.737 58.6659 58.666C59.7369 57.596 60.1649 56.966 60.7479 55.607C61.4559 53.956 61.4399 54.255 61.4399 42.613C61.4399 31.078 61.4499 31.284 60.7969 29.723C59.6549 26.992 57.5699 25.079 54.7199 24.148L53.8129 23.852L48.2129 23.793L42.6129 23.733L42.5579 17.013C42.5069 10.86 42.4859 10.244 42.3059 9.70704C41.3839 6.95304 39.0459 4.76904 36.4269 4.21504C35.3489 3.98704 11.1989 3.99004 10.1329 4.21904ZM36.4849 7.33304C37.7139 7.83104 38.9459 9.14304 39.4149 10.453C39.6179 11.021 39.6259 11.418 39.6569 22.667C39.6769 30.048 39.6499 34.616 39.5809 35.178C39.2939 37.531 37.5309 39.294 35.1779 39.581C34.6159 39.65 30.0479 39.677 22.6669 39.657C11.4069 39.626 11.0219 39.618 10.4529 39.415C9.12489 38.938 7.83589 37.728 7.33289 36.485L7.09289 35.893L7.06489 23.52C7.03689 11.387 7.03989 11.133 7.24989 10.44C7.66989 9.05804 8.93388 7.76404 10.3339 7.28504L11.0399 7.04404L23.4669 7.06904L35.8929 7.09304L36.4849 7.33304ZM22.6129 13.322C22.4079 13.435 22.1609 13.663 22.0639 13.83C21.7499 14.372 14.1779 31.481 14.1169 31.789C13.9249 32.747 14.9789 33.692 15.9629 33.445C16.5629 33.295 16.8799 32.775 18.2319 29.733L19.5469 26.773H27.0669L28.3759 29.712C29.0959 31.329 29.7779 32.77 29.8919 32.914C30.1689 33.267 30.6299 33.493 31.0719 33.493C31.8359 33.493 32.5909 32.646 32.4979 31.893C32.4729 31.688 30.6649 27.499 28.4799 22.585C25.1469 15.089 24.4559 13.613 24.1909 13.424C23.7489 13.11 23.0799 13.066 22.6129 13.322ZM24.5289 21.058C25.1769 22.514 25.7069 23.724 25.7069 23.746C25.7069 23.768 24.6219 23.787 23.2949 23.787C21.4089 23.787 20.8949 23.758 20.9359 23.653C21.1829 23.027 23.2949 18.352 23.3199 18.377C23.3379 18.395 23.8819 19.601 24.5289 21.058ZM54.1469 27.075C55.9419 27.741 57.5229 29.332 58.1419 31.092C58.5389 32.222 58.5719 33.248 58.5319 43.327C58.4969 52.285 58.4789 53.118 58.3039 53.707C57.9749 54.7923 57.3833 55.7796 56.5814 56.5815C55.7795 57.3834 54.7922 57.9751 53.7069 58.304C53.1179 58.479 52.2849 58.497 43.3269 58.532C33.5609 58.571 32.3229 58.536 31.1979 58.195C29.5189 57.687 27.7409 55.943 27.0779 54.157C26.8349 53.501 26.8309 53.433 26.7979 48.032L26.7639 42.57L31.5419 42.538L36.3199 42.507L37.1729 42.206C39.4849 41.393 41.3929 39.485 42.2059 37.173L42.5069 36.32L42.5379 31.542L42.5699 26.764L48.0319 26.798C53.4099 26.831 53.5029 26.836 54.1469 27.075ZM44.3969 33.564C43.3449 34.082 43.2689 35.472 44.2559 36.131C44.5859 36.352 44.7409 36.373 45.9889 36.373C46.8469 36.373 47.3599 36.414 47.3599 36.482C47.3599 36.646 46.2679 38.788 45.6409 39.855C44.2499 42.217 42.6009 44.41 40.8419 46.234L39.8179 47.297L39.4559 46.889C38.9575 46.3397 38.5463 45.7171 38.2369 45.043C37.8999 44.29 37.4789 44.027 36.7019 44.084C36.2059 44.121 36.0769 44.179 35.7839 44.499C35.3169 45.008 35.2459 45.482 35.5229 46.224C35.7649 46.871 36.5589 48.145 37.1139 48.777L37.4639 49.176L36.5379 49.604C35.4409 50.111 34.2239 50.478 32.8609 50.713C32.3159 50.807 31.7729 50.952 31.6529 51.036C31.2689 51.305 31.0409 51.763 31.0409 52.267C31.0409 52.882 31.3249 53.348 31.8519 53.599C32.2269 53.777 32.3469 53.782 33.2069 53.66C35.1189 53.39 37.3539 52.642 38.8729 51.766L39.7199 51.278L40.6379 51.768C42.5989 52.816 45.3279 53.398 49.7599 53.713C50.6539 53.777 50.7459 53.764 51.0929 53.529C52.0239 52.898 52.0479 51.621 51.1419 51.027C50.9539 50.904 50.2849 50.791 48.9299 50.653C45.3699 50.291 44.3649 50.104 42.8479 49.521L42.1229 49.242L42.8019 48.541C45.6749 45.574 48.2809 41.731 49.9699 37.973L50.6639 36.427L52.7189 36.373C55.0019 36.314 55.1859 36.262 55.5109 35.578C55.599 35.4016 55.6512 35.2095 55.6644 35.0127C55.6776 34.8159 55.6515 34.6185 55.5877 34.4319C55.5238 34.2453 55.4235 34.0733 55.2926 33.9258C55.1616 33.7784 55.0026 33.6585 54.8249 33.573C54.4869 33.404 54.0109 33.387 49.5999 33.389C45.3479 33.391 44.7029 33.413 44.3969 33.564Z" fill="#222222"/>
</svg>
