<svg width="64" height="64" viewBox="0 0 64 64" fill="none" xmlns="http://www.w3.org/2000/svg">
<path fill-rule="evenodd" clip-rule="evenodd" d="M26.4 6.08003C25.755 6.12103 24.941 6.23703 24.593 6.33903C22.612 6.91903 21.033 8.21503 20.182 9.96103C19.694 10.963 19.51 11.687 19.444 12.875L19.383 13.963L14.724 13.995L10.064 14.027L9.632 14.313C8.992 14.737 8.711 15.256 8.711 16.018C8.711 16.541 8.764 16.721 9.022 17.087C9.573 17.867 9.908 17.968 12.08 18.01L13.973 18.047L13.977 33.424C13.98 49.029 14.027 51.46 14.345 52.686C15.026 55.313 17.194 57.277 20.012 57.82C20.898 57.991 39.506 58.085 42.143 57.932C44.314 57.806 45.046 57.653 46.08 57.111C47.836 56.191 49.18 54.53 49.654 52.693C49.973 51.457 50.02 49.041 50.023 33.413L50.027 18.027H51.621C53.657 18.027 54.19 17.916 54.72 17.386C55.781 16.325 55.28 14.461 53.836 14.097C53.504 14.013 51.936 13.973 48.981 13.973H44.617L44.556 12.88C44.49 11.687 44.307 10.964 43.818 9.96103C42.977 8.23603 41.417 6.94203 39.467 6.35303C39.144 6.25603 38.208 6.13203 37.387 6.07703C35.703 5.96503 28.192 5.96703 26.4 6.08003ZM38.736 10.309C39.37 10.602 40.069 11.302 40.34 11.913C40.456 12.176 40.578 12.747 40.611 13.182L40.671 13.973H23.36V13.499C23.36 12.29 23.842 11.272 24.715 10.641C25.542 10.042 25.633 10.035 32.213 10.058C38.131 10.08 38.249 10.084 38.736 10.309ZM45.949 34.8L45.92 51.573L45.691 52.069C45.398 52.703 44.703 53.398 44.069 53.691L43.573 53.92H20.427L19.931 53.691C19.297 53.398 18.602 52.703 18.309 52.069L18.08 51.573L18.051 34.8L18.023 18.027H45.977L45.949 34.8ZM26.172 24.738C25.702 24.855 25.23 25.216 24.941 25.682L24.693 26.08V45.92L24.941 46.318C25.893 47.849 28.204 47.498 28.575 45.766C28.733 45.029 28.736 26.927 28.578 26.242C28.327 25.152 27.241 24.473 26.172 24.738ZM36.839 24.738C36.368 24.855 35.897 25.216 35.608 25.682L35.36 26.08V45.92L35.608 46.318C36.559 47.849 38.871 47.498 39.242 45.766C39.4 45.029 39.403 26.927 39.245 26.242C38.993 25.152 37.908 24.473 36.839 24.738Z" fill="#222222"/>
</svg>
