<svg width="64" height="64" viewBox="0 0 64 64" fill="none" xmlns="http://www.w3.org/2000/svg">
<path fill-rule="evenodd" clip-rule="evenodd" d="M10.161 16.741C9.66898 16.862 9.12798 17.308 8.90198 17.781C8.64698 18.313 8.66198 19.206 8.93298 19.634C9.18598 20.034 19.83 30.887 20.728 31.661C22.095 32.838 24.008 33.47 25.863 33.356C27.772 33.239 29.278 32.518 30.927 30.933C31.363 30.514 31.893 30.083 32.103 29.975C33.043 29.496 34.38 29.517 35.255 30.024C35.49 30.161 38.578 33.204 42.116 36.786L48.548 43.298L42.647 43.329L36.747 43.36L36.339 43.613C35.693 44.015 35.378 44.582 35.378 45.342C35.378 45.875 35.429 46.053 35.689 46.421C35.86 46.663 36.192 46.961 36.427 47.084C36.849 47.304 36.939 47.307 45.387 47.307H53.92L54.327 47.054C54.551 46.914 54.863 46.606 55.021 46.368L55.307 45.936L55.337 37.72C55.357 31.964 55.331 29.332 55.247 28.929C54.879 27.156 52.578 26.788 51.608 28.349L51.36 28.747L51.307 34.548L51.253 40.349L44.811 33.825C40.249 29.206 38.158 27.162 37.649 26.824C35.277 25.247 32.093 25.22 29.746 26.756C29.314 27.038 28.569 27.639 28.09 28.09C27.018 29.1 26.463 29.368 25.435 29.368C24.858 29.369 24.548 29.307 24.097 29.1C23.502 28.828 22.867 28.205 13.768 18.963C12.744 17.923 11.759 17.003 11.58 16.918C11.134 16.708 10.576 16.638 10.161 16.741Z" fill="#222222"/>
</svg>
