<svg width="64" height="64" viewBox="0 0 64 64" fill="none" xmlns="http://www.w3.org/2000/svg">
<path fill-rule="evenodd" clip-rule="evenodd" d="M36.839 16.74C35.547 17.054 34.928 18.677 35.689 19.754C35.86 19.996 36.192 20.295 36.427 20.417C36.842 20.634 37.009 20.641 42.701 20.671L48.548 20.702L42.116 27.215C38.578 30.796 35.49 33.839 35.255 33.976C34.38 34.484 33.043 34.504 32.102 34.025C31.891 33.917 31.338 33.465 30.872 33.021C29.841 32.038 29.116 31.527 28.262 31.181C25.681 30.139 22.767 30.587 20.728 32.34C19.835 33.109 9.18698 43.964 8.93298 44.366C8.66198 44.794 8.64698 45.687 8.90198 46.219C9.29798 47.046 10.238 47.468 11.175 47.239C11.738 47.102 11.599 47.235 19.573 39.157C24.016 34.656 24.049 34.631 25.435 34.632C26.463 34.632 27.018 34.9 28.09 35.91C28.569 36.361 29.314 36.962 29.746 37.244C32.093 38.78 35.278 38.753 37.648 37.177C38.155 36.84 40.254 34.788 44.809 30.175L51.253 23.651L51.307 29.452L51.36 35.253L51.608 35.651C52.569 37.197 54.882 36.828 55.247 35.071C55.331 34.668 55.357 32.038 55.337 26.288L55.307 18.08L55.054 17.673C54.8684 17.4027 54.6361 17.1677 54.368 16.979L53.936 16.693L45.555 16.676C40.945 16.666 37.023 16.695 36.839 16.74Z" fill="#222222"/>
</svg>
