<svg width="64" height="64" viewBox="0 0 64 64" fill="none" xmlns="http://www.w3.org/2000/svg">
<path fill-rule="evenodd" clip-rule="evenodd" d="M31.413 8.70597C29.529 8.95097 28.396 9.47496 27.224 10.644C26.332 11.533 25.736 12.353 24.532 14.347C23.761 15.624 11.305 37.169 9.11498 41.013C6.66498 45.314 6.05898 47.019 6.29698 48.933C6.50298 50.59 7.14198 51.912 8.31998 53.114C9.46698 54.284 10.592 54.797 12.73 55.125C13.817 55.291 15.487 55.307 32 55.307C48.513 55.307 50.183 55.291 51.27 55.125C53.408 54.797 54.533 54.284 55.68 53.114C56.869 51.9 57.513 50.559 57.701 48.9C57.921 46.964 57.328 45.303 54.885 41.013C52.695 37.169 40.239 15.624 39.468 14.347C37.653 11.342 36.56 10.113 35.069 9.39996C33.959 8.86896 32.416 8.57597 31.413 8.70597ZM33.08 12.858C33.887 13.143 34.668 14.072 36.078 16.427C37.218 18.329 51.043 42.285 52.145 44.267C53.717 47.094 54.01 48.099 53.583 49.198C53.118 50.397 52.212 51.005 50.613 51.193C49.272 51.351 14.709 51.349 13.387 51.192C12.168 51.046 11.46 50.733 10.969 50.121C9.81598 48.685 9.97298 47.653 11.856 44.267C12.963 42.275 26.789 18.317 27.921 16.427C29.305 14.117 30.113 13.145 30.882 12.864C31.447 12.657 32.502 12.654 33.08 12.858ZM39.733 32.693C39.675 32.712 39.483 32.76 39.307 32.798C39.07 32.85 37.733 34.119 34.162 37.683L29.336 42.498L27.175 40.356C25.135 38.333 24.983 38.207 24.476 38.099C23.546 37.902 22.764 38.224 22.283 39.003C21.959 39.527 21.953 40.463 22.269 40.972C22.393 41.171 23.805 42.636 25.407 44.228C28.143 46.946 28.351 47.129 28.827 47.228C29.158 47.297 29.509 47.298 29.84 47.23C30.327 47.13 30.567 46.906 36.07 41.403C41.587 35.887 41.797 35.662 41.898 35.17C42.092 34.223 41.687 33.279 40.939 32.934C40.569 32.764 39.915 32.633 39.733 32.693Z" fill="#222222"/>
</svg>
