<svg width="64" height="64" viewBox="0 0 64 64" fill="none" xmlns="http://www.w3.org/2000/svg">
<path fill-rule="evenodd" clip-rule="evenodd" d="M31.413 8.70597C29.529 8.95097 28.396 9.47496 27.224 10.644C26.332 11.533 25.736 12.353 24.532 14.347C23.761 15.624 11.305 37.169 9.11498 41.013C6.66498 45.314 6.05898 47.019 6.29698 48.933C6.50298 50.59 7.14198 51.912 8.31998 53.114C9.46698 54.284 10.592 54.797 12.73 55.125C13.817 55.291 15.487 55.307 32 55.307C48.513 55.307 50.183 55.291 51.27 55.125C53.408 54.797 54.533 54.284 55.68 53.114C56.869 51.9 57.513 50.559 57.701 48.9C57.921 46.964 57.328 45.303 54.885 41.013C52.695 37.169 40.239 15.624 39.468 14.347C37.653 11.342 36.56 10.113 35.069 9.39996C33.959 8.86896 32.416 8.57597 31.413 8.70597ZM33.08 12.858C33.887 13.143 34.668 14.072 36.078 16.427C37.218 18.329 51.043 42.285 52.145 44.267C53.717 47.094 54.01 48.099 53.583 49.198C53.118 50.397 52.212 51.005 50.613 51.193C49.272 51.351 14.709 51.349 13.387 51.192C12.168 51.046 11.46 50.733 10.969 50.121C9.81598 48.685 9.97298 47.653 11.856 44.267C12.963 42.275 26.789 18.317 27.921 16.427C29.305 14.117 30.113 13.145 30.882 12.864C31.447 12.657 32.502 12.654 33.08 12.858ZM31.506 22.072C31.035 22.189 30.564 22.55 30.274 23.015L30.027 23.413V35.253L30.274 35.651C31.226 37.182 33.537 36.831 33.909 35.099C34.064 34.375 34.066 24.248 33.911 23.575C33.66 22.485 32.574 21.806 31.506 22.072ZM31.627 40.687C31.568 40.71 31.389 40.757 31.229 40.792C30.789 40.889 30.223 41.445 30.019 41.979C29.768 42.635 29.864 43.51 30.245 44.061C31.036 45.203 33.022 45.187 33.785 44.034C34.455 43.022 34.093 41.437 33.071 40.909C32.778 40.757 31.825 40.611 31.627 40.687Z" fill="#222222"/>
</svg>
