<svg width="64" height="64" viewBox="0 0 64 64" fill="none" xmlns="http://www.w3.org/2000/svg">
<path fill-rule="evenodd" clip-rule="evenodd" d="M31.413 8.70597C29.529 8.95097 28.396 9.47496 27.224 10.644C26.332 11.533 25.736 12.354 24.532 14.347C23.756 15.632 11.276 37.218 9.11498 41.013C6.66498 45.316 6.05898 47.019 6.29698 48.933C6.50298 50.59 7.14198 51.912 8.31998 53.114C9.46698 54.284 10.592 54.797 12.73 55.125C13.817 55.291 15.487 55.307 32 55.307C48.513 55.307 50.183 55.291 51.27 55.125C53.331 54.809 54.484 54.303 55.567 53.238C56.786 52.04 57.512 50.567 57.7 48.912C57.922 46.963 57.333 45.311 54.885 41.013C52.695 37.169 40.239 15.624 39.468 14.347C37.653 11.342 36.56 10.113 35.069 9.39996C33.959 8.86896 32.416 8.57597 31.413 8.70597ZM33.08 12.858C33.887 13.143 34.667 14.071 36.079 16.427C37.211 18.317 51.037 42.275 52.144 44.267C53.717 47.094 54.01 48.099 53.583 49.198C53.118 50.397 52.212 51.005 50.613 51.193C49.272 51.351 14.709 51.349 13.387 51.192C12.168 51.046 11.46 50.733 10.969 50.121C9.81598 48.685 9.97298 47.653 11.856 44.267C12.963 42.275 26.789 18.317 27.921 16.427C29.305 14.117 30.113 13.145 30.882 12.864C31.447 12.657 32.502 12.654 33.08 12.858Z" fill="#222222"/>
</svg>
