<svg width="64" height="64" viewBox="0 0 64 64" fill="none" xmlns="http://www.w3.org/2000/svg">
<path fill-rule="evenodd" clip-rule="evenodd" d="M20.8389 11.4079C20.3709 11.5199 19.8979 11.8809 19.6079 12.3489L19.3599 12.7469V21.7069C19.3599 29.9459 19.3759 30.7439 19.5539 31.6269C20.4609 36.1149 23.4309 39.6259 27.6689 41.2189C30.2299 42.1819 33.7629 42.1849 36.3089 41.2269C40.4799 39.6569 43.4089 36.2789 44.3919 31.9049C44.6149 30.9099 44.6239 30.6229 44.6649 22.2119C44.6959 15.9109 44.6739 13.3809 44.5839 12.9489C44.2119 11.1559 41.9169 10.7779 40.9409 12.3489L40.6929 12.7469L40.6389 21.9199L40.5849 31.0929L40.2929 31.9469C39.8019 33.3809 39.2279 34.2869 38.0909 35.4249C36.9509 36.5649 36.0389 37.1409 34.6129 37.6229C33.8229 37.8899 33.6309 37.9109 31.9999 37.9109C30.3689 37.9109 30.1769 37.8899 29.3869 37.6229C27.9609 37.1409 27.0489 36.5649 25.9089 35.4249C24.7719 34.2869 24.1979 33.3809 23.7069 31.9469L23.4149 31.0929L23.3609 21.9729C23.3089 13.3039 23.2969 12.8329 23.1049 12.4469C22.8479 11.9289 22.3649 11.5619 21.7579 11.4219C21.5832 11.3771 21.4058 11.343 21.2269 11.3199C21.1969 11.3249 21.0229 11.3639 20.8389 11.4079ZM15.5059 48.7419C14.2159 49.0489 13.5949 50.6769 14.3559 51.7539C14.5269 51.9959 14.8589 52.2949 15.0929 52.4169C15.5199 52.6399 15.5249 52.6399 31.6799 52.6689C43.1819 52.6889 48.0039 52.6629 48.4099 52.5789C50.4069 52.1649 50.4779 49.2609 48.5029 48.7639C47.9429 48.6229 16.0939 48.6009 15.5059 48.7419Z" fill="#222222"/>
</svg>
