<svg width="64" height="64" viewBox="0 0 64 64" fill="none" xmlns="http://www.w3.org/2000/svg">
<path fill-rule="evenodd" clip-rule="evenodd" d="M12.8391 6.07202C12.3681 6.18902 11.8971 6.55002 11.6081 7.01502L11.3601 7.41302V21.955L11.6801 22.408C11.8561 22.657 12.1921 22.961 12.4271 23.084C12.8451 23.302 12.9941 23.307 19.6721 23.337C24.4201 23.358 26.6651 23.331 27.0681 23.248C28.8281 22.882 29.1991 20.57 27.6511 19.608C27.2541 19.36 27.2491 19.36 22.3541 19.307L17.4551 19.253L18.0871 18.57C21.7391 14.625 27.7631 12.295 33.2541 12.704C40.2871 13.228 46.2061 17.189 49.3371 23.467C50.1851 25.167 50.6411 26.52 51.0461 28.543C51.2801 29.711 51.3711 32.977 51.2061 34.307C50.6641 38.676 48.7501 42.572 45.6051 45.709C44.1471 47.164 43.1111 47.943 41.2951 48.951C37.3501 51.142 32.3461 51.883 28.0001 50.92C25.6431 50.398 22.5671 49.048 20.7481 47.738C18.9561 46.446 17.6681 45.122 15.9251 42.778C15.2961 41.932 14.8621 41.661 14.1331 41.661C12.9791 41.661 12.1601 42.495 12.1601 43.669C12.1601 44.209 12.2101 44.328 12.8151 45.224C16.2351 50.285 21.9581 53.935 28.1071 54.977C33.0771 55.82 38.5431 54.947 42.8801 52.616C44.9611 51.498 47.7211 49.419 48.9601 48.038C51.9851 44.664 53.8111 41.198 54.7681 37.008C55.5371 33.648 55.4341 29.344 54.5041 25.92C52.0521 16.888 44.3631 10.137 35.1231 8.90302C33.6511 8.70602 30.6651 8.67802 29.2801 8.84702C24.2471 9.46402 20.1471 11.372 16.0071 15.024L15.3601 15.594L15.3571 11.824C15.3551 7.85002 15.3051 7.32102 14.8801 6.76402C14.4551 6.20602 13.5431 5.89702 12.8391 6.07202Z" fill="#222222"/>
</svg>
