<svg width="64" height="64" viewBox="0 0 64 64" fill="none" xmlns="http://www.w3.org/2000/svg">
<path fill-rule="evenodd" clip-rule="evenodd" d="M20.839 11.406C20.372 11.521 19.897 11.882 19.616 12.337C19.292 12.861 19.286 13.797 19.603 14.305C19.727 14.504 22.339 17.17 25.408 20.229C30.76 25.565 31.007 25.796 31.493 25.896C31.8275 25.965 32.1725 25.965 32.507 25.896C32.993 25.796 33.24 25.565 38.639 20.179C41.788 17.037 44.341 14.406 44.438 14.201C44.674 13.703 44.659 12.899 44.403 12.404C44.288 12.182 43.996 11.86 43.754 11.689C43.39 11.432 43.206 11.378 42.696 11.378C42.357 11.378 41.959 11.439 41.813 11.514C41.666 11.589 39.399 13.793 36.773 16.41L32 21.17L27.227 16.41C24.601 13.793 22.357 11.603 22.24 11.544C21.917 11.383 21.214 11.314 20.839 11.406ZM31.733 38.023C31.675 38.044 31.483 38.093 31.307 38.131C31.069 38.183 29.557 39.627 25.408 43.767C22.339 46.829 19.727 49.496 19.603 49.695C19.286 50.203 19.292 51.139 19.616 51.663C20.086 52.423 20.907 52.756 21.836 52.563C22.326 52.462 22.546 52.259 27.173 47.645L32 42.832L36.827 47.645C41.441 52.247 41.676 52.462 42.16 52.563C43.706 52.883 44.882 51.707 44.563 50.16C44.462 49.674 44.232 49.426 38.896 44.074C35.836 41.006 33.189 38.407 33.013 38.299C32.703 38.108 31.95 37.946 31.733 38.023Z" fill="#222222"/>
</svg>
