<svg width="64" height="64" viewBox="0 0 64 64" fill="none" xmlns="http://www.w3.org/2000/svg">
<path fill-rule="evenodd" clip-rule="evenodd" d="M31.7329 11.357C31.6749 11.378 31.4829 11.426 31.3069 11.465C31.0689 11.517 29.5569 12.96 25.4079 17.101C22.3389 20.162 19.7269 22.829 19.6029 23.028C19.2859 23.536 19.2919 24.472 19.6159 24.997C20.0859 25.756 20.9069 26.089 21.8359 25.897C22.3259 25.795 22.5459 25.592 27.1729 20.978L31.9999 16.165L36.8269 20.978C41.4409 25.58 41.6759 25.796 42.1599 25.896C43.7059 26.216 44.8819 25.04 44.5629 23.493C44.4619 23.007 44.2319 22.76 38.8959 17.408C35.8359 14.339 33.1889 11.74 33.0129 11.632C32.7029 11.442 31.9499 11.28 31.7329 11.357ZM20.8389 38.073C20.3719 38.187 19.8969 38.549 19.6159 39.003C19.2919 39.528 19.2859 40.464 19.6029 40.972C19.7269 41.171 22.3389 43.836 25.4079 46.896C30.7599 52.232 31.0069 52.462 31.4929 52.563C31.8249 52.631 32.1749 52.631 32.5069 52.563C32.9929 52.462 33.2399 52.232 38.6389 46.846C41.7879 43.704 44.3409 41.073 44.4379 40.868C44.6739 40.37 44.6589 39.566 44.4029 39.07C44.2879 38.848 43.9959 38.527 43.7539 38.356C43.3899 38.098 43.2059 38.044 42.6959 38.044C42.3569 38.044 41.9589 38.106 41.8129 38.181C41.6659 38.256 39.3989 40.459 36.7729 43.077L31.9999 47.837L27.2269 43.077C24.6009 40.459 22.3569 38.27 22.2399 38.211C21.9169 38.05 21.2139 37.981 20.8389 38.073Z" fill="#222222"/>
</svg>
