<svg width="64" height="64" viewBox="0 0 64 64" fill="none" xmlns="http://www.w3.org/2000/svg">
<path fill-rule="evenodd" clip-rule="evenodd" d="M50.1719 6.072C49.7049 6.188 49.2299 6.549 48.9499 7.003C48.6809 7.439 48.6199 8.417 48.8369 8.822C48.9059 8.951 49.3739 9.526 49.8759 10.1C51.9439 12.46 53.2049 14.99 53.8829 18.133C54.0869 19.081 54.1239 19.574 54.1239 21.333C54.1239 23.093 54.0869 23.586 53.8829 24.533C53.5239 26.196 52.9739 27.744 52.2529 29.118C51.4949 30.561 50.9459 31.353 49.8049 32.649C48.7699 33.825 48.7109 33.934 48.7109 34.678C48.7109 35.995 49.8739 36.892 51.1679 36.573C51.5859 36.47 51.8209 36.304 52.4479 35.671C55.2939 32.796 57.3599 28.507 57.9719 24.201C58.1749 22.775 58.1749 19.892 57.9719 18.466C57.4679 14.917 56.1449 11.722 53.9719 8.8C52.2299 6.458 51.3009 5.791 50.1719 6.072ZM22.8789 8.746C17.9989 9.174 13.8649 12.351 12.1059 17.025C11.1519 19.561 11.1519 23.106 12.1059 25.642C13.4449 29.198 16.1309 31.889 19.6689 33.219C22.2399 34.186 25.7599 34.186 28.3309 33.219C31.8689 31.889 34.5549 29.198 35.8939 25.642C36.8519 23.096 36.8489 19.564 35.8859 17.003C33.8519 11.594 28.5759 8.245 22.8789 8.746ZM43.9999 12.018C43.5059 12.279 43.2939 12.496 43.0809 12.96C42.6839 13.824 42.8599 14.508 43.7409 15.52C44.6039 16.511 45.1409 17.437 45.5659 18.667C45.9019 19.642 45.9159 19.742 45.9159 21.333C45.9159 22.925 45.9019 23.025 45.5659 24C45.1409 25.23 44.6039 26.156 43.7409 27.147C42.8829 28.133 42.6969 28.794 43.0439 29.626C43.3609 30.385 44.0269 30.827 44.8529 30.827C45.5669 30.827 45.9509 30.62 46.6739 29.846C48.7789 27.593 49.9439 24.561 49.9439 21.333C49.9439 18.717 49.2599 16.446 47.8079 14.25C47.1769 13.294 46.1189 12.166 45.6829 11.984C45.2259 11.792 44.3959 11.809 43.9999 12.018ZM26.6129 13.052C28.0219 13.515 28.9449 14.096 30.0909 15.242C31.2309 16.382 31.8079 17.295 32.2889 18.72C32.5559 19.511 32.5769 19.703 32.5769 21.333C32.5769 22.964 32.5559 23.156 32.2889 23.947C31.8079 25.372 31.2309 26.284 30.0909 27.425C28.9509 28.565 28.0389 29.141 26.6129 29.623C25.8229 29.89 25.6309 29.911 23.9999 29.911C22.3689 29.911 22.1769 29.89 21.3869 29.623C19.9609 29.141 19.0489 28.565 17.9089 27.425C16.7689 26.284 16.1919 25.372 15.7109 23.947C15.4439 23.156 15.4229 22.964 15.4229 21.333C15.4229 19.703 15.4439 19.511 15.7109 18.72C16.1919 17.294 16.7689 16.382 17.9089 15.243C19.8219 13.332 21.5099 12.666 24.2669 12.735C25.5269 12.766 25.8929 12.815 26.6129 13.052ZM22.2819 38.09C13.2039 38.671 6.17595 43.979 6.04595 50.353C6.02795 51.235 6.04495 51.314 6.34695 51.741C6.74895 52.311 7.31595 52.611 7.98795 52.611C9.09395 52.611 9.76395 51.99 9.93595 50.805C10.2399 48.727 10.6719 47.735 11.8139 46.5C13.6589 44.503 16.3429 43.141 19.9399 42.374C21.1929 42.107 21.4559 42.089 23.9999 42.089C26.5439 42.089 26.8069 42.107 28.0599 42.374C33.0699 43.442 36.5969 45.854 37.7149 48.978C37.8059 49.232 37.9259 49.867 37.9809 50.389C38.0479 51.02 38.1549 51.456 38.3019 51.693C39.2179 53.176 41.5429 52.803 41.9049 51.115C42.1209 50.11 41.7689 48.159 41.1179 46.748C39.2069 42.608 34.3429 39.417 28.3969 38.404C27.3939 38.233 23.9029 37.926 23.6799 37.989C23.6509 37.997 23.0219 38.043 22.2819 38.09Z" fill="#222222"/>
</svg>
