<svg width="64" height="64" viewBox="0 0 64 64" fill="none" xmlns="http://www.w3.org/2000/svg">
<path fill-rule="evenodd" clip-rule="evenodd" d="M30.7529 6.08404C25.3789 6.52504 20.6879 9.71004 18.2699 14.56C16.1919 18.727 16.1919 23.94 18.2699 28.107C19.9281 31.4549 22.7516 34.0821 26.21 35.4951C29.6685 36.9082 33.5238 37.0099 37.0519 35.781C38.9045 35.1255 40.6168 34.1264 42.0989 32.836C44.3863 30.8207 46.0216 28.1698 46.7961 25.2213C47.5707 22.2728 47.4495 19.1604 46.4479 16.281C44.7229 11.287 40.3119 7.40304 35.1719 6.35304C34.4859 6.21304 31.9709 5.94304 31.7869 5.99004C31.7569 5.99804 31.2919 6.04004 30.7529 6.08404ZM34.7199 10.322C38.9279 11.473 41.8949 14.479 43.0599 18.773C43.2059 19.312 43.2479 19.884 43.2479 21.333C43.2479 22.783 43.2059 23.355 43.0599 23.893C42.4629 26.091 41.4719 27.849 39.9939 29.327C38.5149 30.805 36.7579 31.797 34.5599 32.393C34.0219 32.539 33.4499 32.581 31.9999 32.581C29.7979 32.581 29.3359 32.489 27.3599 31.652C24.9059 30.613 22.5929 28.235 21.5549 25.683C20.8729 24.005 20.7469 23.326 20.7469 21.333C20.7469 19.34 20.8729 18.662 21.5549 16.984C22.8769 13.733 25.9589 11.108 29.3869 10.313C30.5559 10.042 30.5729 10.04 32.3199 10.08C33.5209 10.107 34.1769 10.173 34.7199 10.322ZM30.7199 40.714C23.9389 40.924 17.4179 43.202 13.2609 46.814C11.1959 48.608 9.66894 50.951 9.04694 53.28C8.80394 54.192 8.61894 55.861 8.70894 56.341C9.09894 58.429 12.1319 58.501 12.5749 56.433C12.6399 56.13 12.6929 55.704 12.6929 55.486C12.6929 54.862 13.0939 53.566 13.5489 52.72C15.3629 49.345 19.7829 46.595 25.3329 45.388C27.8879 44.833 28.7689 44.748 31.9999 44.748C35.2309 44.748 36.1119 44.833 38.6669 45.388C44.1379 46.578 48.5999 49.324 50.3889 52.603C50.9209 53.578 51.2069 54.525 51.3149 55.665C51.3819 56.363 51.4769 56.771 51.6329 57.023C52.5459 58.501 54.8819 58.138 55.2329 56.465C55.3659 55.827 55.2349 54.325 54.9539 53.28C54.1169 50.161 51.9929 47.467 48.5989 45.215C43.9309 42.118 37.5149 40.503 30.7199 40.714Z" fill="#222222"/>
</svg>
