<svg width="64" height="64" viewBox="0 0 64 64" fill="none" xmlns="http://www.w3.org/2000/svg">
<path fill-rule="evenodd" clip-rule="evenodd" d="M18.507 6.02499C18.448 6.04499 18.272 6.08999 18.115 6.12399C17.696 6.21599 17.168 6.70399 16.947 7.20399C16.766 7.61299 16.753 8.14299 16.743 15.208C16.732 23.869 16.752 24.143 17.601 26.529C20.379 34.336 29.073 38.507 36.96 35.817C42.715 33.854 46.804 28.58 47.23 22.575C47.272 21.98 47.283 18.317 47.253 14.436L47.2 7.37799L46.88 6.92499C46.704 6.67599 46.368 6.37199 46.133 6.24899C45.708 6.02699 45.673 6.02699 32.16 6.00699C24.709 5.99699 18.565 6.00499 18.507 6.02499ZM33.28 10.24V11.733H36.273L36.243 12.987L36.213 14.24L34.747 14.27L33.28 14.299V17.28H30.72V14.299L29.253 14.27L27.787 14.24L27.757 12.987L27.727 11.733H30.72V8.74699H33.28V10.24ZM43.244 21.6C43.233 23.524 43.112 24.1 42.319 25.973C41.327 28.315 38.982 30.661 36.64 31.652C34.664 32.489 34.202 32.581 32 32.581C30.55 32.581 29.978 32.539 29.44 32.393C25.564 31.342 22.722 28.819 21.365 25.227C20.942 24.105 20.785 23.264 20.726 21.795C20.692 20.963 20.694 20.207 20.729 20.114C20.787 19.962 21.876 19.948 32.024 19.973L43.253 20L43.244 21.6ZM30.72 40.714C23.939 40.924 17.418 43.202 13.261 46.814C11.196 48.608 9.669 50.951 9.047 53.28C8.804 54.192 8.619 55.861 8.709 56.341C9.099 58.429 12.132 58.501 12.575 56.433C12.64 56.13 12.693 55.704 12.693 55.486C12.693 54.862 13.094 53.566 13.549 52.72C15.363 49.345 19.783 46.595 25.333 45.388C27.888 44.833 28.769 44.748 32 44.748C35.231 44.748 36.112 44.833 38.667 45.388C44.138 46.578 48.6 49.324 50.389 52.603C50.921 53.578 51.207 54.525 51.315 55.665C51.382 56.363 51.477 56.771 51.633 57.023C52.546 58.501 54.882 58.138 55.233 56.465C55.366 55.827 55.235 54.325 54.954 53.28C54.117 50.161 51.993 47.467 48.599 45.215C43.931 42.118 37.515 40.503 30.72 40.714Z" fill="#222222"/>
</svg>
