<svg width="64" height="64" viewBox="0 0 64 64" fill="none" xmlns="http://www.w3.org/2000/svg">
<path fill-rule="evenodd" clip-rule="evenodd" d="M13.333 6.08389C11.887 6.16789 10.902 6.37989 10.103 6.77989C8.00498 7.82889 6.65098 9.63289 6.17498 12.0119C6.00498 12.8639 5.91098 47.4099 6.07198 50.1869C6.18798 52.2059 6.34698 53.0249 6.79598 53.9139C7.86098 56.0229 9.62898 57.3489 12.012 57.8249C12.473 57.9169 17.388 57.9619 30.453 57.9949C48.635 58.0399 51.439 57.9959 52.747 57.6459C55.024 57.0359 57.036 55.0239 57.646 52.7469C57.996 51.4389 58.04 48.6349 57.995 30.4529C57.962 17.3879 57.917 12.4729 57.825 12.0119C57.348 9.62889 56.023 7.86089 53.912 6.79589C53.063 6.36589 52.128 6.17389 50.4 6.07389C48.496 5.96289 15.257 5.97189 13.333 6.08389ZM52.069 10.3089C52.703 10.6019 53.398 11.2969 53.691 11.9309L53.92 12.4269V51.5729L53.691 52.0689C53.397 52.7049 52.701 53.3999 52.069 53.6879C51.627 53.8889 51.336 53.9179 49.384 53.9539L47.195 53.9939L47.008 53.0049C46.535 50.5009 45.242 47.8729 43.522 45.9199C37.404 38.9719 26.63 38.9629 20.497 45.9009C18.754 47.8729 17.47 50.4749 16.991 53.0079L16.805 53.9939L14.616 53.9539C12.664 53.9179 12.373 53.8889 11.931 53.6879C11.299 53.3999 10.603 52.7049 10.309 52.0689L10.08 51.5729V12.4269L10.309 11.9309C10.726 11.0299 11.599 10.3199 12.515 10.1369C12.76 10.0879 21.648 10.0549 32.267 10.0639L51.573 10.0799L52.069 10.3089ZM31.307 16.7099C27.772 17.0269 24.872 18.8949 23.252 21.8979C22.401 23.4739 22.055 24.8529 22.055 26.6669C22.055 28.4839 22.401 29.8589 23.257 31.4459C24.207 33.2069 25.463 34.4609 27.231 35.4149C28.808 36.2649 30.186 36.6109 32 36.6109C33.814 36.6109 35.192 36.2649 36.769 35.4149C38.537 34.4609 39.793 33.2069 40.743 31.4459C41.599 29.8589 41.945 28.4839 41.945 26.6669C41.945 24.8529 41.599 23.4739 40.748 21.8979C39.553 19.6819 37.658 18.0769 35.241 17.2339C34.116 16.8419 32.396 16.6129 31.307 16.7099ZM33.542 20.8569C34.529 21.1139 35.398 21.6309 36.217 22.4499C37.443 23.6769 37.973 24.9489 37.973 26.6669C37.973 28.3839 37.443 29.6569 36.217 30.8829C34.99 32.1099 33.718 32.6399 32 32.6399C30.282 32.6399 29.01 32.1099 27.783 30.8829C26.557 29.6569 26.027 28.3839 26.027 26.6669C26.027 24.9489 26.557 23.6769 27.783 22.4499C28.585 21.6489 29.466 21.1159 30.412 20.8619C31.179 20.6559 32.761 20.6529 33.542 20.8569ZM34.72 44.9939C36.909 45.6099 38.513 46.5259 39.994 48.0059C41.476 49.4889 42.432 51.1639 42.987 53.2529L43.179 53.9729H20.822L21.024 53.1819C22.046 49.1929 25.398 45.9049 29.387 44.9799C30.556 44.7079 30.573 44.7069 32.32 44.7469C33.549 44.7739 34.165 44.8379 34.72 44.9939Z" fill="#222222"/>
</svg>
