<svg width="64" height="64" viewBox="0 0 64 64" fill="none" xmlns="http://www.w3.org/2000/svg">
<path fill-rule="evenodd" clip-rule="evenodd" d="M30.24 6.08195C25.83 6.35795 21.325 7.88495 17.629 10.357C9.00398 16.127 4.66198 26.2319 6.40698 36.4799C8.14798 46.7029 16.087 55.0519 26.24 57.3359C29.955 58.1719 34.054 58.1689 37.803 57.327C46.572 55.3579 53.762 48.826 56.651 40.2029C58.12 35.819 58.366 30.816 57.336 26.24C55.154 16.54 47.46 8.84595 37.76 6.66395C35.44 6.14195 32.688 5.92895 30.24 6.08195ZM34.563 10.1379C37.7193 10.5221 40.7562 11.5801 43.4679 13.2404C46.1796 14.9007 48.5027 17.1244 50.28 19.761C51.727 21.9 53.037 25.007 53.539 27.4909C53.869 29.1209 53.973 30.208 53.973 32C53.973 34.577 53.67 36.5049 52.891 38.8899C52.127 41.2259 50.553 44.1129 49.085 45.867C48.405 46.68 46.96 48.1699 46.485 48.549L46.09 48.8629L45.312 48.2039C43.453 46.6289 40.815 45.1619 38.44 44.382C34.324 43.0299 29.684 43.028 25.58 44.375C23.17 45.167 20.565 46.6139 18.688 48.2039L17.91 48.8629L17.515 48.546C16.979 48.116 15.631 46.722 14.882 45.823C12.872 43.414 11.103 39.687 10.461 36.5089C10.131 34.879 10.027 33.792 10.027 32C10.027 28.462 10.717 25.4729 12.26 22.33C13.702 19.392 15.535 17.085 18.177 14.882C21.068 12.471 25.327 10.6569 29.29 10.148C30.345 10.013 33.5 10.0069 34.563 10.1379ZM31.307 19.377C27.772 19.693 24.872 21.5609 23.252 24.5639C22.401 26.1409 22.055 27.52 22.055 29.333C22.055 31.151 22.401 32.525 23.257 34.1129C24.207 35.8729 25.463 37.128 27.231 38.082C28.808 38.9319 30.186 39.278 32 39.278C33.814 39.278 35.192 38.9319 36.769 38.082C38.537 37.128 39.793 35.8729 40.743 34.1129C41.599 32.525 41.945 31.151 41.945 29.333C41.945 27.52 41.599 26.1409 40.748 24.5639C39.553 22.3489 37.658 20.7439 35.241 19.9009C34.116 19.5089 32.396 19.28 31.307 19.377ZM33.542 23.523C34.529 23.78 35.398 24.298 36.217 25.117C37.443 26.343 37.973 27.616 37.973 29.333C37.973 31.051 37.443 32.323 36.217 33.5499C34.99 34.7769 33.718 35.3069 32 35.3069C30.282 35.3069 29.01 34.7769 27.783 33.5499C26.557 32.323 26.027 31.051 26.027 29.333C26.027 27.616 26.557 26.343 27.783 25.117C28.585 24.315 29.466 23.7829 30.412 23.5289C31.179 23.3219 32.761 23.32 33.542 23.523ZM35.315 47.666C37.505 48.1469 39.651 49.057 41.369 50.234C42.884 51.2719 42.882 51.1689 41.408 51.874C38.415 53.306 35.425 53.9729 32 53.9729C28.575 53.9729 25.585 53.306 22.592 51.874C21.12 51.17 21.12 51.268 22.602 50.254C24.589 48.896 26.644 48.062 29.227 47.5639C30.654 47.2889 33.843 47.3429 35.315 47.666Z" fill="#222222"/>
</svg>
