<svg width="64" height="64" viewBox="0 0 64 64" fill="none" xmlns="http://www.w3.org/2000/svg">
<path fill-rule="evenodd" clip-rule="evenodd" d="M22.8789 8.74593C17.9989 9.17393 13.8649 12.3509 12.1059 17.0249C11.1519 19.5609 11.1519 23.1059 12.1059 25.6419C13.4449 29.1979 16.1309 31.8889 19.6689 33.2189C22.2399 34.1859 25.7599 34.1859 28.3309 33.2189C31.8689 31.8889 34.5549 29.1979 35.8939 25.6419C36.8519 23.0959 36.8489 19.5639 35.8859 17.0029C33.8519 11.5939 28.5759 8.24493 22.8789 8.74593ZM26.6129 13.0519C28.0219 13.5149 28.9449 14.0959 30.0909 15.2419C31.2309 16.3819 31.8079 17.2949 32.2889 18.7199C32.5559 19.5109 32.5769 19.7029 32.5769 21.3329C32.5769 22.9639 32.5559 23.1559 32.2889 23.9469C31.8079 25.3719 31.2309 26.2839 30.0909 27.4249C28.9509 28.5649 28.0389 29.1409 26.6129 29.6229C25.8229 29.8899 25.6309 29.9109 23.9999 29.9109C22.3689 29.9109 22.1769 29.8899 21.3869 29.6229C19.9609 29.1409 19.0489 28.5649 17.9089 27.4249C16.7689 26.2839 16.1919 25.3719 15.7109 23.9469C15.4439 23.1559 15.4229 22.9639 15.4229 21.3329C15.4229 19.7029 15.4439 19.5109 15.7109 18.7199C16.1919 17.2939 16.7689 16.3819 17.9089 15.2429C19.8219 13.3319 21.5099 12.6659 24.2669 12.7349C25.5269 12.7659 25.8929 12.8149 26.6129 13.0519ZM39.5059 32.7419C38.2159 33.0489 37.5949 34.6769 38.3559 35.7539C38.5269 35.9959 38.8589 36.2949 39.0929 36.4169C39.5139 36.6369 39.6409 36.6399 47.6739 36.6699C53.3859 36.6909 56.0009 36.6639 56.4039 36.5799C58.4059 36.1649 58.4819 33.2619 56.5029 32.7639C55.9449 32.6229 40.0879 32.6029 39.5059 32.7419ZM22.2819 38.0899C13.2039 38.6709 6.17595 43.9789 6.04595 50.3529C6.02795 51.2349 6.04495 51.3139 6.34695 51.7409C6.74895 52.3109 7.31595 52.6109 7.98795 52.6109C9.09395 52.6109 9.76395 51.9899 9.93595 50.8049C10.2399 48.7269 10.6719 47.7349 11.8139 46.4999C13.6589 44.5029 16.3429 43.1409 19.9399 42.3739C21.1929 42.1069 21.4559 42.0889 23.9999 42.0889C26.5439 42.0889 26.8069 42.1069 28.0599 42.3739C33.0699 43.4419 36.5969 45.8539 37.7149 48.9779C37.8059 49.2319 37.9259 49.8669 37.9809 50.3889C38.0479 51.0199 38.1549 51.4559 38.3019 51.6929C39.2179 53.1759 41.5429 52.8029 41.9049 51.1149C42.1209 50.1099 41.7689 48.1589 41.1179 46.7479C39.2069 42.6079 34.3429 39.4169 28.3969 38.4039C27.3939 38.2329 23.9029 37.9259 23.6799 37.9889C23.6509 37.9969 23.0219 38.0429 22.2819 38.0899Z" fill="#222222"/>
</svg>
