<svg width="64" height="64" viewBox="0 0 64 64" fill="none" xmlns="http://www.w3.org/2000/svg">
<path fill-rule="evenodd" clip-rule="evenodd" d="M22.8789 11.412C17.9989 11.841 13.8649 15.018 12.1059 19.691C11.1519 22.228 11.1519 25.772 12.1059 28.309C13.4449 31.864 16.1309 34.555 19.6689 35.886C22.2399 36.852 25.7599 36.852 28.3309 35.886C31.8689 34.555 34.5549 31.864 35.8939 28.309C36.8519 25.763 36.8489 22.23 35.8859 19.669C33.8519 14.261 28.5759 10.912 22.8789 11.412ZM39.5059 11.41C38.2189 11.71 37.5949 13.343 38.3559 14.421C38.8079 15.062 39.2419 15.242 40.6199 15.363C42.9239 15.565 44.4639 16.282 46.0909 17.909C47.2309 19.049 47.8079 19.961 48.2889 21.387C48.5559 22.177 48.5769 22.369 48.5769 24C48.5769 25.631 48.5559 25.823 48.2889 26.613C47.8079 28.039 47.2309 28.951 46.0909 30.091C44.4449 31.738 42.9049 32.447 40.5599 32.638C39.1679 32.751 38.7289 32.949 38.2889 33.661C37.9159 34.265 37.9439 35.172 38.3559 35.754C38.8459 36.448 39.3219 36.637 40.5149 36.609C45.5249 36.494 50.0569 33.188 51.8939 28.309C52.8519 25.763 52.8489 22.23 51.8859 19.669C50.5229 16.046 47.6659 13.255 44.0529 12.021C42.6809 11.553 40.2799 11.23 39.5059 11.41ZM26.6129 15.719C28.0219 16.181 28.9449 16.762 30.0909 17.909C31.2309 19.049 31.8079 19.961 32.2889 21.387C32.5559 22.177 32.5769 22.369 32.5769 24C32.5769 25.631 32.5559 25.823 32.2889 26.613C31.8079 28.039 31.2309 28.951 30.0909 30.091C28.9509 31.231 28.0389 31.808 26.6129 32.289C25.8229 32.556 25.6309 32.577 23.9999 32.577C22.3689 32.577 22.1769 32.556 21.3869 32.289C19.9609 31.808 19.0489 31.231 17.9089 30.091C16.7689 28.951 16.1919 28.039 15.7109 26.613C15.4439 25.823 15.4229 25.631 15.4229 24C15.4229 22.369 15.4439 22.177 15.7109 21.387C16.1919 19.96 16.7689 19.049 17.9089 17.91C19.8219 15.998 21.5099 15.333 24.2669 15.401C25.5269 15.432 25.8929 15.482 26.6129 15.719ZM22.2819 40.757C13.2039 41.338 6.17595 46.646 6.04595 53.019C6.02795 53.902 6.04495 53.981 6.34695 54.408C6.74895 54.977 7.31595 55.278 7.98795 55.278C9.09395 55.278 9.76395 54.657 9.93595 53.472C10.2399 51.393 10.6719 50.402 11.8139 49.167C13.6589 47.17 16.3429 45.807 19.9399 45.041C21.1929 44.774 21.4559 44.755 23.9999 44.755C26.5439 44.755 26.8069 44.774 28.0599 45.041C33.0699 46.108 36.5969 48.521 37.7149 51.645C37.8059 51.899 37.9259 52.534 37.9809 53.055C38.0479 53.687 38.1549 54.123 38.3019 54.36C39.2179 55.843 41.5429 55.47 41.9049 53.782C42.1209 52.776 41.7689 50.826 41.1179 49.414C39.2069 45.275 34.3429 42.084 28.3969 41.071C27.3939 40.9 23.9029 40.593 23.6799 40.656C23.6509 40.664 23.0219 40.71 22.2819 40.757ZM44.5869 41.45C43.4669 41.936 43.0349 43.194 43.6269 44.245C43.9569 44.832 44.3019 45.038 45.5269 45.382C47.3479 45.893 49.0079 46.631 50.2849 47.498C51.2609 48.16 52.5439 49.448 53.0599 50.284C53.6509 51.24 53.8589 51.865 53.9829 53.055C54.1239 54.417 54.5529 55.012 55.5539 55.237C56.6069 55.474 57.6819 54.828 57.8949 53.83C58.0409 53.145 57.8689 51.503 57.5469 50.518C57.0279 48.927 56.2899 47.707 55.0329 46.362C52.9539 44.136 50.0269 42.467 46.5839 41.544C45.4529 41.241 45.1059 41.225 44.5869 41.45Z" fill="#222222"/>
</svg>
