<svg width="64" height="64" viewBox="0 0 64 64" fill="none" xmlns="http://www.w3.org/2000/svg">
<path fill-rule="evenodd" clip-rule="evenodd" d="M19.7869 6.02391C19.6556 6.06319 19.5229 6.09722 19.3889 6.12591C18.9979 6.21191 18.3489 6.79591 18.1709 7.22191C17.9459 7.75891 17.9639 19.2879 18.1909 20.6899C18.6376 23.4643 19.9992 26.0097 22.0591 27.9212C24.119 29.8327 26.7589 31.0005 29.5589 31.2389C35.4359 31.7449 40.7909 28.2289 42.6649 22.6339C43.2589 20.8609 43.2879 20.4009 43.2309 13.6529C43.1819 7.80191 43.1699 7.49891 42.9659 7.06491C42.8169 6.74691 42.6039 6.52291 42.2559 6.31791L41.7599 6.02691L30.8269 6.00691C24.8129 5.99591 19.8449 6.00391 19.7869 6.02391ZM32.2369 9.25291L32.2669 10.7199L33.7869 10.7499L35.3069 10.7789V13.2209L33.7869 13.2499L32.2669 13.2799L32.2369 14.7469L32.2069 16.2129H29.7599V13.2269H26.7729V10.7729H29.7599V7.78691H32.2069L32.2369 9.25291ZM39.3169 17.8829C39.4129 18.3979 39.2939 19.9349 39.0899 20.7999C38.4189 23.6399 35.8689 26.2399 32.9539 27.0559C31.9829 27.3279 29.3539 27.3279 28.3729 27.0559C26.7379 26.6039 25.0869 25.5149 23.9419 24.1349C23.2439 23.2929 22.4769 21.7869 22.2439 20.7999C22.0399 19.9349 21.9199 18.3979 22.0169 17.8829L22.0899 17.4929H39.2439L39.3169 17.8829ZM28.9999 35.4189C27.4469 35.5309 25.8129 35.8689 24.1369 36.4269C20.2117 37.7236 16.7689 40.174 14.2582 43.4581C11.7476 46.7421 10.2858 50.7071 10.0639 54.8349C9.9809 56.3469 10.0499 56.7509 10.4739 57.2339C10.9229 57.7459 11.3599 57.9499 11.9999 57.9499C12.6399 57.9499 13.0769 57.7459 13.5259 57.2339C13.8959 56.8119 13.9179 56.7149 14.0749 54.7729C14.2699 52.3679 14.7989 50.4709 15.8469 48.4219C17.5159 45.1599 20.3629 42.4039 23.6189 40.8999C29.2189 38.3129 35.7949 39.0049 40.6879 42.6979C41.8309 43.5599 43.4199 45.1899 44.2319 46.3319C45.4669 48.0689 46.5549 50.5459 46.9799 52.5869C47.0709 53.0269 47.1959 54.0109 47.2559 54.7729C47.4089 56.6959 47.4339 56.8089 47.8079 57.2339C48.2569 57.7459 48.6929 57.9499 49.3329 57.9499C50.1509 57.9499 50.9189 57.4389 51.1929 56.7129C51.3379 56.3299 51.3379 55.1069 51.1939 53.7819C50.7719 49.851 49.2276 46.1244 46.7456 43.0471C44.2635 39.9698 40.9484 37.6716 37.1959 36.4269C36.4209 36.1689 35.2869 35.8589 34.6759 35.7379C33.6719 35.5389 31.0719 35.2869 30.3999 35.3229C30.2529 35.3309 29.6229 35.3739 28.9999 35.4189Z" fill="#222222"/>
</svg>
