<svg width="64" height="64" viewBox="0 0 64 64" fill="none" xmlns="http://www.w3.org/2000/svg">
<path fill-rule="evenodd" clip-rule="evenodd" d="M22.879 8.74593C17.999 9.17393 13.865 12.3509 12.106 17.0249C11.152 19.5609 11.152 23.1059 12.106 25.6419C13.445 29.1979 16.131 31.8889 19.669 33.2189C22.24 34.1859 25.76 34.1859 28.331 33.2189C31.869 31.8889 34.555 29.1979 35.894 25.6419C36.852 23.0959 36.849 19.5639 35.886 17.0029C33.852 11.5939 28.576 8.24493 22.879 8.74593ZM26.613 13.0519C28.022 13.5149 28.945 14.0959 30.091 15.2419C31.231 16.3819 31.808 17.2949 32.289 18.7199C32.556 19.5109 32.577 19.7029 32.577 21.3329C32.577 22.9639 32.556 23.1559 32.289 23.9469C31.808 25.3719 31.231 26.2839 30.091 27.4249C28.951 28.5649 28.039 29.1409 26.613 29.6229C25.823 29.8899 25.631 29.9109 24 29.9109C22.369 29.9109 22.177 29.8899 21.387 29.6229C19.961 29.1409 19.049 28.5649 17.909 27.4249C16.769 26.2839 16.192 25.3719 15.711 23.9469C15.444 23.1559 15.423 22.9639 15.423 21.3329C15.423 19.7029 15.444 19.5109 15.711 18.7199C16.192 17.2939 16.769 16.3819 17.909 15.2429C19.822 13.3319 21.51 12.6659 24.267 12.7349C25.527 12.7659 25.893 12.8149 26.613 13.0519ZM50.172 24.7379C49.702 24.8549 49.23 25.2159 48.941 25.6819C48.698 26.0719 48.693 26.1429 48.66 29.3529L48.626 32.6259L45.345 32.6599L42.064 32.6929L41.632 32.9789C40.992 33.4029 40.711 33.9229 40.711 34.6849C40.711 35.2079 40.764 35.3879 41.022 35.7539C41.627 36.6099 41.75 36.6349 45.406 36.6739L48.626 36.7069L48.66 39.9799C48.693 43.1899 48.698 43.2609 48.941 43.6509C49.893 45.1819 52.204 44.8309 52.575 43.0989C52.645 42.7729 52.693 41.3569 52.693 39.6209V36.6929H55.621C59.05 36.6929 59.475 36.6319 60.054 36.0529C61.115 34.9919 60.614 33.1269 59.17 32.7639C58.856 32.6849 57.601 32.6399 55.686 32.6399H52.693L52.691 29.6799C52.688 26.5449 52.623 25.9679 52.213 25.4299C51.788 24.8729 50.876 24.5639 50.172 24.7379ZM22.282 38.0899C13.204 38.6709 6.17601 43.9789 6.04601 50.3529C6.02801 51.2349 6.04501 51.3139 6.34701 51.7409C6.74901 52.3109 7.31601 52.6109 7.98801 52.6109C9.09401 52.6109 9.76401 51.9899 9.93601 50.8049C10.24 48.7269 10.672 47.7349 11.814 46.4999C13.659 44.5029 16.343 43.1409 19.94 42.3739C21.193 42.1069 21.456 42.0889 24 42.0889C26.544 42.0889 26.807 42.1069 28.06 42.3739C33.07 43.4419 36.597 45.8539 37.715 48.9779C37.806 49.2319 37.926 49.8669 37.981 50.3889C38.048 51.0199 38.155 51.4559 38.302 51.6929C39.218 53.1759 41.543 52.8029 41.905 51.1149C42.121 50.1099 41.769 48.1589 41.118 46.7479C39.207 42.6079 34.343 39.4169 28.397 38.4039C27.394 38.2329 23.903 37.9259 23.68 37.9889C23.651 37.9969 23.022 38.0429 22.282 38.0899Z" fill="#222222"/>
</svg>
