<svg width="64" height="64" viewBox="0 0 64 64" fill="none" xmlns="http://www.w3.org/2000/svg">
<path fill-rule="evenodd" clip-rule="evenodd" d="M22.879 8.74593C17.999 9.17393 13.865 12.3509 12.106 17.0249C11.152 19.5609 11.152 23.1059 12.106 25.6419C13.445 29.1979 16.131 31.8889 19.669 33.2189C22.24 34.1859 25.76 34.1859 28.331 33.2189C31.869 31.8889 34.555 29.1979 35.894 25.6419C36.852 23.0959 36.849 19.5639 35.886 17.0029C33.852 11.5939 28.576 8.24493 22.879 8.74593ZM26.613 13.0519C28.022 13.5149 28.945 14.0959 30.091 15.2419C31.231 16.3819 31.808 17.2949 32.289 18.7199C32.556 19.5109 32.577 19.7029 32.577 21.3329C32.577 22.9639 32.556 23.1559 32.289 23.9469C31.808 25.3719 31.231 26.2839 30.091 27.4249C28.951 28.5649 28.039 29.1409 26.613 29.6229C25.823 29.8899 25.631 29.9109 24 29.9109C22.369 29.9109 22.177 29.8899 21.387 29.6229C19.961 29.1409 19.049 28.5649 17.909 27.4249C16.769 26.2839 16.192 25.3719 15.711 23.9469C15.444 23.1559 15.423 22.9639 15.423 21.3329C15.423 19.7029 15.444 19.5109 15.711 18.7199C16.192 17.2939 16.769 16.3819 17.909 15.2429C19.822 13.3319 21.51 12.6659 24.267 12.7349C25.527 12.7659 25.893 12.8149 26.613 13.0519ZM55.733 24.6929C55.675 24.7119 55.483 24.7599 55.307 24.7979C55.07 24.8499 53.733 26.1189 50.162 29.6829L45.336 34.4979L43.175 32.3559C41.135 30.3329 40.983 30.2069 40.476 30.0989C39.546 29.9019 38.764 30.2239 38.283 31.0029C37.959 31.5269 37.953 32.4629 38.269 32.9719C38.393 33.1709 39.805 34.6359 41.407 36.2279C44.143 38.9459 44.351 39.1289 44.827 39.2279C45.158 39.2969 45.509 39.2979 45.84 39.2299C46.327 39.1299 46.567 38.9059 52.07 33.4029C57.587 27.8869 57.797 27.6619 57.898 27.1699C58.092 26.2229 57.687 25.2789 56.939 24.9339C56.569 24.7639 55.915 24.6329 55.733 24.6929ZM22.282 38.0899C13.204 38.6709 6.17601 43.9789 6.04601 50.3529C6.02801 51.2349 6.04501 51.3139 6.34701 51.7409C6.74901 52.3109 7.31601 52.6109 7.98801 52.6109C9.09401 52.6109 9.76401 51.9899 9.93601 50.8049C10.24 48.7269 10.672 47.7349 11.814 46.4999C13.659 44.5029 16.343 43.1409 19.94 42.3739C21.193 42.1069 21.456 42.0889 24 42.0889C26.544 42.0889 26.807 42.1069 28.06 42.3739C33.07 43.4419 36.597 45.8539 37.715 48.9779C37.806 49.2319 37.926 49.8669 37.981 50.3889C38.048 51.0199 38.155 51.4559 38.302 51.6929C39.218 53.1759 41.543 52.8029 41.905 51.1149C42.121 50.1099 41.769 48.1589 41.118 46.7479C39.207 42.6079 34.343 39.4169 28.397 38.4039C27.394 38.2329 23.903 37.9259 23.68 37.9889C23.651 37.9969 23.022 38.0429 22.282 38.0899Z" fill="#222222"/>
</svg>
