<svg width="64" height="64" viewBox="0 0 64 64" fill="none" xmlns="http://www.w3.org/2000/svg">
<path fill-rule="evenodd" clip-rule="evenodd" d="M22.879 8.74593C17.999 9.17393 13.865 12.3509 12.106 17.0249C11.152 19.5609 11.152 23.1059 12.106 25.6419C13.445 29.1979 16.131 31.8889 19.669 33.2189C22.24 34.1859 25.76 34.1859 28.331 33.2189C31.869 31.8889 34.555 29.1979 35.894 25.6419C36.852 23.0959 36.849 19.5639 35.886 17.0029C33.852 11.5939 28.576 8.24493 22.879 8.74593ZM26.613 13.0519C28.022 13.5149 28.945 14.0959 30.091 15.2419C31.231 16.3819 31.808 17.2949 32.289 18.7199C32.556 19.5109 32.577 19.7029 32.577 21.3329C32.577 22.9639 32.556 23.1559 32.289 23.9469C31.808 25.3719 31.231 26.2839 30.091 27.4249C28.951 28.5649 28.039 29.1409 26.613 29.6229C25.823 29.8899 25.631 29.9109 24 29.9109C22.369 29.9109 22.177 29.8899 21.387 29.6229C19.961 29.1409 19.049 28.5649 17.909 27.4249C16.769 26.2839 16.192 25.3719 15.711 23.9469C15.444 23.1559 15.423 22.9639 15.423 21.3329C15.423 19.7029 15.444 19.5109 15.711 18.7199C16.192 17.2939 16.769 16.3819 17.909 15.2429C19.822 13.3319 21.51 12.6659 24.267 12.7349C25.527 12.7659 25.893 12.8149 26.613 13.0519ZM44.839 24.7419C44.374 24.8529 43.898 25.2139 43.616 25.6699C43.341 26.1159 43.288 27.0809 43.516 27.5199C43.591 27.6669 44.594 28.7349 45.743 29.8929L47.833 31.9999L45.743 34.1069C44.594 35.2649 43.591 36.3329 43.516 36.4799C43.44 36.6259 43.378 37.0149 43.378 37.3449C43.378 38.6629 44.487 39.5129 45.836 39.2279C46.309 39.1279 46.505 38.9639 48.507 36.9789L50.667 34.8379L52.827 36.9789C54.823 38.9579 55.025 39.1289 55.493 39.2269C57.037 39.5529 58.219 38.3709 57.894 36.8269C57.795 36.3579 57.625 36.1559 55.646 34.1599L53.505 31.9999L55.646 29.8399C57.625 27.8439 57.795 27.6419 57.894 27.1729C58.138 26.0139 57.523 24.9919 56.442 24.7599C56.144 24.6959 55.839 24.6629 55.764 24.6859C55.688 24.7099 55.484 24.7599 55.309 24.7989C55.086 24.8489 54.348 25.5089 52.829 27.0159L50.667 29.1619L48.507 27.0209C46.432 24.9639 46.324 24.8749 45.781 24.7599C45.5875 24.7142 45.392 24.6778 45.195 24.6509C45.0772 24.6845 44.9585 24.7148 44.839 24.7419ZM22.282 38.0899C13.204 38.6709 6.17601 43.9789 6.04601 50.3529C6.02801 51.2349 6.04501 51.3139 6.34701 51.7409C6.74901 52.3109 7.31601 52.6109 7.98801 52.6109C9.09401 52.6109 9.76401 51.9899 9.93601 50.8049C10.24 48.7269 10.672 47.7349 11.814 46.4999C13.659 44.5029 16.343 43.1409 19.94 42.3739C21.193 42.1069 21.456 42.0889 24 42.0889C26.544 42.0889 26.807 42.1069 28.06 42.3739C33.07 43.4419 36.597 45.8539 37.715 48.9779C37.806 49.2319 37.926 49.8669 37.981 50.3889C38.048 51.0199 38.155 51.4559 38.302 51.6929C39.218 53.1759 41.543 52.8029 41.905 51.1149C42.121 50.1099 41.769 48.1589 41.118 46.7479C39.207 42.6079 34.343 39.4169 28.397 38.4039C27.394 38.2329 23.903 37.9259 23.68 37.9889C23.651 37.9969 23.022 38.0429 22.282 38.0899Z" fill="#222222"/>
</svg>
