<svg width="64" height="64" viewBox="0 0 64 64" fill="none" xmlns="http://www.w3.org/2000/svg">
<path fill-rule="evenodd" clip-rule="evenodd" d="M24.355 11.096C23.753 11.218 23.382 11.424 22.908 11.899C22.268 12.542 22.078 13.053 22.006 14.33L21.942 15.449L16.918 15.495C11.387 15.546 11.296 15.556 9.97299 16.245C8.99299 16.756 7.66899 18.124 7.20199 19.107C6.48099 20.624 6.50999 19.963 6.50999 34.773C6.50999 49.615 6.48099 48.956 7.21399 50.445C7.49399 51.014 7.83199 51.468 8.41499 52.054C9.37299 53.017 10.124 53.469 11.269 53.77C12.085 53.985 12.61 53.996 31.784 54.213C52.703 54.449 52.285 54.454 53.477 53.952C55.389 53.146 56.917 51.316 57.333 49.333C57.466 48.699 57.49 46.541 57.49 34.987C57.49 19.907 57.52 20.597 56.785 19.093C56.298 18.098 54.99 16.747 54.027 16.245C52.704 15.556 52.613 15.546 47.082 15.495L42.058 15.449L41.994 14.33C41.922 13.055 41.734 12.546 41.092 11.895C40.8314 11.6434 40.5352 11.4315 40.213 11.266C39.74 11.043 39.628 11.04 32.267 11.023C28.16 11.014 24.6 11.046 24.355 11.096ZM39.015 16.987L38.987 20H25.013L24.989 17.12C24.975 15.536 24.986 14.18 25.012 14.107C25.05 14.002 26.555 13.973 32.052 13.973H39.043L39.015 16.987ZM21.973 19.18C21.973 21.091 22.52 22.133 23.84 22.741L24.373 22.987H31.947C40.477 22.987 40.096 23.021 41.022 22.168C41.677 21.563 41.934 20.877 42.002 19.544L42.058 18.44L46.922 18.473C51.664 18.506 51.799 18.513 52.292 18.74C53.341 19.225 54.116 20.105 54.387 21.12C54.484 21.484 54.507 24.883 54.484 35.2L54.453 48.8L54.207 49.343C53.919 49.981 53.157 50.76 52.48 51.111C52.014 51.353 51.913 51.361 48.907 51.386C47.205 51.401 38.277 51.323 29.067 51.214C10.589 50.995 11.889 51.059 10.941 50.327C10.337 49.861 10.036 49.467 9.74699 48.764L9.49799 48.16L9.49599 34.839C9.49399 24.908 9.52499 21.406 9.61899 21.079C9.97999 19.822 11.125 18.771 12.363 18.561C12.633 18.516 14.905 18.473 17.413 18.466L21.973 18.453V19.18ZM21.126 25.652C18.134 26.332 16.225 29.229 16.744 32.304C17.104 34.44 18.901 36.349 21.023 36.849C23.034 37.323 24.989 36.767 26.462 35.302C29.014 32.763 28.638 28.633 25.663 26.544C24.398 25.655 22.636 25.309 21.126 25.652ZM35.703 26.75C35.395 26.94 34.987 27.653 34.987 28C34.987 28.357 35.402 29.067 35.721 29.256C36.008 29.425 36.589 29.44 43.003 29.44C49.806 29.439 49.982 29.434 50.326 29.224C51.182 28.702 51.182 27.298 50.326 26.776C49.982 26.566 49.809 26.561 42.987 26.563C36.562 26.565 35.976 26.58 35.703 26.75ZM23.267 28.643C23.893 28.856 24.463 29.336 24.827 29.955C25.077 30.381 25.12 30.57 25.118 31.253C25.115 32.16 24.907 32.669 24.303 33.247C22.957 34.534 20.811 34.159 19.913 32.48C19.588 31.873 19.591 30.63 19.919 30.011C20.556 28.807 22.007 28.214 23.267 28.643ZM35.848 33.68C34.796 34.217 34.731 35.575 35.726 36.24L36.091 36.484L43.104 36.456L50.116 36.427L50.402 36.16C51.028 35.575 51.157 34.847 50.745 34.229C50.234 33.465 50.538 33.494 42.987 33.494C36.749 33.494 36.184 33.508 35.848 33.68ZM20.957 37.33C19.8987 37.4682 18.8716 37.7858 17.92 38.269C15.869 39.276 14.519 41.123 14.51 42.933C14.506 43.736 15.222 44.479 16 44.479C16.716 44.479 17.492 43.743 17.493 43.063C17.495 41.592 19.862 40.221 22.4 40.221C24.938 40.221 27.305 41.592 27.307 43.063C27.308 43.743 28.084 44.479 28.8 44.479C29.578 44.479 30.294 43.736 30.29 42.933C30.281 41.124 28.933 39.28 26.88 38.266C26.323 37.991 25.459 37.668 24.96 37.549C23.927 37.302 21.922 37.193 20.957 37.33ZM35.947 40.608C35.644 40.719 35.205 41.209 35.085 41.571C34.811 42.403 35.405 43.337 36.29 43.465C36.541 43.502 39.731 43.517 43.379 43.499C49.893 43.467 50.017 43.463 50.312 43.246C50.683 42.974 50.986 42.401 50.987 41.972C50.987 41.506 50.652 40.953 50.233 40.728C49.892 40.545 49.459 40.534 42.988 40.542C39.203 40.546 36.035 40.576 35.947 40.608Z" fill="#222222"/>
</svg>
