<svg width="64" height="64" viewBox="0 0 64 64" fill="none" xmlns="http://www.w3.org/2000/svg">
<path fill-rule="evenodd" clip-rule="evenodd" d="M30.879 8.74593C25.999 9.17393 21.865 12.3509 20.106 17.0249C19.152 19.5609 19.152 23.1059 20.106 25.6419C21.445 29.1979 24.131 31.8889 27.669 33.2189C30.24 34.1859 33.76 34.1859 36.331 33.2189C39.869 31.8889 42.555 29.1979 43.894 25.6419C44.852 23.0959 44.849 19.5639 43.886 17.0029C41.852 11.5939 36.576 8.24493 30.879 8.74593ZM34.613 13.0519C36.022 13.5149 36.945 14.0959 38.091 15.2419C39.231 16.3819 39.808 17.2949 40.289 18.7199C40.556 19.5109 40.577 19.7029 40.577 21.3329C40.577 22.9639 40.556 23.1559 40.289 23.9469C39.808 25.3719 39.231 26.2839 38.091 27.4249C36.951 28.5649 36.039 29.1409 34.613 29.6229C33.823 29.8899 33.631 29.9109 32 29.9109C30.369 29.9109 30.177 29.8899 29.387 29.6229C27.961 29.1409 27.049 28.5649 25.909 27.4249C24.769 26.2839 24.192 25.3719 23.711 23.9469C23.444 23.1559 23.423 22.9639 23.423 21.3329C23.423 19.7029 23.444 19.5109 23.711 18.7199C24.192 17.2939 24.769 16.3819 25.909 15.2429C27.822 13.3319 29.51 12.6659 32.267 12.7349C33.527 12.7659 33.893 12.8149 34.613 13.0519ZM30.282 38.0899C21.204 38.6709 14.176 43.9789 14.046 50.3529C14.028 51.2349 14.045 51.3139 14.347 51.7409C14.749 52.3109 15.316 52.6109 15.988 52.6109C17.094 52.6109 17.764 51.9899 17.936 50.8049C18.24 48.7269 18.672 47.7349 19.814 46.4999C21.659 44.5029 24.343 43.1409 27.94 42.3739C29.193 42.1069 29.456 42.0889 32 42.0889C34.544 42.0889 34.807 42.1069 36.06 42.3739C41.07 43.4419 44.597 45.8539 45.715 48.9779C45.806 49.2319 45.926 49.8669 45.981 50.3889C46.048 51.0199 46.155 51.4559 46.302 51.6929C47.218 53.1759 49.543 52.8029 49.905 51.1149C50.121 50.1099 49.769 48.1589 49.118 46.7479C47.207 42.6079 42.343 39.4169 36.397 38.4039C35.394 38.2329 31.903 37.9259 31.68 37.9889C31.651 37.9969 31.022 38.0429 30.282 38.0899Z" fill="#222222"/>
</svg>
