<svg width="64" height="64" viewBox="0 0 64 64" fill="none" xmlns="http://www.w3.org/2000/svg">
<path fill-rule="evenodd" clip-rule="evenodd" d="M30.879 6.07893C25.999 6.50793 21.865 9.68493 20.106 14.3579C19.152 16.8939 19.152 20.4389 20.106 22.9749C21.445 26.5309 24.131 29.2219 27.669 30.5519C30.24 31.5189 33.76 31.5189 36.331 30.5519C39.869 29.2219 42.555 26.5309 43.894 22.9749C44.852 20.4299 44.849 16.8969 43.886 14.3359C41.852 8.92793 36.576 5.57793 30.879 6.07893ZM34.613 10.3849C36.022 10.8479 36.945 11.4289 38.091 12.5749C39.231 13.7159 39.808 14.6279 40.289 16.0529C40.556 16.8439 40.577 17.0359 40.577 18.6669C40.577 20.2969 40.556 20.4889 40.289 21.2799C39.808 22.7049 39.231 23.6179 38.091 24.7579C36.951 25.8979 36.039 26.4749 34.613 26.9559C33.823 27.2229 33.631 27.2439 32 27.2439C30.369 27.2439 30.177 27.2229 29.387 26.9559C27.961 26.4749 27.049 25.8979 25.909 24.7579C24.769 23.6179 24.192 22.7049 23.711 21.2799C23.444 20.4889 23.423 20.2969 23.423 18.6669C23.423 17.0359 23.444 16.8439 23.711 16.0529C24.192 14.6269 24.769 13.7159 25.909 12.5769C27.822 10.6649 29.51 9.99893 32.267 10.0679C33.527 10.0989 33.893 10.1489 34.613 10.3849ZM30.3 35.4219C26.411 35.7199 22.133 37.4069 19.147 39.8189C18.324 40.4839 16.689 42.1049 16.006 42.9329C13.973 45.3989 12.443 48.6179 11.783 51.8199C11.501 53.1879 11.269 55.7309 11.373 56.3199C11.745 58.4249 14.796 58.5129 15.242 56.4329C15.3166 56.0331 15.3568 55.6276 15.362 55.2209C15.369 52.8479 16.304 49.8019 17.792 47.3069C19.014 45.2569 21.262 43.0079 23.307 41.7909C26.107 40.1239 28.829 39.3639 32 39.3639C36.595 39.3639 40.691 41.0939 43.904 44.3899C45.673 46.2049 46.87 48.1039 47.679 50.3779C48.284 52.0769 48.498 53.1679 48.633 55.2239C48.709 56.3789 48.767 56.7009 48.957 57.0079C49.631 58.0999 51.154 58.2859 52.053 57.3869C52.615 56.8249 52.707 56.3189 52.579 54.5079C52.292 50.4599 50.854 46.6789 48.339 43.3599C47.627 42.4199 45.832 40.6089 44.853 39.8419C41.493 37.2099 37.709 35.7359 33.493 35.4159C31.927 35.2979 31.928 35.2979 30.3 35.4219Z" fill="#222222"/>
</svg>
