<svg width="64" height="64" viewBox="0 0 64 64" fill="none" xmlns="http://www.w3.org/2000/svg">
<path fill-rule="evenodd" clip-rule="evenodd" d="M20.64 11.3781C17.124 11.6851 14.196 13.5681 12.593 16.5521C11.869 17.9001 11.577 18.8501 11.421 20.3541C11.2364 22.0991 11.5292 23.8615 12.268 25.4531C12.976 26.9911 14.309 28.6871 15.109 29.0671C16.279 29.6221 17.696 28.9361 17.928 27.7041C18.073 26.9301 17.871 26.4331 17.044 25.5221C15.838 24.1941 15.36 23.0051 15.36 21.3331C15.36 19.6191 15.889 18.3481 17.117 17.1121C18.424 15.7951 19.764 15.2921 21.705 15.3871C23.215 15.4601 23.698 15.6601 25.527 16.9651C25.977 17.2851 26.118 17.3301 26.66 17.3231C28.519 17.2971 29.319 15.2071 27.971 13.8981C26.863 12.8211 25.041 11.8891 23.434 11.5771C22.584 11.4121 21.296 11.3211 20.64 11.3781ZM41.6 11.4121C39.512 11.6201 37.403 12.5621 36.022 13.9041C34.681 15.2071 35.486 17.2971 37.34 17.3231C37.882 17.3301 38.023 17.2851 38.473 16.9651C40.302 15.6601 40.785 15.4601 42.295 15.3871C44.236 15.2921 45.576 15.7951 46.883 17.1121C48.111 18.3481 48.64 19.6191 48.64 21.3331C48.64 22.9831 48.142 24.2261 46.97 25.5031C46.132 26.4171 46.044 26.5881 46.044 27.3181C46.044 28.6361 47.155 29.4881 48.501 29.2011C49.715 28.9421 51.693 26.2051 52.306 23.9351C52.81 22.0711 52.708 19.7581 52.039 17.9201C50.477 13.6231 46.197 10.9551 41.6 11.4121ZM31.307 19.3771C27.772 19.6931 24.872 21.5611 23.252 24.5641C22.401 26.1411 22.055 27.5201 22.055 29.3331C22.055 31.1511 22.401 32.5251 23.257 34.1131C24.207 35.8731 25.463 37.1281 27.231 38.0821C28.808 38.9321 30.186 39.2781 32 39.2781C33.814 39.2781 35.192 38.9321 36.769 38.0821C38.537 37.1281 39.793 35.8731 40.743 34.1131C41.599 32.5251 41.945 31.1511 41.945 29.3331C41.945 27.5201 41.599 26.1411 40.748 24.5641C39.553 22.3491 37.658 20.7441 35.241 19.9011C34.116 19.5091 32.396 19.2801 31.307 19.3771ZM33.542 23.5231C34.529 23.7801 35.398 24.2981 36.217 25.1171C37.443 26.3431 37.973 27.6161 37.973 29.3331C37.973 31.0511 37.443 32.3231 36.217 33.5501C34.99 34.7771 33.718 35.3071 32 35.3071C30.282 35.3071 29.01 34.7771 27.783 33.5501C26.557 32.3231 26.027 31.0511 26.027 29.3331C26.027 27.6161 26.557 26.3431 27.783 25.1171C28.585 24.3151 29.466 23.7831 30.412 23.5291C31.179 23.3221 32.761 23.3201 33.542 23.5231ZM14.305 36.4321C11.146 37.4821 8.63497 39.2281 7.26597 41.3251C6.42797 42.6091 6.08297 43.6891 6.05197 45.1281C6.03697 45.8521 6.06797 45.9981 6.31697 46.3741C6.73297 47.0031 7.25897 47.2891 7.99997 47.2891C9.10497 47.2891 9.75797 46.6751 9.94297 45.4621C10.098 44.4551 10.381 43.7761 10.94 43.0721C11.89 41.8741 13.583 40.8551 15.81 40.1401C16.772 39.8311 17.091 39.6761 17.403 39.3661C18.651 38.1271 17.76 36.0431 15.991 36.0591C15.63 36.0621 14.998 36.2021 14.305 36.4321ZM46.959 36.3281C46.234 36.7621 45.861 37.6951 46.084 38.5211C46.284 39.2661 46.828 39.7151 47.938 40.0541C50.031 40.6921 51.508 41.4971 52.604 42.5971C53.475 43.4711 53.916 44.3241 54.013 45.3201C54.135 46.5741 54.86 47.2891 56.009 47.2891C56.542 47.2891 56.719 47.2381 57.087 46.9781C57.73 46.5241 57.962 46.0041 57.943 45.0641C57.868 41.3801 54.703 38.0781 49.663 36.4271C48.25 35.9641 47.605 35.9411 46.959 36.3281ZM30.284 43.4141C25.182 43.7491 20.577 45.8041 18.373 48.7291C17.266 50.1981 16.752 51.5631 16.719 53.1241C16.702 53.9001 16.726 54.0011 17.017 54.4131C17.2944 54.8071 17.7017 55.0909 18.1673 55.2148C18.6329 55.3388 19.1274 55.295 19.564 55.0911C20.197 54.7901 20.474 54.3271 20.658 53.2631C20.859 52.0951 21.167 51.4811 21.948 50.6891C22.697 49.9281 23.259 49.5391 24.491 48.9261C26.696 47.8311 28.951 47.3601 32 47.3601C35.049 47.3601 37.304 47.8311 39.509 48.9261C40.741 49.5391 41.303 49.9281 42.052 50.6891C42.834 51.4821 43.172 52.1521 43.316 53.1981C43.379 53.6541 43.526 54.1821 43.643 54.3711C44.432 55.6541 46.456 55.5651 47.097 54.2191C47.337 53.7151 47.335 52.5571 47.091 51.6161C46.707 50.1361 45.563 48.3601 44.333 47.3341C40.868 44.4441 35.863 43.0471 30.284 43.4141Z" fill="#222222"/>
</svg>
