<svg width="64" height="64" viewBox="0 0 64 64" fill="none" xmlns="http://www.w3.org/2000/svg">
<path fill-rule="evenodd" clip-rule="evenodd" d="M27.0929 8.16705C19.8349 8.94505 14.9959 11.1201 12.3989 14.7721C10.4139 17.5621 9.33891 21.3511 9.05491 26.5601C8.58991 35.1021 9.90191 40.8301 13.1989 44.6451C14.5079 46.1601 16.4559 47.5391 18.3789 48.3121L19.4929 48.7591L19.5499 51.2331C19.5809 52.6031 19.6599 53.8841 19.7269 54.1041C19.9179 54.7271 20.4769 55.3731 21.1219 55.7121C21.6319 55.9811 21.7899 56.0141 22.3609 55.9701C23.5999 55.8751 24.0929 55.4611 27.5939 51.5781L28.5519 50.5171L31.8489 50.5021C36.1879 50.4821 38.8319 50.1791 42.1839 49.3181C45.8409 48.3781 47.6949 47.4291 49.7309 45.4571C52.2699 42.9981 53.6649 39.8511 54.2309 35.3071C54.5609 32.6521 54.6399 31.0141 54.5829 28.0001C54.5079 24.0541 54.1849 21.8581 53.2649 19.0401C52.4869 16.6581 51.5409 14.9781 50.1679 13.5401C49.0219 12.3411 47.8909 11.5211 46.2959 10.7331C43.1429 9.17605 39.4499 8.33205 34.7999 8.10605C31.9519 7.96805 28.7099 7.99305 27.0929 8.16705ZM35.6799 10.1361C42.6389 10.7171 47.3679 12.6961 49.5649 15.9471C50.9759 18.0341 51.9669 20.9991 52.3809 24.3731C52.5499 25.7521 52.5489 31.6751 52.3789 33.6531C51.9749 38.3571 50.8949 41.3081 48.7029 43.6951C47.1149 45.4251 45.1549 46.4771 41.9729 47.3081C38.6149 48.1851 36.7639 48.3981 31.7009 48.4921L27.6149 48.5671L25.7289 50.6571C22.6789 54.0381 22.4899 54.1971 21.9349 53.8331C21.6249 53.6301 21.5519 52.9991 21.5399 50.4001C21.5289 48.2391 21.4409 47.4891 21.1739 47.2941C21.0679 47.2171 20.6409 47.0281 20.2239 46.8761C16.4979 45.5121 14.2819 43.5051 12.6849 40.0471C11.4669 37.4121 10.8779 33.3081 11.0259 28.4801C11.1819 23.3791 11.6989 20.4871 12.9109 17.9381C14.1799 15.2701 15.5799 13.8131 18.0799 12.5611C20.4469 11.3761 23.4439 10.5701 26.8809 10.1961C28.4859 10.0211 33.8639 9.98405 35.6799 10.1361ZM31.1039 17.5101C30.9899 17.6741 30.9729 17.7951 31.0479 17.9341C31.2079 18.2351 31.4469 18.3121 32.4269 18.3831C36.3279 18.6621 39.6899 20.9051 41.2289 24.2541C41.8439 25.5921 42.3469 27.7071 42.3469 28.9581C42.3469 29.6181 42.5099 30.1451 42.7419 30.2341C42.8349 30.2691 43.0299 30.2201 43.1769 30.1231C43.4429 29.9491 43.4429 29.9451 43.3789 28.7081C43.2789 26.7901 42.8329 25.0731 42.0039 23.4131C40.9529 21.3081 39.2559 19.6361 37.0389 18.5181C35.6819 17.8341 33.3979 17.2811 31.9259 17.2801C31.3699 17.2801 31.2399 17.3161 31.1039 17.5101ZM22.6849 17.7651C21.4599 18.2141 19.6949 19.8291 19.0929 21.0501C18.5779 22.0981 18.5509 22.8211 18.9789 24.1071C19.3929 25.3461 20.8549 28.2991 21.9569 30.1191C24.2399 33.8891 27.1199 36.8011 30.9329 39.1961C32.3499 40.0861 35.7019 41.7741 36.9599 42.2301C38.2349 42.6921 39.1589 42.6741 40.2389 42.1641C41.5169 41.5621 43.2009 39.6231 43.5869 38.3101C44.0239 36.8211 43.2599 35.7791 40.2129 33.7141C38.3929 32.4801 37.9669 32.286 37.0669 32.288C36.0319 32.2901 35.6349 32.4901 34.6789 33.4941C34.1819 34.0151 33.7829 34.3451 33.6529 34.3431C33.2549 34.3361 31.9189 33.7401 31.1379 33.2211C29.6029 32.2001 28.0179 30.2981 27.2989 28.6131C26.8429 27.5441 26.8619 27.4691 27.7759 26.6411C28.8219 25.6931 29.0479 25.2281 28.9979 24.1291C28.9639 23.3871 28.9139 23.2241 28.5019 22.5061C27.9219 21.4931 26.8759 20.0261 25.9679 18.9511C24.9109 17.7001 23.8789 17.3271 22.6849 17.7651ZM24.0009 19.6271C24.2399 19.7551 25.7789 21.7851 26.5469 22.9871C27.3449 24.2331 27.3249 24.3721 26.1919 25.4641C25.4039 26.2221 25.2679 26.4101 25.1129 26.9411C24.9469 27.5111 24.9479 27.5921 25.1209 28.2301C25.4699 29.5231 26.4159 31.2141 27.6029 32.6731C28.7069 34.0291 30.6289 35.3601 32.3479 35.9581C33.9779 36.5251 34.5849 36.3601 35.9319 34.982C36.5229 34.378 36.8369 34.1331 37.0229 34.1331C37.4479 34.1331 39.4679 35.4341 41.0089 36.7011C41.8189 37.3681 41.8839 37.5161 41.6219 38.1081C41.3239 38.7821 39.9989 40.1461 39.3199 40.4781C38.7809 40.7421 38.7549 40.7441 38.1509 40.5871C37.3039 40.3661 36.2689 39.9151 34.5069 38.9981C28.8739 36.0681 25.6209 32.9011 22.6199 27.4251C21.2769 24.9761 20.5179 23.0781 20.6229 22.4331C20.7529 21.6321 21.7879 20.4521 22.9359 19.7951C23.4539 19.4991 23.6919 19.4621 24.0009 19.6271ZM32.1789 20.4231C31.9879 20.6131 31.9509 20.8781 32.0849 21.0881C32.1299 21.1591 32.7399 21.3381 33.4409 21.4871C35.6849 21.9621 37.1649 22.8661 38.1779 24.3801C38.8009 25.312 39.0829 26.1491 39.2989 27.7041C39.3819 28.3031 39.4809 28.8431 39.5179 28.9041C39.6269 29.0801 40.0589 29.0301 40.2499 28.8181C40.6969 28.3251 40.2399 25.9451 39.3759 24.2671C39.1159 23.7611 38.7149 23.2411 38.1339 22.6571C37.4319 21.9511 37.0909 21.7031 36.2639 21.2961C34.6769 20.5141 32.5439 20.0581 32.1789 20.4231ZM32.9629 23.6741C32.7579 24.0571 33.0569 24.3971 33.6779 24.4851C35.1529 24.6941 35.9899 25.4871 36.2569 26.9281C36.4509 27.9791 36.8419 28.3241 37.2839 27.8351C37.4649 27.635 37.4709 27.5541 37.3519 26.8581C36.9979 24.7981 35.7739 23.6121 33.8739 23.4901C33.1479 23.4441 33.0789 23.4581 32.9629 23.6741Z" fill="#7664F2"/>
</svg>
