<svg width="64" height="64" viewBox="0 0 64 64" fill="none" xmlns="http://www.w3.org/2000/svg">
<path fill-rule="evenodd" clip-rule="evenodd" d="M27.52 8.12303C22.66 8.49203 17.992 9.83303 15.253 11.646C14.366 12.233 13.149 13.39 12.474 14.286C10.893 16.387 9.76797 19.611 9.33997 23.269C8.64797 29.18 8.98797 35.485 10.192 39.098C11.666 43.519 14.258 46.384 18.159 47.9C19.765 48.525 20.247 48.758 20.329 48.949C20.369 49.043 20.442 50.53 20.491 52.254C20.584 55.504 20.629 55.793 21.073 55.964C21.599 56.166 22.019 55.796 24.923 52.574C26.866 50.417 27.14 50.154 27.495 50.095C27.714 50.059 29.309 50.027 31.04 50.026C34.481 50.022 36.694 49.91 38.473 49.651C40.183 49.402 42.862 48.787 44.366 48.3C49.834 46.526 52.862 42.77 53.852 36.533C54.238 34.096 54.334 32.507 54.337 28.48C54.34 25.286 54.306 24.357 54.15 23.307C53.466 18.695 52.075 15.294 49.996 13.149C47.68 10.76 43.187 8.97103 38.01 8.37603C34.994 8.02903 30.262 7.91503 27.52 8.12303ZM33.813 16.122C36.343 16.475 39.04 17.892 40.914 19.851C43.019 22.052 44.259 25.132 44.446 28.627C44.515 29.914 44.488 29.994 43.935 30.132C43.459 30.252 43.366 30.027 43.167 28.291C43.066 27.409 42.893 26.333 42.782 25.9C41.828 22.171 39.411 19.37 36 18.041C34.921 17.621 33.993 17.41 32.392 17.223C31.695 17.141 31.055 17.016 30.97 16.946C30.874 16.867 30.828 16.673 30.848 16.436C30.875 16.11 30.926 16.044 31.2 15.982C31.564 15.901 32.638 15.958 33.813 16.122ZM24.117 16.602C25.044 17.107 27.383 20.116 28.373 22.078C28.675 22.677 28.721 22.877 28.721 23.571C28.72 24.706 28.469 25.187 27.338 26.216C26.288 27.172 26.296 27.122 26.984 28.562C28.229 31.167 30.23 33.19 32.496 34.133C33.861 34.702 33.788 34.716 34.797 33.677C35.915 32.526 36.387 32.271 37.387 32.274C38.292 32.278 38.878 32.523 40.464 33.559C42.627 34.974 44.143 36.292 44.494 37.065C44.742 37.611 44.753 38.669 44.517 39.278C43.991 40.635 42.15 42.634 40.878 43.229C40.318 43.491 39.99 43.569 39.312 43.603C38.556 43.64 38.339 43.605 37.493 43.305C36.965 43.118 35.813 42.619 34.933 42.196C27.029 38.396 22.599 33.951 18.766 25.973C17.58 23.506 17.45 23.096 17.445 21.813C17.44 20.842 17.468 20.692 17.751 20.133C18.418 18.815 19.88 17.382 21.26 16.691C21.909 16.367 22.102 16.32 22.8 16.32C23.461 16.32 23.687 16.368 24.117 16.602ZM22.474 18.613C21.597 18.914 20.486 19.892 19.941 20.841C19.365 21.846 19.524 22.531 21.024 25.525C24.692 32.846 28.537 36.633 35.886 40.165C38.502 41.422 39.189 41.587 40.026 41.16C40.839 40.745 42.148 39.256 42.432 38.425C42.54 38.105 42.523 38.045 42.218 37.698C41.461 36.836 38.184 34.598 37.52 34.49C37.165 34.433 37.104 34.476 36.094 35.497C34.763 36.845 34.341 36.998 32.953 36.638C29.721 35.801 26.653 33.089 25.008 29.617C24.75 29.073 24.461 28.322 24.365 27.948C24.04 26.678 24.29 26.042 25.624 24.741C26.139 24.239 26.56 23.746 26.56 23.644C26.56 22.976 23.805 18.969 23.078 18.581C22.939 18.506 22.756 18.516 22.474 18.613ZM34.547 19.523C37.026 20.115 39.091 21.697 40.147 23.812C40.729 24.976 40.923 25.687 41.062 27.148C41.181 28.406 41.144 28.624 40.778 28.791C40.561 28.89 40.458 28.882 40.259 28.751C39.993 28.577 39.945 28.388 39.837 27.106C39.693 25.394 39.057 24.013 37.865 22.827C36.581 21.549 35.405 20.97 33.28 20.571C32.137 20.356 31.893 20.221 31.893 19.801C31.893 19.685 31.977 19.497 32.08 19.384C32.243 19.204 32.357 19.187 32.976 19.248C33.367 19.286 34.074 19.41 34.547 19.523ZM34.475 22.733C36.18 23.095 37.436 24.378 37.751 26.078C37.973 27.283 37.827 27.733 37.214 27.733C36.839 27.733 36.736 27.548 36.539 26.52C36.359 25.579 36.197 25.238 35.716 24.785C35.247 24.344 34.897 24.178 33.839 23.893C33.094 23.693 32.948 23.617 32.894 23.401C32.855 23.246 32.899 23.04 33.004 22.879C33.204 22.574 33.559 22.539 34.475 22.733Z" fill="#7664F2"/>
</svg>
