<svg width="64" height="64" viewBox="0 0 64 64" fill="none" xmlns="http://www.w3.org/2000/svg">
<path fill-rule="evenodd" clip-rule="evenodd" d="M9.44004 13.1879C8.43804 13.3989 6.93004 14.1469 6.07104 14.8599C4.78704 15.9249 3.77604 17.5209 3.27904 19.2659L3.04004 20.1069V44.3199L3.33504 45.2589C4.22804 48.1089 6.02504 50.0159 8.74704 51.0019L9.44004 51.2529L25.09 51.2819C42.656 51.3139 41.518 51.3619 43.244 50.5149C45.332 49.4899 46.91 47.5639 47.576 45.2269C47.739 44.6549 47.821 43.9919 47.864 42.9009C47.912 41.6509 47.95 41.3859 48.073 41.4329C48.155 41.4639 50.369 42.6979 52.991 44.1749C58.358 47.1959 58.459 47.2479 59.017 47.2509C59.848 47.2559 60.67 46.6179 60.9 45.7899C61.061 45.2109 61.055 19.0889 60.894 18.5089C60.654 17.6429 59.569 16.9469 58.738 17.1269C58.197 17.2439 57.697 17.5359 52.693 20.6729L47.947 23.6469L47.883 21.8239C47.813 19.7979 47.619 18.8569 47.026 17.6749C45.832 15.2919 43.818 13.7019 41.325 13.1739C40.218 12.9389 10.56 12.9519 9.44004 13.1879ZM41.2 17.2609C42.518 17.7929 43.621 19.2729 43.843 20.8039C43.979 21.7469 43.974 42.6059 43.837 43.5729C43.63 45.0349 42.667 46.3899 41.387 47.0179L40.8 47.3069L25.659 47.3349C11.758 47.3609 10.473 47.3479 9.97904 47.1849C8.86504 46.8169 7.99404 46.0079 7.43104 44.8189L7.09304 44.1069L7.06304 32.4269C7.03904 23.6169 7.06304 20.6289 7.16004 20.2669C7.58404 18.6709 8.89204 17.3659 10.361 17.0739C10.617 17.0229 17.523 16.9879 25.707 16.9969L40.587 17.0129L41.2 17.2609ZM57.067 32.2669C57.067 37.5169 57.033 41.8129 56.992 41.8129C56.951 41.8129 54.887 40.6729 52.405 39.2799L47.893 36.7469L47.92 32.5439L47.947 28.3409L52.427 25.5339C54.891 23.9909 56.943 22.7259 56.987 22.7239C57.031 22.7219 57.067 27.0159 57.067 32.2669ZM14.207 22.8969C14.071 22.9259 13.751 23.1499 13.497 23.3949C11.824 25.0039 13.662 27.5629 15.76 26.5469C16.432 26.2219 16.796 25.6289 16.796 24.8629C16.796 23.7809 16.056 22.9519 15.029 22.8819C14.712 22.8609 14.342 22.8679 14.207 22.8969ZM14.022 37.7459C12.552 38.4179 12.428 40.4209 13.808 41.2289L14.264 41.4959L25.567 41.4679L36.87 41.4399L37.274 41.1319C38.383 40.2859 38.312 38.6599 37.132 37.8609L36.747 37.5999L25.6 37.5749C14.961 37.5499 14.434 37.5579 14.022 37.7459Z" fill="#222222"/>
</svg>
