<svg width="64" height="64" viewBox="0 0 64 64" fill="none" xmlns="http://www.w3.org/2000/svg">
<path fill-rule="evenodd" clip-rule="evenodd" d="M9.54689 10.227C8.65589 10.636 8.18389 11.378 8.18089 12.373C8.17889 13.154 8.44189 13.634 9.37589 14.555L10.1279 15.296L9.48489 15.639C7.93789 16.466 6.82289 17.636 5.97589 19.325C5.01589 21.238 5.06689 20.443 5.06689 33.547C5.06689 46.56 5.00889 45.621 5.92689 47.536C7.14789 50.085 9.37289 51.775 12.0109 52.156C12.4709 52.223 18.0749 52.262 26.9869 52.261C42.1589 52.259 42.0509 52.263 43.4209 51.744C43.7479 51.62 44.3419 51.322 44.7409 51.081L45.4669 50.643L47.2399 52.404C48.2159 53.373 49.1809 54.252 49.3869 54.358C49.9869 54.668 50.9269 54.626 51.5489 54.26C52.2699 53.837 52.6209 53.264 52.6739 52.42C52.7079 51.889 52.6699 51.645 52.4939 51.285C52.3339 50.955 46.5869 45.146 31.9759 30.542C14.2899 12.866 11.6249 10.242 11.2529 10.142C10.6299 9.97496 10.0309 10.005 9.54689 10.227ZM22.9849 17.065L25.3279 19.409L33.4369 19.438L41.5469 19.467L42.0649 19.732C42.7529 20.083 43.5529 20.975 43.8589 21.734L44.1069 22.347L44.1369 30.267C44.1629 37.149 44.1869 38.187 44.3229 38.187C44.4359 38.187 44.4799 38.313 44.4809 38.64C44.4819 39.361 44.6859 39.911 45.1049 40.322C45.6709 40.876 58.1569 47.863 58.7479 47.956C59.6609 48.1 60.6569 47.435 60.9039 46.517C60.9809 46.231 61.0079 42.039 60.9879 33.262L60.9599 20.427L60.7139 19.998C60.3229 19.315 59.8289 19.04 58.9939 19.04H58.2929L53.5889 21.984L48.8849 24.929L48.8189 23.478C48.7159 21.236 48.3099 19.852 47.3149 18.363C46.1009 16.543 44.3159 15.316 42.2399 14.872C41.6749 14.751 39.6089 14.723 31.0939 14.722L20.6419 14.72L22.9849 17.065ZM23.6269 28.8L33.0129 38.187H16.2379L15.6669 38.485C14.8429 38.915 14.4519 39.575 14.4579 40.525C14.4629 41.29 14.6179 41.682 15.1079 42.172C15.8089 42.874 14.9519 42.824 26.8789 42.853L37.7049 42.879L39.8869 45.061L42.0689 47.243L41.7539 47.381C41.5009 47.493 38.5949 47.52 26.8799 47.52H12.3199L11.7869 47.236C11.0659 46.852 10.4189 46.159 10.0589 45.387L9.75989 44.747L9.72789 33.76C9.69189 21.44 9.66189 21.984 10.4559 20.875C11.1959 19.842 12.0339 19.425 13.3869 19.418L14.2399 19.413L23.6269 28.8ZM15.6729 24.4C14.2909 25.101 13.9939 26.853 15.0619 28.011C16.1599 29.202 18.0989 28.94 18.8149 27.503C19.2949 26.54 19.1479 25.542 18.4189 24.814C17.6589 24.055 16.6519 23.904 15.6729 24.4ZM57.0669 33.609C57.0669 39.5 57.0299 42.566 56.9609 42.542C56.9019 42.523 55.0549 41.499 52.8559 40.267L48.8569 38.027L48.8819 33.817L48.9069 29.608L52.8529 27.131C55.0239 25.768 56.8599 24.651 56.9329 24.647C57.0389 24.641 57.0669 26.501 57.0669 33.609Z" fill="#222222"/>
</svg>
