<svg width="64" height="64" viewBox="0 0 64 64" fill="none" xmlns="http://www.w3.org/2000/svg">
<path fill-rule="evenodd" clip-rule="evenodd" d="M9.44004 13.1881C8.43804 13.3991 6.93004 14.1471 6.07104 14.8601C4.78704 15.9251 3.77604 17.5211 3.27904 19.2661L3.04004 20.1071V44.3201L3.33504 45.2591C4.22804 48.1091 6.02504 50.0161 8.74704 51.0021L9.44004 51.2531L25.12 51.2831C42.763 51.3171 41.569 51.3691 43.287 50.5011C45.685 49.2901 47.337 46.9971 47.779 44.2671C47.841 43.8851 47.892 43.0761 47.893 42.4691C47.893 41.5801 47.922 41.3751 48.039 41.4201C48.119 41.4501 50.291 42.6621 52.865 44.1131C58.18 47.1071 58.462 47.2511 59.017 47.2521C59.85 47.2541 60.67 46.6171 60.9 45.7901C61.056 45.2291 61.056 19.0911 60.9 18.5301C60.656 17.6501 59.576 16.9451 58.747 17.1251C58.196 17.2441 57.713 17.5271 52.693 20.6731L47.947 23.6471L47.877 21.7701C47.824 20.3291 47.756 19.7121 47.581 19.1121C46.849 16.5871 44.955 14.4591 42.605 13.5231C41.304 13.0051 41.583 13.0131 25.364 13.0221C12.431 13.0291 10.076 13.0541 9.44004 13.1881ZM41.2 17.2611C42.518 17.7931 43.621 19.2731 43.843 20.8041C43.979 21.7471 43.974 42.6061 43.837 43.5731C43.63 45.0351 42.667 46.3901 41.387 47.0181L40.8 47.3071L25.659 47.3351C11.758 47.3611 10.473 47.3481 9.97904 47.1851C8.86504 46.8171 7.99404 46.0081 7.43104 44.8191L7.09304 44.1071L7.06304 32.4271C7.03904 23.6171 7.06304 20.6291 7.16004 20.2671C7.58404 18.6711 8.89204 17.3661 10.361 17.0741C10.617 17.0231 17.523 16.9881 25.707 16.9971L40.587 17.0131L41.2 17.2611ZM57.067 32.2671C57.067 37.5171 57.033 41.8131 56.992 41.8131C56.951 41.8131 54.887 40.6731 52.405 39.2801L47.893 36.7471L47.92 32.5441L47.947 28.3411L52.427 25.5341C54.891 23.9911 56.943 22.7261 56.987 22.7241C57.031 22.7221 57.067 27.0161 57.067 32.2671ZM32.03 25.4381C31.841 25.5201 31.265 25.9881 30.75 26.4781C30.235 26.9681 28.493 28.6111 26.88 30.1301C25.6461 31.2885 24.4174 32.4525 23.194 33.6221L22.441 34.3541L20.847 32.8571C19.97 32.0341 19.102 31.2881 18.917 31.2001C18.228 30.8721 17.124 31.0861 16.617 31.6461C16.085 32.2341 15.968 33.2071 16.347 33.8991C16.643 34.4431 21.121 38.6871 21.615 38.8931C22.091 39.0921 22.913 39.0711 23.325 38.8491C23.902 38.5381 34.46 28.4901 34.625 28.0941C34.933 27.3571 34.722 26.2921 34.167 25.7911C33.637 25.3111 32.684 25.1531 32.03 25.4381Z" fill="#222222"/>
</svg>
