<svg width="64" height="64" viewBox="0 0 64 64" fill="none" xmlns="http://www.w3.org/2000/svg">
<path fill-rule="evenodd" clip-rule="evenodd" d="M28.132 11.103C27.098 11.346 26.004 12.143 24.804 13.525C24.31 14.094 22.449 16.36 20.668 18.56L17.43 22.56L13.382 22.623C11.022 22.66 9.09901 22.737 8.77201 22.807C6.66101 23.262 4.72101 24.784 3.78401 26.722C3.20101 27.927 3.08901 28.587 3.02001 31.2C2.95101 33.808 3.08301 35.681 3.40101 36.603C4.31001 39.247 6.53201 41.112 9.21701 41.485C9.67301 41.549 11.656 41.6 13.649 41.6C16.932 41.6 17.276 41.617 17.47 41.787C17.587 41.889 19.211 43.869 21.079 46.187C24.925 50.96 26.135 52.261 27.226 52.796C28.471 53.406 29.851 53.36 31.179 52.663C32.309 52.07 32.917 51.284 33.348 49.861C33.529 49.264 33.542 48.253 33.573 32.595C33.609 14.239 33.625 14.742 32.955 13.367C32.383 12.194 31.16 11.328 29.751 11.099C28.961 10.971 28.688 10.972 28.132 11.103ZM29.454 15.216C29.576 15.364 29.605 18.033 29.633 31.456C29.651 40.291 29.635 47.862 29.598 48.28C29.539 48.947 29.5 49.054 29.273 49.157C29.132 49.221 28.947 49.248 28.863 49.216C28.64 49.13 27.412 47.677 23.87 43.307C20.319 38.925 20.167 38.751 19.573 38.383C18.495 37.714 18.565 37.723 13.867 37.65L9.54701 37.582L8.96001 37.312C8.25924 36.9886 7.68835 36.4378 7.34001 35.749C7.10301 35.274 7.09201 35.135 7.06001 32.354C7.04001 30.521 7.07001 29.3 7.14201 29.031C7.40901 28.038 8.41701 27.035 9.41601 26.765C9.67201 26.696 11.594 26.616 14.073 26.571L18.293 26.495L18.88 26.221C19.2361 26.0504 19.5779 25.8515 19.902 25.626C20.141 25.449 21.651 23.679 23.256 21.693C26.881 17.207 27.628 16.306 28.307 15.6C28.872 15.013 29.195 14.905 29.454 15.216ZM41.399 30.369C40.94 30.596 40.464 31.25 40.375 31.779C40.215 32.725 40.875 33.774 41.785 34.019C42.099 34.104 44.672 34.13 50.598 34.109L58.968 34.08L59.42 33.76C60.011 33.341 60.267 32.847 60.267 32.123C60.267 31.386 59.941 30.788 59.352 30.443L58.915 30.187L50.337 30.189C42.554 30.191 41.727 30.208 41.399 30.369Z" fill="#222222"/>
</svg>
