<svg width="64" height="64" viewBox="0 0 64 64" fill="none" xmlns="http://www.w3.org/2000/svg">
<path fill-rule="evenodd" clip-rule="evenodd" d="M39.045 10.9899C37.698 11.2729 36.897 11.9699 34.459 14.9799C32.49 17.4099 32.385 17.5769 32.38 18.2849C32.372 19.3989 33.197 20.2669 34.264 20.2669C35.299 20.2669 35.373 20.2019 37.895 17.0919C38.761 16.0239 39.583 15.0749 39.722 14.9849C39.928 14.8489 40.025 14.8419 40.256 14.9479C40.411 15.0189 40.561 15.1759 40.59 15.2979C40.618 15.4199 40.652 18.4479 40.667 22.0269C40.696 29.1749 40.662 28.8089 41.35 29.4599C41.6278 29.7146 41.9725 29.8847 42.3437 29.95C42.7148 30.0154 43.0969 29.9734 43.445 29.8289C43.859 29.6559 44.446 29.0149 44.558 28.6109C44.603 28.4509 44.639 25.3679 44.638 21.7599C44.637 14.1109 44.636 14.1059 43.737 12.8259C42.716 11.3709 40.799 10.6209 39.045 10.9899ZM15.506 11.4059C14.455 11.6639 13.829 12.7489 14.095 13.8489C14.207 14.3099 14.517 14.6489 18.262 18.4099L22.307 22.4739L21.238 22.5439C19.771 22.6399 19.181 22.7779 18.187 23.2569C16.13 24.2489 14.697 26.0259 14.217 28.1799C13.965 29.3129 13.966 34.6909 14.219 35.8259C14.695 37.9639 16.141 39.7559 18.187 40.7429C19.524 41.3879 19.781 41.4189 24.314 41.4859L28.414 41.5469L30.271 43.8399C36.692 51.7699 36.88 51.9779 38.235 52.6479C39.043 53.0459 39.131 53.0659 40.049 53.0559C41.184 53.0419 41.94 52.7959 42.777 52.1669C43.508 51.6179 43.882 51.0779 44.212 50.0949C44.446 49.3959 44.505 48.9649 44.588 47.3269C44.643 46.2599 44.689 45.2679 44.69 45.1229C44.693 44.9079 45.385 45.5489 48.507 48.6579C52.127 52.2649 52.346 52.4619 52.827 52.5619C54.372 52.8829 55.547 51.7089 55.231 50.1599C55.13 49.6659 54.647 49.1729 36.23 30.7419C25.837 20.3399 17.189 11.7409 17.013 11.6329C16.626 11.3949 15.96 11.2939 15.506 11.4059ZM33.466 33.6259L40.64 40.7989L40.639 44.4799C40.638 46.5039 40.609 48.3349 40.573 48.5479C40.527 48.8299 40.432 48.9719 40.228 49.0649C39.961 49.1859 39.914 49.1569 39.254 48.4619C38.872 48.0599 37.531 46.4589 36.273 44.9049C31.387 38.8689 31.257 38.7179 30.602 38.2939C29.541 37.6079 29.15 37.5569 24.64 37.5159L20.64 37.4789L19.972 37.1779C19.253 36.8539 18.719 36.3429 18.325 35.6049C18.085 35.1569 18.08 35.0769 18.08 31.9999C18.08 28.9379 18.087 28.8409 18.321 28.4029C18.936 27.2519 19.815 26.6719 21.12 26.5559C21.56 26.5169 22.904 26.4779 24.106 26.4689L26.293 26.4529L33.466 33.6259Z" fill="#222222"/>
</svg>
