<svg width="64" height="64" viewBox="0 0 64 64" fill="none" xmlns="http://www.w3.org/2000/svg">
<path fill-rule="evenodd" clip-rule="evenodd" d="M28.32 11.0169C27.214 11.3559 26.268 12.0809 24.989 13.5729C24.473 14.1749 22.643 16.4069 20.923 18.5329C18.948 20.9749 17.711 22.4189 17.565 22.4509C17.437 22.4779 15.557 22.5209 13.387 22.5449C10.821 22.5729 9.25301 22.6329 8.90701 22.7169C8.13001 22.9039 6.75901 23.5959 6.05401 24.1549C4.84701 25.1139 3.89201 26.6499 3.55101 28.1799C3.29801 29.3129 3.29901 34.6909 3.55201 35.8259C4.02801 37.9639 5.47401 39.7559 7.52001 40.7429C8.85801 41.3879 9.11401 41.4189 13.651 41.4859L17.755 41.5469L19.607 43.8399C25.888 51.6169 26.215 51.9789 27.569 52.6479C28.376 53.0459 28.464 53.0659 29.382 53.0559C30.517 53.0419 31.273 52.7959 32.111 52.1669C32.841 51.6179 33.215 51.0779 33.545 50.0949C33.78 49.3959 33.838 48.9649 33.922 47.3269C34.05 44.8019 34.05 19.1979 33.922 16.6729C33.811 14.4999 33.569 13.5039 32.938 12.6259C32.543 12.0749 31.734 11.4939 30.945 11.1949C30.245 10.9289 28.905 10.8379 28.32 11.0169ZM29.583 14.9449C29.765 15.0279 29.862 15.1799 29.907 15.4519C29.942 15.6649 29.971 23.1119 29.971 31.9999C29.971 40.8879 29.942 48.3349 29.907 48.5479C29.86 48.8299 29.766 48.9719 29.562 49.0649C29.295 49.1859 29.248 49.1569 28.587 48.4619C28.206 48.0599 26.864 46.4589 25.606 44.9049C20.72 38.8689 20.591 38.7179 19.936 38.2939C18.874 37.6079 18.484 37.5569 13.973 37.5159L9.97301 37.4789L9.30501 37.1779C8.58701 36.8539 8.05201 36.3429 7.65801 35.6049C7.41901 35.1569 7.41301 35.0769 7.41301 31.9999C7.41301 28.9229 7.41901 28.8429 7.65801 28.3949C8.05201 27.6569 8.58701 27.1459 9.30501 26.8219L9.97301 26.5209L14.24 26.4549C18.314 26.3919 18.533 26.3779 19.093 26.1529C19.416 26.0229 19.9 25.7549 20.169 25.5569C20.463 25.3409 21.826 23.7519 23.577 21.5849C27.268 17.0179 27.949 16.1969 28.681 15.4399C29.007 15.1029 29.285 14.8269 29.298 14.8269C29.312 14.8269 29.44 14.8799 29.583 14.9449ZM42.293 22.6579C41.896 22.8349 41.437 23.3169 41.287 23.7139C41.121 24.1529 41.148 24.9199 41.344 25.3119C41.437 25.4999 42.937 27.0809 44.676 28.8269L47.839 31.9999L44.676 35.1729C42.937 36.9189 41.437 38.4999 41.344 38.6879C41.148 39.0799 41.121 39.8469 41.287 40.2859C41.441 40.6949 41.901 41.1689 42.317 41.3459C42.777 41.5429 43.559 41.5319 43.979 41.3229C44.166 41.2289 45.748 39.7299 47.493 37.9899L50.667 34.8279L53.84 37.9899C55.585 39.7299 57.167 41.2289 57.355 41.3229C57.774 41.5319 58.557 41.5429 59.017 41.3459C59.432 41.1689 59.892 40.6949 60.047 40.2859C60.212 39.8469 60.185 39.0799 59.99 38.6879C59.896 38.4999 58.396 36.9189 56.657 35.1729L53.495 31.9999L56.657 28.8269C58.396 27.0809 59.896 25.4999 59.99 25.3119C60.199 24.8929 60.21 24.1099 60.013 23.6499C59.836 23.2349 59.362 22.7749 58.953 22.6199C58.514 22.4539 57.746 22.4819 57.355 22.6769C57.167 22.7709 55.585 24.2699 53.84 26.0099L50.667 29.1719L47.493 26.0099C45.748 24.2699 44.166 22.7709 43.979 22.6769C43.567 22.4709 42.732 22.4619 42.293 22.6579Z" fill="#222222"/>
</svg>
