<svg width="64" height="64" viewBox="0 0 64 64" fill="none" xmlns="http://www.w3.org/2000/svg">
<path fill-rule="evenodd" clip-rule="evenodd" d="M49.2881 10.7471C48.7151 11.0391 48.2981 11.6371 48.2391 12.2501C48.1571 13.1081 48.3451 13.4591 49.5631 14.7171C50.9161 16.1151 51.6281 16.9891 52.5921 18.4381C54.4251 21.1941 55.7221 24.4701 56.3341 27.8931C56.5511 29.1051 56.5821 29.6221 56.5821 32.0001C56.5821 35.0501 56.4201 36.3351 55.7331 38.7201C54.5991 42.6591 52.7071 45.9661 49.8871 48.9371C48.5541 50.3411 48.2591 50.8591 48.3621 51.6131C48.4033 51.9177 48.5142 52.2088 48.6861 52.4636C48.8581 52.7185 49.0864 52.9303 49.3535 53.0825C49.6206 53.2348 49.9192 53.3234 50.2261 53.3416C50.533 53.3597 50.8399 53.3068 51.1231 53.1871C51.3121 53.1071 52.0191 52.4711 52.6951 51.7741C56.9561 47.3761 59.6491 41.7001 60.4331 35.4671C60.6631 33.6371 60.6631 30.3661 60.4341 28.5441C59.7571 23.1721 57.7031 18.2931 54.3351 14.0631C53.4171 12.9101 51.4931 10.9331 51.0721 10.7121C50.6731 10.5011 49.7321 10.5201 49.2881 10.7471ZM28.3201 11.0221C27.1341 11.4181 26.2691 12.0811 24.9891 13.5731C24.4731 14.1751 22.6431 16.4071 20.9231 18.5331C18.9481 20.9751 17.7111 22.4191 17.5651 22.4511C17.4371 22.4781 15.5571 22.5211 13.3871 22.5451C10.8211 22.5731 9.25307 22.6331 8.90707 22.7171C8.13007 22.9041 6.75907 23.5961 6.05407 24.1551C4.86107 25.1031 3.88807 26.6661 3.55207 28.1741C3.29807 29.3131 3.29807 34.6871 3.55207 35.8261C4.02807 37.9641 5.47407 39.7561 7.52007 40.7431C8.85707 41.3881 9.11407 41.4191 13.6471 41.4861L17.7471 41.5471L19.6041 43.8401C24.3501 49.7011 25.0651 50.5611 25.8661 51.3681C26.5181 52.0251 26.9211 52.3281 27.5681 52.6481C28.3591 53.0381 28.4781 53.0661 29.3281 53.0621C30.4131 53.0571 31.1021 52.8491 31.9791 52.2641C32.7551 51.7451 33.1961 51.1341 33.5471 50.0891C33.7791 49.3971 33.8391 48.9611 33.9221 47.3271C34.0501 44.8021 34.0501 19.1981 33.9221 16.6731C33.8111 14.5001 33.5691 13.5041 32.9381 12.6261C32.5431 12.0751 31.7341 11.4941 30.9451 11.1951C30.2171 10.9181 28.8931 10.8311 28.3201 11.0221ZM29.5831 14.9451C29.7651 15.0281 29.8621 15.1801 29.9071 15.4521C29.9421 15.6651 29.9711 23.1121 29.9711 32.0001C29.9711 40.8881 29.9421 48.3351 29.9071 48.5481C29.8611 48.8261 29.7651 48.9721 29.5721 49.0601C29.3291 49.1711 29.2621 49.1471 28.9301 48.8321C28.4581 48.3841 26.7831 46.3731 23.3621 42.1471C21.7701 40.1791 20.4531 38.6521 20.1671 38.4421C19.8309 38.2066 19.471 38.0072 19.0931 37.8471C18.5341 37.6231 18.3101 37.6091 14.2401 37.5441L9.97307 37.4771L9.30507 37.1771C8.58707 36.8531 8.05307 36.3441 7.65807 35.6051C7.41907 35.1571 7.41307 35.0771 7.41307 32.0001C7.41307 28.9231 7.41907 28.8431 7.65807 28.3951C8.05307 27.6561 8.58707 27.1471 9.30507 26.8231L9.97307 26.5231L14.2401 26.4561C18.3101 26.3911 18.5341 26.3771 19.0931 26.1531C19.4161 26.0231 19.9001 25.7551 20.1691 25.5571C20.4621 25.3411 21.8281 23.7491 23.5771 21.5851C27.3031 16.9761 27.9561 16.1901 28.6811 15.4401C29.0071 15.1031 29.2851 14.8271 29.2981 14.8271C29.3121 14.8271 29.4401 14.8801 29.5831 14.9451ZM42.0801 18.4981C41.3811 18.8101 40.9601 19.4991 40.9601 20.3321C40.9601 20.9801 41.1691 21.3431 42.1221 22.3531C43.9296 24.2714 45.1759 26.6492 45.7251 29.2271C45.9991 30.5011 45.9991 33.4991 45.7251 34.7701C45.1551 37.4151 43.9661 39.6671 42.0421 41.7431C41.0981 42.7631 40.9291 43.1701 41.0881 44.0431C41.2601 44.9921 42.0181 45.5791 43.0591 45.5691C43.7561 45.5631 44.0931 45.3671 44.9691 44.4591C47.4911 41.8441 49.1721 38.4311 49.7651 34.7201C49.9901 33.3101 49.9901 30.6781 49.7651 29.2801C49.3621 26.7761 48.4651 24.3791 47.1841 22.3791C46.1361 20.7431 44.5261 18.9121 43.8181 18.5491C43.3561 18.3131 42.5481 18.2891 42.0801 18.4981Z" fill="#222222"/>
</svg>
