<svg width="64" height="64" viewBox="0 0 64 64" fill="none" xmlns="http://www.w3.org/2000/svg">
<path fill-rule="evenodd" clip-rule="evenodd" d="M28.32 11.0169C27.214 11.3559 26.268 12.0809 24.989 13.5729C24.473 14.1749 22.643 16.4069 20.923 18.5329C18.948 20.9749 17.711 22.4189 17.565 22.4509C17.437 22.4779 15.557 22.5209 13.387 22.5449C10.821 22.5729 9.25301 22.6329 8.90701 22.7169C8.13001 22.9039 6.75901 23.5959 6.05401 24.1549C4.84701 25.1139 3.89201 26.6499 3.55101 28.1799C3.29801 29.3129 3.29901 34.6909 3.55201 35.8259C4.02801 37.9639 5.47401 39.7559 7.52001 40.7429C8.85801 41.3879 9.11401 41.4189 13.651 41.4859L17.755 41.5469L19.607 43.8399C25.888 51.6169 26.215 51.9789 27.569 52.6479C28.376 53.0459 28.464 53.0659 29.382 53.0559C30.517 53.0419 31.273 52.7959 32.111 52.1669C32.841 51.6179 33.215 51.0779 33.545 50.0949C33.78 49.3959 33.838 48.9649 33.922 47.3269C34.05 44.8019 34.05 19.1979 33.922 16.6729C33.811 14.4999 33.569 13.5039 32.938 12.6259C32.543 12.0749 31.734 11.4939 30.945 11.1949C30.245 10.9289 28.905 10.8379 28.32 11.0169ZM29.583 14.9449C29.765 15.0279 29.862 15.1799 29.907 15.4519C29.942 15.6649 29.971 23.1119 29.971 31.9999C29.971 40.8879 29.942 48.3349 29.907 48.5479C29.86 48.8299 29.766 48.9719 29.562 49.0649C29.295 49.1859 29.248 49.1569 28.587 48.4619C28.206 48.0599 26.864 46.4589 25.606 44.9049C20.72 38.8689 20.591 38.7179 19.936 38.2939C18.874 37.6079 18.484 37.5569 13.973 37.5159L9.97301 37.4789L9.30501 37.1779C8.58701 36.8539 8.05201 36.3429 7.65801 35.6049C7.41901 35.1569 7.41301 35.0769 7.41301 31.9999C7.41301 28.9229 7.41901 28.8429 7.65801 28.3949C8.05201 27.6569 8.58701 27.1459 9.30501 26.8219L9.97301 26.5209L14.24 26.4549C18.314 26.3919 18.533 26.3779 19.093 26.1529C19.416 26.0229 19.9 25.7549 20.169 25.5569C20.463 25.3409 21.826 23.7519 23.577 21.5849C27.268 17.0179 27.949 16.1969 28.681 15.4399C29.007 15.1029 29.285 14.8269 29.298 14.8269C29.312 14.8269 29.44 14.8799 29.583 14.9449ZM50.172 22.0729C49.702 22.1879 49.231 22.5489 48.941 23.0149C48.698 23.4059 48.693 23.4769 48.66 26.6859L48.626 29.9599L45.353 29.9929C42.143 30.0259 42.072 30.0309 41.682 30.2739C40.552 30.9769 40.359 32.4659 41.28 33.3869C41.859 33.9649 42.284 34.0269 45.712 34.0269H48.64V36.9549C48.64 40.3829 48.701 40.8079 49.28 41.3869C50.371 42.4779 52.254 41.9319 52.575 40.4329C52.645 40.1069 52.693 38.6899 52.693 36.9549V34.0269H55.621C57.357 34.0269 58.773 33.9789 59.099 33.9089C60.831 33.5369 61.182 31.2259 59.651 30.2739C59.261 30.0309 59.19 30.0259 55.98 29.9929L52.707 29.9599L52.674 26.7399C52.642 23.7179 52.626 23.4939 52.417 23.0929C52.009 22.3119 51.024 21.8639 50.172 22.0729Z" fill="#222222"/>
</svg>
