<svg width="64" height="64" viewBox="0 0 64 64" fill="none" xmlns="http://www.w3.org/2000/svg">
<path fill-rule="evenodd" clip-rule="evenodd" d="M31.506 14.0719C31.035 14.1889 30.564 14.5499 30.274 15.0149L30.027 15.4129V37.9199L30.274 38.3179C31.226 39.8489 33.537 39.4979 33.909 37.7659C34.067 37.0269 34.07 16.2629 33.911 15.5749C33.66 14.4849 32.574 13.8059 31.506 14.0719ZM31.627 46.0209C31.496 46.062 31.3632 46.097 31.229 46.1259C30.41 46.3059 29.792 47.3549 29.899 48.3859C30.016 49.5209 30.83 50.2399 32 50.2399C33.163 50.2399 33.984 49.5209 34.1 48.3999C34.196 47.4659 33.79 46.6139 33.071 46.2419C32.778 46.0909 31.825 45.9449 31.627 46.0209Z" fill="#222222"/>
</svg>
