<svg width="64" height="64" viewBox="0 0 64 64" fill="none" xmlns="http://www.w3.org/2000/svg">
<path fill-rule="evenodd" clip-rule="evenodd" d="M31.467 3.43198C30.282 3.76798 24.638 8.95599 21.699 12.411C15.834 19.306 12.452 26.22 11.57 33.12C11.334 34.968 11.333 38.066 11.568 39.627C12.275 44.321 14.224 48.354 17.384 51.658C20.92 55.355 25.565 57.554 30.591 57.911C40.437 58.609 49.356 51.997 51.94 42.084C53.298 36.873 52.658 30.768 50.117 24.702C47.853 19.299 44.184 14.086 38.994 8.90199C35.877 5.78799 33.346 3.65998 32.48 3.42398C31.988 3.28998 31.966 3.28998 31.467 3.43198ZM32.939 8.66698C33.441 9.09198 34.63 10.196 35.581 11.121C40.824 16.216 44.64 21.643 46.765 27.023C48.594 31.654 49.116 36.554 48.203 40.533C46.972 45.907 43.375 50.416 38.647 52.512C36.21 53.592 34.49 53.97 32 53.97C27.5 53.97 23.35 52.161 20.219 48.835C17.564 46.014 15.983 42.629 15.459 38.64C15.298 37.416 15.387 34.154 15.618 32.812C15.916 31.1354 16.348 29.4855 16.91 27.878C17.461 26.345 18.903 23.299 19.748 21.887C21.925 18.245 24.912 14.525 28.331 11.197C29.654 9.90898 31.881 7.89798 31.987 7.89398C32.009 7.89398 32.438 8.24098 32.939 8.66698ZM42.053 33.791C41.687 33.906 41.088 34.422 40.901 34.784C40.803 34.973 40.693 35.621 40.633 36.353C40.419 38.984 39.476 41.146 37.773 42.917C36.732 43.998 35.917 44.547 34.109 45.385C33.423 45.704 33.241 45.843 33.026 46.217C32.682 46.815 32.603 47.252 32.743 47.773C32.963 48.591 33.815 49.28 34.607 49.28C35.433 49.28 37.39 48.337 38.935 47.195C42.358 44.663 44.512 40.472 44.609 36.156C44.636 34.999 44.506 34.659 43.829 34.112C43.537 33.876 43.305 33.791 42.869 33.758C42.552 33.735 42.185 33.75 42.053 33.791Z" fill="#222222"/>
</svg>
