<svg width="64" height="64" viewBox="0 0 64 64" fill="none" xmlns="http://www.w3.org/2000/svg">
<path fill-rule="evenodd" clip-rule="evenodd" d="M31.0931 6.07791C29.2561 6.30391 28.5271 6.71991 25.6301 9.19691C24.5881 10.0869 23.6761 10.7769 23.3371 10.9309C22.8521 11.1499 22.4001 11.2159 20.1071 11.4049C18.6401 11.5259 17.1521 11.6979 16.8001 11.7879C14.4511 12.3879 12.3881 14.4509 11.7881 16.7999C11.6981 17.1519 11.5261 18.6399 11.4051 20.1069C11.2161 22.3999 11.1501 22.8519 10.9311 23.3369C10.7771 23.6759 10.0871 24.5879 9.19705 25.6299C7.02605 28.1689 6.59205 28.8379 6.23505 30.1939C5.99505 31.1079 5.99505 32.8919 6.23505 33.8059C6.59005 35.1529 7.00305 35.7929 9.15705 38.3299C9.96205 39.2779 10.6961 40.1729 10.7871 40.3199C11.1081 40.8319 11.1971 41.3509 11.4111 43.9499C11.5291 45.3889 11.7001 46.8499 11.7901 47.1959C12.4081 49.5699 14.4461 51.6109 16.7971 52.2109C17.1471 52.3009 18.6111 52.4709 20.0501 52.5889C22.6491 52.8029 23.1681 52.8919 23.6801 53.2129C23.8271 53.3039 24.7221 54.0379 25.6701 54.8429C28.1791 56.9729 28.7171 57.3249 30.0771 57.7279C31.0461 58.0149 32.9541 58.0149 33.9231 57.7279C35.3021 57.3199 35.7571 57.0199 38.3831 54.7909C39.8161 53.5759 40.4731 53.0869 40.8371 52.9669C41.1131 52.8769 42.4931 52.7089 43.9501 52.5889C45.3891 52.4709 46.8501 52.2999 47.1961 52.2099C49.5761 51.5899 51.5901 49.5759 52.2101 47.1959C52.3001 46.8499 52.4711 45.3889 52.5891 43.9499C52.7091 42.4929 52.8771 41.1129 52.9671 40.8369C53.0871 40.4729 53.5761 39.8159 54.7911 38.3829C57.0201 35.7569 57.3201 35.3019 57.7281 33.9229C58.0151 32.9539 58.0151 31.0459 57.7281 30.0769C57.3251 28.7169 56.9551 28.1509 54.8311 25.6529C54.0331 24.7149 53.3051 23.8269 53.2131 23.6799C52.8921 23.1689 52.8031 22.6499 52.5891 20.0499C52.4711 18.6109 52.3001 17.1499 52.2101 16.8039C51.5921 14.4299 49.5541 12.3889 47.2031 11.7889C46.8531 11.6989 45.3891 11.5289 43.9501 11.4109C41.3501 11.1969 40.8311 11.1079 40.3201 10.7869C40.1731 10.6949 39.2851 9.96691 38.3471 9.16891C36.4331 7.54191 35.8171 7.08091 35.0321 6.68691C33.9931 6.16591 32.3911 5.91791 31.0931 6.07791ZM33.2321 10.2789C33.5281 10.4169 34.6081 11.2409 35.6321 12.1099C37.6871 13.8539 38.4471 14.3889 39.3411 14.7239C40.2171 15.0509 40.7411 15.1309 43.5551 15.3619C46.4091 15.5959 46.7711 15.6949 47.5401 16.4479C48.2941 17.1849 48.4031 17.5819 48.6371 20.4499C48.8661 23.2489 48.9471 23.7779 49.2761 24.6589C49.6111 25.5529 50.1461 26.3119 51.8921 28.3729C53.6941 30.4999 53.9711 30.9829 53.9711 31.9999C53.9711 33.0089 53.6921 33.5039 51.9871 35.5219C50.1021 37.7519 49.8991 38.0169 49.5751 38.6669C48.9941 39.8329 48.8601 40.5619 48.5841 44.0459C48.4001 46.3689 48.2971 46.7219 47.5801 47.4999C46.8571 48.2849 46.4481 48.3999 43.5491 48.6389C40.2991 48.9059 39.7811 49.0069 38.6031 49.6039C38.0171 49.9009 37.7061 50.1409 35.5221 51.9869C33.5041 53.6919 33.0091 53.9709 32.0001 53.9709C30.9911 53.9709 30.4961 53.6919 28.4781 51.9869C26.2941 50.1409 25.9831 49.9009 25.3971 49.6039C24.2161 49.0049 23.6901 48.9019 20.4441 48.6369C17.5901 48.4029 17.2291 48.3049 16.4601 47.5519C15.7061 46.8149 15.5971 46.4159 15.3611 43.5489C15.1311 40.7409 15.0511 40.2169 14.7241 39.3409C14.3891 38.4469 13.8541 37.6879 12.1081 35.6269C10.3061 33.4999 10.0291 33.0169 10.0291 31.9999C10.0291 30.9809 10.3111 30.4879 12.1101 28.3679C13.8541 26.3129 14.3891 25.5529 14.7241 24.6589C15.0511 23.7829 15.1311 23.2589 15.3611 20.4509C15.5971 17.5839 15.7061 17.1849 16.4601 16.4479C17.2291 15.6949 17.5911 15.5959 20.4451 15.3619C23.2591 15.1309 23.7831 15.0509 24.6591 14.7239C25.5571 14.3879 26.3101 13.8549 28.4531 12.0399C29.6171 11.0539 30.5821 10.3209 30.8531 10.2169C31.5471 9.94991 32.5831 9.97691 33.2321 10.2789ZM39.7331 24.6899C39.6751 24.7109 39.4831 24.7599 39.3071 24.7979C39.0701 24.8499 37.7331 26.1189 34.1601 29.6839L29.3341 34.4999L27.2271 32.4099C26.0681 31.2609 25.0001 30.2579 24.8541 30.1819C24.7071 30.1059 24.3141 30.0439 23.9791 30.0439C23.2551 30.0439 22.6741 30.3709 22.2891 30.9939C21.9591 31.5269 21.9501 32.4589 22.2691 32.9719C22.3931 33.1709 23.8051 34.6359 25.4071 36.2279C28.1431 38.9459 28.3511 39.1289 28.8271 39.2279C29.1601 39.2979 29.5071 39.2979 29.8401 39.2299C30.3261 39.1289 30.5731 38.8989 35.9721 33.5129C39.1221 30.3699 41.6741 27.7389 41.7711 27.5349C42.1751 26.6829 41.8811 25.5749 41.1111 25.0479C40.7301 24.7869 39.9961 24.5959 39.7331 24.6899Z" fill="#222222"/>
</svg>
