<svg width="64" height="64" viewBox="0 0 64 64" fill="none" xmlns="http://www.w3.org/2000/svg">
<path fill-rule="evenodd" clip-rule="evenodd" d="M31.0931 6.07791C29.2561 6.30391 28.5271 6.71991 25.6301 9.19691C24.5881 10.0869 23.6761 10.7769 23.3371 10.9309C22.8521 11.1499 22.4001 11.2159 20.1071 11.4049C18.6401 11.5259 17.1551 11.6989 16.8081 11.7889C14.4231 12.4099 12.4101 14.4229 11.7891 16.8079C11.6991 17.1549 11.5261 18.6399 11.4051 20.1069C11.2161 22.3999 11.1501 22.8519 10.9311 23.3369C10.7771 23.6759 10.0871 24.5879 9.19705 25.6299C7.02605 28.1689 6.59205 28.8379 6.23505 30.1939C5.99505 31.1079 5.99505 32.8919 6.23505 33.8059C6.59005 35.1529 7.02005 35.8199 9.16905 38.3469C9.96705 39.2849 10.6951 40.1729 10.7871 40.3199C11.1081 40.8309 11.1971 41.3499 11.4111 43.9499C11.5291 45.3889 11.7001 46.8499 11.7901 47.1959C12.4081 49.5699 14.4461 51.6109 16.7971 52.2109C17.1471 52.3009 18.6111 52.4709 20.0501 52.5889C22.6501 52.8029 23.1691 52.8919 23.6801 53.2129C23.8271 53.3049 24.7151 54.0329 25.6531 54.8309C28.1511 56.9549 28.7171 57.3249 30.0771 57.7279C31.0461 58.0149 32.9541 58.0149 33.9231 57.7279C35.3021 57.3199 35.7571 57.0199 38.3831 54.7909C39.8161 53.5759 40.4731 53.0869 40.8371 52.9669C41.1131 52.8769 42.4931 52.7089 43.9501 52.5889C45.3891 52.4709 46.8531 52.3009 47.2031 52.2109C49.5481 51.6129 51.6131 49.5479 52.2111 47.2029C52.3011 46.8529 52.4711 45.3889 52.5891 43.9499C52.8031 41.3509 52.8921 40.8319 53.2131 40.3199C53.3041 40.1729 54.0381 39.2779 54.8431 38.3299C56.9731 35.8209 57.3261 35.2819 57.7281 33.9229C58.0011 32.9989 58.0191 31.1569 57.7651 30.1939C57.4091 28.8459 56.9791 28.1799 54.8311 25.6529C54.0331 24.7149 53.3051 23.8269 53.2131 23.6799C52.8921 23.1689 52.8031 22.6499 52.5891 20.0499C52.4711 18.6109 52.3001 17.1499 52.2101 16.8039C51.5911 14.4299 49.5541 12.3889 47.2021 11.7879C46.8501 11.6989 45.3861 11.5279 43.9481 11.4089C41.3461 11.1939 40.8281 11.1059 40.3201 10.7869C40.1731 10.6949 39.2851 9.96691 38.3471 9.16891C36.4331 7.54191 35.8171 7.08091 35.0321 6.68691C33.9931 6.16591 32.3911 5.91791 31.0931 6.07791ZM33.2321 10.2789C33.5281 10.4169 34.6081 11.2409 35.6321 12.1099C37.6871 13.8539 38.4471 14.3889 39.3411 14.7239C40.2171 15.0509 40.7411 15.1309 43.5551 15.3619C46.4091 15.5959 46.7711 15.6949 47.5401 16.4479C48.2941 17.1849 48.4031 17.5819 48.6371 20.4499C48.8661 23.2489 48.9471 23.7779 49.2761 24.6589C49.6111 25.5529 50.1461 26.3129 51.8901 28.3679C53.6891 30.4879 53.9711 30.9809 53.9711 31.9999C53.9711 33.0169 53.6941 33.4999 51.8921 35.6269C50.1461 37.6879 49.6111 38.4469 49.2761 39.3409C48.9491 40.2159 48.8691 40.7399 48.6341 43.5599C48.3931 46.4349 48.2881 46.8199 47.5401 47.5519C46.8001 48.2759 46.3871 48.3989 44.0461 48.5839C40.5621 48.8599 39.8331 48.9939 38.6671 49.5749C38.0171 49.8989 37.7521 50.1019 35.5221 51.9869C33.5041 53.6919 33.0091 53.9709 32.0001 53.9709C30.9811 53.9709 30.4881 53.6889 28.3681 51.8899C26.3131 50.1459 25.5531 49.6109 24.6591 49.2759C23.7831 48.9489 23.2601 48.8689 20.4341 48.6329C17.5731 48.3939 17.2221 48.2989 16.4601 47.5519C15.7061 46.8149 15.5971 46.4159 15.3611 43.5489C15.1311 40.7409 15.0511 40.2169 14.7241 39.3409C14.3891 38.4469 13.8541 37.6869 12.1101 35.6319C10.3391 33.5449 10.0301 33.0129 10.0271 32.0529C10.0251 30.9609 10.2351 30.5839 12.0381 28.4549C13.8551 26.3099 14.3881 25.5569 14.7241 24.6589C15.0511 23.7829 15.1311 23.2589 15.3611 20.4509C15.5971 17.5839 15.7061 17.1849 16.4601 16.4479C17.2291 15.6949 17.5911 15.5959 20.4451 15.3619C23.2591 15.1309 23.7831 15.0509 24.6591 14.7239C25.5571 14.3879 26.3101 13.8549 28.4531 12.0399C29.6171 11.0539 30.5821 10.3209 30.8531 10.2169C31.5471 9.94991 32.5831 9.97691 33.2321 10.2789Z" fill="#222222"/>
</svg>
