<svg width="64" height="64" viewBox="0 0 64 64" fill="none" xmlns="http://www.w3.org/2000/svg">
<path fill-rule="evenodd" clip-rule="evenodd" d="M30.72 32.752C27.457 33.013 24.45 34.301 21.832 36.561C21.338 36.986 20.801 37.527 20.638 37.763C19.815 38.951 20.531 40.67 21.914 40.826C22.765 40.922 23.099 40.79 23.926 40.029C26.402 37.751 28.962 36.693 32 36.693C33.86 36.693 35.379 37.054 37.067 37.896C38.164 38.443 38.66 38.788 39.813 39.805C40.825 40.696 41.331 40.925 42.017 40.802C42.976 40.628 43.627 39.82 43.626 38.804C43.625 38.046 43.343 37.604 42.228 36.618C39.008 33.769 34.968 32.412 30.72 32.752ZM31.573 43.385C29.747 43.536 28.077 44.892 27.551 46.653C27.461 46.954 27.387 47.56 27.387 48C27.387 49.665 28.117 51 29.527 51.915C30.28 52.403 31 52.604 32 52.604C33 52.604 33.72 52.403 34.473 51.915C35.89 50.995 36.604 49.685 36.604 48C36.604 47.056 36.412 46.31 35.997 45.64C35.035 44.086 33.371 43.238 31.573 43.385ZM32.445 47.537C32.85 47.903 32.565 48.64 32.019 48.64C31.8926 48.6416 31.7686 48.6061 31.6622 48.5379C31.5558 48.4697 31.4718 48.3718 31.4205 48.2563C31.3692 48.1408 31.3529 48.0128 31.3736 47.8882C31.3943 47.7635 31.4511 47.6477 31.537 47.555C31.756 47.312 32.187 47.303 32.445 47.537Z" fill="#222222"/>
</svg>
