<svg width="64" height="64" viewBox="0 0 64 64" fill="none" xmlns="http://www.w3.org/2000/svg">
<path fill-rule="evenodd" clip-rule="evenodd" d="M29.9519 11.4219C22.9249 11.8249 16.2159 14.4339 10.5509 18.9659C9.1579 20.0809 7.0329 22.1839 6.8129 22.6669C6.2509 23.8959 7.0359 25.3159 8.3589 25.4649C9.1819 25.5579 9.5479 25.3509 10.9329 24.0079C12.3569 22.6279 13.1329 21.9579 14.2399 21.1539C18.2719 18.2239 22.7279 16.3979 27.7329 15.6249C29.2749 15.3869 33.0159 15.2979 34.7339 15.4589C39.6389 15.9179 44.5049 17.6269 48.5029 20.2959C50.3009 21.4959 51.2879 22.2929 52.9249 23.8669C53.6119 24.5269 54.3089 25.1189 54.4729 25.1819C55.2539 25.4829 56.3939 25.1789 56.8399 24.5519C57.3059 23.8969 57.3229 22.8469 56.8779 22.2209C56.7549 22.0489 56.1429 21.4149 55.5179 20.8129C50.4339 15.9169 43.8939 12.7289 36.7979 11.6879C35.8039 11.5419 32.1899 11.2879 31.6269 11.3249L29.9519 11.4219ZM30.3469 22.0819C24.8539 22.4699 19.5869 24.8409 15.6769 28.6859C14.8319 29.5159 14.6109 29.8009 14.5069 30.1839C14.1539 31.4959 15.0779 32.7469 16.3999 32.7469C17.0669 32.7469 17.3129 32.6099 18.2839 31.6949C20.2629 29.8309 21.5019 28.9569 23.5959 27.9459C25.1197 27.206 26.7307 26.6614 28.3909 26.3249C29.4389 26.1129 29.9189 26.0799 31.9999 26.0799C34.0809 26.0799 34.5609 26.1129 35.6089 26.3249C39.1149 27.0349 42.3129 28.6299 44.8899 30.9549C46.7309 32.6159 46.6559 32.5639 47.2989 32.6169C48.7479 32.7369 49.7679 31.4979 49.3869 30.0809C49.1439 29.1789 46.4669 26.8369 43.9249 25.3039C39.9599 22.9129 35.0549 21.7489 30.3469 22.0819ZM30.7199 32.7519C27.4569 33.0129 24.4499 34.3009 21.8319 36.5609C21.3379 36.9859 20.8009 37.5269 20.6379 37.7629C19.8149 38.9509 20.5309 40.6699 21.9139 40.8259C22.7649 40.9219 23.0989 40.7899 23.9259 40.0289C26.4019 37.7509 28.9619 36.6929 31.9999 36.6929C33.8599 36.6929 35.3789 37.0539 37.0669 37.8959C38.1639 38.4429 38.6599 38.7879 39.8129 39.8049C40.8249 40.6959 41.3309 40.9249 42.0169 40.8019C42.9759 40.6279 43.6269 39.8199 43.6259 38.8039C43.6249 38.0459 43.3429 37.6039 42.2279 36.6179C39.0079 33.7689 34.9679 32.4119 30.7199 32.7519ZM31.5729 43.3849C29.7469 43.5359 28.0769 44.8919 27.5509 46.6529C27.4609 46.9539 27.3869 47.5599 27.3869 47.9999C27.3869 49.6649 28.1169 50.9999 29.5269 51.9149C30.2799 52.4029 30.9999 52.6039 31.9999 52.6039C32.9999 52.6039 33.7199 52.4029 34.4729 51.9149C35.8899 50.9949 36.6039 49.6849 36.6039 47.9999C36.6039 47.0559 36.4119 46.3099 35.9969 45.6399C35.0349 44.0859 33.3709 43.2379 31.5729 43.3849ZM32.4449 47.5369C32.8499 47.9029 32.5649 48.6399 32.0189 48.6399C31.8926 48.6415 31.7685 48.606 31.6621 48.5378C31.5557 48.4696 31.4717 48.3717 31.4204 48.2562C31.3691 48.1408 31.3528 48.0128 31.3735 47.8881C31.3942 47.7635 31.451 47.6476 31.5369 47.5549C31.7559 47.3119 32.1869 47.3029 32.4449 47.5369Z" fill="#222222"/>
</svg>
