<svg width="64" height="64" viewBox="0 0 64 64" fill="none" xmlns="http://www.w3.org/2000/svg">
<path fill-rule="evenodd" clip-rule="evenodd" d="M31.52 43.378C29.657 43.606 28.068 44.917 27.551 46.653C27.345 47.345 27.347 48.656 27.554 49.356C27.857 50.377 28.559 51.287 29.527 51.915C30.28 52.403 31 52.604 32 52.604C33 52.604 33.72 52.403 34.473 51.915C35.89 50.995 36.604 49.685 36.604 48C36.604 46.315 35.89 45.005 34.473 44.085C33.655 43.555 32.444 43.265 31.52 43.378ZM32.445 47.537C32.85 47.903 32.565 48.64 32.019 48.64C31.8927 48.6416 31.7686 48.6061 31.6622 48.5379C31.5559 48.4697 31.4718 48.3718 31.4205 48.2563C31.3692 48.1408 31.3529 48.0128 31.3736 47.8882C31.3943 47.7635 31.4511 47.6477 31.537 47.555C31.756 47.312 32.187 47.303 32.445 47.537Z" fill="#222222"/>
</svg>
