<svg width="64" height="64" viewBox="0 0 64 64" fill="none" xmlns="http://www.w3.org/2000/svg">
<path fill-rule="evenodd" clip-rule="evenodd" d="M30.347 22.082C24.854 22.47 19.587 24.841 15.677 28.686C14.832 29.516 14.611 29.801 14.507 30.184C14.154 31.496 15.078 32.747 16.4 32.747C17.067 32.747 17.313 32.61 18.284 31.695C20.263 29.831 21.502 28.957 23.596 27.946C25.1198 27.2062 26.7308 26.6615 28.391 26.325C29.439 26.113 29.919 26.08 32 26.08C34.081 26.08 34.561 26.113 35.609 26.325C39.115 27.035 42.313 28.63 44.89 30.955C46.731 32.616 46.656 32.564 47.299 32.617C48.066 32.681 48.753 32.361 49.154 31.754C49.389 31.399 49.44 31.201 49.438 30.654C49.436 29.792 49.181 29.419 47.677 28.071C42.885 23.778 36.682 21.634 30.347 22.082ZM30.753 32.751C27.411 33.025 24.335 34.348 21.787 36.607C21.303 37.036 20.78 37.566 20.624 37.784C19.809 38.935 20.545 40.672 21.914 40.826C22.759 40.921 23.092 40.79 23.922 40.034C26.458 37.727 28.957 36.693 32 36.693C33.86 36.693 35.379 37.054 37.067 37.896C38.164 38.443 38.66 38.788 39.813 39.805C40.825 40.696 41.331 40.925 42.017 40.802C42.976 40.628 43.627 39.82 43.626 38.804C43.625 38.046 43.343 37.604 42.228 36.618C39.018 33.778 34.947 32.406 30.753 32.751ZM31.573 43.385C29.747 43.536 28.077 44.892 27.551 46.653C27.461 46.954 27.387 47.56 27.387 48C27.387 49.665 28.117 51 29.527 51.915C30.28 52.403 31 52.604 32 52.604C33 52.604 33.72 52.403 34.473 51.915C35.89 50.995 36.604 49.685 36.604 48C36.604 47.056 36.412 46.31 35.997 45.64C35.035 44.086 33.371 43.238 31.573 43.385ZM32.445 47.537C32.85 47.903 32.565 48.64 32.019 48.64C31.8926 48.6416 31.7686 48.6061 31.6622 48.5379C31.5558 48.4697 31.4718 48.3718 31.4205 48.2564C31.3692 48.1409 31.3529 48.0129 31.3736 47.8882C31.3943 47.7636 31.4511 47.6477 31.537 47.555C31.756 47.312 32.187 47.303 32.445 47.537Z" fill="#222222"/>
</svg>
