<svg width="64" height="64" viewBox="0 0 64 64" fill="none" xmlns="http://www.w3.org/2000/svg">
<path fill-rule="evenodd" clip-rule="evenodd" d="M11.353 8.74002C10.502 8.94302 9.91998 9.59902 9.83798 10.444C9.74598 11.407 9.87998 11.605 12.248 13.999C13.452 15.216 14.417 16.227 14.392 16.245C14.367 16.263 13.795 16.644 13.12 17.091C10.641 18.732 7.24298 21.737 6.81498 22.667C6.24998 23.892 7.03498 25.316 8.35898 25.465C9.18598 25.559 9.54498 25.352 10.987 23.955C11.72 23.244 12.702 22.352 13.168 21.973C14.12 21.201 16.832 19.362 17.186 19.249C17.381 19.187 17.784 19.545 19.866 21.626L22.316 24.076L21.187 24.674C19.1358 25.7481 17.2561 27.1218 15.61 28.75C14.831 29.521 14.607 29.812 14.506 30.187C14.154 31.496 15.08 32.747 16.4 32.747C17.067 32.747 17.313 32.61 18.284 31.695C19.553 30.499 20.403 29.808 21.409 29.15C22.294 28.573 24.681 27.371 25.173 27.256C25.409 27.2 25.757 27.511 28.213 29.97C30.747 32.508 30.958 32.747 30.666 32.747C30.15 32.748 28.551 33.053 27.545 33.343C26.3 33.702 24.269 34.703 23.116 35.526C21.914 36.384 20.638 37.611 20.429 38.11C20.2621 38.523 20.2347 38.9792 20.351 39.4092C20.4672 39.8391 20.7208 40.2194 21.073 40.492C21.432 40.766 21.562 40.8 22.251 40.8C23.12 40.8 23.001 40.867 24.468 39.561C25.874 38.309 27.359 37.509 29.223 37.001C30.468 36.661 32.794 36.609 34.23 36.888L35.339 37.103L41.803 43.56C46.274 48.026 48.389 50.068 48.663 50.182C49.669 50.6 50.769 50.204 51.27 49.244C51.475 48.852 51.474 47.89 51.268 47.503C51.081 47.152 12.96 9.03402 12.64 8.87802C12.31 8.71802 11.714 8.65402 11.353 8.74002ZM30.228 11.406C29.5 11.462 29.299 11.521 28.965 11.775C28.379 12.222 28.161 12.645 28.161 13.333C28.16 14.051 28.392 14.539 28.943 14.979L29.353 15.307L32.196 15.375C35.205 15.446 35.902 15.514 38.015 15.942C42.734 16.898 47.39 19.125 51.116 22.211C51.485 22.517 52.363 23.325 53.067 24.007C54.452 25.349 54.821 25.558 55.641 25.465C56.976 25.315 57.76 23.878 57.171 22.662C57.048 22.408 56.442 21.717 55.758 21.052C53.025 18.393 50.563 16.647 47.144 14.944C42.819 12.789 38.7 11.696 33.846 11.414C31.934 11.303 31.583 11.302 30.228 11.406ZM39.093 23.725C38.696 23.902 38.237 24.384 38.087 24.78C37.832 25.453 38.004 26.361 38.489 26.913C38.582 27.02 39.381 27.456 40.263 27.882C42.518 28.972 43.69 29.792 45.729 31.709C46.687 32.61 46.934 32.747 47.6 32.747C48.918 32.747 49.846 31.496 49.495 30.191C49.209 29.13 45.832 26.298 43.092 24.82C40.939 23.659 39.886 23.371 39.093 23.725ZM31.573 43.385C29.747 43.536 28.077 44.892 27.551 46.653C27.461 46.954 27.387 47.56 27.387 48C27.387 49.665 28.117 51 29.527 51.915C30.28 52.403 31 52.604 32 52.604C33 52.604 33.72 52.403 34.473 51.915C35.89 50.995 36.604 49.685 36.604 48C36.604 47.056 36.412 46.31 35.997 45.64C35.035 44.086 33.371 43.238 31.573 43.385ZM32.445 47.537C32.85 47.903 32.565 48.64 32.019 48.64C31.8926 48.6416 31.7686 48.6061 31.6622 48.5379C31.5558 48.4697 31.4718 48.3718 31.4205 48.2563C31.3692 48.1409 31.3529 48.0129 31.3736 47.8882C31.3943 47.7636 31.4511 47.6477 31.537 47.555C31.756 47.312 32.187 47.303 32.445 47.537Z" fill="#222222"/>
</svg>
