<svg width="64" height="64" viewBox="0 0 64 64" fill="none" xmlns="http://www.w3.org/2000/svg">
<path fill-rule="evenodd" clip-rule="evenodd" d="M29.952 11.422C22.555 11.846 15.334 14.794 9.70697 19.685C8.27997 20.925 6.96197 22.306 6.77297 22.757C6.27497 23.95 7.07697 25.321 8.35897 25.465C9.18197 25.558 9.54797 25.351 10.933 24.008C13.292 21.723 15.244 20.274 17.813 18.901C21.812 16.765 25.969 15.622 30.632 15.374C31.942 15.305 32.491 15.233 32.787 15.092C33.95 14.541 34.213 12.88 33.286 11.953C32.889 11.556 32.197 11.288 31.659 11.322C31.524 11.331 30.756 11.376 29.952 11.422ZM42.172 11.406C41.705 11.521 41.231 11.882 40.95 12.337C40.674 12.782 40.622 13.748 40.849 14.187C40.925 14.334 41.927 15.401 43.076 16.56L45.166 18.667L43.076 20.773C41.927 21.932 40.925 23 40.849 23.146C40.773 23.293 40.711 23.682 40.711 24.012C40.711 25.33 41.82 26.179 43.17 25.895C43.643 25.795 43.838 25.63 45.84 23.646L48 21.505L50.16 23.646C52.156 25.625 52.358 25.795 52.827 25.894C54.371 26.219 55.553 25.037 55.227 23.493C55.129 23.025 54.958 22.823 52.979 20.827L50.838 18.667L52.979 16.507C54.964 14.505 55.128 14.309 55.228 13.836C55.513 12.487 54.663 11.378 53.345 11.378C53.015 11.378 52.626 11.44 52.48 11.516C52.333 11.591 51.265 12.594 50.107 13.743L48 15.833L45.893 13.743C44.735 12.594 43.691 11.605 43.573 11.546C43.252 11.384 42.549 11.314 42.172 11.406ZM30.293 22.085C24.836 22.479 19.571 24.856 15.677 28.686C14.832 29.516 14.611 29.801 14.507 30.184C14.154 31.496 15.078 32.747 16.4 32.747C17.067 32.747 17.313 32.61 18.284 31.695C20.263 29.831 21.502 28.957 23.596 27.946C25.991 26.79 28.249 26.203 30.947 26.033C31.951 25.97 32.523 25.884 32.793 25.756C33.95 25.207 34.211 23.544 33.286 22.619C32.889 22.223 32.199 21.955 31.659 21.989C31.524 21.997 30.909 22.041 30.293 22.085ZM30.72 32.752C27.457 33.013 24.45 34.301 21.832 36.561C21.338 36.986 20.801 37.527 20.638 37.763C19.815 38.951 20.531 40.67 21.914 40.826C22.765 40.922 23.099 40.79 23.926 40.029C26.402 37.751 28.962 36.693 32 36.693C33.86 36.693 35.379 37.054 37.067 37.896C38.164 38.443 38.66 38.788 39.813 39.805C40.825 40.696 41.331 40.925 42.017 40.802C42.976 40.628 43.627 39.82 43.626 38.804C43.625 38.046 43.343 37.604 42.228 36.618C39.008 33.769 34.968 32.412 30.72 32.752ZM31.52 43.378C29.658 43.606 28.07 44.916 27.551 46.653C27.341 47.354 27.341 48.646 27.551 49.347C27.859 50.379 28.557 51.285 29.527 51.915C30.28 52.403 31 52.604 32 52.604C33 52.604 33.72 52.403 34.473 51.915C35.89 50.995 36.604 49.685 36.604 48C36.604 46.315 35.89 45.005 34.473 44.085C33.655 43.555 32.444 43.265 31.52 43.378ZM32.445 47.537C32.85 47.903 32.565 48.64 32.019 48.64C31.8926 48.6416 31.7686 48.6061 31.6622 48.5379C31.5558 48.4697 31.4718 48.3718 31.4205 48.2563C31.3692 48.1408 31.3529 48.0128 31.3736 47.8882C31.3943 47.7635 31.4511 47.6477 31.537 47.555C31.756 47.312 32.187 47.303 32.445 47.537Z" fill="#222222"/>
</svg>
