<svg width="64" height="64" viewBox="0 0 64 64" fill="none" xmlns="http://www.w3.org/2000/svg">
<path fill-rule="evenodd" clip-rule="evenodd" d="M13.333 8.74991C10.947 8.88891 9.54997 9.45291 8.16797 10.8349C7.08397 11.9189 6.49997 13.0889 6.19797 14.7789C5.99497 15.9159 5.98697 16.5079 5.97997 30.9929C5.97297 46.1839 6.02297 48.7769 6.34497 50.0199C7.02497 52.6449 9.17097 54.5899 12.012 55.1579C12.473 55.2499 17.388 55.2949 30.453 55.3279C48.635 55.3739 51.439 55.3299 52.747 54.9789C55.05 54.3619 57.058 52.3359 57.654 50.0269C57.977 48.7729 58.027 46.1919 58.019 31.0329C58.012 16.7559 58.001 15.9819 57.806 14.8199C57.402 12.4179 56.142 10.6359 54.083 9.55591C53.095 9.03891 52.23 8.84691 50.4 8.73991C48.496 8.62891 15.257 8.63791 13.333 8.74991ZM51.983 12.9319C52.454 13.1449 53.227 13.7309 53.227 13.8759C53.227 13.9339 44.782 13.9729 32 13.9729C19.218 13.9729 10.773 13.9339 10.773 13.8759C10.773 13.7659 11.443 13.2189 11.818 13.0219C11.953 12.9519 12.265 12.8539 12.512 12.8039C12.758 12.7549 21.648 12.7219 32.267 12.7309C50.346 12.7459 51.599 12.7579 51.983 12.9319ZM53.949 33.4669L53.92 48.9069L53.691 49.4029C53.398 50.0359 52.703 50.7309 52.069 51.0239L51.573 51.2529H12.427L11.931 51.0239C11.297 50.7309 10.602 50.0359 10.309 49.4029L10.08 48.9069L10.051 33.4669L10.022 18.0269H53.978L53.949 33.4669ZM26.172 27.4079C25.707 27.5189 25.232 27.8799 24.95 28.3369C24.674 28.7819 24.622 29.7479 24.849 30.1869C24.925 30.3339 25.927 31.4009 27.076 32.5599L29.166 34.6669L27.076 36.7729C25.927 37.9319 24.925 38.9999 24.849 39.1459C24.773 39.2929 24.711 39.6819 24.711 40.0119C24.711 41.3299 25.82 42.1789 27.17 41.8949C27.643 41.7949 27.838 41.6299 29.84 39.6459L32 37.5049L34.16 39.6459C36.156 41.6249 36.358 41.7949 36.827 41.8939C38.371 42.2189 39.553 41.0369 39.227 39.4929C39.129 39.0249 38.958 38.8229 36.979 36.8269L34.838 34.6669L36.979 32.5069C38.958 30.5099 39.129 30.3079 39.227 29.8399C39.472 28.6809 38.857 27.6579 37.775 27.4269C37.477 27.3629 37.172 27.3299 37.097 27.3529C36.9467 27.3947 36.7953 27.4324 36.643 27.4659C36.42 27.5149 35.681 28.1749 34.163 29.6819L32 31.8289L29.84 29.6909C27.9 27.7699 27.629 27.5399 27.179 27.4299C26.629 27.2939 26.648 27.2949 26.172 27.4079Z" fill="#222222"/>
</svg>
