<svg width="64" height="64" viewBox="0 0 64 64" fill="none" xmlns="http://www.w3.org/2000/svg">
<path fill-rule="evenodd" clip-rule="evenodd" d="M13.333 8.74991C11.887 8.83491 10.902 9.04691 10.103 9.44591C8.00504 10.4959 6.64704 12.3049 6.17604 14.6789C6.00604 15.5369 5.91304 44.7859 6.07104 47.5199C6.18804 49.5389 6.34804 50.3589 6.79604 51.2479C7.86104 53.3559 9.62904 54.6819 12.012 55.1579C12.473 55.2499 17.388 55.2949 30.453 55.3279C48.635 55.3739 51.439 55.3299 52.747 54.9789C55.024 54.3689 57.036 52.3569 57.646 50.0799C57.991 48.7929 58.041 45.9479 57.994 30.4529C57.961 19.5119 57.913 15.1319 57.824 14.6789C57.352 12.2999 56.023 10.5279 53.912 9.46191C53.063 9.03291 52.128 8.84091 50.4 8.73991C48.496 8.62891 15.257 8.63791 13.333 8.74991ZM51.983 12.9319C52.454 13.1449 53.227 13.7309 53.227 13.8759C53.227 13.9339 44.782 13.9729 32 13.9729C19.218 13.9729 10.773 13.9339 10.773 13.8759C10.773 13.7659 11.443 13.2189 11.818 13.0219C11.953 12.9519 12.265 12.8539 12.512 12.8039C12.758 12.7549 21.648 12.7219 32.267 12.7309C50.346 12.7459 51.599 12.7579 51.983 12.9319ZM53.949 33.4399L53.92 48.9069L53.691 49.4029C53.398 50.0359 52.703 50.7309 52.069 51.0239L51.573 51.2529H12.427L11.931 51.0239C11.297 50.7309 10.602 50.0359 10.309 49.4029L10.08 48.9069L10.051 33.4399L10.023 17.9729H53.977L53.949 33.4399ZM20.839 30.0749C20.374 30.1859 19.899 30.5469 19.616 31.0029C19.341 31.4489 19.288 32.4149 19.516 32.8539C19.591 32.9999 20.594 34.0679 21.743 35.2269L23.833 37.3329L21.743 39.4399C20.594 40.5989 19.591 41.6659 19.516 41.8129C19.44 41.9589 19.378 42.3569 19.378 42.6959C19.378 43.2059 19.432 43.3899 19.689 43.7539C19.86 43.9959 20.182 44.2879 20.404 44.4029C20.9 44.6589 21.703 44.6739 22.205 44.4359C22.408 44.3399 23.898 42.9299 25.515 41.3039C28.279 38.5239 28.462 38.3159 28.562 37.8399C28.632 37.5059 28.632 37.1609 28.562 36.8269C28.462 36.3499 28.279 36.1419 25.515 33.3629C23.898 31.7359 22.427 30.3379 22.247 30.2559C21.802 30.0509 21.242 29.9789 20.839 30.0749ZM34.172 40.7419C32.883 41.0489 32.261 42.6769 33.022 43.7539C33.193 43.9959 33.525 44.2949 33.76 44.4169C34.168 44.6299 34.369 44.6409 38.329 44.6719C43.108 44.7099 43.432 44.6749 44.052 44.0549C45.115 42.9919 44.615 41.1279 43.17 40.7639C42.617 40.6239 34.744 40.6049 34.172 40.7419Z" fill="#222222"/>
</svg>
