<svg width="64" height="64" viewBox="0 0 64 64" fill="none" xmlns="http://www.w3.org/2000/svg">
<path fill-rule="evenodd" clip-rule="evenodd" d="M13.333 8.74991C10.947 8.88891 9.54997 9.45291 8.16797 10.8349C7.08397 11.9189 6.49997 13.0889 6.19797 14.7789C5.99497 15.9159 5.98697 16.5079 5.97997 30.9929C5.97297 46.1839 6.02297 48.7769 6.34497 50.0199C7.02497 52.6449 9.17097 54.5899 12.012 55.1579C12.473 55.2499 17.388 55.2949 30.453 55.3279C48.635 55.3739 51.439 55.3299 52.747 54.9789C55.05 54.3619 57.058 52.3359 57.654 50.0269C57.977 48.7729 58.027 46.1919 58.019 31.0329C58.012 16.7559 58.001 15.9819 57.806 14.8199C57.402 12.4179 56.142 10.6359 54.083 9.55591C53.095 9.03891 52.23 8.84691 50.4 8.73991C48.496 8.62891 15.257 8.63791 13.333 8.74991ZM51.983 12.9319C52.454 13.1449 53.227 13.7309 53.227 13.8759C53.227 13.9339 44.782 13.9729 32 13.9729C19.218 13.9729 10.773 13.9339 10.773 13.8759C10.773 13.7659 11.443 13.2189 11.818 13.0219C11.953 12.9519 12.265 12.8539 12.512 12.8039C12.758 12.7549 21.648 12.7219 32.267 12.7309C50.346 12.7459 51.599 12.7579 51.983 12.9319ZM53.949 33.4669L53.92 48.9069L53.691 49.4029C53.398 50.0359 52.703 50.7309 52.069 51.0239L51.573 51.2529H12.427L11.931 51.0239C11.297 50.7309 10.602 50.0359 10.309 49.4029L10.08 48.9069L10.051 33.4669L10.022 18.0269H53.978L53.949 33.4669ZM39.733 27.3589C39.675 27.3789 39.483 27.4259 39.307 27.4649C39.07 27.5169 37.733 28.7859 34.162 32.3499L29.336 37.1649L27.175 35.0249C25.227 33.0969 24.964 32.8739 24.509 32.7619C23.612 32.5419 22.768 32.8859 22.283 33.6699C21.959 34.1939 21.953 35.1299 22.269 35.6389C22.393 35.8369 23.805 37.3029 25.407 38.8939C28.143 41.6129 28.351 41.7949 28.827 41.8949C29.158 41.9639 29.509 41.9649 29.84 41.8969C30.327 41.7969 30.567 41.5719 36.07 36.0699C41.587 30.5529 41.797 30.3279 41.898 29.8359C42.092 28.8889 41.687 27.9449 40.939 27.6009C40.569 27.4299 39.915 27.2989 39.733 27.3589Z" fill="#222222"/>
</svg>
