<svg width="64" height="64" viewBox="0 0 64 64" fill="none" xmlns="http://www.w3.org/2000/svg">
<path fill-rule="evenodd" clip-rule="evenodd" d="M13.333 8.74991C10.947 8.88891 9.54997 9.45291 8.16797 10.8349C7.08397 11.9189 6.49997 13.0889 6.19797 14.7789C5.99497 15.9159 5.98697 16.5079 5.97997 30.9929C5.97297 46.1839 6.02297 48.7769 6.34497 50.0199C7.02497 52.6449 9.17097 54.5899 12.012 55.1579C12.473 55.2499 17.388 55.2949 30.453 55.3279C48.635 55.3739 51.439 55.3299 52.747 54.9789C55.05 54.3619 57.058 52.3359 57.654 50.0269C57.977 48.7729 58.027 46.1919 58.019 31.0329C58.012 16.7559 58.001 15.9819 57.806 14.8199C57.402 12.4179 56.142 10.6359 54.083 9.55591C53.095 9.03891 52.23 8.84691 50.4 8.73991C48.496 8.62891 15.257 8.63791 13.333 8.74991ZM51.983 12.9319C52.454 13.1449 53.227 13.7309 53.227 13.8759C53.227 13.9339 44.782 13.9729 32 13.9729C19.218 13.9729 10.773 13.9339 10.773 13.8759C10.773 13.7659 11.443 13.2189 11.818 13.0219C11.953 12.9519 12.265 12.8539 12.512 12.8039C12.758 12.7549 21.648 12.7219 32.267 12.7309C50.346 12.7459 51.599 12.7579 51.983 12.9319ZM53.949 33.4669L53.92 48.9069L53.691 49.4029C53.398 50.0359 52.703 50.7309 52.069 51.0239L51.573 51.2529H12.427L11.931 51.0239C11.297 50.7309 10.602 50.0359 10.309 49.4029L10.08 48.9069L10.051 33.4669L10.022 18.0269H53.978L53.949 33.4669ZM26.4 27.3559C26.2592 27.3985 26.1168 27.4352 25.973 27.4659C25.743 27.5169 24.84 28.3459 22.74 30.4349C21.138 32.0289 19.726 33.4959 19.603 33.6949C19.293 34.1929 19.293 35.1409 19.603 35.6389C19.726 35.8369 21.138 37.3029 22.74 38.8939C25.476 41.6129 25.684 41.7949 26.16 41.8949C27.705 42.2179 28.886 41.0369 28.561 39.4929C28.462 39.0249 28.292 38.8229 26.313 36.8269L24.171 34.6669L26.313 32.5069C28.297 30.5049 28.462 30.3089 28.561 29.8359C28.76 28.8939 28.358 27.9519 27.606 27.5969C27.233 27.4209 26.579 27.2899 26.4 27.3559ZM36.839 27.4089C36.374 27.5189 35.899 27.8799 35.616 28.3369C35.341 28.7819 35.288 29.7479 35.516 30.1869C35.591 30.3339 36.594 31.4009 37.743 32.5599L39.833 34.6669L37.743 36.7729C36.594 37.9319 35.591 38.9999 35.516 39.1459C35.44 39.2929 35.378 39.6899 35.378 40.0299C35.378 40.5399 35.432 40.7229 35.689 41.0869C35.86 41.3289 36.182 41.6209 36.404 41.7359C36.9 41.9929 37.703 42.0079 38.205 41.7689C38.408 41.6729 39.898 40.2639 41.515 38.6369C44.279 35.8579 44.462 35.6499 44.562 35.1729C44.632 34.8389 44.632 34.4939 44.562 34.1599C44.462 33.6839 44.279 33.4759 41.515 30.6959C39.898 29.0699 38.427 27.6709 38.247 27.5889C37.802 27.3849 37.242 27.3129 36.839 27.4089Z" fill="#222222"/>
</svg>
