<svg width="64" height="64" viewBox="0 0 64 64" fill="none" xmlns="http://www.w3.org/2000/svg">
<path fill-rule="evenodd" clip-rule="evenodd" d="M25.032 6.08396C21.107 6.37496 16.818 8.05796 13.813 10.486C12.991 11.15 11.356 12.771 10.673 13.6C5.62297 19.725 4.59697 28.529 8.09897 35.68C9.14997 37.826 10.204 39.32 11.886 41.051C16.161 45.449 22.022 47.684 28.131 47.248C32.068 46.966 35.559 45.695 38.816 43.356L39.811 42.641L47.399 50.217C54.723 57.529 55.004 57.796 55.493 57.897C57.041 58.215 58.215 57.041 57.897 55.493C57.796 55.004 57.529 54.723 50.217 47.399L42.641 39.811L43.356 38.816C47.854 32.552 48.572 24.468 45.234 17.653C44.183 15.507 43.13 14.013 41.447 12.282C37.136 7.84696 31.246 5.62296 25.032 6.08396ZM29.067 10.178C32.789 10.749 35.957 12.375 38.571 15.057C39.98 16.503 40.731 17.561 41.645 19.391C43.867 23.837 43.867 29.497 41.645 33.942C40.731 35.772 39.98 36.83 38.571 38.276C35.358 41.573 31.261 43.303 26.667 43.303C22.072 43.303 17.975 41.573 14.762 38.276C13.353 36.83 12.603 35.772 11.688 33.942C9.74197 30.048 9.48297 25.274 10.988 21.045C12.224 17.569 14.888 14.295 17.973 12.458C19.973 11.267 21.964 10.536 24.16 10.187C25.318 10.003 27.894 9.99796 29.067 10.178ZM26.172 16.738C25.702 16.855 25.23 17.216 24.941 17.682C24.698 18.072 24.693 18.143 24.66 21.353L24.626 24.626L21.345 24.66L18.064 24.693L17.632 24.979C16.992 25.403 16.711 25.923 16.711 26.685C16.711 27.208 16.764 27.388 17.022 27.754C17.627 28.61 17.75 28.635 21.406 28.674L24.626 28.707L24.66 31.98C24.693 35.19 24.698 35.261 24.941 35.651C25.893 37.182 28.204 36.831 28.575 35.099C28.645 34.773 28.693 33.357 28.693 31.621V28.693H31.621C35.05 28.693 35.475 28.632 36.054 28.053C37.115 26.992 36.614 25.127 35.17 24.764C34.856 24.685 33.601 24.64 31.686 24.64H28.693L28.691 21.68C28.688 18.545 28.623 17.968 28.213 17.43C27.788 16.873 26.876 16.564 26.172 16.738Z" fill="#222222"/>
</svg>
